<svg width="443" height="277" viewBox="0 0 443 277" fill="none" xmlns="http://www.w3.org/2000/svg">
<path d="M6.31 110.45C5.95 110.45 5.77 110.315 5.77 110.045C5.29 109.205 5.05 107.48 5.05 104.87C5.05 104.24 5.095 103.4 5.185 102.35C5.275 101.3 5.395 100.205 5.545 99.065C5.695 97.925 5.86 96.89 6.04 95.96C6.22 95 6.415 94.31 6.625 93.89C6.805 93.53 7.03 93.35 7.3 93.35C7.78 93.35 8.02 93.545 8.02 93.935C8.02 94.145 7.99 94.355 7.93 94.565C7.87 94.745 7.81 94.97 7.75 95.24C7.36 96.74 7.045 98.33 6.805 100.01C6.595 101.69 6.49 103.415 6.49 105.185C6.49 105.995 6.52 106.715 6.58 107.345C6.67 107.975 6.76 108.515 6.85 108.965C7.69 108.635 8.62 107.99 9.64 107.03C10.66 106.04 11.65 104.945 12.61 103.745C13.39 102.755 14.095 101.75 14.725 100.73C15.385 99.71 15.895 98.75 16.255 97.85C16.645 96.95 16.84 96.215 16.84 95.645C16.84 95.255 16.795 94.985 16.705 94.835C16.645 94.685 16.57 94.565 16.48 94.475C16.39 94.385 16.345 94.22 16.345 93.98C16.345 93.53 16.57 93.305 17.02 93.305C17.32 93.305 17.59 93.53 17.83 93.98C18.07 94.43 18.19 95 18.19 95.69C18.19 97.82 16.705 100.805 13.735 104.645C10.675 108.515 8.2 110.45 6.31 110.45ZM27.9209 92.27C27.4109 92.27 27.1559 92.015 27.1559 91.505C27.1559 91.355 27.2609 91.085 27.4709 90.695C27.6809 90.275 27.9209 89.855 28.1909 89.435C28.4609 89.015 28.6709 88.73 28.8209 88.58C29.3309 88.01 29.7209 87.65 29.9909 87.5C30.2909 87.35 30.5609 87.275 30.8009 87.275C31.4309 87.275 31.7459 87.56 31.7459 88.13C31.7459 88.34 31.6109 88.595 31.3409 88.895C31.1009 89.165 30.8159 89.42 30.4859 89.66C30.0059 89.96 29.7059 90.2 29.5859 90.38L28.5959 91.775C28.5659 91.895 28.4909 92.015 28.3709 92.135C28.2809 92.225 28.1309 92.27 27.9209 92.27ZM20.2709 110.495C19.4309 110.495 18.8159 110.33 18.4259 110C18.0659 109.67 17.8859 109.175 17.8859 108.515C17.8859 107.885 18.0809 107.03 18.4709 105.95C18.8609 104.84 19.3559 103.655 19.9559 102.395C20.5859 101.135 21.2459 99.935 21.9359 98.795C22.6259 97.655 23.2859 96.725 23.9159 96.005C24.5759 95.255 25.1009 94.88 25.4909 94.88C26.0309 94.88 26.3009 95.12 26.3009 95.6C26.3009 95.9 26.0459 96.47 25.5359 97.31C25.0259 98.15 24.4709 99.02 23.8709 99.92C23.6309 100.25 23.3009 100.7 22.8809 101.27C22.4609 101.84 22.0559 102.38 21.6659 102.89C21.2759 103.37 21.0209 103.7 20.9009 103.88C20.6009 104.33 20.2859 105.065 19.9559 106.085C19.5959 107.105 19.4159 107.885 19.4159 108.425C19.4159 108.665 19.4609 108.845 19.5509 108.965C19.6709 109.085 19.9259 109.145 20.3159 109.145C21.0659 109.145 21.9059 108.905 22.8359 108.425C23.7659 107.945 24.7109 107.345 25.6709 106.625C26.6309 105.875 27.5309 105.11 28.3709 104.33C29.2409 103.55 29.9759 102.875 30.5759 102.305C30.6959 102.185 30.8759 102.125 31.1159 102.125C31.5659 102.125 31.7909 102.305 31.7909 102.665C31.7909 102.995 31.5809 103.37 31.1609 103.79C30.3509 104.6 29.6009 105.32 28.9109 105.95C28.2209 106.58 27.5609 107.135 26.9309 107.615C25.9409 108.335 24.8459 108.995 23.6459 109.595C22.4459 110.195 21.3209 110.495 20.2709 110.495ZM33.7322 110.81C32.4722 110.81 31.4822 110.375 30.7622 109.505C30.0422 108.635 29.6822 107.57 29.6822 106.31C29.6822 104.15 30.4022 101.93 31.8422 99.65C32.2322 99.02 32.6822 98.405 33.1922 97.805C33.7022 97.175 34.2572 96.575 34.8572 96.005C35.7572 95.135 36.7022 94.415 37.6922 93.845C38.6822 93.275 39.6422 92.99 40.5722 92.99C42.1022 92.99 42.8672 93.71 42.8672 95.15C42.8672 96.95 41.8172 98.585 39.7172 100.055C37.7672 101.375 35.8472 102.035 33.9572 102.035C33.6272 102.035 33.3272 102.02 33.0572 101.99C32.8172 101.93 32.5922 101.87 32.3822 101.81C32.0822 102.38 31.8122 103.115 31.5722 104.015C31.3322 104.915 31.2122 105.695 31.2122 106.355C31.2122 108.335 32.0822 109.325 33.8222 109.325C35.2322 109.325 36.5672 109.085 37.8272 108.605C39.0872 108.095 40.5872 107.15 42.3272 105.77C43.4072 104.93 44.2172 104.255 44.7572 103.745C45.2972 103.235 45.8822 102.695 46.5122 102.125C46.6922 102.005 46.8572 101.945 47.0072 101.945C47.1572 101.945 47.3072 101.99 47.4572 102.08C47.6072 102.17 47.6822 102.305 47.6822 102.485C47.6822 102.815 47.3822 103.28 46.7822 103.88C46.2722 104.36 45.7322 104.87 45.1622 105.41C44.5922 105.92 43.6922 106.64 42.4622 107.57C41.1422 108.59 39.7022 109.385 38.1422 109.955C36.5822 110.525 35.1122 110.81 33.7322 110.81ZM33.6872 100.595C34.6472 100.595 35.5622 100.445 36.4322 100.145C37.3022 99.845 38.1272 99.41 38.9072 98.84C40.6472 97.55 41.5172 96.335 41.5172 95.195C41.5172 94.685 41.2022 94.43 40.5722 94.43C39.3722 94.43 37.9772 95.165 36.3872 96.635C35.6072 97.355 34.9622 98.015 34.4522 98.615C33.9722 99.185 33.5222 99.815 33.1022 100.505C33.2822 100.565 33.4772 100.595 33.6872 100.595ZM60.9825 110.9C60.2325 110.9 59.6475 110.6 59.2275 110C58.8075 109.4 58.5975 108.65 58.5975 107.75C58.5975 107.51 58.6125 107.15 58.6425 106.67C58.6725 106.16 58.7025 105.635 58.7325 105.095C58.7925 104.525 58.8375 104.03 58.8675 103.61C58.8975 103.16 58.9275 102.89 58.9575 102.8L58.9125 102.62C58.6425 103.01 58.2675 103.52 57.7875 104.15C57.3375 104.78 56.8575 105.425 56.3475 106.085C55.8675 106.715 55.4325 107.27 55.0425 107.75C54.4125 108.5 53.7225 109.085 52.9725 109.505C52.2225 109.925 51.5325 110.135 50.9025 110.135C50.1525 110.135 49.5225 109.76 49.0125 109.01C48.5025 108.23 48.2475 107.12 48.2475 105.68C48.2475 104.3 48.4725 102.755 48.9225 101.045L47.5275 102.665C47.3175 102.875 47.1375 103.055 46.9875 103.205C46.8375 103.325 46.6875 103.385 46.5375 103.385C46.3875 103.385 46.2375 103.325 46.0875 103.205C45.9675 103.055 45.9075 102.875 45.9075 102.665C45.9075 102.455 45.9825 102.275 46.1325 102.125C46.4325 101.795 46.7775 101.375 47.1675 100.865C47.5875 100.325 48.0675 99.71 48.6075 99.02C49.0575 98.39 49.8075 97.22 50.8575 95.51C51.0375 95.21 51.2775 95.06 51.5775 95.06C52.0875 95.06 52.3425 95.3 52.3425 95.78C52.3425 95.93 52.2675 96.14 52.1175 96.41C51.9675 96.65 51.7575 97.115 51.4875 97.805C50.9475 99.215 50.5275 100.61 50.2275 101.99C49.9275 103.34 49.7775 104.675 49.7775 105.995C49.7775 107.135 49.8525 107.885 50.0025 108.245C50.1525 108.575 50.3775 108.74 50.6775 108.74C51.6375 108.74 52.7925 108.02 54.1425 106.58C54.5325 106.16 55.1175 105.455 55.8975 104.465C56.6775 103.445 57.4875 102.26 58.3275 100.91C59.1675 99.53 59.8275 98.12 60.3075 96.68L60.9825 94.7C61.0725 94.43 61.2675 94.295 61.5675 94.295C62.1075 94.295 62.3775 94.55 62.3775 95.06C62.3775 95.24 62.2125 95.72 61.8825 96.5C61.5525 97.25 61.2225 98.435 60.8925 100.055C60.6825 101.075 60.4875 102.155 60.3075 103.295C60.1575 104.435 60.0825 105.53 60.0825 106.58C60.0825 108.59 60.4125 109.595 61.0725 109.595C61.6125 109.595 62.3025 109.31 63.1425 108.74C63.9825 108.17 64.8675 107.45 65.7975 106.58C66.7275 105.71 67.5675 104.81 68.3175 103.88C69.0075 103.07 69.7125 102.14 70.4325 101.09C71.1525 100.04 71.7525 98.99 72.2325 97.94C72.7425 96.86 72.9975 95.93 72.9975 95.15C72.9975 94.37 72.7875 93.86 72.3675 93.62C72.3075 93.59 71.9025 93.53 71.1525 93.44C70.7325 93.38 70.5225 93.14 70.5225 92.72C70.5225 92.24 70.7625 92 71.2425 92C72.2025 92 72.9675 92.27 73.5375 92.81C74.1375 93.35 74.4375 94.085 74.4375 95.015C74.4375 97.535 72.7575 100.79 69.3975 104.78C65.9775 108.86 63.1725 110.9 60.9825 110.9ZM84.405 124.85C83.445 124.85 82.77 124.52 82.38 123.86C81.96 123.23 81.75 122.375 81.75 121.295C81.75 118.835 82.905 115.04 85.215 109.91C85.095 109.79 85.035 109.64 85.035 109.46C85.035 109.16 85.305 108.86 85.845 108.56C87.435 105.35 88.905 102.515 90.255 100.055C91.635 97.565 92.88 95.45 93.99 93.71C97.71 88.01 101.055 84.065 104.025 81.875C104.415 81.575 104.79 81.335 105.15 81.155C105.51 80.975 105.87 80.885 106.23 80.885C106.71 80.885 106.95 81.08 106.95 81.47C106.95 81.68 106.86 81.905 106.68 82.145C106.53 82.355 106.26 82.7 105.87 83.18C105.42 83.69 104.895 84.29 104.295 84.98C103.695 85.64 103.065 86.33 102.405 87.05C101.775 87.77 101.19 88.43 100.65 89.03C100.11 89.6 99.675 90.05 99.345 90.38L95.205 94.655L93.765 96.95C93.375 97.55 92.895 98.375 92.325 99.425C91.785 100.445 91.14 101.66 90.39 103.07C90.09 103.64 89.7 104.375 89.22 105.275C88.77 106.175 88.245 107.24 87.645 108.47C87.885 108.5 88.095 108.56 88.275 108.65C88.485 108.71 88.68 108.785 88.86 108.875C92.97 107.615 96.855 105.395 100.515 102.215C100.725 102.065 100.905 101.99 101.055 101.99C101.565 101.99 101.82 102.215 101.82 102.665C101.82 102.785 101.775 102.905 101.685 103.025C101.625 103.145 101.55 103.265 101.46 103.385C101.01 103.865 100.365 104.42 99.525 105.05C98.685 105.68 97.635 106.355 96.375 107.075C95.295 107.675 94.245 108.23 93.225 108.74C92.235 109.22 91.275 109.625 90.345 109.955C91.185 110.975 91.605 112.28 91.605 113.87C91.605 116.06 90.96 118.34 89.67 120.71C88.17 123.47 86.415 124.85 84.405 124.85ZM84.135 123.5C85.005 123.5 85.83 123.14 86.61 122.42C87.42 121.7 88.11 120.77 88.68 119.63C89.1 118.82 89.445 117.845 89.715 116.705C90.015 115.595 90.165 114.62 90.165 113.78C90.165 112.1 89.655 110.975 88.635 110.405C88.245 110.465 87.885 110.51 87.555 110.54C87.225 110.6 86.91 110.615 86.61 110.585V110.63C84.09 116.24 82.83 120.08 82.83 122.15C82.83 122.6 82.95 122.93 83.19 123.14C83.43 123.38 83.745 123.5 84.135 123.5ZM104.116 110.45C102.376 110.45 101.506 109.625 101.506 107.975C101.506 106.895 101.761 105.74 102.271 104.51C102.811 103.25 103.531 102.035 104.431 100.865C105.331 99.665 106.336 98.585 107.446 97.625C108.556 96.635 109.696 95.855 110.866 95.285C112.036 94.685 113.161 94.385 114.241 94.385C116.161 94.385 117.121 95.33 117.121 97.22C117.121 98.45 116.821 99.065 116.221 99.065C115.681 99.065 115.411 98.81 115.411 98.3C115.411 98.09 115.456 97.88 115.546 97.67C115.666 97.43 115.726 97.175 115.726 96.905C115.726 96.065 115.156 95.645 114.016 95.645C112.186 95.645 109.891 97.04 107.131 99.83C106.471 100.52 105.826 101.33 105.196 102.26C104.566 103.19 104.041 104.135 103.621 105.095C103.231 106.025 103.036 106.91 103.036 107.75C103.036 108.56 103.486 108.965 104.386 108.965C105.166 108.965 105.991 108.725 106.861 108.245C107.761 107.765 108.541 107.27 109.201 106.76C110.521 105.77 111.871 104.42 113.251 102.71C113.461 102.47 113.731 102.155 114.061 101.765C114.391 101.375 114.766 100.94 115.186 100.46C115.336 100.31 115.516 100.235 115.726 100.235C116.206 100.235 116.446 100.475 116.446 100.955L114.736 103.52C113.596 105.2 113.026 106.58 113.026 107.66C113.026 108.44 113.401 108.83 114.151 108.83C114.781 108.83 115.471 108.665 116.221 108.335C116.971 108.005 117.586 107.675 118.066 107.345C119.026 106.715 120.031 105.935 121.081 105.005C122.131 104.045 123.136 103.085 124.096 102.125C124.216 102.005 124.396 101.945 124.636 101.945C125.086 101.945 125.311 102.125 125.311 102.485C125.311 102.815 125.101 103.19 124.681 103.61C123.481 104.81 122.401 105.845 121.441 106.715C120.481 107.555 119.566 108.245 118.696 108.785C118.126 109.115 117.421 109.46 116.581 109.82C115.741 110.18 114.781 110.36 113.701 110.36C112.231 110.36 111.496 109.58 111.496 108.02C111.496 107.42 111.571 106.925 111.721 106.535C108.991 109.145 106.456 110.45 104.116 110.45ZM121.086 111.53C120.576 111.53 120.321 111.29 120.321 110.81C120.321 110.78 120.501 110.405 120.861 109.685C121.221 108.965 121.731 107.9 122.391 106.49L124.686 101.675C125.616 99.725 126.276 98.18 126.666 97.04C127.086 95.9 127.296 95.165 127.296 94.835C127.296 94.355 127.536 94.115 128.016 94.115C128.496 94.115 128.736 94.355 128.736 94.835C128.736 95.225 128.601 95.84 128.331 96.68C128.091 97.49 127.686 98.54 127.116 99.83L124.821 105.05C131.091 97.13 135.816 93.17 138.996 93.17C139.596 93.17 140.061 93.425 140.391 93.935C140.721 94.415 140.886 94.955 140.886 95.555C140.886 96.995 139.851 99.5 137.781 103.07C139.371 101.45 140.976 99.83 142.596 98.21C144.246 96.56 145.896 94.94 147.546 93.35C147.966 92.96 148.311 92.765 148.581 92.765C148.941 92.765 149.241 92.945 149.481 93.305C149.721 93.635 149.841 93.995 149.841 94.385C149.841 94.685 149.706 95.06 149.436 95.51C149.046 96.17 148.686 96.965 148.356 97.895C148.026 98.795 147.651 99.815 147.231 100.955C146.751 102.245 146.406 103.37 146.196 104.33C145.986 105.29 145.881 106.07 145.881 106.67C145.881 107.42 146.061 107.975 146.421 108.335C146.781 108.665 147.141 108.83 147.501 108.83C148.131 108.83 148.821 108.665 149.571 108.335C150.321 108.005 150.936 107.675 151.416 107.345C152.376 106.715 153.381 105.935 154.431 105.005C155.481 104.045 156.486 103.085 157.446 102.125C157.566 102.005 157.746 101.945 157.986 101.945C158.436 101.945 158.661 102.125 158.661 102.485C158.661 102.815 158.451 103.19 158.031 103.61C156.831 104.81 155.751 105.845 154.791 106.715C153.831 107.555 152.916 108.245 152.046 108.785C151.476 109.115 150.786 109.46 149.976 109.82C149.166 110.18 148.296 110.36 147.366 110.36C146.496 110.36 145.761 110.09 145.161 109.55C144.591 109.01 144.306 107.855 144.306 106.085C144.306 105.395 144.426 104.585 144.666 103.655C144.906 102.695 145.266 101.63 145.746 100.46L148.131 94.79L141.696 101.27C140.946 102.02 140.331 102.65 139.851 103.16C139.371 103.67 138.981 104.09 138.681 104.42C138.111 105.02 137.601 105.605 137.151 106.175C136.731 106.745 136.371 107.24 136.071 107.66C135.861 107.99 135.621 108.155 135.351 108.155C134.841 108.155 134.586 107.945 134.586 107.525C134.586 106.595 135.426 104.45 137.106 101.09C138.786 97.73 139.626 95.72 139.626 95.06C139.626 94.76 139.296 94.61 138.636 94.61C135.966 94.61 131.211 98.975 124.371 107.705C123.801 108.515 122.856 109.73 121.536 111.35C121.446 111.47 121.296 111.53 121.086 111.53ZM165.646 92.27C165.136 92.27 164.881 92.015 164.881 91.505C164.881 91.355 164.986 91.085 165.196 90.695C165.406 90.275 165.646 89.855 165.916 89.435C166.186 89.015 166.396 88.73 166.546 88.58C167.056 88.01 167.446 87.65 167.716 87.5C168.016 87.35 168.286 87.275 168.526 87.275C169.156 87.275 169.471 87.56 169.471 88.13C169.471 88.34 169.336 88.595 169.066 88.895C168.826 89.165 168.541 89.42 168.211 89.66C167.731 89.96 167.431 90.2 167.311 90.38L166.321 91.775C166.291 91.895 166.216 92.015 166.096 92.135C166.006 92.225 165.856 92.27 165.646 92.27ZM157.996 110.495C157.156 110.495 156.541 110.33 156.151 110C155.791 109.67 155.611 109.175 155.611 108.515C155.611 107.885 155.806 107.03 156.196 105.95C156.586 104.84 157.081 103.655 157.681 102.395C158.311 101.135 158.971 99.935 159.661 98.795C160.351 97.655 161.011 96.725 161.641 96.005C162.301 95.255 162.826 94.88 163.216 94.88C163.756 94.88 164.026 95.12 164.026 95.6C164.026 95.9 163.771 96.47 163.261 97.31C162.751 98.15 162.196 99.02 161.596 99.92C161.356 100.25 161.026 100.7 160.606 101.27C160.186 101.84 159.781 102.38 159.391 102.89C159.001 103.37 158.746 103.7 158.626 103.88C158.326 104.33 158.011 105.065 157.681 106.085C157.321 107.105 157.141 107.885 157.141 108.425C157.141 108.665 157.186 108.845 157.276 108.965C157.396 109.085 157.651 109.145 158.041 109.145C158.791 109.145 159.631 108.905 160.561 108.425C161.491 107.945 162.436 107.345 163.396 106.625C164.356 105.875 165.256 105.11 166.096 104.33C166.966 103.55 167.701 102.875 168.301 102.305C168.421 102.185 168.601 102.125 168.841 102.125C169.291 102.125 169.516 102.305 169.516 102.665C169.516 102.995 169.306 103.37 168.886 103.79C168.076 104.6 167.326 105.32 166.636 105.95C165.946 106.58 165.286 107.135 164.656 107.615C163.666 108.335 162.571 108.995 161.371 109.595C160.171 110.195 159.046 110.495 157.996 110.495ZM171.862 111.215C170.482 111.215 169.417 110.795 168.667 109.955C167.947 109.085 167.587 107.945 167.587 106.535C167.587 105.515 167.767 104.285 168.127 102.845C168.757 100.415 169.822 97.595 171.322 94.385C172.492 91.955 173.752 89.57 175.102 87.23C176.452 84.86 177.937 82.535 179.557 80.255C182.137 76.595 183.937 74.765 184.957 74.765C185.617 74.765 185.947 74.945 185.947 75.305C185.947 75.815 185.107 77.09 183.427 79.13L180.277 82.955C177.547 86.255 175.312 89.63 173.572 93.08C171.862 96.53 170.527 99.98 169.567 103.43C169.297 104.42 169.162 105.35 169.162 106.22C169.162 108.5 170.092 109.64 171.952 109.64C172.612 109.64 173.287 109.445 173.977 109.055C174.667 108.695 175.042 108.515 175.102 108.515C175.462 108.515 175.642 108.77 175.642 109.28C175.642 109.73 175.477 110.075 175.147 110.315C174.127 110.915 173.032 111.215 171.862 111.215ZM177.709 124.895C175.879 124.895 174.964 123.815 174.964 121.655C174.964 119.825 175.354 118.055 176.134 116.345C176.254 116.045 176.449 115.895 176.719 115.895C177.259 115.895 177.529 116.135 177.529 116.615C177.529 116.735 177.484 116.885 177.394 117.065C177.334 117.275 177.259 117.5 177.169 117.74C176.959 118.31 176.794 118.91 176.674 119.54C176.554 120.17 176.494 120.83 176.494 121.52C176.494 122.3 176.599 122.825 176.809 123.095C177.019 123.365 177.289 123.5 177.619 123.5C178.399 123.5 179.314 123.14 180.364 122.42C181.444 121.7 182.554 120.56 183.694 119C184.504 117.89 185.344 116.57 186.214 115.04C187.084 113.51 188.014 111.755 189.004 109.775C190.324 107.165 191.539 104.51 192.649 101.81C191.899 102.77 191.119 103.7 190.309 104.6C189.499 105.5 188.629 106.34 187.699 107.12C185.209 109.25 183.139 110.315 181.489 110.315C179.509 110.315 178.519 109.175 178.519 106.895C178.519 106.085 178.669 105.11 178.969 103.97C179.299 102.83 179.749 101.525 180.319 100.055C180.409 99.815 180.454 99.62 180.454 99.47C180.454 99.29 180.499 99.11 180.589 98.93C181.069 97.88 181.864 96.71 182.974 95.42C183.214 95.15 183.424 95.015 183.604 95.015C184.054 95.015 184.279 95.345 184.279 96.005C181.369 100.295 179.914 103.925 179.914 106.895C179.914 108.155 180.409 108.785 181.399 108.785C182.509 108.785 184.054 108.02 186.034 106.49C187.444 105.41 188.749 104.195 189.949 102.845C191.149 101.465 192.229 100.04 193.189 98.57C193.849 97.58 194.374 96.71 194.764 95.96C195.184 95.18 195.439 94.655 195.529 94.385C195.679 93.935 195.889 93.71 196.159 93.71C196.729 93.71 197.014 93.95 197.014 94.43C197.014 94.67 196.894 95.105 196.654 95.735C196.444 96.335 196.174 97.055 195.844 97.895C195.364 99.125 194.674 100.775 193.774 102.845C192.874 104.915 191.749 107.375 190.399 110.225C188.719 113.765 187.069 116.66 185.449 118.91C184.249 120.62 182.929 122.045 181.489 123.185C180.079 124.325 178.819 124.895 177.709 124.895ZM215.153 113.78C213.083 113.78 211.343 112.895 209.933 111.125C208.613 109.445 207.953 107.555 207.953 105.455C207.953 100.775 210.893 95.765 216.773 90.425V89.93C216.773 87.32 217.478 84.485 218.888 81.425C220.568 77.825 222.608 76.025 225.008 76.025C225.998 76.025 226.793 76.34 227.393 76.97C227.993 77.57 228.293 78.365 228.293 79.355C228.293 81.095 227.003 83.225 224.423 85.745L218.348 91.145C218.408 91.715 218.513 92.435 218.663 93.305C218.843 94.145 219.038 95.135 219.248 96.275C219.668 95.615 220.148 94.985 220.688 94.385C221.228 93.785 221.843 93.23 222.533 92.72C224.063 91.55 225.503 90.965 226.853 90.965C228.323 90.965 229.478 91.565 230.318 92.765C231.098 93.815 231.488 95.09 231.488 96.59C231.488 98.24 230.858 100.325 229.598 102.845C228.518 105.065 227.333 106.925 226.043 108.425L228.023 110.225C229.043 111.155 229.553 111.755 229.553 112.025C229.553 112.265 229.448 112.385 229.238 112.385C229.088 112.385 227.813 111.305 225.413 109.145C222.503 112.235 219.083 113.78 215.153 113.78ZM218.393 88.985L223.613 84.665C225.923 82.535 227.078 80.825 227.078 79.535C227.078 78.995 226.868 78.53 226.448 78.14C226.058 77.75 225.608 77.555 225.098 77.555C223.568 77.555 222.053 79.115 220.553 82.235C219.293 84.785 218.573 87.035 218.393 88.985ZM215.153 112.43C218.633 112.43 221.723 111.035 224.423 108.245C221.663 105.665 219.713 102.725 218.573 99.425C218.093 100.475 217.853 101.72 217.853 103.16C217.853 103.76 217.688 104.09 217.358 104.15C217.088 104 216.953 103.58 216.953 102.89C216.953 101.39 217.358 99.83 218.168 98.21C217.568 96.08 217.163 94.205 216.953 92.585C212.153 97.565 209.753 101.93 209.753 105.68C209.753 107.42 210.218 108.935 211.148 110.225C212.168 111.695 213.503 112.43 215.153 112.43ZM225.098 107.48C226.298 106.1 227.333 104.51 228.203 102.71C229.223 100.64 229.733 98.84 229.733 97.31C229.733 96.05 229.448 94.985 228.878 94.115C228.218 93.095 227.303 92.585 226.133 92.585C225.083 92.585 223.853 93.17 222.443 94.34C221.873 94.82 221.348 95.315 220.868 95.825C220.388 96.335 219.953 96.89 219.563 97.49C220.643 101.48 222.488 104.81 225.098 107.48ZM245.64 124.85C244.68 124.85 244.005 124.52 243.615 123.86C243.195 123.23 242.985 122.375 242.985 121.295C242.985 118.835 244.14 115.04 246.45 109.91C246.33 109.79 246.27 109.64 246.27 109.46C246.27 109.16 246.54 108.86 247.08 108.56C248.67 105.35 250.14 102.515 251.49 100.055C252.87 97.565 254.115 95.45 255.225 93.71C258.945 88.01 262.29 84.065 265.26 81.875C265.65 81.575 266.025 81.335 266.385 81.155C266.745 80.975 267.105 80.885 267.465 80.885C267.945 80.885 268.185 81.08 268.185 81.47C268.185 81.68 268.095 81.905 267.915 82.145C267.765 82.355 267.495 82.7 267.105 83.18C266.655 83.69 266.13 84.29 265.53 84.98C264.93 85.64 264.3 86.33 263.64 87.05C263.01 87.77 262.425 88.43 261.885 89.03C261.345 89.6 260.91 90.05 260.58 90.38L256.44 94.655L255 96.95C254.61 97.55 254.13 98.375 253.56 99.425C253.02 100.445 252.375 101.66 251.625 103.07C251.325 103.64 250.935 104.375 250.455 105.275C250.005 106.175 249.48 107.24 248.88 108.47C249.12 108.5 249.33 108.56 249.51 108.65C249.72 108.71 249.915 108.785 250.095 108.875C254.205 107.615 258.09 105.395 261.75 102.215C261.96 102.065 262.14 101.99 262.29 101.99C262.8 101.99 263.055 102.215 263.055 102.665C263.055 102.785 263.01 102.905 262.92 103.025C262.86 103.145 262.785 103.265 262.695 103.385C262.245 103.865 261.6 104.42 260.76 105.05C259.92 105.68 258.87 106.355 257.61 107.075C256.53 107.675 255.48 108.23 254.46 108.74C253.47 109.22 252.51 109.625 251.58 109.955C252.42 110.975 252.84 112.28 252.84 113.87C252.84 116.06 252.195 118.34 250.905 120.71C249.405 123.47 247.65 124.85 245.64 124.85ZM245.37 123.5C246.24 123.5 247.065 123.14 247.845 122.42C248.655 121.7 249.345 120.77 249.915 119.63C250.335 118.82 250.68 117.845 250.95 116.705C251.25 115.595 251.4 114.62 251.4 113.78C251.4 112.1 250.89 110.975 249.87 110.405C249.48 110.465 249.12 110.51 248.79 110.54C248.46 110.6 248.145 110.615 247.845 110.585V110.63C245.325 116.24 244.065 120.08 244.065 122.15C244.065 122.6 244.185 122.93 244.425 123.14C244.665 123.38 244.98 123.5 245.37 123.5ZM261.842 111.125C261.362 111.125 261.122 110.93 261.122 110.54C261.122 110.36 261.167 110.18 261.257 110C261.377 109.82 261.467 109.67 261.527 109.55L265.622 101.27C267.362 97.73 268.232 95.765 268.232 95.375C268.232 94.955 268.442 94.745 268.862 94.745C269.432 94.745 269.717 95.03 269.717 95.6C269.717 95.9 269.582 96.38 269.312 97.04C269.042 97.7 268.697 98.465 268.277 99.335C267.557 100.895 266.957 102.095 266.477 102.935C267.377 101.885 268.292 100.895 269.222 99.965C270.152 99.035 271.097 98.15 272.057 97.31C274.907 94.82 277.097 93.575 278.627 93.575C279.677 93.575 280.202 94.07 280.202 95.06C280.202 96.02 279.887 96.5 279.257 96.5C278.957 96.5 278.732 96.245 278.582 95.735C278.492 95.375 278.282 95.195 277.952 95.195C277.442 95.195 276.452 95.75 274.982 96.86C273.362 98.06 271.727 99.485 270.077 101.135C268.457 102.785 266.732 104.885 264.902 107.435L262.652 110.585C262.532 110.735 262.412 110.855 262.292 110.945C262.202 111.065 262.052 111.125 261.842 111.125ZM287.55 92.27C287.04 92.27 286.785 92.015 286.785 91.505C286.785 91.355 286.89 91.085 287.1 90.695C287.31 90.275 287.55 89.855 287.82 89.435C288.09 89.015 288.3 88.73 288.45 88.58C288.96 88.01 289.35 87.65 289.62 87.5C289.92 87.35 290.19 87.275 290.43 87.275C291.06 87.275 291.375 87.56 291.375 88.13C291.375 88.34 291.24 88.595 290.97 88.895C290.73 89.165 290.445 89.42 290.115 89.66C289.635 89.96 289.335 90.2 289.215 90.38L288.225 91.775C288.195 91.895 288.12 92.015 288 92.135C287.91 92.225 287.76 92.27 287.55 92.27ZM279.9 110.495C279.06 110.495 278.445 110.33 278.055 110C277.695 109.67 277.515 109.175 277.515 108.515C277.515 107.885 277.71 107.03 278.1 105.95C278.49 104.84 278.985 103.655 279.585 102.395C280.215 101.135 280.875 99.935 281.565 98.795C282.255 97.655 282.915 96.725 283.545 96.005C284.205 95.255 284.73 94.88 285.12 94.88C285.66 94.88 285.93 95.12 285.93 95.6C285.93 95.9 285.675 96.47 285.165 97.31C284.655 98.15 284.1 99.02 283.5 99.92C283.26 100.25 282.93 100.7 282.51 101.27C282.09 101.84 281.685 102.38 281.295 102.89C280.905 103.37 280.65 103.7 280.53 103.88C280.23 104.33 279.915 105.065 279.585 106.085C279.225 107.105 279.045 107.885 279.045 108.425C279.045 108.665 279.09 108.845 279.18 108.965C279.3 109.085 279.555 109.145 279.945 109.145C280.695 109.145 281.535 108.905 282.465 108.425C283.395 107.945 284.34 107.345 285.3 106.625C286.26 105.875 287.16 105.11 288 104.33C288.87 103.55 289.605 102.875 290.205 102.305C290.325 102.185 290.505 102.125 290.745 102.125C291.195 102.125 291.42 102.305 291.42 102.665C291.42 102.995 291.21 103.37 290.79 103.79C289.98 104.6 289.23 105.32 288.54 105.95C287.85 106.58 287.19 107.135 286.56 107.615C285.57 108.335 284.475 108.995 283.275 109.595C282.075 110.195 280.95 110.495 279.9 110.495ZM293.361 110.81C292.101 110.81 291.111 110.375 290.391 109.505C289.671 108.635 289.311 107.57 289.311 106.31C289.311 104.15 290.031 101.93 291.471 99.65C291.861 99.02 292.311 98.405 292.821 97.805C293.331 97.175 293.886 96.575 294.486 96.005C295.386 95.135 296.331 94.415 297.321 93.845C298.311 93.275 299.271 92.99 300.201 92.99C301.731 92.99 302.496 93.71 302.496 95.15C302.496 96.95 301.446 98.585 299.346 100.055C297.396 101.375 295.476 102.035 293.586 102.035C293.256 102.035 292.956 102.02 292.686 101.99C292.446 101.93 292.221 101.87 292.011 101.81C291.711 102.38 291.441 103.115 291.201 104.015C290.961 104.915 290.841 105.695 290.841 106.355C290.841 108.335 291.711 109.325 293.451 109.325C294.861 109.325 296.196 109.085 297.456 108.605C298.716 108.095 300.216 107.15 301.956 105.77C303.036 104.93 303.846 104.255 304.386 103.745C304.926 103.235 305.511 102.695 306.141 102.125C306.321 102.005 306.486 101.945 306.636 101.945C306.786 101.945 306.936 101.99 307.086 102.08C307.236 102.17 307.311 102.305 307.311 102.485C307.311 102.815 307.011 103.28 306.411 103.88C305.901 104.36 305.361 104.87 304.791 105.41C304.221 105.92 303.321 106.64 302.091 107.57C300.771 108.59 299.331 109.385 297.771 109.955C296.211 110.525 294.741 110.81 293.361 110.81ZM293.316 100.595C294.276 100.595 295.191 100.445 296.061 100.145C296.931 99.845 297.756 99.41 298.536 98.84C300.276 97.55 301.146 96.335 301.146 95.195C301.146 94.685 300.831 94.43 300.201 94.43C299.001 94.43 297.606 95.165 296.016 96.635C295.236 97.355 294.591 98.015 294.081 98.615C293.601 99.185 293.151 99.815 292.731 100.505C292.911 100.565 293.106 100.595 293.316 100.595ZM303.106 111.125C302.626 111.125 302.386 110.93 302.386 110.54C302.386 110.39 302.446 110.21 302.566 110C302.686 109.76 302.791 109.565 302.881 109.415L306.931 101.27C308.671 97.73 309.541 95.765 309.541 95.375C309.541 94.955 309.751 94.745 310.171 94.745C310.741 94.745 311.026 95.045 311.026 95.645C311.026 95.855 310.891 96.305 310.621 96.995C310.351 97.685 310.006 98.465 309.586 99.335C308.866 100.895 308.266 102.095 307.786 102.935C308.686 101.885 309.601 100.895 310.531 99.965C311.461 99.035 312.406 98.15 313.366 97.31C316.216 94.82 318.406 93.575 319.936 93.575C320.986 93.575 321.511 94.07 321.511 95.06C321.511 95.96 320.746 97.985 319.216 101.135C317.686 104.315 316.921 106.325 316.921 107.165C316.921 107.555 317.056 107.75 317.326 107.75C317.416 107.75 317.551 107.72 317.731 107.66C317.941 107.57 318.151 107.525 318.361 107.525C318.871 107.525 319.126 107.765 319.126 108.245C319.126 108.845 318.481 109.145 317.191 109.145C316.591 109.145 316.156 109.01 315.886 108.74C315.616 108.44 315.481 108.05 315.481 107.57C315.481 106.13 316.216 103.94 317.686 101C319.156 98.09 319.891 96.335 319.891 95.735C319.891 95.375 319.756 95.195 319.486 95.195C318.826 95.195 317.761 95.75 316.291 96.86C314.701 98.06 313.111 99.44 311.521 101C309.931 102.56 308.416 104.345 306.976 106.355L303.826 110.72C303.646 110.99 303.406 111.125 303.106 111.125ZM337.102 114.005C336.862 114.005 336.562 113.885 336.202 113.645C335.872 113.435 335.617 113.225 335.437 113.015C335.077 112.565 334.837 112.025 334.717 111.395C334.597 110.765 334.537 110.075 334.537 109.325C334.537 108.695 334.552 108.02 334.582 107.3C334.642 106.55 334.732 105.755 334.852 104.915C334.072 105.815 333.187 106.7 332.197 107.57C331.237 108.41 330.247 109.1 329.227 109.64C328.237 110.18 327.292 110.45 326.392 110.45C324.142 110.45 323.017 109.25 323.017 106.85C323.017 104.36 323.887 101.96 325.627 99.65C326.497 98.51 327.487 97.415 328.597 96.365C329.707 95.315 330.877 94.46 332.107 93.8C333.337 93.14 334.552 92.81 335.752 92.81C336.652 92.81 337.447 93.155 338.137 93.845C338.197 93.725 338.272 93.53 338.362 93.26C338.482 92.99 338.647 92.645 338.857 92.225C339.577 90.665 340.372 89.045 341.242 87.365C342.112 85.655 342.892 84.245 343.582 83.135C344.362 81.905 345.097 81.29 345.787 81.29C346.267 81.29 346.507 81.665 346.507 82.415C346.507 83.705 345.292 86.72 342.862 91.46C342.712 91.73 342.442 92.225 342.052 92.945C341.692 93.635 341.257 94.445 340.747 95.375C340.267 96.275 339.772 97.175 339.262 98.075C338.752 98.975 338.287 99.785 337.867 100.505C337.477 101.195 337.192 101.675 337.012 101.945C336.682 103.295 336.427 104.585 336.247 105.815C336.067 107.015 335.977 108.26 335.977 109.55C335.977 110.03 335.992 110.465 336.022 110.855C336.082 111.275 336.202 111.605 336.382 111.845C336.532 112.025 336.697 112.16 336.877 112.25C337.057 112.37 337.267 112.475 337.507 112.565C337.867 112.655 338.047 112.865 338.047 113.195C338.047 113.735 337.732 114.005 337.102 114.005ZM339.217 95.195C340.357 93.245 341.362 91.43 342.232 89.75C343.102 88.04 343.807 86.435 344.347 84.935C343.147 86.495 342.142 88.145 341.332 89.885C340.522 91.625 339.817 93.395 339.217 95.195ZM326.077 109.1C326.947 109.1 327.862 108.815 328.822 108.245C329.812 107.645 330.742 106.94 331.612 106.13C332.392 105.41 333.112 104.675 333.772 103.925C334.432 103.145 335.047 102.35 335.617 101.54C335.857 100.49 336.127 99.455 336.427 98.435C336.757 97.415 337.117 96.395 337.507 95.375C337.027 94.625 336.352 94.25 335.482 94.25C334.582 94.25 333.577 94.595 332.467 95.285C331.387 95.945 330.337 96.77 329.317 97.76C328.327 98.75 327.472 99.695 326.752 100.595C325.252 102.605 324.502 104.735 324.502 106.985C324.502 108.395 325.027 109.1 326.077 109.1ZM342.276 111.485C340.596 111.485 339.756 110.93 339.756 109.82C339.756 109.13 339.996 108.44 340.476 107.75C340.986 107.06 341.586 106.43 342.276 105.86C342.966 105.29 343.611 104.855 344.211 104.555C344.391 104.465 344.631 104.375 344.931 104.285C345.261 104.195 345.531 104.15 345.741 104.15C345.981 104.15 346.101 104.24 346.101 104.42C346.101 104.57 345.936 104.735 345.606 104.915C344.226 105.575 343.146 106.37 342.366 107.3C341.616 108.2 341.241 108.935 341.241 109.505C341.241 110.045 341.706 110.315 342.636 110.315C343.416 110.315 344.256 110.12 345.156 109.73C346.086 109.34 346.956 108.83 347.766 108.2C348.606 107.57 349.296 106.895 349.836 106.175C350.376 105.455 350.646 104.765 350.646 104.105C350.646 103.655 350.496 103.25 350.196 102.89C349.926 102.53 349.476 102.26 348.846 102.08L345.876 101.18C345.126 100.94 344.586 100.625 344.256 100.235C343.926 99.845 343.761 99.41 343.761 98.93C343.761 98.03 344.091 97.22 344.751 96.5C345.441 95.78 346.296 95.21 347.316 94.79C348.336 94.37 349.326 94.16 350.286 94.16C351.246 94.16 352.086 94.4 352.806 94.88C353.526 95.33 353.886 95.945 353.886 96.725C353.886 97.175 353.751 97.595 353.481 97.985C353.241 98.375 352.956 98.57 352.626 98.57C352.116 98.57 351.861 98.36 351.861 97.94C351.861 97.79 351.936 97.61 352.086 97.4C352.266 97.16 352.356 96.935 352.356 96.725C352.356 95.825 351.666 95.375 350.286 95.375C349.536 95.375 348.786 95.54 348.036 95.87C347.316 96.17 346.716 96.575 346.236 97.085C345.756 97.595 345.516 98.15 345.516 98.75C345.516 99.35 346.116 99.83 347.316 100.19L350.196 101.09C351.066 101.36 351.666 101.735 351.996 102.215C352.326 102.665 352.491 103.175 352.491 103.745C352.491 105.095 351.666 106.49 350.016 107.93C347.346 110.3 344.766 111.485 342.276 111.485ZM4.555 179.805C3.295 179.805 2.35 179.325 1.72 178.365C1.09 177.435 0.775 176.37 0.775 175.17C0.775 174.27 0.82 173.385 0.91 172.515C0.97 171.675 1.075 170.835 1.225 169.995C1.315 169.515 1.525 169.275 1.855 169.275C2.455 169.275 2.755 169.59 2.755 170.22C2.755 170.4 2.71 170.67 2.62 171.03C2.53 171.33 2.485 171.555 2.485 171.705C2.425 172.185 2.38 172.68 2.35 173.19C2.32 173.73 2.305 174.27 2.305 174.81C2.305 177.18 3.175 178.365 4.915 178.365C5.425 178.365 6.01 178.02 6.67 177.33C7.36 176.64 7.975 175.89 8.515 175.08C9.775 173.19 11.11 170.205 12.52 166.125L14.005 161.85C11.575 164.76 9.385 166.215 7.435 166.215C6.235 166.215 5.305 165.765 4.645 164.865C3.985 163.965 3.655 162.87 3.655 161.58C3.655 159 4.795 156.15 7.075 153.03C9.565 149.7 12.01 148.035 14.41 148.035C16.3 148.035 17.545 149.145 18.145 151.365C19.285 148.605 20.335 147.225 21.295 147.225C21.655 147.225 21.835 147.525 21.835 148.125C21.835 149.325 21.28 150.93 20.17 152.94C19.93 153.33 19.63 153.81 19.27 154.38C18.94 154.95 18.565 155.625 18.145 156.405L16.615 160.14C16.315 160.86 15.94 161.775 15.49 162.885C15.04 163.965 14.53 165.24 13.96 166.71C13.3 168.51 12.685 170.055 12.115 171.345C11.575 172.665 11.08 173.745 10.63 174.585C8.68 178.065 6.715 179.805 4.735 179.805H4.555ZM7.435 164.64C9.325 164.64 12.115 162.105 15.805 157.035L17.11 153.705C16.9 153.555 16.75 153.24 16.66 152.76C16.39 151.47 16.075 150.615 15.715 150.195C15.355 149.775 14.875 149.565 14.275 149.565C13.585 149.565 12.79 149.88 11.89 150.51C10.99 151.14 10.135 151.92 9.325 152.85C8.515 153.75 7.87 154.635 7.39 155.505C5.95 157.965 5.23 160.08 5.23 161.85C5.23 163.71 5.965 164.64 7.435 164.64ZM23.301 165.45C21.561 165.45 20.691 164.625 20.691 162.975C20.691 161.895 20.946 160.74 21.456 159.51C21.996 158.25 22.716 157.035 23.616 155.865C24.516 154.665 25.521 153.585 26.631 152.625C27.741 151.635 28.881 150.855 30.051 150.285C31.221 149.685 32.346 149.385 33.426 149.385C35.346 149.385 36.306 150.33 36.306 152.22C36.306 153.45 36.006 154.065 35.406 154.065C34.866 154.065 34.596 153.81 34.596 153.3C34.596 153.09 34.641 152.88 34.731 152.67C34.851 152.43 34.911 152.175 34.911 151.905C34.911 151.065 34.341 150.645 33.201 150.645C31.371 150.645 29.076 152.04 26.316 154.83C25.656 155.52 25.011 156.33 24.381 157.26C23.751 158.19 23.226 159.135 22.806 160.095C22.416 161.025 22.221 161.91 22.221 162.75C22.221 163.56 22.671 163.965 23.571 163.965C24.351 163.965 25.176 163.725 26.046 163.245C26.946 162.765 27.726 162.27 28.386 161.76C29.706 160.77 31.056 159.42 32.436 157.71C32.646 157.47 32.916 157.155 33.246 156.765C33.576 156.375 33.951 155.94 34.371 155.46C34.521 155.31 34.701 155.235 34.911 155.235C35.391 155.235 35.631 155.475 35.631 155.955L33.921 158.52C32.781 160.2 32.211 161.58 32.211 162.66C32.211 163.44 32.586 163.83 33.336 163.83C33.966 163.83 34.656 163.665 35.406 163.335C36.156 163.005 36.771 162.675 37.251 162.345C38.211 161.715 39.216 160.935 40.266 160.005C41.316 159.045 42.321 158.085 43.281 157.125C43.401 157.005 43.581 156.945 43.821 156.945C44.271 156.945 44.496 157.125 44.496 157.485C44.496 157.815 44.286 158.19 43.866 158.61C42.666 159.81 41.586 160.845 40.626 161.715C39.666 162.555 38.751 163.245 37.881 163.785C37.311 164.115 36.606 164.46 35.766 164.82C34.926 165.18 33.966 165.36 32.886 165.36C31.416 165.36 30.681 164.58 30.681 163.02C30.681 162.42 30.756 161.925 30.906 161.535C28.176 164.145 25.641 165.45 23.301 165.45ZM46.7056 166.215C45.3256 166.215 44.2606 165.795 43.5106 164.955C42.7906 164.085 42.4306 162.945 42.4306 161.535C42.4306 160.515 42.6106 159.285 42.9706 157.845C43.6006 155.415 44.6656 152.595 46.1656 149.385C47.3356 146.955 48.5956 144.57 49.9456 142.23C51.2956 139.86 52.7806 137.535 54.4006 135.255C56.9806 131.595 58.7806 129.765 59.8006 129.765C60.4606 129.765 60.7906 129.945 60.7906 130.305C60.7906 130.815 59.9506 132.09 58.2706 134.13L55.1206 137.955C52.3906 141.255 50.1556 144.63 48.4156 148.08C46.7056 151.53 45.3706 154.98 44.4106 158.43C44.1406 159.42 44.0056 160.35 44.0056 161.22C44.0056 163.5 44.9356 164.64 46.7956 164.64C47.4556 164.64 48.1306 164.445 48.8206 164.055C49.5106 163.695 49.8856 163.515 49.9456 163.515C50.3056 163.515 50.4856 163.77 50.4856 164.28C50.4856 164.73 50.3206 165.075 49.9906 165.315C48.9706 165.915 47.8756 166.215 46.7056 166.215ZM58.0874 166.215C56.7074 166.215 55.6424 165.795 54.8924 164.955C54.1724 164.085 53.8124 162.945 53.8124 161.535C53.8124 160.515 53.9924 159.285 54.3524 157.845C54.9824 155.415 56.0474 152.595 57.5474 149.385C58.7174 146.955 59.9774 144.57 61.3274 142.23C62.6774 139.86 64.1624 137.535 65.7824 135.255C68.3624 131.595 70.1624 129.765 71.1824 129.765C71.8424 129.765 72.1724 129.945 72.1724 130.305C72.1724 130.815 71.3324 132.09 69.6524 134.13L66.5024 137.955C63.7724 141.255 61.5374 144.63 59.7974 148.08C58.0874 151.53 56.7524 154.98 55.7924 158.43C55.5224 159.42 55.3874 160.35 55.3874 161.22C55.3874 163.5 56.3174 164.64 58.1774 164.64C58.8374 164.64 59.5124 164.445 60.2024 164.055C60.8924 163.695 61.2674 163.515 61.3274 163.515C61.6874 163.515 61.8674 163.77 61.8674 164.28C61.8674 164.73 61.7024 165.075 61.3724 165.315C60.3524 165.915 59.2574 166.215 58.0874 166.215ZM68.6248 165.81C67.3648 165.81 66.3748 165.375 65.6548 164.505C64.9348 163.635 64.5748 162.57 64.5748 161.31C64.5748 159.15 65.2948 156.93 66.7348 154.65C67.1248 154.02 67.5748 153.405 68.0848 152.805C68.5948 152.175 69.1498 151.575 69.7498 151.005C70.6498 150.135 71.5948 149.415 72.5848 148.845C73.5748 148.275 74.5348 147.99 75.4648 147.99C76.9948 147.99 77.7598 148.71 77.7598 150.15C77.7598 151.95 76.7098 153.585 74.6098 155.055C72.6598 156.375 70.7398 157.035 68.8498 157.035C68.5198 157.035 68.2198 157.02 67.9498 156.99C67.7098 156.93 67.4848 156.87 67.2748 156.81C66.9748 157.38 66.7048 158.115 66.4648 159.015C66.2248 159.915 66.1048 160.695 66.1048 161.355C66.1048 163.335 66.9748 164.325 68.7148 164.325C70.1248 164.325 71.4598 164.085 72.7198 163.605C73.9798 163.095 75.4798 162.15 77.2198 160.77C78.2998 159.93 79.1098 159.255 79.6498 158.745C80.1898 158.235 80.7748 157.695 81.4048 157.125C81.5848 157.005 81.7498 156.945 81.8998 156.945C82.0498 156.945 82.1998 156.99 82.3498 157.08C82.4998 157.17 82.5748 157.305 82.5748 157.485C82.5748 157.815 82.2748 158.28 81.6748 158.88C81.1648 159.36 80.6248 159.87 80.0548 160.41C79.4848 160.92 78.5848 161.64 77.3548 162.57C76.0348 163.59 74.5948 164.385 73.0348 164.955C71.4748 165.525 70.0048 165.81 68.6248 165.81ZM68.5798 155.595C69.5398 155.595 70.4548 155.445 71.3248 155.145C72.1948 154.845 73.0198 154.41 73.7998 153.84C75.5398 152.55 76.4098 151.335 76.4098 150.195C76.4098 149.685 76.0948 149.43 75.4648 149.43C74.2648 149.43 72.8698 150.165 71.2798 151.635C70.4998 152.355 69.8548 153.015 69.3448 153.615C68.8648 154.185 68.4148 154.815 67.9948 155.505C68.1748 155.565 68.3698 155.595 68.5798 155.595ZM78.3701 166.125C77.8901 166.125 77.6501 165.93 77.6501 165.54C77.6501 165.36 77.6951 165.18 77.7851 165C77.9051 164.82 77.9951 164.67 78.0551 164.55L82.1501 156.27C83.8901 152.73 84.7601 150.765 84.7601 150.375C84.7601 149.955 84.9701 149.745 85.3901 149.745C85.9601 149.745 86.2451 150.03 86.2451 150.6C86.2451 150.9 86.1101 151.38 85.8401 152.04C85.5701 152.7 85.2251 153.465 84.8051 154.335C84.0851 155.895 83.4851 157.095 83.0051 157.935C83.9051 156.885 84.8201 155.895 85.7501 154.965C86.6801 154.035 87.6251 153.15 88.5851 152.31C91.4351 149.82 93.6251 148.575 95.1551 148.575C96.2051 148.575 96.7301 149.07 96.7301 150.06C96.7301 151.02 96.4151 151.5 95.7851 151.5C95.4851 151.5 95.2601 151.245 95.1101 150.735C95.0201 150.375 94.8101 150.195 94.4801 150.195C93.9701 150.195 92.9801 150.75 91.5101 151.86C89.8901 153.06 88.2551 154.485 86.6051 156.135C84.9851 157.785 83.2601 159.885 81.4301 162.435L79.1801 165.585C79.0601 165.735 78.9401 165.855 78.8201 165.945C78.7301 166.065 78.5801 166.125 78.3701 166.125ZM93.7731 179.895C91.9431 179.895 91.0281 178.815 91.0281 176.655C91.0281 174.825 91.4181 173.055 92.1981 171.345C92.3181 171.045 92.5131 170.895 92.7831 170.895C93.3231 170.895 93.5931 171.135 93.5931 171.615C93.5931 171.735 93.5481 171.885 93.4581 172.065C93.3981 172.275 93.3231 172.5 93.2331 172.74C93.0231 173.31 92.8581 173.91 92.7381 174.54C92.6181 175.17 92.5581 175.83 92.5581 176.52C92.5581 177.3 92.6631 177.825 92.8731 178.095C93.0831 178.365 93.3531 178.5 93.6831 178.5C94.4631 178.5 95.3781 178.14 96.4281 177.42C97.5081 176.7 98.6181 175.56 99.7581 174C100.568 172.89 101.408 171.57 102.278 170.04C103.148 168.51 104.078 166.755 105.068 164.775C106.388 162.165 107.603 159.51 108.713 156.81C107.963 157.77 107.183 158.7 106.373 159.6C105.563 160.5 104.693 161.34 103.763 162.12C101.273 164.25 99.2031 165.315 97.5531 165.315C95.5731 165.315 94.5831 164.175 94.5831 161.895C94.5831 161.085 94.7331 160.11 95.0331 158.97C95.3631 157.83 95.8131 156.525 96.3831 155.055C96.4731 154.815 96.5181 154.62 96.5181 154.47C96.5181 154.29 96.5631 154.11 96.6531 153.93C97.1331 152.88 97.9281 151.71 99.0381 150.42C99.2781 150.15 99.4881 150.015 99.6681 150.015C100.118 150.015 100.343 150.345 100.343 151.005C97.4331 155.295 95.9781 158.925 95.9781 161.895C95.9781 163.155 96.4731 163.785 97.4631 163.785C98.5731 163.785 100.118 163.02 102.098 161.49C103.508 160.41 104.813 159.195 106.013 157.845C107.213 156.465 108.293 155.04 109.253 153.57C109.913 152.58 110.438 151.71 110.828 150.96C111.248 150.18 111.503 149.655 111.593 149.385C111.743 148.935 111.953 148.71 112.223 148.71C112.793 148.71 113.078 148.95 113.078 149.43C113.078 149.67 112.958 150.105 112.718 150.735C112.508 151.335 112.238 152.055 111.908 152.895C111.428 154.125 110.738 155.775 109.838 157.845C108.938 159.915 107.813 162.375 106.463 165.225C104.783 168.765 103.133 171.66 101.513 173.91C100.313 175.62 98.9931 177.045 97.5531 178.185C96.1431 179.325 94.8831 179.895 93.7731 179.895Z" fill="#F5F5F5"/>
<path d="M412.328 91.0741C412.02 90.616 411.398 90.4945 410.94 90.8029L403.474 95.8282C403.016 96.1365 402.894 96.7579 403.203 97.2161C403.511 97.6743 404.132 97.7957 404.591 97.4874L411.227 93.0205L415.694 99.6573C416.003 100.115 416.624 100.237 417.082 99.9285C417.54 99.6201 417.662 98.9987 417.353 98.5405L412.328 91.0741ZM151.5 157L150.823 157.736C168.447 173.965 193.133 180.632 220.24 180.904C247.355 181.175 277.002 175.052 304.698 165.575C332.397 156.097 358.198 143.248 377.624 130.024C387.336 123.413 395.478 116.693 401.47 110.236C407.444 103.798 411.365 97.5317 412.48 91.8243L411.499 91.6325L410.517 91.4407C409.507 96.6083 405.881 102.541 400.004 108.875C394.144 115.19 386.13 121.815 376.498 128.371C357.237 141.482 331.601 154.256 304.051 163.683C276.497 173.111 247.083 179.173 220.26 178.904C193.43 178.635 169.304 172.035 152.177 156.265L151.5 157Z" fill="#F5F5F5"/>
</svg>
