<svg width="320" height="246" viewBox="0 0 320 246" fill="none" xmlns="http://www.w3.org/2000/svg">
<g clip-path="url(#clip0_2234_2219)">
<path d="M3.17994 50.8506C2.21994 50.8506 1.54494 50.5206 1.15494 49.8606C0.73494 49.2306 0.52494 48.3756 0.52494 47.2956C0.52494 44.8356 1.67994 41.0406 3.98994 35.9106C3.86994 35.7906 3.80994 35.6406 3.80994 35.4606C3.80994 35.1606 4.07994 34.8606 4.61994 34.5606C6.20994 31.3506 7.67994 28.5156 9.02994 26.0556C10.4099 23.5656 11.6549 21.4506 12.7649 19.7106C16.4849 14.0106 19.8299 10.0656 22.7999 7.87563C23.1899 7.57563 23.5649 7.33563 23.9249 7.15563C24.2849 6.97563 24.6449 6.88563 25.0049 6.88563C25.4849 6.88563 25.7249 7.08063 25.7249 7.47063C25.7249 7.68063 25.6349 7.90563 25.4549 8.14563C25.3049 8.35563 25.0349 8.70063 24.6449 9.18063C24.1949 9.69063 23.6699 10.2906 23.0699 10.9806C22.4699 11.6406 21.8399 12.3306 21.1799 13.0506C20.5499 13.7706 19.9649 14.4306 19.4249 15.0306C18.8849 15.6006 18.4499 16.0506 18.1199 16.3806L13.9799 20.6556L12.5399 22.9506C12.1499 23.5506 11.6699 24.3756 11.0999 25.4256C10.5599 26.4456 9.91494 27.6606 9.16494 29.0706C8.86494 29.6406 8.47494 30.3756 7.99494 31.2756C7.54494 32.1756 7.01994 33.2406 6.41994 34.4706C6.65994 34.5006 6.86994 34.5606 7.04994 34.6506C7.25994 34.7106 7.45494 34.7856 7.63494 34.8756C11.7449 33.6156 15.6299 31.3956 19.2899 28.2156C19.4999 28.0656 19.6799 27.9906 19.8299 27.9906C20.3399 27.9906 20.5949 28.2156 20.5949 28.6656C20.5949 28.7856 20.5499 28.9056 20.4599 29.0256C20.3999 29.1456 20.3249 29.2656 20.2349 29.3856C19.7849 29.8656 19.1399 30.4206 18.2999 31.0506C17.4599 31.6806 16.4099 32.3556 15.1499 33.0756C14.0699 33.6756 13.0199 34.2306 11.9999 34.7406C11.0099 35.2206 10.0499 35.6256 9.11994 35.9556C9.95994 36.9756 10.3799 38.2806 10.3799 39.8706C10.3799 42.0606 9.73494 44.3406 8.44494 46.7106C6.94494 49.4706 5.18994 50.8506 3.17994 50.8506ZM2.90994 49.5006C3.77994 49.5006 4.60494 49.1406 5.38494 48.4206C6.19494 47.7006 6.88494 46.7706 7.45494 45.6306C7.87494 44.8206 8.21994 43.8456 8.48994 42.7056C8.78994 41.5956 8.93994 40.6206 8.93994 39.7806C8.93994 38.1006 8.42994 36.9756 7.40994 36.4056C7.01994 36.4656 6.65994 36.5106 6.32994 36.5406C5.99994 36.6006 5.68494 36.6156 5.38494 36.5856V36.6306C2.86494 42.2406 1.60494 46.0806 1.60494 48.1506C1.60494 48.6006 1.72494 48.9306 1.96494 49.1406C2.20494 49.3806 2.51994 49.5006 2.90994 49.5006ZM19.3813 37.1256C18.9013 37.1256 18.6613 36.9306 18.6613 36.5406C18.6613 36.3606 18.7063 36.1806 18.7963 36.0006C18.9163 35.8206 19.0063 35.6706 19.0663 35.5506L23.1613 27.2706C24.9013 23.7306 25.7713 21.7656 25.7713 21.3756C25.7713 20.9556 25.9813 20.7456 26.4013 20.7456C26.9713 20.7456 27.2563 21.0306 27.2563 21.6006C27.2563 21.9006 27.1213 22.3806 26.8513 23.0406C26.5813 23.7006 26.2363 24.4656 25.8163 25.3356C25.0963 26.8956 24.4963 28.0956 24.0163 28.9356C24.9163 27.8856 25.8313 26.8956 26.7613 25.9656C27.6913 25.0356 28.6363 24.1506 29.5963 23.3106C32.4463 20.8206 34.6363 19.5756 36.1663 19.5756C37.2163 19.5756 37.7413 20.0706 37.7413 21.0606C37.7413 22.0206 37.4263 22.5006 36.7963 22.5006C36.4963 22.5006 36.2713 22.2456 36.1213 21.7356C36.0313 21.3756 35.8213 21.1956 35.4913 21.1956C34.9813 21.1956 33.9913 21.7506 32.5213 22.8606C30.9013 24.0606 29.2663 25.4856 27.6163 27.1356C25.9963 28.7856 24.2713 30.8856 22.4413 33.4356L20.1913 36.5856C20.0713 36.7356 19.9513 36.8556 19.8313 36.9456C19.7413 37.0656 19.5913 37.1256 19.3813 37.1256ZM39.0594 35.7756C36.6294 35.7756 35.4144 34.4106 35.4144 31.6806C35.4144 30.4206 35.7144 29.1006 36.3144 27.7206C36.9144 26.3406 37.7094 25.0656 38.6994 23.8956C39.6894 22.6956 40.7844 21.7206 41.9844 20.9706C43.2144 20.2206 44.4594 19.8456 45.7194 19.8456C46.8294 19.8456 47.6394 20.2656 48.1494 21.1056C48.6594 21.9456 48.9144 22.8756 48.9144 23.8956C48.9144 25.2456 48.6444 26.6256 48.1044 28.0356C47.5644 29.4156 46.8294 30.6906 45.8994 31.8606C44.9694 33.0306 43.9194 33.9756 42.7494 34.6956C41.5794 35.4156 40.3494 35.7756 39.0594 35.7756ZM39.0144 34.3356C39.1944 34.3356 39.2994 34.3206 39.3294 34.2906C40.4994 34.1406 41.5794 33.7206 42.5694 33.0306C43.5594 32.3406 44.4144 31.4856 45.1344 30.4656C45.8844 29.4156 46.4544 28.2906 46.8444 27.0906C47.2344 25.8906 47.4294 24.7056 47.4294 23.5356C47.4294 22.8456 47.2344 22.3056 46.8444 21.9156C46.4544 21.5256 45.9594 21.3306 45.3594 21.3306C44.4894 21.3306 43.5594 21.6906 42.5694 22.4106C41.6094 23.1306 40.6944 24.0456 39.8244 25.1556C38.9844 26.2656 38.2944 27.4356 37.7544 28.6656C37.2144 29.8656 36.9444 30.9456 36.9444 31.9056C36.9444 33.5256 37.6344 34.3356 39.0144 34.3356ZM48.8697 37.5306C48.3597 37.5306 48.1047 37.2906 48.1047 36.8106C48.1047 36.7806 48.2847 36.4056 48.6447 35.6856C49.0047 34.9656 49.5147 33.9006 50.1747 32.4906L52.4697 27.6756C53.3997 25.7256 54.0597 24.1806 54.4497 23.0406C54.8697 21.9006 55.0797 21.1656 55.0797 20.8356C55.0797 20.3556 55.3197 20.1156 55.7997 20.1156C56.2797 20.1156 56.5197 20.3556 56.5197 20.8356C56.5197 21.2256 56.3847 21.8406 56.1147 22.6806C55.8747 23.4906 55.4697 24.5406 54.8997 25.8306L52.6047 31.0506C58.8747 23.1306 63.5997 19.1706 66.7797 19.1706C67.3797 19.1706 67.8447 19.4256 68.1747 19.9356C68.5047 20.4156 68.6697 20.9556 68.6697 21.5556C68.6697 22.9956 67.6347 25.5006 65.5647 29.0706C67.1547 27.4506 68.7597 25.8306 70.3797 24.2106C72.0297 22.5606 73.6797 20.9406 75.3297 19.3506C75.7497 18.9606 76.0947 18.7656 76.3647 18.7656C76.7247 18.7656 77.0247 18.9456 77.2647 19.3056C77.5047 19.6356 77.6247 19.9956 77.6247 20.3856C77.6247 20.6856 77.4897 21.0606 77.2197 21.5106C76.8297 22.1706 76.4697 22.9656 76.1397 23.8956C75.8097 24.7956 75.4347 25.8156 75.0147 26.9556C74.5347 28.2456 74.1897 29.3706 73.9797 30.3306C73.7697 31.2906 73.6647 32.0706 73.6647 32.6706C73.6647 33.4206 73.8447 33.9756 74.2047 34.3356C74.5647 34.6656 74.9247 34.8306 75.2847 34.8306C75.9147 34.8306 76.6047 34.6656 77.3547 34.3356C78.1047 34.0056 78.7197 33.6756 79.1997 33.3456C80.1597 32.7156 81.1647 31.9356 82.2147 31.0056C83.2647 30.0456 84.2697 29.0856 85.2297 28.1256C85.3497 28.0056 85.5297 27.9456 85.7697 27.9456C86.2197 27.9456 86.4447 28.1256 86.4447 28.4856C86.4447 28.8156 86.2347 29.1906 85.8147 29.6106C84.6147 30.8106 83.5347 31.8456 82.5747 32.7156C81.6147 33.5556 80.6997 34.2456 79.8297 34.7856C79.2597 35.1156 78.5697 35.4606 77.7597 35.8206C76.9497 36.1806 76.0797 36.3606 75.1497 36.3606C74.2797 36.3606 73.5447 36.0906 72.9447 35.5506C72.3747 35.0106 72.0897 33.8556 72.0897 32.0856C72.0897 31.3956 72.2097 30.5856 72.4497 29.6556C72.6897 28.6956 73.0497 27.6306 73.5297 26.4606L75.9147 20.7906L69.4797 27.2706C68.7297 28.0206 68.1147 28.6506 67.6347 29.1606C67.1547 29.6706 66.7647 30.0906 66.4647 30.4206C65.8947 31.0206 65.3847 31.6056 64.9347 32.1756C64.5147 32.7456 64.1547 33.2406 63.8547 33.6606C63.6447 33.9906 63.4047 34.1556 63.1347 34.1556C62.6247 34.1556 62.3697 33.9456 62.3697 33.5256C62.3697 32.5956 63.2097 30.4506 64.8897 27.0906C66.5697 23.7306 67.4097 21.7206 67.4097 21.0606C67.4097 20.7606 67.0797 20.6106 66.4197 20.6106C63.7497 20.6106 58.9947 24.9756 52.1547 33.7056C51.5847 34.5156 50.6397 35.7306 49.3197 37.3506C49.2297 37.4706 49.0797 37.5306 48.8697 37.5306ZM99.5123 38.6556C98.6723 38.6556 97.9673 38.4006 97.3973 37.8906C96.8573 37.3806 96.5873 36.7206 96.5873 35.9106C96.5873 35.6106 96.6023 35.4156 96.6323 35.3256C96.2123 36.2856 95.8223 36.7656 95.4623 36.7656C94.9823 36.7656 94.7423 36.4806 94.7423 35.9106L98.2523 26.7306C98.7923 25.2906 99.4073 23.8056 100.097 22.2756C100.787 20.7156 101.477 19.2306 102.167 17.8206C102.887 16.3806 103.547 15.0906 104.147 13.9506C104.777 12.7806 105.287 11.8506 105.677 11.1606C106.637 9.51063 107.552 8.23563 108.422 7.33563C109.322 6.40563 110.027 5.94063 110.537 5.94063C111.107 5.94063 111.392 6.25563 111.392 6.88563C111.392 7.24563 111.212 7.42563 110.852 7.42563C110.072 7.42563 108.737 9.06063 106.847 12.3306C106.247 13.3506 105.677 14.3706 105.137 15.3906C104.627 16.3806 104.132 17.3706 103.652 18.3606C102.992 19.7706 102.302 21.2856 101.582 22.9056C100.862 24.5256 100.112 26.2356 99.3323 28.0356C100.322 26.5956 101.417 25.2756 102.617 24.0756C103.667 23.0256 104.747 22.1856 105.857 21.5556C106.997 20.8956 108.122 20.5656 109.232 20.5656C110.462 20.5656 111.437 20.8206 112.157 21.3306C112.877 21.8406 113.237 22.8006 113.237 24.2106C113.237 25.3806 112.892 26.6256 112.202 27.9456C111.542 29.2656 110.672 30.5556 109.592 31.8156C108.542 33.0756 107.387 34.2306 106.127 35.2806C104.897 36.3006 103.697 37.1106 102.527 37.7106C101.357 38.3406 100.352 38.6556 99.5123 38.6556ZM99.3773 37.1706C100.277 37.1706 101.267 36.8556 102.347 36.2256C103.427 35.6256 104.507 34.8306 105.587 33.8406C106.667 32.8506 107.657 31.7856 108.557 30.6456C109.457 29.4756 110.177 28.3356 110.717 27.2256C111.257 26.0856 111.527 25.0806 111.527 24.2106C111.527 22.8606 110.852 22.1856 109.502 22.1856C108.302 22.1856 107.132 22.5456 105.992 23.2656C104.852 23.9856 103.742 24.9456 102.662 26.1456C101.612 27.3456 100.622 28.6656 99.6923 30.1056C98.7623 31.5456 97.9073 33.0006 97.1273 34.4706C97.3973 34.2006 97.6523 34.0656 97.8923 34.0656C98.3123 34.0656 98.5223 34.2606 98.5223 34.6506C98.5223 34.8306 98.4473 35.0256 98.2973 35.2356C98.2373 35.3256 98.1773 35.4306 98.1173 35.5506C98.0573 35.6706 98.0273 35.8506 98.0273 36.0906C98.0273 36.8106 98.4773 37.1706 99.3773 37.1706ZM119.025 37.2156C117.645 37.2156 116.58 36.7956 115.83 35.9556C115.11 35.0856 114.75 33.9456 114.75 32.5356C114.75 31.5156 114.93 30.2856 115.29 28.8456C115.92 26.4156 116.985 23.5956 118.485 20.3856C119.655 17.9556 120.915 15.5706 122.265 13.2306C123.615 10.8606 125.1 8.53563 126.72 6.25563C129.3 2.59563 131.1 0.765625 132.12 0.765625C132.78 0.765625 133.11 0.945625 133.11 1.30563C133.11 1.81563 132.27 3.09063 130.59 5.13063L127.44 8.95563C124.71 12.2556 122.475 15.6306 120.735 19.0806C119.025 22.5306 117.69 25.9806 116.73 29.4306C116.46 30.4206 116.325 31.3506 116.325 32.2206C116.325 34.5006 117.255 35.6406 119.115 35.6406C119.775 35.6406 120.45 35.4456 121.14 35.0556C121.83 34.6956 122.205 34.5156 122.265 34.5156C122.625 34.5156 122.805 34.7706 122.805 35.2806C122.805 35.7306 122.64 36.0756 122.31 36.3156C121.29 36.9156 120.195 37.2156 119.025 37.2156ZM128.708 35.7756C126.278 35.7756 125.063 34.4106 125.063 31.6806C125.063 30.4206 125.363 29.1006 125.963 27.7206C126.563 26.3406 127.358 25.0656 128.348 23.8956C129.338 22.6956 130.433 21.7206 131.633 20.9706C132.863 20.2206 134.108 19.8456 135.368 19.8456C136.478 19.8456 137.288 20.2656 137.798 21.1056C138.308 21.9456 138.563 22.8756 138.563 23.8956C138.563 25.2456 138.293 26.6256 137.753 28.0356C137.213 29.4156 136.478 30.6906 135.548 31.8606C134.618 33.0306 133.568 33.9756 132.398 34.6956C131.228 35.4156 129.998 35.7756 128.708 35.7756ZM128.663 34.3356C128.843 34.3356 128.948 34.3206 128.978 34.2906C130.148 34.1406 131.228 33.7206 132.218 33.0306C133.208 32.3406 134.063 31.4856 134.783 30.4656C135.533 29.4156 136.103 28.2906 136.493 27.0906C136.883 25.8906 137.078 24.7056 137.078 23.5356C137.078 22.8456 136.883 22.3056 136.493 21.9156C136.103 21.5256 135.608 21.3306 135.008 21.3306C134.138 21.3306 133.208 21.6906 132.218 22.4106C131.258 23.1306 130.343 24.0456 129.473 25.1556C128.633 26.2656 127.943 27.4356 127.403 28.6656C126.863 29.8656 126.593 30.9456 126.593 31.9056C126.593 33.5256 127.283 34.3356 128.663 34.3356ZM140.903 50.8056C139.643 50.8056 138.698 50.3256 138.068 49.3656C137.438 48.4356 137.123 47.3706 137.123 46.1706C137.123 45.2706 137.168 44.3856 137.258 43.5156C137.318 42.6756 137.423 41.8356 137.573 40.9956C137.663 40.5156 137.873 40.2756 138.203 40.2756C138.803 40.2756 139.103 40.5906 139.103 41.2206C139.103 41.4006 139.058 41.6706 138.968 42.0306C138.878 42.3306 138.833 42.5556 138.833 42.7056C138.773 43.1856 138.728 43.6806 138.698 44.1906C138.668 44.7306 138.653 45.2706 138.653 45.8106C138.653 48.1806 139.523 49.3656 141.263 49.3656C141.773 49.3656 142.358 49.0206 143.018 48.3306C143.708 47.6406 144.323 46.8906 144.863 46.0806C146.123 44.1906 147.458 41.2056 148.868 37.1256L150.353 32.8506C147.923 35.7606 145.733 37.2156 143.783 37.2156C142.583 37.2156 141.653 36.7656 140.993 35.8656C140.333 34.9656 140.003 33.8706 140.003 32.5806C140.003 30.0006 141.143 27.1506 143.423 24.0306C145.913 20.7006 148.358 19.0356 150.758 19.0356C152.648 19.0356 153.893 20.1456 154.493 22.3656C155.633 19.6056 156.683 18.2256 157.643 18.2256C158.003 18.2256 158.183 18.5256 158.183 19.1256C158.183 20.3256 157.628 21.9306 156.518 23.9406C156.278 24.3306 155.978 24.8106 155.618 25.3806C155.288 25.9506 154.913 26.6256 154.493 27.4056L152.963 31.1406C152.663 31.8606 152.288 32.7756 151.838 33.8856C151.388 34.9656 150.878 36.2406 150.308 37.7106C149.648 39.5106 149.033 41.0556 148.463 42.3456C147.923 43.6656 147.428 44.7456 146.978 45.5856C145.028 49.0656 143.063 50.8056 141.083 50.8056H140.903ZM143.783 35.6406C145.673 35.6406 148.463 33.1056 152.153 28.0356L153.458 24.7056C153.248 24.5556 153.098 24.2406 153.008 23.7606C152.738 22.4706 152.423 21.6156 152.063 21.1956C151.703 20.7756 151.223 20.5656 150.623 20.5656C149.933 20.5656 149.138 20.8806 148.238 21.5106C147.338 22.1406 146.483 22.9206 145.673 23.8506C144.863 24.7506 144.218 25.6356 143.738 26.5056C142.298 28.9656 141.578 31.0806 141.578 32.8506C141.578 34.7106 142.313 35.6406 143.783 35.6406ZM170.547 39.1056C169.977 39.1056 169.692 38.6556 169.692 37.7556C169.692 36.4356 170.427 34.1256 171.897 30.8256C173.397 27.5256 175.617 23.2056 178.557 17.8656C177.417 17.8656 176.337 18.0156 175.317 18.3156C174.327 18.5856 173.802 18.9306 173.742 19.3506C173.712 19.4706 173.637 19.5906 173.517 19.7106C173.427 19.8006 173.277 19.8456 173.067 19.8456C172.587 19.8456 172.347 19.6056 172.347 19.1256C172.347 18.3456 172.962 17.7006 174.192 17.1906C175.422 16.6806 177.147 16.4256 179.367 16.4256L182.472 11.2956C182.682 10.9656 182.907 10.6056 183.147 10.2156C183.387 9.79563 183.657 9.34563 183.957 8.86563C184.257 8.44563 184.602 8.23563 184.992 8.23563C185.232 8.23563 185.412 8.31063 185.532 8.46063C185.652 8.58063 185.712 8.71563 185.712 8.86563C185.712 9.31563 185.052 10.5156 183.732 12.4656C182.082 14.8956 181.197 16.2156 181.077 16.4256C181.527 16.4256 182.202 16.4706 183.102 16.5606C184.002 16.6206 185.067 16.7256 186.297 16.8756C186.747 16.9056 186.972 17.1306 186.972 17.5506C186.972 18.0306 186.702 18.2706 186.162 18.2706C185.952 18.2706 185.532 18.2406 184.902 18.1806C184.272 18.0906 183.597 18.0156 182.877 17.9556C182.157 17.8956 181.542 17.8806 181.032 17.9106L180.357 17.9556C174.267 28.6656 171.237 35.3256 171.267 37.9356L171.312 38.2956V38.3856C171.312 38.8656 171.057 39.1056 170.547 39.1056ZM184.43 35.7756C182 35.7756 180.785 34.4106 180.785 31.6806C180.785 30.4206 181.085 29.1006 181.685 27.7206C182.285 26.3406 183.08 25.0656 184.07 23.8956C185.06 22.6956 186.155 21.7206 187.355 20.9706C188.585 20.2206 189.83 19.8456 191.09 19.8456C192.2 19.8456 193.01 20.2656 193.52 21.1056C194.03 21.9456 194.285 22.8756 194.285 23.8956C194.285 25.2456 194.015 26.6256 193.475 28.0356C192.935 29.4156 192.2 30.6906 191.27 31.8606C190.34 33.0306 189.29 33.9756 188.12 34.6956C186.95 35.4156 185.72 35.7756 184.43 35.7756ZM184.385 34.3356C184.565 34.3356 184.67 34.3206 184.7 34.2906C185.87 34.1406 186.95 33.7206 187.94 33.0306C188.93 32.3406 189.785 31.4856 190.505 30.4656C191.255 29.4156 191.825 28.2906 192.215 27.0906C192.605 25.8906 192.8 24.7056 192.8 23.5356C192.8 22.8456 192.605 22.3056 192.215 21.9156C191.825 21.5256 191.33 21.3306 190.73 21.3306C189.86 21.3306 188.93 21.6906 187.94 22.4106C186.98 23.1306 186.065 24.0456 185.195 25.1556C184.355 26.2656 183.665 27.4356 183.125 28.6656C182.585 29.8656 182.315 30.9456 182.315 31.9056C182.315 33.5256 183.005 34.3356 184.385 34.3356Z" fill="#E13939"/>
<path d="M122.039 86.5304C121.529 86.5304 121.274 86.2904 121.274 85.8104C121.274 85.7804 121.454 85.4054 121.814 84.6854C122.174 83.9654 122.684 82.9004 123.344 81.4904L125.639 76.6754C126.569 74.7254 127.229 73.1804 127.619 72.0404C128.039 70.9004 128.249 70.1654 128.249 69.8354C128.249 69.3554 128.489 69.1154 128.969 69.1154C129.449 69.1154 129.689 69.3554 129.689 69.8354C129.689 70.2254 129.554 70.8404 129.284 71.6804C129.044 72.4904 128.639 73.5404 128.069 74.8304L125.774 80.0504C132.044 72.1304 136.769 68.1704 139.949 68.1704C140.549 68.1704 141.014 68.4254 141.344 68.9354C141.674 69.4154 141.839 69.9554 141.839 70.5554C141.839 71.9954 140.804 74.5004 138.734 78.0704C140.324 76.4504 141.929 74.8304 143.549 73.2104C145.199 71.5604 146.849 69.9404 148.499 68.3504C148.919 67.9604 149.264 67.7654 149.534 67.7654C149.894 67.7654 150.194 67.9454 150.434 68.3054C150.674 68.6354 150.794 68.9954 150.794 69.3854C150.794 69.6854 150.659 70.0604 150.389 70.5104C149.999 71.1704 149.639 71.9654 149.309 72.8954C148.979 73.7954 148.604 74.8154 148.184 75.9554C147.704 77.2454 147.359 78.3704 147.149 79.3304C146.939 80.2904 146.834 81.0704 146.834 81.6704C146.834 82.4204 147.014 82.9754 147.374 83.3354C147.734 83.6654 148.094 83.8304 148.454 83.8304C149.084 83.8304 149.774 83.6654 150.524 83.3354C151.274 83.0054 151.889 82.6754 152.369 82.3454C153.329 81.7154 154.334 80.9354 155.384 80.0054C156.434 79.0454 157.439 78.0854 158.399 77.1254C158.519 77.0054 158.699 76.9454 158.939 76.9454C159.389 76.9454 159.614 77.1254 159.614 77.4854C159.614 77.8154 159.404 78.1904 158.984 78.6104C157.784 79.8104 156.704 80.8454 155.744 81.7154C154.784 82.5554 153.869 83.2454 152.999 83.7854C152.429 84.1154 151.739 84.4604 150.929 84.8204C150.119 85.1804 149.249 85.3604 148.319 85.3604C147.449 85.3604 146.714 85.0904 146.114 84.5504C145.544 84.0104 145.259 82.8554 145.259 81.0854C145.259 80.3954 145.379 79.5854 145.619 78.6554C145.859 77.6954 146.219 76.6304 146.699 75.4604L149.084 69.7904L142.649 76.2704C141.899 77.0204 141.284 77.6504 140.804 78.1604C140.324 78.6704 139.934 79.0904 139.634 79.4204C139.064 80.0204 138.554 80.6054 138.104 81.1754C137.684 81.7454 137.324 82.2404 137.024 82.6604C136.814 82.9904 136.574 83.1554 136.304 83.1554C135.794 83.1554 135.539 82.9454 135.539 82.5254C135.539 81.5954 136.379 79.4504 138.059 76.0904C139.739 72.7304 140.579 70.7204 140.579 70.0604C140.579 69.7604 140.249 69.6104 139.589 69.6104C136.919 69.6104 132.164 73.9754 125.324 82.7054C124.754 83.5154 123.809 84.7304 122.489 86.3504C122.399 86.4704 122.249 86.5304 122.039 86.5304ZM158.858 85.4504C157.118 85.4504 156.248 84.6254 156.248 82.9754C156.248 81.8954 156.503 80.7404 157.013 79.5104C157.553 78.2504 158.273 77.0354 159.173 75.8654C160.073 74.6654 161.078 73.5854 162.188 72.6254C163.298 71.6354 164.438 70.8554 165.608 70.2854C166.778 69.6854 167.903 69.3854 168.983 69.3854C170.903 69.3854 171.863 70.3304 171.863 72.2204C171.863 73.4504 171.563 74.0654 170.963 74.0654C170.423 74.0654 170.153 73.8104 170.153 73.3004C170.153 73.0904 170.198 72.8804 170.288 72.6704C170.408 72.4304 170.468 72.1754 170.468 71.9054C170.468 71.0654 169.898 70.6454 168.758 70.6454C166.928 70.6454 164.633 72.0404 161.873 74.8304C161.213 75.5204 160.568 76.3304 159.938 77.2604C159.308 78.1904 158.783 79.1354 158.363 80.0954C157.973 81.0254 157.778 81.9104 157.778 82.7504C157.778 83.5604 158.228 83.9654 159.128 83.9654C159.908 83.9654 160.733 83.7254 161.603 83.2454C162.503 82.7654 163.283 82.2704 163.943 81.7604C165.263 80.7704 166.613 79.4204 167.993 77.7104C168.203 77.4704 168.473 77.1554 168.803 76.7654C169.133 76.3754 169.508 75.9404 169.928 75.4604C170.078 75.3104 170.258 75.2354 170.468 75.2354C170.948 75.2354 171.188 75.4754 171.188 75.9554L169.478 78.5204C168.338 80.2004 167.768 81.5804 167.768 82.6604C167.768 83.4404 168.143 83.8304 168.893 83.8304C169.523 83.8304 170.213 83.6654 170.963 83.3354C171.713 83.0054 172.328 82.6754 172.808 82.3454C173.768 81.7154 174.773 80.9354 175.823 80.0054C176.873 79.0454 177.878 78.0854 178.838 77.1254C178.958 77.0054 179.138 76.9454 179.378 76.9454C179.828 76.9454 180.053 77.1254 180.053 77.4854C180.053 77.8154 179.843 78.1904 179.423 78.6104C178.223 79.8104 177.143 80.8454 176.183 81.7154C175.223 82.5554 174.308 83.2454 173.438 83.7854C172.868 84.1154 172.163 84.4604 171.323 84.8204C170.483 85.1804 169.523 85.3604 168.443 85.3604C166.973 85.3604 166.238 84.5804 166.238 83.0204C166.238 82.4204 166.313 81.9254 166.463 81.5354C163.733 84.1454 161.198 85.4504 158.858 85.4504ZM178.213 99.8054C176.953 99.8054 176.008 99.3254 175.378 98.3654C174.748 97.4354 174.433 96.3704 174.433 95.1704C174.433 94.2704 174.478 93.3854 174.568 92.5154C174.628 91.6754 174.733 90.8354 174.883 89.9954C174.973 89.5154 175.183 89.2754 175.513 89.2754C176.113 89.2754 176.413 89.5904 176.413 90.2204C176.413 90.4004 176.368 90.6704 176.278 91.0304C176.188 91.3304 176.143 91.5554 176.143 91.7054C176.083 92.1854 176.038 92.6804 176.008 93.1904C175.978 93.7304 175.963 94.2704 175.963 94.8104C175.963 97.1804 176.833 98.3654 178.573 98.3654C179.083 98.3654 179.668 98.0204 180.328 97.3304C181.018 96.6404 181.633 95.8904 182.173 95.0804C183.433 93.1904 184.768 90.2054 186.178 86.1254L187.663 81.8504C185.233 84.7604 183.043 86.2154 181.093 86.2154C179.893 86.2154 178.963 85.7654 178.303 84.8654C177.643 83.9654 177.313 82.8704 177.313 81.5804C177.313 79.0004 178.453 76.1504 180.733 73.0304C183.223 69.7004 185.668 68.0354 188.068 68.0354C189.958 68.0354 191.203 69.1454 191.803 71.3654C192.943 68.6054 193.993 67.2254 194.953 67.2254C195.313 67.2254 195.493 67.5254 195.493 68.1254C195.493 69.3254 194.938 70.9304 193.828 72.9404C193.588 73.3304 193.288 73.8104 192.928 74.3804C192.598 74.9504 192.223 75.6254 191.803 76.4054L190.273 80.1404C189.973 80.8604 189.598 81.7754 189.148 82.8854C188.698 83.9654 188.188 85.2404 187.618 86.7104C186.958 88.5104 186.343 90.0554 185.773 91.3454C185.233 92.6654 184.738 93.7454 184.288 94.5854C182.338 98.0654 180.373 99.8054 178.393 99.8054H178.213ZM181.093 84.6404C182.983 84.6404 185.773 82.1054 189.463 77.0354L190.768 73.7054C190.558 73.5554 190.408 73.2404 190.318 72.7604C190.048 71.4704 189.733 70.6154 189.373 70.1954C189.013 69.7754 188.533 69.5654 187.933 69.5654C187.243 69.5654 186.448 69.8804 185.548 70.5104C184.648 71.1404 183.793 71.9204 182.983 72.8504C182.173 73.7504 181.528 74.6354 181.048 75.5054C179.608 77.9654 178.888 80.0804 178.888 81.8504C178.888 83.7104 179.623 84.6404 181.093 84.6404ZM196.959 85.4504C195.219 85.4504 194.349 84.6254 194.349 82.9754C194.349 81.8954 194.604 80.7404 195.114 79.5104C195.654 78.2504 196.374 77.0354 197.274 75.8654C198.174 74.6654 199.179 73.5854 200.289 72.6254C201.399 71.6354 202.539 70.8554 203.709 70.2854C204.879 69.6854 206.004 69.3854 207.084 69.3854C209.004 69.3854 209.964 70.3304 209.964 72.2204C209.964 73.4504 209.664 74.0654 209.064 74.0654C208.524 74.0654 208.254 73.8104 208.254 73.3004C208.254 73.0904 208.299 72.8804 208.389 72.6704C208.509 72.4304 208.569 72.1754 208.569 71.9054C208.569 71.0654 207.999 70.6454 206.859 70.6454C205.029 70.6454 202.734 72.0404 199.974 74.8304C199.314 75.5204 198.669 76.3304 198.039 77.2604C197.409 78.1904 196.884 79.1354 196.464 80.0954C196.074 81.0254 195.879 81.9104 195.879 82.7504C195.879 83.5604 196.329 83.9654 197.229 83.9654C198.009 83.9654 198.834 83.7254 199.704 83.2454C200.604 82.7654 201.384 82.2704 202.044 81.7604C203.364 80.7704 204.714 79.4204 206.094 77.7104C206.304 77.4704 206.574 77.1554 206.904 76.7654C207.234 76.3754 207.609 75.9404 208.029 75.4604C208.179 75.3104 208.359 75.2354 208.569 75.2354C209.049 75.2354 209.289 75.4754 209.289 75.9554L207.579 78.5204C206.439 80.2004 205.869 81.5804 205.869 82.6604C205.869 83.4404 206.244 83.8304 206.994 83.8304C207.624 83.8304 208.314 83.6654 209.064 83.3354C209.814 83.0054 210.429 82.6754 210.909 82.3454C211.869 81.7154 212.874 80.9354 213.924 80.0054C214.974 79.0454 215.979 78.0854 216.939 77.1254C217.059 77.0054 217.239 76.9454 217.479 76.9454C217.929 76.9454 218.154 77.1254 218.154 77.4854C218.154 77.8154 217.944 78.1904 217.524 78.6104C216.324 79.8104 215.244 80.8454 214.284 81.7154C213.324 82.5554 212.409 83.2454 211.539 83.7854C210.969 84.1154 210.264 84.4604 209.424 84.8204C208.584 85.1804 207.624 85.3604 206.544 85.3604C205.074 85.3604 204.339 84.5804 204.339 83.0204C204.339 82.4204 204.414 81.9254 204.564 81.5354C201.834 84.1454 199.299 85.4504 196.959 85.4504ZM220.138 99.4454C219.388 99.4454 218.803 99.2504 218.383 98.8604C217.963 98.4704 217.753 97.9454 217.753 97.2854C217.753 96.3554 218.083 95.5304 218.743 94.8104C219.433 94.1204 220.378 93.4004 221.578 92.6504C222.508 92.0804 223.753 91.3004 225.313 90.3104C226.873 89.3504 228.478 88.3154 230.128 87.2054C231.028 86.6054 231.763 86.0804 232.333 85.6304C232.903 85.2104 233.473 84.7604 234.043 84.2804C234.073 84.0704 234.088 83.8904 234.088 83.7404C234.118 83.5904 234.133 83.4854 234.133 83.4254C234.133 82.3454 233.848 81.3554 233.278 80.4554C232.708 79.5254 231.928 79.0004 230.938 78.8804C228.658 81.5204 226.978 82.8404 225.898 82.8404C225.148 82.8404 224.773 82.4204 224.773 81.5804C224.773 80.8604 225.058 80.1854 225.628 79.5554C226.228 78.9254 226.963 78.4004 227.833 77.9804C228.703 77.5604 229.528 77.3354 230.308 77.3054C233.188 73.6454 234.628 70.6154 234.628 68.2154C234.628 66.9254 233.998 66.2804 232.738 66.2804C230.848 66.2804 228.088 68.0054 224.458 71.4554C224.188 71.7254 223.678 72.2354 222.928 72.9854C222.208 73.7354 221.398 74.5904 220.498 75.5504C219.598 76.4804 218.728 77.3804 217.888 78.2504C217.678 78.4604 217.453 78.6704 217.213 78.8804C217.003 79.0904 216.778 79.1954 216.538 79.1954C216.148 79.1954 215.953 78.9854 215.953 78.5654C215.953 78.2954 216.058 78.0404 216.268 77.8004C216.358 77.6804 216.688 77.3354 217.258 76.7654C217.858 76.1654 218.548 75.4754 219.328 74.6954C220.108 73.9154 220.873 73.1504 221.623 72.4004C222.373 71.6504 222.988 71.0354 223.468 70.5554C225.328 68.6954 227.053 67.2854 228.643 66.3254C230.233 65.3354 231.733 64.8404 233.143 64.8404C235.153 64.8404 236.158 65.9204 236.158 68.0804C236.158 70.9604 234.748 74.1254 231.928 77.5754C233.008 77.9954 233.863 78.7154 234.493 79.7354C235.153 80.7254 235.513 81.7604 235.573 82.8404C236.593 82.0304 237.343 81.4304 237.823 81.0404C238.303 80.6504 238.648 80.3654 238.858 80.1854C239.098 80.0054 239.308 79.8254 239.488 79.6454C239.698 79.4654 239.998 79.1954 240.388 78.8354C240.808 78.4754 241.453 77.9054 242.323 77.1254C242.503 77.0054 242.668 76.9454 242.818 76.9454C242.968 76.9454 243.118 76.9904 243.268 77.0804C243.418 77.1704 243.493 77.3054 243.493 77.4854C243.493 77.8154 243.193 78.2804 242.593 78.8804C241.933 79.4804 241.153 80.1704 240.253 80.9504C239.383 81.7304 238.513 82.4804 237.643 83.2004C236.773 83.8904 236.023 84.4604 235.393 84.9104C234.943 87.3104 233.593 89.8004 231.343 92.3804C230.683 93.1304 229.948 93.8504 229.138 94.5404C228.358 95.2604 227.533 95.9504 226.663 96.6104C225.643 97.3304 224.533 97.9754 223.333 98.5454C222.163 99.1454 221.098 99.4454 220.138 99.4454ZM226.078 81.5804C226.678 81.2504 227.293 80.8004 227.923 80.2304C228.583 79.6604 229.048 79.1654 229.318 78.7454C228.328 79.1054 227.533 79.5554 226.933 80.0954C226.333 80.6054 226.048 81.1004 226.078 81.5804ZM220.633 98.0054C221.983 98.0054 223.753 97.1504 225.943 95.4404C227.533 94.1804 228.973 92.8304 230.263 91.3904C231.823 89.5904 232.888 87.9554 233.458 86.4854C233.248 86.6354 232.993 86.8154 232.693 87.0254C232.393 87.2654 231.958 87.5954 231.388 88.0154C230.458 88.6754 229.648 89.2454 228.958 89.7254C228.268 90.2054 227.593 90.6404 226.933 91.0304C226.303 91.4504 225.613 91.8854 224.863 92.3354C224.143 92.7854 223.288 93.3104 222.298 93.9104C221.158 94.5704 220.378 95.1554 219.958 95.6654C219.538 96.2054 219.328 96.6554 219.328 97.0154C219.328 97.6754 219.763 98.0054 220.633 98.0054ZM250.753 67.2704C250.243 67.2704 249.988 67.0154 249.988 66.5054C249.988 66.3554 250.093 66.0854 250.303 65.6954C250.513 65.2754 250.753 64.8554 251.023 64.4354C251.293 64.0154 251.503 63.7304 251.653 63.5804C252.163 63.0104 252.553 62.6504 252.823 62.5004C253.123 62.3504 253.393 62.2754 253.633 62.2754C254.263 62.2754 254.578 62.5604 254.578 63.1304C254.578 63.3404 254.443 63.5954 254.173 63.8954C253.933 64.1654 253.648 64.4204 253.318 64.6604C252.838 64.9604 252.538 65.2004 252.418 65.3804L251.428 66.7754C251.398 66.8954 251.323 67.0154 251.203 67.1354C251.113 67.2254 250.963 67.2704 250.753 67.2704ZM243.103 85.4954C242.263 85.4954 241.648 85.3304 241.258 85.0004C240.898 84.6704 240.718 84.1754 240.718 83.5154C240.718 82.8854 240.913 82.0304 241.303 80.9504C241.693 79.8404 242.188 78.6554 242.788 77.3954C243.418 76.1354 244.078 74.9354 244.768 73.7954C245.458 72.6554 246.118 71.7254 246.748 71.0054C247.408 70.2554 247.933 69.8804 248.323 69.8804C248.863 69.8804 249.133 70.1204 249.133 70.6004C249.133 70.9004 248.878 71.4704 248.368 72.3104C247.858 73.1504 247.303 74.0204 246.703 74.9204C246.463 75.2504 246.133 75.7004 245.713 76.2704C245.293 76.8404 244.888 77.3804 244.498 77.8904C244.108 78.3704 243.853 78.7004 243.733 78.8804C243.433 79.3304 243.118 80.0654 242.788 81.0854C242.428 82.1054 242.248 82.8854 242.248 83.4254C242.248 83.6654 242.293 83.8454 242.383 83.9654C242.503 84.0854 242.758 84.1454 243.148 84.1454C243.898 84.1454 244.738 83.9054 245.668 83.4254C246.598 82.9454 247.543 82.3454 248.503 81.6254C249.463 80.8754 250.363 80.1104 251.203 79.3304C252.073 78.5504 252.808 77.8754 253.408 77.3054C253.528 77.1854 253.708 77.1254 253.948 77.1254C254.398 77.1254 254.623 77.3054 254.623 77.6654C254.623 77.9954 254.413 78.3704 253.993 78.7904C253.183 79.6004 252.433 80.3204 251.743 80.9504C251.053 81.5804 250.393 82.1354 249.763 82.6154C248.773 83.3354 247.678 83.9954 246.478 84.5954C245.278 85.1954 244.153 85.4954 243.103 85.4954ZM250.49 86.1254C250.01 86.1254 249.77 85.9304 249.77 85.5404C249.77 85.3904 249.83 85.2104 249.95 85.0004C250.07 84.7604 250.175 84.5654 250.265 84.4154L254.315 76.2704C256.055 72.7304 256.925 70.7654 256.925 70.3754C256.925 69.9554 257.135 69.7454 257.555 69.7454C258.125 69.7454 258.41 70.0454 258.41 70.6454C258.41 70.8554 258.275 71.3054 258.005 71.9954C257.735 72.6854 257.39 73.4654 256.97 74.3354C256.25 75.8954 255.65 77.0954 255.17 77.9354C256.07 76.8854 256.985 75.8954 257.915 74.9654C258.845 74.0354 259.79 73.1504 260.75 72.3104C263.6 69.8204 265.79 68.5754 267.32 68.5754C268.37 68.5754 268.895 69.0704 268.895 70.0604C268.895 70.9604 268.13 72.9854 266.6 76.1354C265.07 79.3154 264.305 81.3254 264.305 82.1654C264.305 82.5554 264.44 82.7504 264.71 82.7504C264.8 82.7504 264.935 82.7204 265.115 82.6604C265.325 82.5704 265.535 82.5254 265.745 82.5254C266.255 82.5254 266.51 82.7654 266.51 83.2454C266.51 83.8454 265.865 84.1454 264.575 84.1454C263.975 84.1454 263.54 84.0104 263.27 83.7404C263 83.4404 262.865 83.0504 262.865 82.5704C262.865 81.1304 263.6 78.9404 265.07 76.0004C266.54 73.0904 267.275 71.3354 267.275 70.7354C267.275 70.3754 267.14 70.1954 266.87 70.1954C266.21 70.1954 265.145 70.7504 263.675 71.8604C262.085 73.0604 260.495 74.4404 258.905 76.0004C257.315 77.5604 255.8 79.3454 254.36 81.3554L251.21 85.7204C251.03 85.9904 250.79 86.1254 250.49 86.1254ZM274.45 85.8104C273.19 85.8104 272.2 85.3754 271.48 84.5054C270.76 83.6354 270.4 82.5704 270.4 81.3104C270.4 79.1504 271.12 76.9304 272.56 74.6504C272.95 74.0204 273.4 73.4054 273.91 72.8054C274.42 72.1754 274.975 71.5754 275.575 71.0054C276.475 70.1354 277.42 69.4154 278.41 68.8454C279.4 68.2754 280.36 67.9904 281.29 67.9904C282.82 67.9904 283.585 68.7104 283.585 70.1504C283.585 71.9504 282.535 73.5854 280.435 75.0554C278.485 76.3754 276.565 77.0354 274.675 77.0354C274.345 77.0354 274.045 77.0204 273.775 76.9904C273.535 76.9304 273.31 76.8704 273.1 76.8104C272.8 77.3804 272.53 78.1154 272.29 79.0154C272.05 79.9154 271.93 80.6954 271.93 81.3554C271.93 83.3354 272.8 84.3254 274.54 84.3254C275.95 84.3254 277.285 84.0854 278.545 83.6054C279.805 83.0954 281.305 82.1504 283.045 80.7704C284.125 79.9304 284.935 79.2554 285.475 78.7454C286.015 78.2354 286.6 77.6954 287.23 77.1254C287.41 77.0054 287.575 76.9454 287.725 76.9454C287.875 76.9454 288.025 76.9904 288.175 77.0804C288.325 77.1704 288.4 77.3054 288.4 77.4854C288.4 77.8154 288.1 78.2804 287.5 78.8804C286.99 79.3604 286.45 79.8704 285.88 80.4104C285.31 80.9204 284.41 81.6404 283.18 82.5704C281.86 83.5904 280.42 84.3854 278.86 84.9554C277.3 85.5254 275.83 85.8104 274.45 85.8104ZM274.405 75.5954C275.365 75.5954 276.28 75.4454 277.15 75.1454C278.02 74.8454 278.845 74.4104 279.625 73.8404C281.365 72.5504 282.235 71.3354 282.235 70.1954C282.235 69.6854 281.92 69.4304 281.29 69.4304C280.09 69.4304 278.695 70.1654 277.105 71.6354C276.325 72.3554 275.68 73.0154 275.17 73.6154C274.69 74.1854 274.24 74.8154 273.82 75.5054C274 75.5654 274.195 75.5954 274.405 75.5954Z" fill="#E13939"/>
<path d="M262.265 245.038C261.965 245.501 261.346 245.633 260.882 245.333L253.331 240.437C252.867 240.137 252.735 239.517 253.035 239.054C253.336 238.591 253.955 238.458 254.419 238.759L261.131 243.111L265.483 236.398C265.784 235.935 266.403 235.803 266.866 236.103C267.33 236.404 267.462 237.023 267.161 237.486L262.265 245.038ZM302 72.0002L302.47 71.1172C309.584 74.8986 314.193 79.9032 316.764 85.866C319.327 91.8111 319.826 98.6222 318.881 105.971C316.996 120.636 309.318 137.715 300.251 154.964C291.133 172.311 280.663 189.742 272.913 205.471C269.051 213.308 265.906 220.646 263.987 227.233C262.064 233.832 261.401 239.583 262.404 244.285L261.426 244.494L260.448 244.703C259.345 239.532 260.104 233.408 262.067 226.673C264.033 219.925 267.236 212.467 271.119 204.587C278.858 188.879 289.465 171.186 298.481 154.034C307.548 136.784 315.062 119.988 316.898 105.716C317.813 98.5969 317.305 92.1736 314.927 86.6578C312.557 81.1597 308.292 76.4768 301.531 72.8832L302 72.0002Z" fill="#E13939"/>
</g>
<defs>
<clipPath id="clip0_2234_2219">
<rect width="320" height="246" fill="white"/>
</clipPath>
</defs>
</svg>
