<?xml version="1.0" encoding="UTF-8"?>
<svg id="Layer_2" data-name="Layer 2" xmlns="http://www.w3.org/2000/svg" viewBox="0 0 873.53 614.46">
  <defs>
    <style>
      .cls-1 {
        fill: #030303;
      }
    </style>
  </defs>
  <g id="Layer_1-2" data-name="Layer 1">
    <path class="cls-1" d="M34.79,51.36c0-1.17-.32-2.21-.96-3.12-.64-.96-1.44-1.89-2.4-2.8s-2.03-1.79-3.2-2.64c-1.12-.91-2.16-1.92-3.12-3.04-.96-1.12-1.76-2.35-2.4-3.68-.64-1.39-.96-2.99-.96-4.8,0-4.05,1.44-7.07,4.32-9.04,2.93-2.03,6.91-3.04,11.92-3.04.85,0,1.79.05,2.8.16,1.07.05,2.13.19,3.2.4,1.07.21,2.08.48,3.04.8,1.01.27,1.92.64,2.72,1.12.05.59,0,1.36-.16,2.32-.11.91-.35,1.84-.72,2.8-.32.91-.77,1.76-1.36,2.56-.53.75-1.2,1.25-2,1.52l-6.4-7.12c-1.71,0-3.15.35-4.32,1.04-1.12.69-1.68,1.92-1.68,3.68,0,1.17.32,2.24.96,3.2.69.96,1.52,1.89,2.48,2.8.96.85,2.03,1.73,3.2,2.64,1.17.91,2.24,1.92,3.2,3.04.96,1.07,1.76,2.29,2.4,3.68.69,1.39,1.04,2.99,1.04,4.8,0,2.03-.45,3.81-1.36,5.36-.91,1.55-2.16,2.85-3.76,3.92-1.55,1.07-3.41,1.87-5.6,2.4-2.19.53-4.56.8-7.12.8-2.72,0-5.17-.32-7.36-.96-2.13-.59-3.73-1.25-4.8-2-.05-1.71.24-3.39.88-5.04.69-1.65,1.68-2.93,2.96-3.84l7.76,7.28c1.76,0,3.33-.43,4.72-1.28,1.39-.85,2.08-2.16,2.08-3.92ZM53.32,44.8c0-2.88.48-5.81,1.44-8.8.96-3.04,2.43-5.79,4.4-8.24,1.97-2.51,4.45-4.56,7.44-6.16,3.04-1.6,6.59-2.4,10.64-2.4,4.8,0,8.56,1.31,11.28,3.92s4.08,6.51,4.08,11.68c0,3.52-.53,6.88-1.6,10.08-1.07,3.15-2.61,5.95-4.64,8.4-2.03,2.4-4.51,4.32-7.44,5.76-2.88,1.39-6.19,2.08-9.92,2.08-2.24,0-4.32-.32-6.24-.96-1.92-.69-3.6-1.71-5.04-3.04-1.39-1.39-2.48-3.09-3.28-5.12-.75-2.03-1.12-4.43-1.12-7.2ZM75.88,23.76c-2.13,0-3.92.8-5.36,2.4-1.39,1.6-2.53,3.63-3.44,6.08-.85,2.4-1.47,5.01-1.84,7.84-.37,2.83-.56,5.44-.56,7.84,0,2.72.51,4.85,1.52,6.4,1.07,1.49,2.51,2.24,4.32,2.24,1.55,0,2.96-.64,4.24-1.92s2.48-3.09,3.44-5.28c.96-2.24,1.71-4.77,2.24-7.6.53-2.88.8-5.87.8-8.96,0-2.93-.48-5.17-1.44-6.72-.91-1.55-2.21-2.32-3.92-2.32ZM107.15,6.64l-5.44-1.04v-2.72c.75-.32,1.76-.64,3.04-.96,1.28-.32,2.67-.61,4.16-.88,1.49-.32,3.01-.56,4.56-.72,1.6-.21,3.07-.32,4.4-.32l1.6.88-10.48,53.76h5.68v2.72c-.53.43-1.25.85-2.16,1.28-.91.43-1.92.8-3.04,1.12-1.07.32-2.19.59-3.36.8-1.17.21-2.29.32-3.36.32-1.81,0-3.15-.37-4-1.12-.8-.8-1.2-1.65-1.2-2.56,0-1.07.08-2.11.24-3.12.16-1.01.37-2.13.64-3.36l8.72-44.08ZM162.49,54.64v2.72c-.53.43-1.25.85-2.16,1.28-.85.43-1.81.8-2.88,1.12-1.01.32-2.11.59-3.28.8-1.12.21-2.24.32-3.36.32-1.92,0-3.25-.37-4-1.12-.69-.8-1.04-1.63-1.04-2.48,0-.96.11-2.29.32-4,.21-1.71.64-3.68,1.28-5.92h-.32c-.69,1.28-1.57,2.72-2.64,4.32-1.07,1.6-2.32,3.12-3.76,4.56-1.44,1.39-3.09,2.56-4.96,3.52-1.87.91-3.92,1.36-6.16,1.36s-3.97-.64-5.36-1.92c-1.33-1.33-2-3.2-2-5.6,0-1.17.16-2.85.48-5.04.37-2.19.8-4.56,1.28-7.12.53-2.61,1.09-5.28,1.68-8,.64-2.77,1.2-5.31,1.68-7.6l-4.72-1.04v-2.72c.85-.32,1.92-.64,3.2-.96s2.61-.61,4-.88c1.39-.27,2.8-.48,4.24-.64,1.44-.21,2.75-.35,3.92-.4l1.76.96c-.85,4-1.73,7.81-2.64,11.44-.85,3.57-1.65,7.36-2.4,11.36-.27,1.28-.56,2.69-.88,4.24-.27,1.55-.4,3.09-.4,4.64,0,.96.24,1.68.72,2.16.53.48,1.17.72,1.92.72,1.33,0,2.64-.51,3.92-1.52,1.33-1.07,2.53-2.32,3.6-3.76,1.12-1.49,2.08-3.01,2.88-4.56.85-1.55,1.47-2.83,1.84-3.84l4.16-20.88h10.8l-6.32,34.48h5.6ZM198.57,51.44c-.69,1.12-1.6,2.27-2.72,3.44-1.12,1.17-2.43,2.21-3.92,3.12-1.44.91-3.04,1.65-4.8,2.24-1.76.59-3.63.88-5.6.88-4.21,0-7.57-1.25-10.08-3.76-2.45-2.51-3.68-6-3.68-10.48,0-3.73.56-7.28,1.68-10.64,1.17-3.36,2.8-6.29,4.88-8.8,2.08-2.56,4.59-4.56,7.52-6,2.99-1.49,6.29-2.24,9.92-2.24,2.4,0,4.48.27,6.24.8,1.81.48,3.01,1.07,3.6,1.76.05.59-.05,1.33-.32,2.24-.21.85-.56,1.73-1.04,2.64-.48.85-1.07,1.68-1.76,2.48-.64.75-1.31,1.28-2,1.6l-4.88-6.96c-1.44,0-2.91.51-4.4,1.52-1.44.96-2.75,2.37-3.92,4.24-1.17,1.81-2.13,4.03-2.88,6.64-.75,2.56-1.12,5.47-1.12,8.72s.67,5.65,2,7.2c1.33,1.49,3.12,2.24,5.36,2.24,1.07,0,2.08-.16,3.04-.48,1.01-.37,1.95-.8,2.8-1.28.85-.48,1.63-.99,2.32-1.52.75-.59,1.39-1.12,1.92-1.6l1.84,2ZM226.44,56.56c-1.49-2.56-2.69-5.09-3.6-7.6-.85-2.51-1.68-4.88-2.48-7.12l-2.64-.8-3.6,19.12h-11.2l10.64-53.52-5.36-1.04v-2.72c.75-.32,1.73-.64,2.96-.96,1.23-.37,2.56-.69,4-.96,1.44-.27,2.93-.48,4.48-.64,1.6-.21,3.15-.32,4.64-.32l1.68.88-7.44,36.64h2.56c.91-.69,1.84-1.52,2.8-2.48.96-.96,1.87-1.92,2.72-2.88s1.6-1.89,2.24-2.8c.69-.96,1.23-1.76,1.6-2.4.05-.37.08-.88.08-1.52.05-.64.05-1.28,0-1.92,0-.69-.03-1.33-.08-1.92,0-.64-.03-1.12-.08-1.44.91-.32,2.05-.56,3.44-.72,1.39-.21,2.8-.32,4.24-.32s2.77.11,4,.32c1.28.16,2.21.4,2.8.72-.69,1.76-1.73,3.49-3.12,5.2-1.33,1.71-2.8,3.31-4.4,4.8-1.55,1.49-3.09,2.85-4.64,4.08-1.49,1.17-2.72,2.11-3.68,2.8.37,1.01.93,2.29,1.68,3.84.8,1.55,1.68,3.17,2.64,4.88.96,1.65,1.97,3.28,3.04,4.88,1.07,1.55,2.05,2.88,2.96,4h4.32v2.72c-.53.43-1.23.85-2.08,1.28-.8.43-1.68.8-2.64,1.12-.96.32-1.95.59-2.96.8-1.01.21-2,.32-2.96.32-1.28,0-2.48-.29-3.6-.88-1.07-.59-2.05-1.73-2.96-3.44ZM250.12,25.84l-5.12-.64v-2.72c.27-.21.8-.48,1.6-.8.8-.37,1.73-.75,2.8-1.12,1.12-.37,2.29-.69,3.52-.96,1.23-.27,2.43-.4,3.6-.4,1.44,0,2.56.35,3.36,1.04.8.69,1.33,1.65,1.6,2.88l6.16,24.24.4,4.8h.16l1.68-4.72c1.07-2.56,2.11-5.31,3.12-8.24,1.01-2.99,1.81-5.76,2.4-8.32,0-.59-.11-1.39-.32-2.4-.16-1.07-.35-2.13-.56-3.2-.21-1.12-.43-2.13-.64-3.04-.21-.96-.37-1.6-.48-1.92.75-.32,1.68-.56,2.8-.72s2.24-.24,3.36-.24,2.16.08,3.12.24c.96.16,1.73.4,2.32.72-1.39,6.35-3.52,12.93-6.4,19.76-2.83,6.83-6.11,13.52-9.84,20.08-3.09,5.49-6.19,9.65-9.28,12.48-3.04,2.83-6.56,4.24-10.56,4.24-1.12,0-2.16-.16-3.12-.48-.91-.27-1.73-.64-2.48-1.12-.16-.75-.11-1.63.16-2.64.27-1.01.64-2,1.12-2.96.53-.96,1.15-1.84,1.84-2.64.69-.8,1.41-1.33,2.16-1.6l6,4.24c.37-.27.85-.67,1.44-1.2.59-.48,1.17-1.12,1.76-1.92.59-.75,1.17-1.65,1.76-2.72.59-1.07,1.12-2.29,1.6-3.68l-11.04-34.32Z"/>
    <path class="cls-1" d="M233.16,202.16c1.17-5.37,2.45-11.08,3.85-17.15,1.4-6.3,2.1-11.2,2.1-14.7,0-4.43-.82-7.93-2.45-10.5-1.4-2.57-4.08-3.85-8.05-3.85s-8.05,1.52-12.25,4.55c-4.2,2.8-8.28,6.65-12.25,11.55-3.97,4.67-7.82,10.03-11.55,16.1-3.5,6.07-6.65,12.25-9.45,18.55l-22.75,100.45h-46.9l21.35-98.35c1.63-7.23,3.03-14.23,4.2-21,1.17-6.77,1.75-13.07,1.75-18.9,0-8.63-3.27-12.95-9.8-12.95-3.27,0-7,1.52-11.2,4.55-4.2,3.03-8.4,7-12.6,11.9-4.2,4.67-8.17,10.03-11.9,16.1-3.73,6.07-6.65,12.25-8.75,18.55l-20.3,100.1H17.21l31.15-150.15-19.95-4.55v-11.9c3.73-1.87,8.28-3.62,13.65-5.25,5.6-1.63,11.43-2.92,17.5-3.85,6.07-1.17,12.25-1.98,18.55-2.45,6.3-.7,12.13-1.05,17.5-1.05l7.35,4.2-13.65,51.1h1.4c3.5-6.3,7.7-12.72,12.6-19.25,5.13-6.77,10.85-12.72,17.15-17.85,6.3-5.37,13.07-9.68,20.3-12.95,7.23-3.5,14.58-5.25,22.05-5.25,2.8,0,5.72.47,8.75,1.4,3.03.93,5.83,2.68,8.4,5.25,2.8,2.33,5.02,5.6,6.65,9.8s2.45,9.57,2.45,16.1c0,3.27-.35,7-1.05,11.2-.47,4.2-1.17,8.05-2.1,11.55,3.97-7.23,8.63-14.23,14-21,5.37-6.77,11.08-12.6,17.15-17.5,6.3-5.13,12.83-9.22,19.6-12.25,7-3.03,14.23-4.55,21.7-4.55,8.87,0,16.1,2.8,21.7,8.4,5.6,5.6,8.4,13.3,8.4,23.1,0,7.47-.7,14.58-2.1,21.35-1.4,6.77-2.92,13.88-4.55,21.35l-19.95,80.85h24.5v11.9c-2.33,1.87-5.6,3.73-9.8,5.6-3.97,1.87-8.28,3.5-12.95,4.9-4.67,1.4-9.45,2.57-14.35,3.5-4.9.93-9.45,1.4-13.65,1.4-8.4,0-14.23-1.63-17.5-4.9-3.27-3.5-4.9-7.35-4.9-11.55,0-6.77,1.63-16.1,4.9-28l15.05-63.7ZM379.68,283.36c4.43,0,8.98-1.98,13.65-5.95,4.9-3.97,9.45-8.87,13.65-14.7,4.43-6.07,8.4-12.6,11.9-19.6,3.73-7.23,6.88-13.88,9.45-19.95l12.95-69.3c-2.8-1.87-5.48-3.15-8.05-3.85-2.33-.93-5.48-1.4-9.45-1.4-9.33,0-17.73,3.15-25.2,9.45-7.47,6.07-13.77,14.12-18.9,24.15-5.13,9.8-9.1,20.88-11.9,33.25-2.57,12.37-3.85,24.73-3.85,37.1,0,10.73,1.28,18.55,3.85,23.45,2.57,4.9,6.53,7.35,11.9,7.35ZM423.08,251.51c-3.03,7.47-6.88,14.82-11.55,22.05-4.43,7-9.57,13.3-15.4,18.9-5.83,5.6-12.25,10.15-19.25,13.65s-14.58,5.25-22.75,5.25c-12.13,0-21.82-4.43-29.05-13.3-7.23-8.87-10.85-22.05-10.85-39.55s2.45-35.12,7.35-50.75c5.13-15.87,12.25-29.63,21.35-41.3,9.33-11.9,20.53-21.12,33.6-27.65,13.07-6.77,27.65-10.15,43.75-10.15,6.07,0,11.2.7,15.4,2.1,4.43,1.4,9.1,3.15,14,5.25,6.07-2.33,12.6-4.08,19.6-5.25,7-1.17,15.4-1.75,25.2-1.75l-29.4,154h24.5v11.9c-2.33,1.87-5.48,3.73-9.45,5.6-3.73,1.87-7.93,3.5-12.6,4.9-4.43,1.4-9.1,2.57-14,3.5-4.67.93-9.1,1.4-13.3,1.4-8.17,0-14-1.75-17.5-5.25s-5.25-7.12-5.25-10.85c0-4.2.58-9.68,1.75-16.45,1.17-7,2.92-15.75,5.25-26.25h-1.4ZM604.55,127.96c13.3,0,24.15,1.52,32.55,4.55,8.63,3.03,14.93,6.18,18.9,9.45,2.33-2.1,5.48-4.2,9.45-6.3,3.97-2.33,8.17-4.43,12.6-6.3,4.67-2.1,9.22-3.97,13.65-5.6,4.67-1.63,8.87-3.03,12.6-4.2,1.17,2.1,1.87,4.9,2.1,8.4.47,3.5.47,7.12,0,10.85-.23,3.5-.93,6.88-2.1,10.15-1.17,3.27-2.68,5.95-4.55,8.05l-34.65-3.85c1.17,1.87,2.1,4.32,2.8,7.35.93,3.03,1.4,6.42,1.4,10.15,0,8.4-1.98,16.45-5.95,24.15-3.97,7.47-9.8,14-17.5,19.6-7.47,5.6-16.57,10.15-27.3,13.65-10.5,3.27-22.4,4.9-35.7,4.9h-9.8c-2.33-.23-5.02-.7-8.05-1.4-1.17.93-2.57,1.98-4.2,3.15-1.4.93-2.92,1.98-4.55,3.15-1.4,1.17-2.68,2.57-3.85,4.2-.93,1.4-1.4,3.03-1.4,4.9,0,3.5,2.92,6.18,8.75,8.05,5.83,1.87,13.07,3.5,21.7,4.9,8.63,1.4,18.08,3.03,28.35,4.9,10.27,1.87,19.72,4.55,28.35,8.05,8.63,3.5,15.87,8.28,21.7,14.35,5.83,5.83,8.75,13.65,8.75,23.45,0,10.73-3.5,20.42-10.5,29.05-6.77,8.63-15.75,15.98-26.95,22.05-10.97,6.3-23.45,11.08-37.45,14.35-13.77,3.5-27.77,5.25-42,5.25-11.67,0-21.93-1.17-30.8-3.5-8.87-2.1-16.22-5.13-22.05-9.1-6.07-3.73-10.5-8.05-13.3-12.95-3.03-4.9-4.55-10.03-4.55-15.4,0-12.13,5.25-22.4,15.75-30.8,10.5-8.17,23.8-14.93,39.9-20.3-6.07-2.57-10.97-5.6-14.7-9.1-3.5-3.73-5.25-8.4-5.25-14,0-3.5,1.05-7.12,3.15-10.85,2.1-3.73,4.78-7.35,8.05-10.85,3.27-3.5,6.88-6.65,10.85-9.45,3.97-3.03,7.93-5.48,11.9-7.35-3.5-.7-7.23-2.1-11.2-4.2-3.73-2.1-7.23-4.67-10.5-7.7-3.03-3.27-5.6-7-7.7-11.2-2.1-4.43-3.15-9.1-3.15-14,0-9.1,1.98-17.5,5.95-25.2,3.97-7.7,9.68-14.23,17.15-19.6,7.47-5.6,16.45-9.92,26.95-12.95,10.73-3.27,22.87-4.9,36.4-4.9ZM568.15,361.41c6.3,0,12.37-.82,18.2-2.45,6.07-1.4,11.43-3.62,16.1-6.65,4.67-2.8,8.4-6.42,11.2-10.85,3.03-4.43,4.55-9.68,4.55-15.75,0-5.6-2.33-10.15-7-13.65-4.43-3.27-10.15-5.95-17.15-8.05-7-2.33-14.7-4.2-23.1-5.6-8.17-1.4-15.98-3.03-23.45-4.9-6.53,4.9-11.43,10.73-14.7,17.5-3.27,6.77-4.9,13.53-4.9,20.3,0,9.33,3.62,16.68,10.85,22.05,7.23,5.37,17.03,8.05,29.4,8.05ZM600.35,147.21c-5.6,0-10.5,1.17-14.7,3.5-4.2,2.33-7.7,5.48-10.5,9.45-2.8,3.97-4.9,8.63-6.3,14-1.4,5.37-2.1,11.08-2.1,17.15,0,8.17,1.98,14,5.95,17.5,4.2,3.27,8.63,4.9,13.3,4.9,5.6,0,10.5-1.17,14.7-3.5,4.2-2.33,7.7-5.37,10.5-9.1,2.8-3.97,4.9-8.52,6.3-13.65,1.4-5.13,2.1-10.62,2.1-16.45,0-7-1.63-12.72-4.9-17.15-3.27-4.43-8.05-6.65-14.35-6.65ZM758.73,283.36c4.43,0,8.98-1.98,13.65-5.95,4.9-3.97,9.45-8.87,13.65-14.7,4.43-6.07,8.4-12.6,11.9-19.6,3.73-7.23,6.88-13.88,9.45-19.95l12.95-69.3c-2.8-1.87-5.48-3.15-8.05-3.85-2.33-.93-5.48-1.4-9.45-1.4-9.33,0-17.73,3.15-25.2,9.45-7.47,6.07-13.77,14.12-18.9,24.15-5.13,9.8-9.1,20.88-11.9,33.25-2.57,12.37-3.85,24.73-3.85,37.1,0,10.73,1.28,18.55,3.85,23.45,2.57,4.9,6.53,7.35,11.9,7.35ZM802.13,251.51c-3.03,7.47-6.88,14.82-11.55,22.05-4.43,7-9.57,13.3-15.4,18.9-5.83,5.6-12.25,10.15-19.25,13.65s-14.58,5.25-22.75,5.25c-12.13,0-21.82-4.43-29.05-13.3-7.23-8.87-10.85-22.05-10.85-39.55s2.45-35.12,7.35-50.75c5.13-15.87,12.25-29.63,21.35-41.3,9.33-11.9,20.53-21.12,33.6-27.65,13.07-6.77,27.65-10.15,43.75-10.15,6.07,0,11.2.7,15.4,2.1,4.43,1.4,9.1,3.15,14,5.25,6.07-2.33,12.6-4.08,19.6-5.25,7-1.17,15.4-1.75,25.2-1.75l-29.4,154h24.5v11.9c-2.33,1.87-5.48,3.73-9.45,5.6-3.73,1.87-7.93,3.5-12.6,4.9-4.43,1.4-9.1,2.57-14,3.5-4.67.93-9.1,1.4-13.3,1.4-8.17,0-14-1.75-17.5-5.25s-5.25-7.12-5.25-10.85c0-4.2.58-9.68,1.75-16.45,1.17-7,2.92-15.75,5.25-26.25h-1.4ZM50.11,530.11v-.35l66.85-69.65c-9.1.23-19.02-.12-29.75-1.05-10.5-1.17-21.35-2.68-32.55-4.55l-16.1,25.2-11.9-2.1,4.9-49.35c1.4-9.1,8.05-13.65,19.95-13.65,4.67,0,10.5.47,17.5,1.4,7,.7,14.82,1.63,23.45,2.8,8.87,1.17,18.32,2.33,28.35,3.5,10.27.93,20.88,1.75,31.85,2.45l9.1-9.8c3.27.23,6.65,1.87,10.15,4.9,3.5,2.8,5.48,6.18,5.95,10.15l-112.7,117.6c11.9,2.57,23.45,5.83,34.65,9.8,11.2,3.73,21.7,8.28,31.5,13.65l23.45-23.1,11.55,4.9-15.4,49.35c-1.17,3.5-3.5,6.42-7,8.75-3.27,2.33-7.23,3.5-11.9,3.5-4.9,0-10.85-1.52-17.85-4.55-6.77-3.03-14.47-6.53-23.1-10.5-8.63-3.73-17.85-7.47-27.65-11.2-9.8-3.73-20.07-6.3-30.8-7.7l-16.45,16.8c-1.87,0-3.73-.47-5.6-1.4-1.87-.93-3.62-2.1-5.25-3.5s-2.92-3.03-3.85-4.9c-1.17-1.87-1.63-3.85-1.4-5.95l50.05-51.45ZM191.78,439.46v-11.9c3.5-1.4,8.17-2.8,14-4.2,5.83-1.63,12.02-3.03,18.55-4.2,6.53-1.17,12.95-2.1,19.25-2.8,6.53-.93,12.25-1.4,17.15-1.4l6.3,4.2-31.5,150.85h24.5v11.9c-3.03,2.1-6.65,4.08-10.85,5.95-3.97,1.87-8.28,3.5-12.95,4.9-4.43,1.4-8.98,2.45-13.65,3.15-4.67.93-9.1,1.4-13.3,1.4-8.87,0-15.05-1.63-18.55-4.9-3.27-3.5-4.9-7.23-4.9-11.2,0-4.67.35-9.22,1.05-13.65.7-4.43,1.63-9.33,2.8-14.7l23.8-108.5-21.7-4.9ZM220.83,360.71c0-7.93,2.68-14.12,8.05-18.55,5.37-4.43,12.13-6.65,20.3-6.65,8.87,0,15.87,2.22,21,6.65,5.37,4.43,8.05,10.62,8.05,18.55,0,7.47-2.68,13.42-8.05,17.85-5.13,4.43-12.13,6.65-21,6.65-8.17,0-14.93-2.22-20.3-6.65-5.37-4.43-8.05-10.38-8.05-17.85ZM411.83,494.41c1.63-7.23,3.03-13.65,4.2-19.25,1.4-5.6,2.1-11.43,2.1-17.5,0-3.97-.93-7.35-2.8-10.15-1.63-3.03-4.67-4.55-9.1-4.55s-9.1,1.75-14,5.25c-4.67,3.27-9.33,7.47-14,12.6-4.43,4.9-8.63,10.38-12.6,16.45-3.73,6.07-6.77,11.67-9.1,16.8l-21,100.1h-48.3l30.1-150.15-20.65-4.55.7-11.9c3.27-1.63,7.47-3.15,12.6-4.55,5.13-1.63,10.73-3.03,16.8-4.2,6.07-1.17,12.25-2.1,18.55-2.8,6.53-.7,12.72-1.05,18.55-1.05l7,4.2-10.85,51.1h1.75c4.2-7.7,9.1-14.93,14.7-21.7s11.55-12.6,17.85-17.5c6.3-4.9,12.95-8.75,19.95-11.55,7-3.03,14.12-4.55,21.35-4.55,9.8,0,17.5,3.15,23.1,9.45s8.4,14.7,8.4,25.2c0,5.37-.58,11.55-1.75,18.55-1.17,6.77-2.57,13.53-4.2,20.3l-19.25,81.55h25.2v11.9c-2.33,1.87-5.48,3.73-9.45,5.6-3.73,1.87-7.93,3.5-12.6,4.9-4.43,1.4-9.1,2.57-14,3.5-4.9.93-9.57,1.4-14,1.4-7.93,0-13.77-1.52-17.5-4.55-3.5-3.03-5.25-6.53-5.25-10.5,0-4.9.58-10.15,1.75-15.75,1.17-5.6,2.33-10.97,3.5-16.1l12.25-56ZM633.34,556.01c-2.57,4.67-6.3,9.57-11.2,14.7-4.9,4.9-10.62,9.45-17.15,13.65-6.53,3.97-13.77,7.23-21.7,9.8-7.93,2.8-16.22,4.2-24.85,4.2-20.77,0-36.98-5.6-48.65-16.8-11.43-11.43-17.15-27.53-17.15-48.3,0-16.1,2.57-31.27,7.7-45.5,5.13-14.23,12.25-26.72,21.35-37.45,9.33-10.97,20.3-19.6,32.9-25.9,12.83-6.3,26.83-9.45,42-9.45,14,0,25.55,3.27,34.65,9.8,9.1,6.3,13.65,15.05,13.65,26.25,0,15.87-7.93,28.93-23.8,39.2-15.63,10.27-41.07,16.68-76.3,19.25-.7,3.27-1.28,6.65-1.75,10.15-.23,3.27-.35,6.42-.35,9.45,0,13.3,3.38,23.57,10.15,30.8,6.77,7,15.4,10.5,25.9,10.5,4.43,0,8.87-.7,13.3-2.1,4.43-1.4,8.63-3.27,12.6-5.6,4.2-2.33,7.93-4.78,11.2-7.35,3.5-2.8,6.53-5.48,9.1-8.05l8.4,8.75ZM588.54,434.91c-7.93,0-15.63,4.32-23.1,12.95-7.23,8.63-13.3,23.22-18.2,43.75,17.27-.47,31.15-4.32,41.65-11.55,10.73-7.23,16.1-16.68,16.1-28.35,0-4.67-1.28-8.63-3.85-11.9-2.33-3.27-6.53-4.9-12.6-4.9Z"/>
  </g>
</svg>