<svg width="248" height="104" viewBox="0 0 248 104" fill="none" xmlns="http://www.w3.org/2000/svg">
<path d="M5.124 25.392C4.13467 25.392 3.36 25.1027 2.8 24.524C2.24 23.9453 1.96 23.1707 1.96 22.2C1.96 20.52 2.75333 18.6907 4.34 16.712C5.16133 15.704 5.992 14.9387 6.832 14.416C7.69067 13.8747 8.49333 13.604 9.24 13.604C9.89333 13.604 10.3973 13.828 10.752 14.276C11.1067 14.724 11.284 15.284 11.284 15.956C11.284 16.3667 11.228 16.7867 11.116 17.216C11.0413 17.5147 10.892 17.664 10.668 17.664C10.3133 17.664 10.136 17.468 10.136 17.076C10.136 16.908 10.164 16.6933 10.22 16.432C10.2947 16.152 10.332 15.8813 10.332 15.62C10.332 14.8733 9.968 14.5 9.24 14.5C8.848 14.5 8.372 14.64 7.812 14.92C7.27067 15.2 6.72933 15.5733 6.188 16.04C5.64667 16.488 5.17067 17.0013 4.76 17.58C3.50933 19.2787 2.884 20.8 2.884 22.144C2.884 23.6933 3.584 24.468 4.984 24.468C5.86133 24.468 6.70133 24.3373 7.504 24.076C8.30667 23.796 9.24933 23.2267 10.332 22.368C11.004 21.8453 11.508 21.4253 11.844 21.108C12.18 20.7907 12.544 20.4547 12.936 20.1C13.048 20.0253 13.1507 19.988 13.244 19.988C13.3373 19.988 13.4307 20.016 13.524 20.072C13.6173 20.128 13.664 20.212 13.664 20.324C13.664 20.5293 13.4773 20.8187 13.104 21.192C12.7867 21.4907 12.4507 21.808 12.096 22.144C11.7413 22.4613 11.1813 22.9093 10.416 23.488C9.59467 24.1227 8.71733 24.5987 7.784 24.916C6.86933 25.2333 5.98267 25.392 5.124 25.392ZM15.1226 25.756C14.264 25.756 13.6013 25.4947 13.1346 24.972C12.6866 24.4307 12.4626 23.7213 12.4626 22.844C12.4626 22.2093 12.5746 21.444 12.7986 20.548C13.1906 19.036 13.8533 17.2813 14.7866 15.284C15.5146 13.772 16.2986 12.288 17.1386 10.832C17.9786 9.35733 18.9026 7.91067 19.9106 6.492C21.516 4.21467 22.636 3.076 23.2706 3.076C23.6813 3.076 23.8866 3.188 23.8866 3.412C23.8866 3.72933 23.364 4.52267 22.3186 5.792L20.3586 8.172C18.66 10.2253 17.2693 12.3253 16.1866 14.472C15.1226 16.6187 14.292 18.7653 13.6946 20.912C13.5266 21.528 13.4426 22.1067 13.4426 22.648C13.4426 24.0667 14.0213 24.776 15.1786 24.776C15.5893 24.776 16.0093 24.6547 16.4386 24.412C16.868 24.188 17.1013 24.076 17.1386 24.076C17.3626 24.076 17.4746 24.2347 17.4746 24.552C17.4746 24.832 17.372 25.0467 17.1666 25.196C16.532 25.5693 15.8506 25.756 15.1226 25.756ZM25.1727 13.968C24.8553 13.968 24.6967 13.8093 24.6967 13.492C24.6967 13.3987 24.762 13.2307 24.8927 12.988C25.0233 12.7267 25.1727 12.4653 25.3407 12.204C25.5087 11.9427 25.6393 11.7653 25.7327 11.672C26.05 11.3173 26.2927 11.0933 26.4607 11C26.6473 10.9067 26.8153 10.86 26.9647 10.86C27.3567 10.86 27.5527 11.0373 27.5527 11.392C27.5527 11.5227 27.4687 11.6813 27.3007 11.868C27.1513 12.036 26.974 12.1947 26.7687 12.344C26.47 12.5307 26.2833 12.68 26.2087 12.792L25.5927 13.66C25.574 13.7347 25.5273 13.8093 25.4527 13.884C25.3967 13.94 25.3033 13.968 25.1727 13.968ZM20.4127 25.308C19.89 25.308 19.5073 25.2053 19.2647 25C19.0407 24.7947 18.9287 24.4867 18.9287 24.076C18.9287 23.684 19.05 23.152 19.2927 22.48C19.5353 21.7893 19.8433 21.052 20.2167 20.268C20.6087 19.484 21.0193 18.7373 21.4487 18.028C21.878 17.3187 22.2887 16.74 22.6807 16.292C23.0913 15.8253 23.418 15.592 23.6607 15.592C23.9967 15.592 24.1647 15.7413 24.1647 16.04C24.1647 16.2267 24.006 16.5813 23.6887 17.104C23.3713 17.6267 23.026 18.168 22.6527 18.728C22.5033 18.9333 22.298 19.2133 22.0367 19.568C21.7753 19.9227 21.5233 20.2587 21.2807 20.576C21.038 20.8747 20.8793 21.08 20.8047 21.192C20.618 21.472 20.422 21.9293 20.2167 22.564C19.9927 23.1987 19.8807 23.684 19.8807 24.02C19.8807 24.1693 19.9087 24.2813 19.9647 24.356C20.0393 24.4307 20.198 24.468 20.4407 24.468C20.9073 24.468 21.43 24.3187 22.0087 24.02C22.5873 23.7213 23.1753 23.348 23.7727 22.9C24.37 22.4333 24.93 21.9573 25.4527 21.472C25.994 20.9867 26.4513 20.5667 26.8247 20.212C26.8993 20.1373 27.0113 20.1 27.1607 20.1C27.4407 20.1 27.5807 20.212 27.5807 20.436C27.5807 20.6413 27.45 20.8747 27.1887 21.136C26.6847 21.64 26.218 22.088 25.7887 22.48C25.3593 22.872 24.9487 23.2173 24.5567 23.516C23.9407 23.964 23.2593 24.3747 22.5127 24.748C21.766 25.1213 21.066 25.308 20.4127 25.308ZM29.4326 25.392C28.4433 25.392 27.6686 25.1027 27.1086 24.524C26.5486 23.9453 26.2686 23.1707 26.2686 22.2C26.2686 20.52 27.0619 18.6907 28.6486 16.712C29.4699 15.704 30.3006 14.9387 31.1406 14.416C31.9993 13.8747 32.8019 13.604 33.5486 13.604C34.2019 13.604 34.7059 13.828 35.0606 14.276C35.4153 14.724 35.5926 15.284 35.5926 15.956C35.5926 16.3667 35.5366 16.7867 35.4246 17.216C35.3499 17.5147 35.2006 17.664 34.9766 17.664C34.6219 17.664 34.4446 17.468 34.4446 17.076C34.4446 16.908 34.4726 16.6933 34.5286 16.432C34.6033 16.152 34.6406 15.8813 34.6406 15.62C34.6406 14.8733 34.2766 14.5 33.5486 14.5C33.1566 14.5 32.6806 14.64 32.1206 14.92C31.5793 15.2 31.0379 15.5733 30.4966 16.04C29.9553 16.488 29.4793 17.0013 29.0686 17.58C27.8179 19.2787 27.1926 20.8 27.1926 22.144C27.1926 23.6933 27.8926 24.468 29.2926 24.468C30.1699 24.468 31.0099 24.3373 31.8126 24.076C32.6153 23.796 33.5579 23.2267 34.6406 22.368C35.3126 21.8453 35.8166 21.4253 36.1526 21.108C36.4886 20.7907 36.8526 20.4547 37.2446 20.1C37.3566 20.0253 37.4593 19.988 37.5526 19.988C37.6459 19.988 37.7393 20.016 37.8326 20.072C37.9259 20.128 37.9726 20.212 37.9726 20.324C37.9726 20.5293 37.7859 20.8187 37.4126 21.192C37.0953 21.4907 36.7593 21.808 36.4046 22.144C36.0499 22.4613 35.4899 22.9093 34.7246 23.488C33.9033 24.1227 33.0259 24.5987 32.0926 24.916C31.1779 25.2333 30.2913 25.392 29.4326 25.392ZM44.0232 26.316C43.8366 26.316 43.6966 26.204 43.6032 25.98L43.2112 25.028C42.8006 24.0387 42.2126 23.0587 41.4472 22.088C40.6819 21.0987 39.9259 20.1933 39.1792 19.372C38.7686 20.212 38.4046 20.968 38.0872 21.64C37.7699 22.312 37.4806 22.9467 37.2192 23.544C36.9579 24.1227 36.6779 24.7293 36.3792 25.364C36.3046 25.5507 36.1739 25.644 35.9872 25.644C35.6699 25.644 35.5112 25.5133 35.5112 25.252C35.5112 25.14 35.5486 25 35.6232 24.832C35.7166 24.6453 35.8006 24.4587 35.8752 24.272C36.3606 23.096 36.9859 21.696 37.7512 20.072C38.5352 18.448 39.4219 16.6747 40.4112 14.752C42.2966 11.0747 43.8086 8.44267 44.9472 6.856C45.2086 6.48267 45.4606 6.14667 45.7032 5.848C45.9646 5.54933 46.1886 5.4 46.3752 5.4C46.7112 5.4 46.8792 5.57733 46.8792 5.932C46.8792 6.41733 46.1699 7.70533 44.7512 9.796C44.6392 9.964 44.4432 10.244 44.1632 10.636C43.8832 11.028 43.5846 11.4573 43.2672 11.924C42.9499 12.372 42.6512 12.792 42.3712 13.184C42.1099 13.5573 41.9326 13.8187 41.8392 13.968L39.8232 17.972C44.3406 15.34 46.7672 14.024 47.1032 14.024C47.4019 14.024 47.5512 14.192 47.5512 14.528C47.5512 14.7333 47.4392 14.8827 47.2152 14.976C46.3939 15.368 45.7406 15.6853 45.2552 15.928C44.7886 16.1707 44.3126 16.4227 43.8272 16.684C43.4166 16.9453 42.8846 17.2627 42.2312 17.636C41.5966 18.0093 40.8406 18.4387 39.9632 18.924C40.4112 19.4093 40.8966 19.9787 41.4192 20.632C41.9419 21.2667 42.4272 21.9293 42.8752 22.62C43.3419 23.292 43.7246 23.9173 44.0232 24.496C44.3219 25.0747 44.4712 25.5413 44.4712 25.896C44.4712 26.176 44.3219 26.316 44.0232 26.316ZM56.667 25.392C55.6776 25.392 54.903 25.1027 54.343 24.524C53.783 23.9453 53.503 23.1707 53.503 22.2C53.503 20.52 54.2963 18.6907 55.883 16.712C56.7043 15.704 57.535 14.9387 58.375 14.416C59.2336 13.8747 60.0363 13.604 60.783 13.604C61.4363 13.604 61.9403 13.828 62.295 14.276C62.6496 14.724 62.827 15.284 62.827 15.956C62.827 16.3667 62.771 16.7867 62.659 17.216C62.5843 17.5147 62.435 17.664 62.211 17.664C61.8563 17.664 61.679 17.468 61.679 17.076C61.679 16.908 61.707 16.6933 61.763 16.432C61.8376 16.152 61.875 15.8813 61.875 15.62C61.875 14.8733 61.511 14.5 60.783 14.5C60.391 14.5 59.915 14.64 59.355 14.92C58.8136 15.2 58.2723 15.5733 57.731 16.04C57.1896 16.488 56.7136 17.0013 56.303 17.58C55.0523 19.2787 54.427 20.8 54.427 22.144C54.427 23.6933 55.127 24.468 56.527 24.468C57.4043 24.468 58.2443 24.3373 59.047 24.076C59.8496 23.796 60.7923 23.2267 61.875 22.368C62.547 21.8453 63.051 21.4253 63.387 21.108C63.723 20.7907 64.087 20.4547 64.479 20.1C64.591 20.0253 64.6936 19.988 64.787 19.988C64.8803 19.988 64.9736 20.016 65.067 20.072C65.1603 20.128 65.207 20.212 65.207 20.324C65.207 20.5293 65.0203 20.8187 64.647 21.192C64.3296 21.4907 63.9936 21.808 63.639 22.144C63.2843 22.4613 62.7243 22.9093 61.959 23.488C61.1376 24.1227 60.2603 24.5987 59.327 24.916C58.4123 25.2333 57.5256 25.392 56.667 25.392ZM66.4011 24.86C64.8891 24.86 64.1331 24.0107 64.1331 22.312C64.1331 21.528 64.3198 20.7067 64.6931 19.848C65.0665 18.9893 65.5611 18.196 66.1771 17.468C66.7931 16.7213 67.4745 16.1147 68.2211 15.648C68.9865 15.1813 69.7611 14.948 70.5451 14.948C71.2358 14.948 71.7398 15.2093 72.0571 15.732C72.3745 16.2547 72.5331 16.8333 72.5331 17.468C72.5331 18.308 72.3651 19.1667 72.0291 20.044C71.6931 20.9027 71.2358 21.696 70.6571 22.424C70.0785 23.152 69.4251 23.74 68.6971 24.188C67.9691 24.636 67.2038 24.86 66.4011 24.86ZM66.3731 23.964C66.4851 23.964 66.5505 23.9547 66.5691 23.936C67.2971 23.8427 67.9691 23.5813 68.5851 23.152C69.2011 22.7227 69.7331 22.1907 70.1811 21.556C70.6478 20.9027 71.0025 20.2027 71.2451 19.456C71.4878 18.7093 71.6091 17.972 71.6091 17.244C71.6091 16.8147 71.4878 16.4787 71.2451 16.236C71.0025 15.9933 70.6945 15.872 70.3211 15.872C69.7798 15.872 69.2011 16.096 68.5851 16.544C67.9878 16.992 67.4185 17.5613 66.8771 18.252C66.3545 18.9427 65.9251 19.6707 65.5891 20.436C65.2531 21.1827 65.0851 21.8547 65.0851 22.452C65.0851 23.46 65.5145 23.964 66.3731 23.964ZM75.0813 25.28C74.8573 25.28 74.7453 25.196 74.7453 25.028C74.4467 24.5053 74.2973 23.432 74.2973 21.808C74.2973 21.416 74.3253 20.8933 74.3813 20.24C74.4373 19.5867 74.512 18.9053 74.6053 18.196C74.6987 17.4867 74.8013 16.8427 74.9133 16.264C75.0253 15.6667 75.1467 15.2373 75.2773 14.976C75.3893 14.752 75.5293 14.64 75.6973 14.64C75.996 14.64 76.1453 14.7613 76.1453 15.004C76.1453 15.1347 76.1267 15.2653 76.0893 15.396C76.052 15.508 76.0147 15.648 75.9773 15.816C75.7347 16.7493 75.5387 17.7387 75.3893 18.784C75.2587 19.8293 75.1933 20.9027 75.1933 22.004C75.1933 22.508 75.212 22.956 75.2493 23.348C75.3053 23.74 75.3613 24.076 75.4173 24.356C75.94 24.1507 76.5187 23.7493 77.1533 23.152C77.788 22.536 78.404 21.8547 79.0013 21.108C79.4867 20.492 79.9253 19.8667 80.3173 19.232C80.728 18.5973 81.0453 18 81.2693 17.44C81.512 16.88 81.6333 16.4227 81.6333 16.068C81.6333 15.8253 81.6053 15.6573 81.5493 15.564C81.512 15.4707 81.4653 15.396 81.4093 15.34C81.3533 15.284 81.3253 15.1813 81.3253 15.032C81.3253 14.752 81.4653 14.612 81.7453 14.612C81.932 14.612 82.1 14.752 82.2493 15.032C82.3987 15.312 82.4733 15.6667 82.4733 16.096C82.4733 17.4213 81.5493 19.2787 79.7013 21.668C77.7973 24.076 76.2573 25.28 75.0813 25.28ZM85.3081 25.504C84.5241 25.504 83.9081 25.2333 83.4601 24.692C83.0121 24.1507 82.7881 23.488 82.7881 22.704C82.7881 21.36 83.2361 19.9787 84.1321 18.56C84.3748 18.168 84.6548 17.7853 84.9721 17.412C85.2895 17.02 85.6348 16.6467 86.0081 16.292C86.5681 15.7507 87.1561 15.3027 87.7721 14.948C88.3881 14.5933 88.9855 14.416 89.5641 14.416C90.5161 14.416 90.9921 14.864 90.9921 15.76C90.9921 16.88 90.3388 17.8973 89.0321 18.812C87.8188 19.6333 86.6241 20.044 85.4481 20.044C85.2428 20.044 85.0561 20.0347 84.8881 20.016C84.7388 19.9787 84.5988 19.9413 84.4681 19.904C84.2815 20.2587 84.1135 20.716 83.9641 21.276C83.8148 21.836 83.7401 22.3213 83.7401 22.732C83.7401 23.964 84.2815 24.58 85.3641 24.58C86.2415 24.58 87.0721 24.4307 87.8561 24.132C88.6401 23.8147 89.5735 23.2267 90.6561 22.368C91.3281 21.8453 91.8321 21.4253 92.1681 21.108C92.5041 20.7907 92.8681 20.4547 93.2601 20.1C93.3721 20.0253 93.4748 19.988 93.5681 19.988C93.6615 19.988 93.7548 20.016 93.8481 20.072C93.9415 20.128 93.9881 20.212 93.9881 20.324C93.9881 20.5293 93.8015 20.8187 93.4281 21.192C93.1108 21.4907 92.7748 21.808 92.4201 22.144C92.0655 22.4613 91.5055 22.9093 90.7401 23.488C89.9188 24.1227 89.0228 24.6173 88.0521 24.972C87.0815 25.3267 86.1668 25.504 85.3081 25.504ZM85.2801 19.148C85.8775 19.148 86.4468 19.0547 86.9881 18.868C87.5295 18.6813 88.0428 18.4107 88.5281 18.056C89.6108 17.2533 90.1521 16.4973 90.1521 15.788C90.1521 15.4707 89.9561 15.312 89.5641 15.312C88.8175 15.312 87.9495 15.7693 86.9601 16.684C86.4748 17.132 86.0735 17.5427 85.7561 17.916C85.4575 18.2707 85.1775 18.6627 84.9161 19.092C85.0281 19.1293 85.1495 19.148 85.2801 19.148ZM91.3719 25.7C91.0732 25.7 90.9239 25.5787 90.9239 25.336C90.9239 25.224 90.9519 25.112 91.0079 25C91.0825 24.888 91.1385 24.7947 91.1759 24.72L93.7239 19.568C94.8065 17.3653 95.3479 16.1427 95.3479 15.9C95.3479 15.6387 95.4785 15.508 95.7399 15.508C96.0945 15.508 96.2719 15.6853 96.2719 16.04C96.2719 16.2267 96.1879 16.5253 96.0199 16.936C95.8519 17.3467 95.6372 17.8227 95.3759 18.364C94.9279 19.3347 94.5545 20.0813 94.2559 20.604C94.8159 19.9507 95.3852 19.3347 95.9639 18.756C96.5425 18.1773 97.1305 17.6267 97.7279 17.104C99.5012 15.5547 100.864 14.78 101.816 14.78C102.469 14.78 102.796 15.088 102.796 15.704C102.796 16.3013 102.6 16.6 102.208 16.6C102.021 16.6 101.881 16.4413 101.788 16.124C101.732 15.9 101.601 15.788 101.396 15.788C101.079 15.788 100.463 16.1333 99.5479 16.824C98.5399 17.5707 97.5225 18.4573 96.4959 19.484C95.4879 20.5107 94.4145 21.8173 93.2759 23.404L91.8759 25.364C91.8012 25.4573 91.7265 25.532 91.6519 25.588C91.5959 25.6627 91.5025 25.7 91.3719 25.7ZM101.908 25.924C100.863 25.924 100.34 25.5787 100.34 24.888C100.34 24.4587 100.489 24.0293 100.788 23.6C101.105 23.1707 101.479 22.7787 101.908 22.424C102.337 22.0693 102.739 21.7987 103.112 21.612C103.224 21.556 103.373 21.5 103.56 21.444C103.765 21.388 103.933 21.36 104.064 21.36C104.213 21.36 104.288 21.416 104.288 21.528C104.288 21.6213 104.185 21.724 103.98 21.836C103.121 22.2467 102.449 22.7413 101.964 23.32C101.497 23.88 101.264 24.3373 101.264 24.692C101.264 25.028 101.553 25.196 102.132 25.196C102.617 25.196 103.14 25.0747 103.7 24.832C104.279 24.5893 104.82 24.272 105.324 23.88C105.847 23.488 106.276 23.068 106.612 22.62C106.948 22.172 107.116 21.7427 107.116 21.332C107.116 21.052 107.023 20.8 106.836 20.576C106.668 20.352 106.388 20.184 105.996 20.072L104.148 19.512C103.681 19.3627 103.345 19.1667 103.14 18.924C102.935 18.6813 102.832 18.4107 102.832 18.112C102.832 17.552 103.037 17.048 103.448 16.6C103.877 16.152 104.409 15.7973 105.044 15.536C105.679 15.2747 106.295 15.144 106.892 15.144C107.489 15.144 108.012 15.2933 108.46 15.592C108.908 15.872 109.132 16.2547 109.132 16.74C109.132 17.02 109.048 17.2813 108.88 17.524C108.731 17.7667 108.553 17.888 108.348 17.888C108.031 17.888 107.872 17.7573 107.872 17.496C107.872 17.4027 107.919 17.2907 108.012 17.16C108.124 17.0107 108.18 16.8707 108.18 16.74C108.18 16.18 107.751 15.9 106.892 15.9C106.425 15.9 105.959 16.0027 105.492 16.208C105.044 16.3947 104.671 16.6467 104.372 16.964C104.073 17.2813 103.924 17.6267 103.924 18C103.924 18.3733 104.297 18.672 105.044 18.896L106.836 19.456C107.377 19.624 107.751 19.8573 107.956 20.156C108.161 20.436 108.264 20.7533 108.264 21.108C108.264 21.948 107.751 22.816 106.724 23.712C105.063 25.1867 103.457 25.924 101.908 25.924ZM118.001 26.932C117.646 26.932 117.469 26.652 117.469 26.092C117.469 25.2707 117.926 23.8333 118.841 21.78C119.774 19.7267 121.156 17.0387 122.985 13.716C122.276 13.716 121.604 13.8093 120.969 13.996C120.353 14.164 120.026 14.3787 119.989 14.64C119.97 14.7147 119.924 14.7893 119.849 14.864C119.793 14.92 119.7 14.948 119.569 14.948C119.27 14.948 119.121 14.7987 119.121 14.5C119.121 14.0147 119.504 13.6133 120.269 13.296C121.034 12.9787 122.108 12.82 123.489 12.82L125.421 9.628C125.552 9.42267 125.692 9.19867 125.841 8.956C125.99 8.69467 126.158 8.41467 126.345 8.116C126.532 7.85467 126.746 7.724 126.989 7.724C127.138 7.724 127.25 7.77067 127.325 7.864C127.4 7.93867 127.437 8.02267 127.437 8.116C127.437 8.396 127.026 9.14267 126.205 10.356C125.178 11.868 124.628 12.6893 124.553 12.82C124.833 12.82 125.253 12.848 125.813 12.904C126.373 12.9413 127.036 13.0067 127.801 13.1C128.081 13.1187 128.221 13.2587 128.221 13.52C128.221 13.8187 128.053 13.968 127.717 13.968C127.586 13.968 127.325 13.9493 126.933 13.912C126.541 13.856 126.121 13.8093 125.673 13.772C125.225 13.7347 124.842 13.7253 124.525 13.744L124.105 13.772C120.316 20.436 118.43 24.58 118.449 26.204L118.477 26.428V26.484C118.477 26.7827 118.318 26.932 118.001 26.932ZM126.639 24.86C125.127 24.86 124.371 24.0107 124.371 22.312C124.371 21.528 124.558 20.7067 124.931 19.848C125.305 18.9893 125.799 18.196 126.415 17.468C127.031 16.7213 127.713 16.1147 128.459 15.648C129.225 15.1813 129.999 14.948 130.783 14.948C131.474 14.948 131.978 15.2093 132.295 15.732C132.613 16.2547 132.771 16.8333 132.771 17.468C132.771 18.308 132.603 19.1667 132.267 20.044C131.931 20.9027 131.474 21.696 130.895 22.424C130.317 23.152 129.663 23.74 128.935 24.188C128.207 24.636 127.442 24.86 126.639 24.86ZM126.611 23.964C126.723 23.964 126.789 23.9547 126.807 23.936C127.535 23.8427 128.207 23.5813 128.823 23.152C129.439 22.7227 129.971 22.1907 130.419 21.556C130.886 20.9027 131.241 20.2027 131.483 19.456C131.726 18.7093 131.847 17.972 131.847 17.244C131.847 16.8147 131.726 16.4787 131.483 16.236C131.241 15.9933 130.933 15.872 130.559 15.872C130.018 15.872 129.439 16.096 128.823 16.544C128.226 16.992 127.657 17.5613 127.115 18.252C126.593 18.9427 126.163 19.6707 125.827 20.436C125.491 21.1827 125.323 21.8547 125.323 22.452C125.323 23.46 125.753 23.964 126.611 23.964ZM143.277 25.28C143.053 25.28 142.941 25.196 142.941 25.028C142.642 24.5053 142.493 23.432 142.493 21.808C142.493 21.416 142.521 20.8933 142.577 20.24C142.633 19.5867 142.707 18.9053 142.801 18.196C142.894 17.4867 142.997 16.8427 143.109 16.264C143.221 15.6667 143.342 15.2373 143.473 14.976C143.585 14.752 143.725 14.64 143.893 14.64C144.191 14.64 144.341 14.7613 144.341 15.004C144.341 15.1347 144.322 15.2653 144.285 15.396C144.247 15.508 144.21 15.648 144.173 15.816C143.93 16.7493 143.734 17.7387 143.585 18.784C143.454 19.8293 143.389 20.9027 143.389 22.004C143.389 22.508 143.407 22.956 143.445 23.348C143.501 23.74 143.557 24.076 143.613 24.356C144.135 24.1507 144.714 23.7493 145.349 23.152C145.983 22.536 146.599 21.8547 147.197 21.108C147.682 20.492 148.121 19.8667 148.513 19.232C148.923 18.5973 149.241 18 149.465 17.44C149.707 16.88 149.829 16.4227 149.829 16.068C149.829 15.8253 149.801 15.6573 149.745 15.564C149.707 15.4707 149.661 15.396 149.605 15.34C149.549 15.284 149.521 15.1813 149.521 15.032C149.521 14.752 149.661 14.612 149.941 14.612C150.127 14.612 150.295 14.752 150.445 15.032C150.594 15.312 150.669 15.6667 150.669 16.096C150.669 17.4213 149.745 19.2787 147.897 21.668C145.993 24.076 144.453 25.28 143.277 25.28ZM156.723 13.968C156.406 13.968 156.247 13.8093 156.247 13.492C156.247 13.3987 156.313 13.2307 156.443 12.988C156.574 12.7267 156.723 12.4653 156.891 12.204C157.059 11.9427 157.19 11.7653 157.283 11.672C157.601 11.3173 157.843 11.0933 158.011 11C158.198 10.9067 158.366 10.86 158.515 10.86C158.907 10.86 159.103 11.0373 159.103 11.392C159.103 11.5227 159.019 11.6813 158.851 11.868C158.702 12.036 158.525 12.1947 158.319 12.344C158.021 12.5307 157.834 12.68 157.759 12.792L157.143 13.66C157.125 13.7347 157.078 13.8093 157.003 13.884C156.947 13.94 156.854 13.968 156.723 13.968ZM151.963 25.308C151.441 25.308 151.058 25.2053 150.815 25C150.591 24.7947 150.479 24.4867 150.479 24.076C150.479 23.684 150.601 23.152 150.843 22.48C151.086 21.7893 151.394 21.052 151.767 20.268C152.159 19.484 152.57 18.7373 152.999 18.028C153.429 17.3187 153.839 16.74 154.231 16.292C154.642 15.8253 154.969 15.592 155.211 15.592C155.547 15.592 155.715 15.7413 155.715 16.04C155.715 16.2267 155.557 16.5813 155.239 17.104C154.922 17.6267 154.577 18.168 154.203 18.728C154.054 18.9333 153.849 19.2133 153.587 19.568C153.326 19.9227 153.074 20.2587 152.831 20.576C152.589 20.8747 152.43 21.08 152.355 21.192C152.169 21.472 151.973 21.9293 151.767 22.564C151.543 23.1987 151.431 23.684 151.431 24.02C151.431 24.1693 151.459 24.2813 151.515 24.356C151.59 24.4307 151.749 24.468 151.991 24.468C152.458 24.468 152.981 24.3187 153.559 24.02C154.138 23.7213 154.726 23.348 155.323 22.9C155.921 22.4333 156.481 21.9573 157.003 21.472C157.545 20.9867 158.002 20.5667 158.375 20.212C158.45 20.1373 158.562 20.1 158.711 20.1C158.991 20.1 159.131 20.212 159.131 20.436C159.131 20.6413 159.001 20.8747 158.739 21.136C158.235 21.64 157.769 22.088 157.339 22.48C156.91 22.872 156.499 23.2173 156.107 23.516C155.491 23.964 154.81 24.3747 154.063 24.748C153.317 25.1213 152.617 25.308 151.963 25.308ZM160.339 25.504C159.555 25.504 158.939 25.2333 158.491 24.692C158.043 24.1507 157.819 23.488 157.819 22.704C157.819 21.36 158.267 19.9787 159.163 18.56C159.406 18.168 159.686 17.7853 160.003 17.412C160.321 17.02 160.666 16.6467 161.039 16.292C161.599 15.7507 162.187 15.3027 162.803 14.948C163.419 14.5933 164.017 14.416 164.595 14.416C165.547 14.416 166.023 14.864 166.023 15.76C166.023 16.88 165.37 17.8973 164.063 18.812C162.85 19.6333 161.655 20.044 160.479 20.044C160.274 20.044 160.087 20.0347 159.919 20.016C159.77 19.9787 159.63 19.9413 159.499 19.904C159.313 20.2587 159.145 20.716 158.995 21.276C158.846 21.836 158.771 22.3213 158.771 22.732C158.771 23.964 159.313 24.58 160.395 24.58C161.273 24.58 162.103 24.4307 162.887 24.132C163.671 23.8147 164.605 23.2267 165.687 22.368C166.359 21.8453 166.863 21.4253 167.199 21.108C167.535 20.7907 167.899 20.4547 168.291 20.1C168.403 20.0253 168.506 19.988 168.599 19.988C168.693 19.988 168.786 20.016 168.879 20.072C168.973 20.128 169.019 20.212 169.019 20.324C169.019 20.5293 168.833 20.8187 168.459 21.192C168.142 21.4907 167.806 21.808 167.451 22.144C167.097 22.4613 166.537 22.9093 165.771 23.488C164.95 24.1227 164.054 24.6173 163.083 24.972C162.113 25.3267 161.198 25.504 160.339 25.504ZM160.311 19.148C160.909 19.148 161.478 19.0547 162.019 18.868C162.561 18.6813 163.074 18.4107 163.559 18.056C164.642 17.2533 165.183 16.4973 165.183 15.788C165.183 15.4707 164.987 15.312 164.595 15.312C163.849 15.312 162.981 15.7693 161.991 16.684C161.506 17.132 161.105 17.5427 160.787 17.916C160.489 18.2707 160.209 18.6627 159.947 19.092C160.059 19.1293 160.181 19.148 160.311 19.148ZM177.295 25.56C176.828 25.56 176.464 25.3733 176.203 25C175.942 24.6267 175.811 24.16 175.811 23.6C175.811 23.4507 175.82 23.2267 175.839 22.928C175.858 22.6107 175.876 22.284 175.895 21.948C175.932 21.5933 175.96 21.2853 175.979 21.024C175.998 20.744 176.016 20.576 176.035 20.52L176.007 20.408C175.839 20.6507 175.606 20.968 175.307 21.36C175.027 21.752 174.728 22.1533 174.411 22.564C174.112 22.956 173.842 23.3013 173.599 23.6C173.207 24.0667 172.778 24.4307 172.311 24.692C171.844 24.9533 171.415 25.084 171.023 25.084C170.556 25.084 170.164 24.8507 169.847 24.384C169.53 23.8987 169.371 23.208 169.371 22.312C169.371 21.4533 169.511 20.492 169.791 19.428L168.923 20.436C168.792 20.5667 168.68 20.6787 168.587 20.772C168.494 20.8467 168.4 20.884 168.307 20.884C168.214 20.884 168.12 20.8467 168.027 20.772C167.952 20.6787 167.915 20.5667 167.915 20.436C167.915 20.3053 167.962 20.1933 168.055 20.1C168.242 19.8947 168.456 19.6333 168.699 19.316C168.96 18.98 169.259 18.5973 169.595 18.168C169.875 17.776 170.342 17.048 170.995 15.984C171.107 15.7973 171.256 15.704 171.443 15.704C171.76 15.704 171.919 15.8533 171.919 16.152C171.919 16.2453 171.872 16.376 171.779 16.544C171.686 16.6933 171.555 16.9827 171.387 17.412C171.051 18.2893 170.79 19.1573 170.603 20.016C170.416 20.856 170.323 21.6867 170.323 22.508C170.323 23.2173 170.37 23.684 170.463 23.908C170.556 24.1133 170.696 24.216 170.883 24.216C171.48 24.216 172.199 23.768 173.039 22.872C173.282 22.6107 173.646 22.172 174.131 21.556C174.616 20.9213 175.12 20.184 175.643 19.344C176.166 18.4853 176.576 17.608 176.875 16.712L177.295 15.48C177.351 15.312 177.472 15.228 177.659 15.228C177.995 15.228 178.163 15.3867 178.163 15.704C178.163 15.816 178.06 16.1147 177.855 16.6C177.65 17.0667 177.444 17.804 177.239 18.812C177.108 19.4467 176.987 20.1187 176.875 20.828C176.782 21.5373 176.735 22.2187 176.735 22.872C176.735 24.1227 176.94 24.748 177.351 24.748C177.687 24.748 178.116 24.5707 178.639 24.216C179.162 23.8613 179.712 23.4133 180.291 22.872C180.87 22.3307 181.392 21.7707 181.859 21.192C182.288 20.688 182.727 20.1093 183.175 19.456C183.623 18.8027 183.996 18.1493 184.295 17.496C184.612 16.824 184.771 16.2453 184.771 15.76C184.771 15.2747 184.64 14.9573 184.379 14.808C184.342 14.7893 184.09 14.752 183.623 14.696C183.362 14.6587 183.231 14.5093 183.231 14.248C183.231 13.9493 183.38 13.8 183.679 13.8C184.276 13.8 184.752 13.968 185.107 14.304C185.48 14.64 185.667 15.0973 185.667 15.676C185.667 17.244 184.622 19.2693 182.531 21.752C180.403 24.2907 178.658 25.56 177.295 25.56ZM4.48 59.504C3.696 59.504 3.08 59.2333 2.632 58.692C2.184 58.1507 1.96 57.488 1.96 56.704C1.96 55.36 2.408 53.9787 3.304 52.56C3.54667 52.168 3.82667 51.7853 4.144 51.412C4.46133 51.02 4.80667 50.6467 5.18 50.292C5.74 49.7507 6.328 49.3027 6.944 48.948C7.56 48.5933 8.15733 48.416 8.736 48.416C9.688 48.416 10.164 48.864 10.164 49.76C10.164 50.88 9.51067 51.8973 8.204 52.812C6.99067 53.6333 5.796 54.044 4.62 54.044C4.41467 54.044 4.228 54.0347 4.06 54.016C3.91067 53.9787 3.77067 53.9413 3.64 53.904C3.45333 54.2587 3.28533 54.716 3.136 55.276C2.98667 55.836 2.912 56.3213 2.912 56.732C2.912 57.964 3.45333 58.58 4.536 58.58C5.41333 58.58 6.244 58.4307 7.028 58.132C7.812 57.8147 8.74533 57.2267 9.828 56.368C10.5 55.8453 11.004 55.4253 11.34 55.108C11.676 54.7907 12.04 54.4547 12.432 54.1C12.544 54.0253 12.6467 53.988 12.74 53.988C12.8333 53.988 12.9267 54.016 13.02 54.072C13.1133 54.128 13.16 54.212 13.16 54.324C13.16 54.5293 12.9733 54.8187 12.6 55.192C12.2827 55.4907 11.9467 55.808 11.592 56.144C11.2373 56.4613 10.6773 56.9093 9.912 57.488C9.09067 58.1227 8.19467 58.6173 7.224 58.972C6.25333 59.3267 5.33867 59.504 4.48 59.504ZM4.452 53.148C5.04933 53.148 5.61867 53.0547 6.16 52.868C6.70133 52.6813 7.21467 52.4107 7.7 52.056C8.78267 51.2533 9.324 50.4973 9.324 49.788C9.324 49.4707 9.128 49.312 8.736 49.312C7.98933 49.312 7.12133 49.7693 6.132 50.684C5.64667 51.132 5.24533 51.5427 4.928 51.916C4.62933 52.2707 4.34933 52.6627 4.088 53.092C4.2 53.1293 4.32133 53.148 4.452 53.148ZM13.1478 59.28C12.9238 59.28 12.8118 59.196 12.8118 59.028C12.5131 58.5053 12.3638 57.432 12.3638 55.808C12.3638 55.416 12.3918 54.8933 12.4478 54.24C12.5038 53.5867 12.5784 52.9053 12.6718 52.196C12.7651 51.4867 12.8678 50.8427 12.9798 50.264C13.0918 49.6667 13.2131 49.2373 13.3438 48.976C13.4558 48.752 13.5958 48.64 13.7638 48.64C14.0624 48.64 14.2118 48.7613 14.2118 49.004C14.2118 49.1347 14.1931 49.2653 14.1558 49.396C14.1184 49.508 14.0811 49.648 14.0438 49.816C13.8011 50.7493 13.6051 51.7387 13.4558 52.784C13.3251 53.8293 13.2598 54.9027 13.2598 56.004C13.2598 56.508 13.2784 56.956 13.3158 57.348C13.3718 57.74 13.4278 58.076 13.4838 58.356C14.0064 58.1507 14.5851 57.7493 15.2198 57.152C15.8544 56.536 16.4704 55.8547 17.0678 55.108C17.5531 54.492 17.9918 53.8667 18.3838 53.232C18.7944 52.5973 19.1118 52 19.3358 51.44C19.5784 50.88 19.6998 50.4227 19.6998 50.068C19.6998 49.8253 19.6718 49.6573 19.6158 49.564C19.5784 49.4707 19.5318 49.396 19.4758 49.34C19.4198 49.284 19.3918 49.1813 19.3918 49.032C19.3918 48.752 19.5318 48.612 19.8118 48.612C19.9984 48.612 20.1664 48.752 20.3158 49.032C20.4651 49.312 20.5398 49.6667 20.5398 50.096C20.5398 51.4213 19.6158 53.2787 17.7678 55.668C15.8638 58.076 14.3238 59.28 13.1478 59.28ZM23.3745 59.504C22.5905 59.504 21.9745 59.2333 21.5265 58.692C21.0785 58.1507 20.8545 57.488 20.8545 56.704C20.8545 55.36 21.3025 53.9787 22.1985 52.56C22.4412 52.168 22.7212 51.7853 23.0385 51.412C23.3559 51.02 23.7012 50.6467 24.0745 50.292C24.6345 49.7507 25.2225 49.3027 25.8385 48.948C26.4545 48.5933 27.0519 48.416 27.6305 48.416C28.5825 48.416 29.0585 48.864 29.0585 49.76C29.0585 50.88 28.4052 51.8973 27.0985 52.812C25.8852 53.6333 24.6905 54.044 23.5145 54.044C23.3092 54.044 23.1225 54.0347 22.9545 54.016C22.8052 53.9787 22.6652 53.9413 22.5345 53.904C22.3479 54.2587 22.1799 54.716 22.0305 55.276C21.8812 55.836 21.8065 56.3213 21.8065 56.732C21.8065 57.964 22.3479 58.58 23.4305 58.58C24.3079 58.58 25.1385 58.4307 25.9225 58.132C26.7065 57.8147 27.6399 57.2267 28.7225 56.368C29.3945 55.8453 29.8985 55.4253 30.2345 55.108C30.5705 54.7907 30.9345 54.4547 31.3265 54.1C31.4385 54.0253 31.5412 53.988 31.6345 53.988C31.7279 53.988 31.8212 54.016 31.9145 54.072C32.0079 54.128 32.0545 54.212 32.0545 54.324C32.0545 54.5293 31.8679 54.8187 31.4945 55.192C31.1772 55.4907 30.8412 55.808 30.4865 56.144C30.1319 56.4613 29.5719 56.9093 28.8065 57.488C27.9852 58.1227 27.0892 58.6173 26.1185 58.972C25.1479 59.3267 24.2332 59.504 23.3745 59.504ZM23.3465 53.148C23.9439 53.148 24.5132 53.0547 25.0545 52.868C25.5959 52.6813 26.1092 52.4107 26.5945 52.056C27.6772 51.2533 28.2185 50.4973 28.2185 49.788C28.2185 49.4707 28.0225 49.312 27.6305 49.312C26.8839 49.312 26.0159 49.7693 25.0265 50.684C24.5412 51.132 24.1399 51.5427 23.8225 51.916C23.5239 52.2707 23.2439 52.6627 22.9825 53.092C23.0945 53.1293 23.2159 53.148 23.3465 53.148ZM29.4383 59.7C29.1396 59.7 28.9903 59.5787 28.9903 59.336C28.9903 59.2427 29.0276 59.1307 29.1023 59C29.1769 58.8507 29.2423 58.7293 29.2983 58.636L31.8183 53.568C32.9009 51.3653 33.4423 50.1427 33.4423 49.9C33.4423 49.6387 33.5729 49.508 33.8343 49.508C34.1889 49.508 34.3663 49.6947 34.3663 50.068C34.3663 50.1987 34.2823 50.4787 34.1143 50.908C33.9463 51.3373 33.7316 51.8227 33.4703 52.364C33.0223 53.3347 32.6489 54.0813 32.3503 54.604C32.9103 53.9507 33.4796 53.3347 34.0583 52.756C34.6369 52.1773 35.2249 51.6267 35.8223 51.104C37.5956 49.5547 38.9583 48.78 39.9103 48.78C40.5636 48.78 40.8903 49.088 40.8903 49.704C40.8903 50.264 40.4143 51.524 39.4623 53.484C38.5103 55.4627 38.0343 56.7133 38.0343 57.236C38.0343 57.4787 38.1183 57.6 38.2863 57.6C38.3423 57.6 38.4263 57.5813 38.5383 57.544C38.6689 57.488 38.7996 57.46 38.9303 57.46C39.2476 57.46 39.4063 57.6093 39.4063 57.908C39.4063 58.2813 39.0049 58.468 38.2023 58.468C37.8289 58.468 37.5583 58.384 37.3903 58.216C37.2223 58.0293 37.1383 57.7867 37.1383 57.488C37.1383 56.592 37.5956 55.2293 38.5103 53.4C39.4249 51.5893 39.8823 50.4973 39.8823 50.124C39.8823 49.9 39.7983 49.788 39.6303 49.788C39.2196 49.788 38.5569 50.1333 37.6423 50.824C36.6529 51.5707 35.6636 52.4293 34.6743 53.4C33.6849 54.3707 32.7423 55.4813 31.8463 56.732L29.8863 59.448C29.7743 59.616 29.6249 59.7 29.4383 59.7ZM41.5752 60.932C41.2205 60.932 41.0432 60.652 41.0432 60.092C41.0432 59.2707 41.5005 57.8333 42.4152 55.78C43.3485 53.7267 44.7299 51.0387 46.5592 47.716C45.8499 47.716 45.1779 47.8093 44.5432 47.996C43.9272 48.164 43.6005 48.3787 43.5632 48.64C43.5445 48.7147 43.4979 48.7893 43.4232 48.864C43.3672 48.92 43.2739 48.948 43.1432 48.948C42.8445 48.948 42.6952 48.7987 42.6952 48.5C42.6952 48.0147 43.0779 47.6133 43.8432 47.296C44.6085 46.9787 45.6819 46.82 47.0632 46.82L48.9952 43.628C49.1259 43.4227 49.2659 43.1987 49.4152 42.956C49.5645 42.6947 49.7325 42.4147 49.9192 42.116C50.1059 41.8547 50.3205 41.724 50.5632 41.724C50.7125 41.724 50.8245 41.7707 50.8992 41.864C50.9739 41.9387 51.0112 42.0227 51.0112 42.116C51.0112 42.396 50.6005 43.1427 49.7792 44.356C48.7525 45.868 48.2019 46.6893 48.1272 46.82C48.4072 46.82 48.8272 46.848 49.3872 46.904C49.9472 46.9413 50.6099 47.0067 51.3752 47.1C51.6552 47.1187 51.7952 47.2587 51.7952 47.52C51.7952 47.8187 51.6272 47.968 51.2912 47.968C51.1605 47.968 50.8992 47.9493 50.5072 47.912C50.1152 47.856 49.6952 47.8093 49.2472 47.772C48.7992 47.7347 48.4165 47.7253 48.0992 47.744L47.6792 47.772C43.8899 54.436 42.0045 58.58 42.0232 60.204L42.0512 60.428V60.484C42.0512 60.7827 41.8925 60.932 41.5752 60.932ZM56.4347 68.212C55.6507 68.212 55.0627 67.9133 54.6707 67.316C54.2787 66.7373 54.0827 66.0747 54.0827 65.328C54.0827 64.768 54.1107 64.2173 54.1667 63.676C54.204 63.1533 54.2693 62.6307 54.3627 62.108C54.4187 61.8093 54.5493 61.66 54.7547 61.66C55.128 61.66 55.3147 61.856 55.3147 62.248C55.3147 62.36 55.2867 62.528 55.2307 62.752C55.1747 62.9387 55.1467 63.0787 55.1467 63.172C55.1093 63.4707 55.0813 63.7787 55.0627 64.096C55.044 64.432 55.0347 64.768 55.0347 65.104C55.0347 66.5787 55.576 67.316 56.6587 67.316C56.976 67.316 57.34 67.1013 57.7507 66.672C58.18 66.2427 58.5627 65.776 58.8987 65.272C59.6827 64.096 60.5133 62.2387 61.3907 59.7L62.3147 57.04C60.8027 58.8507 59.44 59.756 58.2267 59.756C57.48 59.756 56.9013 59.476 56.4907 58.916C56.08 58.356 55.8747 57.6747 55.8747 56.872C55.8747 55.2667 56.584 53.4933 58.0027 51.552C59.552 49.48 61.0733 48.444 62.5667 48.444C63.7427 48.444 64.5173 49.1347 64.8907 50.516C65.6 48.7987 66.2533 47.94 66.8507 47.94C67.0747 47.94 67.1867 48.1267 67.1867 48.5C67.1867 49.2467 66.8413 50.2453 66.1507 51.496C66.0013 51.7387 65.8147 52.0373 65.5907 52.392C65.3853 52.7467 65.152 53.1667 64.8907 53.652L63.9387 55.976C63.752 56.424 63.5187 56.9933 63.2387 57.684C62.9587 58.356 62.6413 59.1493 62.2867 60.064C61.876 61.184 61.4933 62.1453 61.1387 62.948C60.8027 63.7693 60.4947 64.4413 60.2147 64.964C59.0013 67.1293 57.7787 68.212 56.5467 68.212H56.4347ZM58.2267 58.776C59.4027 58.776 61.1387 57.1987 63.4347 54.044L64.2467 51.972C64.116 51.8787 64.0227 51.6827 63.9667 51.384C63.7987 50.5813 63.6027 50.0493 63.3787 49.788C63.1547 49.5267 62.856 49.396 62.4827 49.396C62.0533 49.396 61.5587 49.592 60.9987 49.984C60.4387 50.376 59.9067 50.8613 59.4027 51.44C58.8987 52 58.4973 52.5507 58.1987 53.092C57.3027 54.6227 56.8547 55.9387 56.8547 57.04C56.8547 58.1973 57.312 58.776 58.2267 58.776ZM68.0988 59.28C67.0162 59.28 66.4748 58.7667 66.4748 57.74C66.4748 57.068 66.6335 56.3493 66.9508 55.584C67.2868 54.8 67.7348 54.044 68.2948 53.316C68.8548 52.5693 69.4802 51.8973 70.1708 51.3C70.8615 50.684 71.5708 50.1987 72.2988 49.844C73.0268 49.4707 73.7268 49.284 74.3988 49.284C75.5935 49.284 76.1908 49.872 76.1908 51.048C76.1908 51.8133 76.0042 52.196 75.6308 52.196C75.2948 52.196 75.1268 52.0373 75.1268 51.72C75.1268 51.5893 75.1548 51.4587 75.2108 51.328C75.2855 51.1787 75.3228 51.02 75.3228 50.852C75.3228 50.3293 74.9682 50.068 74.2588 50.068C73.1202 50.068 71.6922 50.936 69.9748 52.672C69.5642 53.1013 69.1628 53.6053 68.7708 54.184C68.3788 54.7627 68.0522 55.3507 67.7908 55.948C67.5482 56.5267 67.4268 57.0773 67.4268 57.6C67.4268 58.104 67.7068 58.356 68.2668 58.356C68.7522 58.356 69.2655 58.2067 69.8068 57.908C70.3668 57.6093 70.8522 57.3013 71.2628 56.984C72.0842 56.368 72.9242 55.528 73.7828 54.464C73.9135 54.3147 74.0815 54.1187 74.2868 53.876C74.4922 53.6333 74.7255 53.3627 74.9868 53.064C75.0802 52.9707 75.1922 52.924 75.3228 52.924C75.6215 52.924 75.7708 53.0733 75.7708 53.372L74.7068 54.968C73.9975 56.0133 73.6428 56.872 73.6428 57.544C73.6428 58.0293 73.8762 58.272 74.3428 58.272C74.7348 58.272 75.1642 58.1693 75.6308 57.964C76.0975 57.7587 76.4802 57.5533 76.7788 57.348C77.3762 56.956 78.0015 56.4707 78.6548 55.892C79.3082 55.2947 79.9335 54.6973 80.5308 54.1C80.6055 54.0253 80.7175 53.988 80.8668 53.988C81.1468 53.988 81.2868 54.1 81.2868 54.324C81.2868 54.5293 81.1562 54.7627 80.8948 55.024C80.1482 55.7707 79.4762 56.4147 78.8788 56.956C78.2815 57.4787 77.7122 57.908 77.1708 58.244C76.8162 58.4493 76.3775 58.664 75.8548 58.888C75.3322 59.112 74.7348 59.224 74.0628 59.224C73.1482 59.224 72.6908 58.7387 72.6908 57.768C72.6908 57.3947 72.7375 57.0867 72.8308 56.844C71.1322 58.468 69.5548 59.28 68.0988 59.28ZM82.6617 59.756C81.803 59.756 81.1404 59.4947 80.6737 58.972C80.2257 58.4307 80.0017 57.7213 80.0017 56.844C80.0017 56.2093 80.1137 55.444 80.3377 54.548C80.7297 53.036 81.3924 51.2813 82.3257 49.284C83.0537 47.772 83.8377 46.288 84.6777 44.832C85.5177 43.3573 86.4417 41.9107 87.4497 40.492C89.055 38.2147 90.175 37.076 90.8097 37.076C91.2204 37.076 91.4257 37.188 91.4257 37.412C91.4257 37.7293 90.903 38.5227 89.8577 39.792L87.8977 42.172C86.199 44.2253 84.8084 46.3253 83.7257 48.472C82.6617 50.6187 81.831 52.7653 81.2337 54.912C81.0657 55.528 80.9817 56.1067 80.9817 56.648C80.9817 58.0667 81.5604 58.776 82.7177 58.776C83.1284 58.776 83.5484 58.6547 83.9777 58.412C84.407 58.188 84.6404 58.076 84.6777 58.076C84.9017 58.076 85.0137 58.2347 85.0137 58.552C85.0137 58.832 84.911 59.0467 84.7057 59.196C84.071 59.5693 83.3897 59.756 82.6617 59.756ZM89.7437 59.756C88.8851 59.756 88.2224 59.4947 87.7557 58.972C87.3077 58.4307 87.0837 57.7213 87.0837 56.844C87.0837 56.2093 87.1957 55.444 87.4197 54.548C87.8117 53.036 88.4744 51.2813 89.4077 49.284C90.1357 47.772 90.9197 46.288 91.7597 44.832C92.5997 43.3573 93.5237 41.9107 94.5317 40.492C96.1371 38.2147 97.2571 37.076 97.8917 37.076C98.3024 37.076 98.5077 37.188 98.5077 37.412C98.5077 37.7293 97.9851 38.5227 96.9397 39.792L94.9797 42.172C93.2811 44.2253 91.8904 46.3253 90.8077 48.472C89.7437 50.6187 88.9131 52.7653 88.3157 54.912C88.1477 55.528 88.0637 56.1067 88.0637 56.648C88.0637 58.0667 88.6424 58.776 89.7997 58.776C90.2104 58.776 90.6304 58.6547 91.0597 58.412C91.4891 58.188 91.7224 58.076 91.7597 58.076C91.9837 58.076 92.0957 58.2347 92.0957 58.552C92.0957 58.832 91.9931 59.0467 91.7877 59.196C91.1531 59.5693 90.4717 59.756 89.7437 59.756ZM96.3003 59.504C95.5163 59.504 94.9003 59.2333 94.4523 58.692C94.0043 58.1507 93.7803 57.488 93.7803 56.704C93.7803 55.36 94.2283 53.9787 95.1243 52.56C95.367 52.168 95.647 51.7853 95.9643 51.412C96.2816 51.02 96.627 50.6467 97.0003 50.292C97.5603 49.7507 98.1483 49.3027 98.7643 48.948C99.3803 48.5933 99.9776 48.416 100.556 48.416C101.508 48.416 101.984 48.864 101.984 49.76C101.984 50.88 101.331 51.8973 100.024 52.812C98.811 53.6333 97.6163 54.044 96.4403 54.044C96.235 54.044 96.0483 54.0347 95.8803 54.016C95.731 53.9787 95.591 53.9413 95.4603 53.904C95.2736 54.2587 95.1056 54.716 94.9563 55.276C94.807 55.836 94.7323 56.3213 94.7323 56.732C94.7323 57.964 95.2736 58.58 96.3563 58.58C97.2336 58.58 98.0643 58.4307 98.8483 58.132C99.6323 57.8147 100.566 57.2267 101.648 56.368C102.32 55.8453 102.824 55.4253 103.16 55.108C103.496 54.7907 103.86 54.4547 104.252 54.1C104.364 54.0253 104.467 53.988 104.56 53.988C104.654 53.988 104.747 54.016 104.84 54.072C104.934 54.128 104.98 54.212 104.98 54.324C104.98 54.5293 104.794 54.8187 104.42 55.192C104.103 55.4907 103.767 55.808 103.412 56.144C103.058 56.4613 102.498 56.9093 101.732 57.488C100.911 58.1227 100.015 58.6173 99.0443 58.972C98.0736 59.3267 97.159 59.504 96.3003 59.504ZM96.2723 53.148C96.8696 53.148 97.439 53.0547 97.9803 52.868C98.5216 52.6813 99.035 52.4107 99.5203 52.056C100.603 51.2533 101.144 50.4973 101.144 49.788C101.144 49.4707 100.948 49.312 100.556 49.312C99.8096 49.312 98.9416 49.7693 97.9523 50.684C97.467 51.132 97.0656 51.5427 96.7483 51.916C96.4496 52.2707 96.1696 52.6627 95.9083 53.092C96.0203 53.1293 96.1416 53.148 96.2723 53.148ZM102.364 59.7C102.065 59.7 101.916 59.5787 101.916 59.336C101.916 59.224 101.944 59.112 102 59C102.075 58.888 102.131 58.7947 102.168 58.72L104.716 53.568C105.799 51.3653 106.34 50.1427 106.34 49.9C106.34 49.6387 106.471 49.508 106.732 49.508C107.087 49.508 107.264 49.6853 107.264 50.04C107.264 50.2267 107.18 50.5253 107.012 50.936C106.844 51.3467 106.629 51.8227 106.368 52.364C105.92 53.3347 105.547 54.0813 105.248 54.604C105.808 53.9507 106.377 53.3347 106.956 52.756C107.535 52.1773 108.123 51.6267 108.72 51.104C110.493 49.5547 111.856 48.78 112.808 48.78C113.461 48.78 113.788 49.088 113.788 49.704C113.788 50.3013 113.592 50.6 113.2 50.6C113.013 50.6 112.873 50.4413 112.78 50.124C112.724 49.9 112.593 49.788 112.388 49.788C112.071 49.788 111.455 50.1333 110.54 50.824C109.532 51.5707 108.515 52.4573 107.488 53.484C106.48 54.5107 105.407 55.8173 104.268 57.404L102.868 59.364C102.793 59.4573 102.719 59.532 102.644 59.588C102.588 59.6627 102.495 59.7 102.364 59.7ZM118.36 47.968C118.043 47.968 117.884 47.8093 117.884 47.492C117.884 47.3987 117.949 47.2307 118.08 46.988C118.211 46.7267 118.36 46.4653 118.528 46.204C118.696 45.9427 118.827 45.7653 118.92 45.672C119.237 45.3173 119.48 45.0933 119.648 45C119.835 44.9067 120.003 44.86 120.152 44.86C120.544 44.86 120.74 45.0373 120.74 45.392C120.74 45.5227 120.656 45.6813 120.488 45.868C120.339 46.036 120.161 46.1947 119.956 46.344C119.657 46.5307 119.471 46.68 119.396 46.792L118.78 47.66C118.761 47.7347 118.715 47.8093 118.64 47.884C118.584 47.94 118.491 47.968 118.36 47.968ZM113.6 59.308C113.077 59.308 112.695 59.2053 112.452 59C112.228 58.7947 112.116 58.4867 112.116 58.076C112.116 57.684 112.237 57.152 112.48 56.48C112.723 55.7893 113.031 55.052 113.404 54.268C113.796 53.484 114.207 52.7373 114.636 52.028C115.065 51.3187 115.476 50.74 115.868 50.292C116.279 49.8253 116.605 49.592 116.848 49.592C117.184 49.592 117.352 49.7413 117.352 50.04C117.352 50.2267 117.193 50.5813 116.876 51.104C116.559 51.6267 116.213 52.168 115.84 52.728C115.691 52.9333 115.485 53.2133 115.224 53.568C114.963 53.9227 114.711 54.2587 114.468 54.576C114.225 54.8747 114.067 55.08 113.992 55.192C113.805 55.472 113.609 55.9293 113.404 56.564C113.18 57.1987 113.068 57.684 113.068 58.02C113.068 58.1693 113.096 58.2813 113.152 58.356C113.227 58.4307 113.385 58.468 113.628 58.468C114.095 58.468 114.617 58.3187 115.196 58.02C115.775 57.7213 116.363 57.348 116.96 56.9C117.557 56.4333 118.117 55.9573 118.64 55.472C119.181 54.9867 119.639 54.5667 120.012 54.212C120.087 54.1373 120.199 54.1 120.348 54.1C120.628 54.1 120.768 54.212 120.768 54.436C120.768 54.6413 120.637 54.8747 120.376 55.136C119.872 55.64 119.405 56.088 118.976 56.48C118.547 56.872 118.136 57.2173 117.744 57.516C117.128 57.964 116.447 58.3747 115.7 58.748C114.953 59.1213 114.253 59.308 113.6 59.308ZM121.976 59.504C121.192 59.504 120.576 59.2333 120.128 58.692C119.68 58.1507 119.456 57.488 119.456 56.704C119.456 55.36 119.904 53.9787 120.8 52.56C121.043 52.168 121.323 51.7853 121.64 51.412C121.957 51.02 122.303 50.6467 122.676 50.292C123.236 49.7507 123.824 49.3027 124.44 48.948C125.056 48.5933 125.653 48.416 126.232 48.416C127.184 48.416 127.66 48.864 127.66 49.76C127.66 50.88 127.007 51.8973 125.7 52.812C124.487 53.6333 123.292 54.044 122.116 54.044C121.911 54.044 121.724 54.0347 121.556 54.016C121.407 53.9787 121.267 53.9413 121.136 53.904C120.949 54.2587 120.781 54.716 120.632 55.276C120.483 55.836 120.408 56.3213 120.408 56.732C120.408 57.964 120.949 58.58 122.032 58.58C122.909 58.58 123.74 58.4307 124.524 58.132C125.308 57.8147 126.241 57.2267 127.324 56.368C127.996 55.8453 128.5 55.4253 128.836 55.108C129.172 54.7907 129.536 54.4547 129.928 54.1C130.04 54.0253 130.143 53.988 130.236 53.988C130.329 53.988 130.423 54.016 130.516 54.072C130.609 54.128 130.656 54.212 130.656 54.324C130.656 54.5293 130.469 54.8187 130.096 55.192C129.779 55.4907 129.443 55.808 129.088 56.144C128.733 56.4613 128.173 56.9093 127.408 57.488C126.587 58.1227 125.691 58.6173 124.72 58.972C123.749 59.3267 122.835 59.504 121.976 59.504ZM121.948 53.148C122.545 53.148 123.115 53.0547 123.656 52.868C124.197 52.6813 124.711 52.4107 125.196 52.056C126.279 51.2533 126.82 50.4973 126.82 49.788C126.82 49.4707 126.624 49.312 126.232 49.312C125.485 49.312 124.617 49.7693 123.628 50.684C123.143 51.132 122.741 51.5427 122.424 51.916C122.125 52.2707 121.845 52.6627 121.584 53.092C121.696 53.1293 121.817 53.148 121.948 53.148ZM129.58 59.924C128.535 59.924 128.012 59.5787 128.012 58.888C128.012 58.4587 128.161 58.0293 128.46 57.6C128.777 57.1707 129.151 56.7787 129.58 56.424C130.009 56.0693 130.411 55.7987 130.784 55.612C130.896 55.556 131.045 55.5 131.232 55.444C131.437 55.388 131.605 55.36 131.736 55.36C131.885 55.36 131.96 55.416 131.96 55.528C131.96 55.6213 131.857 55.724 131.652 55.836C130.793 56.2467 130.121 56.7413 129.636 57.32C129.169 57.88 128.936 58.3373 128.936 58.692C128.936 59.028 129.225 59.196 129.804 59.196C130.289 59.196 130.812 59.0747 131.372 58.832C131.951 58.5893 132.492 58.272 132.996 57.88C133.519 57.488 133.948 57.068 134.284 56.62C134.62 56.172 134.788 55.7427 134.788 55.332C134.788 55.052 134.695 54.8 134.508 54.576C134.34 54.352 134.06 54.184 133.668 54.072L131.82 53.512C131.353 53.3627 131.017 53.1667 130.812 52.924C130.607 52.6813 130.504 52.4107 130.504 52.112C130.504 51.552 130.709 51.048 131.12 50.6C131.549 50.152 132.081 49.7973 132.716 49.536C133.351 49.2747 133.967 49.144 134.564 49.144C135.161 49.144 135.684 49.2933 136.132 49.592C136.58 49.872 136.804 50.2547 136.804 50.74C136.804 51.02 136.72 51.2813 136.552 51.524C136.403 51.7667 136.225 51.888 136.02 51.888C135.703 51.888 135.544 51.7573 135.544 51.496C135.544 51.4027 135.591 51.2907 135.684 51.16C135.796 51.0107 135.852 50.8707 135.852 50.74C135.852 50.18 135.423 49.9 134.564 49.9C134.097 49.9 133.631 50.0027 133.164 50.208C132.716 50.3947 132.343 50.6467 132.044 50.964C131.745 51.2813 131.596 51.6267 131.596 52C131.596 52.3733 131.969 52.672 132.716 52.896L134.508 53.456C135.049 53.624 135.423 53.8573 135.628 54.156C135.833 54.436 135.936 54.7533 135.936 55.108C135.936 55.948 135.423 56.816 134.396 57.712C132.735 59.1867 131.129 59.924 129.58 59.924Z" fill="#FF6265"/>
<path d="M242.517 83.088C242.232 83.4271 241.769 83.495 241.484 83.2397L236.833 79.0785C236.547 78.8231 236.547 78.3412 236.833 78.0021C237.118 77.6629 237.581 77.595 237.866 77.8503L242 81.5492L246.135 76.6365C246.42 76.2974 246.883 76.2294 247.168 76.4848C247.454 76.7401 247.454 77.2221 247.168 77.5612L242.517 83.088ZM153.499 51.1256L153.457 50.3719C168.09 47.3445 190.325 48.3591 208.902 53.5682C218.195 56.1739 226.621 59.8421 232.737 64.6187C238.847 69.3914 242.731 75.3383 242.731 82.5183L242 82.6256L241.27 82.7329C241.27 76.1629 237.716 70.5474 231.764 65.8981C225.817 61.2529 217.555 57.6398 208.348 55.058C189.925 49.8921 167.909 48.9068 153.542 51.8793L153.499 51.1256Z" fill="#FF6265"/>
</svg>
