<svg width="324" height="169" viewBox="0 0 324 169" fill="none" xmlns="http://www.w3.org/2000/svg">
<path d="M2.74 25.924C1.69467 25.924 1.172 25.5787 1.172 24.888C1.172 24.4587 1.32133 24.0293 1.62 23.6C1.93733 23.1707 2.31067 22.7787 2.74 22.424C3.16933 22.0693 3.57067 21.7987 3.944 21.612C4.056 21.556 4.20533 21.5 4.392 21.444C4.59733 21.388 4.76533 21.36 4.896 21.36C5.04533 21.36 5.12 21.416 5.12 21.528C5.12 21.6213 5.01733 21.724 4.812 21.836C3.95333 22.2467 3.28133 22.7413 2.796 23.32C2.32933 23.88 2.096 24.3373 2.096 24.692C2.096 25.028 2.38533 25.196 2.964 25.196C3.44933 25.196 3.972 25.0747 4.532 24.832C5.11067 24.5893 5.652 24.272 6.156 23.88C6.67867 23.488 7.108 23.068 7.444 22.62C7.78 22.172 7.948 21.7427 7.948 21.332C7.948 21.052 7.85467 20.8 7.668 20.576C7.5 20.352 7.22 20.184 6.828 20.072L4.98 19.512C4.51333 19.3627 4.17733 19.1667 3.972 18.924C3.76667 18.6813 3.664 18.4107 3.664 18.112C3.664 17.552 3.86933 17.048 4.28 16.6C4.70933 16.152 5.24133 15.7973 5.876 15.536C6.51067 15.2747 7.12667 15.144 7.724 15.144C8.32133 15.144 8.844 15.2933 9.292 15.592C9.74 15.872 9.964 16.2547 9.964 16.74C9.964 17.02 9.88 17.2813 9.712 17.524C9.56267 17.7667 9.38533 17.888 9.18 17.888C8.86267 17.888 8.704 17.7573 8.704 17.496C8.704 17.4027 8.75067 17.2907 8.844 17.16C8.956 17.0107 9.012 16.8707 9.012 16.74C9.012 16.18 8.58267 15.9 7.724 15.9C7.25733 15.9 6.79067 16.0027 6.324 16.208C5.876 16.3947 5.50267 16.6467 5.204 16.964C4.90533 17.2813 4.756 17.6267 4.756 18C4.756 18.3733 5.12933 18.672 5.876 18.896L7.668 19.456C8.20933 19.624 8.58267 19.8573 8.788 20.156C8.99333 20.436 9.096 20.7533 9.096 21.108C9.096 21.948 8.58267 22.816 7.556 23.712C5.89467 25.1867 4.28933 25.924 2.74 25.924ZM10.876 26.932C10.5213 26.932 10.344 26.652 10.344 26.092C10.344 25.2707 10.8013 23.8333 11.716 21.78C12.6493 19.7267 14.0306 17.0387 15.86 13.716C15.1506 13.716 14.4786 13.8093 13.844 13.996C13.228 14.164 12.9013 14.3787 12.864 14.64C12.8453 14.7147 12.7986 14.7893 12.724 14.864C12.668 14.92 12.5746 14.948 12.444 14.948C12.1453 14.948 11.996 14.7987 11.996 14.5C11.996 14.0147 12.3786 13.6133 13.144 13.296C13.9093 12.9787 14.9826 12.82 16.364 12.82L18.296 9.628C18.4266 9.42267 18.5666 9.19867 18.716 8.956C18.8653 8.69467 19.0333 8.41467 19.22 8.116C19.4066 7.85467 19.6213 7.724 19.864 7.724C20.0133 7.724 20.1253 7.77067 20.2 7.864C20.2746 7.93867 20.312 8.02267 20.312 8.116C20.312 8.396 19.9013 9.14267 19.08 10.356C18.0533 11.868 17.5026 12.6893 17.428 12.82C17.708 12.82 18.128 12.848 18.688 12.904C19.248 12.9413 19.9106 13.0067 20.676 13.1C20.956 13.1187 21.096 13.2587 21.096 13.52C21.096 13.8187 20.928 13.968 20.592 13.968C20.4613 13.968 20.2 13.9493 19.808 13.912C19.416 13.856 18.996 13.8093 18.548 13.772C18.1 13.7347 17.7173 13.7253 17.4 13.744L16.98 13.772C13.1906 20.436 11.3053 24.58 11.324 26.204L11.352 26.428V26.484C11.352 26.7827 11.1933 26.932 10.876 26.932ZM18.4504 25.28C17.3677 25.28 16.8264 24.7667 16.8264 23.74C16.8264 23.068 16.9851 22.3493 17.3024 21.584C17.6384 20.8 18.0864 20.044 18.6464 19.316C19.2064 18.5693 19.8317 17.8973 20.5224 17.3C21.2131 16.684 21.9224 16.1987 22.6504 15.844C23.3784 15.4707 24.0784 15.284 24.7504 15.284C25.9451 15.284 26.5424 15.872 26.5424 17.048C26.5424 17.8133 26.3557 18.196 25.9824 18.196C25.6464 18.196 25.4784 18.0373 25.4784 17.72C25.4784 17.5893 25.5064 17.4587 25.5624 17.328C25.6371 17.1787 25.6744 17.02 25.6744 16.852C25.6744 16.3293 25.3197 16.068 24.6104 16.068C23.4717 16.068 22.0437 16.936 20.3264 18.672C19.9157 19.1013 19.5144 19.6053 19.1224 20.184C18.7304 20.7627 18.4037 21.3507 18.1424 21.948C17.8997 22.5267 17.7784 23.0773 17.7784 23.6C17.7784 24.104 18.0584 24.356 18.6184 24.356C19.1037 24.356 19.6171 24.2067 20.1584 23.908C20.7184 23.6093 21.2037 23.3013 21.6144 22.984C22.4357 22.368 23.2757 21.528 24.1344 20.464C24.2651 20.3147 24.4331 20.1187 24.6384 19.876C24.8437 19.6333 25.0771 19.3627 25.3384 19.064C25.4317 18.9707 25.5437 18.924 25.6744 18.924C25.9731 18.924 26.1224 19.0733 26.1224 19.372L25.0584 20.968C24.3491 22.0133 23.9944 22.872 23.9944 23.544C23.9944 24.0293 24.2277 24.272 24.6944 24.272C25.0864 24.272 25.5157 24.1693 25.9824 23.964C26.4491 23.7587 26.8317 23.5533 27.1304 23.348C27.7277 22.956 28.3531 22.4707 29.0064 21.892C29.6597 21.2947 30.2851 20.6973 30.8824 20.1C30.9571 20.0253 31.0691 19.988 31.2184 19.988C31.4984 19.988 31.6384 20.1 31.6384 20.324C31.6384 20.5293 31.5077 20.7627 31.2464 21.024C30.4997 21.7707 29.8277 22.4147 29.2304 22.956C28.6331 23.4787 28.0637 23.908 27.5224 24.244C27.1677 24.4493 26.7291 24.664 26.2064 24.888C25.6837 25.112 25.0864 25.224 24.4144 25.224C23.4997 25.224 23.0424 24.7387 23.0424 23.768C23.0424 23.3947 23.0891 23.0867 23.1824 22.844C21.4837 24.468 19.9064 25.28 18.4504 25.28ZM29.5693 34.268C28.4306 34.268 27.8612 33.596 27.8612 32.252C27.8612 31.1133 28.1039 30.012 28.5893 28.948C28.6639 28.7613 28.7853 28.668 28.9533 28.668C29.2893 28.668 29.4573 28.8173 29.4573 29.116C29.4573 29.1907 29.4293 29.284 29.3733 29.396C29.3359 29.5267 29.2893 29.6667 29.2333 29.816C29.1026 30.1707 28.9999 30.544 28.9253 30.936C28.8506 31.328 28.8133 31.7387 28.8133 32.168C28.8133 32.6533 28.8786 32.98 29.0093 33.148C29.1399 33.316 29.3079 33.4 29.5133 33.4C29.9986 33.4 30.5679 33.176 31.2213 32.728C31.8933 32.28 32.5839 31.5707 33.2933 30.6C33.7973 29.9093 34.3199 29.088 34.8613 28.136C35.4026 27.184 35.9813 26.092 36.5973 24.86C37.4186 23.236 38.1746 21.584 38.8653 19.904C38.3986 20.5013 37.9133 21.08 37.4093 21.64C36.9053 22.2 36.3639 22.7227 35.7853 23.208C34.2359 24.5333 32.9479 25.196 31.9213 25.196C30.6893 25.196 30.0733 24.4867 30.0733 23.068C30.0733 22.564 30.1666 21.9573 30.3533 21.248C30.5586 20.5387 30.8386 19.7267 31.1933 18.812C31.2493 18.6627 31.2773 18.5413 31.2773 18.448C31.2773 18.336 31.3053 18.224 31.3613 18.112C31.6599 17.4587 32.1546 16.7307 32.8453 15.928C32.9946 15.76 33.1253 15.676 33.2373 15.676C33.5173 15.676 33.6573 15.8813 33.6573 16.292C31.8466 18.9613 30.9413 21.22 30.9413 23.068C30.9413 23.852 31.2493 24.244 31.8653 24.244C32.5559 24.244 33.5173 23.768 34.7493 22.816C35.6266 22.144 36.4386 21.388 37.1853 20.548C37.9319 19.6893 38.6039 18.8027 39.2013 17.888C39.6119 17.272 39.9386 16.7307 40.1813 16.264C40.4426 15.7787 40.6013 15.452 40.6573 15.284C40.7506 15.004 40.8813 14.864 41.0493 14.864C41.4039 14.864 41.5813 15.0133 41.5813 15.312C41.5813 15.4613 41.5066 15.732 41.3573 16.124C41.2266 16.4973 41.0586 16.9453 40.8533 17.468C40.5546 18.2333 40.1253 19.26 39.5653 20.548C39.0053 21.836 38.3053 23.3667 37.4653 25.14C36.4199 27.3427 35.3933 29.144 34.3853 30.544C33.6386 31.608 32.8173 32.4947 31.9213 33.204C31.0439 33.9133 30.2599 34.268 29.5693 34.268ZM49.7041 26.932C49.3494 26.932 49.1721 26.652 49.1721 26.092C49.1721 25.2707 49.6294 23.8333 50.5441 21.78C51.4774 19.7267 52.8588 17.0387 54.6881 13.716C53.9788 13.716 53.3068 13.8093 52.6721 13.996C52.0561 14.164 51.7294 14.3787 51.6921 14.64C51.6734 14.7147 51.6268 14.7893 51.5521 14.864C51.4961 14.92 51.4028 14.948 51.2721 14.948C50.9734 14.948 50.8241 14.7987 50.8241 14.5C50.8241 14.0147 51.2068 13.6133 51.9721 13.296C52.7374 12.9787 53.8108 12.82 55.1921 12.82L57.1241 9.628C57.2548 9.42267 57.3948 9.19867 57.5441 8.956C57.6934 8.69467 57.8614 8.41467 58.0481 8.116C58.2348 7.85467 58.4494 7.724 58.6921 7.724C58.8414 7.724 58.9534 7.77067 59.0281 7.864C59.1028 7.93867 59.1401 8.02267 59.1401 8.116C59.1401 8.396 58.7294 9.14267 57.9081 10.356C56.8814 11.868 56.3308 12.6893 56.2561 12.82C56.5361 12.82 56.9561 12.848 57.5161 12.904C58.0761 12.9413 58.7388 13.0067 59.5041 13.1C59.7841 13.1187 59.9241 13.2587 59.9241 13.52C59.9241 13.8187 59.7561 13.968 59.4201 13.968C59.2894 13.968 59.0281 13.9493 58.6361 13.912C58.2441 13.856 57.8241 13.8093 57.3761 13.772C56.9281 13.7347 56.5454 13.7253 56.2281 13.744L55.8081 13.772C52.0188 20.436 50.1334 24.58 50.1521 26.204L50.1801 26.428V26.484C50.1801 26.7827 50.0214 26.932 49.7041 26.932ZM63.8865 25.952C62.9719 25.952 62.5145 25.2893 62.5145 23.964C62.5145 23.2547 62.6825 22.396 63.0185 21.388C60.7599 24.02 58.9865 25.336 57.6985 25.336C56.6345 25.336 56.1025 24.692 56.1025 23.404C56.1025 22.9187 56.1772 22.34 56.3265 21.668C56.4945 20.9773 56.7092 20.268 56.9705 19.54C57.2505 18.812 57.5492 18.1307 57.8665 17.496C58.1839 16.8613 58.5012 16.348 58.8185 15.956C58.9305 15.8253 59.0705 15.76 59.2385 15.76C59.3319 15.76 59.4252 15.7973 59.5185 15.872C59.6119 15.928 59.6585 16.0213 59.6585 16.152C59.6585 16.264 59.5932 16.4227 59.4625 16.628C58.6225 18.0093 58.0252 19.2133 57.6705 20.24C57.2225 21.416 56.9985 22.4333 56.9985 23.292C56.9985 24.0947 57.2039 24.496 57.6145 24.496C57.8759 24.496 58.2212 24.3653 58.6505 24.104C59.0799 23.8427 59.5185 23.5253 59.9665 23.152C60.4332 22.76 60.8345 22.396 61.1705 22.06C62.1039 21.0707 62.9439 20.016 63.6905 18.896C64.0265 18.3733 64.3252 17.8693 64.5865 17.384C64.8665 16.88 65.1185 16.3573 65.3425 15.816C65.4359 15.6107 65.5105 15.4613 65.5665 15.368C65.6412 15.256 65.7439 15.2 65.8745 15.2C66.2665 15.2 66.4625 15.3493 66.4625 15.648C66.4625 15.8347 66.3972 15.9653 66.2665 16.04C64.3625 19.904 63.4105 22.564 63.4105 24.02C63.4105 24.412 63.4479 24.692 63.5225 24.86C63.5972 25.0093 63.7279 25.084 63.9145 25.084C64.1759 25.084 64.5772 24.916 65.1185 24.58C65.6785 24.244 66.3319 23.7307 67.0785 23.04L70.0185 20.352C70.1679 20.2027 70.3079 20.128 70.4385 20.128C70.7372 20.128 70.8865 20.268 70.8865 20.548C70.8865 20.7907 70.2985 21.444 69.1225 22.508C68.6185 22.9747 68.1705 23.3667 67.7785 23.684C67.3865 24.0013 67.0225 24.2813 66.6865 24.524C66.0519 24.972 65.4919 25.3173 65.0065 25.56C64.5212 25.8213 64.1479 25.952 63.8865 25.952ZM68.2195 25.7C67.9209 25.7 67.7715 25.5787 67.7715 25.336C67.7715 25.2427 67.8089 25.1307 67.8835 25C67.9582 24.8507 68.0235 24.7293 68.0795 24.636L70.5995 19.568C71.6822 17.3653 72.2235 16.1427 72.2235 15.9C72.2235 15.6387 72.3542 15.508 72.6155 15.508C72.9702 15.508 73.1475 15.6947 73.1475 16.068C73.1475 16.1987 73.0635 16.4787 72.8955 16.908C72.7275 17.3373 72.5129 17.8227 72.2515 18.364C71.8035 19.3347 71.4302 20.0813 71.1315 20.604C71.6915 19.9507 72.2609 19.3347 72.8395 18.756C73.4182 18.1773 74.0062 17.6267 74.6035 17.104C76.3769 15.5547 77.7395 14.78 78.6915 14.78C79.3449 14.78 79.6715 15.088 79.6715 15.704C79.6715 16.264 79.1955 17.524 78.2435 19.484C77.2915 21.4627 76.8155 22.7133 76.8155 23.236C76.8155 23.4787 76.8995 23.6 77.0675 23.6C77.1235 23.6 77.2075 23.5813 77.3195 23.544C77.4502 23.488 77.5809 23.46 77.7115 23.46C78.0289 23.46 78.1875 23.6093 78.1875 23.908C78.1875 24.2813 77.7862 24.468 76.9835 24.468C76.6102 24.468 76.3395 24.384 76.1715 24.216C76.0035 24.0293 75.9195 23.7867 75.9195 23.488C75.9195 22.592 76.3769 21.2293 77.2915 19.4C78.2062 17.5893 78.6635 16.4973 78.6635 16.124C78.6635 15.9 78.5795 15.788 78.4115 15.788C78.0009 15.788 77.3382 16.1333 76.4235 16.824C75.4342 17.5707 74.4449 18.4293 73.4555 19.4C72.4662 20.3707 71.5235 21.4813 70.6275 22.732L68.6675 25.448C68.5555 25.616 68.4062 25.7 68.2195 25.7ZM83.1284 25.504C82.3444 25.504 81.7284 25.2333 81.2804 24.692C80.8324 24.1507 80.6084 23.488 80.6084 22.704C80.6084 21.36 81.0564 19.9787 81.9524 18.56C82.1951 18.168 82.4751 17.7853 82.7924 17.412C83.1098 17.02 83.4551 16.6467 83.8284 16.292C84.3884 15.7507 84.9764 15.3027 85.5924 14.948C86.2084 14.5933 86.8058 14.416 87.3844 14.416C88.3364 14.416 88.8124 14.864 88.8124 15.76C88.8124 16.88 88.1591 17.8973 86.8524 18.812C85.6391 19.6333 84.4444 20.044 83.2684 20.044C83.0631 20.044 82.8764 20.0347 82.7084 20.016C82.5591 19.9787 82.4191 19.9413 82.2884 19.904C82.1018 20.2587 81.9338 20.716 81.7844 21.276C81.6351 21.836 81.5604 22.3213 81.5604 22.732C81.5604 23.964 82.1018 24.58 83.1844 24.58C84.0618 24.58 84.8924 24.4307 85.6764 24.132C86.4604 23.8147 87.3938 23.2267 88.4764 22.368C89.1484 21.8453 89.6524 21.4253 89.9884 21.108C90.3244 20.7907 90.6884 20.4547 91.0804 20.1C91.1924 20.0253 91.2951 19.988 91.3884 19.988C91.4818 19.988 91.5751 20.016 91.6684 20.072C91.7618 20.128 91.8084 20.212 91.8084 20.324C91.8084 20.5293 91.6218 20.8187 91.2484 21.192C90.9311 21.4907 90.5951 21.808 90.2404 22.144C89.8858 22.4613 89.3258 22.9093 88.5604 23.488C87.7391 24.1227 86.8431 24.6173 85.8724 24.972C84.9018 25.3267 83.9871 25.504 83.1284 25.504ZM83.1004 19.148C83.6978 19.148 84.2671 19.0547 84.8084 18.868C85.3498 18.6813 85.8631 18.4107 86.3484 18.056C87.4311 17.2533 87.9724 16.4973 87.9724 15.788C87.9724 15.4707 87.7764 15.312 87.3844 15.312C86.6378 15.312 85.7698 15.7693 84.7804 16.684C84.2951 17.132 83.8938 17.5427 83.5764 17.916C83.2778 18.2707 82.9978 18.6627 82.7364 19.092C82.8484 19.1293 82.9698 19.148 83.1004 19.148ZM99.2162 27.492C99.0669 27.492 98.8802 27.4173 98.6562 27.268C98.4509 27.1373 98.2922 27.0067 98.1802 26.876C97.9562 26.596 97.8069 26.26 97.7322 25.868C97.6575 25.476 97.6202 25.0467 97.6202 24.58C97.6202 24.188 97.6295 23.768 97.6482 23.32C97.6855 22.8533 97.7415 22.3587 97.8162 21.836C97.3309 22.396 96.7802 22.9467 96.1642 23.488C95.5669 24.0107 94.9509 24.44 94.3162 24.776C93.7002 25.112 93.1122 25.28 92.5522 25.28C91.1522 25.28 90.4522 24.5333 90.4522 23.04C90.4522 21.4907 90.9935 19.9973 92.0762 18.56C92.6175 17.8507 93.2335 17.1693 93.9242 16.516C94.6149 15.8627 95.3429 15.3307 96.1082 14.92C96.8735 14.5093 97.6295 14.304 98.3762 14.304C98.9362 14.304 99.4309 14.5187 99.8602 14.948C99.8975 14.8733 99.9442 14.752 100 14.584C100.075 14.416 100.178 14.2013 100.308 13.94C100.756 12.9693 101.251 11.9613 101.792 10.916C102.334 9.852 102.819 8.97467 103.248 8.284C103.734 7.51867 104.191 7.136 104.62 7.136C104.919 7.136 105.068 7.36933 105.068 7.836C105.068 8.63867 104.312 10.5147 102.8 13.464C102.707 13.632 102.539 13.94 102.296 14.388C102.072 14.8173 101.802 15.3213 101.484 15.9C101.186 16.46 100.878 17.02 100.56 17.58C100.243 18.14 99.9535 18.644 99.6922 19.092C99.4495 19.5213 99.2722 19.82 99.1602 19.988C98.9549 20.828 98.7962 21.6307 98.6842 22.396C98.5722 23.1427 98.5162 23.9173 98.5162 24.72C98.5162 25.0187 98.5255 25.2893 98.5442 25.532C98.5815 25.7933 98.6562 25.9987 98.7682 26.148C98.8615 26.26 98.9642 26.344 99.0762 26.4C99.1882 26.4747 99.3189 26.54 99.4682 26.596C99.6922 26.652 99.8042 26.7827 99.8042 26.988C99.8042 27.324 99.6082 27.492 99.2162 27.492ZM100.532 15.788C101.242 14.5747 101.867 13.4453 102.408 12.4C102.95 11.336 103.388 10.3373 103.724 9.404C102.978 10.3747 102.352 11.4013 101.848 12.484C101.344 13.5667 100.906 14.668 100.532 15.788ZM92.3562 24.44C92.8975 24.44 93.4669 24.2627 94.0642 23.908C94.6802 23.5347 95.2589 23.096 95.8002 22.592C96.2855 22.144 96.7335 21.6867 97.1442 21.22C97.5549 20.7347 97.9375 20.24 98.2922 19.736C98.4415 19.0827 98.6095 18.4387 98.7962 17.804C99.0015 17.1693 99.2255 16.5347 99.4682 15.9C99.1695 15.4333 98.7495 15.2 98.2082 15.2C97.6482 15.2 97.0229 15.4147 96.3322 15.844C95.6602 16.2547 95.0069 16.768 94.3722 17.384C93.7562 18 93.2242 18.588 92.7762 19.148C91.8429 20.3987 91.3762 21.724 91.3762 23.124C91.3762 24.0013 91.7029 24.44 92.3562 24.44ZM108.068 34.24C107.471 34.24 107.051 34.0347 106.808 33.624C106.547 33.232 106.416 32.7 106.416 32.028C106.416 30.4973 107.135 28.136 108.572 24.944C108.498 24.8693 108.46 24.776 108.46 24.664C108.46 24.4773 108.628 24.2907 108.964 24.104C109.954 22.1067 110.868 20.3427 111.708 18.812C112.567 17.2627 113.342 15.9467 114.032 14.864C116.347 11.3173 118.428 8.86267 120.276 7.5C120.519 7.31333 120.752 7.164 120.976 7.052C121.2 6.94 121.424 6.884 121.648 6.884C121.947 6.884 122.096 7.00533 122.096 7.248C122.096 7.37867 122.04 7.51867 121.928 7.668C121.835 7.79867 121.667 8.01333 121.424 8.312C121.144 8.62933 120.818 9.00267 120.444 9.432C120.071 9.84267 119.679 10.272 119.268 10.72C118.876 11.168 118.512 11.5787 118.176 11.952C117.84 12.3067 117.57 12.5867 117.364 12.792L114.788 15.452L113.892 16.88C113.65 17.2533 113.351 17.7667 112.996 18.42C112.66 19.0547 112.259 19.8107 111.792 20.688C111.606 21.0427 111.363 21.5 111.064 22.06C110.784 22.62 110.458 23.2827 110.084 24.048C110.234 24.0667 110.364 24.104 110.476 24.16C110.607 24.1973 110.728 24.244 110.84 24.3C113.398 23.516 115.815 22.1347 118.092 20.156C118.223 20.0627 118.335 20.016 118.428 20.016C118.746 20.016 118.904 20.156 118.904 20.436C118.904 20.5107 118.876 20.5853 118.82 20.66C118.783 20.7347 118.736 20.8093 118.68 20.884C118.4 21.1827 117.999 21.528 117.476 21.92C116.954 22.312 116.3 22.732 115.516 23.18C114.844 23.5533 114.191 23.8987 113.556 24.216C112.94 24.5147 112.343 24.7667 111.764 24.972C112.287 25.6067 112.548 26.4187 112.548 27.408C112.548 28.7707 112.147 30.1893 111.344 31.664C110.411 33.3813 109.319 34.24 108.068 34.24ZM107.9 33.4C108.442 33.4 108.955 33.176 109.44 32.728C109.944 32.28 110.374 31.7013 110.728 30.992C110.99 30.488 111.204 29.8813 111.372 29.172C111.559 28.4813 111.652 27.8747 111.652 27.352C111.652 26.3067 111.335 25.6067 110.7 25.252C110.458 25.2893 110.234 25.3173 110.028 25.336C109.823 25.3733 109.627 25.3827 109.44 25.364V25.392C107.872 28.8827 107.088 31.272 107.088 32.56C107.088 32.84 107.163 33.0453 107.312 33.176C107.462 33.3253 107.658 33.4 107.9 33.4ZM121.397 24.86C119.885 24.86 119.129 24.0107 119.129 22.312C119.129 21.528 119.316 20.7067 119.689 19.848C120.063 18.9893 120.557 18.196 121.173 17.468C121.789 16.7213 122.471 16.1147 123.217 15.648C123.983 15.1813 124.757 14.948 125.541 14.948C126.232 14.948 126.736 15.2093 127.053 15.732C127.371 16.2547 127.529 16.8333 127.529 17.468C127.529 18.308 127.361 19.1667 127.025 20.044C126.689 20.9027 126.232 21.696 125.653 22.424C125.075 23.152 124.421 23.74 123.693 24.188C122.965 24.636 122.2 24.86 121.397 24.86ZM121.369 23.964C121.481 23.964 121.547 23.9547 121.565 23.936C122.293 23.8427 122.965 23.5813 123.581 23.152C124.197 22.7227 124.729 22.1907 125.177 21.556C125.644 20.9027 125.999 20.2027 126.241 19.456C126.484 18.7093 126.605 17.972 126.605 17.244C126.605 16.8147 126.484 16.4787 126.241 16.236C125.999 15.9933 125.691 15.872 125.317 15.872C124.776 15.872 124.197 16.096 123.581 16.544C122.984 16.992 122.415 17.5613 121.873 18.252C121.351 18.9427 120.921 19.6707 120.585 20.436C120.249 21.1827 120.081 21.8547 120.081 22.452C120.081 23.46 120.511 23.964 121.369 23.964ZM127.473 25.7C127.175 25.7 127.025 25.5787 127.025 25.336C127.025 25.224 127.053 25.112 127.109 25C127.184 24.888 127.24 24.7947 127.277 24.72L129.825 19.568C130.908 17.3653 131.449 16.1427 131.449 15.9C131.449 15.6387 131.58 15.508 131.841 15.508C132.196 15.508 132.373 15.6853 132.373 16.04C132.373 16.2267 132.289 16.5253 132.121 16.936C131.953 17.3467 131.739 17.8227 131.477 18.364C131.029 19.3347 130.656 20.0813 130.357 20.604C130.917 19.9507 131.487 19.3347 132.065 18.756C132.644 18.1773 133.232 17.6267 133.829 17.104C135.603 15.5547 136.965 14.78 137.917 14.78C138.571 14.78 138.897 15.088 138.897 15.704C138.897 16.3013 138.701 16.6 138.309 16.6C138.123 16.6 137.983 16.4413 137.889 16.124C137.833 15.9 137.703 15.788 137.497 15.788C137.18 15.788 136.564 16.1333 135.649 16.824C134.641 17.5707 133.624 18.4573 132.597 19.484C131.589 20.5107 130.516 21.8173 129.377 23.404L127.977 25.364C127.903 25.4573 127.828 25.532 127.753 25.588C127.697 25.6627 127.604 25.7 127.473 25.7Z" fill="#FF6265"/>
<path d="M48.948 58.86C47.436 58.86 46.68 58.0107 46.68 56.312C46.68 55.528 46.8667 54.7067 47.24 53.848C47.6133 52.9893 48.108 52.196 48.724 51.468C49.34 50.7213 50.0213 50.1147 50.768 49.648C51.5333 49.1813 52.308 48.948 53.092 48.948C53.7827 48.948 54.2867 49.2093 54.604 49.732C54.9213 50.2547 55.08 50.8333 55.08 51.468C55.08 52.308 54.912 53.1667 54.576 54.044C54.24 54.9027 53.7827 55.696 53.204 56.424C52.6253 57.152 51.972 57.74 51.244 58.188C50.516 58.636 49.7507 58.86 48.948 58.86ZM48.92 57.964C49.032 57.964 49.0973 57.9547 49.116 57.936C49.844 57.8427 50.516 57.5813 51.132 57.152C51.748 56.7227 52.28 56.1907 52.728 55.556C53.1947 54.9027 53.5493 54.2027 53.792 53.456C54.0347 52.7093 54.156 51.972 54.156 51.244C54.156 50.8147 54.0347 50.4787 53.792 50.236C53.5493 49.9933 53.2413 49.872 52.868 49.872C52.3267 49.872 51.748 50.096 51.132 50.544C50.5347 50.992 49.9653 51.5613 49.424 52.252C48.9013 52.9427 48.472 53.6707 48.136 54.436C47.8 55.1827 47.632 55.8547 47.632 56.452C47.632 57.46 48.0613 57.964 48.92 57.964ZM63.8162 59.952C62.9016 59.952 62.4442 59.2893 62.4442 57.964C62.4442 57.2547 62.6122 56.396 62.9482 55.388C60.6896 58.02 58.9162 59.336 57.6282 59.336C56.5642 59.336 56.0322 58.692 56.0322 57.404C56.0322 56.9187 56.1069 56.34 56.2562 55.668C56.4242 54.9773 56.6389 54.268 56.9002 53.54C57.1802 52.812 57.4789 52.1307 57.7962 51.496C58.1136 50.8613 58.4309 50.348 58.7482 49.956C58.8602 49.8253 59.0002 49.76 59.1682 49.76C59.2616 49.76 59.3549 49.7973 59.4482 49.872C59.5416 49.928 59.5882 50.0213 59.5882 50.152C59.5882 50.264 59.5229 50.4227 59.3922 50.628C58.5522 52.0093 57.9549 53.2133 57.6002 54.24C57.1522 55.416 56.9282 56.4333 56.9282 57.292C56.9282 58.0947 57.1336 58.496 57.5442 58.496C57.8056 58.496 58.1509 58.3653 58.5802 58.104C59.0096 57.8427 59.4482 57.5253 59.8962 57.152C60.3629 56.76 60.7642 56.396 61.1002 56.06C62.0336 55.0707 62.8736 54.016 63.6202 52.896C63.9562 52.3733 64.2549 51.8693 64.5162 51.384C64.7962 50.88 65.0482 50.3573 65.2722 49.816C65.3656 49.6107 65.4402 49.4613 65.4962 49.368C65.5709 49.256 65.6736 49.2 65.8042 49.2C66.1962 49.2 66.3922 49.3493 66.3922 49.648C66.3922 49.8347 66.3269 49.9653 66.1962 50.04C64.2922 53.904 63.3402 56.564 63.3402 58.02C63.3402 58.412 63.3776 58.692 63.4522 58.86C63.5269 59.0093 63.6576 59.084 63.8442 59.084C64.1056 59.084 64.5069 58.916 65.0482 58.58C65.6082 58.244 66.2616 57.7307 67.0082 57.04L69.9482 54.352C70.0976 54.2027 70.2376 54.128 70.3682 54.128C70.6669 54.128 70.8162 54.268 70.8162 54.548C70.8162 54.7907 70.2282 55.444 69.0522 56.508C68.5482 56.9747 68.1002 57.3667 67.7082 57.684C67.3162 58.0013 66.9522 58.2813 66.6162 58.524C65.9816 58.972 65.4216 59.3173 64.9362 59.56C64.4509 59.8213 64.0776 59.952 63.8162 59.952ZM68.1492 59.7C67.8506 59.7 67.7012 59.5787 67.7012 59.336C67.7012 59.224 67.7292 59.112 67.7852 59C67.8599 58.888 67.9159 58.7947 67.9532 58.72L70.5012 53.568C71.5839 51.3653 72.1252 50.1427 72.1252 49.9C72.1252 49.6387 72.2559 49.508 72.5172 49.508C72.8719 49.508 73.0492 49.6853 73.0492 50.04C73.0492 50.2267 72.9652 50.5253 72.7972 50.936C72.6292 51.3467 72.4146 51.8227 72.1532 52.364C71.7052 53.3347 71.3319 54.0813 71.0332 54.604C71.5932 53.9507 72.1626 53.3347 72.7412 52.756C73.3199 52.1773 73.9079 51.6267 74.5052 51.104C76.2786 49.5547 77.6412 48.78 78.5932 48.78C79.2466 48.78 79.5732 49.088 79.5732 49.704C79.5732 50.3013 79.3772 50.6 78.9852 50.6C78.7986 50.6 78.6586 50.4413 78.5652 50.124C78.5092 49.9 78.3786 49.788 78.1732 49.788C77.8559 49.788 77.2399 50.1333 76.3252 50.824C75.3172 51.5707 74.2999 52.4573 73.2732 53.484C72.2652 54.5107 71.1919 55.8173 70.0532 57.404L68.6532 59.364C68.5786 59.4573 68.5039 59.532 68.4292 59.588C68.3732 59.6627 68.2799 59.7 68.1492 59.7ZM85.1023 59.7C84.8037 59.7 84.6543 59.5787 84.6543 59.336C84.6543 59.2427 84.6917 59.1307 84.7663 59C84.841 58.8507 84.9063 58.7293 84.9623 58.636L87.4823 53.568C88.565 51.3653 89.1063 50.1427 89.1063 49.9C89.1063 49.6387 89.237 49.508 89.4983 49.508C89.853 49.508 90.0303 49.6947 90.0303 50.068C90.0303 50.1987 89.9463 50.4787 89.7783 50.908C89.6103 51.3373 89.3957 51.8227 89.1343 52.364C88.6863 53.3347 88.313 54.0813 88.0143 54.604C88.5743 53.9507 89.1437 53.3347 89.7223 52.756C90.301 52.1773 90.889 51.6267 91.4863 51.104C93.2597 49.5547 94.6223 48.78 95.5743 48.78C96.2277 48.78 96.5543 49.088 96.5543 49.704C96.5543 50.264 96.0783 51.524 95.1263 53.484C94.1743 55.4627 93.6983 56.7133 93.6983 57.236C93.6983 57.4787 93.7823 57.6 93.9503 57.6C94.0063 57.6 94.0903 57.5813 94.2023 57.544C94.333 57.488 94.4637 57.46 94.5943 57.46C94.9117 57.46 95.0703 57.6093 95.0703 57.908C95.0703 58.2813 94.669 58.468 93.8663 58.468C93.493 58.468 93.2223 58.384 93.0543 58.216C92.8863 58.0293 92.8023 57.7867 92.8023 57.488C92.8023 56.592 93.2597 55.2293 94.1743 53.4C95.089 51.5893 95.5463 50.4973 95.5463 50.124C95.5463 49.9 95.4623 49.788 95.2943 49.788C94.8837 49.788 94.221 50.1333 93.3063 50.824C92.317 51.5707 91.3277 52.4293 90.3383 53.4C89.349 54.3707 88.4063 55.4813 87.5103 56.732L85.5503 59.448C85.4383 59.616 85.289 59.7 85.1023 59.7ZM100.011 59.504C99.2273 59.504 98.6113 59.2333 98.1633 58.692C97.7153 58.1507 97.4913 57.488 97.4913 56.704C97.4913 55.36 97.9393 53.9787 98.8353 52.56C99.0779 52.168 99.3579 51.7853 99.6753 51.412C99.9926 51.02 100.338 50.6467 100.711 50.292C101.271 49.7507 101.859 49.3027 102.475 48.948C103.091 48.5933 103.689 48.416 104.267 48.416C105.219 48.416 105.695 48.864 105.695 49.76C105.695 50.88 105.042 51.8973 103.735 52.812C102.522 53.6333 101.327 54.044 100.151 54.044C99.9459 54.044 99.7593 54.0347 99.5913 54.016C99.4419 53.9787 99.3019 53.9413 99.1713 53.904C98.9846 54.2587 98.8166 54.716 98.6673 55.276C98.5179 55.836 98.4433 56.3213 98.4433 56.732C98.4433 57.964 98.9846 58.58 100.067 58.58C100.945 58.58 101.775 58.4307 102.559 58.132C103.343 57.8147 104.277 57.2267 105.359 56.368C106.031 55.8453 106.535 55.4253 106.871 55.108C107.207 54.7907 107.571 54.4547 107.963 54.1C108.075 54.0253 108.178 53.988 108.271 53.988C108.365 53.988 108.458 54.016 108.551 54.072C108.645 54.128 108.691 54.212 108.691 54.324C108.691 54.5293 108.505 54.8187 108.131 55.192C107.814 55.4907 107.478 55.808 107.123 56.144C106.769 56.4613 106.209 56.9093 105.443 57.488C104.622 58.1227 103.726 58.6173 102.755 58.972C101.785 59.3267 100.87 59.504 100.011 59.504ZM99.9833 53.148C100.581 53.148 101.15 53.0547 101.691 52.868C102.233 52.6813 102.746 52.4107 103.231 52.056C104.314 51.2533 104.855 50.4973 104.855 49.788C104.855 49.4707 104.659 49.312 104.267 49.312C103.521 49.312 102.653 49.7693 101.663 50.684C101.178 51.132 100.777 51.5427 100.459 51.916C100.161 52.2707 99.8806 52.6627 99.6193 53.092C99.7313 53.1293 99.8526 53.148 99.9833 53.148ZM105.319 59.7C105.002 59.7 104.843 59.5507 104.843 59.252C104.843 59.1027 105.067 58.7853 105.515 58.3C105.982 57.796 106.691 57.1427 107.643 56.34L111.003 53.484C110.872 52.98 110.751 52.532 110.639 52.14C110.546 51.748 110.452 51.4213 110.359 51.16C110.004 50.0773 109.687 49.396 109.407 49.116C109.295 49.004 109.239 48.8827 109.239 48.752C109.239 48.472 109.379 48.332 109.659 48.332C110.088 48.332 110.536 48.9853 111.003 50.292C111.152 50.7213 111.292 51.1507 111.423 51.58C111.554 52.0093 111.684 52.4387 111.815 52.868C113.85 51.188 115.175 50.0307 115.791 49.396C115.94 49.2467 116.043 49.1347 116.099 49.06C116.155 48.9853 116.192 48.92 116.211 48.864C116.304 48.6587 116.463 48.556 116.687 48.556C116.986 48.556 117.135 48.696 117.135 48.976C117.135 49.536 115.455 51.132 112.095 53.764C112.319 54.548 112.552 55.2853 112.795 55.976C113.038 56.6667 113.318 57.236 113.635 57.684C113.971 58.1133 114.344 58.328 114.755 58.328C115.147 58.328 115.558 58.2253 115.987 58.02C116.435 57.8147 116.883 57.5627 117.331 57.264C117.779 56.9467 118.18 56.648 118.535 56.368C119.207 55.8453 119.711 55.4253 120.047 55.108C120.383 54.7907 120.747 54.4547 121.139 54.1C121.251 54.0253 121.354 53.988 121.447 53.988C121.54 53.988 121.634 54.016 121.727 54.072C121.82 54.128 121.867 54.212 121.867 54.324C121.867 54.5293 121.68 54.8187 121.307 55.192C120.99 55.4907 120.654 55.808 120.299 56.144C119.944 56.4613 119.384 56.9093 118.619 57.488C118.283 57.7493 117.882 58.0107 117.415 58.272C116.967 58.5333 116.51 58.748 116.043 58.916C115.595 59.084 115.184 59.168 114.811 59.168C114.176 59.168 113.635 58.944 113.187 58.496C112.758 58.0293 112.394 57.432 112.095 56.704C111.796 55.976 111.526 55.2107 111.283 54.408L108.399 56.872C107.82 57.3573 107.307 57.824 106.859 58.272C106.411 58.72 106.019 59.14 105.683 59.532C105.608 59.644 105.487 59.7 105.319 59.7ZM120.208 60.932C119.853 60.932 119.676 60.652 119.676 60.092C119.676 59.2707 120.133 57.8333 121.048 55.78C121.981 53.7267 123.363 51.0387 125.192 47.716C124.483 47.716 123.811 47.8093 123.176 47.996C122.56 48.164 122.233 48.3787 122.196 48.64C122.177 48.7147 122.131 48.7893 122.056 48.864C122 48.92 121.907 48.948 121.776 48.948C121.477 48.948 121.328 48.7987 121.328 48.5C121.328 48.0147 121.711 47.6133 122.476 47.296C123.241 46.9787 124.315 46.82 125.696 46.82L127.628 43.628C127.759 43.4227 127.899 43.1987 128.048 42.956C128.197 42.6947 128.365 42.4147 128.552 42.116C128.739 41.8547 128.953 41.724 129.196 41.724C129.345 41.724 129.457 41.7707 129.532 41.864C129.607 41.9387 129.644 42.0227 129.644 42.116C129.644 42.396 129.233 43.1427 128.412 44.356C127.385 45.868 126.835 46.6893 126.76 46.82C127.04 46.82 127.46 46.848 128.02 46.904C128.58 46.9413 129.243 47.0067 130.008 47.1C130.288 47.1187 130.428 47.2587 130.428 47.52C130.428 47.8187 130.26 47.968 129.924 47.968C129.793 47.968 129.532 47.9493 129.14 47.912C128.748 47.856 128.328 47.8093 127.88 47.772C127.432 47.7347 127.049 47.7253 126.732 47.744L126.312 47.772C122.523 54.436 120.637 58.58 120.656 60.204L120.684 60.428V60.484C120.684 60.7827 120.525 60.932 120.208 60.932ZM142.347 59.952C141.433 59.952 140.975 59.2893 140.975 57.964C140.975 57.2547 141.143 56.396 141.479 55.388C139.221 58.02 137.447 59.336 136.159 59.336C135.095 59.336 134.563 58.692 134.563 57.404C134.563 56.9187 134.638 56.34 134.787 55.668C134.955 54.9773 135.17 54.268 135.431 53.54C135.711 52.812 136.01 52.1307 136.327 51.496C136.645 50.8613 136.962 50.348 137.279 49.956C137.391 49.8253 137.531 49.76 137.699 49.76C137.793 49.76 137.886 49.7973 137.979 49.872C138.073 49.928 138.119 50.0213 138.119 50.152C138.119 50.264 138.054 50.4227 137.923 50.628C137.083 52.0093 136.486 53.2133 136.131 54.24C135.683 55.416 135.459 56.4333 135.459 57.292C135.459 58.0947 135.665 58.496 136.075 58.496C136.337 58.496 136.682 58.3653 137.111 58.104C137.541 57.8427 137.979 57.5253 138.427 57.152C138.894 56.76 139.295 56.396 139.631 56.06C140.565 55.0707 141.405 54.016 142.151 52.896C142.487 52.3733 142.786 51.8693 143.047 51.384C143.327 50.88 143.579 50.3573 143.803 49.816C143.897 49.6107 143.971 49.4613 144.027 49.368C144.102 49.256 144.205 49.2 144.335 49.2C144.727 49.2 144.923 49.3493 144.923 49.648C144.923 49.8347 144.858 49.9653 144.727 50.04C142.823 53.904 141.871 56.564 141.871 58.02C141.871 58.412 141.909 58.692 141.983 58.86C142.058 59.0093 142.189 59.084 142.375 59.084C142.637 59.084 143.038 58.916 143.579 58.58C144.139 58.244 144.793 57.7307 145.539 57.04L148.479 54.352C148.629 54.2027 148.769 54.128 148.899 54.128C149.198 54.128 149.347 54.268 149.347 54.548C149.347 54.7907 148.759 55.444 147.583 56.508C147.079 56.9747 146.631 57.3667 146.239 57.684C145.847 58.0013 145.483 58.2813 145.147 58.524C144.513 58.972 143.953 59.3173 143.467 59.56C142.982 59.8213 142.609 59.952 142.347 59.952ZM146.68 59.7C146.382 59.7 146.232 59.5787 146.232 59.336C146.232 59.2427 146.27 59.1307 146.344 59C146.419 58.8507 146.484 58.7293 146.54 58.636L149.06 53.568C150.143 51.3653 150.684 50.1427 150.684 49.9C150.684 49.6387 150.815 49.508 151.076 49.508C151.431 49.508 151.608 49.6947 151.608 50.068C151.608 50.1987 151.524 50.4787 151.356 50.908C151.188 51.3373 150.974 51.8227 150.712 52.364C150.264 53.3347 149.891 54.0813 149.592 54.604C150.152 53.9507 150.722 53.3347 151.3 52.756C151.879 52.1773 152.467 51.6267 153.064 51.104C154.838 49.5547 156.2 48.78 157.152 48.78C157.806 48.78 158.132 49.088 158.132 49.704C158.132 50.264 157.656 51.524 156.704 53.484C155.752 55.4627 155.276 56.7133 155.276 57.236C155.276 57.4787 155.36 57.6 155.528 57.6C155.584 57.6 155.668 57.5813 155.78 57.544C155.911 57.488 156.042 57.46 156.172 57.46C156.49 57.46 156.648 57.6093 156.648 57.908C156.648 58.2813 156.247 58.468 155.444 58.468C155.071 58.468 154.8 58.384 154.632 58.216C154.464 58.0293 154.38 57.7867 154.38 57.488C154.38 56.592 154.838 55.2293 155.752 53.4C156.667 51.5893 157.124 50.4973 157.124 50.124C157.124 49.9 157.04 49.788 156.872 49.788C156.462 49.788 155.799 50.1333 154.884 50.824C153.895 51.5707 152.906 52.4293 151.916 53.4C150.927 54.3707 149.984 55.4813 149.088 56.732L147.128 59.448C147.016 59.616 146.867 59.7 146.68 59.7ZM157.025 68.24C156.428 68.24 156.008 68.0347 155.765 67.624C155.504 67.232 155.373 66.7 155.373 66.028C155.373 64.4973 156.092 62.136 157.529 58.944C157.455 58.8693 157.417 58.776 157.417 58.664C157.417 58.4773 157.585 58.2907 157.921 58.104C158.911 56.1067 159.825 54.3427 160.665 52.812C161.524 51.2627 162.299 49.9467 162.989 48.864C165.304 45.3173 167.385 42.8627 169.233 41.5C169.476 41.3133 169.709 41.164 169.933 41.052C170.157 40.94 170.381 40.884 170.605 40.884C170.904 40.884 171.053 41.0053 171.053 41.248C171.053 41.3787 170.997 41.5187 170.885 41.668C170.792 41.7987 170.624 42.0133 170.381 42.312C170.101 42.6293 169.775 43.0027 169.401 43.432C169.028 43.8427 168.636 44.272 168.225 44.72C167.833 45.168 167.469 45.5787 167.133 45.952C166.797 46.3067 166.527 46.5867 166.321 46.792L163.745 49.452L162.849 50.88C162.607 51.2533 162.308 51.7667 161.953 52.42C161.617 53.0547 161.216 53.8107 160.749 54.688C160.563 55.0427 160.32 55.5 160.021 56.06C159.741 56.62 159.415 57.2827 159.041 58.048C159.191 58.0667 159.321 58.104 159.433 58.16C159.564 58.1973 159.685 58.244 159.797 58.3C162.355 57.516 164.772 56.1347 167.049 54.156C167.18 54.0627 167.292 54.016 167.385 54.016C167.703 54.016 167.861 54.156 167.861 54.436C167.861 54.5107 167.833 54.5853 167.777 54.66C167.74 54.7347 167.693 54.8093 167.637 54.884C167.357 55.1827 166.956 55.528 166.433 55.92C165.911 56.312 165.257 56.732 164.473 57.18C163.801 57.5533 163.148 57.8987 162.513 58.216C161.897 58.5147 161.3 58.7667 160.721 58.972C161.244 59.6067 161.505 60.4187 161.505 61.408C161.505 62.7707 161.104 64.1893 160.301 65.664C159.368 67.3813 158.276 68.24 157.025 68.24ZM156.857 67.4C157.399 67.4 157.912 67.176 158.397 66.728C158.901 66.28 159.331 65.7013 159.685 64.992C159.947 64.488 160.161 63.8813 160.329 63.172C160.516 62.4813 160.609 61.8747 160.609 61.352C160.609 60.3067 160.292 59.6067 159.657 59.252C159.415 59.2893 159.191 59.3173 158.985 59.336C158.78 59.3733 158.584 59.3827 158.397 59.364V59.392C156.829 62.8827 156.045 65.272 156.045 66.56C156.045 66.84 156.12 67.0453 156.269 67.176C156.419 67.3253 156.615 67.4 156.857 67.4ZM170.354 58.86C168.842 58.86 168.086 58.0107 168.086 56.312C168.086 55.528 168.273 54.7067 168.646 53.848C169.02 52.9893 169.514 52.196 170.13 51.468C170.746 50.7213 171.428 50.1147 172.174 49.648C172.94 49.1813 173.714 48.948 174.498 48.948C175.189 48.948 175.693 49.2093 176.01 49.732C176.328 50.2547 176.486 50.8333 176.486 51.468C176.486 52.308 176.318 53.1667 175.982 54.044C175.646 54.9027 175.189 55.696 174.61 56.424C174.032 57.152 173.378 57.74 172.65 58.188C171.922 58.636 171.157 58.86 170.354 58.86ZM170.326 57.964C170.438 57.964 170.504 57.9547 170.522 57.936C171.25 57.8427 171.922 57.5813 172.538 57.152C173.154 56.7227 173.686 56.1907 174.134 55.556C174.601 54.9027 174.956 54.2027 175.198 53.456C175.441 52.7093 175.562 51.972 175.562 51.244C175.562 50.8147 175.441 50.4787 175.198 50.236C174.956 49.9933 174.648 49.872 174.274 49.872C173.733 49.872 173.154 50.096 172.538 50.544C171.941 50.992 171.372 51.5613 170.83 52.252C170.308 52.9427 169.878 53.6707 169.542 54.436C169.206 55.1827 169.038 55.8547 169.038 56.452C169.038 57.46 169.468 57.964 170.326 57.964ZM176.43 59.7C176.132 59.7 175.982 59.5787 175.982 59.336C175.982 59.224 176.01 59.112 176.066 59C176.141 58.888 176.197 58.7947 176.234 58.72L178.782 53.568C179.865 51.3653 180.406 50.1427 180.406 49.9C180.406 49.6387 180.537 49.508 180.798 49.508C181.153 49.508 181.33 49.6853 181.33 50.04C181.33 50.2267 181.246 50.5253 181.078 50.936C180.91 51.3467 180.696 51.8227 180.434 52.364C179.986 53.3347 179.613 54.0813 179.314 54.604C179.874 53.9507 180.444 53.3347 181.022 52.756C181.601 52.1773 182.189 51.6267 182.786 51.104C184.56 49.5547 185.922 48.78 186.874 48.78C187.528 48.78 187.854 49.088 187.854 49.704C187.854 50.3013 187.658 50.6 187.266 50.6C187.08 50.6 186.94 50.4413 186.846 50.124C186.79 49.9 186.66 49.788 186.454 49.788C186.137 49.788 185.521 50.1333 184.606 50.824C183.598 51.5707 182.581 52.4573 181.554 53.484C180.546 54.5107 179.473 55.8173 178.334 57.404L176.934 59.364C176.86 59.4573 176.785 59.532 176.71 59.588C176.654 59.6627 176.561 59.7 176.43 59.7ZM186.939 68.212C186.155 68.212 185.567 67.9133 185.175 67.316C184.783 66.7373 184.587 66.0747 184.587 65.328C184.587 64.768 184.615 64.2173 184.671 63.676C184.708 63.1533 184.773 62.6307 184.867 62.108C184.923 61.8093 185.053 61.66 185.259 61.66C185.632 61.66 185.819 61.856 185.819 62.248C185.819 62.36 185.791 62.528 185.735 62.752C185.679 62.9387 185.651 63.0787 185.651 63.172C185.613 63.4707 185.585 63.7787 185.567 64.096C185.548 64.432 185.539 64.768 185.539 65.104C185.539 66.5787 186.08 67.316 187.163 67.316C187.48 67.316 187.844 67.1013 188.255 66.672C188.684 66.2427 189.067 65.776 189.403 65.272C190.187 64.096 191.017 62.2387 191.895 59.7L192.819 57.04C191.307 58.8507 189.944 59.756 188.731 59.756C187.984 59.756 187.405 59.476 186.995 58.916C186.584 58.356 186.379 57.6747 186.379 56.872C186.379 55.2667 187.088 53.4933 188.507 51.552C190.056 49.48 191.577 48.444 193.071 48.444C194.247 48.444 195.021 49.1347 195.395 50.516C196.104 48.7987 196.757 47.94 197.355 47.94C197.579 47.94 197.691 48.1267 197.691 48.5C197.691 49.2467 197.345 50.2453 196.655 51.496C196.505 51.7387 196.319 52.0373 196.095 52.392C195.889 52.7467 195.656 53.1667 195.395 53.652L194.443 55.976C194.256 56.424 194.023 56.9933 193.743 57.684C193.463 58.356 193.145 59.1493 192.791 60.064C192.38 61.184 191.997 62.1453 191.643 62.948C191.307 63.7693 190.999 64.4413 190.719 64.964C189.505 67.1293 188.283 68.212 187.051 68.212H186.939ZM188.731 58.776C189.907 58.776 191.643 57.1987 193.939 54.044L194.751 51.972C194.62 51.8787 194.527 51.6827 194.471 51.384C194.303 50.5813 194.107 50.0493 193.883 49.788C193.659 49.5267 193.36 49.396 192.987 49.396C192.557 49.396 192.063 49.592 191.503 49.984C190.943 50.376 190.411 50.8613 189.907 51.44C189.403 52 189.001 52.5507 188.703 53.092C187.807 54.6227 187.359 55.9387 187.359 57.04C187.359 58.1973 187.816 58.776 188.731 58.776ZM200.199 59.504C199.415 59.504 198.799 59.2333 198.351 58.692C197.903 58.1507 197.679 57.488 197.679 56.704C197.679 55.36 198.127 53.9787 199.023 52.56C199.265 52.168 199.545 51.7853 199.863 51.412C200.18 51.02 200.525 50.6467 200.899 50.292C201.459 49.7507 202.047 49.3027 202.663 48.948C203.279 48.5933 203.876 48.416 204.455 48.416C205.407 48.416 205.883 48.864 205.883 49.76C205.883 50.88 205.229 51.8973 203.923 52.812C202.709 53.6333 201.515 54.044 200.339 54.044C200.133 54.044 199.947 54.0347 199.779 54.016C199.629 53.9787 199.489 53.9413 199.359 53.904C199.172 54.2587 199.004 54.716 198.855 55.276C198.705 55.836 198.631 56.3213 198.631 56.732C198.631 57.964 199.172 58.58 200.255 58.58C201.132 58.58 201.963 58.4307 202.747 58.132C203.531 57.8147 204.464 57.2267 205.547 56.368C206.219 55.8453 206.723 55.4253 207.059 55.108C207.395 54.7907 207.759 54.4547 208.151 54.1C208.263 54.0253 208.365 53.988 208.459 53.988C208.552 53.988 208.645 54.016 208.739 54.072C208.832 54.128 208.879 54.212 208.879 54.324C208.879 54.5293 208.692 54.8187 208.319 55.192C208.001 55.4907 207.665 55.808 207.311 56.144C206.956 56.4613 206.396 56.9093 205.631 57.488C204.809 58.1227 203.913 58.6173 202.943 58.972C201.972 59.3267 201.057 59.504 200.199 59.504ZM200.171 53.148C200.768 53.148 201.337 53.0547 201.879 52.868C202.42 52.6813 202.933 52.4107 203.419 52.056C204.501 51.2533 205.043 50.4973 205.043 49.788C205.043 49.4707 204.847 49.312 204.455 49.312C203.708 49.312 202.84 49.7693 201.851 50.684C201.365 51.132 200.964 51.5427 200.647 51.916C200.348 52.2707 200.068 52.6627 199.807 53.092C199.919 53.1293 200.04 53.148 200.171 53.148ZM207.271 60.932C206.916 60.932 206.739 60.652 206.739 60.092C206.739 59.2707 207.196 57.8333 208.111 55.78C209.044 53.7267 210.425 51.0387 212.255 47.716C211.545 47.716 210.873 47.8093 210.239 47.996C209.623 48.164 209.296 48.3787 209.258 48.64C209.24 48.7147 209.193 48.7893 209.119 48.864C209.063 48.92 208.969 48.948 208.839 48.948C208.54 48.948 208.391 48.7987 208.391 48.5C208.391 48.0147 208.773 47.6133 209.539 47.296C210.304 46.9787 211.377 46.82 212.758 46.82L214.691 43.628C214.821 43.4227 214.961 43.1987 215.111 42.956C215.26 42.6947 215.428 42.4147 215.615 42.116C215.801 41.8547 216.016 41.724 216.259 41.724C216.408 41.724 216.52 41.7707 216.595 41.864C216.669 41.9387 216.707 42.0227 216.707 42.116C216.707 42.396 216.296 43.1427 215.475 44.356C214.448 45.868 213.897 46.6893 213.823 46.82C214.103 46.82 214.523 46.848 215.083 46.904C215.643 46.9413 216.305 47.0067 217.071 47.1C217.351 47.1187 217.491 47.2587 217.491 47.52C217.491 47.8187 217.323 47.968 216.987 47.968C216.856 47.968 216.595 47.9493 216.203 47.912C215.811 47.856 215.391 47.8093 214.943 47.772C214.495 47.7347 214.112 47.7253 213.794 47.744L213.375 47.772C209.585 54.436 207.7 58.58 207.719 60.204L207.747 60.428V60.484C207.747 60.7827 207.588 60.932 207.271 60.932ZM213.669 60.932C213.314 60.932 213.137 60.652 213.137 60.092C213.137 59.2707 213.594 57.8333 214.509 55.78C215.442 53.7267 216.824 51.0387 218.653 47.716C217.944 47.716 217.272 47.8093 216.637 47.996C216.021 48.164 215.694 48.3787 215.657 48.64C215.638 48.7147 215.592 48.7893 215.517 48.864C215.461 48.92 215.368 48.948 215.237 48.948C214.938 48.948 214.789 48.7987 214.789 48.5C214.789 48.0147 215.172 47.6133 215.937 47.296C216.702 46.9787 217.776 46.82 219.157 46.82L221.089 43.628C221.22 43.4227 221.36 43.1987 221.509 42.956C221.658 42.6947 221.826 42.4147 222.013 42.116C222.2 41.8547 222.414 41.724 222.657 41.724C222.806 41.724 222.918 41.7707 222.993 41.864C223.068 41.9387 223.105 42.0227 223.105 42.116C223.105 42.396 222.694 43.1427 221.873 44.356C220.846 45.868 220.296 46.6893 220.221 46.82C220.501 46.82 220.921 46.848 221.481 46.904C222.041 46.9413 222.704 47.0067 223.469 47.1C223.749 47.1187 223.889 47.2587 223.889 47.52C223.889 47.8187 223.721 47.968 223.385 47.968C223.254 47.968 222.993 47.9493 222.601 47.912C222.209 47.856 221.789 47.8093 221.341 47.772C220.893 47.7347 220.51 47.7253 220.193 47.744L219.773 47.772C215.984 54.436 214.098 58.58 214.117 60.204L214.145 60.428V60.484C214.145 60.7827 213.986 60.932 213.669 60.932ZM221.243 59.28C220.161 59.28 219.619 58.7667 219.619 57.74C219.619 57.068 219.778 56.3493 220.095 55.584C220.431 54.8 220.879 54.044 221.439 53.316C221.999 52.5693 222.625 51.8973 223.315 51.3C224.006 50.684 224.715 50.1987 225.443 49.844C226.171 49.4707 226.871 49.284 227.543 49.284C228.738 49.284 229.335 49.872 229.335 51.048C229.335 51.8133 229.149 52.196 228.775 52.196C228.439 52.196 228.271 52.0373 228.271 51.72C228.271 51.5893 228.299 51.4587 228.355 51.328C228.43 51.1787 228.467 51.02 228.467 50.852C228.467 50.3293 228.113 50.068 227.403 50.068C226.265 50.068 224.837 50.936 223.119 52.672C222.709 53.1013 222.307 53.6053 221.915 54.184C221.523 54.7627 221.197 55.3507 220.935 55.948C220.693 56.5267 220.571 57.0773 220.571 57.6C220.571 58.104 220.851 58.356 221.411 58.356C221.897 58.356 222.41 58.2067 222.951 57.908C223.511 57.6093 223.997 57.3013 224.407 56.984C225.229 56.368 226.069 55.528 226.927 54.464C227.058 54.3147 227.226 54.1187 227.431 53.876C227.637 53.6333 227.87 53.3627 228.131 53.064C228.225 52.9707 228.337 52.924 228.467 52.924C228.766 52.924 228.915 53.0733 228.915 53.372L227.851 54.968C227.142 56.0133 226.787 56.872 226.787 57.544C226.787 58.0293 227.021 58.272 227.487 58.272C227.879 58.272 228.309 58.1693 228.775 57.964C229.242 57.7587 229.625 57.5533 229.923 57.348C230.521 56.956 231.146 56.4707 231.799 55.892C232.453 55.2947 233.078 54.6973 233.675 54.1C233.75 54.0253 233.862 53.988 234.011 53.988C234.291 53.988 234.431 54.1 234.431 54.324C234.431 54.5293 234.301 54.7627 234.039 55.024C233.293 55.7707 232.621 56.4147 232.023 56.956C231.426 57.4787 230.857 57.908 230.315 58.244C229.961 58.4493 229.522 58.664 228.999 58.888C228.477 59.112 227.879 59.224 227.207 59.224C226.293 59.224 225.835 58.7387 225.835 57.768C225.835 57.3947 225.882 57.0867 225.975 56.844C224.277 58.468 222.699 59.28 221.243 59.28ZM234.602 60.652C234.08 60.652 233.641 60.4933 233.286 60.176C232.95 59.8587 232.782 59.448 232.782 58.944C232.782 58.7573 232.792 58.636 232.81 58.58C232.549 59.1773 232.306 59.476 232.082 59.476C231.784 59.476 231.634 59.2987 231.634 58.944L233.818 53.232C234.154 52.336 234.537 51.412 234.966 50.46C235.396 49.4893 235.825 48.5653 236.254 47.688C236.702 46.792 237.113 45.9893 237.486 45.28C237.878 44.552 238.196 43.9733 238.438 43.544C239.036 42.5173 239.605 41.724 240.146 41.164C240.706 40.5853 241.145 40.296 241.462 40.296C241.817 40.296 241.994 40.492 241.994 40.884C241.994 41.108 241.882 41.22 241.658 41.22C241.173 41.22 240.342 42.2373 239.166 44.272C238.793 44.9067 238.438 45.5413 238.102 46.176C237.785 46.792 237.477 47.408 237.178 48.024C236.768 48.9013 236.338 49.844 235.89 50.852C235.442 51.86 234.976 52.924 234.49 54.044C235.106 53.148 235.788 52.3267 236.534 51.58C237.188 50.9267 237.86 50.404 238.55 50.012C239.26 49.6013 239.96 49.396 240.65 49.396C241.416 49.396 242.022 49.5547 242.47 49.872C242.918 50.1893 243.142 50.7867 243.142 51.664C243.142 52.392 242.928 53.1667 242.498 53.988C242.088 54.8093 241.546 55.612 240.874 56.396C240.221 57.18 239.502 57.8987 238.718 58.552C237.953 59.1867 237.206 59.6907 236.478 60.064C235.75 60.456 235.125 60.652 234.602 60.652ZM234.518 59.728C235.078 59.728 235.694 59.532 236.366 59.14C237.038 58.7667 237.71 58.272 238.382 57.656C239.054 57.04 239.67 56.3773 240.23 55.668C240.79 54.94 241.238 54.2307 241.574 53.54C241.91 52.8307 242.078 52.2053 242.078 51.664C242.078 50.824 241.658 50.404 240.818 50.404C240.072 50.404 239.344 50.628 238.634 51.076C237.925 51.524 237.234 52.1213 236.562 52.868C235.909 53.6147 235.293 54.436 234.714 55.332C234.136 56.228 233.604 57.1333 233.118 58.048C233.286 57.88 233.445 57.796 233.594 57.796C233.856 57.796 233.986 57.9173 233.986 58.16C233.986 58.272 233.94 58.3933 233.846 58.524C233.809 58.58 233.772 58.6453 233.734 58.72C233.697 58.7947 233.678 58.9067 233.678 59.056C233.678 59.504 233.958 59.728 234.518 59.728ZM246.744 59.756C245.885 59.756 245.222 59.4947 244.756 58.972C244.308 58.4307 244.084 57.7213 244.084 56.844C244.084 56.2093 244.196 55.444 244.42 54.548C244.812 53.036 245.474 51.2813 246.408 49.284C247.136 47.772 247.92 46.288 248.76 44.832C249.6 43.3573 250.524 41.9107 251.532 40.492C253.137 38.2147 254.257 37.076 254.892 37.076C255.302 37.076 255.508 37.188 255.508 37.412C255.508 37.7293 254.985 38.5227 253.94 39.792L251.98 42.172C250.281 44.2253 248.89 46.3253 247.808 48.472C246.744 50.6187 245.913 52.7653 245.316 54.912C245.148 55.528 245.064 56.1067 245.064 56.648C245.064 58.0667 245.642 58.776 246.8 58.776C247.21 58.776 247.63 58.6547 248.06 58.412C248.489 58.188 248.722 58.076 248.76 58.076C248.984 58.076 249.096 58.2347 249.096 58.552C249.096 58.832 248.993 59.0467 248.788 59.196C248.153 59.5693 247.472 59.756 246.744 59.756ZM253.3 59.504C252.516 59.504 251.9 59.2333 251.452 58.692C251.004 58.1507 250.78 57.488 250.78 56.704C250.78 55.36 251.228 53.9787 252.124 52.56C252.367 52.168 252.647 51.7853 252.964 51.412C253.282 51.02 253.627 50.6467 254 50.292C254.56 49.7507 255.148 49.3027 255.764 48.948C256.38 48.5933 256.978 48.416 257.556 48.416C258.508 48.416 258.984 48.864 258.984 49.76C258.984 50.88 258.331 51.8973 257.024 52.812C255.811 53.6333 254.616 54.044 253.44 54.044C253.235 54.044 253.048 54.0347 252.88 54.016C252.731 53.9787 252.591 53.9413 252.46 53.904C252.274 54.2587 252.106 54.716 251.956 55.276C251.807 55.836 251.732 56.3213 251.732 56.732C251.732 57.964 252.274 58.58 253.356 58.58C254.234 58.58 255.064 58.4307 255.848 58.132C256.632 57.8147 257.566 57.2267 258.648 56.368C259.32 55.8453 259.824 55.4253 260.16 55.108C260.496 54.7907 260.86 54.4547 261.252 54.1C261.364 54.0253 261.467 53.988 261.56 53.988C261.654 53.988 261.747 54.016 261.84 54.072C261.934 54.128 261.98 54.212 261.98 54.324C261.98 54.5293 261.794 54.8187 261.42 55.192C261.103 55.4907 260.767 55.808 260.412 56.144C260.058 56.4613 259.498 56.9093 258.732 57.488C257.911 58.1227 257.015 58.6173 256.044 58.972C255.074 59.3267 254.159 59.504 253.3 59.504ZM253.272 53.148C253.87 53.148 254.439 53.0547 254.98 52.868C255.522 52.6813 256.035 52.4107 256.52 52.056C257.603 51.2533 258.144 50.4973 258.144 49.788C258.144 49.4707 257.948 49.312 257.556 49.312C256.81 49.312 255.942 49.7693 254.952 50.684C254.467 51.132 254.066 51.5427 253.748 51.916C253.45 52.2707 253.17 52.6627 252.908 53.092C253.02 53.1293 253.142 53.148 253.272 53.148ZM271.101 59.504C270.317 59.504 269.701 59.2333 269.253 58.692C268.805 58.1507 268.581 57.488 268.581 56.704C268.581 55.36 269.029 53.9787 269.925 52.56C270.168 52.168 270.448 51.7853 270.765 51.412C271.082 51.02 271.428 50.6467 271.801 50.292C272.361 49.7507 272.949 49.3027 273.565 48.948C274.181 48.5933 274.778 48.416 275.357 48.416C276.309 48.416 276.785 48.864 276.785 49.76C276.785 50.88 276.132 51.8973 274.825 52.812C273.612 53.6333 272.417 54.044 271.241 54.044C271.036 54.044 270.849 54.0347 270.681 54.016C270.532 53.9787 270.392 53.9413 270.261 53.904C270.074 54.2587 269.906 54.716 269.757 55.276C269.608 55.836 269.533 56.3213 269.533 56.732C269.533 57.964 270.074 58.58 271.157 58.58C272.034 58.58 272.865 58.4307 273.649 58.132C274.433 57.8147 275.366 57.2267 276.449 56.368C277.121 55.8453 277.625 55.4253 277.961 55.108C278.297 54.7907 278.661 54.4547 279.053 54.1C279.165 54.0253 279.268 53.988 279.361 53.988C279.454 53.988 279.548 54.016 279.641 54.072C279.734 54.128 279.781 54.212 279.781 54.324C279.781 54.5293 279.594 54.8187 279.221 55.192C278.904 55.4907 278.568 55.808 278.213 56.144C277.858 56.4613 277.298 56.9093 276.533 57.488C275.712 58.1227 274.816 58.6173 273.845 58.972C272.874 59.3267 271.96 59.504 271.101 59.504ZM271.073 53.148C271.67 53.148 272.24 53.0547 272.781 52.868C273.322 52.6813 273.836 52.4107 274.321 52.056C275.404 51.2533 275.945 50.4973 275.945 49.788C275.945 49.4707 275.749 49.312 275.357 49.312C274.61 49.312 273.742 49.7693 272.753 50.684C272.268 51.132 271.866 51.5427 271.549 51.916C271.25 52.2707 270.97 52.6627 270.709 53.092C270.821 53.1293 270.942 53.148 271.073 53.148ZM279.769 59.28C279.545 59.28 279.433 59.196 279.433 59.028C279.134 58.5053 278.985 57.432 278.985 55.808C278.985 55.416 279.013 54.8933 279.069 54.24C279.125 53.5867 279.2 52.9053 279.293 52.196C279.386 51.4867 279.489 50.8427 279.601 50.264C279.713 49.6667 279.834 49.2373 279.965 48.976C280.077 48.752 280.217 48.64 280.385 48.64C280.684 48.64 280.833 48.7613 280.833 49.004C280.833 49.1347 280.814 49.2653 280.777 49.396C280.74 49.508 280.702 49.648 280.665 49.816C280.422 50.7493 280.226 51.7387 280.077 52.784C279.946 53.8293 279.881 54.9027 279.881 56.004C279.881 56.508 279.9 56.956 279.937 57.348C279.993 57.74 280.049 58.076 280.105 58.356C280.628 58.1507 281.206 57.7493 281.841 57.152C282.476 56.536 283.092 55.8547 283.689 55.108C284.174 54.492 284.613 53.8667 285.005 53.232C285.416 52.5973 285.733 52 285.957 51.44C286.2 50.88 286.321 50.4227 286.321 50.068C286.321 49.8253 286.293 49.6573 286.237 49.564C286.2 49.4707 286.153 49.396 286.097 49.34C286.041 49.284 286.013 49.1813 286.013 49.032C286.013 48.752 286.153 48.612 286.433 48.612C286.62 48.612 286.788 48.752 286.937 49.032C287.086 49.312 287.161 49.6667 287.161 50.096C287.161 51.4213 286.237 53.2787 284.389 55.668C282.485 58.076 280.945 59.28 279.769 59.28ZM289.996 59.504C289.212 59.504 288.596 59.2333 288.148 58.692C287.7 58.1507 287.476 57.488 287.476 56.704C287.476 55.36 287.924 53.9787 288.82 52.56C289.062 52.168 289.342 51.7853 289.66 51.412C289.977 51.02 290.322 50.6467 290.696 50.292C291.256 49.7507 291.844 49.3027 292.46 48.948C293.076 48.5933 293.673 48.416 294.252 48.416C295.204 48.416 295.68 48.864 295.68 49.76C295.68 50.88 295.026 51.8973 293.72 52.812C292.506 53.6333 291.312 54.044 290.136 54.044C289.93 54.044 289.744 54.0347 289.576 54.016C289.426 53.9787 289.286 53.9413 289.156 53.904C288.969 54.2587 288.801 54.716 288.652 55.276C288.502 55.836 288.428 56.3213 288.428 56.732C288.428 57.964 288.969 58.58 290.052 58.58C290.929 58.58 291.76 58.4307 292.544 58.132C293.328 57.8147 294.261 57.2267 295.344 56.368C296.016 55.8453 296.52 55.4253 296.856 55.108C297.192 54.7907 297.556 54.4547 297.948 54.1C298.06 54.0253 298.162 53.988 298.256 53.988C298.349 53.988 298.442 54.016 298.536 54.072C298.629 54.128 298.676 54.212 298.676 54.324C298.676 54.5293 298.489 54.8187 298.116 55.192C297.798 55.4907 297.462 55.808 297.108 56.144C296.753 56.4613 296.193 56.9093 295.428 57.488C294.606 58.1227 293.71 58.6173 292.74 58.972C291.769 59.3267 290.854 59.504 289.996 59.504ZM289.968 53.148C290.565 53.148 291.134 53.0547 291.676 52.868C292.217 52.6813 292.73 52.4107 293.216 52.056C294.298 51.2533 294.84 50.4973 294.84 49.788C294.84 49.4707 294.644 49.312 294.252 49.312C293.505 49.312 292.637 49.7693 291.648 50.684C291.162 51.132 290.761 51.5427 290.444 51.916C290.145 52.2707 289.865 52.6627 289.604 53.092C289.716 53.1293 289.837 53.148 289.968 53.148ZM296.059 59.7C295.761 59.7 295.611 59.5787 295.611 59.336C295.611 59.2427 295.649 59.1307 295.723 59C295.798 58.8507 295.863 58.7293 295.919 58.636L298.439 53.568C299.522 51.3653 300.063 50.1427 300.063 49.9C300.063 49.6387 300.194 49.508 300.455 49.508C300.81 49.508 300.987 49.6947 300.987 50.068C300.987 50.1987 300.903 50.4787 300.735 50.908C300.567 51.3373 300.353 51.8227 300.091 52.364C299.643 53.3347 299.27 54.0813 298.971 54.604C299.531 53.9507 300.101 53.3347 300.679 52.756C301.258 52.1773 301.846 51.6267 302.443 51.104C304.217 49.5547 305.579 48.78 306.531 48.78C307.185 48.78 307.511 49.088 307.511 49.704C307.511 50.264 307.035 51.524 306.083 53.484C305.131 55.4627 304.655 56.7133 304.655 57.236C304.655 57.4787 304.739 57.6 304.907 57.6C304.963 57.6 305.047 57.5813 305.159 57.544C305.29 57.488 305.421 57.46 305.551 57.46C305.869 57.46 306.027 57.6093 306.027 57.908C306.027 58.2813 305.626 58.468 304.823 58.468C304.45 58.468 304.179 58.384 304.011 58.216C303.843 58.0293 303.759 57.7867 303.759 57.488C303.759 56.592 304.217 55.2293 305.131 53.4C306.046 51.5893 306.503 50.4973 306.503 50.124C306.503 49.9 306.419 49.788 306.251 49.788C305.841 49.788 305.178 50.1333 304.263 50.824C303.274 51.5707 302.285 52.4293 301.295 53.4C300.306 54.3707 299.363 55.4813 298.467 56.732L296.507 59.448C296.395 59.616 296.246 59.7 296.059 59.7ZM308.196 60.932C307.842 60.932 307.664 60.652 307.664 60.092C307.664 59.2707 308.122 57.8333 309.036 55.78C309.97 53.7267 311.351 51.0387 313.18 47.716C312.471 47.716 311.799 47.8093 311.164 47.996C310.548 48.164 310.222 48.3787 310.184 48.64C310.166 48.7147 310.119 48.7893 310.044 48.864C309.988 48.92 309.895 48.948 309.764 48.948C309.466 48.948 309.316 48.7987 309.316 48.5C309.316 48.0147 309.699 47.6133 310.464 47.296C311.23 46.9787 312.303 46.82 313.684 46.82L315.616 43.628C315.747 43.4227 315.887 43.1987 316.036 42.956C316.186 42.6947 316.354 42.4147 316.54 42.116C316.727 41.8547 316.942 41.724 317.184 41.724C317.334 41.724 317.446 41.7707 317.52 41.864C317.595 41.9387 317.632 42.0227 317.632 42.116C317.632 42.396 317.222 43.1427 316.4 44.356C315.374 45.868 314.823 46.6893 314.748 46.82C315.028 46.82 315.448 46.848 316.008 46.904C316.568 46.9413 317.231 47.0067 317.996 47.1C318.276 47.1187 318.416 47.2587 318.416 47.52C318.416 47.8187 318.248 47.968 317.912 47.968C317.782 47.968 317.52 47.9493 317.128 47.912C316.736 47.856 316.316 47.8093 315.868 47.772C315.42 47.7347 315.038 47.7253 314.72 47.744L314.3 47.772C310.511 54.436 308.626 58.58 308.644 60.204L308.672 60.428V60.484C308.672 60.7827 308.514 60.932 308.196 60.932ZM316.275 55.248C315.976 55.248 315.827 55.0987 315.827 54.8C315.827 54.3147 316.303 53.3347 317.255 51.86L319.187 49.004L320.783 46.708C321.137 46.1667 321.417 45.7 321.623 45.308C321.828 44.8973 321.949 44.5613 321.987 44.3L322.099 43.572C322.192 43.2547 322.341 43.096 322.547 43.096C322.864 43.096 323.023 43.264 323.023 43.6C323.023 44.216 322.612 45.2333 321.791 46.652C321.697 46.82 321.52 47.1 321.259 47.492C321.016 47.884 320.624 48.4813 320.083 49.284C319.541 50.068 318.795 51.16 317.843 52.56C317.749 52.6907 317.637 52.8587 317.507 53.064C317.395 53.2693 317.264 53.5027 317.115 53.764C317.04 53.932 316.975 54.1 316.919 54.268C316.863 54.436 316.807 54.5947 316.751 54.744C316.676 55.08 316.517 55.248 316.275 55.248ZM315.295 59.224C314.809 59.224 314.567 58.9907 314.567 58.524C314.567 58.02 314.8 57.768 315.267 57.768C315.752 57.768 315.995 58.0013 315.995 58.468C315.995 58.972 315.761 59.224 315.295 59.224Z" fill="#FF6265"/>
<path d="M75.2557 167.251C75.6338 167.159 75.8259 166.749 75.6846 166.334L73.3832 159.579C73.2419 159.164 72.8209 158.903 72.4428 158.994C72.0647 159.086 71.8727 159.496 72.0139 159.911L74.0596 165.915L68.5825 167.242C68.2044 167.333 68.0123 167.744 68.1536 168.158C68.2948 168.573 68.7158 168.834 69.0939 168.743L75.2557 167.251ZM30.4999 70.0001L30.1143 69.2969C19.7028 74.5026 15.9988 89.8446 22.2524 108.29C28.5226 126.784 44.8137 148.565 74.6967 167.148L75 166.5L75.3033 165.852C45.6862 147.435 29.7272 125.966 23.6225 107.96C17.5011 89.9053 21.297 75.4974 30.8854 70.7033L30.4999 70.0001Z" fill="#FF6265"/>
</svg>
