<svg width="661" height="212" viewBox="0 0 661 212" fill="none" xmlns="http://www.w3.org/2000/svg">
<path d="M0.957 122.606C0.374142 122.606 0.0827139 122.331 0.0827139 121.783C0.0827139 121.577 0.0998568 121.44 0.134143 121.371C1.40271 118.594 4.84843 114.446 10.4713 108.926C10.2999 108.96 10.1456 108.994 10.0084 109.029C9.87129 109.029 9.76843 109.029 9.69986 109.029C9.117 109.029 8.82557 108.703 8.82557 108.051C8.82557 107.674 9.117 107.434 9.69986 107.331C10.0427 107.263 10.4027 107.211 10.7799 107.177C11.1913 107.109 11.7056 107.006 12.3227 106.869C16.4713 102.549 20.4656 98.8458 24.3056 95.76C28.1799 92.64 31.8827 90.0858 35.4141 88.0972C35.7227 87.9258 35.997 87.7886 36.237 87.6858C36.477 87.5486 36.6827 87.48 36.8541 87.48C37.2656 87.48 37.4713 87.7543 37.4713 88.3029C37.4713 89.3315 36.4427 92.8629 34.3856 98.8972L32.1227 105.531C33.0141 105.531 33.4599 105.806 33.4599 106.354C33.4599 106.971 32.877 107.28 31.7113 107.28C31.0599 109.063 30.4427 111.034 29.8599 113.194C29.3113 115.32 28.8484 117.514 28.4713 119.777C28.3341 120.497 28.0256 120.857 27.5456 120.857C26.9627 120.857 26.6713 120.549 26.6713 119.931C26.6713 119.829 26.7056 119.606 26.7741 119.263C26.8427 118.92 26.9456 118.474 27.0827 117.926C27.4941 115.937 27.8541 114.291 28.1627 112.989C28.5056 111.686 28.797 110.589 29.037 109.697C29.3113 108.771 29.5513 107.931 29.757 107.177C23.4484 107.314 17.8941 107.777 13.0941 108.566C11.7227 109.971 10.5741 111.171 9.64843 112.166C8.72271 113.126 8.037 113.846 7.59129 114.326C5.53414 116.589 3.88843 118.646 2.65414 120.497C2.55129 120.669 2.43129 120.891 2.29414 121.166C2.12271 121.44 1.917 121.766 1.677 122.143C1.53986 122.451 1.29986 122.606 0.957 122.606ZM15.2027 106.457C17.1913 106.183 19.437 105.977 21.9399 105.84C24.4427 105.669 27.2541 105.549 30.3741 105.48C30.8884 103.903 31.4027 102.377 31.917 100.903C32.4313 99.3943 32.9284 97.9543 33.4084 96.5829C33.9913 95.0743 34.7627 92.8115 35.7227 89.7943C31.7456 92.0915 28.0427 94.6286 24.6141 97.4058C21.2199 100.183 18.0827 103.2 15.2027 106.457ZM35.7886 121.32C35.2057 121.32 34.9143 121.046 34.9143 120.497C34.9143 120.463 35.12 120.034 35.5315 119.211C35.9429 118.389 36.5257 117.171 37.28 115.56L39.9029 110.057C40.9657 107.829 41.72 106.063 42.1657 104.76C42.6457 103.457 42.8857 102.617 42.8857 102.24C42.8857 101.691 43.16 101.417 43.7086 101.417C44.2572 101.417 44.5315 101.691 44.5315 102.24C44.5315 102.686 44.3772 103.389 44.0686 104.349C43.7943 105.274 43.3315 106.474 42.68 107.949L40.0572 113.914C47.2229 104.863 52.6229 100.337 56.2572 100.337C56.9429 100.337 57.4743 100.629 57.8515 101.211C58.2286 101.76 58.4172 102.377 58.4172 103.063C58.4172 104.709 57.2343 107.571 54.8686 111.651C56.6857 109.8 58.52 107.949 60.3715 106.097C62.2572 104.211 64.1429 102.36 66.0286 100.543C66.5086 100.097 66.9029 99.8743 67.2115 99.8743C67.6229 99.8743 67.9657 100.08 68.24 100.491C68.5143 100.869 68.6515 101.28 68.6515 101.726C68.6515 102.069 68.4972 102.497 68.1886 103.011C67.7429 103.766 67.3315 104.674 66.9543 105.737C66.5772 106.766 66.1486 107.931 65.6686 109.234C65.12 110.709 64.7257 111.994 64.4857 113.091C64.2457 114.189 64.1257 115.08 64.1257 115.766C64.1257 116.623 64.3315 117.257 64.7429 117.669C65.1543 118.046 65.5657 118.234 65.9772 118.234C66.6972 118.234 67.4857 118.046 68.3429 117.669C69.2 117.291 69.9029 116.914 70.4515 116.537C71.5486 115.817 72.6972 114.926 73.8972 113.863C75.0972 112.766 76.2457 111.669 77.3429 110.571C77.48 110.434 77.6857 110.366 77.96 110.366C78.4743 110.366 78.7315 110.571 78.7315 110.983C78.7315 111.36 78.4915 111.789 78.0115 112.269C76.64 113.64 75.4057 114.823 74.3086 115.817C73.2115 116.777 72.1657 117.566 71.1715 118.183C70.52 118.56 69.7315 118.954 68.8057 119.366C67.88 119.777 66.8857 119.983 65.8229 119.983C64.8286 119.983 63.9886 119.674 63.3029 119.057C62.6515 118.44 62.3257 117.12 62.3257 115.097C62.3257 114.309 62.4629 113.383 62.7372 112.32C63.0115 111.223 63.4229 110.006 63.9715 108.669L66.6972 102.189L59.3429 109.594C58.4857 110.451 57.7829 111.171 57.2343 111.754C56.6857 112.337 56.24 112.817 55.8972 113.194C55.2457 113.88 54.6629 114.549 54.1486 115.2C53.6686 115.851 53.2572 116.417 52.9143 116.897C52.6743 117.274 52.4 117.463 52.0915 117.463C51.5086 117.463 51.2172 117.223 51.2172 116.743C51.2172 115.68 52.1772 113.229 54.0972 109.389C56.0172 105.549 56.9772 103.251 56.9772 102.497C56.9772 102.154 56.6 101.983 55.8457 101.983C52.7943 101.983 47.36 106.971 39.5429 116.949C38.8915 117.874 37.8115 119.263 36.3029 121.114C36.2 121.251 36.0286 121.32 35.7886 121.32ZM73.8566 120.857C73.308 120.857 73.0337 120.634 73.0337 120.189C73.0337 119.983 73.0852 119.777 73.188 119.571C73.3252 119.366 73.428 119.194 73.4966 119.057L78.1766 109.594C80.1652 105.549 81.1595 103.303 81.1595 102.857C81.1595 102.377 81.3995 102.137 81.8795 102.137C82.5309 102.137 82.8566 102.463 82.8566 103.114C82.8566 103.457 82.7023 104.006 82.3937 104.76C82.0852 105.514 81.6909 106.389 81.2109 107.383C80.388 109.166 79.7023 110.537 79.1537 111.497C80.1823 110.297 81.228 109.166 82.2909 108.103C83.3537 107.04 84.4337 106.029 85.5309 105.069C88.788 102.223 91.2909 100.8 93.0395 100.8C94.2395 100.8 94.8395 101.366 94.8395 102.497C94.8395 103.594 94.4795 104.143 93.7595 104.143C93.4166 104.143 93.1595 103.851 92.988 103.269C92.8852 102.857 92.6452 102.651 92.268 102.651C91.6852 102.651 90.5537 103.286 88.8737 104.554C87.0223 105.926 85.1537 107.554 83.268 109.44C81.4166 111.326 79.4452 113.726 77.3537 116.64L74.7823 120.24C74.6452 120.411 74.508 120.549 74.3709 120.651C74.268 120.789 74.0966 120.857 73.8566 120.857ZM106.529 121.32C104.849 121.32 104.009 120.103 104.009 117.669C104.009 116.366 104.317 114.789 104.934 112.937C100.786 117.771 97.5286 120.189 95.1629 120.189C93.2086 120.189 92.2315 119.006 92.2315 116.64C92.2315 115.749 92.3686 114.686 92.6429 113.451C92.9515 112.183 93.3458 110.88 93.8258 109.543C94.34 108.206 94.8886 106.954 95.4715 105.789C96.0543 104.623 96.6372 103.68 97.22 102.96C97.4258 102.72 97.6829 102.6 97.9915 102.6C98.1629 102.6 98.3343 102.669 98.5058 102.806C98.6772 102.909 98.7629 103.08 98.7629 103.32C98.7629 103.526 98.6429 103.817 98.4029 104.194C96.86 106.731 95.7629 108.943 95.1115 110.829C94.2886 112.989 93.8772 114.857 93.8772 116.434C93.8772 117.909 94.2543 118.646 95.0086 118.646C95.4886 118.646 96.1229 118.406 96.9115 117.926C97.7 117.446 98.5058 116.863 99.3286 116.177C100.186 115.457 100.923 114.789 101.54 114.171C103.254 112.354 104.797 110.417 106.169 108.36C106.786 107.4 107.334 106.474 107.814 105.583C108.329 104.657 108.791 103.697 109.203 102.703C109.374 102.326 109.511 102.051 109.614 101.88C109.751 101.674 109.94 101.571 110.18 101.571C110.9 101.571 111.26 101.846 111.26 102.394C111.26 102.737 111.14 102.977 110.9 103.114C107.403 110.211 105.654 115.097 105.654 117.771C105.654 118.491 105.723 119.006 105.86 119.314C105.997 119.589 106.237 119.726 106.58 119.726C107.06 119.726 107.797 119.417 108.791 118.8C109.82 118.183 111.02 117.24 112.391 115.971L117.791 111.034C118.066 110.76 118.323 110.623 118.563 110.623C119.111 110.623 119.386 110.88 119.386 111.394C119.386 111.84 118.306 113.04 116.146 114.994C115.22 115.851 114.397 116.571 113.677 117.154C112.957 117.737 112.289 118.251 111.671 118.697C110.506 119.52 109.477 120.154 108.586 120.6C107.694 121.08 107.009 121.32 106.529 121.32ZM116.339 123.12C115.687 123.12 115.361 122.606 115.361 121.577C115.361 120.069 116.201 117.429 117.881 113.657C119.596 109.886 122.133 104.949 125.493 98.8458C124.19 98.8458 122.956 99.0172 121.79 99.36C120.659 99.6686 120.059 100.063 119.99 100.543C119.956 100.68 119.87 100.817 119.733 100.954C119.63 101.057 119.459 101.109 119.219 101.109C118.67 101.109 118.396 100.834 118.396 100.286C118.396 99.3943 119.099 98.6572 120.504 98.0743C121.91 97.4915 123.881 97.2 126.419 97.2L129.967 91.3372C130.207 90.96 130.464 90.5486 130.739 90.1029C131.013 89.6229 131.321 89.1086 131.664 88.56C132.007 88.08 132.401 87.84 132.847 87.84C133.121 87.84 133.327 87.9258 133.464 88.0972C133.601 88.2343 133.67 88.3886 133.67 88.56C133.67 89.0743 132.916 90.4458 131.407 92.6743C129.521 95.4515 128.51 96.96 128.373 97.2C128.887 97.2 129.659 97.2515 130.687 97.3543C131.716 97.4229 132.933 97.5429 134.339 97.7143C134.853 97.7486 135.11 98.0058 135.11 98.4858C135.11 99.0343 134.801 99.3086 134.184 99.3086C133.944 99.3086 133.464 99.2743 132.744 99.2058C132.024 99.1029 131.253 99.0172 130.43 98.9486C129.607 98.88 128.904 98.8629 128.321 98.8972L127.55 98.9486C120.59 111.189 117.127 118.8 117.161 121.783L117.213 122.194V122.297C117.213 122.846 116.921 123.12 116.339 123.12ZM127.422 120.497C126.874 120.497 126.599 120.223 126.599 119.674C126.599 118.954 126.857 117.823 127.371 116.28C127.885 114.703 128.554 112.903 129.377 110.88C130.234 108.823 131.142 106.714 132.102 104.554C132.651 103.354 133.217 102.189 133.799 101.057C134.382 99.8915 134.931 98.88 135.445 98.0229C140.519 89.4515 143.674 85.1658 144.908 85.1658C145.388 85.1658 145.628 85.4058 145.628 85.8858C145.628 86.1943 145.388 86.7772 144.908 87.6343C144.462 88.4572 143.862 89.4343 143.108 90.5658C142.388 91.6629 141.599 92.7772 140.742 93.9086C139.919 95.04 139.131 96.0858 138.377 97.0458C137.657 97.9715 137.074 98.6743 136.628 99.1543C136.251 99.6 135.822 100.251 135.342 101.109C134.897 101.966 134.451 102.857 134.005 103.783C133.559 104.674 133.199 105.463 132.925 106.149L130.971 110.983C131.485 110.297 132.154 109.526 132.977 108.669C134.931 106.509 136.954 104.88 139.045 103.783C141.171 102.651 142.954 102.086 144.394 102.086C145.182 102.086 145.817 102.326 146.297 102.806C146.777 103.286 147.017 103.869 147.017 104.554C147.017 105.891 146.142 108.137 144.394 111.291C142.645 114.411 141.771 116.331 141.771 117.051C141.771 117.429 141.977 117.617 142.388 117.617C143.348 117.617 144.394 117.274 145.525 116.589C146.657 115.869 147.822 114.96 149.022 113.863C150.222 112.766 151.388 111.669 152.519 110.571C152.657 110.434 152.862 110.366 153.137 110.366C153.651 110.366 153.908 110.571 153.908 110.983C153.908 111.36 153.668 111.789 153.188 112.269C150.891 114.566 148.919 116.28 147.274 117.411C145.628 118.543 143.897 119.109 142.079 119.109C140.708 119.109 140.022 118.474 140.022 117.206C140.022 116.726 140.108 116.263 140.279 115.817C140.451 115.371 140.725 114.771 141.102 114.017L143.468 109.337C144.051 108.171 144.479 107.194 144.754 106.406C145.028 105.617 145.165 105.017 145.165 104.606C145.165 104.023 144.805 103.731 144.085 103.731C142.817 103.731 141.325 104.246 139.611 105.274C137.931 106.269 136.131 107.777 134.211 109.8C133.114 110.966 132.119 112.2 131.228 113.503C130.371 114.806 129.685 116.211 129.171 117.72L128.554 119.52C128.314 120.171 127.937 120.497 127.422 120.497ZM153.052 120.086C151.064 120.086 150.069 119.143 150.069 117.257C150.069 116.023 150.361 114.703 150.944 113.297C151.561 111.857 152.384 110.469 153.412 109.131C154.441 107.76 155.589 106.526 156.858 105.429C158.126 104.297 159.429 103.406 160.766 102.754C162.104 102.069 163.389 101.726 164.624 101.726C166.818 101.726 167.915 102.806 167.915 104.966C167.915 106.371 167.572 107.074 166.886 107.074C166.269 107.074 165.961 106.783 165.961 106.2C165.961 105.96 166.012 105.72 166.115 105.48C166.252 105.206 166.321 104.914 166.321 104.606C166.321 103.646 165.669 103.166 164.366 103.166C162.275 103.166 159.652 104.76 156.498 107.949C155.744 108.737 155.006 109.663 154.286 110.726C153.566 111.789 152.966 112.869 152.486 113.966C152.041 115.029 151.818 116.04 151.818 117C151.818 117.926 152.332 118.389 153.361 118.389C154.252 118.389 155.195 118.114 156.189 117.566C157.218 117.017 158.109 116.451 158.864 115.869C160.372 114.737 161.915 113.194 163.492 111.24C163.732 110.966 164.041 110.606 164.418 110.16C164.795 109.714 165.224 109.217 165.704 108.669C165.875 108.497 166.081 108.411 166.321 108.411C166.869 108.411 167.144 108.686 167.144 109.234L165.189 112.166C163.886 114.086 163.235 115.663 163.235 116.897C163.235 117.789 163.664 118.234 164.521 118.234C165.241 118.234 166.029 118.046 166.886 117.669C167.744 117.291 168.446 116.914 168.995 116.537C170.092 115.817 171.241 114.926 172.441 113.863C173.641 112.766 174.789 111.669 175.886 110.571C176.024 110.434 176.229 110.366 176.504 110.366C177.018 110.366 177.275 110.571 177.275 110.983C177.275 111.36 177.035 111.789 176.555 112.269C175.184 113.64 173.949 114.823 172.852 115.817C171.755 116.777 170.709 117.566 169.715 118.183C169.064 118.56 168.258 118.954 167.298 119.366C166.338 119.777 165.241 119.983 164.006 119.983C162.326 119.983 161.486 119.091 161.486 117.309C161.486 116.623 161.572 116.057 161.744 115.611C158.624 118.594 155.726 120.086 153.052 120.086ZM204.444 121.783C201.632 121.783 199.147 121.217 196.987 120.086C194.827 118.954 193.129 117.36 191.895 115.303C190.661 113.211 190.044 110.794 190.044 108.051C190.044 105.137 190.627 102.48 191.792 100.08C192.958 97.68 194.638 95.4858 196.832 93.4972C203.072 87.84 210.495 85.0115 219.101 85.0115C220.918 85.0115 222.65 85.3372 224.295 85.9886C225.975 86.6058 227.347 87.5315 228.41 88.7658C229.472 89.9658 230.004 91.4229 230.004 93.1372C230.004 94.5429 229.575 95.7429 228.718 96.7372C228.512 97.0115 228.17 97.3715 227.69 97.8172C227.244 98.2286 226.85 98.4343 226.507 98.4343C226.232 98.4343 225.958 98.3315 225.684 98.1258C225.41 97.8858 225.272 97.6458 225.272 97.4058C225.272 97.2343 225.392 97.0458 225.632 96.84C225.872 96.6 226.232 96.2572 226.712 95.8115C227.638 94.8858 228.101 93.84 228.101 92.6743C228.101 91.2686 227.604 90.1029 226.609 89.1772C225.649 88.2515 224.415 87.5658 222.907 87.12C221.398 86.64 219.804 86.4 218.124 86.4C214.352 86.4 210.667 87.2058 207.067 88.8172C203.501 90.3943 200.347 92.5543 197.604 95.2972C195.787 97.1143 194.381 99.1029 193.387 101.263C192.427 103.389 191.947 105.771 191.947 108.411C191.947 110.606 192.341 112.44 193.129 113.914C193.952 115.389 194.998 116.589 196.267 117.514C197.57 118.44 198.992 119.126 200.535 119.571C202.078 119.983 203.552 120.189 204.958 120.189C206.604 120.189 208.352 119.966 210.204 119.52C212.089 119.074 213.924 118.474 215.707 117.72C217.524 116.931 219.152 116.074 220.592 115.149C221.21 114.737 221.707 114.377 222.084 114.069C222.495 113.76 222.787 113.52 222.958 113.349L224.501 110.726C224.912 110.04 225.41 109.183 225.992 108.154C226.575 107.126 227.244 105.926 227.998 104.554C226.935 104.554 225.598 104.709 223.987 105.017C222.375 105.326 220.695 105.72 218.947 106.2C217.884 106.474 216.821 106.8 215.758 107.177C214.73 107.52 214.078 107.691 213.804 107.691C213.221 107.691 212.93 107.383 212.93 106.766C212.93 106.594 212.981 106.457 213.084 106.354C213.187 106.217 213.409 106.063 213.752 105.891C214.541 105.446 215.552 105.034 216.787 104.657C218.021 104.246 219.392 103.903 220.901 103.629C222.272 103.354 223.627 103.166 224.964 103.063C226.301 102.96 227.604 102.926 228.872 102.96L229.027 102.651C229.164 102.309 229.404 102.137 229.747 102.137C230.261 102.137 230.587 102.411 230.724 102.96C231.581 102.994 232.558 103.114 233.655 103.32C234.204 103.423 234.478 103.731 234.478 104.246C234.478 104.76 234.221 105.017 233.707 105.017C233.467 105.017 232.987 104.949 232.267 104.811C231.581 104.674 230.827 104.606 230.004 104.606C229.25 106.08 227.758 108.703 225.53 112.474C225.084 113.229 224.707 113.88 224.398 114.429C224.09 114.977 223.85 115.44 223.678 115.817C223.061 117.017 222.598 118.183 222.289 119.314C222.187 119.691 221.981 119.88 221.672 119.88C220.987 119.88 220.644 119.571 220.644 118.954C220.644 118.543 220.884 117.703 221.364 116.434C219.821 117.429 218.055 118.337 216.067 119.16C214.112 119.949 212.124 120.583 210.101 121.063C208.078 121.543 206.192 121.783 204.444 121.783ZM248.56 121.32C246.88 121.32 246.04 120.103 246.04 117.669C246.04 116.366 246.348 114.789 246.966 112.937C242.817 117.771 239.56 120.189 237.194 120.189C235.24 120.189 234.263 119.006 234.263 116.64C234.263 115.749 234.4 114.686 234.674 113.451C234.983 112.183 235.377 110.88 235.857 109.543C236.371 108.206 236.92 106.954 237.503 105.789C238.086 104.623 238.668 103.68 239.251 102.96C239.457 102.72 239.714 102.6 240.023 102.6C240.194 102.6 240.366 102.669 240.537 102.806C240.708 102.909 240.794 103.08 240.794 103.32C240.794 103.526 240.674 103.817 240.434 104.194C238.891 106.731 237.794 108.943 237.143 110.829C236.32 112.989 235.908 114.857 235.908 116.434C235.908 117.909 236.286 118.646 237.04 118.646C237.52 118.646 238.154 118.406 238.943 117.926C239.731 117.446 240.537 116.863 241.36 116.177C242.217 115.457 242.954 114.789 243.571 114.171C245.286 112.354 246.828 110.417 248.2 108.36C248.817 107.4 249.366 106.474 249.846 105.583C250.36 104.657 250.823 103.697 251.234 102.703C251.406 102.326 251.543 102.051 251.646 101.88C251.783 101.674 251.971 101.571 252.211 101.571C252.931 101.571 253.291 101.846 253.291 102.394C253.291 102.737 253.171 102.977 252.931 103.114C249.434 110.211 247.686 115.097 247.686 117.771C247.686 118.491 247.754 119.006 247.891 119.314C248.028 119.589 248.268 119.726 248.611 119.726C249.091 119.726 249.828 119.417 250.823 118.8C251.851 118.183 253.051 117.24 254.423 115.971L259.823 111.034C260.097 110.76 260.354 110.623 260.594 110.623C261.143 110.623 261.417 110.88 261.417 111.394C261.417 111.84 260.337 113.04 258.177 114.994C257.251 115.851 256.428 116.571 255.708 117.154C254.988 117.737 254.32 118.251 253.703 118.697C252.537 119.52 251.508 120.154 250.617 120.6C249.726 121.08 249.04 121.32 248.56 121.32ZM256.518 120.857C255.97 120.857 255.696 120.634 255.696 120.189C255.696 119.983 255.747 119.777 255.85 119.571C255.987 119.366 256.09 119.194 256.158 119.057L260.838 109.594C262.827 105.549 263.821 103.303 263.821 102.857C263.821 102.377 264.061 102.137 264.541 102.137C265.193 102.137 265.518 102.463 265.518 103.114C265.518 103.457 265.364 104.006 265.056 104.76C264.747 105.514 264.353 106.389 263.873 107.383C263.05 109.166 262.364 110.537 261.816 111.497C262.844 110.297 263.89 109.166 264.953 108.103C266.016 107.04 267.096 106.029 268.193 105.069C271.45 102.223 273.953 100.8 275.701 100.8C276.901 100.8 277.501 101.366 277.501 102.497C277.501 103.594 277.141 104.143 276.421 104.143C276.078 104.143 275.821 103.851 275.65 103.269C275.547 102.857 275.307 102.651 274.93 102.651C274.347 102.651 273.216 103.286 271.536 104.554C269.684 105.926 267.816 107.554 265.93 109.44C264.078 111.326 262.107 113.726 260.016 116.64L257.444 120.24C257.307 120.411 257.17 120.549 257.033 120.651C256.93 120.789 256.758 120.857 256.518 120.857ZM289.19 121.32C287.51 121.32 286.67 120.103 286.67 117.669C286.67 116.366 286.979 114.789 287.596 112.937C283.448 117.771 280.19 120.189 277.825 120.189C275.87 120.189 274.893 119.006 274.893 116.64C274.893 115.749 275.03 114.686 275.305 113.451C275.613 112.183 276.008 110.88 276.488 109.543C277.002 108.206 277.55 106.954 278.133 105.789C278.716 104.623 279.299 103.68 279.882 102.96C280.088 102.72 280.345 102.6 280.653 102.6C280.825 102.6 280.996 102.669 281.168 102.806C281.339 102.909 281.425 103.08 281.425 103.32C281.425 103.526 281.305 103.817 281.065 104.194C279.522 106.731 278.425 108.943 277.773 110.829C276.95 112.989 276.539 114.857 276.539 116.434C276.539 117.909 276.916 118.646 277.67 118.646C278.15 118.646 278.785 118.406 279.573 117.926C280.362 117.446 281.168 116.863 281.99 116.177C282.848 115.457 283.585 114.789 284.202 114.171C285.916 112.354 287.459 110.417 288.83 108.36C289.448 107.4 289.996 106.474 290.476 105.583C290.99 104.657 291.453 103.697 291.865 102.703C292.036 102.326 292.173 102.051 292.276 101.88C292.413 101.674 292.602 101.571 292.842 101.571C293.562 101.571 293.922 101.846 293.922 102.394C293.922 102.737 293.802 102.977 293.562 103.114C290.065 110.211 288.316 115.097 288.316 117.771C288.316 118.491 288.385 119.006 288.522 119.314C288.659 119.589 288.899 119.726 289.242 119.726C289.722 119.726 290.459 119.417 291.453 118.8C292.482 118.183 293.682 117.24 295.053 115.971L300.453 111.034C300.728 110.76 300.985 110.623 301.225 110.623C301.773 110.623 302.048 110.88 302.048 111.394C302.048 111.84 300.968 113.04 298.808 114.994C297.882 115.851 297.059 116.571 296.339 117.154C295.619 117.737 294.95 118.251 294.333 118.697C293.168 119.52 292.139 120.154 291.248 120.6C290.356 121.08 289.67 121.32 289.19 121.32ZM297.149 120.857C296.6 120.857 296.326 120.634 296.326 120.189C296.326 119.983 296.378 119.777 296.48 119.571C296.618 119.366 296.72 119.194 296.789 119.057L301.469 109.594C303.458 105.549 304.452 103.303 304.452 102.857C304.452 102.377 304.692 102.137 305.172 102.137C305.823 102.137 306.149 102.463 306.149 103.114C306.149 103.457 305.995 104.006 305.686 104.76C305.378 105.514 304.983 106.389 304.503 107.383C303.68 109.166 302.995 110.537 302.446 111.497C303.475 110.297 304.52 109.166 305.583 108.103C306.646 107.04 307.726 106.029 308.823 105.069C312.08 102.223 314.583 100.8 316.332 100.8C317.532 100.8 318.132 101.366 318.132 102.497C318.132 103.594 317.772 104.143 317.052 104.143C316.709 104.143 316.452 103.851 316.28 103.269C316.178 102.857 315.938 102.651 315.56 102.651C314.978 102.651 313.846 103.286 312.166 104.554C310.315 105.926 308.446 107.554 306.56 109.44C304.709 111.326 302.738 113.726 300.646 116.64L298.075 120.24C297.938 120.411 297.8 120.549 297.663 120.651C297.56 120.789 297.389 120.857 297.149 120.857ZM317.684 120.086C315.695 120.086 314.701 119.143 314.701 117.257C314.701 116.023 314.992 114.703 315.575 113.297C316.192 111.857 317.015 110.469 318.044 109.131C319.072 107.76 320.221 106.526 321.49 105.429C322.758 104.297 324.061 103.406 325.398 102.754C326.735 102.069 328.021 101.726 329.255 101.726C331.45 101.726 332.547 102.806 332.547 104.966C332.547 106.371 332.204 107.074 331.518 107.074C330.901 107.074 330.592 106.783 330.592 106.2C330.592 105.96 330.644 105.72 330.747 105.48C330.884 105.206 330.952 104.914 330.952 104.606C330.952 103.646 330.301 103.166 328.998 103.166C326.907 103.166 324.284 104.76 321.13 107.949C320.375 108.737 319.638 109.663 318.918 110.726C318.198 111.789 317.598 112.869 317.118 113.966C316.672 115.029 316.45 116.04 316.45 117C316.45 117.926 316.964 118.389 317.992 118.389C318.884 118.389 319.827 118.114 320.821 117.566C321.85 117.017 322.741 116.451 323.495 115.869C325.004 114.737 326.547 113.194 328.124 111.24C328.364 110.966 328.672 110.606 329.05 110.16C329.427 109.714 329.855 109.217 330.335 108.669C330.507 108.497 330.712 108.411 330.952 108.411C331.501 108.411 331.775 108.686 331.775 109.234L329.821 112.166C328.518 114.086 327.867 115.663 327.867 116.897C327.867 117.789 328.295 118.234 329.152 118.234C329.872 118.234 330.661 118.046 331.518 117.669C332.375 117.291 333.078 116.914 333.627 116.537C334.724 115.817 335.872 114.926 337.072 113.863C338.272 112.766 339.421 111.669 340.518 110.571C340.655 110.434 340.861 110.366 341.135 110.366C341.65 110.366 341.907 110.571 341.907 110.983C341.907 111.36 341.667 111.789 341.187 112.269C339.815 113.64 338.581 114.823 337.484 115.817C336.387 116.777 335.341 117.566 334.347 118.183C333.695 118.56 332.89 118.954 331.93 119.366C330.97 119.777 329.872 119.983 328.638 119.983C326.958 119.983 326.118 119.091 326.118 117.309C326.118 116.623 326.204 116.057 326.375 115.611C323.255 118.594 320.358 120.086 317.684 120.086ZM347.466 99.3086C346.883 99.3086 346.592 99.0172 346.592 98.4343C346.592 98.2629 346.712 97.9543 346.952 97.5086C347.192 97.0286 347.466 96.5486 347.775 96.0686C348.083 95.5886 348.323 95.2629 348.495 95.0915C349.078 94.44 349.523 94.0286 349.832 93.8572C350.175 93.6858 350.483 93.6 350.758 93.6C351.478 93.6 351.838 93.9258 351.838 94.5772C351.838 94.8172 351.683 95.1086 351.375 95.4515C351.101 95.76 350.775 96.0515 350.398 96.3258C349.849 96.6686 349.506 96.9429 349.369 97.1486L348.238 98.7429C348.203 98.88 348.118 99.0172 347.981 99.1543C347.878 99.2572 347.706 99.3086 347.466 99.3086ZM329.312 136.697C328.386 136.697 327.632 136.371 327.049 135.72C326.432 135.103 325.986 134.331 325.712 133.406C325.403 132.514 325.249 131.657 325.249 130.834C325.249 129.84 325.352 128.931 325.558 128.109C325.832 126.909 326.278 126.309 326.895 126.309C327.443 126.309 327.718 126.566 327.718 127.08C327.718 127.217 327.649 127.406 327.512 127.646C327.375 127.886 327.272 128.091 327.203 128.263C326.998 128.811 326.895 129.514 326.895 130.371C326.895 131.434 327.101 132.446 327.512 133.406C327.923 134.4 328.575 134.897 329.466 134.897C330.152 134.897 330.838 134.623 331.523 134.074C332.209 133.526 332.878 132.823 333.529 131.966C334.146 131.143 334.729 130.269 335.278 129.343C335.792 128.417 336.221 127.56 336.563 126.771C337.043 125.709 337.523 124.56 338.003 123.326C338.483 122.091 338.912 120.909 339.289 119.777C339.701 118.646 339.975 117.737 340.112 117.051C340.386 115.68 340.661 114.326 340.935 112.989C341.243 111.617 341.552 110.246 341.861 108.874C342.443 106.44 343.026 104.743 343.609 103.783C344.192 102.823 344.723 102.343 345.203 102.343C345.443 102.343 345.718 102.446 346.026 102.651C346.369 102.857 346.541 103.097 346.541 103.371C346.541 103.509 346.198 104.16 345.512 105.326C345.135 105.977 344.843 106.491 344.638 106.869C344.432 107.246 344.295 107.503 344.226 107.64C344.123 107.88 343.969 108.394 343.763 109.183C343.558 109.971 343.318 110.914 343.043 112.011C342.803 113.074 342.546 114.171 342.272 115.303C341.998 116.434 341.741 117.48 341.501 118.44C341.295 119.366 341.106 120.086 340.935 120.6C340.386 122.383 339.735 124.131 338.981 125.846C338.226 127.56 337.421 129.12 336.563 130.526C334.061 134.64 331.643 136.697 329.312 136.697ZM350.229 120.086C348.24 120.086 347.246 119.143 347.246 117.257C347.246 116.023 347.537 114.703 348.12 113.297C348.737 111.857 349.56 110.469 350.589 109.131C351.617 107.76 352.766 106.526 354.034 105.429C355.303 104.297 356.606 103.406 357.943 102.754C359.28 102.069 360.566 101.726 361.8 101.726C363.994 101.726 365.091 102.806 365.091 104.966C365.091 106.371 364.749 107.074 364.063 107.074C363.446 107.074 363.137 106.783 363.137 106.2C363.137 105.96 363.189 105.72 363.291 105.48C363.429 105.206 363.497 104.914 363.497 104.606C363.497 103.646 362.846 103.166 361.543 103.166C359.451 103.166 356.829 104.76 353.674 107.949C352.92 108.737 352.183 109.663 351.463 110.726C350.743 111.789 350.143 112.869 349.663 113.966C349.217 115.029 348.994 116.04 348.994 117C348.994 117.926 349.509 118.389 350.537 118.389C351.429 118.389 352.371 118.114 353.366 117.566C354.394 117.017 355.286 116.451 356.04 115.869C357.549 114.737 359.091 113.194 360.669 111.24C360.909 110.966 361.217 110.606 361.594 110.16C361.971 109.714 362.4 109.217 362.88 108.669C363.051 108.497 363.257 108.411 363.497 108.411C364.046 108.411 364.32 108.686 364.32 109.234L362.366 112.166C361.063 114.086 360.411 115.663 360.411 116.897C360.411 117.789 360.84 118.234 361.697 118.234C362.417 118.234 363.206 118.046 364.063 117.669C364.92 117.291 365.623 116.914 366.171 116.537C367.269 115.817 368.417 114.926 369.617 113.863C370.817 112.766 371.966 111.669 373.063 110.571C373.2 110.434 373.406 110.366 373.68 110.366C374.194 110.366 374.451 110.571 374.451 110.983C374.451 111.36 374.211 111.789 373.731 112.269C372.36 113.64 371.126 114.823 370.029 115.817C368.931 116.777 367.886 117.566 366.891 118.183C366.24 118.56 365.434 118.954 364.474 119.366C363.514 119.777 362.417 119.983 361.183 119.983C359.503 119.983 358.663 119.091 358.663 117.309C358.663 116.623 358.749 116.057 358.92 115.611C355.8 118.594 352.903 120.086 350.229 120.086Z" fill="#E13939"/>
<path d="M12.9149 46.9429C10.9263 46.9429 9.93205 46 9.93205 44.1143C9.93205 42.88 10.2235 41.56 10.8063 40.1543C11.4235 38.7143 12.2463 37.3257 13.2749 35.9886C14.3035 34.6172 15.4521 33.3829 16.7206 32.2857C17.9892 31.1543 19.2921 30.2629 20.6292 29.6115C21.9663 28.9257 23.2521 28.5829 24.4863 28.5829C26.6806 28.5829 27.7778 29.6629 27.7778 31.8229C27.7778 33.2286 27.4349 33.9315 26.7492 33.9315C26.1321 33.9315 25.8235 33.64 25.8235 33.0572C25.8235 32.8172 25.8749 32.5772 25.9778 32.3372C26.1149 32.0629 26.1835 31.7715 26.1835 31.4629C26.1835 30.5029 25.5321 30.0229 24.2292 30.0229C22.1378 30.0229 19.5149 31.6172 16.3606 34.8057C15.6063 35.5943 14.8692 36.52 14.1492 37.5829C13.4292 38.6457 12.8292 39.7257 12.3492 40.8229C11.9035 41.8857 11.6806 42.8972 11.6806 43.8572C11.6806 44.7829 12.1949 45.2457 13.2235 45.2457C14.1149 45.2457 15.0578 44.9715 16.0521 44.4229C17.0806 43.8743 17.9721 43.3086 18.7263 42.7257C20.2349 41.5943 21.7778 40.0515 23.3549 38.0972C23.5949 37.8229 23.9035 37.4629 24.2806 37.0172C24.6578 36.5715 25.0863 36.0743 25.5663 35.5257C25.7378 35.3543 25.9435 35.2686 26.1835 35.2686C26.7321 35.2686 27.0063 35.5429 27.0063 36.0915L25.0521 39.0229C23.7492 40.9429 23.0978 42.52 23.0978 43.7543C23.0978 44.6457 23.5263 45.0915 24.3835 45.0915C25.1035 45.0915 25.8921 44.9029 26.7492 44.5257C27.6063 44.1486 28.3092 43.7715 28.8578 43.3943C29.9549 42.6743 31.1035 41.7829 32.3035 40.72C33.5035 39.6229 34.6521 38.5257 35.7492 37.4286C35.8863 37.2915 36.0921 37.2229 36.3663 37.2229C36.8806 37.2229 37.1378 37.4286 37.1378 37.84C37.1378 38.2172 36.8978 38.6457 36.4178 39.1257C35.0463 40.4972 33.8121 41.68 32.7149 42.6743C31.6178 43.6343 30.5721 44.4229 29.5778 45.04C28.9263 45.4172 28.1206 45.8115 27.1606 46.2229C26.2006 46.6343 25.1035 46.84 23.8692 46.84C22.1892 46.84 21.3492 45.9486 21.3492 44.1657C21.3492 43.48 21.4349 42.9143 21.6063 42.4686C18.4863 45.4515 15.5892 46.9429 12.9149 46.9429ZM39.663 47.8172C38.0858 47.8172 36.8687 47.3372 36.0116 46.3772C35.1887 45.3829 34.7773 44.08 34.7773 42.4686C34.7773 41.3029 34.983 39.8972 35.3944 38.2515C36.1144 35.4743 37.3316 32.2515 39.0458 28.5829C40.383 25.8057 41.823 23.08 43.3658 20.4057C44.9087 17.6972 46.6058 15.04 48.4573 12.4343C51.4058 8.25146 53.463 6.16003 54.6287 6.16003C55.383 6.16003 55.7601 6.36575 55.7601 6.77718C55.7601 7.36003 54.8001 8.81718 52.8801 11.1486L49.2801 15.52C46.1601 19.2915 43.6058 23.1486 41.6173 27.0915C39.663 31.0343 38.1373 34.9772 37.0401 38.92C36.7316 40.0515 36.5773 41.1143 36.5773 42.1086C36.5773 44.7143 37.6401 46.0172 39.7658 46.0172C40.5201 46.0172 41.2916 45.7943 42.0801 45.3486C42.8687 44.9372 43.2973 44.7315 43.3658 44.7315C43.7773 44.7315 43.983 45.0229 43.983 45.6057C43.983 46.12 43.7944 46.5143 43.4173 46.7886C42.2516 47.4743 41.0001 47.8172 39.663 47.8172ZM52.6708 47.8172C51.0937 47.8172 49.8765 47.3372 49.0194 46.3772C48.1965 45.3829 47.7851 44.08 47.7851 42.4686C47.7851 41.3029 47.9908 39.8972 48.4022 38.2515C49.1222 35.4743 50.3394 32.2515 52.0537 28.5829C53.3908 25.8057 54.8308 23.08 56.3737 20.4057C57.9165 17.6972 59.6137 15.04 61.4651 12.4343C64.4137 8.25146 66.4708 6.16003 67.6365 6.16003C68.3908 6.16003 68.7679 6.36575 68.7679 6.77718C68.7679 7.36003 67.8079 8.81718 65.8879 11.1486L62.2879 15.52C59.1679 19.2915 56.6137 23.1486 54.6251 27.0915C52.6708 31.0343 51.1451 34.9772 50.0479 38.92C49.7394 40.0515 49.5851 41.1143 49.5851 42.1086C49.5851 44.7143 50.6479 46.0172 52.7737 46.0172C53.5279 46.0172 54.2994 45.7943 55.0879 45.3486C55.8765 44.9372 56.3051 44.7315 56.3737 44.7315C56.7851 44.7315 56.9908 45.0229 56.9908 45.6057C56.9908 46.12 56.8022 46.5143 56.4251 46.7886C55.2594 47.4743 54.0079 47.8172 52.6708 47.8172ZM71.9621 60.6229C70.3507 60.6229 69.545 59.4743 69.545 57.1772C69.545 54.16 70.865 49.36 73.505 42.7772C73.9507 41.68 74.4821 40.5315 75.0993 39.3315C75.7164 38.1315 76.4364 36.8629 77.2593 35.5257C78.1164 34.0857 78.9221 32.8343 79.6764 31.7715C80.465 30.7086 81.1507 29.8515 81.7336 29.2C81.9393 28.9943 82.1107 28.8572 82.2479 28.7886C82.4193 28.72 82.5564 28.6857 82.6593 28.6857C83.5507 28.6857 84.5621 28.9429 85.6936 29.4572C86.825 29.9715 87.8364 30.6229 88.7279 31.4115C89.5507 32.0972 90.2193 32.92 90.7336 33.88C91.2479 34.84 91.505 35.8343 91.505 36.8629C91.505 37.6172 91.3507 38.3886 91.0421 39.1772C90.7679 39.9315 90.3907 40.6857 89.9107 41.44C90.8021 41.2686 91.8821 40.8743 93.1507 40.2572C94.4536 39.64 95.7736 38.6972 97.1107 37.4286C97.2479 37.2915 97.4364 37.2229 97.6764 37.2229C98.1907 37.2229 98.4479 37.4286 98.4479 37.84C98.4479 38.0115 98.3621 38.2343 98.1907 38.5086C98.0536 38.7486 97.7964 39.0572 97.4193 39.4343C94.8821 41.7657 91.8307 43.1029 88.265 43.4457C87.7507 43.9943 87.185 44.5257 86.5679 45.04C85.985 45.52 85.3679 45.9657 84.7164 46.3772C82.7279 47.5772 81.0307 48.1772 79.625 48.1772C79.0421 48.1772 78.5621 47.9886 78.185 47.6115C77.8079 47.2343 77.6193 46.8057 77.6193 46.3257C77.6193 44.7486 78.9907 43.5486 81.7336 42.7257C82.7279 42.4515 83.7221 42.2115 84.7164 42.0057C85.7107 41.8 86.6879 41.5772 87.6479 41.3372C88.3336 40.2743 88.8307 39.3486 89.1393 38.56C89.4821 37.7715 89.6536 37.1029 89.6536 36.5543C89.6536 34.7372 88.2993 33.0057 85.5907 31.36C84.5279 30.7086 83.6879 30.4 83.0707 30.4343C80.2593 33.52 77.6021 37.84 75.0993 43.3943C72.4936 49.12 71.1907 53.6286 71.1907 56.92C71.1907 57.7086 71.2593 58.24 71.3964 58.5143C71.5336 58.7886 71.7736 58.9257 72.1164 58.9257C72.2193 58.9257 72.305 58.9086 72.3736 58.8743C72.4421 58.8743 72.5107 58.8743 72.5793 58.8743C73.025 58.8743 73.2479 59.1486 73.2479 59.6972C73.2479 60.3143 72.8193 60.6229 71.9621 60.6229ZM79.985 46.5315C81.2536 46.5315 83.0879 45.5372 85.4879 43.5486C84.9393 43.6172 84.4079 43.7029 83.8936 43.8057C83.4136 43.9086 82.7107 44.0972 81.785 44.3715C80.2421 44.8172 79.4707 45.3829 79.4707 46.0686C79.4707 46.3772 79.6421 46.5315 79.985 46.5315ZM95.0138 47.3543C94.4652 47.3543 94.1909 47.08 94.1909 46.5315C94.1909 45.8115 94.4481 44.68 94.9624 43.1372C95.4766 41.56 96.1452 39.76 96.9681 37.7372C97.8252 35.68 98.7338 33.5715 99.6938 31.4115C100.242 30.2115 100.808 29.0457 101.391 27.9143C101.974 26.7486 102.522 25.7372 103.037 24.88C108.111 16.3086 111.265 12.0229 112.5 12.0229C112.98 12.0229 113.22 12.2629 113.22 12.7429C113.22 13.0515 112.98 13.6343 112.5 14.4915C112.054 15.3143 111.454 16.2915 110.7 17.4229C109.98 18.52 109.191 19.6343 108.334 20.7657C107.511 21.8972 106.722 22.9429 105.968 23.9029C105.248 24.8286 104.665 25.5315 104.22 26.0115C103.842 26.4572 103.414 27.1086 102.934 27.9657C102.488 28.8229 102.042 29.7143 101.597 30.64C101.151 31.5315 100.791 32.32 100.517 33.0057L98.5624 37.84C99.0766 37.1543 99.7452 36.3829 100.568 35.5257C102.522 33.3657 104.545 31.7372 106.637 30.64C108.762 29.5086 110.545 28.9429 111.985 28.9429C112.774 28.9429 113.408 29.1829 113.888 29.6629C114.368 30.1429 114.608 30.7257 114.608 31.4115C114.608 32.7486 113.734 34.9943 111.985 38.1486C110.237 41.2686 109.362 43.1886 109.362 43.9086C109.362 44.2857 109.568 44.4743 109.98 44.4743C110.94 44.4743 111.985 44.1315 113.117 43.4457C114.248 42.7257 115.414 41.8172 116.614 40.72C117.814 39.6229 118.98 38.5257 120.111 37.4286C120.248 37.2915 120.454 37.2229 120.728 37.2229C121.242 37.2229 121.5 37.4286 121.5 37.84C121.5 38.2172 121.26 38.6457 120.78 39.1257C118.482 41.4229 116.511 43.1372 114.865 44.2686C113.22 45.4 111.488 45.9657 109.671 45.9657C108.3 45.9657 107.614 45.3315 107.614 44.0629C107.614 43.5829 107.7 43.12 107.871 42.6743C108.042 42.2286 108.317 41.6286 108.694 40.8743L111.06 36.1943C111.642 35.0286 112.071 34.0515 112.345 33.2629C112.62 32.4743 112.757 31.8743 112.757 31.4629C112.757 30.88 112.397 30.5886 111.677 30.5886C110.408 30.5886 108.917 31.1029 107.202 32.1315C105.522 33.1257 103.722 34.6343 101.802 36.6572C100.705 37.8229 99.7109 39.0572 98.8195 40.36C97.9624 41.6629 97.2766 43.0686 96.7624 44.5772L96.1452 46.3772C95.9052 47.0286 95.5281 47.3543 95.0138 47.3543ZM122.598 46.1715C119.821 46.1715 118.432 44.6115 118.432 41.4915C118.432 40.0515 118.775 38.5429 119.461 36.9657C120.147 35.3886 121.055 33.9315 122.187 32.5943C123.318 31.2229 124.569 30.1086 125.941 29.2515C127.347 28.3943 128.769 27.9657 130.209 27.9657C131.478 27.9657 132.404 28.4457 132.987 29.4057C133.569 30.3657 133.861 31.4286 133.861 32.5943C133.861 34.1372 133.552 35.7143 132.935 37.3257C132.318 38.9029 131.478 40.36 130.415 41.6972C129.352 43.0343 128.152 44.1143 126.815 44.9372C125.478 45.76 124.072 46.1715 122.598 46.1715ZM122.547 44.5257C122.752 44.5257 122.872 44.5086 122.907 44.4743C124.244 44.3029 125.478 43.8229 126.609 43.0343C127.741 42.2457 128.718 41.2686 129.541 40.1029C130.398 38.9029 131.049 37.6172 131.495 36.2457C131.941 34.8743 132.164 33.52 132.164 32.1829C132.164 31.3943 131.941 30.7772 131.495 30.3315C131.049 29.8857 130.484 29.6629 129.798 29.6629C128.804 29.6629 127.741 30.0743 126.609 30.8972C125.512 31.72 124.467 32.7657 123.472 34.0343C122.512 35.3029 121.724 36.64 121.107 38.0457C120.489 39.4172 120.181 40.6515 120.181 41.7486C120.181 43.6 120.969 44.5257 122.547 44.5257ZM135.61 49.9772C134.958 49.9772 134.633 49.4629 134.633 48.4343C134.633 46.9257 135.473 44.2857 137.153 40.5143C138.867 36.7429 141.404 31.8057 144.764 25.7029C143.461 25.7029 142.227 25.8743 141.061 26.2172C139.93 26.5257 139.33 26.92 139.261 27.4C139.227 27.5372 139.141 27.6743 139.004 27.8115C138.901 27.9143 138.73 27.9657 138.49 27.9657C137.941 27.9657 137.667 27.6915 137.667 27.1429C137.667 26.2515 138.37 25.5143 139.776 24.9315C141.181 24.3486 143.153 24.0572 145.69 24.0572L149.238 18.1943C149.478 17.8172 149.736 17.4057 150.01 16.96C150.284 16.48 150.593 15.9657 150.936 15.4172C151.278 14.9372 151.673 14.6972 152.118 14.6972C152.393 14.6972 152.598 14.7829 152.736 14.9543C152.873 15.0915 152.941 15.2457 152.941 15.4172C152.941 15.9315 152.187 17.3029 150.678 19.5315C148.793 22.3086 147.781 23.8172 147.644 24.0572C148.158 24.0572 148.93 24.1086 149.958 24.2115C150.987 24.28 152.204 24.4 153.61 24.5715C154.124 24.6057 154.381 24.8629 154.381 25.3429C154.381 25.8915 154.073 26.1657 153.456 26.1657C153.216 26.1657 152.736 26.1315 152.016 26.0629C151.296 25.96 150.524 25.8743 149.701 25.8057C148.878 25.7372 148.176 25.72 147.593 25.7543L146.821 25.8057C139.861 38.0457 136.398 45.6572 136.433 48.64L136.484 49.0515V49.1543C136.484 49.7029 136.193 49.9772 135.61 49.9772ZM151.476 46.1715C148.699 46.1715 147.311 44.6115 147.311 41.4915C147.311 40.0515 147.653 38.5429 148.339 36.9657C149.025 35.3886 149.933 33.9315 151.065 32.5943C152.196 31.2229 153.448 30.1086 154.819 29.2515C156.225 28.3943 157.648 27.9657 159.088 27.9657C160.356 27.9657 161.282 28.4457 161.865 29.4057C162.448 30.3657 162.739 31.4286 162.739 32.5943C162.739 34.1372 162.431 35.7143 161.813 37.3257C161.196 38.9029 160.356 40.36 159.293 41.6972C158.231 43.0343 157.031 44.1143 155.693 44.9372C154.356 45.76 152.951 46.1715 151.476 46.1715ZM151.425 44.5257C151.631 44.5257 151.751 44.5086 151.785 44.4743C153.122 44.3029 154.356 43.8229 155.488 43.0343C156.619 42.2457 157.596 41.2686 158.419 40.1029C159.276 38.9029 159.928 37.6172 160.373 36.2457C160.819 34.8743 161.042 33.52 161.042 32.1829C161.042 31.3943 160.819 30.7772 160.373 30.3315C159.928 29.8857 159.362 29.6629 158.676 29.6629C157.682 29.6629 156.619 30.0743 155.488 30.8972C154.391 31.72 153.345 32.7657 152.351 34.0343C151.391 35.3029 150.602 36.64 149.985 38.0457C149.368 39.4172 149.059 40.6515 149.059 41.7486C149.059 43.6 149.848 44.5257 151.425 44.5257ZM165.465 48.1257C163.545 48.1257 162.585 47.4915 162.585 46.2229C162.585 45.4343 162.86 44.6457 163.408 43.8572C163.991 43.0686 164.677 42.3486 165.465 41.6972C166.254 41.0457 166.991 40.5486 167.677 40.2057C167.882 40.1029 168.157 40 168.5 39.8972C168.877 39.7943 169.185 39.7429 169.425 39.7429C169.7 39.7429 169.837 39.8457 169.837 40.0515C169.837 40.2229 169.648 40.4115 169.271 40.6172C167.694 41.3715 166.46 42.28 165.568 43.3429C164.711 44.3715 164.282 45.2115 164.282 45.8629C164.282 46.48 164.814 46.7886 165.877 46.7886C166.768 46.7886 167.728 46.5657 168.757 46.12C169.82 45.6743 170.814 45.0915 171.74 44.3715C172.7 43.6515 173.488 42.88 174.105 42.0572C174.722 41.2343 175.031 40.4457 175.031 39.6915C175.031 39.1772 174.86 38.7143 174.517 38.3029C174.208 37.8915 173.694 37.5829 172.974 37.3772L169.58 36.3486C168.722 36.0743 168.105 35.7143 167.728 35.2686C167.351 34.8229 167.162 34.3257 167.162 33.7772C167.162 32.7486 167.54 31.8229 168.294 31C169.082 30.1772 170.06 29.5257 171.225 29.0457C172.391 28.5657 173.522 28.3257 174.62 28.3257C175.717 28.3257 176.677 28.6 177.5 29.1486C178.322 29.6629 178.734 30.3657 178.734 31.2572C178.734 31.7715 178.58 32.2515 178.271 32.6972C177.997 33.1429 177.671 33.3657 177.294 33.3657C176.711 33.3657 176.42 33.1257 176.42 32.6457C176.42 32.4743 176.505 32.2686 176.677 32.0286C176.882 31.7543 176.985 31.4972 176.985 31.2572C176.985 30.2286 176.197 29.7143 174.62 29.7143C173.762 29.7143 172.905 29.9029 172.048 30.28C171.225 30.6229 170.54 31.0857 169.991 31.6686C169.442 32.2515 169.168 32.8857 169.168 33.5715C169.168 34.2572 169.854 34.8057 171.225 35.2172L174.517 36.2457C175.511 36.5543 176.197 36.9829 176.574 37.5315C176.951 38.0457 177.14 38.6286 177.14 39.28C177.14 40.8229 176.197 42.4172 174.311 44.0629C171.26 46.7715 168.311 48.1257 165.465 48.1257ZM195.024 49.9772C194.372 49.9772 194.047 49.4629 194.047 48.4343C194.047 46.9257 194.887 44.2857 196.567 40.5143C198.281 36.7429 200.818 31.8057 204.178 25.7029C202.875 25.7029 201.641 25.8743 200.475 26.2172C199.344 26.5257 198.744 26.92 198.675 27.4C198.641 27.5372 198.555 27.6743 198.418 27.8115C198.315 27.9143 198.144 27.9657 197.904 27.9657C197.355 27.9657 197.081 27.6915 197.081 27.1429C197.081 26.2515 197.784 25.5143 199.19 24.9315C200.595 24.3486 202.567 24.0572 205.104 24.0572L208.652 18.1943C208.892 17.8172 209.15 17.4057 209.424 16.96C209.698 16.48 210.007 15.9657 210.35 15.4172C210.692 14.9372 211.087 14.6972 211.532 14.6972C211.807 14.6972 212.012 14.7829 212.15 14.9543C212.287 15.0915 212.355 15.2457 212.355 15.4172C212.355 15.9315 211.601 17.3029 210.092 19.5315C208.207 22.3086 207.195 23.8172 207.058 24.0572C207.572 24.0572 208.344 24.1086 209.372 24.2115C210.401 24.28 211.618 24.4 213.024 24.5715C213.538 24.6057 213.795 24.8629 213.795 25.3429C213.795 25.8915 213.487 26.1657 212.87 26.1657C212.63 26.1657 212.15 26.1315 211.43 26.0629C210.71 25.96 209.938 25.8743 209.115 25.8057C208.292 25.7372 207.59 25.72 207.007 25.7543L206.235 25.8057C199.275 38.0457 195.812 45.6572 195.847 48.64L195.898 49.0515V49.1543C195.898 49.7029 195.607 49.9772 195.024 49.9772ZM208.936 46.9429C206.948 46.9429 205.953 46 205.953 44.1143C205.953 42.88 206.245 41.56 206.828 40.1543C207.445 38.7143 208.268 37.3257 209.296 35.9886C210.325 34.6172 211.473 33.3829 212.742 32.2857C214.01 31.1543 215.313 30.2629 216.65 29.6115C217.988 28.9257 219.273 28.5829 220.508 28.5829C222.702 28.5829 223.799 29.6629 223.799 31.8229C223.799 33.2286 223.456 33.9315 222.77 33.9315C222.153 33.9315 221.845 33.64 221.845 33.0572C221.845 32.8172 221.896 32.5772 221.999 32.3372C222.136 32.0629 222.205 31.7715 222.205 31.4629C222.205 30.5029 221.553 30.0229 220.25 30.0229C218.159 30.0229 215.536 31.6172 212.382 34.8057C211.628 35.5943 210.89 36.52 210.17 37.5829C209.45 38.6457 208.85 39.7257 208.37 40.8229C207.925 41.8857 207.702 42.8972 207.702 43.8572C207.702 44.7829 208.216 45.2457 209.245 45.2457C210.136 45.2457 211.079 44.9715 212.073 44.4229C213.102 43.8743 213.993 43.3086 214.748 42.7257C216.256 41.5943 217.799 40.0515 219.376 38.0972C219.616 37.8229 219.925 37.4629 220.302 37.0172C220.679 36.5715 221.108 36.0743 221.588 35.5257C221.759 35.3543 221.965 35.2686 222.205 35.2686C222.753 35.2686 223.028 35.5429 223.028 36.0915L221.073 39.0229C219.77 40.9429 219.119 42.52 219.119 43.7543C219.119 44.6457 219.548 45.0915 220.405 45.0915C221.125 45.0915 221.913 44.9029 222.77 44.5257C223.628 44.1486 224.33 43.7715 224.879 43.3943C225.976 42.6743 227.125 41.7829 228.325 40.72C229.525 39.6229 230.673 38.5257 231.77 37.4286C231.908 37.2915 232.113 37.2229 232.388 37.2229C232.902 37.2229 233.159 37.4286 233.159 37.84C233.159 38.2172 232.919 38.6457 232.439 39.1257C231.068 40.4972 229.833 41.68 228.736 42.6743C227.639 43.6343 226.593 44.4229 225.599 45.04C224.948 45.4172 224.142 45.8115 223.182 46.2229C222.222 46.6343 221.125 46.84 219.89 46.84C218.21 46.84 217.37 45.9486 217.37 44.1657C217.37 43.48 217.456 42.9143 217.628 42.4686C214.508 45.4515 211.61 46.9429 208.936 46.9429ZM244.118 48.8457C243.776 48.8457 243.518 48.64 243.347 48.2286L242.627 46.48C241.873 44.6629 240.793 42.8629 239.387 41.08C237.981 39.2629 236.593 37.6 235.221 36.0915C234.467 37.6343 233.798 39.0229 233.216 40.2572C232.633 41.4915 232.101 42.6572 231.621 43.7543C231.141 44.8172 230.627 45.9315 230.078 47.0972C229.941 47.44 229.701 47.6115 229.358 47.6115C228.776 47.6115 228.484 47.3715 228.484 46.8915C228.484 46.6857 228.553 46.4286 228.69 46.12C228.861 45.7772 229.016 45.4343 229.153 45.0915C230.044 42.9315 231.193 40.36 232.598 37.3772C234.038 34.3943 235.667 31.1372 237.484 27.6057C240.947 20.8515 243.724 16.0172 245.816 13.1029C246.296 12.4172 246.758 11.8 247.204 11.2515C247.684 10.7029 248.096 10.4286 248.438 10.4286C249.056 10.4286 249.364 10.7543 249.364 11.4057C249.364 12.2972 248.061 14.6629 245.456 18.5029C245.25 18.8115 244.89 19.3257 244.376 20.0457C243.861 20.7657 243.313 21.5543 242.73 22.4115C242.147 23.2343 241.598 24.0057 241.084 24.7257C240.604 25.4115 240.278 25.8915 240.107 26.1657L236.404 33.52C244.701 28.6857 249.158 26.2686 249.776 26.2686C250.324 26.2686 250.598 26.5772 250.598 27.1943C250.598 27.5715 250.393 27.8457 249.981 28.0172C248.473 28.7372 247.273 29.32 246.381 29.7657C245.524 30.2115 244.65 30.6743 243.758 31.1543C243.004 31.6343 242.027 32.2172 240.827 32.9029C239.661 33.5886 238.273 34.3772 236.661 35.2686C237.484 36.16 238.376 37.2057 239.336 38.4057C240.296 39.5715 241.187 40.7886 242.01 42.0572C242.867 43.2915 243.57 44.44 244.118 45.5029C244.667 46.5657 244.941 47.4229 244.941 48.0743C244.941 48.5886 244.667 48.8457 244.118 48.8457ZM254.206 47.3543C252.766 47.3543 251.634 46.8572 250.811 45.8629C249.989 44.8686 249.577 43.6515 249.577 42.2115C249.577 39.7429 250.4 37.2057 252.046 34.6C252.491 33.88 253.006 33.1772 253.589 32.4915C254.171 31.7715 254.806 31.0857 255.491 30.4343C256.52 29.44 257.6 28.6172 258.731 27.9657C259.863 27.3143 260.96 26.9886 262.023 26.9886C263.771 26.9886 264.646 27.8115 264.646 29.4572C264.646 31.5143 263.446 33.3829 261.046 35.0629C258.817 36.5715 256.623 37.3257 254.463 37.3257C254.086 37.3257 253.743 37.3086 253.434 37.2743C253.16 37.2057 252.903 37.1372 252.663 37.0686C252.32 37.72 252.011 38.56 251.737 39.5886C251.463 40.6172 251.326 41.5086 251.326 42.2629C251.326 44.5257 252.32 45.6572 254.309 45.6572C255.92 45.6572 257.446 45.3829 258.886 44.8343C260.326 44.2515 262.04 43.1715 264.029 41.5943C265.263 40.6343 266.189 39.8629 266.806 39.28C267.423 38.6972 268.091 38.08 268.811 37.4286C269.017 37.2915 269.206 37.2229 269.377 37.2229C269.549 37.2229 269.72 37.2743 269.891 37.3772C270.063 37.48 270.149 37.6343 270.149 37.84C270.149 38.2172 269.806 38.7486 269.12 39.4343C268.537 39.9829 267.92 40.5657 267.269 41.1829C266.617 41.7657 265.589 42.5886 264.183 43.6515C262.674 44.8172 261.029 45.7257 259.246 46.3772C257.463 47.0286 255.783 47.3543 254.206 47.3543ZM254.154 35.68C255.251 35.68 256.297 35.5086 257.291 35.1657C258.286 34.8229 259.229 34.3257 260.12 33.6743C262.109 32.2 263.103 30.8115 263.103 29.5086C263.103 28.9257 262.743 28.6343 262.023 28.6343C260.651 28.6343 259.057 29.4743 257.24 31.1543C256.349 31.9772 255.611 32.7315 255.029 33.4172C254.48 34.0686 253.966 34.7886 253.486 35.5772C253.691 35.6457 253.914 35.68 254.154 35.68ZM265.343 47.7143C264.795 47.7143 264.52 47.4915 264.52 47.0457C264.52 46.8743 264.589 46.6686 264.726 46.4286C264.863 46.1543 264.983 45.9315 265.086 45.76L269.715 36.4515C271.703 32.4057 272.697 30.16 272.697 29.7143C272.697 29.2343 272.937 28.9943 273.417 28.9943C274.069 28.9943 274.395 29.3372 274.395 30.0229C274.395 30.2629 274.24 30.7772 273.932 31.5657C273.623 32.3543 273.229 33.2457 272.749 34.24C271.926 36.0229 271.24 37.3943 270.692 38.3543C271.72 37.1543 272.766 36.0229 273.829 34.96C274.892 33.8972 275.972 32.8857 277.069 31.9257C280.326 29.08 282.829 27.6572 284.577 27.6572C285.777 27.6572 286.377 28.2229 286.377 29.3543C286.377 30.3829 285.503 32.6972 283.755 36.2972C282.006 39.9315 281.132 42.2286 281.132 43.1886C281.132 43.6343 281.286 43.8572 281.595 43.8572C281.697 43.8572 281.852 43.8229 282.057 43.7543C282.297 43.6515 282.537 43.6 282.777 43.6C283.36 43.6 283.652 43.8743 283.652 44.4229C283.652 45.1086 282.915 45.4515 281.44 45.4515C280.755 45.4515 280.257 45.2972 279.949 44.9886C279.64 44.6457 279.486 44.2 279.486 43.6515C279.486 42.0057 280.326 39.5029 282.006 36.1429C283.686 32.8172 284.526 30.8115 284.526 30.1257C284.526 29.7143 284.372 29.5086 284.063 29.5086C283.309 29.5086 282.092 30.1429 280.412 31.4115C278.595 32.7829 276.777 34.36 274.96 36.1429C273.143 37.9257 271.412 39.9657 269.766 42.2629L266.166 47.2515C265.96 47.56 265.686 47.7143 265.343 47.7143ZM313.308 42.2629C312.759 42.2629 312.485 41.7829 312.485 40.8229C312.485 39.3486 313.102 36.8457 314.336 33.3143L311.559 33.7772C309.708 34.0857 308.268 34.5657 307.239 35.2172C306.999 35.3543 306.793 35.4229 306.622 35.4229C305.833 35.4229 305.439 35.08 305.439 34.3943C305.439 33.2972 308.61 32.4057 314.953 31.72C315.228 31.0343 315.468 30.4515 315.673 29.9715C315.879 29.4572 316.05 29.0286 316.188 28.6857C316.736 27.5543 317.302 26.5086 317.885 25.5486C318.502 24.5886 319.136 23.7315 319.788 22.9772C319.925 22.8057 320.045 22.72 320.148 22.72C320.25 22.72 320.302 22.7886 320.302 22.9257C320.302 23.0972 319.822 24.16 318.862 26.1143C318.45 26.9715 318.056 27.8457 317.679 28.7372C317.302 29.6286 316.942 30.5715 316.599 31.5657L318.913 31.4629C321.553 31.4629 323.799 31.7029 325.65 32.1829C325.925 32.1829 326.062 32.2686 326.062 32.44C326.062 32.6115 325.788 32.7143 325.239 32.7486C324.862 32.8172 324.33 32.8172 323.645 32.7486L322.462 32.6972C321.468 32.6972 320.439 32.7315 319.376 32.8C318.313 32.8686 317.199 32.9715 316.033 33.1086L315.056 36.3486C314.542 38.2343 314.336 39.7429 314.439 40.8743C314.508 41.1829 314.405 41.4915 314.13 41.8C313.89 42.1086 313.616 42.2629 313.308 42.2629ZM348.324 47.3543C346.884 47.3543 345.753 46.8572 344.93 45.8629C344.107 44.8686 343.695 43.6515 343.695 42.2115C343.695 39.7429 344.518 37.2057 346.164 34.6C346.61 33.88 347.124 33.1772 347.707 32.4915C348.29 31.7715 348.924 31.0857 349.61 30.4343C350.638 29.44 351.718 28.6172 352.85 27.9657C353.981 27.3143 355.078 26.9886 356.141 26.9886C357.89 26.9886 358.764 27.8115 358.764 29.4572C358.764 31.5143 357.564 33.3829 355.164 35.0629C352.935 36.5715 350.741 37.3257 348.581 37.3257C348.204 37.3257 347.861 37.3086 347.553 37.2743C347.278 37.2057 347.021 37.1372 346.781 37.0686C346.438 37.72 346.13 38.56 345.855 39.5886C345.581 40.6172 345.444 41.5086 345.444 42.2629C345.444 44.5257 346.438 45.6572 348.427 45.6572C350.038 45.6572 351.564 45.3829 353.004 44.8343C354.444 44.2515 356.158 43.1715 358.147 41.5943C359.381 40.6343 360.307 39.8629 360.924 39.28C361.541 38.6972 362.21 38.08 362.93 37.4286C363.135 37.2915 363.324 37.2229 363.495 37.2229C363.667 37.2229 363.838 37.2743 364.01 37.3772C364.181 37.48 364.267 37.6343 364.267 37.84C364.267 38.2172 363.924 38.7486 363.238 39.4343C362.655 39.9829 362.038 40.5657 361.387 41.1829C360.735 41.7657 359.707 42.5886 358.301 43.6515C356.793 44.8172 355.147 45.7257 353.364 46.3772C351.581 47.0286 349.901 47.3543 348.324 47.3543ZM348.273 35.68C349.37 35.68 350.415 35.5086 351.41 35.1657C352.404 34.8229 353.347 34.3257 354.238 33.6743C356.227 32.2 357.221 30.8115 357.221 29.5086C357.221 28.9257 356.861 28.6343 356.141 28.6343C354.77 28.6343 353.175 29.4743 351.358 31.1543C350.467 31.9772 349.73 32.7315 349.147 33.4172C348.598 34.0686 348.084 34.7886 347.604 35.5772C347.81 35.6457 348.033 35.68 348.273 35.68ZM377.873 51.0057C377.599 51.0057 377.256 50.8686 376.844 50.5943C376.467 50.3543 376.176 50.1143 375.97 49.8743C375.559 49.36 375.284 48.7429 375.147 48.0229C375.01 47.3029 374.941 46.5143 374.941 45.6572C374.941 44.9372 374.959 44.1657 374.993 43.3429C375.061 42.4857 375.164 41.5772 375.301 40.6172C374.41 41.6457 373.399 42.6572 372.267 43.6515C371.17 44.6115 370.039 45.4 368.873 46.0172C367.741 46.6343 366.661 46.9429 365.633 46.9429C363.061 46.9429 361.776 45.5715 361.776 42.8286C361.776 39.9829 362.77 37.24 364.759 34.6C365.753 33.2972 366.884 32.0457 368.153 30.8457C369.421 29.6457 370.759 28.6686 372.164 27.9143C373.57 27.16 374.959 26.7829 376.33 26.7829C377.359 26.7829 378.267 27.1772 379.056 27.9657C379.124 27.8286 379.21 27.6057 379.313 27.2972C379.45 26.9886 379.639 26.5943 379.879 26.1143C380.701 24.3315 381.61 22.48 382.604 20.56C383.599 18.6057 384.49 16.9943 385.279 15.7257C386.17 14.32 387.01 13.6172 387.799 13.6172C388.347 13.6172 388.621 14.0457 388.621 14.9029C388.621 16.3772 387.233 19.8229 384.456 25.24C384.284 25.5486 383.976 26.1143 383.53 26.9372C383.119 27.7257 382.621 28.6515 382.039 29.7143C381.49 30.7429 380.924 31.7715 380.341 32.8C379.759 33.8286 379.227 34.7543 378.747 35.5772C378.301 36.3657 377.976 36.9143 377.77 37.2229C377.393 38.7657 377.101 40.24 376.896 41.6457C376.69 43.0172 376.587 44.44 376.587 45.9143C376.587 46.4629 376.604 46.96 376.639 47.4057C376.707 47.8857 376.844 48.2629 377.05 48.5372C377.221 48.7429 377.41 48.8972 377.616 49C377.821 49.1372 378.061 49.2572 378.336 49.36C378.747 49.4629 378.953 49.7029 378.953 50.08C378.953 50.6972 378.593 51.0057 377.873 51.0057ZM380.29 29.5086C381.593 27.28 382.741 25.2057 383.736 23.2857C384.73 21.3315 385.536 19.4972 386.153 17.7829C384.781 19.5657 383.633 21.4515 382.707 23.44C381.781 25.4286 380.976 27.4515 380.29 29.5086ZM365.273 45.4C366.267 45.4 367.313 45.0743 368.41 44.4229C369.541 43.7372 370.604 42.9315 371.599 42.0057C372.49 41.1829 373.313 40.3429 374.067 39.4857C374.821 38.5943 375.524 37.6857 376.176 36.76C376.45 35.56 376.759 34.3772 377.101 33.2115C377.479 32.0457 377.89 30.88 378.336 29.7143C377.787 28.8572 377.016 28.4286 376.021 28.4286C374.993 28.4286 373.844 28.8229 372.576 29.6115C371.341 30.3657 370.141 31.3086 368.976 32.44C367.844 33.5715 366.867 34.6515 366.044 35.68C364.33 37.9772 363.473 40.4115 363.473 42.9829C363.473 44.5943 364.073 45.4 365.273 45.4ZM393.814 26.1657C393.231 26.1657 392.94 25.8743 392.94 25.2915C392.94 25.12 393.06 24.8115 393.3 24.3657C393.54 23.8857 393.814 23.4057 394.123 22.9257C394.431 22.4457 394.671 22.12 394.843 21.9486C395.426 21.2972 395.871 20.8857 396.18 20.7143C396.523 20.5429 396.831 20.4572 397.106 20.4572C397.826 20.4572 398.186 20.7829 398.186 21.4343C398.186 21.6743 398.031 21.9657 397.723 22.3086C397.448 22.6172 397.123 22.9086 396.746 23.1829C396.197 23.5257 395.854 23.8 395.717 24.0057L394.586 25.6C394.551 25.7372 394.466 25.8743 394.328 26.0115C394.226 26.1143 394.054 26.1657 393.814 26.1657ZM385.071 46.9943C384.111 46.9943 383.408 46.8057 382.963 46.4286C382.551 46.0515 382.346 45.4857 382.346 44.7315C382.346 44.0115 382.568 43.0343 383.014 41.8C383.46 40.5315 384.026 39.1772 384.711 37.7372C385.431 36.2972 386.186 34.9257 386.974 33.6229C387.763 32.32 388.517 31.2572 389.237 30.4343C389.991 29.5772 390.591 29.1486 391.037 29.1486C391.654 29.1486 391.963 29.4229 391.963 29.9715C391.963 30.3143 391.671 30.9657 391.088 31.9257C390.506 32.8857 389.871 33.88 389.186 34.9086C388.911 35.2857 388.534 35.8 388.054 36.4515C387.574 37.1029 387.111 37.72 386.666 38.3029C386.22 38.8515 385.928 39.2286 385.791 39.4343C385.448 39.9486 385.088 40.7886 384.711 41.9543C384.3 43.12 384.094 44.0115 384.094 44.6286C384.094 44.9029 384.146 45.1086 384.248 45.2457C384.386 45.3829 384.677 45.4515 385.123 45.4515C385.98 45.4515 386.94 45.1772 388.003 44.6286C389.066 44.08 390.146 43.3943 391.243 42.5715C392.34 41.7143 393.368 40.84 394.328 39.9486C395.323 39.0572 396.163 38.2857 396.848 37.6343C396.986 37.4972 397.191 37.4286 397.466 37.4286C397.98 37.4286 398.237 37.6343 398.237 38.0457C398.237 38.4229 397.997 38.8515 397.517 39.3315C396.591 40.2572 395.734 41.08 394.946 41.8C394.157 42.52 393.403 43.1543 392.683 43.7029C391.551 44.5257 390.3 45.28 388.928 45.9657C387.557 46.6515 386.271 46.9943 385.071 46.9943ZM395.364 49.9772C394.713 49.9772 394.387 49.4629 394.387 48.4343C394.387 46.9257 395.227 44.2857 396.907 40.5143C398.621 36.7429 401.159 31.8057 404.519 25.7029C403.216 25.7029 401.981 25.8743 400.816 26.2172C399.684 26.5257 399.084 26.92 399.016 27.4C398.981 27.5372 398.896 27.6743 398.759 27.8115C398.656 27.9143 398.484 27.9657 398.244 27.9657C397.696 27.9657 397.421 27.6915 397.421 27.1429C397.421 26.2515 398.124 25.5143 399.53 24.9315C400.936 24.3486 402.907 24.0572 405.444 24.0572L408.993 18.1943C409.233 17.8172 409.49 17.4057 409.764 16.96C410.039 16.48 410.347 15.9657 410.69 15.4172C411.033 14.9372 411.427 14.6972 411.873 14.6972C412.147 14.6972 412.353 14.7829 412.49 14.9543C412.627 15.0915 412.696 15.2457 412.696 15.4172C412.696 15.9315 411.941 17.3029 410.433 19.5315C408.547 22.3086 407.536 23.8172 407.399 24.0572C407.913 24.0572 408.684 24.1086 409.713 24.2115C410.741 24.28 411.959 24.4 413.364 24.5715C413.879 24.6057 414.136 24.8629 414.136 25.3429C414.136 25.8915 413.827 26.1657 413.21 26.1657C412.97 26.1657 412.49 26.1315 411.77 26.0629C411.05 25.96 410.279 25.8743 409.456 25.8057C408.633 25.7372 407.93 25.72 407.347 25.7543L406.576 25.8057C399.616 38.0457 396.153 45.6572 396.187 48.64L396.239 49.0515V49.1543C396.239 49.7029 395.947 49.9772 395.364 49.9772ZM412.208 47.3543C410.768 47.3543 409.637 46.8572 408.814 45.8629C407.991 44.8686 407.579 43.6515 407.579 42.2115C407.579 39.7429 408.402 37.2057 410.048 34.6C410.494 33.88 411.008 33.1772 411.591 32.4915C412.174 31.7715 412.808 31.0857 413.494 30.4343C414.522 29.44 415.602 28.6172 416.734 27.9657C417.865 27.3143 418.962 26.9886 420.025 26.9886C421.774 26.9886 422.648 27.8115 422.648 29.4572C422.648 31.5143 421.448 33.3829 419.048 35.0629C416.819 36.5715 414.625 37.3257 412.465 37.3257C412.088 37.3257 411.745 37.3086 411.437 37.2743C411.162 37.2057 410.905 37.1372 410.665 37.0686C410.322 37.72 410.014 38.56 409.739 39.5886C409.465 40.6172 409.328 41.5086 409.328 42.2629C409.328 44.5257 410.322 45.6572 412.311 45.6572C413.922 45.6572 415.448 45.3829 416.888 44.8343C418.328 44.2515 420.042 43.1715 422.031 41.5943C423.265 40.6343 424.191 39.8629 424.808 39.28C425.425 38.6972 426.094 38.08 426.814 37.4286C427.019 37.2915 427.208 37.2229 427.379 37.2229C427.551 37.2229 427.722 37.2743 427.894 37.3772C428.065 37.48 428.151 37.6343 428.151 37.84C428.151 38.2172 427.808 38.7486 427.122 39.4343C426.539 39.9829 425.922 40.5657 425.271 41.1829C424.619 41.7657 423.591 42.5886 422.185 43.6515C420.677 44.8172 419.031 45.7257 417.248 46.3772C415.465 47.0286 413.785 47.3543 412.208 47.3543ZM412.157 35.68C413.254 35.68 414.299 35.5086 415.294 35.1657C416.288 34.8229 417.231 34.3257 418.122 33.6743C420.111 32.2 421.105 30.8115 421.105 29.5086C421.105 28.9257 420.745 28.6343 420.025 28.6343C418.654 28.6343 417.059 29.4743 415.242 31.1543C414.351 31.9772 413.614 32.7315 413.031 33.4172C412.482 34.0686 411.968 34.7886 411.488 35.5772C411.694 35.6457 411.917 35.68 412.157 35.68ZM441.757 51.0057C441.483 51.0057 441.14 50.8686 440.728 50.5943C440.351 50.3543 440.06 50.1143 439.854 49.8743C439.443 49.36 439.168 48.7429 439.031 48.0229C438.894 47.3029 438.825 46.5143 438.825 45.6572C438.825 44.9372 438.843 44.1657 438.877 43.3429C438.945 42.4857 439.048 41.5772 439.185 40.6172C438.294 41.6457 437.283 42.6572 436.151 43.6515C435.054 44.6115 433.923 45.4 432.757 46.0172C431.625 46.6343 430.545 46.9429 429.517 46.9429C426.945 46.9429 425.66 45.5715 425.66 42.8286C425.66 39.9829 426.654 37.24 428.643 34.6C429.637 33.2972 430.768 32.0457 432.037 30.8457C433.305 29.6457 434.643 28.6686 436.048 27.9143C437.454 27.16 438.843 26.7829 440.214 26.7829C441.243 26.7829 442.151 27.1772 442.94 27.9657C443.008 27.8286 443.094 27.6057 443.197 27.2972C443.334 26.9886 443.523 26.5943 443.763 26.1143C444.585 24.3315 445.494 22.48 446.488 20.56C447.483 18.6057 448.374 16.9943 449.163 15.7257C450.054 14.32 450.894 13.6172 451.683 13.6172C452.231 13.6172 452.505 14.0457 452.505 14.9029C452.505 16.3772 451.117 19.8229 448.34 25.24C448.168 25.5486 447.86 26.1143 447.414 26.9372C447.003 27.7257 446.505 28.6515 445.923 29.7143C445.374 30.7429 444.808 31.7715 444.225 32.8C443.643 33.8286 443.111 34.7543 442.631 35.5772C442.185 36.3657 441.86 36.9143 441.654 37.2229C441.277 38.7657 440.985 40.24 440.78 41.6457C440.574 43.0172 440.471 44.44 440.471 45.9143C440.471 46.4629 440.488 46.96 440.523 47.4057C440.591 47.8857 440.728 48.2629 440.934 48.5372C441.105 48.7429 441.294 48.8972 441.5 49C441.705 49.1372 441.945 49.2572 442.22 49.36C442.631 49.4629 442.837 49.7029 442.837 50.08C442.837 50.6972 442.477 51.0057 441.757 51.0057ZM444.174 29.5086C445.477 27.28 446.625 25.2057 447.62 23.2857C448.614 21.3315 449.42 19.4972 450.037 17.7829C448.665 19.5657 447.517 21.4515 446.591 23.44C445.665 25.4286 444.86 27.4515 444.174 29.5086ZM429.157 45.4C430.151 45.4 431.197 45.0743 432.294 44.4229C433.425 43.7372 434.488 42.9315 435.483 42.0057C436.374 41.1829 437.197 40.3429 437.951 39.4857C438.705 38.5943 439.408 37.6857 440.06 36.76C440.334 35.56 440.643 34.3772 440.985 33.2115C441.363 32.0457 441.774 30.88 442.22 29.7143C441.671 28.8572 440.9 28.4286 439.905 28.4286C438.877 28.4286 437.728 28.8229 436.46 29.6115C435.225 30.3657 434.025 31.3086 432.86 32.44C431.728 33.5715 430.751 34.6515 429.928 35.68C428.214 37.9772 427.357 40.4115 427.357 42.9829C427.357 44.5943 427.957 45.4 429.157 45.4ZM464.65 49.4629C463.69 49.4629 462.884 49.1715 462.233 48.5886C461.616 48.0057 461.307 47.2515 461.307 46.3257C461.307 45.9829 461.324 45.76 461.359 45.6572C460.879 46.7543 460.433 47.3029 460.022 47.3029C459.473 47.3029 459.199 46.9772 459.199 46.3257L463.21 35.8343C463.827 34.1886 464.53 32.4915 465.319 30.7429C466.107 28.96 466.896 27.2629 467.684 25.6515C468.507 24.0057 469.262 22.5315 469.947 21.2286C470.667 19.8915 471.25 18.8286 471.696 18.04C472.793 16.1543 473.839 14.6972 474.833 13.6686C475.862 12.6057 476.667 12.0743 477.25 12.0743C477.902 12.0743 478.227 12.4343 478.227 13.1543C478.227 13.5657 478.022 13.7715 477.61 13.7715C476.719 13.7715 475.193 15.64 473.033 19.3772C472.347 20.5429 471.696 21.7086 471.079 22.8743C470.496 24.0057 469.93 25.1372 469.382 26.2686C468.627 27.88 467.839 29.6115 467.016 31.4629C466.193 33.3143 465.336 35.2686 464.444 37.3257C465.576 35.68 466.827 34.1715 468.199 32.8C469.399 31.6 470.633 30.64 471.902 29.92C473.204 29.1657 474.49 28.7886 475.759 28.7886C477.164 28.7886 478.279 29.08 479.102 29.6629C479.924 30.2457 480.336 31.3429 480.336 32.9543C480.336 34.2915 479.942 35.7143 479.153 37.2229C478.399 38.7315 477.404 40.2057 476.17 41.6457C474.97 43.0857 473.65 44.4057 472.21 45.6057C470.804 46.7715 469.433 47.6972 468.096 48.3829C466.759 49.1029 465.61 49.4629 464.65 49.4629ZM464.496 47.7657C465.524 47.7657 466.656 47.4057 467.89 46.6857C469.124 46 470.359 45.0915 471.593 43.96C472.827 42.8286 473.959 41.6115 474.987 40.3086C476.016 38.9715 476.839 37.6686 477.456 36.4C478.073 35.0972 478.382 33.9486 478.382 32.9543C478.382 31.4115 477.61 30.64 476.067 30.64C474.696 30.64 473.359 31.0515 472.056 31.8743C470.753 32.6972 469.484 33.7943 468.25 35.1657C467.05 36.5372 465.919 38.0457 464.856 39.6915C463.793 41.3372 462.816 43 461.924 44.68C462.233 44.3715 462.524 44.2172 462.799 44.2172C463.279 44.2172 463.519 44.44 463.519 44.8857C463.519 45.0915 463.433 45.3143 463.262 45.5543C463.193 45.6572 463.124 45.7772 463.056 45.9143C462.987 46.0515 462.953 46.2572 462.953 46.5315C462.953 47.3543 463.467 47.7657 464.496 47.7657ZM480.625 63.4515C478.534 63.4515 477.488 62.2172 477.488 59.7486C477.488 57.6572 477.934 55.6343 478.825 53.68C478.962 53.3372 479.185 53.1657 479.494 53.1657C480.111 53.1657 480.419 53.44 480.419 53.9886C480.419 54.1257 480.368 54.2972 480.265 54.5029C480.197 54.7429 480.111 55 480.008 55.2743C479.768 55.9257 479.579 56.6115 479.442 57.3315C479.305 58.0515 479.237 58.8057 479.237 59.5943C479.237 60.4857 479.357 61.0857 479.597 61.3943C479.837 61.7029 480.145 61.8572 480.522 61.8572C481.414 61.8572 482.459 61.4457 483.659 60.6229C484.894 59.8 486.162 58.4972 487.465 56.7143C488.391 55.4457 489.351 53.9372 490.345 52.1886C491.339 50.44 492.402 48.4343 493.534 46.1715C495.042 43.1886 496.431 40.1543 497.699 37.0686C496.842 38.1657 495.951 39.2286 495.025 40.2572C494.099 41.2857 493.105 42.2457 492.042 43.1372C489.197 45.5715 486.831 46.7886 484.945 46.7886C482.682 46.7886 481.551 45.4857 481.551 42.88C481.551 41.9543 481.722 40.84 482.065 39.5372C482.442 38.2343 482.957 36.7429 483.608 35.0629C483.711 34.7886 483.762 34.5657 483.762 34.3943C483.762 34.1886 483.814 33.9829 483.917 33.7772C484.465 32.5772 485.374 31.24 486.642 29.7657C486.917 29.4572 487.157 29.3029 487.362 29.3029C487.877 29.3029 488.134 29.68 488.134 30.4343C484.808 35.3372 483.145 39.4857 483.145 42.88C483.145 44.32 483.711 45.04 484.842 45.04C486.111 45.04 487.877 44.1657 490.139 42.4172C491.751 41.1829 493.242 39.7943 494.614 38.2515C495.985 36.6743 497.219 35.0457 498.317 33.3657C499.071 32.2343 499.671 31.24 500.117 30.3829C500.597 29.4915 500.888 28.8915 500.991 28.5829C501.162 28.0686 501.402 27.8115 501.711 27.8115C502.362 27.8115 502.688 28.0857 502.688 28.6343C502.688 28.9086 502.551 29.4057 502.277 30.1257C502.037 30.8115 501.728 31.6343 501.351 32.5943C500.802 34 500.014 35.8857 498.985 38.2515C497.957 40.6172 496.671 43.4286 495.128 46.6857C493.208 50.7315 491.322 54.04 489.471 56.6115C488.099 58.5657 486.591 60.1943 484.945 61.4972C483.334 62.8 481.894 63.4515 480.625 63.4515Z" fill="#E13939"/>
<path d="M530.858 140.226L530.755 141.365L530.858 140.226ZM655.573 189.488C656.158 189.725 656.824 189.442 657.061 188.857L660.916 179.321C661.152 178.736 660.87 178.07 660.284 177.833C659.699 177.596 659.033 177.879 658.797 178.464L655.37 186.941L646.893 183.514C646.308 183.277 645.642 183.56 645.406 184.145C645.169 184.73 645.452 185.397 646.037 185.633L655.573 189.488ZM395.43 99.0673L394.299 99.2318C395.589 108.101 400.882 114.793 408.953 119.904C416.993 124.996 427.856 128.567 440.482 131.241C465.722 136.588 498.466 138.431 530.755 141.365L530.858 140.226L530.962 139.088C498.53 136.142 466.02 134.314 440.955 129.005C428.429 126.352 417.877 122.85 410.176 117.973C402.505 113.115 397.73 106.942 396.561 98.9028L395.43 99.0673ZM530.858 140.226L530.755 141.365C558.542 143.889 586.022 147.221 608.384 154.244C630.768 161.274 647.755 171.919 654.949 188.875L656.001 188.429L657.053 187.982C649.463 170.092 631.666 159.16 609.068 152.063C586.448 144.959 558.748 141.613 530.962 139.088L530.858 140.226Z" fill="#E13939"/>
</svg>
