<svg width="324" height="114" viewBox="0 0 324 114" fill="none" xmlns="http://www.w3.org/2000/svg">
<path d="M4.248 33.1323C3.96 33.1323 3.816 33.0243 3.816 32.8083C3.432 32.1363 3.24 30.7563 3.24 28.6683C3.24 28.1643 3.276 27.4923 3.348 26.6523C3.42 25.8123 3.516 24.9363 3.636 24.0243C3.756 23.1123 3.888 22.2843 4.032 21.5403C4.176 20.7723 4.332 20.2203 4.5 19.8843C4.644 19.5963 4.824 19.4523 5.04 19.4523C5.424 19.4523 5.616 19.6083 5.616 19.9203C5.616 20.0883 5.592 20.2563 5.544 20.4243C5.496 20.5683 5.448 20.7483 5.4 20.9643C5.088 22.1643 4.836 23.4363 4.644 24.7803C4.476 26.1243 4.392 27.5043 4.392 28.9203C4.392 29.5683 4.416 30.1443 4.464 30.6483C4.536 31.1523 4.608 31.5843 4.68 31.9443C5.352 31.6803 6.096 31.1643 6.912 30.3963C7.728 29.6043 8.52 28.7283 9.288 27.7683C9.912 26.9763 10.476 26.1723 10.98 25.3563C11.508 24.5403 11.916 23.7723 12.204 23.0523C12.516 22.3323 12.672 21.7443 12.672 21.2883C12.672 20.9763 12.636 20.7603 12.564 20.6403C12.516 20.5203 12.456 20.4243 12.384 20.3523C12.312 20.2803 12.276 20.1483 12.276 19.9563C12.276 19.5963 12.456 19.4163 12.816 19.4163C13.056 19.4163 13.272 19.5963 13.464 19.9563C13.656 20.3163 13.752 20.7723 13.752 21.3243C13.752 23.0283 12.564 25.4163 10.188 28.4883C7.74 31.5843 5.76 33.1323 4.248 33.1323ZM21.5367 18.5883C21.1287 18.5883 20.9247 18.3843 20.9247 17.9763C20.9247 17.8563 21.0087 17.6403 21.1767 17.3283C21.3447 16.9923 21.5367 16.6563 21.7527 16.3203C21.9687 15.9843 22.1367 15.7563 22.2567 15.6363C22.6647 15.1803 22.9767 14.8923 23.1927 14.7723C23.4327 14.6523 23.6487 14.5923 23.8407 14.5923C24.3447 14.5923 24.5967 14.8203 24.5967 15.2763C24.5967 15.4443 24.4887 15.6483 24.2727 15.8883C24.0807 16.1043 23.8527 16.3083 23.5887 16.5003C23.2047 16.7403 22.9647 16.9323 22.8687 17.0763L22.0767 18.1923C22.0527 18.2883 21.9927 18.3843 21.8967 18.4803C21.8247 18.5523 21.7047 18.5883 21.5367 18.5883ZM15.4167 33.1683C14.7447 33.1683 14.2527 33.0363 13.9407 32.7723C13.6527 32.5083 13.5087 32.1123 13.5087 31.5843C13.5087 31.0803 13.6647 30.3963 13.9767 29.5323C14.2887 28.6443 14.6847 27.6963 15.1647 26.6883C15.6687 25.6803 16.1967 24.7203 16.7487 23.8083C17.3007 22.8963 17.8287 22.1523 18.3327 21.5763C18.8607 20.9763 19.2807 20.6763 19.5927 20.6763C20.0247 20.6763 20.2407 20.8683 20.2407 21.2523C20.2407 21.4923 20.0367 21.9483 19.6287 22.6203C19.2207 23.2923 18.7767 23.9883 18.2967 24.7083C18.1047 24.9723 17.8407 25.3323 17.5047 25.7883C17.1687 26.2443 16.8447 26.6763 16.5327 27.0843C16.2207 27.4683 16.0167 27.7323 15.9207 27.8763C15.6807 28.2363 15.4287 28.8243 15.1647 29.6403C14.8767 30.4563 14.7327 31.0803 14.7327 31.5123C14.7327 31.7043 14.7687 31.8483 14.8407 31.9443C14.9367 32.0403 15.1407 32.0883 15.4527 32.0883C16.0527 32.0883 16.7247 31.8963 17.4687 31.5123C18.2127 31.1283 18.9687 30.6483 19.7367 30.0723C20.5047 29.4723 21.2247 28.8603 21.8967 28.2363C22.5927 27.6123 23.1807 27.0723 23.6607 26.6163C23.7567 26.5203 23.9007 26.4723 24.0927 26.4723C24.4527 26.4723 24.6327 26.6163 24.6327 26.9043C24.6327 27.1683 24.4647 27.4683 24.1287 27.8043C23.4807 28.4523 22.8807 29.0283 22.3287 29.5323C21.7767 30.0363 21.2487 30.4803 20.7447 30.8643C19.9527 31.4403 19.0767 31.9683 18.1167 32.4483C17.1567 32.9283 16.2567 33.1683 15.4167 33.1683ZM26.1858 33.4203C25.1778 33.4203 24.3858 33.0723 23.8098 32.3763C23.2338 31.6803 22.9458 30.8283 22.9458 29.8203C22.9458 28.0923 23.5218 26.3163 24.6738 24.4923C24.9858 23.9883 25.3458 23.4963 25.7538 23.0163C26.1618 22.5123 26.6058 22.0323 27.0858 21.5763C27.8058 20.8803 28.5618 20.3043 29.3538 19.8483C30.1458 19.3923 30.9138 19.1643 31.6578 19.1643C32.8818 19.1643 33.4938 19.7403 33.4938 20.8923C33.4938 22.3323 32.6538 23.6403 30.9738 24.8163C29.4138 25.8723 27.8778 26.4003 26.3658 26.4003C26.1018 26.4003 25.8618 26.3883 25.6458 26.3643C25.4538 26.3163 25.2738 26.2683 25.1058 26.2203C24.8658 26.6763 24.6498 27.2643 24.4578 27.9843C24.2658 28.7043 24.1698 29.3283 24.1698 29.8563C24.1698 31.4403 24.8658 32.2323 26.2578 32.2323C27.3858 32.2323 28.4538 32.0403 29.4618 31.6563C30.4698 31.2483 31.6698 30.4923 33.0618 29.3883C33.9258 28.7163 34.5738 28.1763 35.0058 27.7683C35.4378 27.3603 35.9058 26.9283 36.4098 26.4723C36.5538 26.3763 36.6858 26.3283 36.8058 26.3283C36.9258 26.3283 37.0458 26.3643 37.1658 26.4363C37.2858 26.5083 37.3458 26.6163 37.3458 26.7603C37.3458 27.0243 37.1058 27.3963 36.6258 27.8763C36.2178 28.2603 35.7858 28.6683 35.3298 29.1003C34.8738 29.5083 34.1538 30.0843 33.1698 30.8283C32.1138 31.6443 30.9618 32.2803 29.7138 32.7363C28.4658 33.1923 27.2898 33.4203 26.1858 33.4203ZM26.1498 25.2483C26.9178 25.2483 27.6498 25.1283 28.3458 24.8883C29.0418 24.6483 29.7018 24.3003 30.3258 23.8443C31.7178 22.8123 32.4138 21.8403 32.4138 20.9283C32.4138 20.5203 32.1618 20.3163 31.6578 20.3163C30.6978 20.3163 29.5818 20.9043 28.3098 22.0803C27.6858 22.6563 27.1698 23.1843 26.7618 23.6643C26.3778 24.1203 26.0178 24.6243 25.6818 25.1763C25.8258 25.2243 25.9818 25.2483 26.1498 25.2483ZM47.986 33.4923C47.386 33.4923 46.918 33.2523 46.582 32.7723C46.246 32.2923 46.078 31.6923 46.078 30.9723C46.078 30.7803 46.09 30.4923 46.114 30.1083C46.138 29.7003 46.162 29.2803 46.186 28.8483C46.234 28.3923 46.27 27.9963 46.294 27.6603C46.318 27.3003 46.342 27.0843 46.366 27.0123L46.33 26.8683C46.114 27.1803 45.814 27.5883 45.43 28.0923C45.07 28.5963 44.686 29.1123 44.278 29.6403C43.894 30.1443 43.546 30.5883 43.234 30.9723C42.73 31.5723 42.178 32.0403 41.578 32.3763C40.978 32.7123 40.426 32.8803 39.922 32.8803C39.322 32.8803 38.818 32.5803 38.41 31.9803C38.002 31.3563 37.798 30.4683 37.798 29.3163C37.798 28.2123 37.978 26.9763 38.338 25.6083L37.222 26.9043C37.054 27.0723 36.91 27.2163 36.79 27.3363C36.67 27.4323 36.55 27.4803 36.43 27.4803C36.31 27.4803 36.19 27.4323 36.07 27.3363C35.974 27.2163 35.926 27.0723 35.926 26.9043C35.926 26.7363 35.986 26.5923 36.106 26.4723C36.346 26.2083 36.622 25.8723 36.934 25.4643C37.27 25.0323 37.654 24.5403 38.086 23.9883C38.446 23.4843 39.046 22.5483 39.886 21.1803C40.03 20.9403 40.222 20.8203 40.462 20.8203C40.87 20.8203 41.074 21.0123 41.074 21.3963C41.074 21.5163 41.014 21.6843 40.894 21.9003C40.774 22.0923 40.606 22.4643 40.39 23.0163C39.958 24.1443 39.622 25.2603 39.382 26.3643C39.142 27.4443 39.022 28.5123 39.022 29.5683C39.022 30.4803 39.082 31.0803 39.202 31.3683C39.322 31.6323 39.502 31.7643 39.742 31.7643C40.51 31.7643 41.434 31.1883 42.514 30.0363C42.826 29.7003 43.294 29.1363 43.918 28.3443C44.542 27.5283 45.19 26.5803 45.862 25.5003C46.534 24.3963 47.062 23.2683 47.446 22.1163L47.986 20.5323C48.058 20.3163 48.214 20.2083 48.454 20.2083C48.886 20.2083 49.102 20.4123 49.102 20.8203C49.102 20.9643 48.97 21.3483 48.706 21.9723C48.442 22.5723 48.178 23.5203 47.914 24.8163C47.746 25.6323 47.59 26.4963 47.446 27.4083C47.326 28.3203 47.266 29.1963 47.266 30.0363C47.266 31.6443 47.53 32.4483 48.058 32.4483C48.49 32.4483 49.042 32.2203 49.714 31.7643C50.386 31.3083 51.094 30.7323 51.838 30.0363C52.582 29.3403 53.254 28.6203 53.854 27.8763C54.406 27.2283 54.97 26.4843 55.546 25.6443C56.122 24.8043 56.602 23.9643 56.986 23.1243C57.394 22.2603 57.598 21.5163 57.598 20.8923C57.598 20.2683 57.43 19.8603 57.094 19.6683C57.046 19.6443 56.722 19.5963 56.122 19.5243C55.786 19.4763 55.618 19.2843 55.618 18.9483C55.618 18.5643 55.81 18.3723 56.194 18.3723C56.962 18.3723 57.574 18.5883 58.03 19.0203C58.51 19.4523 58.75 20.0403 58.75 20.7843C58.75 22.8003 57.406 25.4043 54.718 28.5963C51.982 31.8603 49.738 33.4923 47.986 33.4923ZM71.908 32.5923C69.964 32.5923 68.992 31.5003 68.992 29.3163C68.992 28.3083 69.232 27.2523 69.712 26.1483C70.192 25.0443 70.828 24.0243 71.62 23.0883C72.412 22.1283 73.288 21.3483 74.248 20.7483C75.232 20.1483 76.228 19.8483 77.236 19.8483C78.124 19.8483 78.772 20.1843 79.18 20.8563C79.588 21.5283 79.792 22.2723 79.792 23.0883C79.792 24.1683 79.576 25.2723 79.144 26.4003C78.712 27.5043 78.124 28.5243 77.38 29.4603C76.636 30.3963 75.796 31.1523 74.86 31.7283C73.924 32.3043 72.94 32.5923 71.908 32.5923ZM71.872 31.4403C72.016 31.4403 72.1 31.4283 72.124 31.4043C73.06 31.2843 73.924 30.9483 74.716 30.3963C75.508 29.8443 76.192 29.1603 76.768 28.3443C77.368 27.5043 77.824 26.6043 78.136 25.6443C78.448 24.6843 78.604 23.7363 78.604 22.8003C78.604 22.2483 78.448 21.8163 78.136 21.5043C77.824 21.1923 77.428 21.0363 76.948 21.0363C76.252 21.0363 75.508 21.3243 74.716 21.9003C73.948 22.4763 73.216 23.2083 72.52 24.0963C71.848 24.9843 71.296 25.9203 70.864 26.9043C70.432 27.8643 70.216 28.7283 70.216 29.4963C70.216 30.7923 70.768 31.4403 71.872 31.4403ZM91.0243 33.9963C89.8483 33.9963 89.2603 33.1443 89.2603 31.4403C89.2603 30.5283 89.4763 29.4243 89.9083 28.1283C87.0043 31.5123 84.7243 33.2043 83.0683 33.2043C81.7003 33.2043 81.0163 32.3763 81.0163 30.7203C81.0163 30.0963 81.1123 29.3523 81.3043 28.4883C81.5203 27.6003 81.7963 26.6883 82.1323 25.7523C82.4923 24.8163 82.8763 23.9403 83.2843 23.1243C83.6923 22.3083 84.1003 21.6483 84.5083 21.1443C84.6523 20.9763 84.8323 20.8923 85.0483 20.8923C85.1683 20.8923 85.2883 20.9403 85.4083 21.0363C85.5283 21.1083 85.5883 21.2283 85.5883 21.3963C85.5883 21.5403 85.5043 21.7443 85.3363 22.0083C84.2563 23.7843 83.4883 25.3323 83.0323 26.6523C82.4563 28.1643 82.1683 29.4723 82.1683 30.5763C82.1683 31.6083 82.4323 32.1243 82.9603 32.1243C83.2963 32.1243 83.7403 31.9563 84.2923 31.6203C84.8443 31.2843 85.4083 30.8763 85.9843 30.3963C86.5843 29.8923 87.1003 29.4243 87.5323 28.9923C88.7323 27.7203 89.8123 26.3643 90.7723 24.9243C91.2043 24.2523 91.5883 23.6043 91.9243 22.9803C92.2843 22.3323 92.6083 21.6603 92.8963 20.9643C93.0163 20.7003 93.1123 20.5083 93.1843 20.3883C93.2803 20.2443 93.4123 20.1723 93.5803 20.1723C94.0843 20.1723 94.3363 20.3643 94.3363 20.7483C94.3363 20.9883 94.2523 21.1563 94.0843 21.2523C91.6363 26.2203 90.4123 29.6403 90.4123 31.5123C90.4123 32.0163 90.4603 32.3763 90.5563 32.5923C90.6523 32.7843 90.8203 32.8803 91.0603 32.8803C91.3963 32.8803 91.9123 32.6643 92.6083 32.2323C93.3283 31.8003 94.1683 31.1403 95.1283 30.2523L98.9083 26.7963C99.1003 26.6043 99.2803 26.5083 99.4483 26.5083C99.8323 26.5083 100.024 26.6883 100.024 27.0483C100.024 27.3603 99.2683 28.2003 97.7563 29.5683C97.1083 30.1683 96.5323 30.6723 96.0283 31.0803C95.5243 31.4883 95.0563 31.8483 94.6243 32.1603C93.8083 32.7363 93.0883 33.1803 92.4643 33.4923C91.8403 33.8283 91.3603 33.9963 91.0243 33.9963ZM96.5953 33.6723C96.2113 33.6723 96.0193 33.5163 96.0193 33.2043C96.0193 33.0603 96.0553 32.9163 96.1273 32.7723C96.2233 32.6283 96.2953 32.5083 96.3433 32.4123L99.6193 25.7883C101.011 22.9563 101.707 21.3843 101.707 21.0723C101.707 20.7363 101.875 20.5683 102.211 20.5683C102.667 20.5683 102.895 20.7963 102.895 21.2523C102.895 21.4923 102.787 21.8763 102.571 22.4043C102.355 22.9323 102.079 23.5443 101.743 24.2403C101.167 25.4883 100.687 26.4483 100.303 27.1203C101.023 26.2803 101.755 25.4883 102.499 24.7443C103.243 24.0003 103.999 23.2923 104.767 22.6203C107.047 20.6283 108.799 19.6323 110.023 19.6323C110.863 19.6323 111.283 20.0283 111.283 20.8203C111.283 21.5883 111.031 21.9723 110.527 21.9723C110.287 21.9723 110.107 21.7683 109.987 21.3603C109.915 21.0723 109.747 20.9283 109.483 20.9283C109.075 20.9283 108.283 21.3723 107.107 22.2603C105.811 23.2203 104.503 24.3603 103.183 25.6803C101.887 27.0003 100.507 28.6803 99.0433 30.7203L97.2433 33.2403C97.1473 33.3603 97.0513 33.4563 96.9553 33.5283C96.8833 33.6243 96.7633 33.6723 96.5953 33.6723ZM118.428 33.9963C118.02 33.9963 117.816 33.8043 117.816 33.4203C117.816 33.3963 117.96 33.0963 118.248 32.5203C118.536 31.9443 118.944 31.0923 119.472 29.9643L121.308 26.1123C122.052 24.5523 122.58 23.3163 122.892 22.4043C123.228 21.4923 123.396 20.9043 123.396 20.6403C123.396 20.2563 123.588 20.0643 123.972 20.0643C124.356 20.0643 124.548 20.2563 124.548 20.6403C124.548 20.9523 124.44 21.4443 124.224 22.1163C124.032 22.7643 123.708 23.6043 123.252 24.6363L121.416 28.8123C126.432 22.4763 130.212 19.3083 132.756 19.3083C133.236 19.3083 133.608 19.5123 133.872 19.9203C134.136 20.3043 134.268 20.7363 134.268 21.2163C134.268 22.3683 133.44 24.3723 131.784 27.2283C133.056 25.9323 134.34 24.6363 135.636 23.3403C136.956 22.0203 138.276 20.7243 139.596 19.4523C139.932 19.1403 140.208 18.9843 140.424 18.9843C140.712 18.9843 140.952 19.1283 141.144 19.4163C141.336 19.6803 141.432 19.9683 141.432 20.2803C141.432 20.5203 141.324 20.8203 141.108 21.1803C140.796 21.7083 140.508 22.3443 140.244 23.0883C139.98 23.8083 139.68 24.6243 139.344 25.5363C138.96 26.5683 138.684 27.4683 138.516 28.2363C138.348 29.0043 138.264 29.6283 138.264 30.1083C138.264 30.7083 138.408 31.1523 138.696 31.4403C138.984 31.7043 139.272 31.8363 139.56 31.8363C140.064 31.8363 140.616 31.7043 141.216 31.4403C141.816 31.1763 142.308 30.9123 142.692 30.6483C143.46 30.1443 144.264 29.5203 145.104 28.7763C145.944 28.0083 146.748 27.2403 147.516 26.4723C147.612 26.3763 147.756 26.3283 147.948 26.3283C148.308 26.3283 148.488 26.4723 148.488 26.7603C148.488 27.0243 148.32 27.3243 147.984 27.6603C147.024 28.6203 146.16 29.4483 145.392 30.1443C144.624 30.8163 143.892 31.3683 143.196 31.8003C142.74 32.0643 142.188 32.3403 141.54 32.6283C140.892 32.9163 140.196 33.0603 139.452 33.0603C138.756 33.0603 138.168 32.8443 137.688 32.4123C137.232 31.9803 137.004 31.0563 137.004 29.6403C137.004 29.0883 137.1 28.4403 137.292 27.6963C137.484 26.9283 137.772 26.0763 138.156 25.1403L140.064 20.6043L134.916 25.7883C134.316 26.3883 133.824 26.8923 133.44 27.3003C133.056 27.7083 132.744 28.0443 132.504 28.3083C132.048 28.7883 131.64 29.2563 131.28 29.7123C130.944 30.1683 130.656 30.5643 130.416 30.9003C130.248 31.1643 130.056 31.2963 129.84 31.2963C129.432 31.2963 129.228 31.1283 129.228 30.7923C129.228 30.0483 129.9 28.3323 131.244 25.6443C132.588 22.9563 133.26 21.3483 133.26 20.8203C133.26 20.5803 132.996 20.4603 132.468 20.4603C130.332 20.4603 126.528 23.9523 121.056 30.9363C120.6 31.5843 119.844 32.5563 118.788 33.8523C118.716 33.9483 118.596 33.9963 118.428 33.9963ZM149.936 33.4203C148.928 33.4203 148.136 33.0723 147.56 32.3763C146.984 31.6803 146.696 30.8283 146.696 29.8203C146.696 28.0923 147.272 26.3163 148.424 24.4923C148.736 23.9883 149.096 23.4963 149.504 23.0163C149.912 22.5123 150.356 22.0323 150.836 21.5763C151.556 20.8803 152.312 20.3043 153.104 19.8483C153.896 19.3923 154.664 19.1643 155.408 19.1643C156.632 19.1643 157.244 19.7403 157.244 20.8923C157.244 22.3323 156.404 23.6403 154.724 24.8163C153.164 25.8723 151.628 26.4003 150.116 26.4003C149.852 26.4003 149.612 26.3883 149.396 26.3643C149.204 26.3163 149.024 26.2683 148.856 26.2203C148.616 26.6763 148.4 27.2643 148.208 27.9843C148.016 28.7043 147.92 29.3283 147.92 29.8563C147.92 31.4403 148.616 32.2323 150.008 32.2323C151.136 32.2323 152.204 32.0403 153.212 31.6563C154.22 31.2483 155.42 30.4923 156.812 29.3883C157.676 28.7163 158.324 28.1763 158.756 27.7683C159.188 27.3603 159.656 26.9283 160.16 26.4723C160.304 26.3763 160.436 26.3283 160.556 26.3283C160.676 26.3283 160.796 26.3643 160.916 26.4363C161.036 26.5083 161.096 26.6163 161.096 26.7603C161.096 27.0243 160.856 27.3963 160.376 27.8763C159.968 28.2603 159.536 28.6683 159.08 29.1003C158.624 29.5083 157.904 30.0843 156.92 30.8283C155.864 31.6443 154.712 32.2803 153.464 32.7363C152.216 33.1923 151.04 33.4203 149.936 33.4203ZM149.9 25.2483C150.668 25.2483 151.4 25.1283 152.096 24.8883C152.792 24.6483 153.452 24.3003 154.076 23.8443C155.468 22.8123 156.164 21.8403 156.164 20.9283C156.164 20.5203 155.912 20.3163 155.408 20.3163C154.448 20.3163 153.332 20.9043 152.06 22.0803C151.436 22.6563 150.92 23.1843 150.512 23.6643C150.128 24.1203 149.768 24.6243 149.432 25.1763C149.576 25.2243 149.732 25.2483 149.9 25.2483ZM170.62 35.9763C170.428 35.9763 170.188 35.8803 169.9 35.6883C169.636 35.5203 169.432 35.3523 169.288 35.1843C169 34.8243 168.808 34.3923 168.712 33.8883C168.616 33.3843 168.568 32.8323 168.568 32.2323C168.568 31.7283 168.58 31.1883 168.604 30.6123C168.652 30.0123 168.724 29.3763 168.82 28.7043C168.196 29.4243 167.488 30.1323 166.696 30.8283C165.928 31.5003 165.136 32.0523 164.32 32.4843C163.528 32.9163 162.772 33.1323 162.052 33.1323C160.252 33.1323 159.352 32.1723 159.352 30.2523C159.352 28.2603 160.048 26.3403 161.44 24.4923C162.136 23.5803 162.928 22.7043 163.816 21.8643C164.704 21.0243 165.64 20.3403 166.624 19.8123C167.608 19.2843 168.58 19.0203 169.54 19.0203C170.26 19.0203 170.896 19.2963 171.448 19.8483C171.496 19.7523 171.556 19.5963 171.628 19.3803C171.724 19.1643 171.856 18.8883 172.024 18.5523C172.6 17.3043 173.236 16.0083 173.932 14.6643C174.628 13.2963 175.252 12.1683 175.804 11.2803C176.428 10.2963 177.016 9.80434 177.568 9.80434C177.952 9.80434 178.144 10.1043 178.144 10.7043C178.144 11.7363 177.172 14.1483 175.228 17.9403C175.108 18.1563 174.892 18.5523 174.58 19.1283C174.292 19.6803 173.944 20.3283 173.536 21.0723C173.152 21.7923 172.756 22.5123 172.348 23.2323C171.94 23.9523 171.568 24.6003 171.232 25.1763C170.92 25.7283 170.692 26.1123 170.548 26.3283C170.284 27.4083 170.08 28.4403 169.936 29.4243C169.792 30.3843 169.72 31.3803 169.72 32.4123C169.72 32.7963 169.732 33.1443 169.756 33.4563C169.804 33.7923 169.9 34.0563 170.044 34.2483C170.164 34.3923 170.296 34.5003 170.44 34.5723C170.584 34.6683 170.752 34.7523 170.944 34.8243C171.232 34.8963 171.376 35.0643 171.376 35.3283C171.376 35.7603 171.124 35.9763 170.62 35.9763ZM172.312 20.9283C173.224 19.3683 174.028 17.9163 174.724 16.5723C175.42 15.2043 175.984 13.9203 176.416 12.7203C175.456 13.9683 174.652 15.2883 174.004 16.6803C173.356 18.0723 172.792 19.4883 172.312 20.9283ZM161.8 32.0523C162.496 32.0523 163.228 31.8243 163.996 31.3683C164.788 30.8883 165.532 30.3243 166.228 29.6763C166.852 29.1003 167.428 28.5123 167.956 27.9123C168.484 27.2883 168.976 26.6523 169.432 26.0043C169.624 25.1643 169.84 24.3363 170.08 23.5203C170.344 22.7043 170.632 21.8883 170.944 21.0723C170.56 20.4723 170.02 20.1723 169.324 20.1723C168.604 20.1723 167.8 20.4483 166.912 21.0003C166.048 21.5283 165.208 22.1883 164.392 22.9803C163.6 23.7723 162.916 24.5283 162.34 25.2483C161.14 26.8563 160.54 28.5603 160.54 30.3603C160.54 31.4883 160.96 32.0523 161.8 32.0523ZM181.779 18.5883C181.371 18.5883 181.167 18.3843 181.167 17.9763C181.167 17.8563 181.251 17.6403 181.419 17.3283C181.587 16.9923 181.779 16.6563 181.995 16.3203C182.211 15.9843 182.379 15.7563 182.499 15.6363C182.907 15.1803 183.219 14.8923 183.435 14.7723C183.675 14.6523 183.891 14.5923 184.083 14.5923C184.587 14.5923 184.839 14.8203 184.839 15.2763C184.839 15.4443 184.731 15.6483 184.515 15.8883C184.323 16.1043 184.095 16.3083 183.831 16.5003C183.447 16.7403 183.207 16.9323 183.111 17.0763L182.319 18.1923C182.295 18.2883 182.235 18.3843 182.139 18.4803C182.067 18.5523 181.947 18.5883 181.779 18.5883ZM175.659 33.1683C174.987 33.1683 174.495 33.0363 174.183 32.7723C173.895 32.5083 173.751 32.1123 173.751 31.5843C173.751 31.0803 173.907 30.3963 174.219 29.5323C174.531 28.6443 174.927 27.6963 175.407 26.6883C175.911 25.6803 176.439 24.7203 176.991 23.8083C177.543 22.8963 178.071 22.1523 178.575 21.5763C179.103 20.9763 179.523 20.6763 179.835 20.6763C180.267 20.6763 180.483 20.8683 180.483 21.2523C180.483 21.4923 180.279 21.9483 179.871 22.6203C179.463 23.2923 179.019 23.9883 178.539 24.7083C178.347 24.9723 178.083 25.3323 177.747 25.7883C177.411 26.2443 177.087 26.6763 176.775 27.0843C176.463 27.4683 176.259 27.7323 176.163 27.8763C175.923 28.2363 175.671 28.8243 175.407 29.6403C175.119 30.4563 174.975 31.0803 174.975 31.5123C174.975 31.7043 175.011 31.8483 175.083 31.9443C175.179 32.0403 175.383 32.0883 175.695 32.0883C176.295 32.0883 176.967 31.8963 177.711 31.5123C178.455 31.1283 179.211 30.6483 179.979 30.0723C180.747 29.4723 181.467 28.8603 182.139 28.2363C182.835 27.6123 183.423 27.0723 183.903 26.6163C183.999 26.5203 184.143 26.4723 184.335 26.4723C184.695 26.4723 184.875 26.6163 184.875 26.9043C184.875 27.1683 184.707 27.4683 184.371 27.8043C183.723 28.4523 183.123 29.0283 182.571 29.5323C182.019 30.0363 181.491 30.4803 180.987 30.8643C180.195 31.4403 179.319 31.9683 178.359 32.4483C177.399 32.9283 176.499 33.1683 175.659 33.1683ZM184.376 33.1323C182.984 33.1323 182.288 32.4723 182.288 31.1523C182.288 30.2883 182.492 29.3643 182.9 28.3803C183.332 27.3723 183.908 26.4003 184.628 25.4643C185.348 24.5043 186.152 23.6403 187.04 22.8723C187.928 22.0803 188.84 21.4563 189.776 21.0003C190.712 20.5203 191.612 20.2803 192.476 20.2803C194.012 20.2803 194.78 21.0363 194.78 22.5483C194.78 23.5323 194.54 24.0243 194.06 24.0243C193.628 24.0243 193.412 23.8203 193.412 23.4123C193.412 23.2443 193.448 23.0763 193.52 22.9083C193.616 22.7163 193.664 22.5123 193.664 22.2963C193.664 21.6243 193.208 21.2883 192.296 21.2883C190.832 21.2883 188.996 22.4043 186.788 24.6363C186.26 25.1883 185.744 25.8363 185.24 26.5803C184.736 27.3243 184.316 28.0803 183.98 28.8483C183.668 29.5923 183.512 30.3003 183.512 30.9723C183.512 31.6203 183.872 31.9443 184.592 31.9443C185.216 31.9443 185.876 31.7523 186.572 31.3683C187.292 30.9843 187.916 30.5883 188.444 30.1803C189.5 29.3883 190.58 28.3083 191.684 26.9403C191.852 26.7483 192.068 26.4963 192.332 26.1843C192.596 25.8723 192.896 25.5243 193.232 25.1403C193.352 25.0203 193.496 24.9603 193.664 24.9603C194.048 24.9603 194.24 25.1523 194.24 25.5363L192.872 27.5883C191.96 28.9323 191.504 30.0363 191.504 30.9003C191.504 31.5243 191.804 31.8363 192.404 31.8363C192.908 31.8363 193.46 31.7043 194.06 31.4403C194.66 31.1763 195.152 30.9123 195.536 30.6483C196.304 30.1443 197.108 29.5203 197.948 28.7763C198.788 28.0083 199.592 27.2403 200.36 26.4723C200.456 26.3763 200.6 26.3283 200.792 26.3283C201.152 26.3283 201.332 26.4723 201.332 26.7603C201.332 27.0243 201.164 27.3243 200.828 27.6603C199.868 28.6203 199.004 29.4483 198.236 30.1443C197.468 30.8163 196.736 31.3683 196.04 31.8003C195.584 32.0643 195.02 32.3403 194.348 32.6283C193.676 32.9163 192.908 33.0603 192.044 33.0603C190.868 33.0603 190.28 32.4363 190.28 31.1883C190.28 30.7083 190.34 30.3123 190.46 30.0003C188.276 32.0883 186.248 33.1323 184.376 33.1323ZM208.974 33.4203C208.59 33.4203 208.398 33.2283 208.398 32.8443C208.398 32.3403 208.578 31.5483 208.938 30.4683C209.298 29.3643 209.766 28.1043 210.342 26.6883C210.942 25.2483 211.578 23.7723 212.25 22.2603C212.634 21.4203 213.03 20.6043 213.438 19.8123C213.846 18.9963 214.23 18.2883 214.59 17.6883C218.142 11.6883 220.35 8.68834 221.214 8.68834C221.55 8.68834 221.718 8.85634 221.718 9.19234C221.718 9.40834 221.55 9.81634 221.214 10.4163C220.902 10.9923 220.482 11.6763 219.954 12.4683C219.45 13.2363 218.898 14.0163 218.298 14.8083C217.722 15.6003 217.17 16.3323 216.642 17.0043C216.138 17.6523 215.73 18.1443 215.418 18.4803C215.154 18.7923 214.854 19.2483 214.518 19.8483C214.206 20.4483 213.894 21.0723 213.582 21.7203C213.27 22.3443 213.018 22.8963 212.826 23.3763L211.458 26.7603C211.818 26.2803 212.286 25.7403 212.862 25.1403C214.23 23.6283 215.646 22.4883 217.11 21.7203C218.598 20.9283 219.846 20.5323 220.854 20.5323C221.406 20.5323 221.85 20.7003 222.186 21.0363C222.522 21.3723 222.69 21.7803 222.69 22.2603C222.69 23.1963 222.078 24.7683 220.854 26.9763C219.63 29.1603 219.018 30.5043 219.018 31.0083C219.018 31.2723 219.162 31.4043 219.45 31.4043C220.122 31.4043 220.854 31.1643 221.646 30.6843C222.438 30.1803 223.254 29.5443 224.094 28.7763C224.934 28.0083 225.75 27.2403 226.542 26.4723C226.638 26.3763 226.782 26.3283 226.974 26.3283C227.334 26.3283 227.514 26.4723 227.514 26.7603C227.514 27.0243 227.346 27.3243 227.01 27.6603C225.402 29.2683 224.022 30.4683 222.87 31.2603C221.718 32.0523 220.506 32.4483 219.234 32.4483C218.274 32.4483 217.794 32.0043 217.794 31.1163C217.794 30.7803 217.854 30.4563 217.974 30.1443C218.094 29.8323 218.286 29.4123 218.55 28.8843L220.206 25.6083C220.614 24.7923 220.914 24.1083 221.106 23.5563C221.298 23.0043 221.394 22.5843 221.394 22.2963C221.394 21.8883 221.142 21.6843 220.638 21.6843C219.75 21.6843 218.706 22.0443 217.506 22.7643C216.33 23.4603 215.07 24.5163 213.726 25.9323C212.958 26.7483 212.262 27.6123 211.638 28.5243C211.038 29.4363 210.558 30.4203 210.198 31.4763L209.766 32.7363C209.598 33.1923 209.334 33.4203 208.974 33.4203ZM228.967 33.4203C227.959 33.4203 227.167 33.0723 226.591 32.3763C226.015 31.6803 225.727 30.8283 225.727 29.8203C225.727 28.0923 226.303 26.3163 227.455 24.4923C227.767 23.9883 228.127 23.4963 228.535 23.0163C228.943 22.5123 229.387 22.0323 229.867 21.5763C230.587 20.8803 231.343 20.3043 232.135 19.8483C232.927 19.3923 233.695 19.1643 234.439 19.1643C235.663 19.1643 236.275 19.7403 236.275 20.8923C236.275 22.3323 235.435 23.6403 233.755 24.8163C232.195 25.8723 230.659 26.4003 229.147 26.4003C228.883 26.4003 228.643 26.3883 228.427 26.3643C228.235 26.3163 228.055 26.2683 227.887 26.2203C227.647 26.6763 227.431 27.2643 227.239 27.9843C227.047 28.7043 226.951 29.3283 226.951 29.8563C226.951 31.4403 227.647 32.2323 229.039 32.2323C230.167 32.2323 231.235 32.0403 232.243 31.6563C233.251 31.2483 234.451 30.4923 235.843 29.3883C236.707 28.7163 237.355 28.1763 237.787 27.7683C238.219 27.3603 238.687 26.9283 239.191 26.4723C239.335 26.3763 239.467 26.3283 239.587 26.3283C239.707 26.3283 239.827 26.3643 239.947 26.4363C240.067 26.5083 240.127 26.6163 240.127 26.7603C240.127 27.0243 239.887 27.3963 239.407 27.8763C238.999 28.2603 238.567 28.6683 238.111 29.1003C237.655 29.5083 236.935 30.0843 235.951 30.8283C234.895 31.6443 233.743 32.2803 232.495 32.7363C231.247 33.1923 230.071 33.4203 228.967 33.4203ZM228.931 25.2483C229.699 25.2483 230.431 25.1283 231.127 24.8883C231.823 24.6483 232.483 24.3003 233.107 23.8443C234.499 22.8123 235.195 21.8403 235.195 20.9283C235.195 20.5203 234.943 20.3163 234.439 20.3163C233.479 20.3163 232.363 20.9043 231.091 22.0803C230.467 22.6563 229.951 23.1843 229.543 23.6643C229.159 24.1203 228.799 24.6243 228.463 25.1763C228.607 25.2243 228.763 25.2483 228.931 25.2483ZM236.763 33.6723C236.379 33.6723 236.187 33.5163 236.187 33.2043C236.187 33.0603 236.223 32.9163 236.295 32.7723C236.391 32.6283 236.463 32.5083 236.511 32.4123L239.787 25.7883C241.179 22.9563 241.875 21.3843 241.875 21.0723C241.875 20.7363 242.043 20.5683 242.379 20.5683C242.835 20.5683 243.063 20.7963 243.063 21.2523C243.063 21.4923 242.955 21.8763 242.739 22.4043C242.523 22.9323 242.247 23.5443 241.911 24.2403C241.335 25.4883 240.855 26.4483 240.471 27.1203C241.191 26.2803 241.923 25.4883 242.667 24.7443C243.411 24.0003 244.167 23.2923 244.935 22.6203C247.215 20.6283 248.967 19.6323 250.191 19.6323C251.031 19.6323 251.451 20.0283 251.451 20.8203C251.451 21.5883 251.199 21.9723 250.695 21.9723C250.455 21.9723 250.275 21.7683 250.155 21.3603C250.083 21.0723 249.915 20.9283 249.651 20.9283C249.243 20.9283 248.451 21.3723 247.275 22.2603C245.979 23.2203 244.671 24.3603 243.351 25.6803C242.055 27.0003 240.675 28.6803 239.211 30.7203L237.411 33.2403C237.315 33.3603 237.219 33.4563 237.123 33.5283C237.051 33.6243 236.931 33.6723 236.763 33.6723ZM253.19 33.4203C252.182 33.4203 251.39 33.0723 250.814 32.3763C250.238 31.6803 249.95 30.8283 249.95 29.8203C249.95 28.0923 250.526 26.3163 251.678 24.4923C251.99 23.9883 252.35 23.4963 252.758 23.0163C253.166 22.5123 253.61 22.0323 254.09 21.5763C254.81 20.8803 255.566 20.3043 256.358 19.8483C257.15 19.3923 257.918 19.1643 258.662 19.1643C259.886 19.1643 260.498 19.7403 260.498 20.8923C260.498 22.3323 259.658 23.6403 257.978 24.8163C256.418 25.8723 254.882 26.4003 253.37 26.4003C253.106 26.4003 252.866 26.3883 252.65 26.3643C252.458 26.3163 252.278 26.2683 252.11 26.2203C251.87 26.6763 251.654 27.2643 251.462 27.9843C251.27 28.7043 251.174 29.3283 251.174 29.8563C251.174 31.4403 251.87 32.2323 253.262 32.2323C254.39 32.2323 255.458 32.0403 256.466 31.6563C257.474 31.2483 258.674 30.4923 260.066 29.3883C260.93 28.7163 261.578 28.1763 262.01 27.7683C262.442 27.3603 262.91 26.9283 263.414 26.4723C263.558 26.3763 263.69 26.3283 263.81 26.3283C263.93 26.3283 264.05 26.3643 264.17 26.4363C264.29 26.5083 264.35 26.6163 264.35 26.7603C264.35 27.0243 264.11 27.3963 263.63 27.8763C263.222 28.2603 262.79 28.6683 262.334 29.1003C261.878 29.5083 261.158 30.0843 260.174 30.8283C259.118 31.6443 257.966 32.2803 256.718 32.7363C255.47 33.1923 254.294 33.4203 253.19 33.4203ZM253.154 25.2483C253.922 25.2483 254.654 25.1283 255.35 24.8883C256.046 24.6483 256.706 24.3003 257.33 23.8443C258.722 22.8123 259.418 21.8403 259.418 20.9283C259.418 20.5203 259.166 20.3163 258.662 20.3163C257.702 20.3163 256.586 20.9043 255.314 22.0803C254.69 22.6563 254.174 23.1843 253.766 23.6643C253.382 24.1203 253.022 24.6243 252.686 25.1763C252.83 25.2243 252.986 25.2483 253.154 25.2483Z" fill="#FF6265"/>
<path d="M279.375 75.887L279.298 76.633L279.375 75.887ZM293.356 104.787C293.645 105.084 294.119 105.091 294.416 104.802L299.258 100.099C299.555 99.8101 299.562 99.3353 299.273 99.0382C298.984 98.7411 298.509 98.7343 298.212 99.0229L293.909 103.204L289.728 98.9007C289.439 98.6037 288.965 98.5968 288.667 98.8855C288.37 99.1741 288.364 99.6489 288.652 99.946L293.356 104.787ZM45.0164 45.3302L44.2665 45.3194C44.1945 50.3153 46.9473 54.3875 51.7216 57.6825C56.4802 60.9667 63.3284 63.5436 71.6829 65.5849C88.4023 69.6701 111.413 71.6695 136.503 72.7206C161.603 73.7721 188.844 73.8761 214.031 74.1548C239.233 74.4336 262.366 74.8872 279.298 76.633L279.375 75.887L279.452 75.1409C262.439 73.3868 239.236 72.9335 214.047 72.6548C188.843 72.376 161.636 72.2721 136.566 71.2219C111.486 70.1713 88.6033 68.1751 72.0389 64.1278C63.7516 62.1028 57.1104 59.5791 52.5736 56.448C48.0525 53.3278 45.704 49.6701 45.7663 45.341L45.0164 45.3302ZM279.375 75.887L279.298 76.633C284.181 77.1364 287.433 78.9313 289.602 81.326C291.785 83.735 292.931 86.8161 293.473 89.9801C294.015 93.1432 293.944 96.3421 293.73 98.9341C293.624 100.228 293.482 101.364 293.365 102.267C293.252 103.135 293.15 103.863 293.144 104.254L293.894 104.265L294.644 104.275C294.648 103.998 294.729 103.403 294.852 102.46C294.97 101.551 295.116 100.387 295.225 99.0574C295.444 96.403 295.523 93.0643 294.952 89.7269C294.38 86.3905 293.151 83.0082 290.714 80.3189C288.265 77.6154 284.654 75.6772 279.452 75.1409L279.375 75.887Z" fill="#FF6265"/>
</svg>
