<svg width="444" height="353" viewBox="0 0 444 353" fill="none" xmlns="http://www.w3.org/2000/svg">
<path d="M14.5861 26.9406C13.9968 26.9406 13.7021 26.646 13.7021 26.0566C13.7021 25.8833 13.8235 25.5713 14.0661 25.1206C14.3088 24.6353 14.5861 24.15 14.8981 23.6646C15.2101 23.1793 15.4528 22.85 15.6261 22.6766C16.2155 22.018 16.6661 21.602 16.9781 21.4286C17.3248 21.2553 17.6368 21.1686 17.9141 21.1686C18.6421 21.1686 19.0061 21.498 19.0061 22.1566C19.0061 22.3993 18.8501 22.694 18.5381 23.0406C18.2608 23.3526 17.9315 23.6473 17.5501 23.9246C16.9955 24.2713 16.6488 24.5486 16.5101 24.7566L15.3661 26.3686C15.3315 26.5073 15.2448 26.646 15.1061 26.7846C15.0021 26.8886 14.8288 26.9406 14.5861 26.9406ZM5.74613 48.0006C4.77547 48.0006 4.0648 47.81 3.61413 47.4286C3.19813 47.0473 2.99013 46.4753 2.99013 45.7126C2.99013 44.9846 3.21547 43.9966 3.66613 42.7486C4.1168 41.466 4.6888 40.0966 5.38213 38.6406C6.11013 37.1846 6.8728 35.798 7.67013 34.4806C8.46747 33.1633 9.23013 32.0886 9.95813 31.2566C10.7208 30.39 11.3275 29.9566 11.7781 29.9566C12.4021 29.9566 12.7141 30.234 12.7141 30.7886C12.7141 31.1353 12.4195 31.794 11.8301 32.7646C11.2408 33.7353 10.5995 34.7406 9.90613 35.7806C9.6288 36.162 9.24747 36.682 8.76213 37.3406C8.2768 37.9993 7.8088 38.6233 7.35813 39.2126C6.90747 39.7673 6.6128 40.1486 6.47413 40.3566C6.12747 40.8766 5.76347 41.726 5.38213 42.9046C4.96613 44.0833 4.75813 44.9846 4.75813 45.6086C4.75813 45.886 4.81013 46.094 4.91413 46.2326C5.0528 46.3713 5.34747 46.4406 5.79813 46.4406C6.6648 46.4406 7.63547 46.1633 8.71013 45.6086C9.7848 45.054 10.8768 44.3606 11.9861 43.5286C13.0955 42.662 14.1355 41.778 15.1061 40.8766C16.1115 39.9753 16.9608 39.1953 17.6541 38.5366C17.7928 38.398 18.0008 38.3286 18.2781 38.3286C18.7981 38.3286 19.0581 38.5366 19.0581 38.9526C19.0581 39.334 18.8155 39.7673 18.3301 40.2526C17.3941 41.1886 16.5275 42.0206 15.7301 42.7486C14.9328 43.4766 14.1701 44.118 13.4421 44.6726C12.2981 45.5046 11.0328 46.2673 9.64613 46.9606C8.25947 47.654 6.95947 48.0006 5.74613 48.0006ZM14.2814 48.7286C13.7268 48.7286 13.4494 48.5033 13.4494 48.0526C13.4494 47.8793 13.5188 47.6713 13.6574 47.4286C13.7961 47.1513 13.9174 46.926 14.0214 46.7526L18.7014 37.3406C20.7121 33.25 21.7174 30.9793 21.7174 30.5286C21.7174 30.0433 21.9601 29.8006 22.4454 29.8006C23.1041 29.8006 23.4334 30.1473 23.4334 30.8406C23.4334 31.0833 23.2774 31.6033 22.9654 32.4006C22.6534 33.198 22.2548 34.0993 21.7694 35.1046C20.9374 36.9073 20.2441 38.294 19.6894 39.2646C20.7294 38.0513 21.7868 36.9073 22.8614 35.8326C23.9361 34.758 25.0281 33.7353 26.1374 32.7646C29.4308 29.8873 31.9614 28.4486 33.7294 28.4486C34.9428 28.4486 35.5494 29.0206 35.5494 30.1646C35.5494 31.2046 34.6654 33.5446 32.8974 37.1846C31.1294 40.8593 30.2454 43.182 30.2454 44.1526C30.2454 44.6033 30.4014 44.8286 30.7134 44.8286C30.8174 44.8286 30.9734 44.794 31.1814 44.7246C31.4241 44.6206 31.6668 44.5686 31.9094 44.5686C32.4988 44.5686 32.7934 44.846 32.7934 45.4006C32.7934 46.094 32.0481 46.4406 30.5574 46.4406C29.8641 46.4406 29.3614 46.2846 29.0494 45.9726C28.7374 45.626 28.5814 45.1753 28.5814 44.6206C28.5814 42.9566 29.4308 40.426 31.1294 37.0286C32.8281 33.666 33.6774 31.638 33.6774 30.9446C33.6774 30.5286 33.5214 30.3206 33.2094 30.3206C32.4468 30.3206 31.2161 30.962 29.5174 32.2446C27.6801 33.6313 25.8428 35.226 24.0054 37.0286C22.1681 38.8313 20.4174 40.894 18.7534 43.2166L15.1134 48.2606C14.9054 48.5726 14.6281 48.7286 14.2814 48.7286ZM36.8214 51.0166C36.1627 51.0166 35.8334 50.4966 35.8334 49.4566C35.8334 47.9313 36.6827 45.262 38.3814 41.4486C40.1147 37.6353 42.6801 32.6433 46.0774 26.4726C44.7601 26.4726 43.5121 26.646 42.3334 26.9926C41.1894 27.3046 40.5827 27.7033 40.5134 28.1886C40.4787 28.3273 40.3921 28.466 40.2534 28.6046C40.1494 28.7086 39.9761 28.7606 39.7334 28.7606C39.1787 28.7606 38.9014 28.4833 38.9014 27.9286C38.9014 27.0273 39.6121 26.282 41.0334 25.6926C42.4547 25.1033 44.4481 24.8086 47.0134 24.8086L50.6014 18.8806C50.8441 18.4993 51.1041 18.0833 51.3814 17.6326C51.6587 17.1473 51.9707 16.6273 52.3174 16.0726C52.6641 15.5873 53.0627 15.3446 53.5134 15.3446C53.7907 15.3446 53.9987 15.4313 54.1374 15.6046C54.2761 15.7433 54.3454 15.8993 54.3454 16.0726C54.3454 16.5926 53.5827 17.9793 52.0574 20.2326C50.1507 23.0406 49.1281 24.566 48.9894 24.8086C49.5094 24.8086 50.2894 24.8606 51.3294 24.9646C52.3694 25.034 53.6001 25.1553 55.0214 25.3286C55.5414 25.3633 55.8014 25.6233 55.8014 26.1086C55.8014 26.6633 55.4894 26.9406 54.8654 26.9406C54.6227 26.9406 54.1374 26.906 53.4094 26.8366C52.6814 26.7326 51.9014 26.646 51.0694 26.5766C50.2374 26.5073 49.5267 26.49 48.9374 26.5246L48.1574 26.5766C41.1201 38.9526 37.6187 46.6486 37.6534 49.6646L37.7054 50.0806V50.1846C37.7054 50.7393 37.4107 51.0166 36.8214 51.0166ZM53.8522 48.3646C52.3962 48.3646 51.2522 47.862 50.4202 46.8566C49.5882 45.8513 49.1722 44.6206 49.1722 43.1646C49.1722 40.6686 50.0042 38.1033 51.6682 35.4686C52.1189 34.7406 52.6389 34.03 53.2282 33.3366C53.8176 32.6086 54.4589 31.9153 55.1522 31.2566C56.1922 30.2513 57.2842 29.4193 58.4282 28.7606C59.5722 28.102 60.6816 27.7726 61.7562 27.7726C63.5242 27.7726 64.4082 28.6046 64.4082 30.2686C64.4082 32.3486 63.1949 34.238 60.7682 35.9366C58.5149 37.462 56.2962 38.2246 54.1122 38.2246C53.7309 38.2246 53.3842 38.2073 53.0722 38.1726C52.7949 38.1033 52.5349 38.034 52.2922 37.9646C51.9456 38.6233 51.6336 39.4726 51.3562 40.5126C51.0789 41.5526 50.9402 42.454 50.9402 43.2166C50.9402 45.5046 51.9456 46.6486 53.9562 46.6486C55.5856 46.6486 57.1282 46.3713 58.5842 45.8166C60.0402 45.2273 61.7736 44.1353 63.7842 42.5406C65.0322 41.57 65.9682 40.79 66.5922 40.2006C67.2162 39.6113 67.8922 38.9873 68.6202 38.3286C68.8282 38.19 69.0189 38.1206 69.1922 38.1206C69.3656 38.1206 69.5389 38.1726 69.7122 38.2766C69.8856 38.3806 69.9722 38.5366 69.9722 38.7446C69.9722 39.126 69.6256 39.6633 68.9322 40.3566C68.3429 40.9113 67.7189 41.5006 67.0602 42.1246C66.4016 42.714 65.3616 43.546 63.9402 44.6206C62.4149 45.7993 60.7509 46.718 58.9482 47.3766C57.1456 48.0353 55.4469 48.3646 53.8522 48.3646ZM53.8002 36.5606C54.9096 36.5606 55.9669 36.3873 56.9722 36.0406C57.9776 35.694 58.9309 35.1913 59.8322 34.5326C61.8429 33.042 62.8482 31.638 62.8482 30.3206C62.8482 29.7313 62.4842 29.4366 61.7562 29.4366C60.3696 29.4366 58.7576 30.286 56.9202 31.9846C56.0189 32.8166 55.2736 33.5793 54.6842 34.2726C54.1296 34.9313 53.6096 35.6593 53.1242 36.4566C53.3322 36.526 53.5576 36.5606 53.8002 36.5606ZM65.1135 48.7286C64.5588 48.7286 64.2815 48.5033 64.2815 48.0526C64.2815 47.8446 64.3335 47.6366 64.4375 47.4286C64.5761 47.2206 64.6801 47.0473 64.7495 46.9086L69.4815 37.3406C71.4921 33.25 72.4975 30.9793 72.4975 30.5286C72.4975 30.0433 72.7401 29.8006 73.2255 29.8006C73.8841 29.8006 74.2135 30.13 74.2135 30.7886C74.2135 31.1353 74.0575 31.69 73.7455 32.4526C73.4335 33.2153 73.0348 34.0993 72.5495 35.1046C71.7175 36.9073 71.0241 38.294 70.4695 39.2646C71.5095 38.0513 72.5668 36.9073 73.6415 35.8326C74.7161 34.758 75.8081 33.7353 76.9175 32.7646C80.2108 29.8873 82.7415 28.4486 84.5095 28.4486C85.7228 28.4486 86.3295 29.0206 86.3295 30.1646C86.3295 31.274 85.9655 31.8286 85.2375 31.8286C84.8908 31.8286 84.6308 31.534 84.4575 30.9446C84.3535 30.5286 84.1108 30.3206 83.7295 30.3206C83.1401 30.3206 81.9961 30.962 80.2975 32.2446C78.4255 33.6313 76.5361 35.278 74.6295 37.1846C72.7575 39.0913 70.7641 41.518 68.6495 44.4646L66.0495 48.1046C65.9108 48.278 65.7721 48.4166 65.6335 48.5206C65.5295 48.6593 65.3561 48.7286 65.1135 48.7286ZM85.8765 47.9486C83.8658 47.9486 82.8605 46.9953 82.8605 45.0886C82.8605 43.8406 83.1552 42.506 83.7445 41.0846C84.3685 39.6286 85.2005 38.2246 86.2405 36.8726C87.2805 35.486 88.4418 34.238 89.7245 33.1286C91.0072 31.9846 92.3245 31.0833 93.6765 30.4246C95.0285 29.7313 96.3285 29.3846 97.5765 29.3846C99.7952 29.3846 100.905 30.4766 100.905 32.6606C100.905 34.082 100.558 34.7926 99.8645 34.7926C99.2405 34.7926 98.9285 34.498 98.9285 33.9086C98.9285 33.666 98.9805 33.4233 99.0845 33.1806C99.2232 32.9033 99.2925 32.6086 99.2925 32.2966C99.2925 31.326 98.6338 30.8406 97.3165 30.8406C95.2018 30.8406 92.5498 32.4526 89.3605 35.6766C88.5978 36.474 87.8525 37.41 87.1245 38.4846C86.3965 39.5593 85.7898 40.6513 85.3045 41.7606C84.8538 42.8353 84.6285 43.858 84.6285 44.8286C84.6285 45.7646 85.1485 46.2326 86.1885 46.2326C87.0898 46.2326 88.0432 45.9553 89.0485 45.4006C90.0885 44.846 90.9898 44.274 91.7525 43.6846C93.2778 42.5406 94.8378 40.9806 96.4325 39.0046C96.6752 38.7273 96.9872 38.3633 97.3685 37.9126C97.7498 37.462 98.1832 36.9593 98.6685 36.4046C98.8418 36.2313 99.0498 36.1446 99.2925 36.1446C99.8472 36.1446 100.125 36.422 100.125 36.9766L98.1485 39.9406C96.8312 41.882 96.1725 43.4766 96.1725 44.7246C96.1725 45.626 96.6058 46.0766 97.4725 46.0766C98.2005 46.0766 98.9978 45.886 99.8645 45.5046C100.731 45.1233 101.442 44.742 101.997 44.3606C103.106 43.6326 104.267 42.7313 105.481 41.6566C106.694 40.5473 107.855 39.438 108.965 38.3286C109.103 38.19 109.311 38.1206 109.589 38.1206C110.109 38.1206 110.369 38.3286 110.369 38.7446C110.369 39.126 110.126 39.5593 109.641 40.0446C108.254 41.4313 107.006 42.6273 105.897 43.6326C104.787 44.6033 103.73 45.4006 102.725 46.0246C102.066 46.406 101.251 46.8046 100.281 47.2206C99.3098 47.6366 98.2005 47.8446 96.9525 47.8446C95.2538 47.8446 94.4045 46.9433 94.4045 45.1406C94.4045 44.4473 94.4912 43.8753 94.6645 43.4246C91.5098 46.4406 88.5805 47.9486 85.8765 47.9486ZM113.65 48.1566C111.812 48.1566 110.374 47.6193 109.334 46.5446C108.294 45.47 107.774 44.0313 107.774 42.2286C107.774 39.1086 109.247 35.7113 112.194 32.0366C113.719 30.1646 115.262 28.7433 116.822 27.7726C118.416 26.7673 119.907 26.2646 121.294 26.2646C122.507 26.2646 123.443 26.6806 124.102 27.5126C124.76 28.3446 125.09 29.3846 125.09 30.6326C125.09 31.3953 124.986 32.1753 124.778 32.9726C124.639 33.5273 124.362 33.8046 123.946 33.8046C123.287 33.8046 122.958 33.4406 122.958 32.7126C122.958 32.4006 123.01 32.002 123.114 31.5166C123.252 30.9966 123.322 30.494 123.322 30.0086C123.322 28.622 122.646 27.9286 121.294 27.9286C120.566 27.9286 119.682 28.1886 118.642 28.7086C117.636 29.2286 116.631 29.922 115.626 30.7886C114.62 31.6206 113.736 32.574 112.974 33.6486C110.651 36.8033 109.49 39.6286 109.49 42.1246C109.49 45.002 110.79 46.4406 113.39 46.4406C115.019 46.4406 116.579 46.198 118.07 45.7126C119.56 45.1926 121.311 44.1353 123.322 42.5406C124.57 41.57 125.506 40.79 126.13 40.2006C126.754 39.6113 127.43 38.9873 128.158 38.3286C128.366 38.19 128.556 38.1206 128.73 38.1206C128.903 38.1206 129.076 38.1726 129.25 38.2766C129.423 38.3806 129.51 38.5366 129.51 38.7446C129.51 39.126 129.163 39.6633 128.47 40.3566C127.88 40.9113 127.256 41.5006 126.598 42.1246C125.939 42.714 124.899 43.546 123.478 44.6206C121.952 45.7993 120.323 46.6833 118.59 47.2726C116.891 47.862 115.244 48.1566 113.65 48.1566ZM126.603 51.0166C125.944 51.0166 125.615 50.4966 125.615 49.4566C125.615 47.9313 126.464 45.262 128.163 41.4486C129.896 37.6353 132.461 32.6433 135.859 26.4726C134.541 26.4726 133.293 26.646 132.115 26.9926C130.971 27.3046 130.364 27.7033 130.295 28.1886C130.26 28.3273 130.173 28.466 130.035 28.6046C129.931 28.7086 129.757 28.7606 129.515 28.7606C128.96 28.7606 128.683 28.4833 128.683 27.9286C128.683 27.0273 129.393 26.282 130.815 25.6926C132.236 25.1033 134.229 24.8086 136.795 24.8086L140.383 18.8806C140.625 18.4993 140.885 18.0833 141.163 17.6326C141.44 17.1473 141.752 16.6273 142.099 16.0726C142.445 15.5873 142.844 15.3446 143.295 15.3446C143.572 15.3446 143.78 15.4313 143.919 15.6046C144.057 15.7433 144.127 15.8993 144.127 16.0726C144.127 16.5926 143.364 17.9793 141.839 20.2326C139.932 23.0406 138.909 24.566 138.771 24.8086C139.291 24.8086 140.071 24.8606 141.111 24.9646C142.151 25.034 143.381 25.1553 144.803 25.3286C145.323 25.3633 145.583 25.6233 145.583 26.1086C145.583 26.6633 145.271 26.9406 144.647 26.9406C144.404 26.9406 143.919 26.906 143.191 26.8366C142.463 26.7326 141.683 26.646 140.851 26.5766C140.019 26.5073 139.308 26.49 138.719 26.5246L137.939 26.5766C130.901 38.9526 127.4 46.6486 127.435 49.6646L127.487 50.0806V50.1846C127.487 50.7393 127.192 51.0166 126.603 51.0166ZM171.619 48.4686C170.752 48.4686 170.076 48.122 169.591 47.4286C169.105 46.7353 168.863 45.8686 168.863 44.8286C168.863 44.5513 168.88 44.1353 168.915 43.5806C168.949 42.9913 168.984 42.3846 169.019 41.7606C169.088 41.102 169.14 40.53 169.175 40.0446C169.209 39.5246 169.244 39.2126 169.279 39.1086L169.227 38.9006C168.915 39.3513 168.481 39.9406 167.927 40.6686C167.407 41.3966 166.852 42.142 166.263 42.9046C165.708 43.6326 165.205 44.274 164.755 44.8286C164.027 45.6953 163.229 46.3713 162.363 46.8566C161.496 47.342 160.699 47.5846 159.971 47.5846C159.104 47.5846 158.376 47.1513 157.787 46.2846C157.197 45.3833 156.903 44.1006 156.903 42.4366C156.903 40.842 157.163 39.0566 157.683 37.0806L156.071 38.9526C155.828 39.1953 155.62 39.4033 155.447 39.5766C155.273 39.7153 155.1 39.7846 154.927 39.7846C154.753 39.7846 154.58 39.7153 154.407 39.5766C154.268 39.4033 154.199 39.1953 154.199 38.9526C154.199 38.71 154.285 38.502 154.459 38.3286C154.805 37.9473 155.204 37.462 155.655 36.8726C156.14 36.2486 156.695 35.538 157.319 34.7406C157.839 34.0126 158.705 32.6606 159.919 30.6846C160.127 30.338 160.404 30.1646 160.751 30.1646C161.34 30.1646 161.635 30.442 161.635 30.9966C161.635 31.17 161.548 31.4126 161.375 31.7246C161.201 32.002 160.959 32.5393 160.647 33.3366C160.023 34.966 159.537 36.578 159.191 38.1726C158.844 39.7326 158.671 41.2753 158.671 42.8006C158.671 44.118 158.757 44.9846 158.931 45.4006C159.104 45.782 159.364 45.9726 159.711 45.9726C160.82 45.9726 162.155 45.1406 163.715 43.4766C164.165 42.9913 164.841 42.1766 165.743 41.0326C166.644 39.854 167.58 38.4846 168.551 36.9246C169.521 35.33 170.284 33.7006 170.839 32.0366L171.619 29.7486C171.723 29.4366 171.948 29.2806 172.295 29.2806C172.919 29.2806 173.231 29.5753 173.231 30.1646C173.231 30.3726 173.04 30.9273 172.659 31.8286C172.277 32.6953 171.896 34.0646 171.515 35.9366C171.272 37.1153 171.047 38.3633 170.839 39.6806C170.665 40.998 170.579 42.2633 170.579 43.4766C170.579 45.7993 170.96 46.9606 171.723 46.9606C172.347 46.9606 173.144 46.6313 174.115 45.9726C175.085 45.314 176.108 44.482 177.183 43.4766C178.257 42.4713 179.228 41.4313 180.095 40.3566C180.892 39.4206 181.707 38.346 182.539 37.1326C183.371 35.9193 184.064 34.706 184.619 33.4926C185.208 32.2446 185.503 31.17 185.503 30.2686C185.503 29.3673 185.26 28.778 184.775 28.5006C184.705 28.466 184.237 28.3966 183.371 28.2926C182.885 28.2233 182.643 27.946 182.643 27.4606C182.643 26.906 182.92 26.6286 183.475 26.6286C184.584 26.6286 185.468 26.9406 186.127 27.5646C186.82 28.1886 187.167 29.038 187.167 30.1126C187.167 33.0246 185.225 36.786 181.343 41.3966C177.391 46.1113 174.149 48.4686 171.619 48.4686ZM198.363 26.9406C197.774 26.9406 197.479 26.646 197.479 26.0566C197.479 25.8833 197.601 25.5713 197.843 25.1206C198.086 24.6353 198.363 24.15 198.675 23.6646C198.987 23.1793 199.23 22.85 199.403 22.6766C199.993 22.018 200.443 21.602 200.755 21.4286C201.102 21.2553 201.414 21.1686 201.691 21.1686C202.419 21.1686 202.783 21.498 202.783 22.1566C202.783 22.3993 202.627 22.694 202.315 23.0406C202.038 23.3526 201.709 23.6473 201.327 23.9246C200.773 24.2713 200.426 24.5486 200.287 24.7566L199.143 26.3686C199.109 26.5073 199.022 26.646 198.883 26.7846C198.779 26.8886 198.606 26.9406 198.363 26.9406ZM189.523 48.0006C188.553 48.0006 187.842 47.81 187.391 47.4286C186.975 47.0473 186.767 46.4753 186.767 45.7126C186.767 44.9846 186.993 43.9966 187.443 42.7486C187.894 41.466 188.466 40.0966 189.159 38.6406C189.887 37.1846 190.65 35.798 191.447 34.4806C192.245 33.1633 193.007 32.0886 193.735 31.2566C194.498 30.39 195.105 29.9566 195.555 29.9566C196.179 29.9566 196.491 30.234 196.491 30.7886C196.491 31.1353 196.197 31.794 195.607 32.7646C195.018 33.7353 194.377 34.7406 193.683 35.7806C193.406 36.162 193.025 36.682 192.539 37.3406C192.054 37.9993 191.586 38.6233 191.135 39.2126C190.685 39.7673 190.39 40.1486 190.251 40.3566C189.905 40.8766 189.541 41.726 189.159 42.9046C188.743 44.0833 188.535 44.9846 188.535 45.6086C188.535 45.886 188.587 46.094 188.691 46.2326C188.83 46.3713 189.125 46.4406 189.575 46.4406C190.442 46.4406 191.413 46.1633 192.487 45.6086C193.562 45.054 194.654 44.3606 195.763 43.5286C196.873 42.662 197.913 41.778 198.883 40.8766C199.889 39.9753 200.738 39.1953 201.431 38.5366C201.57 38.398 201.778 38.3286 202.055 38.3286C202.575 38.3286 202.835 38.5366 202.835 38.9526C202.835 39.334 202.593 39.7673 202.107 40.2526C201.171 41.1886 200.305 42.0206 199.507 42.7486C198.71 43.4766 197.947 44.118 197.219 44.6726C196.075 45.5046 194.81 46.2673 193.423 46.9606C192.037 47.654 190.737 48.0006 189.523 48.0006ZM199.931 51.0166C199.272 51.0166 198.943 50.4966 198.943 49.4566C198.943 47.9313 199.792 45.262 201.491 41.4486C203.224 37.6353 205.789 32.6433 209.187 26.4726C207.869 26.4726 206.621 26.646 205.443 26.9926C204.299 27.3046 203.692 27.7033 203.623 28.1886C203.588 28.3273 203.501 28.466 203.363 28.6046C203.259 28.7086 203.085 28.7606 202.843 28.7606C202.288 28.7606 202.011 28.4833 202.011 27.9286C202.011 27.0273 202.721 26.282 204.143 25.6926C205.564 25.1033 207.557 24.8086 210.123 24.8086L213.711 18.8806C213.953 18.4993 214.213 18.0833 214.491 17.6326C214.768 17.1473 215.08 16.6273 215.427 16.0726C215.773 15.5873 216.172 15.3446 216.623 15.3446C216.9 15.3446 217.108 15.4313 217.247 15.6046C217.385 15.7433 217.455 15.8993 217.455 16.0726C217.455 16.5926 216.692 17.9793 215.167 20.2326C213.26 23.0406 212.237 24.566 212.099 24.8086C212.619 24.8086 213.399 24.8606 214.439 24.9646C215.479 25.034 216.709 25.1553 218.131 25.3286C218.651 25.3633 218.911 25.6233 218.911 26.1086C218.911 26.6633 218.599 26.9406 217.975 26.9406C217.732 26.9406 217.247 26.906 216.519 26.8366C215.791 26.7326 215.011 26.646 214.179 26.5766C213.347 26.5073 212.636 26.49 212.047 26.5246L211.267 26.5766C204.229 38.9526 200.728 46.6486 200.763 49.6646L200.815 50.0806V50.1846C200.815 50.7393 200.52 51.0166 199.931 51.0166ZM211.138 48.3646C210.583 48.3646 210.306 48.0873 210.306 47.5326C210.306 46.8046 210.566 45.6606 211.086 44.1006C211.606 42.506 212.282 40.686 213.114 38.6406C213.98 36.5606 214.899 34.4286 215.87 32.2446C216.424 31.0313 216.996 29.8526 217.586 28.7086C218.175 27.53 218.73 26.5073 219.25 25.6406C224.38 16.974 227.57 12.6406 228.818 12.6406C229.303 12.6406 229.546 12.8833 229.546 13.3686C229.546 13.6806 229.303 14.27 228.818 15.1366C228.367 15.9686 227.76 16.9566 226.998 18.1006C226.27 19.21 225.472 20.3366 224.606 21.4806C223.774 22.6246 222.976 23.682 222.214 24.6526C221.486 25.5886 220.896 26.2993 220.446 26.7846C220.064 27.2353 219.631 27.894 219.146 28.7606C218.695 29.6273 218.244 30.5286 217.794 31.4646C217.343 32.366 216.979 33.1633 216.702 33.8566L214.726 38.7446C215.246 38.0513 215.922 37.2713 216.754 36.4046C218.73 34.2206 220.775 32.574 222.89 31.4646C225.039 30.3206 226.842 29.7486 228.298 29.7486C229.095 29.7486 229.736 29.9913 230.222 30.4766C230.707 30.962 230.95 31.5513 230.95 32.2446C230.95 33.5966 230.066 35.8673 228.298 39.0566C226.53 42.2113 225.646 44.1526 225.646 44.8806C225.646 45.262 225.854 45.4526 226.27 45.4526C227.24 45.4526 228.298 45.106 229.442 44.4126C230.586 43.6846 231.764 42.766 232.978 41.6566C234.191 40.5473 235.37 39.438 236.514 38.3286C236.652 38.19 236.86 38.1206 237.138 38.1206C237.658 38.1206 237.918 38.3286 237.918 38.7446C237.918 39.126 237.675 39.5593 237.19 40.0446C234.867 42.3673 232.874 44.1006 231.21 45.2446C229.546 46.3886 227.795 46.9606 225.958 46.9606C224.571 46.9606 223.878 46.3193 223.878 45.0366C223.878 44.5513 223.964 44.0833 224.138 43.6326C224.311 43.182 224.588 42.5753 224.97 41.8126L227.362 37.0806C227.951 35.902 228.384 34.914 228.662 34.1166C228.939 33.3193 229.078 32.7126 229.078 32.2966C229.078 31.7073 228.714 31.4126 227.986 31.4126C226.703 31.4126 225.195 31.9326 223.462 32.9726C221.763 33.978 219.943 35.5033 218.002 37.5486C216.892 38.7273 215.887 39.9753 214.986 41.2926C214.119 42.61 213.426 44.0313 212.906 45.5566L212.282 47.3766C212.039 48.0353 211.658 48.3646 211.138 48.3646ZM249.646 51.0166C248.987 51.0166 248.658 50.4966 248.658 49.4566C248.658 47.9313 249.507 45.262 251.206 41.4486C252.939 37.6353 255.504 32.6433 258.902 26.4726C257.584 26.4726 256.336 26.646 255.158 26.9926C254.014 27.3046 253.407 27.7033 253.338 28.1886C253.303 28.3273 253.216 28.466 253.078 28.6046C252.974 28.7086 252.8 28.7606 252.558 28.7606C252.003 28.7606 251.726 28.4833 251.726 27.9286C251.726 27.0273 252.436 26.282 253.858 25.6926C255.279 25.1033 257.272 24.8086 259.838 24.8086L263.426 18.8806C263.668 18.4993 263.928 18.0833 264.206 17.6326C264.483 17.1473 264.795 16.6273 265.142 16.0726C265.488 15.5873 265.887 15.3446 266.338 15.3446C266.615 15.3446 266.823 15.4313 266.962 15.6046C267.1 15.7433 267.17 15.8993 267.17 16.0726C267.17 16.5926 266.407 17.9793 264.882 20.2326C262.975 23.0406 261.952 24.566 261.814 24.8086C262.334 24.8086 263.114 24.8606 264.154 24.9646C265.194 25.034 266.424 25.1553 267.846 25.3286C268.366 25.3633 268.626 25.6233 268.626 26.1086C268.626 26.6633 268.314 26.9406 267.69 26.9406C267.447 26.9406 266.962 26.906 266.234 26.8366C265.506 26.7326 264.726 26.646 263.894 26.5766C263.062 26.5073 262.351 26.49 261.762 26.5246L260.982 26.5766C253.944 38.9526 250.443 46.6486 250.478 49.6646L250.53 50.0806V50.1846C250.53 50.7393 250.235 51.0166 249.646 51.0166ZM260.852 48.3646C260.298 48.3646 260.02 48.0873 260.02 47.5326C260.02 46.8046 260.28 45.6606 260.8 44.1006C261.32 42.506 261.996 40.686 262.828 38.6406C263.695 36.5606 264.614 34.4286 265.584 32.2446C266.139 31.0313 266.711 29.8526 267.3 28.7086C267.89 27.53 268.444 26.5073 268.964 25.6406C274.095 16.974 277.284 12.6406 278.532 12.6406C279.018 12.6406 279.26 12.8833 279.26 13.3686C279.26 13.6806 279.018 14.27 278.532 15.1366C278.082 15.9686 277.475 16.9566 276.712 18.1006C275.984 19.21 275.187 20.3366 274.32 21.4806C273.488 22.6246 272.691 23.682 271.928 24.6526C271.2 25.5886 270.611 26.2993 270.16 26.7846C269.779 27.2353 269.346 27.894 268.86 28.7606C268.41 29.6273 267.959 30.5286 267.508 31.4646C267.058 32.366 266.694 33.1633 266.416 33.8566L264.44 38.7446C264.96 38.0513 265.636 37.2713 266.468 36.4046C268.444 34.2206 270.49 32.574 272.604 31.4646C274.754 30.3206 276.556 29.7486 278.012 29.7486C278.81 29.7486 279.451 29.9913 279.936 30.4766C280.422 30.962 280.664 31.5513 280.664 32.2446C280.664 33.5966 279.78 35.8673 278.012 39.0566C276.244 42.2113 275.36 44.1526 275.36 44.8806C275.36 45.262 275.568 45.4526 275.984 45.4526C276.955 45.4526 278.012 45.106 279.156 44.4126C280.3 43.6846 281.479 42.766 282.692 41.6566C283.906 40.5473 285.084 39.438 286.228 38.3286C286.367 38.19 286.575 38.1206 286.852 38.1206C287.372 38.1206 287.632 38.3286 287.632 38.7446C287.632 39.126 287.39 39.5593 286.904 40.0446C284.582 42.3673 282.588 44.1006 280.924 45.2446C279.26 46.3886 277.51 46.9606 275.672 46.9606C274.286 46.9606 273.592 46.3193 273.592 45.0366C273.592 44.5513 273.679 44.0833 273.852 43.6326C274.026 43.182 274.303 42.5753 274.684 41.8126L277.076 37.0806C277.666 35.902 278.099 34.914 278.376 34.1166C278.654 33.3193 278.792 32.7126 278.792 32.2966C278.792 31.7073 278.428 31.4126 277.7 31.4126C276.418 31.4126 274.91 31.9326 273.176 32.9726C271.478 33.978 269.658 35.5033 267.716 37.5486C266.607 38.7273 265.602 39.9753 264.7 41.2926C263.834 42.61 263.14 44.0313 262.62 45.5566L261.996 47.3766C261.754 48.0353 261.372 48.3646 260.852 48.3646ZM289.731 48.3646C288.275 48.3646 287.131 47.862 286.299 46.8566C285.467 45.8513 285.051 44.6206 285.051 43.1646C285.051 40.6686 285.883 38.1033 287.547 35.4686C287.998 34.7406 288.518 34.03 289.107 33.3366C289.696 32.6086 290.338 31.9153 291.031 31.2566C292.071 30.2513 293.163 29.4193 294.307 28.7606C295.451 28.102 296.56 27.7726 297.635 27.7726C299.403 27.7726 300.287 28.6046 300.287 30.2686C300.287 32.3486 299.074 34.238 296.647 35.9366C294.394 37.462 292.175 38.2246 289.991 38.2246C289.61 38.2246 289.263 38.2073 288.951 38.1726C288.674 38.1033 288.414 38.034 288.171 37.9646C287.824 38.6233 287.512 39.4726 287.235 40.5126C286.958 41.5526 286.819 42.454 286.819 43.2166C286.819 45.5046 287.824 46.6486 289.835 46.6486C291.464 46.6486 293.007 46.3713 294.463 45.8166C295.919 45.2273 297.652 44.1353 299.663 42.5406C300.911 41.57 301.847 40.79 302.471 40.2006C303.095 39.6113 303.771 38.9873 304.499 38.3286C304.707 38.19 304.898 38.1206 305.071 38.1206C305.244 38.1206 305.418 38.1726 305.591 38.2766C305.764 38.3806 305.851 38.5366 305.851 38.7446C305.851 39.126 305.504 39.6633 304.811 40.3566C304.222 40.9113 303.598 41.5006 302.939 42.1246C302.28 42.714 301.24 43.546 299.819 44.6206C298.294 45.7993 296.63 46.718 294.827 47.3766C293.024 48.0353 291.326 48.3646 289.731 48.3646ZM289.679 36.5606C290.788 36.5606 291.846 36.3873 292.851 36.0406C293.856 35.694 294.81 35.1913 295.711 34.5326C297.722 33.042 298.727 31.638 298.727 30.3206C298.727 29.7313 298.363 29.4366 297.635 29.4366C296.248 29.4366 294.636 30.286 292.799 31.9846C291.898 32.8166 291.152 33.5793 290.563 34.2726C290.008 34.9313 289.488 35.6593 289.003 36.4566C289.211 36.526 289.436 36.5606 289.679 36.5606ZM323.258 48.8326C321.663 48.8326 320.432 48.3473 319.566 47.3766C318.734 46.3713 318.318 45.054 318.318 43.4246C318.318 42.246 318.526 40.8246 318.942 39.1606C319.67 36.3526 320.9 33.094 322.634 29.3846C323.986 26.5766 325.442 23.8206 327.002 21.1166C328.562 18.378 330.278 15.6913 332.15 13.0566C335.131 8.82728 337.211 6.71262 338.39 6.71262C339.152 6.71262 339.534 6.92062 339.534 7.33662C339.534 7.92595 338.563 9.39928 336.622 11.7566L332.982 16.1766C329.827 19.99 327.244 23.89 325.234 27.8766C323.258 31.8633 321.715 35.85 320.606 39.8366C320.294 40.9806 320.138 42.0553 320.138 43.0606C320.138 45.6953 321.212 47.0126 323.362 47.0126C324.124 47.0126 324.904 46.7873 325.702 46.3366C326.499 45.9206 326.932 45.7126 327.002 45.7126C327.418 45.7126 327.626 46.0073 327.626 46.5966C327.626 47.1166 327.435 47.5153 327.054 47.7926C325.875 48.486 324.61 48.8326 323.258 48.8326ZM332.978 47.9486C330.967 47.9486 329.962 46.9953 329.962 45.0886C329.962 43.8406 330.257 42.506 330.846 41.0846C331.47 39.6286 332.302 38.2246 333.342 36.8726C334.382 35.486 335.543 34.238 336.826 33.1286C338.109 31.9846 339.426 31.0833 340.778 30.4246C342.13 29.7313 343.43 29.3846 344.678 29.3846C346.897 29.3846 348.006 30.4766 348.006 32.6606C348.006 34.082 347.659 34.7926 346.966 34.7926C346.342 34.7926 346.03 34.498 346.03 33.9086C346.03 33.666 346.082 33.4233 346.186 33.1806C346.325 32.9033 346.394 32.6086 346.394 32.2966C346.394 31.326 345.735 30.8406 344.418 30.8406C342.303 30.8406 339.651 32.4526 336.462 35.6766C335.699 36.474 334.954 37.41 334.226 38.4846C333.498 39.5593 332.891 40.6513 332.406 41.7606C331.955 42.8353 331.73 43.858 331.73 44.8286C331.73 45.7646 332.25 46.2326 333.29 46.2326C334.191 46.2326 335.145 45.9553 336.15 45.4006C337.19 44.846 338.091 44.274 338.854 43.6846C340.379 42.5406 341.939 40.9806 343.534 39.0046C343.777 38.7273 344.089 38.3633 344.47 37.9126C344.851 37.462 345.285 36.9593 345.77 36.4046C345.943 36.2313 346.151 36.1446 346.394 36.1446C346.949 36.1446 347.226 36.422 347.226 36.9766L345.25 39.9406C343.933 41.882 343.274 43.4766 343.274 44.7246C343.274 45.626 343.707 46.0766 344.574 46.0766C345.302 46.0766 346.099 45.886 346.966 45.5046C347.833 45.1233 348.543 44.742 349.098 44.3606C350.207 43.6326 351.369 42.7313 352.582 41.6566C353.795 40.5473 354.957 39.438 356.066 38.3286C356.205 38.19 356.413 38.1206 356.69 38.1206C357.21 38.1206 357.47 38.3286 357.47 38.7446C357.47 39.126 357.227 39.5593 356.742 40.0446C355.355 41.4313 354.107 42.6273 352.998 43.6326C351.889 44.6033 350.831 45.4006 349.826 46.0246C349.167 46.406 348.353 46.8046 347.382 47.2206C346.411 47.6366 345.302 47.8446 344.054 47.8446C342.355 47.8446 341.506 46.9433 341.506 45.1406C341.506 44.4473 341.593 43.8753 341.766 43.4246C338.611 46.4406 335.682 47.9486 332.978 47.9486ZM351.599 61.7806C349.97 61.7806 349.155 60.6193 349.155 58.2966C349.155 55.246 350.49 50.3926 353.159 43.7366C353.61 42.6273 354.147 41.466 354.771 40.2526C355.395 39.0393 356.123 37.7566 356.955 36.4046C357.822 34.9486 358.637 33.6833 359.399 32.6086C360.197 31.534 360.89 30.6673 361.479 30.0086C361.687 29.8006 361.861 29.662 361.999 29.5926C362.173 29.5233 362.311 29.4886 362.415 29.4886C363.317 29.4886 364.339 29.7486 365.483 30.2686C366.627 30.7886 367.65 31.4473 368.551 32.2446C369.383 32.938 370.059 33.77 370.579 34.7406C371.099 35.7113 371.359 36.7166 371.359 37.7566C371.359 38.5193 371.203 39.2993 370.891 40.0966C370.614 40.8593 370.233 41.622 369.747 42.3846C370.649 42.2113 371.741 41.8126 373.023 41.1886C374.341 40.5646 375.675 39.6113 377.027 38.3286C377.166 38.19 377.357 38.1206 377.599 38.1206C378.119 38.1206 378.379 38.3286 378.379 38.7446C378.379 38.918 378.293 39.1433 378.119 39.4206C377.981 39.6633 377.721 39.9753 377.339 40.3566C374.774 42.714 371.689 44.066 368.083 44.4126C367.563 44.9673 366.991 45.5046 366.367 46.0246C365.778 46.51 365.154 46.9606 364.495 47.3766C362.485 48.59 360.769 49.1966 359.347 49.1966C358.758 49.1966 358.273 49.006 357.891 48.6246C357.51 48.2433 357.319 47.81 357.319 47.3246C357.319 45.73 358.706 44.5166 361.479 43.6846C362.485 43.4073 363.49 43.1646 364.495 42.9566C365.501 42.7486 366.489 42.5233 367.459 42.2806C368.153 41.206 368.655 40.27 368.967 39.4726C369.314 38.6753 369.487 37.9993 369.487 37.4446C369.487 35.6073 368.118 33.8566 365.379 32.1926C364.305 31.534 363.455 31.222 362.831 31.2566C359.989 34.3766 357.302 38.7446 354.771 44.3606C352.137 50.15 350.819 54.7086 350.819 58.0366C350.819 58.834 350.889 59.3713 351.027 59.6486C351.166 59.926 351.409 60.0646 351.755 60.0646C351.859 60.0646 351.946 60.0473 352.015 60.0126C352.085 60.0126 352.154 60.0126 352.223 60.0126C352.674 60.0126 352.899 60.29 352.899 60.8446C352.899 61.4686 352.466 61.7806 351.599 61.7806ZM359.711 47.5326C360.994 47.5326 362.849 46.5273 365.275 44.5166C364.721 44.586 364.183 44.6726 363.663 44.7766C363.178 44.8806 362.467 45.0713 361.531 45.3486C359.971 45.7993 359.191 46.3713 359.191 47.0646C359.191 47.3766 359.365 47.5326 359.711 47.5326ZM375.583 51.0166C374.924 51.0166 374.595 50.4966 374.595 49.4566C374.595 47.9313 375.444 45.262 377.143 41.4486C378.876 37.6353 381.442 32.6433 384.839 26.4726C383.522 26.4726 382.274 26.646 381.095 26.9926C379.951 27.3046 379.344 27.7033 379.275 28.1886C379.24 28.3273 379.154 28.466 379.015 28.6046C378.911 28.7086 378.738 28.7606 378.495 28.7606C377.94 28.7606 377.663 28.4833 377.663 27.9286C377.663 27.0273 378.374 26.282 379.795 25.6926C381.216 25.1033 383.21 24.8086 385.775 24.8086L389.363 18.8806C389.606 18.4993 389.866 18.0833 390.143 17.6326C390.42 17.1473 390.732 16.6273 391.079 16.0726C391.426 15.5873 391.824 15.3446 392.275 15.3446C392.552 15.3446 392.76 15.4313 392.899 15.6046C393.038 15.7433 393.107 15.8993 393.107 16.0726C393.107 16.5926 392.344 17.9793 390.819 20.2326C388.912 23.0406 387.89 24.566 387.751 24.8086C388.271 24.8086 389.051 24.8606 390.091 24.9646C391.131 25.034 392.362 25.1553 393.783 25.3286C394.303 25.3633 394.563 25.6233 394.563 26.1086C394.563 26.6633 394.251 26.9406 393.627 26.9406C393.384 26.9406 392.899 26.906 392.171 26.8366C391.443 26.7326 390.663 26.646 389.831 26.5766C388.999 26.5073 388.288 26.49 387.699 26.5246L386.919 26.5766C379.882 38.9526 376.38 46.6486 376.415 49.6646L376.467 50.0806V50.1846C376.467 50.7393 376.172 51.0166 375.583 51.0166ZM391.626 47.1686C388.818 47.1686 387.414 45.5913 387.414 42.4366C387.414 40.9806 387.761 39.4553 388.454 37.8606C389.147 36.266 390.066 34.7926 391.21 33.4406C392.354 32.054 393.619 30.9273 395.006 30.0606C396.427 29.194 397.866 28.7606 399.322 28.7606C400.605 28.7606 401.541 29.246 402.13 30.2166C402.719 31.1873 403.014 32.262 403.014 33.4406C403.014 35.0006 402.702 36.5953 402.078 38.2246C401.454 39.8193 400.605 41.2926 399.53 42.6446C398.455 43.9966 397.242 45.0886 395.89 45.9206C394.538 46.7526 393.117 47.1686 391.626 47.1686ZM391.574 45.5046C391.782 45.5046 391.903 45.4873 391.938 45.4526C393.29 45.2793 394.538 44.794 395.682 43.9966C396.826 43.1993 397.814 42.2113 398.646 41.0326C399.513 39.8193 400.171 38.5193 400.622 37.1326C401.073 35.746 401.298 34.3766 401.298 33.0246C401.298 32.2273 401.073 31.6033 400.622 31.1526C400.171 30.702 399.599 30.4766 398.906 30.4766C397.901 30.4766 396.826 30.8926 395.682 31.7246C394.573 32.5566 393.515 33.614 392.51 34.8966C391.539 36.1793 390.742 37.5313 390.118 38.9526C389.494 40.3393 389.182 41.5873 389.182 42.6966C389.182 44.5686 389.979 45.5046 391.574 45.5046ZM401.974 61.7806C400.345 61.7806 399.53 60.6193 399.53 58.2966C399.53 55.246 400.865 50.3926 403.534 43.7366C403.985 42.6273 404.522 41.466 405.146 40.2526C405.77 39.0393 406.498 37.7566 407.33 36.4046C408.197 34.9486 409.012 33.6833 409.774 32.6086C410.572 31.534 411.265 30.6673 411.854 30.0086C412.062 29.8006 412.236 29.662 412.374 29.5926C412.548 29.5233 412.686 29.4886 412.79 29.4886C413.692 29.4886 414.714 29.7486 415.858 30.2686C417.002 30.7886 418.025 31.4473 418.926 32.2446C419.758 32.938 420.434 33.77 420.954 34.7406C421.474 35.7113 421.734 36.7166 421.734 37.7566C421.734 38.5193 421.578 39.2993 421.266 40.0966C420.989 40.8593 420.608 41.622 420.122 42.3846C421.024 42.2113 422.116 41.8126 423.398 41.1886C424.716 40.5646 426.05 39.6113 427.402 38.3286C427.541 38.19 427.732 38.1206 427.974 38.1206C428.494 38.1206 428.754 38.3286 428.754 38.7446C428.754 38.918 428.668 39.1433 428.494 39.4206C428.356 39.6633 428.096 39.9753 427.714 40.3566C425.149 42.714 422.064 44.066 418.458 44.4126C417.938 44.9673 417.366 45.5046 416.742 46.0246C416.153 46.51 415.529 46.9606 414.87 47.3766C412.86 48.59 411.144 49.1966 409.722 49.1966C409.133 49.1966 408.648 49.006 408.266 48.6246C407.885 48.2433 407.694 47.81 407.694 47.3246C407.694 45.73 409.081 44.5166 411.854 43.6846C412.86 43.4073 413.865 43.1646 414.87 42.9566C415.876 42.7486 416.864 42.5233 417.834 42.2806C418.528 41.206 419.03 40.27 419.342 39.4726C419.689 38.6753 419.862 37.9993 419.862 37.4446C419.862 35.6073 418.493 33.8566 415.754 32.1926C414.68 31.534 413.83 31.222 413.206 31.2566C410.364 34.3766 407.677 38.7446 405.146 44.3606C402.512 50.15 401.194 54.7086 401.194 58.0366C401.194 58.834 401.264 59.3713 401.402 59.6486C401.541 59.926 401.784 60.0646 402.13 60.0646C402.234 60.0646 402.321 60.0473 402.39 60.0126C402.46 60.0126 402.529 60.0126 402.598 60.0126C403.049 60.0126 403.274 60.29 403.274 60.8446C403.274 61.4686 402.841 61.7806 401.974 61.7806ZM410.086 47.5326C411.369 47.5326 413.224 46.5273 415.65 44.5166C415.096 44.586 414.558 44.6726 414.038 44.7766C413.553 44.8806 412.842 45.0713 411.906 45.3486C410.346 45.7993 409.566 46.3713 409.566 47.0646C409.566 47.3766 409.74 47.5326 410.086 47.5326ZM3.45813 115.017C2.79947 115.017 2.47013 114.497 2.47013 113.457C2.47013 111.931 3.31947 109.262 5.01813 105.449C6.75147 101.635 9.3168 96.6433 12.7141 90.4726C11.3968 90.4726 10.1488 90.646 8.97013 90.9926C7.82613 91.3046 7.21947 91.7033 7.15013 92.1886C7.11547 92.3273 7.0288 92.466 6.89013 92.6046C6.78613 92.7086 6.6128 92.7606 6.37013 92.7606C5.81547 92.7606 5.53813 92.4833 5.53813 91.9286C5.53813 91.0273 6.2488 90.282 7.67013 89.6926C9.09147 89.1033 11.0848 88.8086 13.6501 88.8086L17.2381 82.8806C17.4808 82.4993 17.7408 82.0833 18.0181 81.6326C18.2955 81.1473 18.6075 80.6273 18.9541 80.0726C19.3008 79.5873 19.6995 79.3446 20.1501 79.3446C20.4275 79.3446 20.6355 79.4313 20.7741 79.6046C20.9128 79.7433 20.9821 79.8993 20.9821 80.0726C20.9821 80.5926 20.2195 81.9793 18.6941 84.2326C16.7875 87.0406 15.7648 88.566 15.6261 88.8086C16.1461 88.8086 16.9261 88.8606 17.9661 88.9646C19.0061 89.034 20.2368 89.1553 21.6581 89.3286C22.1781 89.3633 22.4381 89.6233 22.4381 90.1086C22.4381 90.6633 22.1261 90.9406 21.5021 90.9406C21.2595 90.9406 20.7741 90.906 20.0461 90.8366C19.3181 90.7326 18.5381 90.646 17.7061 90.5766C16.8741 90.5073 16.1635 90.49 15.5741 90.5246L14.7941 90.5766C7.7568 102.953 4.25547 110.649 4.29013 113.665L4.34213 114.081V114.185C4.34213 114.739 4.04747 115.017 3.45813 115.017ZM19.5009 111.169C16.6929 111.169 15.2889 109.591 15.2889 106.437C15.2889 104.981 15.6356 103.455 16.3289 101.861C17.0223 100.266 17.9409 98.7926 19.0849 97.4406C20.2289 96.054 21.4943 94.9273 22.8809 94.0606C24.3023 93.194 25.7409 92.7606 27.1969 92.7606C28.4796 92.7606 29.4156 93.246 30.0049 94.2166C30.5943 95.1873 30.8889 96.262 30.8889 97.4406C30.8889 99.0006 30.5769 100.595 29.9529 102.225C29.3289 103.819 28.4796 105.293 27.4049 106.645C26.3303 107.997 25.1169 109.089 23.7649 109.921C22.4129 110.753 20.9916 111.169 19.5009 111.169ZM19.4489 109.505C19.6569 109.505 19.7783 109.487 19.8129 109.453C21.1649 109.279 22.4129 108.794 23.5569 107.997C24.7009 107.199 25.6889 106.211 26.5209 105.033C27.3876 103.819 28.0463 102.519 28.4969 101.133C28.9476 99.746 29.1729 98.3766 29.1729 97.0246C29.1729 96.2273 28.9476 95.6033 28.4969 95.1526C28.0463 94.702 27.4743 94.4766 26.7809 94.4766C25.7756 94.4766 24.7009 94.8926 23.5569 95.7246C22.4476 96.5566 21.3903 97.614 20.3849 98.8966C19.4143 100.179 18.6169 101.531 17.9929 102.953C17.3689 104.339 17.0569 105.587 17.0569 106.697C17.0569 108.569 17.8543 109.505 19.4489 109.505ZM50.3987 111.949C49.9827 111.949 49.7747 111.793 49.7747 111.481C49.22 110.51 48.9427 108.517 48.9427 105.501C48.9427 104.773 48.9947 103.802 49.0987 102.589C49.2027 101.375 49.3414 100.11 49.5147 98.7926C49.688 97.4753 49.8787 96.2793 50.0867 95.2046C50.2947 94.0953 50.52 93.298 50.7627 92.8126C50.9707 92.3966 51.2307 92.1886 51.5427 92.1886C52.0974 92.1886 52.3747 92.414 52.3747 92.8646C52.3747 93.1073 52.34 93.35 52.2707 93.5926C52.2014 93.8006 52.132 94.0606 52.0627 94.3726C51.612 96.106 51.248 97.9433 50.9707 99.8846C50.728 101.826 50.6067 103.819 50.6067 105.865C50.6067 106.801 50.6414 107.633 50.7107 108.361C50.8147 109.089 50.9187 109.713 51.0227 110.233C51.9934 109.851 53.068 109.106 54.2467 107.997C55.4254 106.853 56.5694 105.587 57.6787 104.201C58.58 103.057 59.3947 101.895 60.1227 100.717C60.8854 99.538 61.4747 98.4286 61.8907 97.3886C62.3414 96.3486 62.5667 95.4993 62.5667 94.8406C62.5667 94.39 62.5147 94.078 62.4107 93.9046C62.3414 93.7313 62.2547 93.5926 62.1507 93.4886C62.0467 93.3846 61.9947 93.194 61.9947 92.9166C61.9947 92.3966 62.2547 92.1366 62.7747 92.1366C63.1214 92.1366 63.4334 92.3966 63.7107 92.9166C63.988 93.4366 64.1267 94.0953 64.1267 94.8926C64.1267 97.354 62.4107 100.803 58.9787 105.241C55.4427 109.713 52.5827 111.949 50.3987 111.949ZM75.3713 90.9406C74.782 90.9406 74.4873 90.646 74.4873 90.0566C74.4873 89.8833 74.6086 89.5713 74.8513 89.1206C75.094 88.6353 75.3713 88.15 75.6833 87.6646C75.9953 87.1793 76.238 86.85 76.4113 86.6766C77.0006 86.018 77.4513 85.602 77.7633 85.4286C78.11 85.2553 78.422 85.1686 78.6993 85.1686C79.4273 85.1686 79.7913 85.498 79.7913 86.1566C79.7913 86.3993 79.6353 86.694 79.3233 87.0406C79.046 87.3526 78.7166 87.6473 78.3353 87.9246C77.7806 88.2713 77.434 88.5486 77.2953 88.7566L76.1513 90.3686C76.1166 90.5073 76.03 90.646 75.8913 90.7846C75.7873 90.8886 75.614 90.9406 75.3713 90.9406ZM66.5313 112.001C65.5606 112.001 64.85 111.81 64.3993 111.429C63.9833 111.047 63.7753 110.475 63.7753 109.713C63.7753 108.985 64.0006 107.997 64.4513 106.749C64.902 105.466 65.474 104.097 66.1673 102.641C66.8953 101.185 67.658 99.798 68.4553 98.4806C69.2526 97.1633 70.0153 96.0886 70.7433 95.2566C71.506 94.39 72.1126 93.9566 72.5633 93.9566C73.1873 93.9566 73.4993 94.234 73.4993 94.7886C73.4993 95.1353 73.2046 95.794 72.6153 96.7646C72.026 97.7353 71.3846 98.7406 70.6913 99.7806C70.414 100.162 70.0326 100.682 69.5473 101.341C69.062 101.999 68.594 102.623 68.1433 103.213C67.6926 103.767 67.398 104.149 67.2593 104.357C66.9126 104.877 66.5486 105.726 66.1673 106.905C65.7513 108.083 65.5433 108.985 65.5433 109.609C65.5433 109.886 65.5953 110.094 65.6993 110.233C65.838 110.371 66.1326 110.441 66.5833 110.441C67.45 110.441 68.4206 110.163 69.4953 109.609C70.57 109.054 71.662 108.361 72.7713 107.529C73.8806 106.662 74.9206 105.778 75.8913 104.877C76.8966 103.975 77.746 103.195 78.4393 102.537C78.578 102.398 78.786 102.329 79.0633 102.329C79.5833 102.329 79.8433 102.537 79.8433 102.953C79.8433 103.334 79.6006 103.767 79.1153 104.253C78.1793 105.189 77.3126 106.021 76.5153 106.749C75.718 107.477 74.9553 108.118 74.2273 108.673C73.0833 109.505 71.818 110.267 70.4313 110.961C69.0446 111.654 67.7446 112.001 66.5313 112.001ZM82.0866 112.365C80.6306 112.365 79.4866 111.862 78.6546 110.857C77.8226 109.851 77.4066 108.621 77.4066 107.165C77.4066 104.669 78.2386 102.103 79.9026 99.4686C80.3533 98.7406 80.8733 98.03 81.4626 97.3366C82.0519 96.6086 82.6933 95.9153 83.3866 95.2566C84.4266 94.2513 85.5186 93.4193 86.6626 92.7606C87.8066 92.102 88.9159 91.7726 89.9906 91.7726C91.7586 91.7726 92.6426 92.6046 92.6426 94.2686C92.6426 96.3486 91.4293 98.238 89.0026 99.9366C86.7493 101.462 84.5306 102.225 82.3466 102.225C81.9653 102.225 81.6186 102.207 81.3066 102.173C81.0293 102.103 80.7693 102.034 80.5266 101.965C80.1799 102.623 79.8679 103.473 79.5906 104.513C79.3133 105.553 79.1746 106.454 79.1746 107.217C79.1746 109.505 80.1799 110.649 82.1906 110.649C83.8199 110.649 85.3626 110.371 86.8186 109.817C88.2746 109.227 90.0079 108.135 92.0186 106.541C93.2666 105.57 94.2026 104.79 94.8266 104.201C95.4506 103.611 96.1266 102.987 96.8546 102.329C97.0626 102.19 97.2533 102.121 97.4266 102.121C97.5999 102.121 97.7733 102.173 97.9466 102.277C98.1199 102.381 98.2066 102.537 98.2066 102.745C98.2066 103.126 97.8599 103.663 97.1666 104.357C96.5773 104.911 95.9533 105.501 95.2946 106.125C94.6359 106.714 93.5959 107.546 92.1746 108.621C90.6493 109.799 88.9853 110.718 87.1826 111.377C85.3799 112.035 83.6813 112.365 82.0866 112.365ZM82.0346 100.561C83.1439 100.561 84.2013 100.387 85.2066 100.041C86.2119 99.694 87.1653 99.1913 88.0666 98.5326C90.0773 97.042 91.0826 95.638 91.0826 94.3206C91.0826 93.7313 90.7186 93.4366 89.9906 93.4366C88.6039 93.4366 86.9919 94.286 85.1546 95.9846C84.2533 96.8166 83.5079 97.5793 82.9186 98.2726C82.3639 98.9313 81.8439 99.6593 81.3586 100.457C81.5666 100.526 81.7919 100.561 82.0346 100.561ZM113.576 112.469C112.709 112.469 112.033 112.122 111.548 111.429C111.063 110.735 110.82 109.869 110.82 108.829C110.82 108.551 110.837 108.135 110.872 107.581C110.907 106.991 110.941 106.385 110.976 105.761C111.045 105.102 111.097 104.53 111.132 104.045C111.167 103.525 111.201 103.213 111.236 103.109L111.184 102.901C110.872 103.351 110.439 103.941 109.884 104.669C109.364 105.397 108.809 106.142 108.22 106.905C107.665 107.633 107.163 108.274 106.712 108.829C105.984 109.695 105.187 110.371 104.32 110.857C103.453 111.342 102.656 111.585 101.928 111.585C101.061 111.585 100.333 111.151 99.7439 110.285C99.1545 109.383 98.8599 108.101 98.8599 106.437C98.8599 104.842 99.1199 103.057 99.6399 101.081L98.0279 102.953C97.7852 103.195 97.5772 103.403 97.4039 103.577C97.2305 103.715 97.0572 103.785 96.8839 103.785C96.7105 103.785 96.5372 103.715 96.3639 103.577C96.2252 103.403 96.1559 103.195 96.1559 102.953C96.1559 102.71 96.2425 102.502 96.4159 102.329C96.7625 101.947 97.1612 101.462 97.6119 100.873C98.0972 100.249 98.6519 99.538 99.2759 98.7406C99.7959 98.0126 100.663 96.6606 101.876 94.6846C102.084 94.338 102.361 94.1646 102.708 94.1646C103.297 94.1646 103.592 94.442 103.592 94.9966C103.592 95.17 103.505 95.4126 103.332 95.7246C103.159 96.002 102.916 96.5393 102.604 97.3366C101.98 98.966 101.495 100.578 101.148 102.173C100.801 103.733 100.628 105.275 100.628 106.801C100.628 108.118 100.715 108.985 100.888 109.401C101.061 109.782 101.321 109.973 101.668 109.973C102.777 109.973 104.112 109.141 105.672 107.477C106.123 106.991 106.799 106.177 107.7 105.033C108.601 103.854 109.537 102.485 110.508 100.925C111.479 99.33 112.241 97.7006 112.796 96.0366L113.576 93.7486C113.68 93.4366 113.905 93.2806 114.252 93.2806C114.876 93.2806 115.188 93.5753 115.188 94.1646C115.188 94.3726 114.997 94.9273 114.616 95.8286C114.235 96.6953 113.853 98.0646 113.472 99.9366C113.229 101.115 113.004 102.363 112.796 103.681C112.623 104.998 112.536 106.263 112.536 107.477C112.536 109.799 112.917 110.961 113.68 110.961C114.304 110.961 115.101 110.631 116.072 109.973C117.043 109.314 118.065 108.482 119.14 107.477C120.215 106.471 121.185 105.431 122.052 104.357C122.849 103.421 123.664 102.346 124.496 101.133C125.328 99.9193 126.021 98.706 126.576 97.4926C127.165 96.2446 127.46 95.17 127.46 94.2686C127.46 93.3673 127.217 92.778 126.732 92.5006C126.663 92.466 126.195 92.3966 125.328 92.2926C124.843 92.2233 124.6 91.946 124.6 91.4606C124.6 90.906 124.877 90.6286 125.432 90.6286C126.541 90.6286 127.425 90.9406 128.084 91.5646C128.777 92.1886 129.124 93.038 129.124 94.1126C129.124 97.0246 127.183 100.786 123.3 105.397C119.348 110.111 116.107 112.469 113.576 112.469ZM148.13 111.169C145.322 111.169 143.918 109.591 143.918 106.437C143.918 104.981 144.265 103.455 144.958 101.861C145.651 100.266 146.57 98.7926 147.714 97.4406C148.858 96.054 150.123 94.9273 151.51 94.0606C152.931 93.194 154.37 92.7606 155.826 92.7606C157.109 92.7606 158.045 93.246 158.634 94.2166C159.223 95.1873 159.518 96.262 159.518 97.4406C159.518 99.0006 159.206 100.595 158.582 102.225C157.958 103.819 157.109 105.293 156.034 106.645C154.959 107.997 153.746 109.089 152.394 109.921C151.042 110.753 149.621 111.169 148.13 111.169ZM148.078 109.505C148.286 109.505 148.407 109.487 148.442 109.453C149.794 109.279 151.042 108.794 152.186 107.997C153.33 107.199 154.318 106.211 155.15 105.033C156.017 103.819 156.675 102.519 157.126 101.133C157.577 99.746 157.802 98.3766 157.802 97.0246C157.802 96.2273 157.577 95.6033 157.126 95.1526C156.675 94.702 156.103 94.4766 155.41 94.4766C154.405 94.4766 153.33 94.8926 152.186 95.7246C151.077 96.5566 150.019 97.614 149.014 98.8966C148.043 100.179 147.246 101.531 146.622 102.953C145.998 104.339 145.686 105.587 145.686 106.697C145.686 108.569 146.483 109.505 148.078 109.505ZM175.742 113.197C174.044 113.197 173.194 111.966 173.194 109.505C173.194 108.187 173.506 106.593 174.13 104.721C169.936 109.609 166.642 112.053 164.25 112.053C162.274 112.053 161.286 110.857 161.286 108.465C161.286 107.563 161.425 106.489 161.702 105.241C162.014 103.958 162.413 102.641 162.898 101.289C163.418 99.9366 163.973 98.6713 164.562 97.4926C165.152 96.314 165.741 95.3606 166.33 94.6326C166.538 94.39 166.798 94.2686 167.11 94.2686C167.284 94.2686 167.457 94.338 167.63 94.4766C167.804 94.5806 167.89 94.754 167.89 94.9966C167.89 95.2046 167.769 95.4993 167.526 95.8806C165.966 98.446 164.857 100.682 164.198 102.589C163.366 104.773 162.95 106.662 162.95 108.257C162.95 109.747 163.332 110.493 164.094 110.493C164.58 110.493 165.221 110.25 166.018 109.765C166.816 109.279 167.63 108.69 168.462 107.997C169.329 107.269 170.074 106.593 170.698 105.969C172.432 104.131 173.992 102.173 175.378 100.093C176.002 99.122 176.557 98.186 177.042 97.2846C177.562 96.3486 178.03 95.378 178.446 94.3726C178.62 93.9913 178.758 93.714 178.862 93.5406C179.001 93.3326 179.192 93.2286 179.434 93.2286C180.162 93.2286 180.526 93.506 180.526 94.0606C180.526 94.4073 180.405 94.65 180.162 94.7886C176.626 101.965 174.858 106.905 174.858 109.609C174.858 110.337 174.928 110.857 175.066 111.169C175.205 111.446 175.448 111.585 175.794 111.585C176.28 111.585 177.025 111.273 178.03 110.649C179.07 110.025 180.284 109.071 181.67 107.789L187.13 102.797C187.408 102.519 187.668 102.381 187.91 102.381C188.465 102.381 188.742 102.641 188.742 103.161C188.742 103.611 187.65 104.825 185.466 106.801C184.53 107.667 183.698 108.395 182.97 108.985C182.242 109.574 181.566 110.094 180.942 110.545C179.764 111.377 178.724 112.018 177.822 112.469C176.921 112.954 176.228 113.197 175.742 113.197ZM183.789 112.729C183.235 112.729 182.957 112.503 182.957 112.053C182.957 111.845 183.009 111.637 183.113 111.429C183.252 111.221 183.356 111.047 183.425 110.909L188.157 101.341C190.168 97.25 191.173 94.9793 191.173 94.5286C191.173 94.0433 191.416 93.8006 191.901 93.8006C192.56 93.8006 192.889 94.13 192.889 94.7886C192.889 95.1353 192.733 95.69 192.421 96.4526C192.109 97.2153 191.711 98.0993 191.225 99.1046C190.393 100.907 189.7 102.294 189.145 103.265C190.185 102.051 191.243 100.907 192.317 99.8326C193.392 98.758 194.484 97.7353 195.593 96.7646C198.887 93.8873 201.417 92.4486 203.185 92.4486C204.399 92.4486 205.005 93.0206 205.005 94.1646C205.005 95.274 204.641 95.8286 203.913 95.8286C203.567 95.8286 203.307 95.534 203.133 94.9446C203.029 94.5286 202.787 94.3206 202.405 94.3206C201.816 94.3206 200.672 94.962 198.973 96.2446C197.101 97.6313 195.212 99.278 193.305 101.185C191.433 103.091 189.44 105.518 187.325 108.465L184.725 112.105C184.587 112.278 184.448 112.417 184.309 112.521C184.205 112.659 184.032 112.729 183.789 112.729ZM215.326 113.197C214.736 113.197 214.442 112.919 214.442 112.365C214.442 112.33 214.65 111.897 215.066 111.065C215.482 110.233 216.071 109.002 216.834 107.373L219.486 101.809C220.56 99.5553 221.323 97.77 221.774 96.4526C222.259 95.1353 222.502 94.286 222.502 93.9046C222.502 93.35 222.779 93.0726 223.334 93.0726C223.888 93.0726 224.166 93.35 224.166 93.9046C224.166 94.3553 224.01 95.066 223.698 96.0366C223.42 96.9726 222.952 98.186 222.294 99.6766L219.642 105.709C226.887 96.5566 232.347 91.9806 236.022 91.9806C236.715 91.9806 237.252 92.2753 237.634 92.8646C238.015 93.4193 238.206 94.0433 238.206 94.7366C238.206 96.4006 237.01 99.2953 234.618 103.421C236.455 101.549 238.31 99.6766 240.182 97.8046C242.088 95.898 243.995 94.026 245.902 92.1886C246.387 91.738 246.786 91.5126 247.098 91.5126C247.514 91.5126 247.86 91.7206 248.138 92.1366C248.415 92.518 248.554 92.934 248.554 93.3846C248.554 93.7313 248.398 94.1646 248.086 94.6846C247.635 95.4473 247.219 96.366 246.838 97.4406C246.456 98.4806 246.023 99.6593 245.538 100.977C244.983 102.467 244.584 103.767 244.342 104.877C244.099 105.986 243.978 106.887 243.978 107.581C243.978 108.447 244.186 109.089 244.602 109.505C245.018 109.886 245.434 110.077 245.85 110.077C246.578 110.077 247.375 109.886 248.242 109.505C249.108 109.123 249.819 108.742 250.374 108.361C251.483 107.633 252.644 106.731 253.858 105.657C255.071 104.547 256.232 103.438 257.342 102.329C257.48 102.19 257.688 102.121 257.966 102.121C258.486 102.121 258.746 102.329 258.746 102.745C258.746 103.126 258.503 103.559 258.018 104.045C256.631 105.431 255.383 106.627 254.274 107.633C253.164 108.603 252.107 109.401 251.102 110.025C250.443 110.406 249.646 110.805 248.71 111.221C247.774 111.637 246.768 111.845 245.694 111.845C244.688 111.845 243.839 111.533 243.146 110.909C242.487 110.285 242.158 108.95 242.158 106.905C242.158 106.107 242.296 105.171 242.574 104.097C242.851 102.987 243.267 101.757 243.822 100.405L246.578 93.8526L239.142 101.341C238.275 102.207 237.564 102.935 237.01 103.525C236.455 104.114 236.004 104.599 235.658 104.981C234.999 105.674 234.41 106.35 233.89 107.009C233.404 107.667 232.988 108.239 232.642 108.725C232.399 109.106 232.122 109.297 231.81 109.297C231.22 109.297 230.926 109.054 230.926 108.569C230.926 107.494 231.896 105.015 233.838 101.133C235.779 97.25 236.75 94.9273 236.75 94.1646C236.75 93.818 236.368 93.6446 235.606 93.6446C232.52 93.6446 227.026 98.6886 219.122 108.777C218.463 109.713 217.371 111.117 215.846 112.989C215.742 113.127 215.568 113.197 215.326 113.197ZM260.837 112.365C259.381 112.365 258.237 111.862 257.405 110.857C256.573 109.851 256.157 108.621 256.157 107.165C256.157 104.669 256.989 102.103 258.653 99.4686C259.103 98.7406 259.623 98.03 260.213 97.3366C260.802 96.6086 261.443 95.9153 262.137 95.2566C263.177 94.2513 264.269 93.4193 265.413 92.7606C266.557 92.102 267.666 91.7726 268.741 91.7726C270.509 91.7726 271.393 92.6046 271.393 94.2686C271.393 96.3486 270.179 98.238 267.753 99.9366C265.499 101.462 263.281 102.225 261.097 102.225C260.715 102.225 260.369 102.207 260.057 102.173C259.779 102.103 259.519 102.034 259.277 101.965C258.93 102.623 258.618 103.473 258.341 104.513C258.063 105.553 257.925 106.454 257.925 107.217C257.925 109.505 258.93 110.649 260.941 110.649C262.57 110.649 264.113 110.371 265.569 109.817C267.025 109.227 268.758 108.135 270.769 106.541C272.017 105.57 272.953 104.79 273.577 104.201C274.201 103.611 274.877 102.987 275.605 102.329C275.813 102.19 276.003 102.121 276.177 102.121C276.35 102.121 276.523 102.173 276.697 102.277C276.87 102.381 276.957 102.537 276.957 102.745C276.957 103.126 276.61 103.663 275.917 104.357C275.327 104.911 274.703 105.501 274.045 106.125C273.386 106.714 272.346 107.546 270.925 108.621C269.399 109.799 267.735 110.718 265.933 111.377C264.13 112.035 262.431 112.365 260.837 112.365ZM260.785 100.561C261.894 100.561 262.951 100.387 263.957 100.041C264.962 99.694 265.915 99.1913 266.817 98.5326C268.827 97.042 269.833 95.638 269.833 94.3206C269.833 93.7313 269.469 93.4366 268.741 93.4366C267.354 93.4366 265.742 94.286 263.905 95.9846C263.003 96.8166 262.258 97.5793 261.669 98.2726C261.114 98.9313 260.594 99.6593 260.109 100.457C260.317 100.526 260.542 100.561 260.785 100.561ZM290.714 116.057C290.437 116.057 290.09 115.918 289.674 115.641C289.293 115.398 288.998 115.155 288.79 114.913C288.374 114.393 288.097 113.769 287.958 113.041C287.819 112.313 287.75 111.515 287.75 110.649C287.75 109.921 287.767 109.141 287.802 108.309C287.871 107.442 287.975 106.523 288.114 105.553C287.213 106.593 286.19 107.615 285.046 108.621C283.937 109.591 282.793 110.389 281.614 111.013C280.47 111.637 279.378 111.949 278.338 111.949C275.738 111.949 274.438 110.562 274.438 107.789C274.438 104.911 275.443 102.138 277.454 99.4686C278.459 98.1513 279.603 96.886 280.886 95.6726C282.169 94.4593 283.521 93.4713 284.942 92.7086C286.363 91.946 287.767 91.5646 289.154 91.5646C290.194 91.5646 291.113 91.9633 291.91 92.7606C291.979 92.622 292.066 92.3966 292.17 92.0846C292.309 91.7726 292.499 91.374 292.742 90.8886C293.574 89.086 294.493 87.214 295.498 85.2726C296.503 83.2966 297.405 81.6673 298.202 80.3846C299.103 78.9633 299.953 78.2526 300.75 78.2526C301.305 78.2526 301.582 78.686 301.582 79.5526C301.582 81.0433 300.178 84.5273 297.37 90.0046C297.197 90.3166 296.885 90.8886 296.434 91.7206C296.018 92.518 295.515 93.454 294.926 94.5286C294.371 95.5686 293.799 96.6086 293.21 97.6486C292.621 98.6886 292.083 99.6246 291.598 100.457C291.147 101.254 290.818 101.809 290.61 102.121C290.229 103.681 289.934 105.171 289.726 106.593C289.518 107.979 289.414 109.418 289.414 110.909C289.414 111.463 289.431 111.966 289.466 112.417C289.535 112.902 289.674 113.283 289.882 113.561C290.055 113.769 290.246 113.925 290.454 114.029C290.662 114.167 290.905 114.289 291.182 114.393C291.598 114.497 291.806 114.739 291.806 115.121C291.806 115.745 291.442 116.057 290.714 116.057ZM293.158 94.3206C294.475 92.0673 295.637 89.97 296.642 88.0286C297.647 86.0526 298.462 84.198 299.086 82.4646C297.699 84.2673 296.538 86.174 295.602 88.1846C294.666 90.1953 293.851 92.2406 293.158 94.3206ZM277.974 110.389C278.979 110.389 280.037 110.059 281.146 109.401C282.29 108.707 283.365 107.893 284.37 106.957C285.271 106.125 286.103 105.275 286.866 104.409C287.629 103.507 288.339 102.589 288.998 101.653C289.275 100.439 289.587 99.2433 289.934 98.0646C290.315 96.886 290.731 95.7073 291.182 94.5286C290.627 93.662 289.847 93.2286 288.842 93.2286C287.802 93.2286 286.641 93.6273 285.358 94.4246C284.11 95.1873 282.897 96.1406 281.718 97.2846C280.574 98.4286 279.586 99.5206 278.754 100.561C277.021 102.883 276.154 105.345 276.154 107.945C276.154 109.574 276.761 110.389 277.974 110.389ZM306.832 90.9406C306.243 90.9406 305.948 90.646 305.948 90.0566C305.948 89.8833 306.07 89.5713 306.312 89.1206C306.555 88.6353 306.832 88.15 307.144 87.6646C307.456 87.1793 307.699 86.85 307.872 86.6766C308.462 86.018 308.912 85.602 309.224 85.4286C309.571 85.2553 309.883 85.1686 310.16 85.1686C310.888 85.1686 311.252 85.498 311.252 86.1566C311.252 86.3993 311.096 86.694 310.784 87.0406C310.507 87.3526 310.178 87.6473 309.796 87.9246C309.242 88.2713 308.895 88.5486 308.756 88.7566L307.612 90.3686C307.578 90.5073 307.491 90.646 307.352 90.7846C307.248 90.8886 307.075 90.9406 306.832 90.9406ZM297.992 112.001C297.022 112.001 296.311 111.81 295.86 111.429C295.444 111.047 295.236 110.475 295.236 109.713C295.236 108.985 295.462 107.997 295.912 106.749C296.363 105.466 296.935 104.097 297.628 102.641C298.356 101.185 299.119 99.798 299.916 98.4806C300.714 97.1633 301.476 96.0886 302.204 95.2566C302.967 94.39 303.574 93.9566 304.024 93.9566C304.648 93.9566 304.96 94.234 304.96 94.7886C304.96 95.1353 304.666 95.794 304.076 96.7646C303.487 97.7353 302.846 98.7406 302.152 99.7806C301.875 100.162 301.494 100.682 301.008 101.341C300.523 101.999 300.055 102.623 299.604 103.213C299.154 103.767 298.859 104.149 298.72 104.357C298.374 104.877 298.01 105.726 297.628 106.905C297.212 108.083 297.004 108.985 297.004 109.609C297.004 109.886 297.056 110.094 297.16 110.233C297.299 110.371 297.594 110.441 298.044 110.441C298.911 110.441 299.882 110.163 300.956 109.609C302.031 109.054 303.123 108.361 304.232 107.529C305.342 106.662 306.382 105.778 307.352 104.877C308.358 103.975 309.207 103.195 309.9 102.537C310.039 102.398 310.247 102.329 310.524 102.329C311.044 102.329 311.304 102.537 311.304 102.953C311.304 103.334 311.062 103.767 310.576 104.253C309.64 105.189 308.774 106.021 307.976 106.749C307.179 107.477 306.416 108.118 305.688 108.673C304.544 109.505 303.279 110.267 301.892 110.961C300.506 111.654 299.206 112.001 297.992 112.001ZM310.584 111.949C308.573 111.949 307.568 110.995 307.568 109.089C307.568 107.841 307.862 106.506 308.452 105.085C309.076 103.629 309.908 102.225 310.948 100.873C311.988 99.486 313.149 98.238 314.432 97.1286C315.714 95.9846 317.032 95.0833 318.384 94.4246C319.736 93.7313 321.036 93.3846 322.284 93.3846C324.502 93.3846 325.612 94.4766 325.612 96.6606C325.612 98.082 325.265 98.7926 324.572 98.7926C323.948 98.7926 323.636 98.498 323.636 97.9086C323.636 97.666 323.688 97.4233 323.792 97.1806C323.93 96.9033 324 96.6086 324 96.2966C324 95.326 323.341 94.8406 322.024 94.8406C319.909 94.8406 317.257 96.4526 314.068 99.6766C313.305 100.474 312.56 101.41 311.832 102.485C311.104 103.559 310.497 104.651 310.012 105.761C309.561 106.835 309.336 107.858 309.336 108.829C309.336 109.765 309.856 110.233 310.896 110.233C311.797 110.233 312.75 109.955 313.756 109.401C314.796 108.846 315.697 108.274 316.46 107.685C317.985 106.541 319.545 104.981 321.14 103.005C321.382 102.727 321.694 102.363 322.076 101.913C322.457 101.462 322.89 100.959 323.376 100.405C323.549 100.231 323.757 100.145 324 100.145C324.554 100.145 324.832 100.422 324.832 100.977L322.856 103.941C321.538 105.882 320.88 107.477 320.88 108.725C320.88 109.626 321.313 110.077 322.18 110.077C322.908 110.077 323.705 109.886 324.572 109.505C325.438 109.123 326.149 108.742 326.704 108.361C327.813 107.633 328.974 106.731 330.188 105.657C331.401 104.547 332.562 103.438 333.672 102.329C333.81 102.19 334.018 102.121 334.296 102.121C334.816 102.121 335.076 102.329 335.076 102.745C335.076 103.126 334.833 103.559 334.348 104.045C332.961 105.431 331.713 106.627 330.604 107.633C329.494 108.603 328.437 109.401 327.432 110.025C326.773 110.406 325.958 110.805 324.988 111.221C324.017 111.637 322.908 111.845 321.66 111.845C319.961 111.845 319.112 110.943 319.112 109.141C319.112 108.447 319.198 107.875 319.372 107.425C316.217 110.441 313.288 111.949 310.584 111.949Z" fill="#FF6265"/>
<path d="M167.95 334.951C168.397 334.505 168.397 333.781 167.95 333.335L160.677 326.062C160.231 325.615 159.507 325.615 159.061 326.062C158.615 326.508 158.615 327.232 159.061 327.678L165.526 334.143L159.061 340.608C158.615 341.054 158.615 341.778 159.061 342.224C159.507 342.67 160.231 342.67 160.677 342.224L167.95 334.951ZM56.8564 139.286L55.7136 139.286C55.7136 194.652 72.3502 243.577 94.5331 278.682C105.624 296.234 118.119 310.359 130.646 320.107C143.155 329.843 155.791 335.286 167.142 335.286L167.142 334.143L167.142 333C156.493 333 144.344 327.872 132.049 318.304C119.772 308.749 107.446 294.838 96.4654 277.461C74.5055 242.709 57.9993 194.205 57.9993 139.286L56.8564 139.286Z" fill="#FF6265"/>
</svg>
