<svg width="1446" height="911" viewBox="0 0 1446 911" fill="none" xmlns="http://www.w3.org/2000/svg">
<g filter="url(#filter0_f_2823_1376)">
<ellipse cx="723.271" cy="840.113" rx="648.722" ry="7.1682" fill="black"/>
</g>
<path d="M180.639 1.43359H1270.21C1291.58 1.43359 1308.91 18.7637 1308.91 40.1416V788.502C1308.91 790.877 1306.99 792.803 1304.61 792.803H146.231C143.856 792.803 141.931 790.877 141.931 788.502V40.1416C141.931 18.7639 159.261 1.43376 180.639 1.43359Z" fill="#1A202C" stroke="#4A5568" stroke-width="2.86728"/>
<path d="M147.665 38.7081C147.665 21.289 161.786 7.16797 179.205 7.16797H1271.64C1289.06 7.16797 1303.18 21.2889 1303.18 38.708V764.13H147.665V38.7081Z" fill="black"/>
<rect width="1103.9" height="688.149" transform="translate(170.286 44.5715)" fill="#F5F5F5"/>
<g clip-path="url(#clip0_2823_1376)">
<path d="M725.046 775.481C725.25 775.682 725.576 775.682 725.78 775.481C726.48 774.792 727.967 773.301 728.333 772.734C728.853 771.927 729.372 771.262 729.372 770.101C729.372 768.94 728.431 767.999 727.27 767.999C726.458 767.999 725.762 768.465 725.412 769.139C725.062 768.465 724.367 767.999 723.555 767.999C722.394 767.999 721.453 768.94 721.453 770.101C721.453 771.262 721.972 771.927 722.492 772.734C722.86 773.3 724.347 774.792 725.046 775.481Z" fill="#96A1A8"/>
<path d="M725.78 777.66C725.576 777.459 725.249 777.459 725.046 777.66C724.346 778.35 722.859 779.842 722.493 780.408C721.973 781.214 721.453 781.879 721.453 783.041C721.453 784.201 722.394 785.142 723.555 785.142C724.367 785.142 725.063 784.676 725.413 784.004C725.763 784.677 726.459 785.142 727.271 785.142C728.431 785.142 729.372 784.201 729.372 783.041C729.372 781.88 728.854 781.214 728.333 780.408C727.967 779.84 726.479 778.349 725.78 777.66Z" fill="#96A1A8"/>
<path d="M732.846 776.57C733.52 776.22 733.985 775.524 733.985 774.712C733.985 773.551 733.044 772.611 731.884 772.61C730.723 772.61 730.057 773.13 729.25 773.65C728.684 774.016 727.192 775.503 726.503 776.203C726.301 776.406 726.301 776.733 726.503 776.936C727.192 777.636 728.684 779.123 729.25 779.49C730.057 780.01 730.722 780.529 731.884 780.529C733.044 780.529 733.985 779.587 733.985 778.426C733.986 777.616 733.52 776.92 732.846 776.57Z" fill="#96A1A8"/>
<path d="M724.324 776.937C724.525 776.734 724.525 776.407 724.324 776.203C723.634 775.504 722.142 774.017 721.576 773.65C720.77 773.13 720.104 772.611 718.944 772.611C717.783 772.611 716.843 773.552 716.843 774.713C716.843 775.525 717.309 776.221 717.982 776.571C717.308 776.921 716.843 777.616 716.843 778.428C716.843 779.588 717.783 780.529 718.944 780.53C720.105 780.53 720.771 780.011 721.576 779.491C722.143 779.124 723.634 777.637 724.324 776.937Z" fill="#96A1A8"/>
</g>
<path d="M0 791.369C0 789.785 1.28372 788.502 2.86728 788.502H1442.24C1443.82 788.502 1445.11 789.785 1445.11 791.369V814.307H0V791.369Z" fill="#A3ACB1"/>
<path d="M0 791.369C0 789.785 1.28372 788.502 2.86728 788.502H1442.24C1443.82 788.502 1445.11 789.785 1445.11 791.369V814.307H0V791.369Z" fill="url(#paint0_linear_2823_1376)"/>
<path d="M0 814.308H1445.11L1415.93 820.193C1378.61 827.72 1340.63 831.511 1302.56 831.511H140.366C98.5253 831.511 56.8103 826.932 15.966 817.856L0 814.308Z" fill="#647279"/>
<path d="M0 814.308H1445.11L1415.93 820.193C1378.61 827.72 1340.63 831.511 1302.56 831.511H140.366C98.5253 831.511 56.8103 826.932 15.966 817.856L0 814.308Z" fill="url(#paint1_linear_2823_1376)"/>
<path fill-rule="evenodd" clip-rule="evenodd" d="M603.609 788.502C604.347 799.71 613.672 808.573 625.067 808.573H821.476C832.87 808.573 842.195 799.71 842.933 788.502H603.609Z" fill="#96A1A8"/>
<path fill-rule="evenodd" clip-rule="evenodd" d="M603.609 788.502C604.347 799.71 613.672 808.573 625.067 808.573H821.476C832.87 808.573 842.195 799.71 842.933 788.502H603.609Z" fill="url(#paint2_linear_2823_1376)"/>
<defs>
<filter id="filter0_f_2823_1376" x="11.4687" y="769.865" width="1423.6" height="140.497" filterUnits="userSpaceOnUse" color-interpolation-filters="sRGB">
<feFlood flood-opacity="0" result="BackgroundImageFix"/>
<feBlend mode="normal" in="SourceGraphic" in2="BackgroundImageFix" result="shape"/>
<feGaussianBlur stdDeviation="31.5401" result="effect1_foregroundBlur_2823_1376"/>
</filter>
<linearGradient id="paint0_linear_2823_1376" x1="-2.78774e-10" y1="801.405" x2="1445.11" y2="801.405" gradientUnits="userSpaceOnUse">
<stop stop-color="#0D1012"/>
<stop offset="0.0295345" stop-color="#CAD4DB"/>
<stop offset="0.0625" stop-color="#242729"/>
<stop offset="0.133609" stop-color="#A3ACB1"/>
<stop offset="0.865967" stop-color="#A3ACB1"/>
<stop offset="0.941937" stop-color="#242729"/>
<stop offset="0.971275" stop-color="#CAD4DB"/>
<stop offset="0.996436" stop-color="#0D1012"/>
</linearGradient>
<linearGradient id="paint1_linear_2823_1376" x1="722.554" y1="814.308" x2="722.554" y2="831.511" gradientUnits="userSpaceOnUse">
<stop stop-color="#7A7F83"/>
<stop offset="1" stop-color="#0B0B0E"/>
</linearGradient>
<linearGradient id="paint2_linear_2823_1376" x1="627.218" y1="800.688" x2="823.626" y2="800.688" gradientUnits="userSpaceOnUse">
<stop stop-color="#3C3C3C"/>
<stop offset="0.317518" stop-color="#3C3C3C" stop-opacity="0"/>
<stop offset="0.660584" stop-color="#3C3C3C" stop-opacity="0"/>
<stop offset="1" stop-color="#444444"/>
</linearGradient>
<clipPath id="clip0_2823_1376">
<rect width="17.1429" height="17.1429" fill="white" transform="translate(716.84 768)"/>
</clipPath>
</defs>
</svg>
