<svg width="70" height="69" viewBox="0 0 70 69" fill="none" xmlns="http://www.w3.org/2000/svg">
<path d="M24.365 34.5237C24.365 35.0968 24.5607 35.572 25.0219 36.0192L35.7838 46.5435C36.1472 46.9069 36.5805 47.0886 37.0976 47.0886C38.1458 47.0886 38.9984 46.25 38.9984 45.2018C38.9984 44.6707 38.7748 44.2094 38.3974 43.8321L28.8375 34.5098L38.3974 25.2154C38.7748 24.8381 38.9984 24.3629 38.9984 23.8457C38.9984 22.7975 38.1458 21.9729 37.0976 21.9729C36.5805 21.9729 36.1472 22.1406 35.7838 22.504L25.0219 33.0283C24.5747 33.4755 24.365 33.9507 24.365 34.5237Z" fill="#F5F5F5"/>
</svg>
