<svg width="45" height="45" viewBox="0 0 45 45" fill="none" xmlns="http://www.w3.org/2000/svg">
<path d="M32.1928 22.1838C31.64 22.7366 30.7436 22.7366 30.1908 22.1838L24.1137 16.1067V32.5077C24.1137 33.2895 23.4799 33.9233 22.6981 33.9233C21.9163 33.9233 21.2825 33.2895 21.2825 32.5077V16.1067L15.2054 22.1838C14.6525 22.7366 13.7562 22.7366 13.2034 22.1838C12.6506 21.6309 12.6506 20.7346 13.2034 20.1818L21.6971 11.6881C21.9626 11.4226 22.3226 11.2734 22.6981 11.2734C23.0735 11.2734 23.4336 11.4226 23.6991 11.6881L32.1928 20.1818C32.7456 20.7346 32.7456 21.6309 32.1928 22.1838Z" fill="#F5F5F5"/>
</svg>
