<svg width="45" height="45" viewBox="0 0 45 45" fill="none" xmlns="http://www.w3.org/2000/svg">
<path d="M13.2037 22.7703C13.7565 22.2175 14.6528 22.2175 15.2057 22.7703L21.2828 28.8474V12.4464C21.2828 11.6646 21.9166 11.0308 22.6984 11.0308C23.4802 11.0308 24.114 11.6646 24.114 12.4464V28.8474L30.1911 22.7703C30.7439 22.2175 31.6403 22.2175 32.1931 22.7703C32.7459 23.3232 32.7459 24.2195 32.1931 24.7723L23.6994 33.266C23.4339 33.5315 23.0738 33.6807 22.6984 33.6807C22.3229 33.6807 21.9629 33.5315 21.6974 33.266L13.2037 24.7723C12.6509 24.2195 12.6509 23.3232 13.2037 22.7703Z" fill="#F5F5F5"/>
</svg>
