<svg width="21" height="21" viewBox="0 0 21 21" fill="none" xmlns="http://www.w3.org/2000/svg">
<path d="M10.4166 9.38449C10.6541 9.61865 11.0348 9.61865 11.2729 9.38449C12.0891 8.57968 13.8239 6.84025 14.2507 6.1786C14.8582 5.23798 15.4629 4.46193 15.4629 3.10719C15.4629 1.75245 14.3658 0.655273 13.011 0.655273C12.0637 0.655273 11.2515 1.19851 10.8434 1.98459C10.4353 1.19851 9.62384 0.655273 8.67652 0.655273C7.32178 0.655273 6.22461 1.75245 6.22461 3.10719C6.22461 4.46193 6.83006 5.23798 7.43685 6.1786C7.86569 6.83958 9.60042 8.57968 10.4166 9.38449Z" fill="#030303"/>
<path d="M11.2723 11.9261C11.0348 11.6913 10.6534 11.6913 10.4159 11.9261C9.59976 12.7303 7.86502 14.471 7.43752 15.1313C6.83073 16.072 6.22461 16.848 6.22461 18.2041C6.22461 19.5575 7.32178 20.6547 8.67652 20.6547C9.62384 20.6547 10.436 20.1114 10.8441 19.3267C11.2529 20.1128 12.0644 20.6547 13.0117 20.6547C14.3658 20.6547 15.4636 19.5575 15.4636 18.2041C15.4636 16.8493 14.8588 16.072 14.2514 15.1313C13.8245 14.4697 12.0885 12.7296 11.2723 11.9261Z" fill="#030303"/>
<path d="M19.5168 10.6553C20.3022 10.2472 20.8448 9.43506 20.8448 8.48774C20.8448 7.133 19.7476 6.03583 18.3935 6.03516C17.0395 6.03516 16.2621 6.64128 15.3215 7.24807C14.6611 7.67556 12.9197 9.4103 12.1156 10.2265C11.8807 10.464 11.8807 10.8447 12.1156 11.0822C12.9197 11.8983 14.6611 13.6331 15.3215 14.0612C16.2621 14.668 17.0381 15.2735 18.3935 15.2735C19.7469 15.2735 20.8448 14.175 20.8448 12.8209C20.8468 11.8756 20.3029 11.0634 19.5168 10.6553Z" fill="#030303"/>
<path d="M9.57359 11.0828C9.80774 10.846 9.80774 10.464 9.57359 10.2265C8.76877 9.4103 7.02868 7.67556 6.3677 7.24807C5.42774 6.64128 4.65102 6.03516 3.29762 6.03516C1.94288 6.03516 0.845703 7.133 0.845703 8.48774C0.845703 9.43506 1.38961 10.2472 2.17502 10.6553C1.38894 11.0634 0.845703 11.8749 0.845703 12.8222C0.845703 14.1756 1.94288 15.2728 3.29762 15.2742C4.65169 15.2742 5.42841 14.6687 6.36837 14.0619C7.02935 13.6338 8.76877 11.899 9.57359 11.0828Z" fill="#030303"/>
</svg>
