<svg width="389" height="116" viewBox="0 0 389 116" fill="none" xmlns="http://www.w3.org/2000/svg">
<rect width="20.1504" height="20.1503" transform="matrix(-0.98995 -0.141414 -0.141414 0.98995 25.6046 3.41877)" fill="#030303"/>
<ellipse cx="20" cy="20" rx="20" ry="20" transform="matrix(-0.98995 -0.141414 -0.141414 0.98995 45.2546 6.22585)" fill="#030303"/>
<path d="M27.8472 15.0692H28.3472C28.3072 15.2692 28.2472 15.4959 28.1672 15.7492C28.1006 15.9892 28.0206 16.2359 27.9272 16.4892C27.8472 16.7292 27.7539 16.9626 27.6472 17.1892C27.5539 17.4159 27.4672 17.6026 27.3872 17.7492H22.4472L21.1672 21.6092H22.1472C23.4272 21.6092 24.4139 21.8959 25.1072 22.4692C25.8139 23.0426 26.1672 23.8826 26.1672 24.9892C26.1672 25.7892 26.0339 26.5226 25.7672 27.1892C25.5006 27.8559 25.1206 28.4292 24.6272 28.9092C24.1472 29.3892 23.5606 29.7626 22.8672 30.0292C22.1872 30.2826 21.4206 30.4092 20.5672 30.4092C20.2472 30.4092 19.9272 30.3826 19.6072 30.3292C19.3006 30.2892 19.0006 30.2226 18.7072 30.1292C18.4139 30.0359 18.1472 29.9292 17.9072 29.8092C17.6806 29.6759 17.4872 29.5359 17.3272 29.3892L18.2672 27.5892H18.6672C18.7339 27.6826 18.8072 27.8026 18.8872 27.9492C18.9806 28.0959 19.0739 28.2492 19.1672 28.4092C19.2606 28.5692 19.3539 28.7292 19.4472 28.8892C19.5406 29.0492 19.6272 29.1892 19.7072 29.3092C19.8406 29.3359 19.9872 29.3692 20.1472 29.4092C20.3072 29.4492 20.5072 29.4692 20.7472 29.4692C21.3872 29.4692 21.9406 29.3626 22.4072 29.1492C22.8739 28.9226 23.2539 28.6226 23.5472 28.2492C23.8539 27.8759 24.0806 27.4492 24.2272 26.9692C24.3739 26.4892 24.4472 25.9959 24.4472 25.4892C24.4472 24.6092 24.1539 23.9826 23.5672 23.6092C22.9939 23.2359 22.1872 23.0626 21.1472 23.0892L19.7272 23.1092L21.9872 16.1692H26.7672L27.8472 15.0692Z" fill="#F5F5F5"/>
<path d="M68.9506 24.5692C68.3266 24.5692 67.8226 24.3852 67.4386 24.0172C67.0706 23.6492 66.8866 23.1612 66.8866 22.5532V7.76921H74.5426C75.7906 7.76921 76.8866 8.00921 77.8306 8.48921C78.7906 8.95321 79.5266 9.61721 80.0386 10.4812C80.5666 11.3452 80.8306 12.3452 80.8306 13.4812V18.3772C80.8306 20.4092 80.3026 21.9532 79.2466 23.0092C78.2066 24.0492 76.6706 24.5692 74.6386 24.5692H68.9506ZM74.5666 22.0972C75.7026 22.0972 76.5586 21.7772 77.1346 21.1372C77.7266 20.4812 78.0226 19.5292 78.0226 18.2812V13.5772C78.0226 12.5852 77.6946 11.7852 77.0386 11.1772C76.3826 10.5532 75.5266 10.2412 74.4706 10.2412H69.6946V22.0972H74.5666ZM85.5913 24.5692C84.9673 24.5692 84.4633 24.3852 84.0793 24.0172C83.7113 23.6332 83.5273 23.1372 83.5273 22.5292V7.76921H95.8393V10.1932H86.3353V14.7532H95.1193V17.2012H86.3353V22.1452H95.8393V24.5692H85.5913ZM100.451 24.5692C99.8106 24.5692 99.3066 24.3852 98.9386 24.0172C98.5706 23.6492 98.3866 23.1612 98.3866 22.5532V7.76921H101.195V22.1212H110.315V24.5692H100.451ZM112.525 7.76921H115.333V24.5692H112.525V7.76921ZM124.968 24.5692C124.168 24.5692 123.584 24.1052 123.216 23.1772L117.456 7.76921H120.36L125.064 21.0652H125.088L129.816 7.76921H132.696L126.312 24.5692H124.968ZM136.638 24.5692C136.014 24.5692 135.51 24.3852 135.126 24.0172C134.758 23.6332 134.574 23.1372 134.574 22.5292V7.76921H146.886V10.1932H137.382V14.7532H146.166V17.2012H137.382V22.1452H146.886V24.5692H136.638ZM149.434 7.76921H158.098C159.474 7.76921 160.586 8.14521 161.434 8.89721C162.282 9.64921 162.706 10.6412 162.706 11.8732V13.5772C162.706 14.4092 162.45 15.1452 161.938 15.7852C161.442 16.4092 160.746 16.8732 159.85 17.1772V17.2252C160.362 17.5292 160.77 17.9212 161.074 18.4012C161.394 18.8652 161.666 19.4732 161.89 20.2252L163.234 24.5692H160.33L159.034 20.4172C158.826 19.6972 158.506 19.1452 158.074 18.7612C157.642 18.3772 157.138 18.1852 156.562 18.1852H152.242V24.5692H149.434V7.76921ZM157.474 15.7612C158.21 15.7612 158.794 15.5612 159.226 15.1612C159.674 14.7612 159.898 14.2412 159.898 13.6012V11.9452C159.898 11.4332 159.73 11.0172 159.394 10.6972C159.058 10.3772 158.61 10.2172 158.05 10.2172H152.242V15.7612H157.474ZM169.934 18.0652L163.718 7.76921H166.766L171.326 15.4972L175.886 7.76921H178.934L172.718 18.0652V24.5692H169.934V18.0652ZM198.731 24.5692L197.363 23.0092C196.755 23.5692 196.067 24.0012 195.299 24.3052C194.547 24.6092 193.755 24.7612 192.923 24.7612H191.867C190.299 24.7612 189.059 24.3932 188.147 23.6572C187.235 22.9212 186.779 21.9132 186.779 20.6332V19.7212C186.779 18.9532 186.931 18.3052 187.235 17.7772C187.555 17.2492 187.955 16.8092 188.435 16.4572C188.915 16.1052 189.595 15.6652 190.475 15.1372L190.115 14.6812C189.299 13.6732 188.891 12.7132 188.891 11.8012V11.2972C188.891 10.1772 189.283 9.28121 190.067 8.60921C190.851 7.92121 191.891 7.57721 193.187 7.57721H194.099C195.299 7.57721 196.259 7.91321 196.979 8.58521C197.715 9.24121 198.083 10.1132 198.083 11.2012V11.6812C198.083 12.2092 197.971 12.6732 197.747 13.0732C197.539 13.4572 197.187 13.8492 196.691 14.2492C196.195 14.6332 195.491 15.0972 194.579 15.6412L194.123 15.9052L197.099 19.2652C197.435 18.4972 197.651 17.6252 197.747 16.6492H200.123C200.027 18.3292 199.587 19.8412 198.803 21.1852L201.803 24.5692H198.731ZM191.459 11.8012C191.459 12.3772 191.723 12.9692 192.251 13.5772L192.803 14.2972L193.235 14.0332C194.179 13.4252 194.795 12.9772 195.083 12.6892C195.387 12.4012 195.539 12.0652 195.539 11.6812V11.2012C195.539 10.7852 195.395 10.4492 195.107 10.1932C194.835 9.93721 194.483 9.80921 194.051 9.80921H193.163C192.635 9.80921 192.219 9.94521 191.915 10.2172C191.611 10.4732 191.459 10.8412 191.459 11.3212V11.8012ZM192.947 22.4332C194.051 22.4332 195.003 22.0332 195.803 21.2332L191.987 16.8892C191.043 17.4172 190.387 17.8732 190.019 18.2572C189.667 18.6252 189.491 19.1052 189.491 19.6972V20.5612C189.491 21.1212 189.707 21.5772 190.139 21.9292C190.571 22.2652 191.131 22.4332 191.819 22.4332H192.947ZM68.9506 54.5692C68.3106 54.5692 67.8066 54.3852 67.4386 54.0172C67.0706 53.6492 66.8866 53.1612 66.8866 52.5532V37.7692H69.6946V52.1212H78.8146V54.5692H68.9506ZM90.5291 50.4172H83.8571L82.2971 54.5692H79.3931L85.9211 37.7692H87.1931C88.0571 37.7692 88.6571 38.1932 88.9931 39.0412L94.9931 54.5692H92.0651L90.5291 50.4172ZM84.6491 48.0652H89.7371L87.2171 41.2492H87.1931L84.6491 48.0652ZM101.822 54.7612C100.702 54.7612 99.7104 54.5212 98.8464 54.0412C97.9824 53.5452 97.3104 52.8572 96.8304 51.9772C96.3664 51.0812 96.1344 50.0492 96.1344 48.8812V37.7692H98.9424V48.8332C98.9424 49.8732 99.2064 50.7132 99.7344 51.3532C100.262 51.9772 100.958 52.2892 101.822 52.2892H104.39C105.27 52.2892 105.974 51.9772 106.502 51.3532C107.046 50.7132 107.318 49.8732 107.318 48.8332V37.7692H110.126V48.8812C110.126 50.0492 109.886 51.0812 109.406 51.9772C108.926 52.8572 108.254 53.5452 107.39 54.0412C106.526 54.5212 105.526 54.7612 104.39 54.7612H101.822ZM113.293 37.7692H115.813L124.309 50.0572V37.7692H127.045V54.5692H124.501L116.029 42.3292V54.5692H113.293V37.7692ZM135.781 54.7612C134.597 54.7612 133.557 54.5052 132.661 53.9932C131.765 53.4652 131.069 52.7292 130.573 51.7852C130.077 50.8252 129.829 49.7212 129.829 48.4732V43.8652C129.829 42.6172 130.077 41.5212 130.573 40.5772C131.085 39.6172 131.797 38.8812 132.709 38.3692C133.621 37.8412 134.677 37.5772 135.877 37.5772H138.421C139.557 37.5772 140.565 37.8252 141.445 38.3212C142.325 38.8012 143.005 39.4892 143.485 40.3852C143.965 41.2652 144.205 42.2892 144.205 43.4572H141.445C141.445 42.4332 141.165 41.6092 140.605 40.9852C140.045 40.3612 139.317 40.0492 138.421 40.0492H135.877C134.901 40.0492 134.117 40.4092 133.525 41.1292C132.933 41.8492 132.637 42.7932 132.637 43.9612V48.3772C132.637 49.5612 132.925 50.5132 133.501 51.2332C134.077 51.9372 134.837 52.2892 135.781 52.2892H138.373C139.301 52.2892 140.053 51.9372 140.629 51.2332C141.205 50.5292 141.493 49.6172 141.493 48.4972H144.253C144.253 49.7452 144.005 50.8412 143.509 51.7852C143.029 52.7292 142.341 53.4652 141.445 53.9932C140.565 54.5052 139.541 54.7612 138.373 54.7612H135.781ZM146.598 37.7692H149.406V44.8972H157.71V37.7692H160.494V54.5692H157.71V47.3452H149.406V54.5692H146.598V37.7692Z" fill="#030303"/>
<path d="M80.2542 81.7692C79.7209 81.7692 79.2876 81.6092 78.9542 81.2892C78.6342 80.9559 78.4742 80.5225 78.4742 79.9892C78.4742 79.4559 78.6342 79.0292 78.9542 78.7092C79.2876 78.3759 79.7209 78.2092 80.2542 78.2092C80.7876 78.2092 81.2142 78.3759 81.5342 78.7092C81.8676 79.0292 82.0342 79.4559 82.0342 79.9892C82.0342 80.5225 81.8676 80.9559 81.5342 81.2892C81.2142 81.6092 80.7876 81.7692 80.2542 81.7692ZM100.015 85.7292C98.9213 85.7292 98.0413 85.4025 97.3746 84.7492C96.708 84.0825 96.3746 83.2025 96.3746 82.1092V79.2492C96.3746 78.1025 96.708 77.1825 97.3746 76.4892C98.0413 75.7825 98.9146 75.4292 99.9946 75.4292H101.635C102.661 75.4292 103.488 75.7159 104.115 76.2892C104.741 76.8625 105.055 77.6159 105.055 78.5492H103.655C103.655 78.0025 103.468 77.5625 103.095 77.2292C102.735 76.8825 102.248 76.7092 101.635 76.7092H99.9946C99.3413 76.7092 98.8146 76.9425 98.4146 77.4092C98.0146 77.8759 97.8146 78.4892 97.8146 79.2492V82.1092C97.8146 82.8159 98.0146 83.3825 98.4146 83.8092C98.828 84.2359 99.3613 84.4492 100.015 84.4492H101.655C102.281 84.4492 102.781 84.2292 103.155 83.7892C103.541 83.3492 103.735 82.7625 103.735 82.0292H105.135C105.135 83.1359 104.815 84.0292 104.175 84.7092C103.535 85.3892 102.695 85.7292 101.655 85.7292H100.015ZM110.817 85.7292C109.697 85.7292 108.797 85.3825 108.117 84.6892C107.437 83.9959 107.097 83.0825 107.097 81.9492V79.2092C107.097 78.0759 107.437 77.1625 108.117 76.4692C108.811 75.7759 109.724 75.4292 110.857 75.4292H112.497C113.631 75.4292 114.537 75.7759 115.217 76.4692C115.911 77.1625 116.257 78.0759 116.257 79.2092V81.9492C116.257 83.0825 115.911 83.9959 115.217 84.6892C114.524 85.3825 113.604 85.7292 112.457 85.7292H110.817ZM112.457 84.4492C113.177 84.4492 113.751 84.2225 114.177 83.7692C114.604 83.3025 114.817 82.6959 114.817 81.9492V79.2092C114.817 78.4625 114.604 77.8625 114.177 77.4092C113.751 76.9425 113.191 76.7092 112.497 76.7092H110.857C110.164 76.7092 109.604 76.9425 109.177 77.4092C108.751 77.8625 108.537 78.4625 108.537 79.2092V81.9492C108.537 82.7092 108.744 83.3159 109.157 83.7692C109.571 84.2225 110.124 84.4492 110.817 84.4492H112.457ZM118.904 75.5892H120.304V77.0692C120.61 76.5892 121.01 76.1959 121.504 75.8892C121.997 75.5825 122.49 75.4292 122.984 75.4292H124.344C125.264 75.4292 126.004 75.7425 126.564 76.3692C127.137 76.9959 127.424 77.8159 127.424 78.8292V85.5692H125.984V78.7892C125.984 78.1759 125.83 77.6759 125.524 77.2892C125.217 76.9025 124.81 76.7092 124.304 76.7092H123.024C122.397 76.7092 121.824 76.9559 121.304 77.4492C120.797 77.9425 120.477 78.5759 120.344 79.3492V85.5692H118.904V75.5892ZM134.269 85.5692C133.216 85.5692 132.456 85.3425 131.989 84.8892C131.536 84.4359 131.309 83.6892 131.309 82.6492V76.8692H129.549V75.5892H131.309V72.5692H132.749V75.5892H135.349V76.8692H132.749V82.6492C132.749 83.2359 132.862 83.6559 133.089 83.9092C133.329 84.1625 133.722 84.2892 134.269 84.2892H135.349V85.5692H134.269ZM140.993 85.7292C139.873 85.7292 138.973 85.4025 138.293 84.7492C137.613 84.0825 137.273 83.2025 137.273 82.1092V79.2492C137.273 78.1025 137.613 77.1825 138.293 76.4892C138.973 75.7825 139.873 75.4292 140.993 75.4292H142.633C143.7 75.4292 144.56 75.7692 145.213 76.4492C145.866 77.1292 146.193 78.0292 146.193 79.1492V80.9092H138.713V82.1092C138.713 82.8025 138.92 83.3692 139.333 83.8092C139.76 84.2359 140.313 84.4492 140.993 84.4492H142.513C143.18 84.4492 143.72 84.2692 144.133 83.9092C144.546 83.5359 144.753 83.0425 144.753 82.4292H146.153C146.153 83.4159 145.82 84.2159 145.153 84.8292C144.486 85.4292 143.606 85.7292 142.513 85.7292H140.993ZM144.753 79.6692V79.1492C144.753 78.4159 144.56 77.8292 144.173 77.3892C143.786 76.9359 143.273 76.7092 142.633 76.7092H140.993C140.313 76.7092 139.76 76.9425 139.333 77.4092C138.92 77.8759 138.713 78.4892 138.713 79.2492V79.6692H144.753ZM148.708 75.5892H150.108V77.0692C150.415 76.5892 150.815 76.1959 151.308 75.8892C151.802 75.5825 152.295 75.4292 152.788 75.4292H154.148C155.068 75.4292 155.808 75.7425 156.368 76.3692C156.942 76.9959 157.228 77.8159 157.228 78.8292V85.5692H155.788V78.7892C155.788 78.1759 155.635 77.6759 155.328 77.2892C155.022 76.9025 154.615 76.7092 154.108 76.7092H152.828C152.202 76.7092 151.628 76.9559 151.108 77.4492C150.602 77.9425 150.282 78.5759 150.148 79.3492V85.5692H148.708V75.5892ZM164.074 85.5692C163.02 85.5692 162.26 85.3425 161.794 84.8892C161.34 84.4359 161.114 83.6892 161.114 82.6492V76.8692H159.354V75.5892H161.114V72.5692H162.554V75.5892H165.154V76.8692H162.554V82.6492C162.554 83.2359 162.667 83.6559 162.894 83.9092C163.134 84.1625 163.527 84.2892 164.074 84.2892H165.154V85.5692H164.074ZM176.086 85.7292C175.406 85.7292 174.799 85.5692 174.266 85.2492C173.732 84.9292 173.319 84.4825 173.026 83.9092C172.732 83.3359 172.586 82.6692 172.586 81.9092V79.5092C172.586 78.7092 172.739 78.0025 173.046 77.3892C173.352 76.7625 173.786 76.2825 174.346 75.9492C174.906 75.6025 175.546 75.4292 176.266 75.4292H177.746C178.199 75.4292 178.632 75.5359 179.046 75.7492C179.472 75.9625 179.812 76.2559 180.066 76.6292V71.5692H181.506V85.5692H180.106V84.0892C179.799 84.5825 179.399 84.9825 178.906 85.2892C178.412 85.5825 177.932 85.7292 177.466 85.7292H176.086ZM177.426 84.4492C177.852 84.4492 178.266 84.3159 178.666 84.0492C179.066 83.7692 179.392 83.4092 179.646 82.9692C179.899 82.5292 180.039 82.0759 180.066 81.6092V79.0892C179.972 78.3825 179.706 77.8092 179.266 77.3692C178.839 76.9292 178.319 76.7092 177.706 76.7092H176.306C175.626 76.7092 175.072 76.9692 174.646 77.4892C174.232 77.9959 174.026 78.6692 174.026 79.5092V81.9092C174.026 82.6559 174.219 83.2692 174.606 83.7492C175.006 84.2159 175.512 84.4492 176.126 84.4492H177.426ZM187.868 85.7292C186.748 85.7292 185.848 85.4025 185.168 84.7492C184.488 84.0825 184.148 83.2025 184.148 82.1092V79.2492C184.148 78.1025 184.488 77.1825 185.168 76.4892C185.848 75.7825 186.748 75.4292 187.868 75.4292H189.508C190.575 75.4292 191.435 75.7692 192.088 76.4492C192.741 77.1292 193.068 78.0292 193.068 79.1492V80.9092H185.588V82.1092C185.588 82.8025 185.795 83.3692 186.208 83.8092C186.635 84.2359 187.188 84.4492 187.868 84.4492H189.388C190.055 84.4492 190.595 84.2692 191.008 83.9092C191.421 83.5359 191.628 83.0425 191.628 82.4292H193.028C193.028 83.4159 192.695 84.2159 192.028 84.8292C191.361 85.4292 190.481 85.7292 189.388 85.7292H187.868ZM191.628 79.6692V79.1492C191.628 78.4159 191.435 77.8292 191.048 77.3892C190.661 76.9359 190.148 76.7092 189.508 76.7092H187.868C187.188 76.7092 186.635 76.9425 186.208 77.4092C185.795 77.8759 185.588 78.4892 185.588 79.2492V79.6692H191.628ZM198.343 85.5692C197.357 85.5692 196.65 85.3625 196.223 84.9492C195.797 84.5225 195.583 83.8225 195.583 82.8492V71.5692H197.023V82.8492C197.023 83.3559 197.123 83.7225 197.323 83.9492C197.537 84.1759 197.877 84.2892 198.343 84.2892H199.023V85.5692H198.343ZM202.015 74.0892C201.695 74.0892 201.435 73.9892 201.235 73.7892C201.035 73.5892 200.935 73.3292 200.935 73.0092C200.935 72.6892 201.035 72.4292 201.235 72.2292C201.435 72.0292 201.695 71.9292 202.015 71.9292C202.335 71.9292 202.595 72.0292 202.795 72.2292C202.995 72.4292 203.095 72.6892 203.095 73.0092C203.095 73.3292 202.995 73.5892 202.795 73.7892C202.595 73.9892 202.335 74.0892 202.015 74.0892ZM201.295 75.5892H202.735V85.5692H201.295V75.5892ZM209.59 85.5692C209.03 85.5692 208.623 85.2292 208.37 84.5492L204.93 75.5892H206.45L209.53 83.9892H209.55L212.63 75.5892H214.15L210.27 85.5692H209.59ZM219.079 85.7292C217.959 85.7292 217.059 85.4025 216.379 84.7492C215.699 84.0825 215.359 83.2025 215.359 82.1092V79.2492C215.359 78.1025 215.699 77.1825 216.379 76.4892C217.059 75.7825 217.959 75.4292 219.079 75.4292H220.719C221.786 75.4292 222.646 75.7692 223.299 76.4492C223.952 77.1292 224.279 78.0292 224.279 79.1492V80.9092H216.799V82.1092C216.799 82.8025 217.006 83.3692 217.419 83.8092C217.846 84.2359 218.399 84.4492 219.079 84.4492H220.599C221.266 84.4492 221.806 84.2692 222.219 83.9092C222.632 83.5359 222.839 83.0425 222.839 82.4292H224.239C224.239 83.4159 223.906 84.2159 223.239 84.8292C222.572 85.4292 221.692 85.7292 220.599 85.7292H219.079ZM222.839 79.6692V79.1492C222.839 78.4159 222.646 77.8292 222.259 77.3892C221.872 76.9359 221.359 76.7092 220.719 76.7092H219.079C218.399 76.7092 217.846 76.9425 217.419 77.4092C217.006 77.8759 216.799 78.4892 216.799 79.2492V79.6692H222.839ZM226.794 75.5892H228.194V77.1292C228.461 76.6625 228.861 76.2825 229.394 75.9892C229.941 75.6959 230.508 75.5492 231.094 75.5492H231.974V76.8492H231.094C230.241 76.8492 229.548 77.1225 229.014 77.6692C228.494 78.2025 228.234 78.9159 228.234 79.8092V85.5692H226.794V75.5892ZM237.124 89.6292C236.244 89.6292 235.517 89.3892 234.944 88.9092C234.37 88.4425 234.05 87.8225 233.984 87.0492H235.424C235.477 87.4492 235.657 87.7692 235.964 88.0092C236.284 88.2625 236.67 88.3892 237.124 88.3892H238.684C239.377 88.3892 239.91 88.1559 240.284 87.6892C240.67 87.2359 240.864 86.5959 240.864 85.7692V83.9292C240.544 84.4092 240.137 84.8025 239.644 85.1092C239.164 85.4159 238.684 85.5692 238.204 85.5692H236.924C235.99 85.5692 235.23 85.2559 234.644 84.6292C234.07 84.0025 233.784 83.1825 233.784 82.1692V75.5892H235.224V82.2092C235.224 82.8359 235.377 83.3425 235.684 83.7292C236.004 84.1025 236.417 84.2892 236.924 84.2892H238.164C238.777 84.2892 239.344 84.0425 239.864 83.5492C240.384 83.0559 240.717 82.4359 240.864 81.6892V75.5892H242.304V85.7692C242.304 86.9825 241.984 87.9292 241.344 88.6092C240.704 89.2892 239.817 89.6292 238.684 89.6292H237.124ZM80.2542 106.769C79.7209 106.769 79.2876 106.609 78.9542 106.289C78.6342 105.956 78.4742 105.523 78.4742 104.989C78.4742 104.456 78.6342 104.029 78.9542 103.709C79.2876 103.376 79.7209 103.209 80.2542 103.209C80.7876 103.209 81.2142 103.376 81.5342 103.709C81.8676 104.029 82.0342 104.456 82.0342 104.989C82.0342 105.523 81.8676 105.956 81.5342 106.289C81.2142 106.609 80.7876 106.769 80.2542 106.769ZM96.7746 100.589H98.1746V101.949C98.4546 101.496 98.8213 101.129 99.2746 100.849C99.7413 100.569 100.208 100.429 100.675 100.429H102.115C103.181 100.429 104.041 100.769 104.695 101.449C105.361 102.129 105.695 103.029 105.695 104.149V106.609C105.695 107.849 105.355 108.849 104.675 109.609C104.008 110.356 103.121 110.729 102.015 110.729H100.575C100.161 110.729 99.728 110.616 99.2746 110.389C98.8213 110.149 98.468 109.843 98.2146 109.469V114.549H96.7746V100.589ZM101.975 109.449C102.668 109.449 103.221 109.189 103.635 108.669C104.048 108.149 104.255 107.463 104.255 106.609V104.149C104.255 103.416 104.055 102.829 103.655 102.389C103.255 101.936 102.728 101.709 102.075 101.709H100.675C100.115 101.709 99.608 101.929 99.1546 102.369C98.7013 102.796 98.388 103.349 98.2146 104.029V107.029C98.308 107.736 98.5813 108.316 99.0346 108.769C99.488 109.223 100.028 109.449 100.655 109.449H101.975ZM111.317 110.729C110.397 110.729 109.65 110.416 109.077 109.789C108.504 109.163 108.217 108.343 108.217 107.329V100.589H109.657V107.369C109.657 107.996 109.81 108.503 110.117 108.889C110.424 109.263 110.824 109.449 111.317 109.449H112.557C113.17 109.449 113.737 109.203 114.257 108.709C114.777 108.216 115.11 107.596 115.257 106.849V100.589H116.697V110.569H115.297V109.049C114.99 109.529 114.584 109.929 114.077 110.249C113.57 110.569 113.077 110.729 112.597 110.729H111.317ZM123.683 110.729C123.243 110.729 122.777 110.596 122.283 110.329C121.79 110.049 121.41 109.703 121.143 109.289V110.569H119.743V96.5692H121.183V101.769C121.477 101.356 121.85 101.029 122.303 100.789C122.77 100.549 123.25 100.429 123.743 100.429H125.163C125.843 100.429 126.443 100.589 126.963 100.909C127.497 101.216 127.91 101.656 128.203 102.229C128.51 102.789 128.663 103.436 128.663 104.169V106.749C128.663 107.536 128.51 108.229 128.203 108.829C127.91 109.429 127.49 109.896 126.943 110.229C126.41 110.563 125.79 110.729 125.083 110.729H123.683ZM125.043 109.449C125.683 109.449 126.203 109.203 126.603 108.709C127.017 108.203 127.223 107.549 127.223 106.749V104.169C127.223 103.436 127.023 102.843 126.623 102.389C126.237 101.936 125.737 101.709 125.123 101.709H123.783C123.09 101.709 122.497 101.963 122.003 102.469C121.51 102.976 121.237 103.643 121.183 104.469V106.909C121.21 107.376 121.343 107.803 121.583 108.189C121.823 108.576 122.13 108.883 122.503 109.109C122.877 109.336 123.27 109.449 123.683 109.449H125.043ZM134.066 110.569C133.079 110.569 132.373 110.363 131.946 109.949C131.519 109.523 131.306 108.823 131.306 107.849V96.5692H132.746V107.849C132.746 108.356 132.846 108.723 133.046 108.949C133.259 109.176 133.599 109.289 134.066 109.289H134.746V110.569H134.066ZM137.737 99.0892C137.417 99.0892 137.157 98.9892 136.957 98.7892C136.757 98.5892 136.657 98.3292 136.657 98.0092C136.657 97.6892 136.757 97.4292 136.957 97.2292C137.157 97.0292 137.417 96.9292 137.737 96.9292C138.057 96.9292 138.317 97.0292 138.517 97.2292C138.717 97.4292 138.817 97.6892 138.817 98.0092C138.817 98.3292 138.717 98.5892 138.517 98.7892C138.317 98.9892 138.057 99.0892 137.737 99.0892ZM137.017 100.589H138.457V110.569H137.017V100.589ZM144.693 110.729C143.679 110.729 142.866 110.443 142.253 109.869C141.639 109.296 141.333 108.543 141.333 107.609H142.733C142.733 108.169 142.913 108.623 143.273 108.969C143.633 109.316 144.106 109.489 144.693 109.489H146.433C147.006 109.489 147.473 109.376 147.833 109.149C148.193 108.909 148.373 108.603 148.373 108.229V107.549C148.373 107.296 148.273 107.076 148.073 106.889C147.873 106.689 147.613 106.556 147.293 106.489L143.833 105.889C143.139 105.769 142.579 105.509 142.153 105.109C141.739 104.696 141.533 104.216 141.533 103.669V103.009C141.533 102.236 141.826 101.616 142.413 101.149C142.999 100.669 143.773 100.429 144.733 100.429H146.453C147.386 100.429 148.139 100.696 148.713 101.229C149.286 101.749 149.573 102.443 149.573 103.309H148.173C148.159 102.816 147.993 102.423 147.673 102.129C147.366 101.823 146.959 101.669 146.453 101.669H144.733C144.199 101.669 143.773 101.796 143.453 102.049C143.133 102.289 142.973 102.609 142.973 103.009V103.589C142.973 103.843 143.079 104.069 143.293 104.269C143.519 104.469 143.806 104.596 144.153 104.649L147.593 105.249C148.259 105.369 148.793 105.629 149.193 106.029C149.606 106.429 149.813 106.909 149.813 107.469V108.269C149.813 109.003 149.499 109.596 148.873 110.049C148.259 110.503 147.446 110.729 146.433 110.729H144.693ZM152.243 96.5692H153.683V101.969C153.99 101.503 154.383 101.129 154.863 100.849C155.343 100.569 155.83 100.429 156.323 100.429H157.723C158.643 100.429 159.383 100.743 159.943 101.369C160.517 101.996 160.803 102.816 160.803 103.829V110.569H159.363V103.789C159.363 103.176 159.21 102.676 158.903 102.289C158.597 101.903 158.19 101.709 157.683 101.709H156.363C155.737 101.709 155.163 101.956 154.643 102.449C154.137 102.929 153.817 103.549 153.683 104.309V110.569H152.243V96.5692ZM164.808 99.0892C164.488 99.0892 164.228 98.9892 164.028 98.7892C163.828 98.5892 163.728 98.3292 163.728 98.0092C163.728 97.6892 163.828 97.4292 164.028 97.2292C164.228 97.0292 164.488 96.9292 164.808 96.9292C165.128 96.9292 165.388 97.0292 165.588 97.2292C165.788 97.4292 165.888 97.6892 165.888 98.0092C165.888 98.3292 165.788 98.5892 165.588 98.7892C165.388 98.9892 165.128 99.0892 164.808 99.0892ZM164.088 100.589H165.528V110.569H164.088V100.589ZM168.923 100.589H170.323V102.069C170.63 101.589 171.03 101.196 171.523 100.889C172.016 100.583 172.51 100.429 173.003 100.429H174.363C175.283 100.429 176.023 100.743 176.583 101.369C177.156 101.996 177.443 102.816 177.443 103.829V110.569H176.003V103.789C176.003 103.176 175.85 102.676 175.543 102.289C175.236 101.903 174.83 101.709 174.323 101.709H173.043C172.416 101.709 171.843 101.956 171.323 102.449C170.816 102.943 170.496 103.576 170.363 104.349V110.569H168.923V100.589ZM183.608 114.629C182.728 114.629 182.002 114.389 181.428 113.909C180.855 113.443 180.535 112.823 180.468 112.049H181.908C181.962 112.449 182.142 112.769 182.448 113.009C182.768 113.263 183.155 113.389 183.608 113.389H185.268C185.962 113.389 186.495 113.156 186.868 112.689C187.255 112.236 187.448 111.596 187.448 110.769V109.229C187.155 109.629 186.768 109.956 186.288 110.209C185.822 110.449 185.368 110.569 184.928 110.569H183.468C182.788 110.569 182.182 110.409 181.648 110.089C181.115 109.769 180.702 109.323 180.408 108.749C180.115 108.176 179.968 107.509 179.968 106.749V104.409C179.968 103.223 180.308 102.263 180.988 101.529C181.682 100.796 182.588 100.429 183.708 100.429H185.108C185.535 100.429 185.975 100.549 186.428 100.789C186.882 101.029 187.235 101.336 187.488 101.709V100.589H188.888V110.769C188.888 111.983 188.568 112.929 187.928 113.609C187.288 114.289 186.402 114.629 185.268 114.629H183.608ZM184.928 109.289C185.595 109.289 186.162 109.029 186.628 108.509C187.108 107.976 187.382 107.303 187.448 106.489V104.029C187.395 103.349 187.142 102.796 186.688 102.369C186.248 101.929 185.722 101.709 185.108 101.709H183.748C183.042 101.709 182.475 101.956 182.048 102.449C181.622 102.943 181.408 103.596 181.408 104.409V106.749C181.408 107.496 181.602 108.109 181.988 108.589C182.388 109.056 182.895 109.289 183.508 109.289H184.928ZM200.446 110.729C199.326 110.729 198.426 110.383 197.746 109.689C197.066 108.996 196.726 108.083 196.726 106.949V104.209C196.726 103.076 197.066 102.163 197.746 101.469C198.44 100.776 199.353 100.429 200.486 100.429H202.126C203.26 100.429 204.166 100.776 204.846 101.469C205.54 102.163 205.886 103.076 205.886 104.209V106.949C205.886 108.083 205.54 108.996 204.846 109.689C204.153 110.383 203.233 110.729 202.086 110.729H200.446ZM202.086 109.449C202.806 109.449 203.38 109.223 203.806 108.769C204.233 108.303 204.446 107.696 204.446 106.949V104.209C204.446 103.463 204.233 102.863 203.806 102.409C203.38 101.943 202.82 101.709 202.126 101.709H200.486C199.793 101.709 199.233 101.943 198.806 102.409C198.38 102.863 198.166 103.463 198.166 104.209V106.949C198.166 107.709 198.373 108.316 198.786 108.769C199.2 109.223 199.753 109.449 200.446 109.449H202.086ZM208.532 100.589H209.932V102.069C210.239 101.589 210.639 101.196 211.132 100.889C211.626 100.583 212.119 100.429 212.612 100.429H213.972C214.892 100.429 215.632 100.743 216.192 101.369C216.766 101.996 217.052 102.816 217.052 103.829V110.569H215.612V103.789C215.612 103.176 215.459 102.676 215.152 102.289C214.846 101.903 214.439 101.709 213.932 101.709H212.652C212.026 101.709 211.452 101.956 210.932 102.449C210.426 102.943 210.106 103.576 209.972 104.349V110.569H208.532V100.589ZM227.313 110.729C226.353 110.729 225.6 110.503 225.053 110.049C224.506 109.596 224.233 108.989 224.233 108.229C224.233 108.029 224.253 107.823 224.293 107.609H225.693C225.666 107.796 225.653 107.929 225.653 108.009C225.653 108.463 225.8 108.823 226.093 109.089C226.386 109.356 226.793 109.489 227.313 109.489H229.053C229.653 109.489 230.14 109.383 230.513 109.169C230.9 108.943 231.133 108.629 231.213 108.229L231.353 107.549C231.366 107.509 231.373 107.456 231.373 107.389C231.373 107.163 231.286 106.969 231.113 106.809C230.953 106.649 230.733 106.543 230.453 106.489L227.093 105.889C226.493 105.783 226.02 105.563 225.673 105.229C225.326 104.883 225.153 104.476 225.153 104.009C225.153 103.943 225.166 103.829 225.193 103.669L225.313 103.009C225.46 102.196 225.833 101.563 226.433 101.109C227.033 100.656 227.8 100.429 228.733 100.429H230.453C231.346 100.429 232.046 100.643 232.553 101.069C233.073 101.496 233.333 102.069 233.333 102.789C233.333 103.016 233.32 103.189 233.293 103.309H231.893C231.906 103.243 231.913 103.136 231.913 102.989C231.913 102.589 231.78 102.269 231.513 102.029C231.26 101.789 230.906 101.669 230.453 101.669H228.733C228.2 101.669 227.76 101.789 227.413 102.029C227.066 102.269 226.846 102.596 226.753 103.009L226.633 103.589C226.58 103.843 226.646 104.069 226.833 104.269C227.02 104.456 227.286 104.583 227.633 104.649L230.973 105.249C231.546 105.356 232 105.576 232.333 105.909C232.666 106.243 232.833 106.643 232.833 107.109C232.833 107.189 232.82 107.309 232.793 107.469L232.653 108.269C232.506 109.043 232.12 109.649 231.493 110.089C230.866 110.516 230.053 110.729 229.053 110.729H227.313ZM238.204 110.729C237.164 110.729 236.344 110.463 235.744 109.929C235.144 109.383 234.844 108.649 234.844 107.729C234.844 107.556 234.87 107.296 234.924 106.949L235.404 104.209C235.617 103.023 236.09 102.096 236.824 101.429C237.57 100.763 238.497 100.429 239.604 100.429H241.244C242.297 100.429 243.124 100.703 243.724 101.249C244.337 101.783 244.644 102.509 244.644 103.429C244.644 103.603 244.617 103.863 244.564 104.209L244.084 106.949C243.87 108.136 243.39 109.063 242.644 109.729C241.897 110.396 240.964 110.729 239.844 110.729H238.204ZM239.844 109.449C240.55 109.449 241.157 109.223 241.664 108.769C242.184 108.303 242.51 107.696 242.644 106.949L243.124 104.209C243.164 104.009 243.184 103.823 243.184 103.649C243.184 103.063 243.01 102.596 242.664 102.249C242.317 101.889 241.844 101.709 241.244 101.709H239.604C238.87 101.709 238.257 101.929 237.764 102.369C237.284 102.809 236.977 103.423 236.844 104.209L236.364 106.949C236.324 107.149 236.304 107.343 236.304 107.529C236.304 108.116 236.47 108.583 236.804 108.929C237.15 109.276 237.617 109.449 238.204 109.449H239.844ZM248.85 110.569C248.037 110.569 247.437 110.429 247.05 110.149C246.677 109.869 246.49 109.396 246.49 108.729C246.49 108.423 246.517 108.129 246.57 107.849L248.55 96.5692H249.99L248.01 107.849C247.97 108.049 247.95 108.229 247.95 108.389C247.95 108.723 248.037 108.956 248.21 109.089C248.383 109.223 248.67 109.289 249.07 109.289H249.75L249.53 110.569H248.85ZM254.622 110.729C253.755 110.729 253.075 110.489 252.582 110.009C252.088 109.529 251.842 108.883 251.842 108.069C251.842 107.829 251.862 107.583 251.902 107.329L253.082 100.589H254.522L253.342 107.369C253.302 107.569 253.282 107.763 253.282 107.949C253.282 108.416 253.402 108.783 253.642 109.049C253.882 109.316 254.208 109.449 254.622 109.449H255.862C256.502 109.449 257.108 109.216 257.682 108.749C258.268 108.269 258.715 107.636 259.022 106.849L260.122 100.589H261.562L259.802 110.569H258.402L258.682 109.049C258.268 109.556 257.802 109.963 257.282 110.269C256.762 110.576 256.288 110.729 255.862 110.729H254.622ZM266.208 110.729C265.194 110.729 264.401 110.476 263.828 109.969C263.268 109.449 262.988 108.749 262.988 107.869C262.988 107.629 263.008 107.383 263.048 107.129L263.568 104.249C263.794 103.049 264.261 102.116 264.968 101.449C265.688 100.769 266.574 100.429 267.628 100.429H269.268C270.241 100.429 271.008 100.663 271.568 101.129C272.128 101.583 272.408 102.203 272.408 102.989C272.408 103.229 272.394 103.416 272.368 103.549H270.968C270.981 103.469 270.988 103.356 270.988 103.209C270.988 102.756 270.834 102.396 270.528 102.129C270.221 101.849 269.801 101.709 269.268 101.709H267.628C266.948 101.709 266.374 101.936 265.908 102.389C265.441 102.829 265.141 103.449 265.008 104.249L264.488 107.129C264.448 107.329 264.428 107.509 264.428 107.669C264.428 108.216 264.588 108.649 264.908 108.969C265.241 109.289 265.694 109.449 266.268 109.449H267.908C268.561 109.449 269.108 109.236 269.548 108.809C269.988 108.383 270.281 107.789 270.428 107.029H271.828C271.614 108.189 271.161 109.096 270.468 109.749C269.774 110.403 268.921 110.729 267.908 110.729H266.208ZM278.39 104.869L282.03 110.569H280.41L277.29 105.789L275.59 107.229L275.01 110.569H273.57L276.03 96.5692H277.47L275.93 105.369L281.61 100.589H283.47L278.39 104.869ZM286.31 114.629C285.43 114.629 284.723 114.416 284.19 113.989C283.657 113.576 283.39 113.023 283.39 112.329L283.41 112.049H284.85C284.823 112.449 284.943 112.769 285.21 113.009C285.49 113.263 285.857 113.389 286.31 113.389H287.87C288.55 113.389 289.123 113.156 289.59 112.689C290.057 112.236 290.363 111.596 290.51 110.769L290.85 108.929C290.49 109.409 290.043 109.803 289.51 110.109C288.977 110.416 288.497 110.569 288.07 110.569H286.83C285.95 110.569 285.257 110.329 284.75 109.849C284.257 109.369 284.01 108.723 284.01 107.909C284.01 107.669 284.03 107.423 284.07 107.169L285.23 100.589H286.67L285.51 107.209C285.483 107.329 285.47 107.509 285.47 107.749C285.47 108.229 285.59 108.609 285.83 108.889C286.07 109.156 286.403 109.289 286.83 109.289H288.07C288.723 109.289 289.337 109.056 289.91 108.589C290.483 108.109 290.923 107.476 291.23 106.689L292.31 100.589H293.75L291.95 110.769C291.737 111.983 291.27 112.929 290.55 113.609C289.83 114.289 288.937 114.629 287.87 114.629H286.31ZM301.111 100.589H302.511V101.949C302.791 101.496 303.157 101.129 303.611 100.849C304.077 100.569 304.544 100.429 305.011 100.429H306.451C307.517 100.429 308.377 100.769 309.031 101.449C309.697 102.129 310.031 103.029 310.031 104.149V106.609C310.031 107.849 309.691 108.849 309.011 109.609C308.344 110.356 307.457 110.729 306.351 110.729H304.911C304.497 110.729 304.064 110.616 303.611 110.389C303.157 110.149 302.804 109.843 302.551 109.469V114.549H301.111V100.589ZM306.311 109.449C307.004 109.449 307.557 109.189 307.971 108.669C308.384 108.149 308.591 107.463 308.591 106.609V104.149C308.591 103.416 308.391 102.829 307.991 102.389C307.591 101.936 307.064 101.709 306.411 101.709H305.011C304.451 101.709 303.944 101.929 303.491 102.369C303.037 102.796 302.724 103.349 302.551 104.029V107.029C302.644 107.736 302.917 108.316 303.371 108.769C303.824 109.223 304.364 109.449 304.991 109.449H306.311ZM315.433 110.569C314.446 110.569 313.74 110.363 313.313 109.949C312.886 109.523 312.673 108.823 312.673 107.849V96.5692H314.113V107.849C314.113 108.356 314.213 108.723 314.413 108.949C314.626 109.176 314.966 109.289 315.433 109.289H316.113V110.569H315.433ZM320.905 110.729C319.931 110.729 319.151 110.476 318.565 109.969C317.991 109.463 317.705 108.783 317.705 107.929V107.289C317.705 106.449 318.005 105.776 318.605 105.269C319.205 104.763 319.998 104.509 320.985 104.509H322.265C322.705 104.509 323.158 104.576 323.625 104.709C324.091 104.843 324.491 105.023 324.825 105.249V103.589C324.825 103.029 324.651 102.576 324.305 102.229C323.958 101.869 323.498 101.689 322.925 101.689H321.325C320.751 101.689 320.291 101.823 319.945 102.089C319.598 102.356 319.425 102.709 319.425 103.149H317.985C317.985 102.336 318.291 101.683 318.905 101.189C319.518 100.683 320.325 100.429 321.325 100.429H322.925C323.911 100.429 324.705 100.723 325.305 101.309C325.918 101.883 326.225 102.643 326.225 103.589V110.569H324.865V109.169C324.558 109.649 324.151 110.029 323.645 110.309C323.151 110.589 322.638 110.729 322.105 110.729H320.905ZM322.145 109.469C322.771 109.469 323.331 109.276 323.825 108.889C324.318 108.503 324.651 107.989 324.825 107.349V106.609C324.558 106.356 324.185 106.156 323.705 106.009C323.238 105.849 322.758 105.769 322.265 105.769H320.985C320.438 105.769 319.991 105.909 319.645 106.189C319.311 106.469 319.145 106.836 319.145 107.289V107.929C319.145 108.396 319.305 108.769 319.625 109.049C319.945 109.329 320.371 109.469 320.905 109.469H322.145ZM333.058 110.569C332.005 110.569 331.245 110.343 330.778 109.889C330.325 109.436 330.098 108.689 330.098 107.649V101.869H328.338V100.589H330.098V97.5692H331.538V100.589H334.138V101.869H331.538V107.649C331.538 108.236 331.651 108.656 331.878 108.909C332.118 109.163 332.511 109.289 333.058 109.289H334.138V110.569H333.058ZM337.775 101.869H336.055V100.589H337.775V99.8092C337.775 98.7159 338.055 97.8892 338.615 97.3292C339.175 96.7692 339.995 96.4892 341.075 96.4892H341.835V97.7292H341.075C340.435 97.7292 339.961 97.9025 339.655 98.2492C339.361 98.5825 339.215 99.1025 339.215 99.8092V100.589H341.615V101.869H339.215V110.569H337.775V101.869ZM346.755 110.729C345.635 110.729 344.735 110.383 344.055 109.689C343.375 108.996 343.035 108.083 343.035 106.949V104.209C343.035 103.076 343.375 102.163 344.055 101.469C344.748 100.776 345.661 100.429 346.795 100.429H348.435C349.568 100.429 350.475 100.776 351.155 101.469C351.848 102.163 352.195 103.076 352.195 104.209V106.949C352.195 108.083 351.848 108.996 351.155 109.689C350.461 110.383 349.541 110.729 348.395 110.729H346.755ZM348.395 109.449C349.115 109.449 349.688 109.223 350.115 108.769C350.541 108.303 350.755 107.696 350.755 106.949V104.209C350.755 103.463 350.541 102.863 350.115 102.409C349.688 101.943 349.128 101.709 348.435 101.709H346.795C346.101 101.709 345.541 101.943 345.115 102.409C344.688 102.863 344.475 103.463 344.475 104.209V106.949C344.475 107.709 344.681 108.316 345.095 108.769C345.508 109.223 346.061 109.449 346.755 109.449H348.395ZM354.841 100.589H356.241V102.129C356.508 101.663 356.908 101.283 357.441 100.989C357.988 100.696 358.554 100.549 359.141 100.549H360.021V101.849H359.141C358.288 101.849 357.594 102.123 357.061 102.669C356.541 103.203 356.281 103.916 356.281 104.809V110.569H354.841V100.589ZM372.89 100.429C373.77 100.429 374.464 100.716 374.97 101.289C375.49 101.849 375.75 102.629 375.75 103.629V110.569H374.31V103.589C374.31 103.003 374.177 102.543 373.91 102.209C373.644 101.876 373.29 101.709 372.85 101.709H371.71C371.137 101.709 370.664 101.903 370.29 102.289C369.917 102.676 369.677 103.223 369.57 103.929V110.569H368.13V103.709C368.13 103.083 368.004 102.596 367.75 102.249C367.51 101.889 367.177 101.709 366.75 101.709H365.61C365.064 101.709 364.584 101.949 364.17 102.429C363.757 102.909 363.497 103.536 363.39 104.309V110.569H361.95V100.589H363.35V102.029C363.617 101.523 363.95 101.129 364.35 100.849C364.75 100.569 365.17 100.429 365.61 100.429H366.79C367.35 100.429 367.83 100.569 368.23 100.849C368.644 101.116 368.957 101.509 369.17 102.029C369.477 101.496 369.844 101.096 370.27 100.829C370.697 100.563 371.164 100.429 371.67 100.429H372.89ZM381.509 110.729C380.496 110.729 379.683 110.443 379.069 109.869C378.456 109.296 378.149 108.543 378.149 107.609H379.549C379.549 108.169 379.729 108.623 380.089 108.969C380.449 109.316 380.923 109.489 381.509 109.489H383.249C383.823 109.489 384.289 109.376 384.649 109.149C385.009 108.909 385.189 108.603 385.189 108.229V107.549C385.189 107.296 385.089 107.076 384.889 106.889C384.689 106.689 384.429 106.556 384.109 106.489L380.649 105.889C379.956 105.769 379.396 105.509 378.969 105.109C378.556 104.696 378.349 104.216 378.349 103.669V103.009C378.349 102.236 378.643 101.616 379.229 101.149C379.816 100.669 380.589 100.429 381.549 100.429H383.269C384.203 100.429 384.956 100.696 385.529 101.229C386.103 101.749 386.389 102.443 386.389 103.309H384.989C384.976 102.816 384.809 102.423 384.489 102.129C384.183 101.823 383.776 101.669 383.269 101.669H381.549C381.016 101.669 380.589 101.796 380.269 102.049C379.949 102.289 379.789 102.609 379.789 103.009V103.589C379.789 103.843 379.896 104.069 380.109 104.269C380.336 104.469 380.623 104.596 380.969 104.649L384.409 105.249C385.076 105.369 385.609 105.629 386.009 106.029C386.423 106.429 386.629 106.909 386.629 107.469V108.269C386.629 109.003 386.316 109.596 385.689 110.049C385.076 110.503 384.263 110.729 383.249 110.729H381.509Z" fill="#030303"/>
</svg>
