<svg width="263" height="116" viewBox="0 0 263 116" fill="none" xmlns="http://www.w3.org/2000/svg">
<rect width="20.1504" height="20.1503" transform="matrix(-0.98995 -0.141414 -0.141414 0.98995 25.6045 3.41876)" fill="#030303"/>
<ellipse cx="20" cy="20" rx="20" ry="20" transform="matrix(-0.98995 -0.141414 -0.141414 0.98995 45.2546 6.22586)" fill="#030303"/>
<path d="M20.6673 20.0692H20.1673C20.1007 19.6826 20.0407 19.2292 19.9873 18.7092C19.9473 18.1892 19.934 17.6959 19.9473 17.2292C20.5073 16.8426 21.094 16.5292 21.7073 16.2892C22.3207 16.0492 23.0073 15.9292 23.7673 15.9292C24.434 15.9292 24.9873 16.0026 25.4273 16.1492C25.8807 16.2959 26.2407 16.5026 26.5073 16.7692C26.7873 17.0226 26.9873 17.3226 27.1073 17.6692C27.2273 18.0026 27.2873 18.3626 27.2873 18.7492C27.2873 19.5226 27.054 20.3226 26.5873 21.1492C26.134 21.9626 25.554 22.7692 24.8473 23.5692C24.154 24.3559 23.394 25.1159 22.5673 25.8492C21.7407 26.5692 20.9673 27.2159 20.2473 27.7892L19.2473 28.5692V28.6492L20.3673 28.5292H23.8073L25.2673 26.2892H25.7673C25.754 26.6092 25.7273 26.9492 25.6873 27.3092C25.6473 27.6559 25.594 28.0026 25.5273 28.3492C25.474 28.6959 25.414 29.0292 25.3473 29.3492C25.2807 29.6559 25.2207 29.9292 25.1673 30.1692H16.9073L17.0473 29.5292C17.4473 29.2092 17.9273 28.8092 18.4873 28.3292C19.0473 27.8492 19.634 27.3226 20.2473 26.7492C20.874 26.1626 21.494 25.5359 22.1073 24.8692C22.7207 24.2026 23.2673 23.5292 23.7473 22.8492C24.2407 22.1559 24.6407 21.4626 24.9473 20.7692C25.254 20.0759 25.4073 19.4092 25.4073 18.7692C25.4073 18.2359 25.2407 17.8026 24.9073 17.4692C24.5873 17.1359 24.1073 16.9692 23.4673 16.9692C22.9073 16.9692 22.4007 17.0492 21.9473 17.2092L20.6673 20.0692Z" fill="#F5F5F5"/>
<path d="M72.3586 24.7612C71.1746 24.7612 70.1346 24.5052 69.2386 23.9932C68.3426 23.4652 67.6466 22.7292 67.1506 21.7852C66.6546 20.8252 66.4066 19.7212 66.4066 18.4732V13.8652C66.4066 12.6172 66.6546 11.5212 67.1506 10.5772C67.6626 9.61721 68.3746 8.88121 69.2866 8.36921C70.1986 7.84121 71.2546 7.57721 72.4546 7.57721H74.9986C76.1346 7.57721 77.1426 7.82521 78.0226 8.32121C78.9026 8.80121 79.5826 9.48921 80.0626 10.3852C80.5426 11.2652 80.7826 12.2892 80.7826 13.4572H78.0226C78.0226 12.4332 77.7426 11.6092 77.1826 10.9852C76.6226 10.3612 75.8946 10.0492 74.9986 10.0492H72.4546C71.4786 10.0492 70.6946 10.4092 70.1026 11.1292C69.5106 11.8492 69.2146 12.7932 69.2146 13.9612V18.3772C69.2146 19.5612 69.5026 20.5132 70.0786 21.2332C70.6546 21.9372 71.4146 22.2892 72.3586 22.2892H74.9506C75.8786 22.2892 76.6306 21.9372 77.2066 21.2332C77.7826 20.5292 78.0706 19.6172 78.0706 18.4972H80.8306C80.8306 19.7452 80.5826 20.8412 80.0866 21.7852C79.6066 22.7292 78.9186 23.4652 78.0226 23.9932C77.1426 24.5052 76.1186 24.7612 74.9506 24.7612H72.3586ZM83.1757 7.76921H91.8397C93.2157 7.76921 94.3277 8.14521 95.1757 8.89721C96.0237 9.64921 96.4477 10.6412 96.4477 11.8732V13.5772C96.4477 14.4092 96.1917 15.1452 95.6797 15.7852C95.1837 16.4092 94.4877 16.8732 93.5917 17.1772V17.2252C94.1037 17.5292 94.5117 17.9212 94.8157 18.4012C95.1357 18.8652 95.4077 19.4732 95.6317 20.2252L96.9757 24.5692H94.0717L92.7757 20.4172C92.5677 19.6972 92.2477 19.1452 91.8157 18.7612C91.3837 18.3772 90.8797 18.1852 90.3037 18.1852H85.9837V24.5692H83.1757V7.76921ZM91.2157 15.7612C91.9517 15.7612 92.5357 15.5612 92.9677 15.1612C93.4157 14.7612 93.6397 14.2412 93.6397 13.6012V11.9452C93.6397 11.4332 93.4717 11.0172 93.1357 10.6972C92.7997 10.3772 92.3517 10.2172 91.7917 10.2172H85.9837V15.7612H91.2157ZM101.294 24.5692C100.67 24.5692 100.166 24.3852 99.7824 24.0172C99.4144 23.6332 99.2304 23.1372 99.2304 22.5292V7.76921H111.542V10.1932H102.038V14.7532H110.822V17.2012H102.038V22.1452H111.542V24.5692H101.294ZM123.834 20.4172H117.162L115.602 24.5692H112.698L119.226 7.76921H120.498C121.362 7.76921 121.962 8.19321 122.298 9.04121L128.298 24.5692H125.37L123.834 20.4172ZM117.954 18.0652H123.042L120.522 11.2492H120.498L117.954 18.0652ZM131.905 10.1932H126.577V7.76921H140.041V10.1932H134.713V24.5692H131.905V10.1932ZM142.338 7.76921H145.146V24.5692H142.338V7.76921ZM154.78 24.5692C153.98 24.5692 153.396 24.1052 153.028 23.1772L147.268 7.76921H150.172L154.876 21.0652H154.9L159.628 7.76921H162.508L156.124 24.5692H154.78ZM166.451 24.5692C165.827 24.5692 165.323 24.3852 164.939 24.0172C164.571 23.6332 164.387 23.1372 164.387 22.5292V7.76921H176.699V10.1932H167.195V14.7532H175.979V17.2012H167.195V22.1452H176.699V24.5692H166.451ZM66.8866 37.7692H75.5026C76.9106 37.7692 78.0466 38.1692 78.9106 38.9692C79.7746 39.7532 80.2066 40.7932 80.2066 42.0892V44.3932C80.2066 45.7532 79.7506 46.8492 78.8386 47.6812C77.9426 48.4972 76.7586 48.9052 75.2866 48.9052H69.6946V54.5692H66.8866V37.7692ZM75.2386 46.4572C75.8946 46.4572 76.4146 46.2572 76.7986 45.8572C77.1986 45.4572 77.3986 44.9372 77.3986 44.2972V42.1612C77.3986 41.5692 77.2226 41.0972 76.8706 40.7452C76.5186 40.3932 76.0466 40.2172 75.4546 40.2172H69.6946V46.4572H75.2386ZM84.3725 54.5692C83.7325 54.5692 83.2285 54.3852 82.8605 54.0172C82.4925 53.6492 82.3085 53.1612 82.3085 52.5532V37.7692H85.1165V52.1212H94.2365V54.5692H84.3725ZM105.951 50.4172H99.279L97.719 54.5692H94.815L101.343 37.7692H102.615C103.479 37.7692 104.079 38.1932 104.415 39.0412L110.415 54.5692H107.487L105.951 50.4172ZM100.071 48.0652H105.159L102.639 41.2492H102.615L100.071 48.0652ZM112.285 37.7692H114.805L123.301 50.0572V37.7692H126.037V54.5692H123.493L115.021 42.3292V54.5692H112.285V37.7692ZM129.301 37.7692H131.821L140.317 50.0572V37.7692H143.053V54.5692H140.509L132.037 42.3292V54.5692H129.301V37.7692ZM146.556 37.7692H149.364V54.5692H146.556V37.7692ZM152.879 37.7692H155.399L163.895 50.0572V37.7692H166.631V54.5692H164.087L155.615 42.3292V54.5692H152.879V37.7692ZM175.414 54.7612C174.214 54.7612 173.158 54.5052 172.246 53.9932C171.35 53.4652 170.654 52.7292 170.158 51.7852C169.662 50.8252 169.414 49.7212 169.414 48.4732V43.8652C169.414 42.6172 169.662 41.5212 170.158 40.5772C170.67 39.6172 171.382 38.8812 172.294 38.3692C173.222 37.8412 174.286 37.5772 175.486 37.5772H178.126C179.278 37.5772 180.294 37.8172 181.174 38.2972C182.054 38.7612 182.734 39.4252 183.214 40.2892C183.694 41.1372 183.934 42.1212 183.934 43.2412H181.174C181.174 42.2812 180.894 41.5132 180.334 40.9372C179.774 40.3452 179.038 40.0492 178.126 40.0492H175.486C174.51 40.0492 173.718 40.4092 173.11 41.1292C172.518 41.8332 172.222 42.7772 172.222 43.9612V48.3772C172.222 49.5612 172.51 50.5132 173.086 51.2332C173.678 51.9372 174.454 52.2892 175.414 52.2892H178.15C179.078 52.2892 179.838 51.9612 180.43 51.3052C181.022 50.6492 181.318 49.8092 181.318 48.7852V47.9692H176.662V45.5212H184.078V48.7852C184.078 49.9532 183.83 50.9932 183.334 51.9052C182.838 52.8012 182.142 53.5052 181.246 54.0172C180.35 54.5132 179.318 54.7612 178.15 54.7612H175.414Z" fill="#030303"/>
<path d="M80.2542 81.7692C79.7209 81.7692 79.2876 81.6092 78.9542 81.2892C78.6342 80.9559 78.4742 80.5225 78.4742 79.9892C78.4742 79.4559 78.6342 79.0292 78.9542 78.7092C79.2876 78.3759 79.7209 78.2092 80.2542 78.2092C80.7876 78.2092 81.2142 78.3759 81.5342 78.7092C81.8676 79.0292 82.0342 79.4559 82.0342 79.9892C82.0342 80.5225 81.8676 80.9559 81.5342 81.2892C81.2142 81.6092 80.7876 81.7692 80.2542 81.7692ZM100.695 85.5692C99.6413 85.5692 98.8813 85.3425 98.4146 84.8892C97.9613 84.4359 97.7346 83.6892 97.7346 82.6492V76.8692H95.9746V75.5892H97.7346V72.5692H99.1746V75.5892H101.775V76.8692H99.1746V82.6492C99.1746 83.2359 99.288 83.6559 99.5146 83.9092C99.7546 84.1625 100.148 84.2892 100.695 84.2892H101.775V85.5692H100.695ZM104.411 71.5692H105.851V76.9692C106.158 76.5025 106.551 76.1292 107.031 75.8492C107.511 75.5692 107.998 75.4292 108.491 75.4292H109.891C110.811 75.4292 111.551 75.7425 112.111 76.3692C112.685 76.9959 112.971 77.8159 112.971 78.8292V85.5692H111.531V78.7892C111.531 78.1759 111.378 77.6759 111.071 77.2892C110.765 76.9025 110.358 76.7092 109.851 76.7092H108.531C107.905 76.7092 107.331 76.9559 106.811 77.4492C106.305 77.9292 105.985 78.5492 105.851 79.3092V85.5692H104.411V71.5692ZM119.216 85.7292C118.096 85.7292 117.196 85.4025 116.516 84.7492C115.836 84.0825 115.496 83.2025 115.496 82.1092V79.2492C115.496 78.1025 115.836 77.1825 116.516 76.4892C117.196 75.7825 118.096 75.4292 119.216 75.4292H120.856C121.922 75.4292 122.782 75.7692 123.436 76.4492C124.089 77.1292 124.416 78.0292 124.416 79.1492V80.9092H116.936V82.1092C116.936 82.8025 117.142 83.3692 117.556 83.8092C117.982 84.2359 118.536 84.4492 119.216 84.4492H120.736C121.402 84.4492 121.942 84.2692 122.356 83.9092C122.769 83.5359 122.976 83.0425 122.976 82.4292H124.376C124.376 83.4159 124.042 84.2159 123.376 84.8292C122.709 85.4292 121.829 85.7292 120.736 85.7292H119.216ZM122.976 79.6692V79.1492C122.976 78.4159 122.782 77.8292 122.396 77.3892C122.009 76.9359 121.496 76.7092 120.856 76.7092H119.216C118.536 76.7092 117.982 76.9425 117.556 77.4092C117.142 77.8759 116.936 78.4892 116.936 79.2492V79.6692H122.976ZM137.871 75.4292C138.751 75.4292 139.444 75.7159 139.951 76.2892C140.471 76.8492 140.731 77.6292 140.731 78.6292V85.5692H139.291V78.5892C139.291 78.0025 139.158 77.5425 138.891 77.2092C138.624 76.8759 138.271 76.7092 137.831 76.7092H136.691C136.118 76.7092 135.644 76.9025 135.271 77.2892C134.898 77.6759 134.658 78.2225 134.551 78.9292V85.5692H133.111V78.7092C133.111 78.0825 132.984 77.5959 132.731 77.2492C132.491 76.8892 132.158 76.7092 131.731 76.7092H130.591C130.044 76.7092 129.564 76.9492 129.151 77.4292C128.738 77.9092 128.478 78.5359 128.371 79.3092V85.5692H126.931V75.5892H128.331V77.0292C128.598 76.5225 128.931 76.1292 129.331 75.8492C129.731 75.5692 130.151 75.4292 130.591 75.4292H131.771C132.331 75.4292 132.811 75.5692 133.211 75.8492C133.624 76.1159 133.938 76.5092 134.151 77.0292C134.458 76.4959 134.824 76.0959 135.251 75.8292C135.678 75.5625 136.144 75.4292 136.651 75.4292H137.871ZM146.97 85.7292C145.85 85.7292 144.95 85.4025 144.27 84.7492C143.59 84.0825 143.25 83.2025 143.25 82.1092V79.2492C143.25 78.1025 143.59 77.1825 144.27 76.4892C144.95 75.7825 145.85 75.4292 146.97 75.4292H148.61C149.676 75.4292 150.536 75.7692 151.19 76.4492C151.843 77.1292 152.17 78.0292 152.17 79.1492V80.9092H144.69V82.1092C144.69 82.8025 144.896 83.3692 145.31 83.8092C145.736 84.2359 146.29 84.4492 146.97 84.4492H148.49C149.156 84.4492 149.696 84.2692 150.11 83.9092C150.523 83.5359 150.73 83.0425 150.73 82.4292H152.13C152.13 83.4159 151.796 84.2159 151.13 84.8292C150.463 85.4292 149.583 85.7292 148.49 85.7292H146.97ZM150.73 79.6692V79.1492C150.73 78.4159 150.536 77.8292 150.15 77.3892C149.763 76.9359 149.25 76.7092 148.61 76.7092H146.97C146.29 76.7092 145.736 76.9425 145.31 77.4092C144.896 77.8759 144.69 78.4892 144.69 79.2492V79.6692H150.73ZM159.88 75.5892H161.28V76.9492C161.56 76.4959 161.927 76.1292 162.38 75.8492C162.847 75.5692 163.313 75.4292 163.78 75.4292H165.22C166.287 75.4292 167.147 75.7692 167.8 76.4492C168.467 77.1292 168.8 78.0292 168.8 79.1492V81.6092C168.8 82.8492 168.46 83.8492 167.78 84.6092C167.113 85.3559 166.227 85.7292 165.12 85.7292H163.68C163.267 85.7292 162.833 85.6159 162.38 85.3892C161.927 85.1492 161.573 84.8425 161.32 84.4692V89.5492H159.88V75.5892ZM165.08 84.4492C165.773 84.4492 166.327 84.1892 166.74 83.6692C167.153 83.1492 167.36 82.4625 167.36 81.6092V79.1492C167.36 78.4159 167.16 77.8292 166.76 77.3892C166.36 76.9359 165.833 76.7092 165.18 76.7092H163.78C163.22 76.7092 162.713 76.9292 162.26 77.3692C161.807 77.7959 161.493 78.3492 161.32 79.0292V82.0292C161.413 82.7359 161.687 83.3159 162.14 83.7692C162.593 84.2225 163.133 84.4492 163.76 84.4492H165.08ZM174.203 85.5692C173.216 85.5692 172.509 85.3625 172.083 84.9492C171.656 84.5225 171.443 83.8225 171.443 82.8492V71.5692H172.883V82.8492C172.883 83.3559 172.983 83.7225 173.183 83.9492C173.396 84.1759 173.736 84.2892 174.203 84.2892H174.883V85.5692H174.203ZM179.674 85.7292C178.701 85.7292 177.921 85.4759 177.334 84.9692C176.761 84.4625 176.474 83.7825 176.474 82.9292V82.2892C176.474 81.4492 176.774 80.7759 177.374 80.2692C177.974 79.7625 178.768 79.5092 179.754 79.5092H181.034C181.474 79.5092 181.928 79.5759 182.394 79.7092C182.861 79.8425 183.261 80.0225 183.594 80.2492V78.5892C183.594 78.0292 183.421 77.5759 183.074 77.2292C182.728 76.8692 182.268 76.6892 181.694 76.6892H180.094C179.521 76.6892 179.061 76.8225 178.714 77.0892C178.368 77.3559 178.194 77.7092 178.194 78.1492H176.754C176.754 77.3359 177.061 76.6825 177.674 76.1892C178.288 75.6825 179.094 75.4292 180.094 75.4292H181.694C182.681 75.4292 183.474 75.7225 184.074 76.3092C184.688 76.8825 184.994 77.6425 184.994 78.5892V85.5692H183.634V84.1692C183.328 84.6492 182.921 85.0292 182.414 85.3092C181.921 85.5892 181.408 85.7292 180.874 85.7292H179.674ZM180.914 84.4692C181.541 84.4692 182.101 84.2759 182.594 83.8892C183.088 83.5025 183.421 82.9892 183.594 82.3492V81.6092C183.328 81.3559 182.954 81.1559 182.474 81.0092C182.008 80.8492 181.528 80.7692 181.034 80.7692H179.754C179.208 80.7692 178.761 80.9092 178.414 81.1892C178.081 81.4692 177.914 81.8359 177.914 82.2892V82.9292C177.914 83.3959 178.074 83.7692 178.394 84.0492C178.714 84.3292 179.141 84.4692 179.674 84.4692H180.914ZM187.907 75.5892H189.307V77.0692C189.614 76.5892 190.014 76.1959 190.507 75.8892C191.001 75.5825 191.494 75.4292 191.987 75.4292H193.347C194.267 75.4292 195.007 75.7425 195.567 76.3692C196.141 76.9959 196.427 77.8159 196.427 78.8292V85.5692H194.987V78.7892C194.987 78.1759 194.834 77.6759 194.527 77.2892C194.221 76.9025 193.814 76.7092 193.307 76.7092H192.027C191.401 76.7092 190.827 76.9559 190.307 77.4492C189.801 77.9425 189.481 78.5759 189.347 79.3492V85.5692H187.907V75.5892ZM199.353 75.5892H200.753V77.0692C201.059 76.5892 201.459 76.1959 201.953 75.8892C202.446 75.5825 202.939 75.4292 203.433 75.4292H204.793C205.713 75.4292 206.453 75.7425 207.013 76.3692C207.586 76.9959 207.873 77.8159 207.873 78.8292V85.5692H206.433V78.7892C206.433 78.1759 206.279 77.6759 205.973 77.2892C205.666 76.9025 205.259 76.7092 204.753 76.7092H203.473C202.846 76.7092 202.273 76.9559 201.753 77.4492C201.246 77.9425 200.926 78.5759 200.793 79.3492V85.5692H199.353V75.5892ZM211.878 74.0892C211.558 74.0892 211.298 73.9892 211.098 73.7892C210.898 73.5892 210.798 73.3292 210.798 73.0092C210.798 72.6892 210.898 72.4292 211.098 72.2292C211.298 72.0292 211.558 71.9292 211.878 71.9292C212.198 71.9292 212.458 72.0292 212.658 72.2292C212.858 72.4292 212.958 72.6892 212.958 73.0092C212.958 73.3292 212.858 73.5892 212.658 73.7892C212.458 73.9892 212.198 74.0892 211.878 74.0892ZM211.158 75.5892H212.598V85.5692H211.158V75.5892ZM215.993 75.5892H217.393V77.0692C217.7 76.5892 218.1 76.1959 218.593 75.8892C219.087 75.5825 219.58 75.4292 220.073 75.4292H221.433C222.353 75.4292 223.093 75.7425 223.653 76.3692C224.227 76.9959 224.513 77.8159 224.513 78.8292V85.5692H223.073V78.7892C223.073 78.1759 222.92 77.6759 222.613 77.2892C222.307 76.9025 221.9 76.7092 221.393 76.7092H220.113C219.487 76.7092 218.913 76.9559 218.393 77.4492C217.887 77.9425 217.567 78.5759 217.433 79.3492V85.5692H215.993V75.5892ZM230.679 89.6292C229.799 89.6292 229.072 89.3892 228.499 88.9092C227.925 88.4425 227.605 87.8225 227.539 87.0492H228.979C229.032 87.4492 229.212 87.7692 229.519 88.0092C229.839 88.2625 230.225 88.3892 230.679 88.3892H232.339C233.032 88.3892 233.565 88.1559 233.939 87.6892C234.325 87.2359 234.519 86.5959 234.519 85.7692V84.2292C234.225 84.6292 233.839 84.9559 233.359 85.2092C232.892 85.4492 232.439 85.5692 231.999 85.5692H230.539C229.859 85.5692 229.252 85.4092 228.719 85.0892C228.185 84.7692 227.772 84.3225 227.479 83.7492C227.185 83.1759 227.039 82.5092 227.039 81.7492V79.4092C227.039 78.2225 227.379 77.2625 228.059 76.5292C228.752 75.7959 229.659 75.4292 230.779 75.4292H232.179C232.605 75.4292 233.045 75.5492 233.499 75.7892C233.952 76.0292 234.305 76.3359 234.559 76.7092V75.5892H235.959V85.7692C235.959 86.9825 235.639 87.9292 234.999 88.6092C234.359 89.2892 233.472 89.6292 232.339 89.6292H230.679ZM231.999 84.2892C232.665 84.2892 233.232 84.0292 233.699 83.5092C234.179 82.9759 234.452 82.3025 234.519 81.4892V79.0292C234.465 78.3492 234.212 77.7959 233.759 77.3692C233.319 76.9292 232.792 76.7092 232.179 76.7092H230.819C230.112 76.7092 229.545 76.9559 229.119 77.4492C228.692 77.9425 228.479 78.5959 228.479 79.4092V81.7492C228.479 82.4959 228.672 83.1092 229.059 83.5892C229.459 84.0559 229.965 84.2892 230.579 84.2892H231.999ZM80.2542 106.769C79.7209 106.769 79.2876 106.609 78.9542 106.289C78.6342 105.956 78.4742 105.523 78.4742 104.989C78.4742 104.456 78.6342 104.029 78.9542 103.709C79.2876 103.376 79.7209 103.209 80.2542 103.209C80.7876 103.209 81.2142 103.376 81.5342 103.709C81.8676 104.029 82.0342 104.456 82.0342 104.989C82.0342 105.523 81.8676 105.956 81.5342 106.289C81.2142 106.609 80.7876 106.769 80.2542 106.769ZM100.695 110.569C99.6413 110.569 98.8813 110.343 98.4146 109.889C97.9613 109.436 97.7346 108.689 97.7346 107.649V101.869H95.9746V100.589H97.7346V97.5692H99.1746V100.589H101.775V101.869H99.1746V107.649C99.1746 108.236 99.288 108.656 99.5146 108.909C99.7546 109.163 100.148 109.289 100.695 109.289H101.775V110.569H100.695ZM107.419 110.729C106.299 110.729 105.399 110.403 104.719 109.749C104.039 109.083 103.699 108.203 103.699 107.109V104.249C103.699 103.103 104.039 102.183 104.719 101.489C105.399 100.783 106.299 100.429 107.419 100.429H109.059C110.126 100.429 110.986 100.769 111.639 101.449C112.292 102.129 112.619 103.029 112.619 104.149V105.909H105.139V107.109C105.139 107.803 105.346 108.369 105.759 108.809C106.186 109.236 106.739 109.449 107.419 109.449H108.939C109.606 109.449 110.146 109.269 110.559 108.909C110.972 108.536 111.179 108.043 111.179 107.429H112.579C112.579 108.416 112.246 109.216 111.579 109.829C110.912 110.429 110.032 110.729 108.939 110.729H107.419ZM111.179 104.669V104.149C111.179 103.416 110.986 102.829 110.599 102.389C110.212 101.936 109.699 101.709 109.059 101.709H107.419C106.739 101.709 106.186 101.943 105.759 102.409C105.346 102.876 105.139 103.489 105.139 104.249V104.669H111.179ZM118.014 110.729C117.041 110.729 116.261 110.476 115.674 109.969C115.101 109.463 114.814 108.783 114.814 107.929V107.289C114.814 106.449 115.114 105.776 115.714 105.269C116.314 104.763 117.107 104.509 118.094 104.509H119.374C119.814 104.509 120.267 104.576 120.734 104.709C121.201 104.843 121.601 105.023 121.934 105.249V103.589C121.934 103.029 121.761 102.576 121.414 102.229C121.067 101.869 120.607 101.689 120.034 101.689H118.434C117.861 101.689 117.401 101.823 117.054 102.089C116.707 102.356 116.534 102.709 116.534 103.149H115.094C115.094 102.336 115.401 101.683 116.014 101.189C116.627 100.683 117.434 100.429 118.434 100.429H120.034C121.021 100.429 121.814 100.723 122.414 101.309C123.027 101.883 123.334 102.643 123.334 103.589V110.569H121.974V109.169C121.667 109.649 121.261 110.029 120.754 110.309C120.261 110.589 119.747 110.729 119.214 110.729H118.014ZM119.254 109.469C119.881 109.469 120.441 109.276 120.934 108.889C121.427 108.503 121.761 107.989 121.934 107.349V106.609C121.667 106.356 121.294 106.156 120.814 106.009C120.347 105.849 119.867 105.769 119.374 105.769H118.094C117.547 105.769 117.101 105.909 116.754 106.189C116.421 106.469 116.254 106.836 116.254 107.289V107.929C116.254 108.396 116.414 108.769 116.734 109.049C117.054 109.329 117.481 109.469 118.014 109.469H119.254ZM137.187 100.429C138.067 100.429 138.761 100.716 139.267 101.289C139.787 101.849 140.047 102.629 140.047 103.629V110.569H138.607V103.589C138.607 103.003 138.474 102.543 138.207 102.209C137.941 101.876 137.587 101.709 137.147 101.709H136.007C135.434 101.709 134.961 101.903 134.587 102.289C134.214 102.676 133.974 103.223 133.867 103.929V110.569H132.427V103.709C132.427 103.083 132.301 102.596 132.047 102.249C131.807 101.889 131.474 101.709 131.047 101.709H129.907C129.361 101.709 128.881 101.949 128.467 102.429C128.054 102.909 127.794 103.536 127.687 104.309V110.569H126.247V100.589H127.647V102.029C127.914 101.523 128.247 101.129 128.647 100.849C129.047 100.569 129.467 100.429 129.907 100.429H131.087C131.647 100.429 132.127 100.569 132.527 100.849C132.941 101.116 133.254 101.509 133.467 102.029C133.774 101.496 134.141 101.096 134.567 100.829C134.994 100.563 135.461 100.429 135.967 100.429H137.187ZM151.401 110.729C150.308 110.729 149.428 110.403 148.761 109.749C148.095 109.083 147.761 108.203 147.761 107.109V104.249C147.761 103.103 148.095 102.183 148.761 101.489C149.428 100.783 150.301 100.429 151.381 100.429H153.021C154.048 100.429 154.875 100.716 155.501 101.289C156.128 101.863 156.441 102.616 156.441 103.549H155.041C155.041 103.003 154.855 102.563 154.481 102.229C154.121 101.883 153.635 101.709 153.021 101.709H151.381C150.728 101.709 150.201 101.943 149.801 102.409C149.401 102.876 149.201 103.489 149.201 104.249V107.109C149.201 107.816 149.401 108.383 149.801 108.809C150.215 109.236 150.748 109.449 151.401 109.449H153.041C153.668 109.449 154.168 109.229 154.541 108.789C154.928 108.349 155.121 107.763 155.121 107.029H156.521C156.521 108.136 156.201 109.029 155.561 109.709C154.921 110.389 154.081 110.729 153.041 110.729H151.401ZM162.204 110.729C161.084 110.729 160.184 110.383 159.504 109.689C158.824 108.996 158.484 108.083 158.484 106.949V104.209C158.484 103.076 158.824 102.163 159.504 101.469C160.197 100.776 161.111 100.429 162.244 100.429H163.884C165.017 100.429 165.924 100.776 166.604 101.469C167.297 102.163 167.644 103.076 167.644 104.209V106.949C167.644 108.083 167.297 108.996 166.604 109.689C165.911 110.383 164.991 110.729 163.844 110.729H162.204ZM163.844 109.449C164.564 109.449 165.137 109.223 165.564 108.769C165.991 108.303 166.204 107.696 166.204 106.949V104.209C166.204 103.463 165.991 102.863 165.564 102.409C165.137 101.943 164.577 101.709 163.884 101.709H162.244C161.551 101.709 160.991 101.943 160.564 102.409C160.137 102.863 159.924 103.463 159.924 104.209V106.949C159.924 107.709 160.131 108.316 160.544 108.769C160.957 109.223 161.511 109.449 162.204 109.449H163.844ZM173.61 110.729C172.49 110.729 171.59 110.383 170.91 109.689C170.23 108.996 169.89 108.083 169.89 106.949V104.209C169.89 103.076 170.23 102.163 170.91 101.469C171.604 100.776 172.517 100.429 173.65 100.429H175.29C176.424 100.429 177.33 100.776 178.01 101.469C178.704 102.163 179.05 103.076 179.05 104.209V106.949C179.05 108.083 178.704 108.996 178.01 109.689C177.317 110.383 176.397 110.729 175.25 110.729H173.61ZM175.25 109.449C175.97 109.449 176.544 109.223 176.97 108.769C177.397 108.303 177.61 107.696 177.61 106.949V104.209C177.61 103.463 177.397 102.863 176.97 102.409C176.544 101.943 175.984 101.709 175.29 101.709H173.65C172.957 101.709 172.397 101.943 171.97 102.409C171.544 102.863 171.33 103.463 171.33 104.209V106.949C171.33 107.709 171.537 108.316 171.95 108.769C172.364 109.223 172.917 109.449 173.61 109.449H175.25ZM181.697 100.589H183.097V102.129C183.363 101.663 183.763 101.283 184.297 100.989C184.843 100.696 185.41 100.549 185.997 100.549H186.877V101.849H185.997C185.143 101.849 184.45 102.123 183.917 102.669C183.397 103.203 183.137 103.916 183.137 104.809V110.569H181.697V100.589ZM191.593 110.729C190.913 110.729 190.307 110.569 189.773 110.249C189.24 109.929 188.827 109.483 188.533 108.909C188.24 108.336 188.093 107.669 188.093 106.909V104.509C188.093 103.709 188.247 103.003 188.553 102.389C188.86 101.763 189.293 101.283 189.853 100.949C190.413 100.603 191.053 100.429 191.773 100.429H193.253C193.707 100.429 194.14 100.536 194.553 100.749C194.98 100.963 195.32 101.256 195.573 101.629V96.5692H197.013V110.569H195.613V109.089C195.307 109.583 194.907 109.983 194.413 110.289C193.92 110.583 193.44 110.729 192.973 110.729H191.593ZM192.933 109.449C193.36 109.449 193.773 109.316 194.173 109.049C194.573 108.769 194.9 108.409 195.153 107.969C195.407 107.529 195.547 107.076 195.573 106.609V104.089C195.48 103.383 195.213 102.809 194.773 102.369C194.347 101.929 193.827 101.709 193.213 101.709H191.813C191.133 101.709 190.58 101.969 190.153 102.489C189.74 102.996 189.533 103.669 189.533 104.509V106.909C189.533 107.656 189.727 108.269 190.113 108.749C190.513 109.216 191.02 109.449 191.633 109.449H192.933ZM201.136 99.0892C200.816 99.0892 200.556 98.9892 200.356 98.7892C200.156 98.5892 200.056 98.3292 200.056 98.0092C200.056 97.6892 200.156 97.4292 200.356 97.2292C200.556 97.0292 200.816 96.9292 201.136 96.9292C201.456 96.9292 201.716 97.0292 201.916 97.2292C202.116 97.4292 202.216 97.6892 202.216 98.0092C202.216 98.3292 202.116 98.5892 201.916 98.7892C201.716 98.9892 201.456 99.0892 201.136 99.0892ZM200.416 100.589H201.856V110.569H200.416V100.589ZM205.251 100.589H206.651V102.069C206.958 101.589 207.358 101.196 207.851 100.889C208.345 100.583 208.838 100.429 209.331 100.429H210.691C211.611 100.429 212.351 100.743 212.911 101.369C213.485 101.996 213.771 102.816 213.771 103.829V110.569H212.331V103.789C212.331 103.176 212.178 102.676 211.871 102.289C211.565 101.903 211.158 101.709 210.651 101.709H209.371C208.745 101.709 208.171 101.956 207.651 102.449C207.145 102.943 206.825 103.576 206.691 104.349V110.569H205.251V100.589ZM219.577 110.729C218.603 110.729 217.823 110.476 217.237 109.969C216.663 109.463 216.377 108.783 216.377 107.929V107.289C216.377 106.449 216.677 105.776 217.277 105.269C217.877 104.763 218.67 104.509 219.657 104.509H220.937C221.377 104.509 221.83 104.576 222.297 104.709C222.763 104.843 223.163 105.023 223.497 105.249V103.589C223.497 103.029 223.323 102.576 222.977 102.229C222.63 101.869 222.17 101.689 221.597 101.689H219.997C219.423 101.689 218.963 101.823 218.617 102.089C218.27 102.356 218.097 102.709 218.097 103.149H216.657C216.657 102.336 216.963 101.683 217.577 101.189C218.19 100.683 218.997 100.429 219.997 100.429H221.597C222.583 100.429 223.377 100.723 223.977 101.309C224.59 101.883 224.897 102.643 224.897 103.589V110.569H223.537V109.169C223.23 109.649 222.823 110.029 222.317 110.309C221.823 110.589 221.31 110.729 220.777 110.729H219.577ZM220.817 109.469C221.443 109.469 222.003 109.276 222.497 108.889C222.99 108.503 223.323 107.989 223.497 107.349V106.609C223.23 106.356 222.857 106.156 222.377 106.009C221.91 105.849 221.43 105.769 220.937 105.769H219.657C219.11 105.769 218.663 105.909 218.317 106.189C217.983 106.469 217.817 106.836 217.817 107.289V107.929C217.817 108.396 217.977 108.769 218.297 109.049C218.617 109.329 219.043 109.469 219.577 109.469H220.817ZM231.73 110.569C230.676 110.569 229.916 110.343 229.45 109.889C228.996 109.436 228.77 108.689 228.77 107.649V101.869H227.01V100.589H228.77V97.5692H230.21V100.589H232.81V101.869H230.21V107.649C230.21 108.236 230.323 108.656 230.55 108.909C230.79 109.163 231.183 109.289 231.73 109.289H232.81V110.569H231.73ZM236.527 99.0892C236.207 99.0892 235.947 98.9892 235.747 98.7892C235.547 98.5892 235.447 98.3292 235.447 98.0092C235.447 97.6892 235.547 97.4292 235.747 97.2292C235.947 97.0292 236.207 96.9292 236.527 96.9292C236.847 96.9292 237.107 97.0292 237.307 97.2292C237.507 97.4292 237.607 97.6892 237.607 98.0092C237.607 98.3292 237.507 98.5892 237.307 98.7892C237.107 98.9892 236.847 99.0892 236.527 99.0892ZM235.807 100.589H237.247V110.569H235.807V100.589ZM243.962 110.729C242.842 110.729 241.942 110.383 241.262 109.689C240.582 108.996 240.242 108.083 240.242 106.949V104.209C240.242 103.076 240.582 102.163 241.262 101.469C241.955 100.776 242.868 100.429 244.002 100.429H245.642C246.775 100.429 247.682 100.776 248.362 101.469C249.055 102.163 249.402 103.076 249.402 104.209V106.949C249.402 108.083 249.055 108.996 248.362 109.689C247.668 110.383 246.748 110.729 245.602 110.729H243.962ZM245.602 109.449C246.322 109.449 246.895 109.223 247.322 108.769C247.748 108.303 247.962 107.696 247.962 106.949V104.209C247.962 103.463 247.748 102.863 247.322 102.409C246.895 101.943 246.335 101.709 245.642 101.709H244.002C243.308 101.709 242.748 101.943 242.322 102.409C241.895 102.863 241.682 103.463 241.682 104.209V106.949C241.682 107.709 241.888 108.316 242.302 108.769C242.715 109.223 243.268 109.449 243.962 109.449H245.602ZM252.048 100.589H253.448V102.069C253.755 101.589 254.155 101.196 254.648 100.889C255.141 100.583 255.635 100.429 256.128 100.429H257.488C258.408 100.429 259.148 100.743 259.708 101.369C260.281 101.996 260.568 102.816 260.568 103.829V110.569H259.128V103.789C259.128 103.176 258.975 102.676 258.668 102.289C258.361 101.903 257.955 101.709 257.448 101.709H256.168C255.541 101.709 254.968 101.956 254.448 102.449C253.941 102.943 253.621 103.576 253.488 104.349V110.569H252.048V100.589Z" fill="#030303"/>
</svg>
