<svg width="342" height="86" viewBox="0 0 342 86" fill="none" xmlns="http://www.w3.org/2000/svg">
<rect width="20.1504" height="20.1503" transform="matrix(-0.98995 -0.141414 -0.141414 0.98995 25.6045 3.41876)" fill="#030303"/>
<ellipse cx="20" cy="20" rx="20" ry="20" transform="matrix(-0.98995 -0.141414 -0.141414 0.98995 45.2546 6.22585)" fill="#030303"/>
<path d="M25.3273 30.1692H20.1473L20.2473 29.5892C20.594 29.4826 20.9273 29.3892 21.2473 29.3092C21.5673 29.2292 21.8873 29.1626 22.2073 29.1092L22.7873 26.3092H16.6873L16.7873 25.8492L26.2873 15.9292H26.8273L24.8473 25.2692H27.4073L27.1673 26.3092H24.6273L24.0273 29.1092C24.254 29.1626 24.4873 29.2292 24.7273 29.3092C24.9673 29.3892 25.2007 29.4826 25.4273 29.5892L25.3273 30.1692ZM24.1073 20.1292L24.6873 18.6892H24.6273L23.5673 20.1292L19.2273 24.7492L18.2873 25.4092L19.7473 25.2692H23.0273L24.1073 20.1292Z" fill="#F5F5F5"/>
<path d="M66.8866 7.76921H75.5506C76.9266 7.76921 78.0386 8.14521 78.8866 8.89721C79.7346 9.64921 80.1586 10.6412 80.1586 11.8732V13.5772C80.1586 14.4092 79.9026 15.1452 79.3906 15.7852C78.8946 16.4092 78.1986 16.8732 77.3026 17.1772V17.2252C77.8146 17.5292 78.2226 17.9212 78.5266 18.4012C78.8466 18.8652 79.1186 19.4732 79.3426 20.2252L80.6866 24.5692H77.7826L76.4866 20.4172C76.2786 19.6972 75.9586 19.1452 75.5266 18.7612C75.0946 18.3772 74.5906 18.1852 74.0146 18.1852H69.6946V24.5692H66.8866V7.76921ZM74.9266 15.7612C75.6626 15.7612 76.2466 15.5612 76.6786 15.1612C77.1266 14.7612 77.3506 14.2412 77.3506 13.6012V11.9452C77.3506 11.4332 77.1826 11.0172 76.8466 10.6972C76.5106 10.3772 76.0626 10.2172 75.5026 10.2172H69.6946V15.7612H74.9266ZM85.0053 24.5692C84.3813 24.5692 83.8773 24.3852 83.4933 24.0172C83.1253 23.6332 82.9413 23.1372 82.9413 22.5292V7.76921H95.2533V10.1932H85.7493V14.7532H94.5333V17.2012H85.7493V22.1452H95.2533V24.5692H85.0053ZM103.921 24.5692C103.121 24.5692 102.537 24.1052 102.169 23.1772L96.4087 7.76921H99.3127L104.017 21.0652H104.041L108.769 7.76921H111.649L105.265 24.5692H103.921ZM113.767 7.76921H116.575V24.5692H113.767V7.76921ZM122.154 24.5692C121.53 24.5692 121.026 24.3852 120.642 24.0172C120.274 23.6332 120.09 23.1372 120.09 22.5292V7.76921H132.402V10.1932H122.898V14.7532H131.682V17.2012H122.898V22.1452H132.402V24.5692H122.154ZM138.741 24.5692C138.229 24.5692 137.805 24.4332 137.469 24.1612C137.133 23.8892 136.901 23.4332 136.773 22.7932L133.845 7.76921H136.677L138.909 20.5612H138.957L142.677 8.65721H143.733C144.485 8.65721 144.997 9.08921 145.269 9.95321L148.461 20.5372H148.509L150.741 7.76921H153.573L150.621 22.7932C150.493 23.4012 150.269 23.8492 149.949 24.1372C149.645 24.4252 149.221 24.5692 148.677 24.5692H147.525L143.781 12.3772H143.733L139.893 24.5692H138.741ZM173.817 24.5692L172.449 23.0092C171.841 23.5692 171.153 24.0012 170.385 24.3052C169.633 24.6092 168.841 24.7612 168.009 24.7612H166.953C165.385 24.7612 164.145 24.3932 163.233 23.6572C162.321 22.9212 161.865 21.9132 161.865 20.6332V19.7212C161.865 18.9532 162.017 18.3052 162.321 17.7772C162.641 17.2492 163.041 16.8092 163.521 16.4572C164.001 16.1052 164.681 15.6652 165.561 15.1372L165.201 14.6812C164.385 13.6732 163.977 12.7132 163.977 11.8012V11.2972C163.977 10.1772 164.369 9.28121 165.153 8.60921C165.937 7.92121 166.977 7.57721 168.273 7.57721H169.185C170.385 7.57721 171.345 7.91321 172.065 8.58521C172.801 9.24121 173.169 10.1132 173.169 11.2012V11.6812C173.169 12.2092 173.057 12.6732 172.833 13.0732C172.625 13.4572 172.273 13.8492 171.777 14.2492C171.281 14.6332 170.577 15.0972 169.665 15.6412L169.209 15.9052L172.185 19.2652C172.521 18.4972 172.737 17.6252 172.833 16.6492H175.209C175.113 18.3292 174.673 19.8412 173.889 21.1852L176.889 24.5692H173.817ZM166.545 11.8012C166.545 12.3772 166.809 12.9692 167.337 13.5772L167.889 14.2972L168.321 14.0332C169.265 13.4252 169.881 12.9772 170.169 12.6892C170.473 12.4012 170.625 12.0652 170.625 11.6812V11.2012C170.625 10.7852 170.481 10.4492 170.193 10.1932C169.921 9.93721 169.569 9.80921 169.137 9.80921H168.249C167.721 9.80921 167.305 9.94521 167.001 10.2172C166.697 10.4732 166.545 10.8412 166.545 11.3212V11.8012ZM168.033 22.4332C169.137 22.4332 170.089 22.0332 170.889 21.2332L167.073 16.8892C166.129 17.4172 165.473 17.8732 165.105 18.2572C164.753 18.6252 164.577 19.1052 164.577 19.6972V20.5612C164.577 21.1212 164.793 21.5772 165.225 21.9292C165.657 22.2652 166.217 22.4332 166.905 22.4332H168.033ZM185.457 7.76921H197.529V10.2172H188.265V15.2812H196.641V17.7292H188.265V24.5692H185.457V7.76921ZM199.97 7.76921H202.778V24.5692H199.97V7.76921ZM206.293 7.76921H208.813L217.309 20.0572V7.76921H220.045V24.5692H217.501L209.029 12.3292V24.5692H206.293V7.76921ZM233.053 20.4172H226.381L224.821 24.5692H221.917L228.445 7.76921H229.717C230.581 7.76921 231.181 8.19321 231.517 9.04121L237.517 24.5692H234.589L233.053 20.4172ZM227.173 18.0652H232.261L229.741 11.2492H229.717L227.173 18.0652ZM241.31 24.5692C240.67 24.5692 240.166 24.3852 239.798 24.0172C239.43 23.6492 239.246 23.1612 239.246 22.5532V7.76921H242.054V22.1212H251.174V24.5692H241.31ZM253.384 7.76921H256.192V24.5692H253.384V7.76921ZM258.747 23.2252L267.843 10.1692H259.179V7.76921H271.731V9.11321L262.587 22.1692H271.491V24.5692H258.747V23.2252ZM283.771 20.4172H277.099L275.539 24.5692H272.635L279.163 7.76921H280.435C281.299 7.76921 281.899 8.19321 282.235 9.04121L288.235 24.5692H285.307L283.771 20.4172ZM277.891 18.0652H282.979L280.459 11.2492H280.435L277.891 18.0652ZM291.843 10.1932H286.515V7.76921H299.979V10.1932H294.651V24.5692H291.843V10.1932ZM302.275 7.76921H305.083V24.5692H302.275V7.76921ZM314.262 24.7612C313.046 24.7612 311.974 24.5052 311.046 23.9932C310.118 23.4652 309.398 22.7292 308.886 21.7852C308.374 20.8252 308.118 19.7212 308.118 18.4732V13.8652C308.118 12.6172 308.374 11.5212 308.886 10.5772C309.398 9.61721 310.118 8.88121 311.046 8.36921C311.974 7.84121 313.046 7.57721 314.262 7.57721H316.806C318.022 7.57721 319.094 7.84121 320.022 8.36921C320.966 8.88121 321.694 9.61721 322.206 10.5772C322.718 11.5212 322.974 12.6172 322.974 13.8652V18.4732C322.974 19.7212 322.718 20.8252 322.206 21.7852C321.694 22.7292 320.966 23.4652 320.022 23.9932C319.094 24.5052 318.022 24.7612 316.806 24.7612H314.262ZM316.806 22.2892C317.798 22.2892 318.606 21.9292 319.23 21.2092C319.854 20.4892 320.166 19.5452 320.166 18.3772V13.9612C320.166 12.7932 319.854 11.8492 319.23 11.1292C318.622 10.4092 317.814 10.0492 316.806 10.0492H314.286C313.278 10.0492 312.462 10.4092 311.838 11.1292C311.23 11.8492 310.926 12.7932 310.926 13.9612V18.3772C310.926 19.5452 311.23 20.4892 311.838 21.2092C312.462 21.9292 313.278 22.2892 314.286 22.2892H316.806ZM325.754 7.76921H328.274L336.77 20.0572V7.76921H339.506V24.5692H336.962L328.49 12.3292V24.5692H325.754V7.76921Z" fill="#030303"/>
<path d="M80.2542 51.7692C79.7209 51.7692 79.2876 51.6092 78.9542 51.2892C78.6342 50.9559 78.4742 50.5225 78.4742 49.9892C78.4742 49.4559 78.6342 49.0292 78.9542 48.7092C79.2876 48.3759 79.7209 48.2092 80.2542 48.2092C80.7876 48.2092 81.2142 48.3759 81.5342 48.7092C81.8676 49.0292 82.0342 49.4559 82.0342 49.9892C82.0342 50.5225 81.8676 50.9559 81.5342 51.2892C81.2142 51.6092 80.7876 51.7692 80.2542 51.7692ZM100.015 55.7292C98.9213 55.7292 98.0413 55.4025 97.3746 54.7492C96.708 54.0825 96.3746 53.2025 96.3746 52.1092V49.2492C96.3746 48.1025 96.708 47.1825 97.3746 46.4892C98.0413 45.7825 98.9146 45.4292 99.9946 45.4292H101.635C102.661 45.4292 103.488 45.7159 104.115 46.2892C104.741 46.8625 105.055 47.6159 105.055 48.5492H103.655C103.655 48.0025 103.468 47.5625 103.095 47.2292C102.735 46.8825 102.248 46.7092 101.635 46.7092H99.9946C99.3413 46.7092 98.8146 46.9425 98.4146 47.4092C98.0146 47.8759 97.8146 48.4892 97.8146 49.2492V52.1092C97.8146 52.8159 98.0146 53.3825 98.4146 53.8092C98.828 54.2359 99.3613 54.4492 100.015 54.4492H101.655C102.281 54.4492 102.781 54.2292 103.155 53.7892C103.541 53.3492 103.735 52.7625 103.735 52.0292H105.135C105.135 53.1359 104.815 54.0292 104.175 54.7092C103.535 55.3892 102.695 55.7292 101.655 55.7292H100.015ZM110.817 55.7292C109.697 55.7292 108.797 55.3825 108.117 54.6892C107.437 53.9959 107.097 53.0825 107.097 51.9492V49.2092C107.097 48.0759 107.437 47.1625 108.117 46.4692C108.811 45.7759 109.724 45.4292 110.857 45.4292H112.497C113.631 45.4292 114.537 45.7759 115.217 46.4692C115.911 47.1625 116.257 48.0759 116.257 49.2092V51.9492C116.257 53.0825 115.911 53.9959 115.217 54.6892C114.524 55.3825 113.604 55.7292 112.457 55.7292H110.817ZM112.457 54.4492C113.177 54.4492 113.751 54.2225 114.177 53.7692C114.604 53.3025 114.817 52.6959 114.817 51.9492V49.2092C114.817 48.4625 114.604 47.8625 114.177 47.4092C113.751 46.9425 113.191 46.7092 112.497 46.7092H110.857C110.164 46.7092 109.604 46.9425 109.177 47.4092C108.751 47.8625 108.537 48.4625 108.537 49.2092V51.9492C108.537 52.7092 108.744 53.3159 109.157 53.7692C109.571 54.2225 110.124 54.4492 110.817 54.4492H112.457ZM118.904 45.5892H120.304V47.0692C120.61 46.5892 121.01 46.1959 121.504 45.8892C121.997 45.5825 122.49 45.4292 122.984 45.4292H124.344C125.264 45.4292 126.004 45.7425 126.564 46.3692C127.137 46.9959 127.424 47.8159 127.424 48.8292V55.5692H125.984V48.7892C125.984 48.1759 125.83 47.6759 125.524 47.2892C125.217 46.9025 124.81 46.7092 124.304 46.7092H123.024C122.397 46.7092 121.824 46.9559 121.304 47.4492C120.797 47.9425 120.477 48.5759 120.344 49.3492V55.5692H118.904V45.5892ZM134.269 55.5692C133.216 55.5692 132.456 55.3425 131.989 54.8892C131.536 54.4359 131.309 53.6892 131.309 52.6492V46.8692H129.549V45.5892H131.309V42.5692H132.749V45.5892H135.349V46.8692H132.749V52.6492C132.749 53.2359 132.862 53.6559 133.089 53.9092C133.329 54.1625 133.722 54.2892 134.269 54.2892H135.349V55.5692H134.269ZM140.993 55.7292C139.873 55.7292 138.973 55.4025 138.293 54.7492C137.613 54.0825 137.273 53.2025 137.273 52.1092V49.2492C137.273 48.1025 137.613 47.1825 138.293 46.4892C138.973 45.7825 139.873 45.4292 140.993 45.4292H142.633C143.7 45.4292 144.56 45.7692 145.213 46.4492C145.866 47.1292 146.193 48.0292 146.193 49.1492V50.9092H138.713V52.1092C138.713 52.8025 138.92 53.3692 139.333 53.8092C139.76 54.2359 140.313 54.4492 140.993 54.4492H142.513C143.18 54.4492 143.72 54.2692 144.133 53.9092C144.546 53.5359 144.753 53.0425 144.753 52.4292H146.153C146.153 53.4159 145.82 54.2159 145.153 54.8292C144.486 55.4292 143.606 55.7292 142.513 55.7292H140.993ZM144.753 49.6692V49.1492C144.753 48.4159 144.56 47.8292 144.173 47.3892C143.786 46.9359 143.273 46.7092 142.633 46.7092H140.993C140.313 46.7092 139.76 46.9425 139.333 47.4092C138.92 47.8759 138.713 48.4892 138.713 49.2492V49.6692H144.753ZM148.708 45.5892H150.108V47.0692C150.415 46.5892 150.815 46.1959 151.308 45.8892C151.802 45.5825 152.295 45.4292 152.788 45.4292H154.148C155.068 45.4292 155.808 45.7425 156.368 46.3692C156.942 46.9959 157.228 47.8159 157.228 48.8292V55.5692H155.788V48.7892C155.788 48.1759 155.635 47.6759 155.328 47.2892C155.022 46.9025 154.615 46.7092 154.108 46.7092H152.828C152.202 46.7092 151.628 46.9559 151.108 47.4492C150.602 47.9425 150.282 48.5759 150.148 49.3492V55.5692H148.708V45.5892ZM164.074 55.5692C163.02 55.5692 162.26 55.3425 161.794 54.8892C161.34 54.4359 161.114 53.6892 161.114 52.6492V46.8692H159.354V45.5892H161.114V42.5692H162.554V45.5892H165.154V46.8692H162.554V52.6492C162.554 53.2359 162.667 53.6559 162.894 53.9092C163.134 54.1625 163.527 54.2892 164.074 54.2892H165.154V55.5692H164.074ZM176.306 55.7292C175.186 55.7292 174.286 55.4025 173.606 54.7492C172.926 54.0825 172.586 53.2025 172.586 52.1092V49.2492C172.586 48.1025 172.926 47.1825 173.606 46.4892C174.286 45.7825 175.186 45.4292 176.306 45.4292H177.946C179.012 45.4292 179.872 45.7692 180.526 46.4492C181.179 47.1292 181.506 48.0292 181.506 49.1492V50.9092H174.026V52.1092C174.026 52.8025 174.232 53.3692 174.646 53.8092C175.072 54.2359 175.626 54.4492 176.306 54.4492H177.826C178.492 54.4492 179.032 54.2692 179.446 53.9092C179.859 53.5359 180.066 53.0425 180.066 52.4292H181.466C181.466 53.4159 181.132 54.2159 180.466 54.8292C179.799 55.4292 178.919 55.7292 177.826 55.7292H176.306ZM180.066 49.6692V49.1492C180.066 48.4159 179.872 47.8292 179.486 47.3892C179.099 46.9359 178.586 46.7092 177.946 46.7092H176.306C175.626 46.7092 175.072 46.9425 174.646 47.4092C174.232 47.8759 174.026 48.4892 174.026 49.2492V49.6692H180.066ZM187.121 55.7292C186.441 55.7292 185.834 55.5692 185.301 55.2492C184.767 54.9292 184.354 54.4825 184.061 53.9092C183.767 53.3359 183.621 52.6692 183.621 51.9092V49.5092C183.621 48.7092 183.774 48.0025 184.081 47.3892C184.387 46.7625 184.821 46.2825 185.381 45.9492C185.941 45.6025 186.581 45.4292 187.301 45.4292H188.781C189.234 45.4292 189.667 45.5359 190.081 45.7492C190.507 45.9625 190.847 46.2559 191.101 46.6292V41.5692H192.541V55.5692H191.141V54.0892C190.834 54.5825 190.434 54.9825 189.941 55.2892C189.447 55.5825 188.967 55.7292 188.501 55.7292H187.121ZM188.461 54.4492C188.887 54.4492 189.301 54.3159 189.701 54.0492C190.101 53.7692 190.427 53.4092 190.681 52.9692C190.934 52.5292 191.074 52.0759 191.101 51.6092V49.0892C191.007 48.3825 190.741 47.8092 190.301 47.3692C189.874 46.9292 189.354 46.7092 188.741 46.7092H187.341C186.661 46.7092 186.107 46.9692 185.681 47.4892C185.267 47.9959 185.061 48.6692 185.061 49.5092V51.9092C185.061 52.6559 185.254 53.2692 185.641 53.7492C186.041 54.2159 186.547 54.4492 187.161 54.4492H188.461ZM196.663 44.0892C196.343 44.0892 196.083 43.9892 195.883 43.7892C195.683 43.5892 195.583 43.3292 195.583 43.0092C195.583 42.6892 195.683 42.4292 195.883 42.2292C196.083 42.0292 196.343 41.9292 196.663 41.9292C196.983 41.9292 197.243 42.0292 197.443 42.2292C197.643 42.4292 197.743 42.6892 197.743 43.0092C197.743 43.3292 197.643 43.5892 197.443 43.7892C197.243 43.9892 196.983 44.0892 196.663 44.0892ZM195.943 45.5892H197.383V55.5692H195.943V45.5892ZM204.699 55.5692C203.645 55.5692 202.885 55.3425 202.419 54.8892C201.965 54.4359 201.739 53.6892 201.739 52.6492V46.8692H199.979V45.5892H201.739V42.5692H203.179V45.5892H205.779V46.8692H203.179V52.6492C203.179 53.2359 203.292 53.6559 203.519 53.9092C203.759 54.1625 204.152 54.2892 204.699 54.2892H205.779V55.5692H204.699ZM209.495 44.0892C209.175 44.0892 208.915 43.9892 208.715 43.7892C208.515 43.5892 208.415 43.3292 208.415 43.0092C208.415 42.6892 208.515 42.4292 208.715 42.2292C208.915 42.0292 209.175 41.9292 209.495 41.9292C209.815 41.9292 210.075 42.0292 210.275 42.2292C210.475 42.4292 210.575 42.6892 210.575 43.0092C210.575 43.3292 210.475 43.5892 210.275 43.7892C210.075 43.9892 209.815 44.0892 209.495 44.0892ZM208.775 45.5892H210.215V55.5692H208.775V45.5892ZM213.611 45.5892H215.011V47.0692C215.317 46.5892 215.717 46.1959 216.211 45.8892C216.704 45.5825 217.197 45.4292 217.691 45.4292H219.051C219.971 45.4292 220.711 45.7425 221.271 46.3692C221.844 46.9959 222.131 47.8159 222.131 48.8292V55.5692H220.691V48.7892C220.691 48.1759 220.537 47.6759 220.231 47.2892C219.924 46.9025 219.517 46.7092 219.011 46.7092H217.731C217.104 46.7092 216.531 46.9559 216.011 47.4492C215.504 47.9425 215.184 48.5759 215.051 49.3492V55.5692H213.611V45.5892ZM228.296 59.6292C227.416 59.6292 226.689 59.3892 226.116 58.9092C225.543 58.4425 225.223 57.8225 225.156 57.0492H226.596C226.649 57.4492 226.829 57.7692 227.136 58.0092C227.456 58.2625 227.843 58.3892 228.296 58.3892H229.956C230.649 58.3892 231.183 58.1559 231.556 57.6892C231.943 57.2359 232.136 56.5959 232.136 55.7692V54.2292C231.843 54.6292 231.456 54.9559 230.976 55.2092C230.509 55.4492 230.056 55.5692 229.616 55.5692H228.156C227.476 55.5692 226.869 55.4092 226.336 55.0892C225.803 54.7692 225.389 54.3225 225.096 53.7492C224.803 53.1759 224.656 52.5092 224.656 51.7492V49.4092C224.656 48.2225 224.996 47.2625 225.676 46.5292C226.369 45.7959 227.276 45.4292 228.396 45.4292H229.796C230.223 45.4292 230.663 45.5492 231.116 45.7892C231.569 46.0292 231.923 46.3359 232.176 46.7092V45.5892H233.576V55.7692C233.576 56.9825 233.256 57.9292 232.616 58.6092C231.976 59.2892 231.089 59.6292 229.956 59.6292H228.296ZM229.616 54.2892C230.283 54.2892 230.849 54.0292 231.316 53.5092C231.796 52.9759 232.069 52.3025 232.136 51.4892V49.0292C232.083 48.3492 231.829 47.7959 231.376 47.3692C230.936 46.9292 230.409 46.7092 229.796 46.7092H228.436C227.729 46.7092 227.163 46.9559 226.736 47.4492C226.309 47.9425 226.096 48.5959 226.096 49.4092V51.7492C226.096 52.4959 226.289 53.1092 226.676 53.5892C227.076 54.0559 227.583 54.2892 228.196 54.2892H229.616ZM80.2542 76.7692C79.7209 76.7692 79.2876 76.6092 78.9542 76.2892C78.6342 75.9559 78.4742 75.5225 78.4742 74.9892C78.4742 74.4559 78.6342 74.0292 78.9542 73.7092C79.2876 73.3759 79.7209 73.2092 80.2542 73.2092C80.7876 73.2092 81.2142 73.3759 81.5342 73.7092C81.8676 74.0292 82.0342 74.4559 82.0342 74.9892C82.0342 75.5225 81.8676 75.9559 81.5342 76.2892C81.2142 76.6092 80.7876 76.7692 80.2542 76.7692ZM105.055 80.5692H103.615V71.8292H99.2146V80.5692H97.7746V71.8292H96.0546V70.5492H97.7746V69.8092C97.7746 68.7159 98.0546 67.8892 98.6146 67.3292C99.1746 66.7692 99.9946 66.4892 101.075 66.4892H103.635V67.7292H101.075C100.435 67.7292 99.9613 67.9025 99.6546 68.2492C99.3613 68.5825 99.2146 69.1025 99.2146 69.8092V70.5492H105.055V80.5692ZM108.103 70.5892H109.503V72.0692C109.809 71.5892 110.209 71.1959 110.703 70.8892C111.196 70.5825 111.689 70.4292 112.183 70.4292H113.543C114.463 70.4292 115.203 70.7425 115.763 71.3692C116.336 71.9959 116.623 72.8159 116.623 73.8292V80.5692H115.183V73.7892C115.183 73.1759 115.029 72.6759 114.723 72.2892C114.416 71.9025 114.009 71.7092 113.503 71.7092H112.223C111.596 71.7092 111.023 71.9559 110.503 72.4492C109.996 72.9425 109.676 73.5759 109.543 74.3492V80.5692H108.103V70.5892ZM122.428 80.7292C121.455 80.7292 120.675 80.4759 120.088 79.9692C119.515 79.4625 119.228 78.7825 119.228 77.9292V77.2892C119.228 76.4492 119.528 75.7759 120.128 75.2692C120.728 74.7625 121.521 74.5092 122.508 74.5092H123.788C124.228 74.5092 124.681 74.5759 125.148 74.7092C125.615 74.8425 126.015 75.0225 126.348 75.2492V73.5892C126.348 73.0292 126.175 72.5759 125.828 72.2292C125.481 71.8692 125.021 71.6892 124.448 71.6892H122.848C122.275 71.6892 121.815 71.8225 121.468 72.0892C121.121 72.3559 120.948 72.7092 120.948 73.1492H119.508C119.508 72.3359 119.815 71.6825 120.428 71.1892C121.041 70.6825 121.848 70.4292 122.848 70.4292H124.448C125.435 70.4292 126.228 70.7225 126.828 71.3092C127.441 71.8825 127.748 72.6425 127.748 73.5892V80.5692H126.388V79.1692C126.081 79.6492 125.675 80.0292 125.168 80.3092C124.675 80.5892 124.161 80.7292 123.628 80.7292H122.428ZM123.668 79.4692C124.295 79.4692 124.855 79.2759 125.348 78.8892C125.841 78.5025 126.175 77.9892 126.348 77.3492V76.6092C126.081 76.3559 125.708 76.1559 125.228 76.0092C124.761 75.8492 124.281 75.7692 123.788 75.7692H122.508C121.961 75.7692 121.515 75.9092 121.168 76.1892C120.835 76.4692 120.668 76.8359 120.668 77.2892V77.9292C120.668 78.3959 120.828 78.7692 121.148 79.0492C121.468 79.3292 121.895 79.4692 122.428 79.4692H123.668ZM133.421 80.5692C132.435 80.5692 131.728 80.3625 131.301 79.9492C130.875 79.5225 130.661 78.8225 130.661 77.8492V66.5692H132.101V77.8492C132.101 78.3559 132.201 78.7225 132.401 78.9492C132.615 79.1759 132.955 79.2892 133.421 79.2892H134.101V80.5692H133.421ZM144.088 80.7292C143.115 80.7292 142.335 80.4759 141.748 79.9692C141.175 79.4625 140.888 78.7825 140.888 77.9292V77.2892C140.888 76.4492 141.188 75.7759 141.788 75.2692C142.388 74.7625 143.182 74.5092 144.168 74.5092H145.448C145.888 74.5092 146.342 74.5759 146.808 74.7092C147.275 74.8425 147.675 75.0225 148.008 75.2492V73.5892C148.008 73.0292 147.835 72.5759 147.488 72.2292C147.142 71.8692 146.682 71.6892 146.108 71.6892H144.508C143.935 71.6892 143.475 71.8225 143.128 72.0892C142.782 72.3559 142.608 72.7092 142.608 73.1492H141.168C141.168 72.3359 141.475 71.6825 142.088 71.1892C142.702 70.6825 143.508 70.4292 144.508 70.4292H146.108C147.095 70.4292 147.888 70.7225 148.488 71.3092C149.102 71.8825 149.408 72.6425 149.408 73.5892V80.5692H148.048V79.1692C147.742 79.6492 147.335 80.0292 146.828 80.3092C146.335 80.5892 145.822 80.7292 145.288 80.7292H144.088ZM145.328 79.4692C145.955 79.4692 146.515 79.2759 147.008 78.8892C147.502 78.5025 147.835 77.9892 148.008 77.3492V76.6092C147.742 76.3559 147.368 76.1559 146.888 76.0092C146.422 75.8492 145.942 75.7692 145.448 75.7692H144.168C143.622 75.7692 143.175 75.9092 142.828 76.1892C142.495 76.4692 142.328 76.8359 142.328 77.2892V77.9292C142.328 78.3959 142.488 78.7692 142.808 79.0492C143.128 79.3292 143.555 79.4692 144.088 79.4692H145.328ZM152.322 70.5892H153.722V71.9492C154.002 71.4959 154.368 71.1292 154.822 70.8492C155.288 70.5692 155.755 70.4292 156.222 70.4292H157.662C158.728 70.4292 159.588 70.7692 160.242 71.4492C160.908 72.1292 161.242 73.0292 161.242 74.1492V76.6092C161.242 77.8492 160.902 78.8492 160.222 79.6092C159.555 80.3559 158.668 80.7292 157.562 80.7292H156.122C155.708 80.7292 155.275 80.6159 154.822 80.3892C154.368 80.1492 154.015 79.8425 153.762 79.4692V84.5492H152.322V70.5892ZM157.522 79.4492C158.215 79.4492 158.768 79.1892 159.182 78.6692C159.595 78.1492 159.802 77.4625 159.802 76.6092V74.1492C159.802 73.4159 159.602 72.8292 159.202 72.3892C158.802 71.9359 158.275 71.7092 157.622 71.7092H156.222C155.662 71.7092 155.155 71.9292 154.702 72.3692C154.248 72.7959 153.935 73.3492 153.762 74.0292V77.0292C153.855 77.7359 154.128 78.3159 154.582 78.7692C155.035 79.2225 155.575 79.4492 156.202 79.4492H157.522ZM163.884 70.5892H165.284V71.9492C165.564 71.4959 165.931 71.1292 166.384 70.8492C166.851 70.5692 167.317 70.4292 167.784 70.4292H169.224C170.291 70.4292 171.151 70.7692 171.804 71.4492C172.471 72.1292 172.804 73.0292 172.804 74.1492V76.6092C172.804 77.8492 172.464 78.8492 171.784 79.6092C171.117 80.3559 170.231 80.7292 169.124 80.7292H167.684C167.271 80.7292 166.837 80.6159 166.384 80.3892C165.931 80.1492 165.577 79.8425 165.324 79.4692V84.5492H163.884V70.5892ZM169.084 79.4492C169.777 79.4492 170.331 79.1892 170.744 78.6692C171.157 78.1492 171.364 77.4625 171.364 76.6092V74.1492C171.364 73.4159 171.164 72.8292 170.764 72.3892C170.364 71.9359 169.837 71.7092 169.184 71.7092H167.784C167.224 71.7092 166.717 71.9292 166.264 72.3692C165.811 72.7959 165.497 73.3492 165.324 74.0292V77.0292C165.417 77.7359 165.691 78.3159 166.144 78.7692C166.597 79.2225 167.137 79.4492 167.764 79.4492H169.084ZM175.447 70.5892H176.847V72.1292C177.113 71.6625 177.513 71.2825 178.047 70.9892C178.593 70.6959 179.16 70.5492 179.747 70.5492H180.627V71.8492H179.747C178.893 71.8492 178.2 72.1225 177.667 72.6692C177.147 73.2025 176.887 73.9159 176.887 74.8092V80.5692H175.447V70.5892ZM185.563 80.7292C184.443 80.7292 183.543 80.3825 182.863 79.6892C182.183 78.9959 181.843 78.0825 181.843 76.9492V74.2092C181.843 73.0759 182.183 72.1625 182.863 71.4692C183.557 70.7759 184.47 70.4292 185.603 70.4292H187.243C188.377 70.4292 189.283 70.7759 189.963 71.4692C190.657 72.1625 191.003 73.0759 191.003 74.2092V76.9492C191.003 78.0825 190.657 78.9959 189.963 79.6892C189.27 80.3825 188.35 80.7292 187.203 80.7292H185.563ZM187.203 79.4492C187.923 79.4492 188.497 79.2225 188.923 78.7692C189.35 78.3025 189.563 77.6959 189.563 76.9492V74.2092C189.563 73.4625 189.35 72.8625 188.923 72.4092C188.497 71.9425 187.937 71.7092 187.243 71.7092H185.603C184.91 71.7092 184.35 71.9425 183.923 72.4092C183.497 72.8625 183.283 73.4625 183.283 74.2092V76.9492C183.283 77.7092 183.49 78.3159 183.903 78.7692C184.317 79.2225 184.87 79.4492 185.563 79.4492H187.203ZM196.875 80.5692C196.315 80.5692 195.909 80.2292 195.655 79.5492L192.215 70.5892H193.735L196.815 78.9892H196.835L199.915 70.5892H201.435L197.555 80.5692H196.875ZM205.807 80.7292C204.834 80.7292 204.054 80.4759 203.467 79.9692C202.894 79.4625 202.607 78.7825 202.607 77.9292V77.2892C202.607 76.4492 202.907 75.7759 203.507 75.2692C204.107 74.7625 204.9 74.5092 205.887 74.5092H207.167C207.607 74.5092 208.06 74.5759 208.527 74.7092C208.994 74.8425 209.394 75.0225 209.727 75.2492V73.5892C209.727 73.0292 209.554 72.5759 209.207 72.2292C208.86 71.8692 208.4 71.6892 207.827 71.6892H206.227C205.654 71.6892 205.194 71.8225 204.847 72.0892C204.5 72.3559 204.327 72.7092 204.327 73.1492H202.887C202.887 72.3359 203.194 71.6825 203.807 71.1892C204.42 70.6825 205.227 70.4292 206.227 70.4292H207.827C208.814 70.4292 209.607 70.7225 210.207 71.3092C210.82 71.8825 211.127 72.6425 211.127 73.5892V80.5692H209.767V79.1692C209.46 79.6492 209.054 80.0292 208.547 80.3092C208.054 80.5892 207.54 80.7292 207.007 80.7292H205.807ZM207.047 79.4692C207.674 79.4692 208.234 79.2759 208.727 78.8892C209.22 78.5025 209.554 77.9892 209.727 77.3492V76.6092C209.46 76.3559 209.087 76.1559 208.607 76.0092C208.14 75.8492 207.66 75.7692 207.167 75.7692H205.887C205.34 75.7692 204.894 75.9092 204.547 76.1892C204.214 76.4692 204.047 76.8359 204.047 77.2892V77.9292C204.047 78.3959 204.207 78.7692 204.527 79.0492C204.847 79.3292 205.274 79.4692 205.807 79.4692H207.047ZM216.8 80.5692C215.814 80.5692 215.107 80.3625 214.68 79.9492C214.254 79.5225 214.04 78.8225 214.04 77.8492V66.5692H215.48V77.8492C215.48 78.3559 215.58 78.7225 215.78 78.9492C215.994 79.1759 216.334 79.2892 216.8 79.2892H217.48V80.5692H216.8Z" fill="#030303"/>
</svg>
