<svg width="341" height="86" viewBox="0 0 341 86" fill="none" xmlns="http://www.w3.org/2000/svg">
<rect width="20.1504" height="20.1503" transform="matrix(-0.98995 -0.141414 -0.141414 0.98995 25.6046 3.41876)" fill="#030303"/>
<ellipse cx="20" cy="20" rx="20" ry="20" transform="matrix(-0.98995 -0.141414 -0.141414 0.98995 45.2546 6.22586)" fill="#030303"/>
<path d="M24.5872 30.1692H18.7472L18.8672 29.5892C19.2272 29.4292 19.5872 29.2959 19.9472 29.1892C20.3206 29.0826 20.6939 28.9892 21.0672 28.9092L23.1472 19.0892L23.5272 17.9092C23.1406 18.0559 22.7272 18.1626 22.2872 18.2292C21.8472 18.2826 21.4139 18.3026 20.9872 18.2892V17.8092C21.6406 17.6092 22.3272 17.3626 23.0472 17.0692C23.7672 16.7759 24.4539 16.3959 25.1072 15.9292H25.6072L22.8672 28.9092C23.5206 29.0559 24.1339 29.2826 24.7072 29.5892L24.5872 30.1692Z" fill="#F5F5F5"/>
<path d="M72.3586 24.7612C71.1746 24.7612 70.1346 24.5052 69.2386 23.9932C68.3426 23.4652 67.6466 22.7292 67.1506 21.7852C66.6546 20.8252 66.4066 19.7212 66.4066 18.4732V13.8652C66.4066 12.6172 66.6546 11.5212 67.1506 10.5772C67.6626 9.61721 68.3746 8.88121 69.2866 8.36921C70.1986 7.84121 71.2546 7.57721 72.4546 7.57721H74.9986C76.1346 7.57721 77.1426 7.82521 78.0226 8.32121C78.9026 8.80121 79.5826 9.48921 80.0626 10.3852C80.5426 11.2652 80.7826 12.2892 80.7826 13.4572H78.0226C78.0226 12.4332 77.7426 11.6092 77.1826 10.9852C76.6226 10.3612 75.8946 10.0492 74.9986 10.0492H72.4546C71.4786 10.0492 70.6946 10.4092 70.1026 11.1292C69.5106 11.8492 69.2146 12.7932 69.2146 13.9612V18.3772C69.2146 19.5612 69.5026 20.5132 70.0786 21.2332C70.6546 21.9372 71.4146 22.2892 72.3586 22.2892H74.9506C75.8786 22.2892 76.6306 21.9372 77.2066 21.2332C77.7826 20.5292 78.0706 19.6172 78.0706 18.4972H80.8306C80.8306 19.7452 80.5826 20.8412 80.0866 21.7852C79.6066 22.7292 78.9186 23.4652 78.0226 23.9932C77.1426 24.5052 76.1186 24.7612 74.9506 24.7612H72.3586ZM88.8397 24.7612C87.6237 24.7612 86.5517 24.5052 85.6237 23.9932C84.6957 23.4652 83.9757 22.7292 83.4637 21.7852C82.9517 20.8252 82.6957 19.7212 82.6957 18.4732V13.8652C82.6957 12.6172 82.9517 11.5212 83.4637 10.5772C83.9757 9.61721 84.6957 8.88121 85.6237 8.36921C86.5517 7.84121 87.6237 7.57721 88.8397 7.57721H91.3837C92.5997 7.57721 93.6717 7.84121 94.5997 8.36921C95.5437 8.88121 96.2717 9.61721 96.7837 10.5772C97.2957 11.5212 97.5517 12.6172 97.5517 13.8652V18.4732C97.5517 19.7212 97.2957 20.8252 96.7837 21.7852C96.2717 22.7292 95.5437 23.4652 94.5997 23.9932C93.6717 24.5052 92.5997 24.7612 91.3837 24.7612H88.8397ZM91.3837 22.2892C92.3757 22.2892 93.1837 21.9292 93.8077 21.2092C94.4317 20.4892 94.7437 19.5452 94.7437 18.3772V13.9612C94.7437 12.7932 94.4317 11.8492 93.8077 11.1292C93.1997 10.4092 92.3917 10.0492 91.3837 10.0492H88.8637C87.8557 10.0492 87.0397 10.4092 86.4157 11.1292C85.8077 11.8492 85.5037 12.7932 85.5037 13.9612V18.3772C85.5037 19.5452 85.8077 20.4892 86.4157 21.2092C87.0397 21.9292 87.8557 22.2892 88.8637 22.2892H91.3837ZM100.332 7.76921H102.852L111.348 20.0572V7.76921H114.084V24.5692H111.54L103.068 12.3292V24.5692H100.332V7.76921ZM122.148 24.7612C120.484 24.7612 119.172 24.2812 118.212 23.3212C117.252 22.3612 116.772 21.0492 116.772 19.3852H119.532C119.532 20.2812 119.764 20.9932 120.228 21.5212C120.708 22.0332 121.364 22.2892 122.196 22.2892H124.86C125.644 22.2892 126.276 22.1212 126.756 21.7852C127.236 21.4332 127.476 20.9772 127.476 20.4172V19.3612C127.476 18.9292 127.308 18.5692 126.972 18.2812C126.636 17.9932 126.156 17.7932 125.532 17.6812L121.164 16.9372C119.804 16.7132 118.756 16.2652 118.02 15.5932C117.3 14.9212 116.94 14.0652 116.94 13.0252V11.7052C116.94 10.8892 117.156 10.1692 117.588 9.54521C118.036 8.92121 118.66 8.44121 119.46 8.10521C120.26 7.75321 121.188 7.57721 122.244 7.57721H124.956C125.948 7.57721 126.82 7.78521 127.572 8.20121C128.34 8.60121 128.932 9.17721 129.348 9.92921C129.764 10.6812 129.972 11.5452 129.972 12.5212H127.236C127.236 11.7852 127.02 11.1932 126.588 10.7452C126.172 10.2812 125.628 10.0492 124.956 10.0492H122.244C121.492 10.0492 120.884 10.2172 120.42 10.5532C119.972 10.8732 119.748 11.3132 119.748 11.8732V12.7372C119.748 13.1852 119.908 13.5612 120.228 13.8652C120.548 14.1532 121.012 14.3452 121.62 14.4412L125.988 15.2092C127.364 15.4492 128.42 15.8972 129.156 16.5532C129.908 17.1932 130.284 18.0172 130.284 19.0252V20.5852C130.284 21.4012 130.06 22.1292 129.612 22.7692C129.164 23.3932 128.532 23.8812 127.716 24.2332C126.9 24.5852 125.964 24.7612 124.908 24.7612H122.148ZM138.455 24.7612C137.335 24.7612 136.343 24.5212 135.479 24.0412C134.615 23.5452 133.943 22.8572 133.463 21.9772C132.999 21.0812 132.767 20.0492 132.767 18.8812V7.76921H135.575V18.8332C135.575 19.8732 135.839 20.7132 136.367 21.3532C136.895 21.9772 137.591 22.2892 138.455 22.2892H141.023C141.903 22.2892 142.607 21.9772 143.135 21.3532C143.679 20.7132 143.951 19.8732 143.951 18.8332V7.76921H146.759V18.8812C146.759 20.0492 146.519 21.0812 146.039 21.9772C145.559 22.8572 144.887 23.5452 144.023 24.0412C143.159 24.5212 142.159 24.7612 141.023 24.7612H138.455ZM151.99 24.5692C151.35 24.5692 150.846 24.3852 150.478 24.0172C150.11 23.6492 149.926 23.1612 149.926 22.5532V7.76921H152.734V22.1212H161.854V24.5692H151.99ZM165.655 10.1932H160.327V7.76921H173.791V10.1932H168.463V24.5692H165.655V10.1932ZM183.201 20.4172H176.529L174.969 24.5692H172.065L178.593 7.76921H179.865C180.729 7.76921 181.329 8.19321 181.665 9.04121L187.665 24.5692H184.737L183.201 20.4172ZM177.321 18.0652H182.409L179.889 11.2492H179.865L177.321 18.0652ZM191.272 10.1932H185.944V7.76921H199.408V10.1932H194.08V24.5692H191.272V10.1932ZM201.705 7.76921H204.513V24.5692H201.705V7.76921ZM213.691 24.7612C212.475 24.7612 211.403 24.5052 210.475 23.9932C209.547 23.4652 208.827 22.7292 208.315 21.7852C207.803 20.8252 207.547 19.7212 207.547 18.4732V13.8652C207.547 12.6172 207.803 11.5212 208.315 10.5772C208.827 9.61721 209.547 8.88121 210.475 8.36921C211.403 7.84121 212.475 7.57721 213.691 7.57721H216.235C217.451 7.57721 218.523 7.84121 219.451 8.36921C220.395 8.88121 221.123 9.61721 221.635 10.5772C222.147 11.5212 222.403 12.6172 222.403 13.8652V18.4732C222.403 19.7212 222.147 20.8252 221.635 21.7852C221.123 22.7292 220.395 23.4652 219.451 23.9932C218.523 24.5052 217.451 24.7612 216.235 24.7612H213.691ZM216.235 22.2892C217.227 22.2892 218.035 21.9292 218.659 21.2092C219.283 20.4892 219.595 19.5452 219.595 18.3772V13.9612C219.595 12.7932 219.283 11.8492 218.659 11.1292C218.051 10.4092 217.243 10.0492 216.235 10.0492H213.715C212.707 10.0492 211.891 10.4092 211.267 11.1292C210.659 11.8492 210.355 12.7932 210.355 13.9612V18.3772C210.355 19.5452 210.659 20.4892 211.267 21.2092C211.891 21.9292 212.707 22.2892 213.715 22.2892H216.235ZM225.184 7.76921H227.704L236.2 20.0572V7.76921H238.936V24.5692H236.392L227.92 12.3292V24.5692H225.184V7.76921Z" fill="#030303"/>
<path d="M80.2542 51.7692C79.7209 51.7692 79.2876 51.6092 78.9542 51.2892C78.6342 50.9559 78.4742 50.5225 78.4742 49.9892C78.4742 49.4559 78.6342 49.0292 78.9542 48.7092C79.2876 48.3759 79.7209 48.2092 80.2542 48.2092C80.7876 48.2092 81.2142 48.3759 81.5342 48.7092C81.8676 49.0292 82.0342 49.4559 82.0342 49.9892C82.0342 50.5225 81.8676 50.9559 81.5342 51.2892C81.2142 51.6092 80.7876 51.7692 80.2542 51.7692ZM97.8546 44.0892C97.5346 44.0892 97.2746 43.9892 97.0746 43.7892C96.8746 43.5892 96.7746 43.3292 96.7746 43.0092C96.7746 42.6892 96.8746 42.4292 97.0746 42.2292C97.2746 42.0292 97.5346 41.9292 97.8546 41.9292C98.1746 41.9292 98.4346 42.0292 98.6346 42.2292C98.8346 42.4292 98.9346 42.6892 98.9346 43.0092C98.9346 43.3292 98.8346 43.5892 98.6346 43.7892C98.4346 43.9892 98.1746 44.0892 97.8546 44.0892ZM97.1346 45.5892H98.5746V55.5692H97.1346V45.5892ZM101.97 45.5892H103.37V47.0692C103.677 46.5892 104.077 46.1959 104.57 45.8892C105.063 45.5825 105.557 45.4292 106.05 45.4292H107.41C108.33 45.4292 109.07 45.7425 109.63 46.3692C110.203 46.9959 110.49 47.8159 110.49 48.8292V55.5692H109.05V48.7892C109.05 48.1759 108.897 47.6759 108.59 47.2892C108.283 46.9025 107.877 46.7092 107.37 46.7092H106.09C105.463 46.7092 104.89 46.9559 104.37 47.4492C103.863 47.9425 103.543 48.5759 103.41 49.3492V55.5692H101.97V45.5892ZM117.335 55.5692C116.282 55.5692 115.522 55.3425 115.055 54.8892C114.602 54.4359 114.375 53.6892 114.375 52.6492V46.8692H112.615V45.5892H114.375V42.5692H115.815V45.5892H118.415V46.8692H115.815V52.6492C115.815 53.2359 115.929 53.6559 116.155 53.9092C116.395 54.1625 116.789 54.2892 117.335 54.2892H118.415V55.5692H117.335ZM121.052 45.5892H122.452V47.1292C122.719 46.6625 123.119 46.2825 123.652 45.9892C124.199 45.6959 124.765 45.5492 125.352 45.5492H126.232V46.8492H125.352C124.499 46.8492 123.805 47.1225 123.272 47.6692C122.752 48.2025 122.492 48.9159 122.492 49.8092V55.5692H121.052V45.5892ZM131.169 55.7292C130.049 55.7292 129.149 55.3825 128.469 54.6892C127.789 53.9959 127.449 53.0825 127.449 51.9492V49.2092C127.449 48.0759 127.789 47.1625 128.469 46.4692C129.162 45.7759 130.076 45.4292 131.209 45.4292H132.849C133.982 45.4292 134.889 45.7759 135.569 46.4692C136.262 47.1625 136.609 48.0759 136.609 49.2092V51.9492C136.609 53.0825 136.262 53.9959 135.569 54.6892C134.876 55.3825 133.956 55.7292 132.809 55.7292H131.169ZM132.809 54.4492C133.529 54.4492 134.102 54.2225 134.529 53.7692C134.956 53.3025 135.169 52.6959 135.169 51.9492V49.2092C135.169 48.4625 134.956 47.8625 134.529 47.4092C134.102 46.9425 133.542 46.7092 132.849 46.7092H131.209C130.516 46.7092 129.956 46.9425 129.529 47.4092C129.102 47.8625 128.889 48.4625 128.889 49.2092V51.9492C128.889 52.7092 129.096 53.3159 129.509 53.7692C129.922 54.2225 130.476 54.4492 131.169 54.4492H132.809ZM142.355 55.7292C141.675 55.7292 141.068 55.5692 140.535 55.2492C140.002 54.9292 139.588 54.4825 139.295 53.9092C139.002 53.3359 138.855 52.6692 138.855 51.9092V49.5092C138.855 48.7092 139.008 48.0025 139.315 47.3892C139.622 46.7625 140.055 46.2825 140.615 45.9492C141.175 45.6025 141.815 45.4292 142.535 45.4292H144.015C144.468 45.4292 144.902 45.5359 145.315 45.7492C145.742 45.9625 146.082 46.2559 146.335 46.6292V41.5692H147.775V55.5692H146.375V54.0892C146.068 54.5825 145.668 54.9825 145.175 55.2892C144.682 55.5825 144.202 55.7292 143.735 55.7292H142.355ZM143.695 54.4492C144.122 54.4492 144.535 54.3159 144.935 54.0492C145.335 53.7692 145.662 53.4092 145.915 52.9692C146.168 52.5292 146.308 52.0759 146.335 51.6092V49.0892C146.242 48.3825 145.975 47.8092 145.535 47.3692C145.108 46.9292 144.588 46.7092 143.975 46.7092H142.575C141.895 46.7092 141.342 46.9692 140.915 47.4892C140.502 47.9959 140.295 48.6692 140.295 49.5092V51.9092C140.295 52.6559 140.488 53.2692 140.875 53.7492C141.275 54.2159 141.782 54.4492 142.395 54.4492H143.695ZM153.798 55.7292C152.878 55.7292 152.131 55.4159 151.558 54.7892C150.984 54.1625 150.698 53.3425 150.698 52.3292V45.5892H152.138V52.3692C152.138 52.9959 152.291 53.5025 152.598 53.8892C152.904 54.2625 153.304 54.4492 153.798 54.4492H155.038C155.651 54.4492 156.218 54.2025 156.738 53.7092C157.258 53.2159 157.591 52.5959 157.738 51.8492V45.5892H159.178V55.5692H157.778V54.0492C157.471 54.5292 157.064 54.9292 156.558 55.2492C156.051 55.5692 155.558 55.7292 155.078 55.7292H153.798ZM165.464 55.7292C164.371 55.7292 163.491 55.4025 162.824 54.7492C162.157 54.0825 161.824 53.2025 161.824 52.1092V49.2492C161.824 48.1025 162.157 47.1825 162.824 46.4892C163.491 45.7825 164.364 45.4292 165.444 45.4292H167.084C168.111 45.4292 168.937 45.7159 169.564 46.2892C170.191 46.8625 170.504 47.6159 170.504 48.5492H169.104C169.104 48.0025 168.917 47.5625 168.544 47.2292C168.184 46.8825 167.697 46.7092 167.084 46.7092H165.444C164.791 46.7092 164.264 46.9425 163.864 47.4092C163.464 47.8759 163.264 48.4892 163.264 49.2492V52.1092C163.264 52.8159 163.464 53.3825 163.864 53.8092C164.277 54.2359 164.811 54.4492 165.464 54.4492H167.104C167.731 54.4492 168.231 54.2292 168.604 53.7892C168.991 53.3492 169.184 52.7625 169.184 52.0292H170.584C170.584 53.1359 170.264 54.0292 169.624 54.7092C168.984 55.3892 168.144 55.7292 167.104 55.7292H165.464ZM176.788 55.5692C175.735 55.5692 174.975 55.3425 174.508 54.8892C174.055 54.4359 173.828 53.6892 173.828 52.6492V46.8692H172.068V45.5892H173.828V42.5692H175.268V45.5892H177.868V46.8692H175.268V52.6492C175.268 53.2359 175.382 53.6559 175.608 53.9092C175.848 54.1625 176.242 54.2892 176.788 54.2892H177.868V55.5692H176.788ZM181.585 44.0892C181.265 44.0892 181.005 43.9892 180.805 43.7892C180.605 43.5892 180.505 43.3292 180.505 43.0092C180.505 42.6892 180.605 42.4292 180.805 42.2292C181.005 42.0292 181.265 41.9292 181.585 41.9292C181.905 41.9292 182.165 42.0292 182.365 42.2292C182.565 42.4292 182.665 42.6892 182.665 43.0092C182.665 43.3292 182.565 43.5892 182.365 43.7892C182.165 43.9892 181.905 44.0892 181.585 44.0892ZM180.865 45.5892H182.305V55.5692H180.865V45.5892ZM189.02 55.7292C187.9 55.7292 187 55.3825 186.32 54.6892C185.64 53.9959 185.3 53.0825 185.3 51.9492V49.2092C185.3 48.0759 185.64 47.1625 186.32 46.4692C187.014 45.7759 187.927 45.4292 189.06 45.4292H190.7C191.834 45.4292 192.74 45.7759 193.42 46.4692C194.114 47.1625 194.46 48.0759 194.46 49.2092V51.9492C194.46 53.0825 194.114 53.9959 193.42 54.6892C192.727 55.3825 191.807 55.7292 190.66 55.7292H189.02ZM190.66 54.4492C191.38 54.4492 191.954 54.2225 192.38 53.7692C192.807 53.3025 193.02 52.6959 193.02 51.9492V49.2092C193.02 48.4625 192.807 47.8625 192.38 47.4092C191.954 46.9425 191.394 46.7092 190.7 46.7092H189.06C188.367 46.7092 187.807 46.9425 187.38 47.4092C186.954 47.8625 186.74 48.4625 186.74 49.2092V51.9492C186.74 52.7092 186.947 53.3159 187.36 53.7692C187.774 54.2225 188.327 54.4492 189.02 54.4492H190.66ZM197.107 45.5892H198.507V47.0692C198.813 46.5892 199.213 46.1959 199.707 45.8892C200.2 45.5825 200.693 45.4292 201.187 45.4292H202.547C203.467 45.4292 204.207 45.7425 204.767 46.3692C205.34 46.9959 205.627 47.8159 205.627 48.8292V55.5692H204.187V48.7892C204.187 48.1759 204.033 47.6759 203.727 47.2892C203.42 46.9025 203.013 46.7092 202.507 46.7092H201.227C200.6 46.7092 200.027 46.9559 199.507 47.4492C199 47.9425 198.68 48.5759 198.547 49.3492V55.5692H197.107V45.5892ZM223.007 55.5692L221.827 54.1292C221.347 54.6492 220.794 55.0492 220.167 55.3292C219.554 55.5959 218.887 55.7292 218.167 55.7292H217.127C215.994 55.7292 215.081 55.4292 214.387 54.8292C213.694 54.2292 213.347 53.4425 213.347 52.4692V51.6492C213.347 51.0092 213.481 50.4559 213.747 49.9892C214.027 49.5225 214.387 49.1225 214.827 48.7892C215.281 48.4559 215.867 48.0892 216.587 47.6892L216.087 47.0292C215.434 46.1625 215.107 45.3759 215.107 44.6692V44.2692C215.107 43.3892 215.394 42.6959 215.967 42.1892C216.541 41.6692 217.307 41.4092 218.267 41.4092H219.067C219.934 41.4092 220.627 41.6625 221.147 42.1692C221.681 42.6759 221.947 43.3425 221.947 44.1692V44.5692C221.947 45.0359 221.854 45.4425 221.667 45.7892C221.494 46.1225 221.201 46.4492 220.787 46.7692C220.374 47.0892 219.774 47.4625 218.987 47.8892L218.587 48.1092L221.687 51.8892C222.034 51.1292 222.247 50.2825 222.327 49.3492H223.647C223.567 50.7625 223.227 51.9892 222.627 53.0292L224.727 55.5692H223.007ZM216.467 44.6492C216.467 45.1692 216.687 45.7225 217.127 46.3092L217.787 47.1892L218.207 46.9492C218.861 46.5759 219.354 46.2692 219.687 46.0292C220.021 45.7759 220.254 45.5425 220.387 45.3292C220.521 45.1025 220.587 44.8492 220.587 44.5692V44.1692C220.587 43.7159 220.441 43.3492 220.147 43.0692C219.867 42.7892 219.507 42.6492 219.067 42.6492H218.267C217.707 42.6492 217.267 42.7892 216.947 43.0692C216.627 43.3492 216.467 43.7492 216.467 44.2692V44.6492ZM218.167 54.4492C218.714 54.4492 219.227 54.3292 219.707 54.0892C220.187 53.8492 220.607 53.5092 220.967 53.0692L217.407 48.7092C216.807 49.0292 216.327 49.3159 215.967 49.5692C215.607 49.8225 215.321 50.1159 215.107 50.4492C214.894 50.7825 214.787 51.1825 214.787 51.6492V52.4692C214.787 53.0559 215.001 53.5359 215.427 53.9092C215.867 54.2692 216.434 54.4492 217.127 54.4492H218.167ZM235.132 59.6292C234.252 59.6292 233.525 59.3892 232.952 58.9092C232.378 58.4425 232.058 57.8225 231.992 57.0492H233.432C233.485 57.4492 233.665 57.7692 233.972 58.0092C234.292 58.2625 234.678 58.3892 235.132 58.3892H236.792C237.485 58.3892 238.018 58.1559 238.392 57.6892C238.778 57.2359 238.972 56.5959 238.972 55.7692V54.2292C238.678 54.6292 238.292 54.9559 237.812 55.2092C237.345 55.4492 236.892 55.5692 236.452 55.5692H234.992C234.312 55.5692 233.705 55.4092 233.172 55.0892C232.638 54.7692 232.225 54.3225 231.932 53.7492C231.638 53.1759 231.492 52.5092 231.492 51.7492V49.4092C231.492 48.2225 231.832 47.2625 232.512 46.5292C233.205 45.7959 234.112 45.4292 235.232 45.4292H236.632C237.058 45.4292 237.498 45.5492 237.952 45.7892C238.405 46.0292 238.758 46.3359 239.012 46.7092V45.5892H240.412V55.7692C240.412 56.9825 240.092 57.9292 239.452 58.6092C238.812 59.2892 237.925 59.6292 236.792 59.6292H235.132ZM236.452 54.2892C237.118 54.2892 237.685 54.0292 238.152 53.5092C238.632 52.9759 238.905 52.3025 238.972 51.4892V49.0292C238.918 48.3492 238.665 47.7959 238.212 47.3692C237.772 46.9292 237.245 46.7092 236.632 46.7092H235.272C234.565 46.7092 233.998 46.9559 233.572 47.4492C233.145 47.9425 232.932 48.5959 232.932 49.4092V51.7492C232.932 52.4959 233.125 53.1092 233.512 53.5892C233.912 54.0559 234.418 54.2892 235.032 54.2892H236.452ZM246.774 55.7292C245.654 55.7292 244.754 55.3825 244.074 54.6892C243.394 53.9959 243.054 53.0825 243.054 51.9492V49.2092C243.054 48.0759 243.394 47.1625 244.074 46.4692C244.768 45.7759 245.681 45.4292 246.814 45.4292H248.454C249.588 45.4292 250.494 45.7759 251.174 46.4692C251.868 47.1625 252.214 48.0759 252.214 49.2092V51.9492C252.214 53.0825 251.868 53.9959 251.174 54.6892C250.481 55.3825 249.561 55.7292 248.414 55.7292H246.774ZM248.414 54.4492C249.134 54.4492 249.708 54.2225 250.134 53.7692C250.561 53.3025 250.774 52.6959 250.774 51.9492V49.2092C250.774 48.4625 250.561 47.8625 250.134 47.4092C249.708 46.9425 249.148 46.7092 248.454 46.7092H246.814C246.121 46.7092 245.561 46.9425 245.134 47.4092C244.708 47.8625 244.494 48.4625 244.494 49.2092V51.9492C244.494 52.7092 244.701 53.3159 245.114 53.7692C245.528 54.2225 246.081 54.4492 246.774 54.4492H248.414ZM257.741 55.7292C256.767 55.7292 255.987 55.4759 255.401 54.9692C254.827 54.4625 254.541 53.7825 254.541 52.9292V52.2892C254.541 51.4492 254.841 50.7759 255.441 50.2692C256.041 49.7625 256.834 49.5092 257.821 49.5092H259.101C259.541 49.5092 259.994 49.5759 260.461 49.7092C260.927 49.8425 261.327 50.0225 261.661 50.2492V48.5892C261.661 48.0292 261.487 47.5759 261.141 47.2292C260.794 46.8692 260.334 46.6892 259.761 46.6892H258.161C257.587 46.6892 257.127 46.8225 256.781 47.0892C256.434 47.3559 256.261 47.7092 256.261 48.1492H254.821C254.821 47.3359 255.127 46.6825 255.741 46.1892C256.354 45.6825 257.161 45.4292 258.161 45.4292H259.761C260.747 45.4292 261.541 45.7225 262.141 46.3092C262.754 46.8825 263.061 47.6425 263.061 48.5892V55.5692H261.701V54.1692C261.394 54.6492 260.987 55.0292 260.481 55.3092C259.987 55.5892 259.474 55.7292 258.941 55.7292H257.741ZM258.981 54.4692C259.607 54.4692 260.167 54.2759 260.661 53.8892C261.154 53.5025 261.487 52.9892 261.661 52.3492V51.6092C261.394 51.3559 261.021 51.1559 260.541 51.0092C260.074 50.8492 259.594 50.7692 259.101 50.7692H257.821C257.274 50.7692 256.827 50.9092 256.481 51.1892C256.147 51.4692 255.981 51.8359 255.981 52.2892V52.9292C255.981 53.3959 256.141 53.7692 256.461 54.0492C256.781 54.3292 257.207 54.4692 257.741 54.4692H258.981ZM268.734 55.5692C267.747 55.5692 267.041 55.3625 266.614 54.9492C266.187 54.5225 265.974 53.8225 265.974 52.8492V41.5692H267.414V52.8492C267.414 53.3559 267.514 53.7225 267.714 53.9492C267.927 54.1759 268.267 54.2892 268.734 54.2892H269.414V55.5692H268.734ZM279.361 55.7292C278.347 55.7292 277.534 55.4425 276.921 54.8692C276.307 54.2959 276.001 53.5425 276.001 52.6092H277.401C277.401 53.1692 277.581 53.6225 277.941 53.9692C278.301 54.3159 278.774 54.4892 279.361 54.4892H281.101C281.674 54.4892 282.141 54.3759 282.501 54.1492C282.861 53.9092 283.041 53.6025 283.041 53.2292V52.5492C283.041 52.2959 282.941 52.0759 282.741 51.8892C282.541 51.6892 282.281 51.5559 281.961 51.4892L278.501 50.8892C277.807 50.7692 277.247 50.5092 276.821 50.1092C276.407 49.6959 276.201 49.2159 276.201 48.6692V48.0092C276.201 47.2359 276.494 46.6159 277.081 46.1492C277.667 45.6692 278.441 45.4292 279.401 45.4292H281.121C282.054 45.4292 282.807 45.6959 283.381 46.2292C283.954 46.7492 284.241 47.4425 284.241 48.3092H282.841C282.827 47.8159 282.661 47.4225 282.341 47.1292C282.034 46.8225 281.627 46.6692 281.121 46.6692H279.401C278.867 46.6692 278.441 46.7959 278.121 47.0492C277.801 47.2892 277.641 47.6092 277.641 48.0092V48.5892C277.641 48.8425 277.747 49.0692 277.961 49.2692C278.187 49.4692 278.474 49.5959 278.821 49.6492L282.261 50.2492C282.927 50.3692 283.461 50.6292 283.861 51.0292C284.274 51.4292 284.481 51.9092 284.481 52.4692V53.2692C284.481 54.0025 284.167 54.5959 283.541 55.0492C282.927 55.5025 282.114 55.7292 281.101 55.7292H279.361ZM290.231 55.7292C289.111 55.7292 288.211 55.4025 287.531 54.7492C286.851 54.0825 286.511 53.2025 286.511 52.1092V49.2492C286.511 48.1025 286.851 47.1825 287.531 46.4892C288.211 45.7825 289.111 45.4292 290.231 45.4292H291.871C292.938 45.4292 293.798 45.7692 294.451 46.4492C295.105 47.1292 295.431 48.0292 295.431 49.1492V50.9092H287.951V52.1092C287.951 52.8025 288.158 53.3692 288.571 53.8092C288.998 54.2359 289.551 54.4492 290.231 54.4492H291.751C292.418 54.4492 292.958 54.2692 293.371 53.9092C293.785 53.5359 293.991 53.0425 293.991 52.4292H295.391C295.391 53.4159 295.058 54.2159 294.391 54.8292C293.725 55.4292 292.845 55.7292 291.751 55.7292H290.231ZM293.991 49.6692V49.1492C293.991 48.4159 293.798 47.8292 293.411 47.3892C293.025 46.9359 292.511 46.7092 291.871 46.7092H290.231C289.551 46.7092 288.998 46.9425 288.571 47.4092C288.158 47.8759 287.951 48.4892 287.951 49.2492V49.6692H293.991ZM301.749 55.5692C300.696 55.5692 299.936 55.3425 299.469 54.8892C299.016 54.4359 298.789 53.6892 298.789 52.6492V46.8692H297.029V45.5892H298.789V42.5692H300.229V45.5892H302.829V46.8692H300.229V52.6492C300.229 53.2359 300.343 53.6559 300.569 53.9092C300.809 54.1625 301.203 54.2892 301.749 54.2892H302.829V55.5692H301.749ZM309.386 55.5692C308.333 55.5692 307.573 55.3425 307.106 54.8892C306.653 54.4359 306.426 53.6892 306.426 52.6492V46.8692H304.666V45.5892H306.426V42.5692H307.866V45.5892H310.466V46.8692H307.866V52.6492C307.866 53.2359 307.979 53.6559 308.206 53.9092C308.446 54.1625 308.839 54.2892 309.386 54.2892H310.466V55.5692H309.386ZM314.183 44.0892C313.863 44.0892 313.603 43.9892 313.403 43.7892C313.203 43.5892 313.103 43.3292 313.103 43.0092C313.103 42.6892 313.203 42.4292 313.403 42.2292C313.603 42.0292 313.863 41.9292 314.183 41.9292C314.503 41.9292 314.763 42.0292 314.963 42.2292C315.163 42.4292 315.263 42.6892 315.263 43.0092C315.263 43.3292 315.163 43.5892 314.963 43.7892C314.763 43.9892 314.503 44.0892 314.183 44.0892ZM313.463 45.5892H314.903V55.5692H313.463V45.5892ZM318.298 45.5892H319.698V47.0692C320.005 46.5892 320.405 46.1959 320.898 45.8892C321.391 45.5825 321.885 45.4292 322.378 45.4292H323.738C324.658 45.4292 325.398 45.7425 325.958 46.3692C326.531 46.9959 326.818 47.8159 326.818 48.8292V55.5692H325.378V48.7892C325.378 48.1759 325.225 47.6759 324.918 47.2892C324.611 46.9025 324.205 46.7092 323.698 46.7092H322.418C321.791 46.7092 321.218 46.9559 320.698 47.4492C320.191 47.9425 319.871 48.5759 319.738 49.3492V55.5692H318.298V45.5892ZM332.983 59.6292C332.103 59.6292 331.377 59.3892 330.803 58.9092C330.23 58.4425 329.91 57.8225 329.843 57.0492H331.283C331.337 57.4492 331.517 57.7692 331.823 58.0092C332.143 58.2625 332.53 58.3892 332.983 58.3892H334.643C335.337 58.3892 335.87 58.1559 336.243 57.6892C336.63 57.2359 336.823 56.5959 336.823 55.7692V54.2292C336.53 54.6292 336.143 54.9559 335.663 55.2092C335.197 55.4492 334.743 55.5692 334.303 55.5692H332.843C332.163 55.5692 331.557 55.4092 331.023 55.0892C330.49 54.7692 330.077 54.3225 329.783 53.7492C329.49 53.1759 329.343 52.5092 329.343 51.7492V49.4092C329.343 48.2225 329.683 47.2625 330.363 46.5292C331.057 45.7959 331.963 45.4292 333.083 45.4292H334.483C334.91 45.4292 335.35 45.5492 335.803 45.7892C336.257 46.0292 336.61 46.3359 336.863 46.7092V45.5892H338.263V55.7692C338.263 56.9825 337.943 57.9292 337.303 58.6092C336.663 59.2892 335.777 59.6292 334.643 59.6292H332.983ZM334.303 54.2892C334.97 54.2892 335.537 54.0292 336.003 53.5092C336.483 52.9759 336.757 52.3025 336.823 51.4892V49.0292C336.77 48.3492 336.517 47.7959 336.063 47.3692C335.623 46.9292 335.097 46.7092 334.483 46.7092H333.123C332.417 46.7092 331.85 46.9559 331.423 47.4492C330.997 47.9425 330.783 48.5959 330.783 49.4092V51.7492C330.783 52.4959 330.977 53.1092 331.363 53.5892C331.763 54.0559 332.27 54.2892 332.883 54.2892H334.303ZM80.2542 76.7692C79.7209 76.7692 79.2876 76.6092 78.9542 76.2892C78.6342 75.9559 78.4742 75.5225 78.4742 74.9892C78.4742 74.4559 78.6342 74.0292 78.9542 73.7092C79.2876 73.3759 79.7209 73.2092 80.2542 73.2092C80.7876 73.2092 81.2142 73.3759 81.5342 73.7092C81.8676 74.0292 82.0342 74.4559 82.0342 74.9892C82.0342 75.5225 81.8676 75.9559 81.5342 76.2892C81.2142 76.6092 80.7876 76.7692 80.2542 76.7692ZM96.7746 70.5892H98.1746V71.9492C98.4546 71.4959 98.8213 71.1292 99.2746 70.8492C99.7413 70.5692 100.208 70.4292 100.675 70.4292H102.115C103.181 70.4292 104.041 70.7692 104.695 71.4492C105.361 72.1292 105.695 73.0292 105.695 74.1492V76.6092C105.695 77.8492 105.355 78.8492 104.675 79.6092C104.008 80.3559 103.121 80.7292 102.015 80.7292H100.575C100.161 80.7292 99.728 80.6159 99.2746 80.3892C98.8213 80.1492 98.468 79.8425 98.2146 79.4692V84.5492H96.7746V70.5892ZM101.975 79.4492C102.668 79.4492 103.221 79.1892 103.635 78.6692C104.048 78.1492 104.255 77.4625 104.255 76.6092V74.1492C104.255 73.4159 104.055 72.8292 103.655 72.3892C103.255 71.9359 102.728 71.7092 102.075 71.7092H100.675C100.115 71.7092 99.608 71.9292 99.1546 72.3692C98.7013 72.7959 98.388 73.3492 98.2146 74.0292V77.0292C98.308 77.7359 98.5813 78.3159 99.0346 78.7692C99.488 79.2225 100.028 79.4492 100.655 79.4492H101.975ZM108.337 70.5892H109.737V72.1292C110.004 71.6625 110.404 71.2825 110.937 70.9892C111.484 70.6959 112.05 70.5492 112.637 70.5492H113.517V71.8492H112.637C111.784 71.8492 111.09 72.1225 110.557 72.6692C110.037 73.2025 109.777 73.9159 109.777 74.8092V80.5692H108.337V70.5892ZM118.454 80.7292C117.334 80.7292 116.434 80.3825 115.754 79.6892C115.074 78.9959 114.734 78.0825 114.734 76.9492V74.2092C114.734 73.0759 115.074 72.1625 115.754 71.4692C116.447 70.7759 117.361 70.4292 118.494 70.4292H120.134C121.267 70.4292 122.174 70.7759 122.854 71.4692C123.547 72.1625 123.894 73.0759 123.894 74.2092V76.9492C123.894 78.0825 123.547 78.9959 122.854 79.6892C122.161 80.3825 121.241 80.7292 120.094 80.7292H118.454ZM120.094 79.4492C120.814 79.4492 121.387 79.2225 121.814 78.7692C122.241 78.3025 122.454 77.6959 122.454 76.9492V74.2092C122.454 73.4625 122.241 72.8625 121.814 72.4092C121.387 71.9425 120.827 71.7092 120.134 71.7092H118.494C117.801 71.7092 117.241 71.9425 116.814 72.4092C116.387 72.8625 116.174 73.4625 116.174 74.2092V76.9492C116.174 77.7092 116.381 78.3159 116.794 78.7692C117.207 79.2225 117.761 79.4492 118.454 79.4492H120.094ZM129.64 80.7292C128.96 80.7292 128.354 80.5692 127.82 80.2492C127.287 79.9292 126.874 79.4825 126.58 78.9092C126.287 78.3359 126.14 77.6692 126.14 76.9092V74.5092C126.14 73.7092 126.294 73.0025 126.6 72.3892C126.907 71.7625 127.34 71.2825 127.9 70.9492C128.46 70.6025 129.1 70.4292 129.82 70.4292H131.3C131.754 70.4292 132.187 70.5359 132.6 70.7492C133.027 70.9625 133.367 71.2559 133.62 71.6292V66.5692H135.06V80.5692H133.66V79.0892C133.354 79.5825 132.954 79.9825 132.46 80.2892C131.967 80.5825 131.487 80.7292 131.02 80.7292H129.64ZM130.98 79.4492C131.407 79.4492 131.82 79.3159 132.22 79.0492C132.62 78.7692 132.947 78.4092 133.2 77.9692C133.454 77.5292 133.594 77.0759 133.62 76.6092V74.0892C133.527 73.3825 133.26 72.8092 132.82 72.3692C132.394 71.9292 131.874 71.7092 131.26 71.7092H129.86C129.18 71.7092 128.627 71.9692 128.2 72.4892C127.787 72.9959 127.58 73.6692 127.58 74.5092V76.9092C127.58 77.6559 127.774 78.2692 128.16 78.7492C128.56 79.2159 129.067 79.4492 129.68 79.4492H130.98ZM141.083 80.7292C140.163 80.7292 139.416 80.4159 138.843 79.7892C138.269 79.1625 137.983 78.3425 137.983 77.3292V70.5892H139.423V77.3692C139.423 77.9959 139.576 78.5025 139.883 78.8892C140.189 79.2625 140.589 79.4492 141.083 79.4492H142.323C142.936 79.4492 143.503 79.2025 144.023 78.7092C144.543 78.2159 144.876 77.5959 145.023 76.8492V70.5892H146.463V80.5692H145.063V79.0492C144.756 79.5292 144.349 79.9292 143.843 80.2492C143.336 80.5692 142.843 80.7292 142.363 80.7292H141.083ZM152.749 80.7292C151.656 80.7292 150.776 80.4025 150.109 79.7492C149.442 79.0825 149.109 78.2025 149.109 77.1092V74.2492C149.109 73.1025 149.442 72.1825 150.109 71.4892C150.776 70.7825 151.649 70.4292 152.729 70.4292H154.369C155.396 70.4292 156.222 70.7159 156.849 71.2892C157.476 71.8625 157.789 72.6159 157.789 73.5492H156.389C156.389 73.0025 156.202 72.5625 155.829 72.2292C155.469 71.8825 154.982 71.7092 154.369 71.7092H152.729C152.076 71.7092 151.549 71.9425 151.149 72.4092C150.749 72.8759 150.549 73.4892 150.549 74.2492V77.1092C150.549 77.8159 150.749 78.3825 151.149 78.8092C151.562 79.2359 152.096 79.4492 152.749 79.4492H154.389C155.016 79.4492 155.516 79.2292 155.889 78.7892C156.276 78.3492 156.469 77.7625 156.469 77.0292H157.869C157.869 78.1359 157.549 79.0292 156.909 79.7092C156.269 80.3892 155.429 80.7292 154.389 80.7292H152.749ZM164.074 80.5692C163.02 80.5692 162.26 80.3425 161.794 79.8892C161.34 79.4359 161.114 78.6892 161.114 77.6492V71.8692H159.354V70.5892H161.114V67.5692H162.554V70.5892H165.154V71.8692H162.554V77.6492C162.554 78.2359 162.667 78.6559 162.894 78.9092C163.134 79.1625 163.527 79.2892 164.074 79.2892H165.154V80.5692H164.074ZM175.826 80.7292C174.812 80.7292 173.999 80.4425 173.386 79.8692C172.772 79.2959 172.466 78.5425 172.466 77.6092H173.866C173.866 78.1692 174.046 78.6225 174.406 78.9692C174.766 79.3159 175.239 79.4892 175.826 79.4892H177.566C178.139 79.4892 178.606 79.3759 178.966 79.1492C179.326 78.9092 179.506 78.6025 179.506 78.2292V77.5492C179.506 77.2959 179.406 77.0759 179.206 76.8892C179.006 76.6892 178.746 76.5559 178.426 76.4892L174.966 75.8892C174.272 75.7692 173.712 75.5092 173.286 75.1092C172.872 74.6959 172.666 74.2159 172.666 73.6692V73.0092C172.666 72.2359 172.959 71.6159 173.546 71.1492C174.132 70.6692 174.906 70.4292 175.866 70.4292H177.586C178.519 70.4292 179.272 70.6959 179.846 71.2292C180.419 71.7492 180.706 72.4425 180.706 73.3092H179.306C179.292 72.8159 179.126 72.4225 178.806 72.1292C178.499 71.8225 178.092 71.6692 177.586 71.6692H175.866C175.332 71.6692 174.906 71.7959 174.586 72.0492C174.266 72.2892 174.106 72.6092 174.106 73.0092V73.5892C174.106 73.8425 174.212 74.0692 174.426 74.2692C174.652 74.4692 174.939 74.5959 175.286 74.6492L178.726 75.2492C179.392 75.3692 179.926 75.6292 180.326 76.0292C180.739 76.4292 180.946 76.9092 180.946 77.4692V78.2692C180.946 79.0025 180.632 79.5959 180.006 80.0492C179.392 80.5025 178.579 80.7292 177.566 80.7292H175.826ZM186.696 80.7292C185.576 80.7292 184.676 80.4025 183.996 79.7492C183.316 79.0825 182.976 78.2025 182.976 77.1092V74.2492C182.976 73.1025 183.316 72.1825 183.996 71.4892C184.676 70.7825 185.576 70.4292 186.696 70.4292H188.336C189.403 70.4292 190.263 70.7692 190.916 71.4492C191.57 72.1292 191.896 73.0292 191.896 74.1492V75.9092H184.416V77.1092C184.416 77.8025 184.623 78.3692 185.036 78.8092C185.463 79.2359 186.016 79.4492 186.696 79.4492H188.216C188.883 79.4492 189.423 79.2692 189.836 78.9092C190.25 78.5359 190.456 78.0425 190.456 77.4292H191.856C191.856 78.4159 191.523 79.2159 190.856 79.8292C190.19 80.4292 189.31 80.7292 188.216 80.7292H186.696ZM190.456 74.6692V74.1492C190.456 73.4159 190.263 72.8292 189.876 72.3892C189.49 71.9359 188.976 71.7092 188.336 71.7092H186.696C186.016 71.7092 185.463 71.9425 185.036 72.4092C184.623 72.8759 184.416 73.4892 184.416 74.2492V74.6692H190.456ZM197.171 80.5692C196.185 80.5692 195.478 80.3625 195.051 79.9492C194.625 79.5225 194.411 78.8225 194.411 77.8492V66.5692H195.851V77.8492C195.851 78.3559 195.951 78.7225 196.151 78.9492C196.365 79.1759 196.705 79.2892 197.171 79.2892H197.851V80.5692H197.171ZM203.083 80.7292C201.963 80.7292 201.063 80.4025 200.383 79.7492C199.703 79.0825 199.363 78.2025 199.363 77.1092V74.2492C199.363 73.1025 199.703 72.1825 200.383 71.4892C201.063 70.7825 201.963 70.4292 203.083 70.4292H204.723C205.79 70.4292 206.65 70.7692 207.303 71.4492C207.956 72.1292 208.283 73.0292 208.283 74.1492V75.9092H200.803V77.1092C200.803 77.8025 201.01 78.3692 201.423 78.8092C201.85 79.2359 202.403 79.4492 203.083 79.4492H204.603C205.27 79.4492 205.81 79.2692 206.223 78.9092C206.636 78.5359 206.843 78.0425 206.843 77.4292H208.243C208.243 78.4159 207.91 79.2159 207.243 79.8292C206.576 80.4292 205.696 80.7292 204.603 80.7292H203.083ZM206.843 74.6692V74.1492C206.843 73.4159 206.65 72.8292 206.263 72.3892C205.876 71.9359 205.363 71.7092 204.723 71.7092H203.083C202.403 71.7092 201.85 71.9425 201.423 72.4092C201.01 72.8759 200.803 73.4892 200.803 74.2492V74.6692H206.843ZM214.038 80.7292C212.945 80.7292 212.065 80.4025 211.398 79.7492C210.731 79.0825 210.398 78.2025 210.398 77.1092V74.2492C210.398 73.1025 210.731 72.1825 211.398 71.4892C212.065 70.7825 212.938 70.4292 214.018 70.4292H215.658C216.685 70.4292 217.511 70.7159 218.138 71.2892C218.765 71.8625 219.078 72.6159 219.078 73.5492H217.678C217.678 73.0025 217.491 72.5625 217.118 72.2292C216.758 71.8825 216.271 71.7092 215.658 71.7092H214.018C213.365 71.7092 212.838 71.9425 212.438 72.4092C212.038 72.8759 211.838 73.4892 211.838 74.2492V77.1092C211.838 77.8159 212.038 78.3825 212.438 78.8092C212.851 79.2359 213.385 79.4492 214.038 79.4492H215.678C216.305 79.4492 216.805 79.2292 217.178 78.7892C217.565 78.3492 217.758 77.7625 217.758 77.0292H219.158C219.158 78.1359 218.838 79.0292 218.198 79.7092C217.558 80.3892 216.718 80.7292 215.678 80.7292H214.038ZM225.363 80.5692C224.309 80.5692 223.549 80.3425 223.083 79.8892C222.629 79.4359 222.403 78.6892 222.403 77.6492V71.8692H220.643V70.5892H222.403V67.5692H223.843V70.5892H226.443V71.8692H223.843V77.6492C223.843 78.2359 223.956 78.6559 224.183 78.9092C224.423 79.1625 224.816 79.2892 225.363 79.2892H226.443V80.5692H225.363ZM230.159 69.0892C229.839 69.0892 229.579 68.9892 229.379 68.7892C229.179 68.5892 229.079 68.3292 229.079 68.0092C229.079 67.6892 229.179 67.4292 229.379 67.2292C229.579 67.0292 229.839 66.9292 230.159 66.9292C230.479 66.9292 230.739 67.0292 230.939 67.2292C231.139 67.4292 231.239 67.6892 231.239 68.0092C231.239 68.3292 231.139 68.5892 230.939 68.7892C230.739 68.9892 230.479 69.0892 230.159 69.0892ZM229.439 70.5892H230.879V80.5692H229.439V70.5892ZM237.595 80.7292C236.475 80.7292 235.575 80.3825 234.895 79.6892C234.215 78.9959 233.875 78.0825 233.875 76.9492V74.2092C233.875 73.0759 234.215 72.1625 234.895 71.4692C235.588 70.7759 236.501 70.4292 237.635 70.4292H239.275C240.408 70.4292 241.315 70.7759 241.995 71.4692C242.688 72.1625 243.035 73.0759 243.035 74.2092V76.9492C243.035 78.0825 242.688 78.9959 241.995 79.6892C241.301 80.3825 240.381 80.7292 239.235 80.7292H237.595ZM239.235 79.4492C239.955 79.4492 240.528 79.2225 240.955 78.7692C241.381 78.3025 241.595 77.6959 241.595 76.9492V74.2092C241.595 73.4625 241.381 72.8625 240.955 72.4092C240.528 71.9425 239.968 71.7092 239.275 71.7092H237.635C236.941 71.7092 236.381 71.9425 235.955 72.4092C235.528 72.8625 235.315 73.4625 235.315 74.2092V76.9492C235.315 77.7092 235.521 78.3159 235.935 78.7692C236.348 79.2225 236.901 79.4492 237.595 79.4492H239.235ZM245.681 70.5892H247.081V72.0692C247.388 71.5892 247.788 71.1959 248.281 70.8892C248.774 70.5825 249.268 70.4292 249.761 70.4292H251.121C252.041 70.4292 252.781 70.7425 253.341 71.3692C253.914 71.9959 254.201 72.8159 254.201 73.8292V80.5692H252.761V73.7892C252.761 73.1759 252.608 72.6759 252.301 72.2892C251.994 71.9025 251.588 71.7092 251.081 71.7092H249.801C249.174 71.7092 248.601 71.9559 248.081 72.4492C247.574 72.9425 247.254 73.5759 247.121 74.3492V80.5692H245.681V70.5892Z" fill="#030303"/>
</svg>
