<svg width="349" height="116" viewBox="0 0 349 116" fill="none" xmlns="http://www.w3.org/2000/svg">
<rect width="20.1504" height="20.1503" transform="matrix(-0.98995 -0.141414 -0.141414 0.98995 25.6046 3.41876)" fill="#030303"/>
<ellipse cx="20" cy="20" rx="20" ry="20" transform="matrix(-0.98995 -0.141414 -0.141414 0.98995 45.2546 6.22585)" fill="#030303"/>
<path d="M21.1072 29.4692C21.6539 29.4692 22.1406 29.3625 22.5672 29.1492C22.9939 28.9225 23.3472 28.6292 23.6272 28.2692C23.9206 27.9092 24.1406 27.5025 24.2872 27.0492C24.4339 26.5825 24.5006 26.1092 24.4872 25.6292C24.5006 24.8159 24.2806 24.2425 23.8272 23.9092C23.3872 23.5625 22.7606 23.3892 21.9472 23.3892H20.7472L20.7672 22.8892L25.0072 18.3492L25.9072 17.6492V17.5692L24.8272 17.6892H21.5872L20.3672 19.7292H19.8672C19.8806 19.1559 19.9072 18.5425 19.9472 17.8892C20.0006 17.2225 20.0806 16.6492 20.1872 16.1692H27.9072L27.8872 16.7892L23.7672 21.2492L22.5872 22.1292V22.1692L23.2872 22.0292C24.3672 22.1225 25.1539 22.4425 25.6472 22.9892C26.1539 23.5359 26.4072 24.2959 26.4072 25.2692C26.4072 25.9492 26.2939 26.6025 26.0672 27.2292C25.8539 27.8559 25.5139 28.4025 25.0472 28.8692C24.5806 29.3359 23.9806 29.7092 23.2472 29.9892C22.5139 30.2692 21.6272 30.4092 20.5872 30.4092C20.2806 30.4092 19.9539 30.3825 19.6072 30.3292C19.2739 30.2892 18.9472 30.2225 18.6272 30.1292C18.3206 30.0359 18.0339 29.9292 17.7672 29.8092C17.5139 29.6892 17.3072 29.5492 17.1472 29.3892L18.0672 27.5892H18.4672C18.5339 27.6825 18.6206 27.8025 18.7272 27.9492C18.8339 28.0959 18.9472 28.2492 19.0672 28.4092C19.1872 28.5692 19.3006 28.7292 19.4072 28.8892C19.5272 29.0492 19.6272 29.1892 19.7072 29.3092C19.8406 29.3359 20.0206 29.3692 20.2472 29.4092C20.4739 29.4492 20.7606 29.4692 21.1072 29.4692Z" fill="#F5F5F5"/>
<path d="M66.8866 7.76921H75.5026C76.9106 7.76921 78.0466 8.16921 78.9106 8.96921C79.7746 9.75321 80.2066 10.7932 80.2066 12.0892V14.3932C80.2066 15.7532 79.7506 16.8492 78.8386 17.6812C77.9426 18.4972 76.7586 18.9052 75.2866 18.9052H69.6946V24.5692H66.8866V7.76921ZM75.2386 16.4572C75.8946 16.4572 76.4146 16.2572 76.7986 15.8572C77.1986 15.4572 77.3986 14.9372 77.3986 14.2972V12.1612C77.3986 11.5692 77.2226 11.0972 76.8706 10.7452C76.5186 10.3932 76.0466 10.2172 75.4546 10.2172H69.6946V16.4572H75.2386ZM82.3085 7.76921H85.1165V14.8972H93.4205V7.76921H96.2045V24.5692H93.4205V17.3452H85.1165V24.5692H82.3085V7.76921ZM105.129 24.7612C103.913 24.7612 102.841 24.5052 101.913 23.9932C100.985 23.4652 100.265 22.7292 99.7528 21.7852C99.2408 20.8252 98.9848 19.7212 98.9848 18.4732V13.8652C98.9848 12.6172 99.2408 11.5212 99.7528 10.5772C100.265 9.61721 100.985 8.88121 101.913 8.36921C102.841 7.84121 103.913 7.57721 105.129 7.57721H107.673C108.889 7.57721 109.961 7.84121 110.889 8.36921C111.833 8.88121 112.561 9.61721 113.073 10.5772C113.585 11.5212 113.841 12.6172 113.841 13.8652V18.4732C113.841 19.7212 113.585 20.8252 113.073 21.7852C112.561 22.7292 111.833 23.4652 110.889 23.9932C109.961 24.5052 108.889 24.7612 107.673 24.7612H105.129ZM107.673 22.2892C108.665 22.2892 109.473 21.9292 110.097 21.2092C110.721 20.4892 111.033 19.5452 111.033 18.3772V13.9612C111.033 12.7932 110.721 11.8492 110.097 11.1292C109.489 10.4092 108.681 10.0492 107.673 10.0492H105.153C104.145 10.0492 103.329 10.4092 102.705 11.1292C102.097 11.8492 101.793 12.7932 101.793 13.9612V18.3772C101.793 19.5452 102.097 20.4892 102.705 21.2092C103.329 21.9292 104.145 22.2892 105.153 22.2892H107.673ZM119.976 10.1932H114.648V7.76921H128.112V10.1932H122.784V24.5692H119.976V10.1932ZM135.058 24.7612C133.842 24.7612 132.77 24.5052 131.842 23.9932C130.914 23.4652 130.194 22.7292 129.682 21.7852C129.17 20.8252 128.914 19.7212 128.914 18.4732V13.8652C128.914 12.6172 129.17 11.5212 129.682 10.5772C130.194 9.61721 130.914 8.88121 131.842 8.36921C132.77 7.84121 133.842 7.57721 135.058 7.57721H137.602C138.818 7.57721 139.89 7.84121 140.818 8.36921C141.762 8.88121 142.49 9.61721 143.002 10.5772C143.514 11.5212 143.77 12.6172 143.77 13.8652V18.4732C143.77 19.7212 143.514 20.8252 143.002 21.7852C142.49 22.7292 141.762 23.4652 140.818 23.9932C139.89 24.5052 138.818 24.7612 137.602 24.7612H135.058ZM137.602 22.2892C138.594 22.2892 139.402 21.9292 140.026 21.2092C140.65 20.4892 140.962 19.5452 140.962 18.3772V13.9612C140.962 12.7932 140.65 11.8492 140.026 11.1292C139.418 10.4092 138.61 10.0492 137.602 10.0492H135.082C134.074 10.0492 133.258 10.4092 132.634 11.1292C132.026 11.8492 131.722 12.7932 131.722 13.9612V18.3772C131.722 19.5452 132.026 20.4892 132.634 21.2092C133.258 21.9292 134.074 22.2892 135.082 22.2892H137.602ZM164.63 24.5692L163.262 23.0092C162.654 23.5692 161.966 24.0012 161.198 24.3052C160.446 24.6092 159.654 24.7612 158.822 24.7612H157.766C156.198 24.7612 154.958 24.3932 154.046 23.6572C153.134 22.9212 152.678 21.9132 152.678 20.6332V19.7212C152.678 18.9532 152.83 18.3052 153.134 17.7772C153.454 17.2492 153.854 16.8092 154.334 16.4572C154.814 16.1052 155.494 15.6652 156.374 15.1372L156.014 14.6812C155.198 13.6732 154.79 12.7132 154.79 11.8012V11.2972C154.79 10.1772 155.182 9.28121 155.966 8.60921C156.75 7.92121 157.79 7.57721 159.086 7.57721H159.998C161.198 7.57721 162.158 7.91321 162.878 8.58521C163.614 9.24121 163.982 10.1132 163.982 11.2012V11.6812C163.982 12.2092 163.87 12.6732 163.646 13.0732C163.438 13.4572 163.086 13.8492 162.59 14.2492C162.094 14.6332 161.39 15.0972 160.478 15.6412L160.022 15.9052L162.998 19.2652C163.334 18.4972 163.55 17.6252 163.646 16.6492H166.022C165.926 18.3292 165.486 19.8412 164.702 21.1852L167.702 24.5692H164.63ZM157.358 11.8012C157.358 12.3772 157.622 12.9692 158.15 13.5772L158.702 14.2972L159.134 14.0332C160.078 13.4252 160.694 12.9772 160.982 12.6892C161.286 12.4012 161.438 12.0652 161.438 11.6812V11.2012C161.438 10.7852 161.294 10.4492 161.006 10.1932C160.734 9.93721 160.382 9.80921 159.95 9.80921H159.062C158.534 9.80921 158.118 9.94521 157.814 10.2172C157.51 10.4732 157.358 10.8412 157.358 11.3212V11.8012ZM158.846 22.4332C159.95 22.4332 160.902 22.0332 161.702 21.2332L157.886 16.8892C156.942 17.4172 156.286 17.8732 155.918 18.2572C155.566 18.6252 155.39 19.1052 155.39 19.6972V20.5612C155.39 21.1212 155.606 21.5772 156.038 21.9292C156.47 22.2652 157.03 22.4332 157.718 22.4332H158.846ZM73.0066 54.5692C72.2066 54.5692 71.6226 54.1052 71.2546 53.1772L65.4946 37.7692H68.3986L73.1026 51.0652H73.1266L77.8546 37.7692H80.7346L74.3506 54.5692H73.0066ZM82.8532 37.7692H85.6612V54.5692H82.8532V37.7692ZM91.2397 54.5692C90.6157 54.5692 90.1117 54.3852 89.7277 54.0172C89.3597 53.6492 89.1757 53.1612 89.1757 52.5532V37.7692H96.8317C98.0797 37.7692 99.1757 38.0092 100.12 38.4892C101.08 38.9532 101.816 39.6172 102.328 40.4812C102.856 41.3452 103.12 42.3452 103.12 43.4812V48.3772C103.12 50.4092 102.592 51.9532 101.536 53.0092C100.496 54.0492 98.9597 54.5692 96.9277 54.5692H91.2397ZM96.8557 52.0972C97.9917 52.0972 98.8477 51.7772 99.4237 51.1372C100.016 50.4812 100.312 49.5292 100.312 48.2812V43.5772C100.312 42.5852 99.9837 41.7852 99.3277 41.1772C98.6717 40.5532 97.8157 40.2412 96.7597 40.2412H91.9837V52.0972H96.8557ZM107.88 54.5692C107.256 54.5692 106.752 54.3852 106.368 54.0172C106 53.6332 105.816 53.1372 105.816 52.5292V37.7692H118.128V40.1932H108.624V44.7532H117.408V47.2012H108.624V52.1452H118.128V54.5692H107.88ZM126.199 54.7612C124.983 54.7612 123.911 54.5052 122.983 53.9932C122.055 53.4652 121.335 52.7292 120.823 51.7852C120.311 50.8252 120.055 49.7212 120.055 48.4732V43.8652C120.055 42.6172 120.311 41.5212 120.823 40.5772C121.335 39.6172 122.055 38.8812 122.983 38.3692C123.911 37.8412 124.983 37.5772 126.199 37.5772H128.743C129.959 37.5772 131.031 37.8412 131.959 38.3692C132.903 38.8812 133.631 39.6172 134.143 40.5772C134.655 41.5212 134.911 42.6172 134.911 43.8652V48.4732C134.911 49.7212 134.655 50.8252 134.143 51.7852C133.631 52.7292 132.903 53.4652 131.959 53.9932C131.031 54.5052 129.959 54.7612 128.743 54.7612H126.199ZM128.743 52.2892C129.735 52.2892 130.543 51.9292 131.167 51.2092C131.791 50.4892 132.103 49.5452 132.103 48.3772V43.9612C132.103 42.7932 131.791 41.8492 131.167 41.1292C130.559 40.4092 129.751 40.0492 128.743 40.0492H126.223C125.215 40.0492 124.399 40.4092 123.775 41.1292C123.167 41.8492 122.863 42.7932 122.863 43.9612V48.3772C122.863 49.5452 123.167 50.4892 123.775 51.2092C124.399 51.9292 125.215 52.2892 126.223 52.2892H128.743ZM149.194 54.7612C147.53 54.7612 146.218 54.2812 145.258 53.3212C144.298 52.3612 143.818 51.0492 143.818 49.3852H146.578C146.578 50.2812 146.81 50.9932 147.274 51.5212C147.754 52.0332 148.41 52.2892 149.242 52.2892H151.906C152.69 52.2892 153.322 52.1212 153.802 51.7852C154.282 51.4332 154.522 50.9772 154.522 50.4172V49.3612C154.522 48.9292 154.354 48.5692 154.018 48.2812C153.682 47.9932 153.202 47.7932 152.578 47.6812L148.21 46.9372C146.85 46.7132 145.802 46.2652 145.066 45.5932C144.346 44.9212 143.986 44.0652 143.986 43.0252V41.7052C143.986 40.8892 144.202 40.1692 144.634 39.5452C145.082 38.9212 145.706 38.4412 146.506 38.1052C147.306 37.7532 148.234 37.5772 149.29 37.5772H152.002C152.994 37.5772 153.866 37.7852 154.618 38.2012C155.386 38.6012 155.978 39.1772 156.394 39.9292C156.81 40.6812 157.018 41.5452 157.018 42.5212H154.282C154.282 41.7852 154.066 41.1932 153.634 40.7452C153.218 40.2812 152.674 40.0492 152.002 40.0492H149.29C148.538 40.0492 147.93 40.2172 147.466 40.5532C147.018 40.8732 146.794 41.3132 146.794 41.8732V42.7372C146.794 43.1852 146.954 43.5612 147.274 43.8652C147.594 44.1532 148.058 44.3452 148.666 44.4412L153.034 45.2092C154.41 45.4492 155.466 45.8972 156.202 46.5532C156.954 47.1932 157.33 48.0172 157.33 49.0252V50.5852C157.33 51.4012 157.106 52.1292 156.658 52.7692C156.21 53.3932 155.578 53.8812 154.762 54.2332C153.946 54.5852 153.01 54.7612 151.954 54.7612H149.194ZM159.91 37.7692H162.718V44.8972H171.022V37.7692H173.806V54.5692H171.022V47.3452H162.718V54.5692H159.91V37.7692ZM182.73 54.7612C181.514 54.7612 180.442 54.5052 179.514 53.9932C178.586 53.4652 177.866 52.7292 177.354 51.7852C176.842 50.8252 176.586 49.7212 176.586 48.4732V43.8652C176.586 42.6172 176.842 41.5212 177.354 40.5772C177.866 39.6172 178.586 38.8812 179.514 38.3692C180.442 37.8412 181.514 37.5772 182.73 37.5772H185.274C186.49 37.5772 187.562 37.8412 188.49 38.3692C189.434 38.8812 190.162 39.6172 190.674 40.5772C191.186 41.5212 191.442 42.6172 191.442 43.8652V48.4732C191.442 49.7212 191.186 50.8252 190.674 51.7852C190.162 52.7292 189.434 53.4652 188.49 53.9932C187.562 54.5052 186.49 54.7612 185.274 54.7612H182.73ZM185.274 52.2892C186.266 52.2892 187.074 51.9292 187.698 51.2092C188.322 50.4892 188.634 49.5452 188.634 48.3772V43.9612C188.634 42.7932 188.322 41.8492 187.698 41.1292C187.09 40.4092 186.282 40.0492 185.274 40.0492H182.754C181.746 40.0492 180.93 40.4092 180.306 41.1292C179.698 41.8492 179.394 42.7932 179.394 43.9612V48.3772C179.394 49.5452 179.698 50.4892 180.306 51.2092C180.93 51.9292 181.746 52.2892 182.754 52.2892H185.274ZM199.887 54.7612C198.671 54.7612 197.599 54.5052 196.671 53.9932C195.743 53.4652 195.023 52.7292 194.511 51.7852C193.999 50.8252 193.743 49.7212 193.743 48.4732V43.8652C193.743 42.6172 193.999 41.5212 194.511 40.5772C195.023 39.6172 195.743 38.8812 196.671 38.3692C197.599 37.8412 198.671 37.5772 199.887 37.5772H202.431C203.647 37.5772 204.719 37.8412 205.647 38.3692C206.591 38.8812 207.319 39.6172 207.831 40.5772C208.343 41.5212 208.599 42.6172 208.599 43.8652V48.4732C208.599 49.7212 208.343 50.8252 207.831 51.7852C207.319 52.7292 206.591 53.4652 205.647 53.9932C204.719 54.5052 203.647 54.7612 202.431 54.7612H199.887ZM202.431 52.2892C203.423 52.2892 204.231 51.9292 204.855 51.2092C205.479 50.4892 205.791 49.5452 205.791 48.3772V43.9612C205.791 42.7932 205.479 41.8492 204.855 41.1292C204.247 40.4092 203.439 40.0492 202.431 40.0492H199.911C198.903 40.0492 198.087 40.4092 197.463 41.1292C196.855 41.8492 196.551 42.7932 196.551 43.9612V48.3772C196.551 49.5452 196.855 50.4892 197.463 51.2092C198.087 51.9292 198.903 52.2892 199.911 52.2892H202.431ZM214.733 40.1932H209.405V37.7692H222.869V40.1932H217.541V54.5692H214.733V40.1932ZM229.351 54.7612C227.687 54.7612 226.375 54.2812 225.415 53.3212C224.455 52.3612 223.975 51.0492 223.975 49.3852H226.735C226.735 50.2812 226.967 50.9932 227.431 51.5212C227.911 52.0332 228.567 52.2892 229.399 52.2892H232.063C232.847 52.2892 233.479 52.1212 233.959 51.7852C234.439 51.4332 234.679 50.9772 234.679 50.4172V49.3612C234.679 48.9292 234.511 48.5692 234.175 48.2812C233.839 47.9932 233.359 47.7932 232.735 47.6812L228.367 46.9372C227.007 46.7132 225.959 46.2652 225.223 45.5932C224.503 44.9212 224.143 44.0652 224.143 43.0252V41.7052C224.143 40.8892 224.359 40.1692 224.791 39.5452C225.239 38.9212 225.863 38.4412 226.663 38.1052C227.463 37.7532 228.391 37.5772 229.447 37.5772H232.159C233.151 37.5772 234.023 37.7852 234.775 38.2012C235.543 38.6012 236.135 39.1772 236.551 39.9292C236.967 40.6812 237.175 41.5452 237.175 42.5212H234.439C234.439 41.7852 234.223 41.1932 233.791 40.7452C233.375 40.2812 232.831 40.0492 232.159 40.0492H229.447C228.695 40.0492 228.087 40.2172 227.623 40.5532C227.175 40.8732 226.951 41.3132 226.951 41.8732V42.7372C226.951 43.1852 227.111 43.5612 227.431 43.8652C227.751 44.1532 228.215 44.3452 228.823 44.4412L233.191 45.2092C234.567 45.4492 235.623 45.8972 236.359 46.5532C237.111 47.1932 237.487 48.0172 237.487 49.0252V50.5852C237.487 51.4012 237.263 52.1292 236.815 52.7692C236.367 53.3932 235.735 53.8812 234.919 54.2332C234.103 54.5852 233.167 54.7612 232.111 54.7612H229.351Z" fill="#030303"/>
<path d="M80.2542 81.7692C79.7209 81.7692 79.2876 81.6092 78.9542 81.2892C78.6342 80.9559 78.4742 80.5225 78.4742 79.9892C78.4742 79.4559 78.6342 79.0292 78.9542 78.7092C79.2876 78.3759 79.7209 78.2092 80.2542 78.2092C80.7876 78.2092 81.2142 78.3759 81.5342 78.7092C81.8676 79.0292 82.0342 79.4559 82.0342 79.9892C82.0342 80.5225 81.8676 80.9559 81.5342 81.2892C81.2142 81.6092 80.7876 81.7692 80.2542 81.7692ZM100.235 85.5692C99.6746 85.5692 99.268 85.2292 99.0146 84.5492L95.5746 75.5892H97.0946L100.175 83.9892H100.195L103.275 75.5892H104.795L100.915 85.5692H100.235ZM107.718 74.0892C107.398 74.0892 107.138 73.9892 106.938 73.7892C106.738 73.5892 106.638 73.3292 106.638 73.0092C106.638 72.6892 106.738 72.4292 106.938 72.2292C107.138 72.0292 107.398 71.9292 107.718 71.9292C108.038 71.9292 108.298 72.0292 108.498 72.2292C108.698 72.4292 108.798 72.6892 108.798 73.0092C108.798 73.3292 108.698 73.5892 108.498 73.7892C108.298 73.9892 108.038 74.0892 107.718 74.0892ZM106.998 75.5892H108.438V85.5692H106.998V75.5892ZM114.673 85.7292C113.66 85.7292 112.847 85.4425 112.233 84.8692C111.62 84.2959 111.313 83.5425 111.313 82.6092H112.713C112.713 83.1692 112.893 83.6225 113.253 83.9692C113.613 84.3159 114.087 84.4892 114.673 84.4892H116.413C116.987 84.4892 117.453 84.3759 117.813 84.1492C118.173 83.9092 118.353 83.6025 118.353 83.2292V82.5492C118.353 82.2959 118.253 82.0759 118.053 81.8892C117.853 81.6892 117.593 81.5559 117.273 81.4892L113.813 80.8892C113.12 80.7692 112.56 80.5092 112.133 80.1092C111.72 79.6959 111.513 79.2159 111.513 78.6692V78.0092C111.513 77.2359 111.807 76.6159 112.393 76.1492C112.98 75.6692 113.753 75.4292 114.713 75.4292H116.433C117.367 75.4292 118.12 75.6959 118.693 76.2292C119.267 76.7492 119.553 77.4425 119.553 78.3092H118.153C118.14 77.8159 117.973 77.4225 117.653 77.1292C117.347 76.8225 116.94 76.6692 116.433 76.6692H114.713C114.18 76.6692 113.753 76.7959 113.433 77.0492C113.113 77.2892 112.953 77.6092 112.953 78.0092V78.5892C112.953 78.8425 113.06 79.0692 113.273 79.2692C113.5 79.4692 113.787 79.5959 114.133 79.6492L117.573 80.2492C118.24 80.3692 118.773 80.6292 119.173 81.0292C119.587 81.4292 119.793 81.9092 119.793 82.4692V83.2692C119.793 84.0025 119.48 84.5959 118.853 85.0492C118.24 85.5025 117.427 85.7292 116.413 85.7292H114.673ZM123.304 74.0892C122.984 74.0892 122.724 73.9892 122.524 73.7892C122.324 73.5892 122.224 73.3292 122.224 73.0092C122.224 72.6892 122.324 72.4292 122.524 72.2292C122.724 72.0292 122.984 71.9292 123.304 71.9292C123.624 71.9292 123.884 72.0292 124.084 72.2292C124.284 72.4292 124.384 72.6892 124.384 73.0092C124.384 73.3292 124.284 73.5892 124.084 73.7892C123.884 73.9892 123.624 74.0892 123.304 74.0892ZM122.584 75.5892H124.024V85.5692H122.584V75.5892ZM130.739 85.7292C129.619 85.7292 128.719 85.3825 128.039 84.6892C127.359 83.9959 127.019 83.0825 127.019 81.9492V79.2092C127.019 78.0759 127.359 77.1625 128.039 76.4692C128.733 75.7759 129.646 75.4292 130.779 75.4292H132.419C133.553 75.4292 134.459 75.7759 135.139 76.4692C135.833 77.1625 136.179 78.0759 136.179 79.2092V81.9492C136.179 83.0825 135.833 83.9959 135.139 84.6892C134.446 85.3825 133.526 85.7292 132.379 85.7292H130.739ZM132.379 84.4492C133.099 84.4492 133.673 84.2225 134.099 83.7692C134.526 83.3025 134.739 82.6959 134.739 81.9492V79.2092C134.739 78.4625 134.526 77.8625 134.099 77.4092C133.673 76.9425 133.113 76.7092 132.419 76.7092H130.779C130.086 76.7092 129.526 76.9425 129.099 77.4092C128.673 77.8625 128.459 78.4625 128.459 79.2092V81.9492C128.459 82.7092 128.666 83.3159 129.079 83.7692C129.493 84.2225 130.046 84.4492 130.739 84.4492H132.379ZM138.825 75.5892H140.225V77.0692C140.532 76.5892 140.932 76.1959 141.425 75.8892C141.919 75.5825 142.412 75.4292 142.905 75.4292H144.265C145.185 75.4292 145.925 75.7425 146.485 76.3692C147.059 76.9959 147.345 77.8159 147.345 78.8292V85.5692H145.905V78.7892C145.905 78.1759 145.752 77.6759 145.445 77.2892C145.139 76.9025 144.732 76.7092 144.225 76.7092H142.945C142.319 76.7092 141.745 76.9559 141.225 77.4492C140.719 77.9425 140.399 78.5759 140.265 79.3492V85.5692H138.825V75.5892ZM158.786 85.7292C157.666 85.7292 156.766 85.4025 156.086 84.7492C155.406 84.0825 155.066 83.2025 155.066 82.1092V79.2492C155.066 78.1025 155.406 77.1825 156.086 76.4892C156.766 75.7825 157.666 75.4292 158.786 75.4292H160.426C161.493 75.4292 162.353 75.7692 163.006 76.4492C163.659 77.1292 163.986 78.0292 163.986 79.1492V80.9092H156.506V82.1092C156.506 82.8025 156.713 83.3692 157.126 83.8092C157.553 84.2359 158.106 84.4492 158.786 84.4492H160.306C160.973 84.4492 161.513 84.2692 161.926 83.9092C162.339 83.5359 162.546 83.0425 162.546 82.4292H163.946C163.946 83.4159 163.613 84.2159 162.946 84.8292C162.279 85.4292 161.399 85.7292 160.306 85.7292H158.786ZM162.546 79.6692V79.1492C162.546 78.4159 162.353 77.8292 161.966 77.3892C161.579 76.9359 161.066 76.7092 160.426 76.7092H158.786C158.106 76.7092 157.553 76.9425 157.126 77.4092C156.713 77.8759 156.506 78.4892 156.506 79.2492V79.6692H162.546ZM168.749 80.4692L165.149 75.5892H166.789L169.569 79.3492L172.349 75.5892H173.989L170.389 80.4692L174.149 85.5692H172.509L169.569 81.5892L166.629 85.5692H164.989L168.749 80.4692ZM178.825 85.7292C177.705 85.7292 176.805 85.4025 176.125 84.7492C175.445 84.0825 175.105 83.2025 175.105 82.1092V79.2492C175.105 78.1025 175.445 77.1825 176.125 76.4892C176.805 75.7825 177.705 75.4292 178.825 75.4292H180.465C181.532 75.4292 182.392 75.7692 183.045 76.4492C183.698 77.1292 184.025 78.0292 184.025 79.1492V80.9092H176.545V82.1092C176.545 82.8025 176.752 83.3692 177.165 83.8092C177.592 84.2359 178.145 84.4492 178.825 84.4492H180.345C181.012 84.4492 181.552 84.2692 181.965 83.9092C182.378 83.5359 182.585 83.0425 182.585 82.4292H183.985C183.985 83.4159 183.652 84.2159 182.985 84.8292C182.318 85.4292 181.438 85.7292 180.345 85.7292H178.825ZM182.585 79.6692V79.1492C182.585 78.4159 182.392 77.8292 182.005 77.3892C181.618 76.9359 181.105 76.7092 180.465 76.7092H178.825C178.145 76.7092 177.592 76.9425 177.165 77.4092C176.752 77.8759 176.545 78.4892 176.545 79.2492V79.6692H182.585ZM189.78 85.7292C188.687 85.7292 187.807 85.4025 187.14 84.7492C186.474 84.0825 186.14 83.2025 186.14 82.1092V79.2492C186.14 78.1025 186.474 77.1825 187.14 76.4892C187.807 75.7825 188.68 75.4292 189.76 75.4292H191.4C192.427 75.4292 193.254 75.7159 193.88 76.2892C194.507 76.8625 194.82 77.6159 194.82 78.5492H193.42C193.42 78.0025 193.234 77.5625 192.86 77.2292C192.5 76.8825 192.014 76.7092 191.4 76.7092H189.76C189.107 76.7092 188.58 76.9425 188.18 77.4092C187.78 77.8759 187.58 78.4892 187.58 79.2492V82.1092C187.58 82.8159 187.78 83.3825 188.18 83.8092C188.594 84.2359 189.127 84.4492 189.78 84.4492H191.42C192.047 84.4492 192.547 84.2292 192.92 83.7892C193.307 83.3492 193.5 82.7625 193.5 82.0292H194.9C194.9 83.1359 194.58 84.0292 193.94 84.7092C193.3 85.3892 192.46 85.7292 191.42 85.7292H189.78ZM200.243 85.7292C199.323 85.7292 198.576 85.4159 198.003 84.7892C197.43 84.1625 197.143 83.3425 197.143 82.3292V75.5892H198.583V82.3692C198.583 82.9959 198.736 83.5025 199.043 83.8892C199.35 84.2625 199.75 84.4492 200.243 84.4492H201.483C202.096 84.4492 202.663 84.2025 203.183 83.7092C203.703 83.2159 204.036 82.5959 204.183 81.8492V75.5892H205.623V85.5692H204.223V84.0492C203.916 84.5292 203.51 84.9292 203.003 85.2492C202.496 85.5692 202.003 85.7292 201.523 85.7292H200.243ZM212.589 85.5692C211.536 85.5692 210.776 85.3425 210.309 84.8892C209.856 84.4359 209.629 83.6892 209.629 82.6492V76.8692H207.869V75.5892H209.629V72.5692H211.069V75.5892H213.669V76.8692H211.069V82.6492C211.069 83.2359 211.183 83.6559 211.409 83.9092C211.649 84.1625 212.043 84.2892 212.589 84.2892H213.669V85.5692H212.589ZM217.386 74.0892C217.066 74.0892 216.806 73.9892 216.606 73.7892C216.406 73.5892 216.306 73.3292 216.306 73.0092C216.306 72.6892 216.406 72.4292 216.606 72.2292C216.806 72.0292 217.066 71.9292 217.386 71.9292C217.706 71.9292 217.966 72.0292 218.166 72.2292C218.366 72.4292 218.466 72.6892 218.466 73.0092C218.466 73.3292 218.366 73.5892 218.166 73.7892C217.966 73.9892 217.706 74.0892 217.386 74.0892ZM216.666 75.5892H218.106V85.5692H216.666V75.5892ZM224.821 85.7292C223.701 85.7292 222.801 85.3825 222.121 84.6892C221.441 83.9959 221.101 83.0825 221.101 81.9492V79.2092C221.101 78.0759 221.441 77.1625 222.121 76.4692C222.815 75.7759 223.728 75.4292 224.861 75.4292H226.501C227.635 75.4292 228.541 75.7759 229.221 76.4692C229.915 77.1625 230.261 78.0759 230.261 79.2092V81.9492C230.261 83.0825 229.915 83.9959 229.221 84.6892C228.528 85.3825 227.608 85.7292 226.461 85.7292H224.821ZM226.461 84.4492C227.181 84.4492 227.755 84.2225 228.181 83.7692C228.608 83.3025 228.821 82.6959 228.821 81.9492V79.2092C228.821 78.4625 228.608 77.8625 228.181 77.4092C227.755 76.9425 227.195 76.7092 226.501 76.7092H224.861C224.168 76.7092 223.608 76.9425 223.181 77.4092C222.755 77.8625 222.541 78.4625 222.541 79.2092V81.9492C222.541 82.7092 222.748 83.3159 223.161 83.7692C223.575 84.2225 224.128 84.4492 224.821 84.4492H226.461ZM232.907 75.5892H234.307V77.0692C234.614 76.5892 235.014 76.1959 235.507 75.8892C236.001 75.5825 236.494 75.4292 236.987 75.4292H238.347C239.267 75.4292 240.007 75.7425 240.567 76.3692C241.141 76.9959 241.427 77.8159 241.427 78.8292V85.5692H239.987V78.7892C239.987 78.1759 239.834 77.6759 239.527 77.2892C239.221 76.9025 238.814 76.7092 238.307 76.7092H237.027C236.401 76.7092 235.827 76.9559 235.307 77.4492C234.801 77.9425 234.481 78.5759 234.347 79.3492V85.5692H232.907V75.5892ZM80.2542 106.769C79.7209 106.769 79.2876 106.609 78.9542 106.289C78.6342 105.956 78.4742 105.523 78.4742 104.989C78.4742 104.456 78.6342 104.029 78.9542 103.709C79.2876 103.376 79.7209 103.209 80.2542 103.209C80.7876 103.209 81.2142 103.376 81.5342 103.709C81.8676 104.029 82.0342 104.456 82.0342 104.989C82.0342 105.523 81.8676 105.956 81.5342 106.289C81.2142 106.609 80.7876 106.769 80.2542 106.769ZM100.715 110.729C100.275 110.729 99.808 110.596 99.3146 110.329C98.8213 110.049 98.4413 109.703 98.1746 109.289V110.569H96.7746V96.5692H98.2146V101.769C98.508 101.356 98.8813 101.029 99.3346 100.789C99.8013 100.549 100.281 100.429 100.775 100.429H102.195C102.875 100.429 103.475 100.589 103.995 100.909C104.528 101.216 104.941 101.656 105.235 102.229C105.541 102.789 105.695 103.436 105.695 104.169V106.749C105.695 107.536 105.541 108.229 105.235 108.829C104.941 109.429 104.521 109.896 103.975 110.229C103.441 110.563 102.821 110.729 102.115 110.729H100.715ZM102.075 109.449C102.715 109.449 103.235 109.203 103.635 108.709C104.048 108.203 104.255 107.549 104.255 106.749V104.169C104.255 103.436 104.055 102.843 103.655 102.389C103.268 101.936 102.768 101.709 102.155 101.709H100.815C100.121 101.709 99.528 101.963 99.0346 102.469C98.5413 102.976 98.268 103.643 98.2146 104.469V106.909C98.2413 107.376 98.3746 107.803 98.6146 108.189C98.8546 108.576 99.1613 108.883 99.5346 109.109C99.908 109.336 100.301 109.449 100.715 109.449H102.075ZM111.657 110.729C110.537 110.729 109.637 110.403 108.957 109.749C108.277 109.083 107.937 108.203 107.937 107.109V104.249C107.937 103.103 108.277 102.183 108.957 101.489C109.637 100.783 110.537 100.429 111.657 100.429H113.297C114.364 100.429 115.224 100.769 115.877 101.449C116.53 102.129 116.857 103.029 116.857 104.149V105.909H109.377V107.109C109.377 107.803 109.584 108.369 109.997 108.809C110.424 109.236 110.977 109.449 111.657 109.449H113.177C113.844 109.449 114.384 109.269 114.797 108.909C115.21 108.536 115.417 108.043 115.417 107.429H116.817C116.817 108.416 116.484 109.216 115.817 109.829C115.15 110.429 114.27 110.729 113.177 110.729H111.657ZM115.417 104.669V104.149C115.417 103.416 115.224 102.829 114.837 102.389C114.45 101.936 113.937 101.709 113.297 101.709H111.657C110.977 101.709 110.424 101.943 109.997 102.409C109.584 102.876 109.377 103.489 109.377 104.249V104.669H115.417ZM119.372 96.5692H120.812V101.969C121.119 101.503 121.512 101.129 121.992 100.849C122.472 100.569 122.959 100.429 123.452 100.429H124.852C125.772 100.429 126.512 100.743 127.072 101.369C127.646 101.996 127.932 102.816 127.932 103.829V110.569H126.492V103.789C126.492 103.176 126.339 102.676 126.032 102.289C125.726 101.903 125.319 101.709 124.812 101.709H123.492C122.866 101.709 122.292 101.956 121.772 102.449C121.266 102.929 120.946 103.549 120.812 104.309V110.569H119.372V96.5692ZM131.937 99.0892C131.617 99.0892 131.357 98.9892 131.157 98.7892C130.957 98.5892 130.857 98.3292 130.857 98.0092C130.857 97.6892 130.957 97.4292 131.157 97.2292C131.357 97.0292 131.617 96.9292 131.937 96.9292C132.257 96.9292 132.517 97.0292 132.717 97.2292C132.917 97.4292 133.017 97.6892 133.017 98.0092C133.017 98.3292 132.917 98.5892 132.717 98.7892C132.517 98.9892 132.257 99.0892 131.937 99.0892ZM131.217 100.589H132.657V110.569H131.217V100.589ZM136.052 100.589H137.452V102.069C137.759 101.589 138.159 101.196 138.652 100.889C139.145 100.583 139.639 100.429 140.132 100.429H141.492C142.412 100.429 143.152 100.743 143.712 101.369C144.285 101.996 144.572 102.816 144.572 103.829V110.569H143.132V103.789C143.132 103.176 142.979 102.676 142.672 102.289C142.365 101.903 141.959 101.709 141.452 101.709H140.172C139.545 101.709 138.972 101.956 138.452 102.449C137.945 102.943 137.625 103.576 137.492 104.349V110.569H136.052V100.589ZM150.597 110.729C149.917 110.729 149.311 110.569 148.777 110.249C148.244 109.929 147.831 109.483 147.537 108.909C147.244 108.336 147.097 107.669 147.097 106.909V104.509C147.097 103.709 147.251 103.003 147.557 102.389C147.864 101.763 148.297 101.283 148.857 100.949C149.417 100.603 150.057 100.429 150.777 100.429H152.257C152.711 100.429 153.144 100.536 153.557 100.749C153.984 100.963 154.324 101.256 154.577 101.629V96.5692H156.017V110.569H154.617V109.089C154.311 109.583 153.911 109.983 153.417 110.289C152.924 110.583 152.444 110.729 151.977 110.729H150.597ZM151.937 109.449C152.364 109.449 152.777 109.316 153.177 109.049C153.577 108.769 153.904 108.409 154.157 107.969C154.411 107.529 154.551 107.076 154.577 106.609V104.089C154.484 103.383 154.217 102.809 153.777 102.369C153.351 101.929 152.831 101.709 152.217 101.709H150.817C150.137 101.709 149.584 101.969 149.157 102.489C148.744 102.996 148.537 103.669 148.537 104.509V106.909C148.537 107.656 148.731 108.269 149.117 108.749C149.517 109.216 150.024 109.449 150.637 109.449H151.937ZM158.66 104.829H163.96V106.109H158.66V104.829ZM170.519 110.569C169.466 110.569 168.706 110.343 168.239 109.889C167.786 109.436 167.559 108.689 167.559 107.649V101.869H165.799V100.589H167.559V97.5692H168.999V100.589H171.599V101.869H168.999V107.649C168.999 108.236 169.112 108.656 169.339 108.909C169.579 109.163 169.972 109.289 170.519 109.289H171.599V110.569H170.519ZM174.236 96.5692H175.676V101.969C175.982 101.503 176.376 101.129 176.856 100.849C177.336 100.569 177.822 100.429 178.316 100.429H179.716C180.636 100.429 181.376 100.743 181.936 101.369C182.509 101.996 182.796 102.816 182.796 103.829V110.569H181.356V103.789C181.356 103.176 181.202 102.676 180.896 102.289C180.589 101.903 180.182 101.709 179.676 101.709H178.356C177.729 101.709 177.156 101.956 176.636 102.449C176.129 102.929 175.809 103.549 175.676 104.309V110.569H174.236V96.5692ZM189.04 110.729C187.92 110.729 187.02 110.403 186.34 109.749C185.66 109.083 185.32 108.203 185.32 107.109V104.249C185.32 103.103 185.66 102.183 186.34 101.489C187.02 100.783 187.92 100.429 189.04 100.429H190.68C191.747 100.429 192.607 100.769 193.26 101.449C193.913 102.129 194.24 103.029 194.24 104.149V105.909H186.76V107.109C186.76 107.803 186.967 108.369 187.38 108.809C187.807 109.236 188.36 109.449 189.04 109.449H190.56C191.227 109.449 191.767 109.269 192.18 108.909C192.593 108.536 192.8 108.043 192.8 107.429H194.2C194.2 108.416 193.867 109.216 193.2 109.829C192.533 110.429 191.653 110.729 190.56 110.729H189.04ZM192.8 104.669V104.149C192.8 103.416 192.607 102.829 192.22 102.389C191.833 101.936 191.32 101.709 190.68 101.709H189.04C188.36 101.709 187.807 101.943 187.38 102.409C186.967 102.876 186.76 103.489 186.76 104.249V104.669H192.8ZM196.355 104.829H201.655V106.109H196.355V104.829ZM207.134 110.729C206.121 110.729 205.308 110.443 204.694 109.869C204.081 109.296 203.774 108.543 203.774 107.609H205.174C205.174 108.169 205.354 108.623 205.714 108.969C206.074 109.316 206.548 109.489 207.134 109.489H208.874C209.448 109.489 209.914 109.376 210.274 109.149C210.634 108.909 210.814 108.603 210.814 108.229V107.549C210.814 107.296 210.714 107.076 210.514 106.889C210.314 106.689 210.054 106.556 209.734 106.489L206.274 105.889C205.581 105.769 205.021 105.509 204.594 105.109C204.181 104.696 203.974 104.216 203.974 103.669V103.009C203.974 102.236 204.268 101.616 204.854 101.149C205.441 100.669 206.214 100.429 207.174 100.429H208.894C209.828 100.429 210.581 100.696 211.154 101.229C211.728 101.749 212.014 102.443 212.014 103.309H210.614C210.601 102.816 210.434 102.423 210.114 102.129C209.808 101.823 209.401 101.669 208.894 101.669H207.174C206.641 101.669 206.214 101.796 205.894 102.049C205.574 102.289 205.414 102.609 205.414 103.009V103.589C205.414 103.843 205.521 104.069 205.734 104.269C205.961 104.469 206.248 104.596 206.594 104.649L210.034 105.249C210.701 105.369 211.234 105.629 211.634 106.029C212.048 106.429 212.254 106.909 212.254 107.469V108.269C212.254 109.003 211.941 109.596 211.314 110.049C210.701 110.503 209.888 110.729 208.874 110.729H207.134ZM217.925 110.729C216.831 110.729 215.951 110.403 215.285 109.749C214.618 109.083 214.285 108.203 214.285 107.109V104.249C214.285 103.103 214.618 102.183 215.285 101.489C215.951 100.783 216.825 100.429 217.905 100.429H219.545C220.571 100.429 221.398 100.716 222.025 101.289C222.651 101.863 222.965 102.616 222.965 103.549H221.565C221.565 103.003 221.378 102.563 221.005 102.229C220.645 101.883 220.158 101.709 219.545 101.709H217.905C217.251 101.709 216.725 101.943 216.325 102.409C215.925 102.876 215.725 103.489 215.725 104.249V107.109C215.725 107.816 215.925 108.383 216.325 108.809C216.738 109.236 217.271 109.449 217.925 109.449H219.565C220.191 109.449 220.691 109.229 221.065 108.789C221.451 108.349 221.645 107.763 221.645 107.029H223.045C223.045 108.136 222.725 109.029 222.085 109.709C221.445 110.389 220.605 110.729 219.565 110.729H217.925ZM228.727 110.729C227.607 110.729 226.707 110.403 226.027 109.749C225.347 109.083 225.007 108.203 225.007 107.109V104.249C225.007 103.103 225.347 102.183 226.027 101.489C226.707 100.783 227.607 100.429 228.727 100.429H230.367C231.434 100.429 232.294 100.769 232.947 101.449C233.601 102.129 233.927 103.029 233.927 104.149V105.909H226.447V107.109C226.447 107.803 226.654 108.369 227.067 108.809C227.494 109.236 228.047 109.449 228.727 109.449H230.247C230.914 109.449 231.454 109.269 231.867 108.909C232.281 108.536 232.487 108.043 232.487 107.429H233.887C233.887 108.416 233.554 109.216 232.887 109.829C232.221 110.429 231.341 110.729 230.247 110.729H228.727ZM232.487 104.669V104.149C232.487 103.416 232.294 102.829 231.907 102.389C231.521 101.936 231.007 101.709 230.367 101.709H228.727C228.047 101.709 227.494 101.943 227.067 102.409C226.654 102.876 226.447 103.489 226.447 104.249V104.669H232.487ZM236.443 100.589H237.843V102.069C238.149 101.589 238.549 101.196 239.043 100.889C239.536 100.583 240.029 100.429 240.523 100.429H241.883C242.803 100.429 243.543 100.743 244.103 101.369C244.676 101.996 244.963 102.816 244.963 103.829V110.569H243.523V103.789C243.523 103.176 243.369 102.676 243.063 102.289C242.756 101.903 242.349 101.709 241.843 101.709H240.563C239.936 101.709 239.363 101.956 238.843 102.449C238.336 102.943 238.016 103.576 237.883 104.349V110.569H236.443V100.589ZM251.208 110.729C250.088 110.729 249.188 110.403 248.508 109.749C247.828 109.083 247.488 108.203 247.488 107.109V104.249C247.488 103.103 247.828 102.183 248.508 101.489C249.188 100.783 250.088 100.429 251.208 100.429H252.848C253.915 100.429 254.775 100.769 255.428 101.449C256.081 102.129 256.408 103.029 256.408 104.149V105.909H248.928V107.109C248.928 107.803 249.135 108.369 249.548 108.809C249.975 109.236 250.528 109.449 251.208 109.449H252.728C253.395 109.449 253.935 109.269 254.348 108.909C254.761 108.536 254.968 108.043 254.968 107.429H256.368C256.368 108.416 256.035 109.216 255.368 109.829C254.701 110.429 253.821 110.729 252.728 110.729H251.208ZM254.968 104.669V104.149C254.968 103.416 254.775 102.829 254.388 102.389C254.001 101.936 253.488 101.709 252.848 101.709H251.208C250.528 101.709 249.975 101.943 249.548 102.409C249.135 102.876 248.928 103.489 248.928 104.249V104.669H254.968ZM261.763 110.729C260.75 110.729 259.936 110.443 259.323 109.869C258.71 109.296 258.403 108.543 258.403 107.609H259.803C259.803 108.169 259.983 108.623 260.343 108.969C260.703 109.316 261.176 109.489 261.763 109.489H263.503C264.076 109.489 264.543 109.376 264.903 109.149C265.263 108.909 265.443 108.603 265.443 108.229V107.549C265.443 107.296 265.343 107.076 265.143 106.889C264.943 106.689 264.683 106.556 264.363 106.489L260.903 105.889C260.21 105.769 259.65 105.509 259.223 105.109C258.81 104.696 258.603 104.216 258.603 103.669V103.009C258.603 102.236 258.896 101.616 259.483 101.149C260.07 100.669 260.843 100.429 261.803 100.429H263.523C264.456 100.429 265.21 100.696 265.783 101.229C266.356 101.749 266.643 102.443 266.643 103.309H265.243C265.23 102.816 265.063 102.423 264.743 102.129C264.436 101.823 264.03 101.669 263.523 101.669H261.803C261.27 101.669 260.843 101.796 260.523 102.049C260.203 102.289 260.043 102.609 260.043 103.009V103.589C260.043 103.843 260.15 104.069 260.363 104.269C260.59 104.469 260.876 104.596 261.223 104.649L264.663 105.249C265.33 105.369 265.863 105.629 266.263 106.029C266.676 106.429 266.883 106.909 266.883 107.469V108.269C266.883 109.003 266.57 109.596 265.943 110.049C265.33 110.503 264.516 110.729 263.503 110.729H261.763ZM277.489 110.729C276.569 110.729 275.822 110.416 275.249 109.789C274.676 109.163 274.389 108.343 274.389 107.329V100.589H275.829V107.369C275.829 107.996 275.982 108.503 276.289 108.889C276.596 109.263 276.996 109.449 277.489 109.449H278.729C279.342 109.449 279.909 109.203 280.429 108.709C280.949 108.216 281.282 107.596 281.429 106.849V100.589H282.869V110.569H281.469V109.049C281.162 109.529 280.756 109.929 280.249 110.249C279.742 110.569 279.249 110.729 278.769 110.729H277.489ZM285.915 100.589H287.315V101.949C287.595 101.496 287.962 101.129 288.415 100.849C288.882 100.569 289.349 100.429 289.815 100.429H291.255C292.322 100.429 293.182 100.769 293.835 101.449C294.502 102.129 294.835 103.029 294.835 104.149V106.609C294.835 107.849 294.495 108.849 293.815 109.609C293.149 110.356 292.262 110.729 291.155 110.729H289.715C289.302 110.729 288.869 110.616 288.415 110.389C287.962 110.149 287.609 109.843 287.355 109.469V114.549H285.915V100.589ZM291.115 109.449C291.809 109.449 292.362 109.189 292.775 108.669C293.189 108.149 293.395 107.463 293.395 106.609V104.149C293.395 103.416 293.195 102.829 292.795 102.389C292.395 101.936 291.869 101.709 291.215 101.709H289.815C289.255 101.709 288.749 101.929 288.295 102.369C287.842 102.796 287.529 103.349 287.355 104.029V107.029C287.449 107.736 287.722 108.316 288.175 108.769C288.629 109.223 289.169 109.449 289.795 109.449H291.115ZM300.578 110.729C299.898 110.729 299.291 110.569 298.758 110.249C298.224 109.929 297.811 109.483 297.518 108.909C297.224 108.336 297.078 107.669 297.078 106.909V104.509C297.078 103.709 297.231 103.003 297.538 102.389C297.844 101.763 298.278 101.283 298.838 100.949C299.398 100.603 300.038 100.429 300.758 100.429H302.238C302.691 100.429 303.124 100.536 303.538 100.749C303.964 100.963 304.304 101.256 304.558 101.629V96.5692H305.998V110.569H304.598V109.089C304.291 109.583 303.891 109.983 303.398 110.289C302.904 110.583 302.424 110.729 301.958 110.729H300.578ZM301.918 109.449C302.344 109.449 302.758 109.316 303.158 109.049C303.558 108.769 303.884 108.409 304.138 107.969C304.391 107.529 304.531 107.076 304.558 106.609V104.089C304.464 103.383 304.198 102.809 303.758 102.369C303.331 101.929 302.811 101.709 302.198 101.709H300.798C300.118 101.709 299.564 101.969 299.138 102.489C298.724 102.996 298.518 103.669 298.518 104.509V106.909C298.518 107.656 298.711 108.269 299.098 108.749C299.498 109.216 300.004 109.449 300.618 109.449H301.918ZM311.92 110.729C310.947 110.729 310.167 110.476 309.58 109.969C309.007 109.463 308.72 108.783 308.72 107.929V107.289C308.72 106.449 309.02 105.776 309.62 105.269C310.22 104.763 311.014 104.509 312 104.509H313.28C313.72 104.509 314.174 104.576 314.64 104.709C315.107 104.843 315.507 105.023 315.84 105.249V103.589C315.84 103.029 315.667 102.576 315.32 102.229C314.974 101.869 314.514 101.689 313.94 101.689H312.34C311.767 101.689 311.307 101.823 310.96 102.089C310.614 102.356 310.44 102.709 310.44 103.149H309C309 102.336 309.307 101.683 309.92 101.189C310.534 100.683 311.34 100.429 312.34 100.429H313.94C314.927 100.429 315.72 100.723 316.32 101.309C316.934 101.883 317.24 102.643 317.24 103.589V110.569H315.88V109.169C315.574 109.649 315.167 110.029 314.66 110.309C314.167 110.589 313.654 110.729 313.12 110.729H311.92ZM313.16 109.469C313.787 109.469 314.347 109.276 314.84 108.889C315.334 108.503 315.667 107.989 315.84 107.349V106.609C315.574 106.356 315.2 106.156 314.72 106.009C314.254 105.849 313.774 105.769 313.28 105.769H312C311.454 105.769 311.007 105.909 310.66 106.189C310.327 106.469 310.16 106.836 310.16 107.289V107.929C310.16 108.396 310.32 108.769 310.64 109.049C310.96 109.329 311.387 109.469 311.92 109.469H313.16ZM324.074 110.569C323.02 110.569 322.26 110.343 321.794 109.889C321.34 109.436 321.114 108.689 321.114 107.649V101.869H319.354V100.589H321.114V97.5692H322.554V100.589H325.154V101.869H322.554V107.649C322.554 108.236 322.667 108.656 322.894 108.909C323.134 109.163 323.527 109.289 324.074 109.289H325.154V110.569H324.074ZM330.798 110.729C329.678 110.729 328.778 110.403 328.098 109.749C327.418 109.083 327.078 108.203 327.078 107.109V104.249C327.078 103.103 327.418 102.183 328.098 101.489C328.778 100.783 329.678 100.429 330.798 100.429H332.438C333.504 100.429 334.364 100.769 335.018 101.449C335.671 102.129 335.998 103.029 335.998 104.149V105.909H328.518V107.109C328.518 107.803 328.724 108.369 329.138 108.809C329.564 109.236 330.118 109.449 330.798 109.449H332.318C332.984 109.449 333.524 109.269 333.938 108.909C334.351 108.536 334.558 108.043 334.558 107.429H335.958C335.958 108.416 335.624 109.216 334.958 109.829C334.291 110.429 333.411 110.729 332.318 110.729H330.798ZM334.558 104.669V104.149C334.558 103.416 334.364 102.829 333.978 102.389C333.591 101.936 333.078 101.709 332.438 101.709H330.798C330.118 101.709 329.564 101.943 329.138 102.409C328.724 102.876 328.518 103.489 328.518 104.249V104.669H334.558ZM341.353 110.729C340.34 110.729 339.526 110.443 338.913 109.869C338.3 109.296 337.993 108.543 337.993 107.609H339.393C339.393 108.169 339.573 108.623 339.933 108.969C340.293 109.316 340.766 109.489 341.353 109.489H343.093C343.666 109.489 344.133 109.376 344.493 109.149C344.853 108.909 345.033 108.603 345.033 108.229V107.549C345.033 107.296 344.933 107.076 344.733 106.889C344.533 106.689 344.273 106.556 343.953 106.489L340.493 105.889C339.8 105.769 339.24 105.509 338.813 105.109C338.4 104.696 338.193 104.216 338.193 103.669V103.009C338.193 102.236 338.486 101.616 339.073 101.149C339.66 100.669 340.433 100.429 341.393 100.429H343.113C344.046 100.429 344.8 100.696 345.373 101.229C345.946 101.749 346.233 102.443 346.233 103.309H344.833C344.82 102.816 344.653 102.423 344.333 102.129C344.026 101.823 343.62 101.669 343.113 101.669H341.393C340.86 101.669 340.433 101.796 340.113 102.049C339.793 102.289 339.633 102.609 339.633 103.009V103.589C339.633 103.843 339.74 104.069 339.953 104.269C340.18 104.469 340.466 104.596 340.813 104.649L344.253 105.249C344.92 105.369 345.453 105.629 345.853 106.029C346.266 106.429 346.473 106.909 346.473 107.469V108.269C346.473 109.003 346.16 109.596 345.533 110.049C344.92 110.503 344.106 110.729 343.093 110.729H341.353Z" fill="#030303"/>
</svg>
