<svg width="748" height="582" viewBox="0 0 748 582" fill="none" xmlns="http://www.w3.org/2000/svg">
<path d="M246.35 376.1H258.05C259.55 384.5 260.9 395.15 262.1 408.05C263.3 420.65 263.6 432.95 263 444.95C258.5 448.55 253.1 451.55 246.8 453.95C240.5 456.05 233.75 457.85 226.55 459.35C219.65 460.85 212.45 461.9 204.95 462.5C197.75 463.1 190.85 463.4 184.25 463.4C159.05 463.4 136.55 460.25 116.75 453.95C96.9502 447.35 80.1502 437.45 66.3502 424.25C52.8502 411.05 42.3502 394.25 34.8502 373.85C27.6502 353.15 24.0502 328.7 24.0502 300.5C24.0502 271.1 28.1002 246.2 36.2002 225.8C44.3002 205.1 55.2502 188.3 69.0502 175.4C82.8502 162.2 98.9002 152.6 117.2 146.6C135.5 140.6 154.7 137.6 174.8 137.6C194.6 137.6 211.25 138.95 224.75 141.65C238.25 144.05 250.1 147.8 260.3 152.9C260.3 157.7 260.15 163.4 259.85 170C259.55 176.3 259.1 183.05 258.5 190.25C257.9 197.45 257.15 204.5 256.25 211.4C255.35 218.3 254.45 224.6 253.55 230.3H241.85L218.45 165.5C215.15 163.7 209.6 162.5 201.8 161.9C194.3 161.3 186.8 161 179.3 161C164.3 161 150.05 163.85 136.55 169.55C123.35 174.95 111.65 183.5 101.45 195.2C91.5502 206.6 83.6002 221.15 77.6002 238.85C71.6002 256.25 68.6002 276.8 68.6002 300.5C68.6002 321.8 71.3002 341.15 76.7002 358.55C82.1002 375.65 89.9002 390.35 100.1 402.65C110.3 414.65 122.75 423.95 137.45 430.55C152.15 436.85 168.8 440 187.4 440C197.3 440 205.55 439.25 212.15 437.75C218.75 436.25 223.1 434.3 225.2 431.9L246.35 376.1Z" fill="#030303"/>
<path d="M213.94 282.898C212.84 283.498 211.44 284.748 209.74 286.648C208.14 288.448 206.69 291.148 205.39 294.748V339.298C207.39 339.498 209.39 339.898 211.39 340.498C213.39 340.998 215.39 341.798 217.39 342.898V346.648H181.99V342.898C183.79 341.898 185.49 341.148 187.09 340.648C188.69 340.148 190.29 339.698 191.89 339.298V280.348L181.99 279.148V275.248C185.19 273.848 188.49 272.748 191.89 271.948C195.29 271.048 198.54 270.348 201.64 269.848H205.39V285.748H205.99C206.89 283.748 208.14 281.748 209.74 279.748C211.44 277.748 213.34 275.948 215.44 274.348C217.64 272.748 219.99 271.548 222.49 270.748C225.09 269.848 227.74 269.548 230.44 269.848C231.14 271.148 231.74 272.598 232.24 274.198C232.84 275.698 233.39 277.298 233.89 278.998V282.898H213.94ZM301.809 336.148C301.009 337.848 299.759 339.448 298.059 340.948C296.359 342.448 294.409 343.748 292.209 344.848C290.009 345.948 287.609 346.798 285.009 347.398C282.409 348.098 279.759 348.448 277.059 348.448C271.159 348.448 265.959 347.548 261.459 345.748C256.959 343.848 253.209 341.198 250.209 337.798C247.209 334.298 244.909 330.148 243.309 325.348C241.809 320.548 241.059 315.148 241.059 309.148C241.059 296.348 244.009 286.598 249.909 279.898C255.809 273.198 264.159 269.848 274.959 269.848C278.459 269.848 281.909 270.348 285.309 271.348C288.709 272.248 291.709 273.798 294.309 275.998C297.009 278.198 299.159 281.148 300.759 284.848C302.459 288.448 303.309 292.948 303.309 298.348C303.309 300.048 303.209 301.798 303.009 303.598C302.909 305.298 302.659 307.148 302.259 309.148H255.459C255.459 313.348 255.959 317.298 256.959 320.998C258.059 324.598 259.659 327.748 261.759 330.448C263.859 333.148 266.509 335.298 269.709 336.898C272.909 338.398 276.659 339.148 280.959 339.148C284.459 339.148 288.009 338.648 291.609 337.648C295.209 336.648 297.909 335.348 299.709 333.748L301.809 336.148ZM274.359 276.448C268.659 276.448 264.309 278.398 261.309 282.298C258.309 286.098 256.509 292.848 255.909 302.548H288.909C289.009 301.648 289.059 300.798 289.059 299.998C289.159 299.098 289.209 298.248 289.209 297.448C289.209 291.048 288.009 285.948 285.609 282.148C283.209 278.348 279.459 276.448 274.359 276.448ZM371.848 326.998C371.848 329.198 371.898 331.098 371.998 332.698C372.098 334.298 372.198 335.998 372.298 337.798L382.648 339.298V342.448C380.148 343.748 377.348 344.898 374.248 345.898C371.248 346.898 368.348 347.648 365.548 348.148H361.798C360.798 345.848 360.198 343.348 359.998 340.648C359.798 337.848 359.648 334.798 359.548 331.498H358.798C358.398 333.498 357.598 335.548 356.398 337.648C355.298 339.648 353.798 341.448 351.898 343.048C350.098 344.648 347.948 345.948 345.448 346.948C342.948 347.948 340.098 348.448 336.898 348.448C330.798 348.448 325.798 346.598 321.898 342.898C318.098 339.198 316.198 334.348 316.198 328.348C316.198 323.748 317.098 319.998 318.898 317.098C320.798 314.098 323.548 311.748 327.148 310.048C330.748 308.348 335.198 307.148 340.498 306.448C345.798 305.648 351.948 305.048 358.948 304.648C359.348 300.348 359.448 296.498 359.248 293.098C359.148 289.598 358.598 286.648 357.598 284.248C356.698 281.748 355.298 279.848 353.398 278.548C351.598 277.148 349.198 276.448 346.198 276.448C344.798 276.448 343.198 276.548 341.398 276.748C339.698 276.848 337.998 277.248 336.298 277.948L329.248 295.948H325.348C324.348 292.948 323.448 289.848 322.648 286.648C321.948 283.448 321.498 280.298 321.298 277.198C325.098 274.898 329.298 273.098 333.898 271.798C338.598 270.498 343.798 269.848 349.498 269.848C354.598 269.848 358.648 270.598 361.648 272.098C364.748 273.498 367.098 275.348 368.698 277.648C370.298 279.948 371.348 282.498 371.848 285.298C372.348 288.098 372.598 290.898 372.598 293.698C372.598 299.698 372.448 305.498 372.148 311.098C371.948 316.598 371.848 321.898 371.848 326.998ZM342.898 339.148C345.398 339.148 347.598 338.648 349.498 337.648C351.398 336.648 352.998 335.448 354.298 334.048C355.598 332.648 356.648 331.248 357.448 329.848C358.248 328.348 358.798 327.098 359.098 326.098V310.348C353.298 310.348 348.548 310.648 344.848 311.248C341.148 311.848 338.248 312.798 336.148 314.098C334.048 315.398 332.598 317.048 331.798 319.048C330.998 320.948 330.598 323.148 330.598 325.648C330.598 329.948 331.698 333.298 333.898 335.698C336.098 337.998 339.098 339.148 342.898 339.148ZM388.331 275.248C392.131 272.848 396.131 271.148 400.331 270.148V257.398C401.631 256.398 403.131 255.448 404.831 254.548C406.631 253.548 408.381 252.698 410.081 251.998H413.831V271.648H436.331V279.148H413.831V322.648C413.831 328.648 414.781 332.898 416.681 335.398C418.581 337.898 421.431 339.148 425.231 339.148C427.031 339.148 429.281 339.048 431.981 338.848C434.681 338.548 436.981 338.048 438.881 337.348L439.931 339.598C439.131 340.498 437.981 341.448 436.481 342.448C435.081 343.448 433.431 344.398 431.531 345.298C429.731 346.198 427.731 346.948 425.531 347.548C423.331 348.148 421.081 348.448 418.781 348.448C412.781 348.448 408.181 346.748 404.981 343.348C401.881 339.948 400.331 334.448 400.331 326.848V279.148H388.331V275.248ZM508.645 336.148C507.845 337.848 506.595 339.448 504.895 340.948C503.195 342.448 501.245 343.748 499.045 344.848C496.845 345.948 494.445 346.798 491.845 347.398C489.245 348.098 486.595 348.448 483.895 348.448C477.995 348.448 472.795 347.548 468.295 345.748C463.795 343.848 460.045 341.198 457.045 337.798C454.045 334.298 451.745 330.148 450.145 325.348C448.645 320.548 447.895 315.148 447.895 309.148C447.895 296.348 450.845 286.598 456.745 279.898C462.645 273.198 470.995 269.848 481.795 269.848C485.295 269.848 488.745 270.348 492.145 271.348C495.545 272.248 498.545 273.798 501.145 275.998C503.845 278.198 505.995 281.148 507.595 284.848C509.295 288.448 510.145 292.948 510.145 298.348C510.145 300.048 510.045 301.798 509.845 303.598C509.745 305.298 509.495 307.148 509.095 309.148H462.295C462.295 313.348 462.795 317.298 463.795 320.998C464.895 324.598 466.495 327.748 468.595 330.448C470.695 333.148 473.345 335.298 476.545 336.898C479.745 338.398 483.495 339.148 487.795 339.148C491.295 339.148 494.845 338.648 498.445 337.648C502.045 336.648 504.745 335.348 506.545 333.748L508.645 336.148ZM481.195 276.448C475.495 276.448 471.145 278.398 468.145 282.298C465.145 286.098 463.345 292.848 462.745 302.548H495.745C495.845 301.648 495.895 300.798 495.895 299.998C495.995 299.098 496.045 298.248 496.045 297.448C496.045 291.048 494.845 285.948 492.445 282.148C490.045 278.348 486.295 276.448 481.195 276.448Z" fill="#030303"/>
<path d="M358.426 455.378C356.812 455.378 355.553 454.732 354.649 453.441C353.746 452.15 353.294 450.537 353.294 448.6C353.294 448.084 353.326 447.309 353.391 446.276C353.455 445.179 353.52 444.049 353.584 442.888C353.713 441.661 353.81 440.596 353.875 439.692C353.939 438.724 354.004 438.143 354.069 437.95L353.972 437.562C353.391 438.401 352.584 439.499 351.551 440.854C350.583 442.21 349.55 443.598 348.453 445.018C347.42 446.373 346.484 447.567 345.645 448.6C344.289 450.214 342.805 451.473 341.191 452.376C339.577 453.28 338.093 453.732 336.737 453.732C335.123 453.732 333.768 452.925 332.67 451.311C331.573 449.633 331.024 447.245 331.024 444.146C331.024 441.177 331.509 437.853 332.477 434.173L329.475 437.659C329.023 438.111 328.636 438.498 328.313 438.821C327.991 439.079 327.668 439.208 327.345 439.208C327.022 439.208 326.7 439.079 326.377 438.821C326.119 438.498 325.99 438.111 325.99 437.659C325.99 437.207 326.151 436.82 326.474 436.497C327.119 435.787 327.862 434.883 328.701 433.786C329.604 432.624 330.637 431.301 331.799 429.816C332.767 428.461 334.381 425.943 336.64 422.264C337.028 421.619 337.544 421.296 338.189 421.296C339.287 421.296 339.835 421.812 339.835 422.845C339.835 423.168 339.674 423.62 339.351 424.201C339.029 424.717 338.577 425.717 337.996 427.202C336.834 430.236 335.93 433.237 335.285 436.207C334.639 439.111 334.316 441.984 334.316 444.824C334.316 447.277 334.478 448.891 334.801 449.665C335.123 450.375 335.607 450.73 336.253 450.73C338.318 450.73 340.804 449.181 343.708 446.083C344.547 445.179 345.806 443.662 347.484 441.532C349.163 439.337 350.906 436.788 352.713 433.883C354.52 430.914 355.94 427.88 356.973 424.781L358.426 420.521C358.619 419.94 359.039 419.65 359.684 419.65C360.846 419.65 361.427 420.198 361.427 421.296C361.427 421.683 361.072 422.716 360.362 424.394C359.652 426.008 358.942 428.558 358.232 432.043C357.78 434.238 357.361 436.562 356.973 439.015C356.65 441.467 356.489 443.824 356.489 446.083C356.489 450.408 357.199 452.57 358.619 452.57C359.781 452.57 361.266 451.957 363.073 450.73C364.881 449.504 366.785 447.955 368.786 446.083C370.787 444.211 372.594 442.274 374.208 440.273C375.693 438.53 377.209 436.529 378.759 434.27C380.308 432.011 381.599 429.752 382.632 427.493C383.729 425.169 384.278 423.168 384.278 421.489C384.278 419.811 383.826 418.714 382.922 418.197C382.793 418.133 381.922 418.004 380.308 417.81C379.404 417.681 378.952 417.165 378.952 416.261C378.952 415.228 379.469 414.712 380.501 414.712C382.567 414.712 384.213 415.293 385.439 416.455C386.73 417.617 387.376 419.198 387.376 421.199C387.376 426.621 383.761 433.625 376.532 442.21C369.173 450.989 363.138 455.378 358.426 455.378ZM408.224 415.293C407.127 415.293 406.578 414.744 406.578 413.647C406.578 413.324 406.804 412.743 407.256 411.904C407.708 411 408.224 410.097 408.805 409.193C409.386 408.289 409.838 407.676 410.161 407.353C411.258 406.127 412.097 405.352 412.678 405.029C413.323 404.707 413.904 404.545 414.421 404.545C415.776 404.545 416.454 405.159 416.454 406.385C416.454 406.837 416.164 407.385 415.583 408.031C415.066 408.612 414.453 409.161 413.743 409.677C412.71 410.322 412.065 410.839 411.807 411.226L409.676 414.228C409.612 414.486 409.451 414.744 409.192 415.002C408.999 415.196 408.676 415.293 408.224 415.293ZM391.764 454.506C389.957 454.506 388.633 454.151 387.794 453.441C387.02 452.731 386.632 451.666 386.632 450.246C386.632 448.891 387.052 447.051 387.891 444.727C388.73 442.339 389.795 439.789 391.086 437.078C392.442 434.367 393.862 431.785 395.347 429.332C396.831 426.879 398.251 424.878 399.607 423.329C401.027 421.715 402.156 420.909 402.996 420.909C404.157 420.909 404.738 421.425 404.738 422.458C404.738 423.103 404.19 424.33 403.092 426.137C401.995 427.944 400.801 429.816 399.51 431.753C398.994 432.463 398.284 433.431 397.38 434.658C396.476 435.884 395.605 437.046 394.766 438.143C393.926 439.176 393.378 439.886 393.12 440.273C392.474 441.242 391.796 442.823 391.086 445.018C390.312 447.212 389.924 448.891 389.924 450.053C389.924 450.569 390.021 450.956 390.215 451.214C390.473 451.473 391.022 451.602 391.861 451.602C393.475 451.602 395.282 451.085 397.283 450.053C399.284 449.02 401.317 447.729 403.383 446.18C405.448 444.566 407.385 442.92 409.192 441.242C411.064 439.563 412.646 438.111 413.937 436.884C414.195 436.626 414.582 436.497 415.099 436.497C416.067 436.497 416.551 436.884 416.551 437.659C416.551 438.369 416.099 439.176 415.195 440.08C413.453 441.823 411.839 443.372 410.354 444.727C408.87 446.083 407.45 447.277 406.094 448.31C403.964 449.859 401.608 451.279 399.026 452.57C396.444 453.861 394.023 454.506 391.764 454.506ZM411.142 460.122C409.916 460.122 409.303 459.154 409.303 457.218C409.303 454.377 410.884 449.407 414.047 442.307C417.275 435.206 422.051 425.911 428.377 414.421C425.924 414.421 423.6 414.744 421.406 415.39C419.276 415.971 418.146 416.713 418.017 417.617C417.952 417.875 417.791 418.133 417.533 418.391C417.339 418.585 417.016 418.682 416.565 418.682C415.532 418.682 415.015 418.165 415.015 417.132C415.015 415.454 416.339 414.066 418.985 412.969C421.632 411.872 425.343 411.323 430.12 411.323L436.801 400.285C437.253 399.575 437.737 398.8 438.253 397.961C438.77 397.058 439.35 396.089 439.996 395.057C440.641 394.153 441.384 393.701 442.223 393.701C442.739 393.701 443.127 393.862 443.385 394.185C443.643 394.443 443.772 394.734 443.772 395.057C443.772 396.025 442.352 398.607 439.512 402.802C435.962 408.031 434.057 410.871 433.799 411.323C434.767 411.323 436.22 411.42 438.156 411.613C440.093 411.743 442.384 411.968 445.031 412.291C445.999 412.356 446.483 412.84 446.483 413.744C446.483 414.776 445.902 415.293 444.74 415.293C444.288 415.293 443.385 415.228 442.029 415.099C440.674 414.905 439.221 414.744 437.672 414.615C436.123 414.486 434.8 414.454 433.702 414.518L432.25 414.615C419.147 437.659 412.627 451.989 412.692 457.605L412.788 458.379V458.573C412.788 459.606 412.24 460.122 411.142 460.122ZM432.01 455.184C430.977 455.184 430.46 454.668 430.46 453.635C430.46 452.279 430.944 450.149 431.913 447.245C432.881 444.275 434.14 440.887 435.689 437.078C437.303 433.205 439.013 429.235 440.82 425.169C441.853 422.91 442.918 420.715 444.016 418.585C445.113 416.39 446.146 414.486 447.114 412.872C456.667 396.735 462.606 388.666 464.93 388.666C465.833 388.666 466.285 389.118 466.285 390.022C466.285 390.603 465.833 391.7 464.93 393.314C464.09 394.863 462.961 396.703 461.541 398.833C460.185 400.898 458.701 402.996 457.087 405.126C455.538 407.256 454.053 409.225 452.633 411.032C451.277 412.775 450.18 414.099 449.341 415.002C448.631 415.841 447.824 417.068 446.92 418.682C446.081 420.295 445.242 421.974 444.403 423.716C443.564 425.395 442.886 426.879 442.37 428.17L438.69 437.272C439.659 435.981 440.917 434.528 442.466 432.915C446.146 428.848 449.954 425.782 453.892 423.716C457.894 421.586 461.25 420.521 463.961 420.521C465.446 420.521 466.64 420.973 467.544 421.877C468.448 422.78 468.899 423.878 468.899 425.169C468.899 427.686 467.253 431.914 463.961 437.853C460.669 443.727 459.023 447.341 459.023 448.697C459.023 449.407 459.411 449.762 460.185 449.762C461.993 449.762 463.961 449.117 466.092 447.826C468.222 446.47 470.416 444.759 472.676 442.694C474.935 440.628 477.129 438.563 479.26 436.497C479.518 436.239 479.905 436.11 480.421 436.11C481.39 436.11 481.874 436.497 481.874 437.272C481.874 437.982 481.422 438.789 480.518 439.692C476.193 444.017 472.482 447.245 469.384 449.375C466.285 451.505 463.025 452.57 459.604 452.57C457.022 452.57 455.731 451.376 455.731 448.987C455.731 448.084 455.893 447.212 456.215 446.373C456.538 445.534 457.055 444.404 457.765 442.984L462.219 434.173C463.316 431.979 464.123 430.139 464.639 428.654C465.156 427.17 465.414 426.04 465.414 425.266C465.414 424.168 464.736 423.62 463.38 423.62C460.992 423.62 458.184 424.588 454.957 426.524C451.794 428.396 448.405 431.236 444.79 435.045C442.725 437.24 440.853 439.563 439.174 442.016C437.561 444.469 436.27 447.116 435.302 449.956L434.14 453.345C433.688 454.571 432.978 455.184 432.01 455.184ZM505.551 456.637C501.936 456.637 500.129 455.442 500.129 453.054C500.129 451.569 500.645 450.085 501.678 448.6C502.775 447.116 504.066 445.76 505.551 444.534C507.036 443.307 508.424 442.371 509.714 441.726C510.102 441.532 510.618 441.338 511.264 441.145C511.974 440.951 512.555 440.854 513.007 440.854C513.523 440.854 513.781 441.048 513.781 441.435C513.781 441.758 513.426 442.113 512.716 442.5C509.747 443.92 507.423 445.631 505.745 447.632C504.131 449.568 503.324 451.15 503.324 452.376C503.324 453.538 504.325 454.119 506.326 454.119C508.004 454.119 509.811 453.7 511.748 452.86C513.749 452.021 515.621 450.924 517.364 449.568C519.171 448.213 520.656 446.761 521.817 445.211C522.979 443.662 523.56 442.178 523.56 440.757C523.56 439.789 523.238 438.918 522.592 438.143C522.011 437.369 521.043 436.788 519.687 436.4L513.297 434.464C511.683 433.947 510.521 433.27 509.811 432.431C509.101 431.591 508.746 430.655 508.746 429.623C508.746 427.686 509.456 425.943 510.876 424.394C512.361 422.845 514.201 421.619 516.395 420.715C518.59 419.811 520.72 419.359 522.786 419.359C524.851 419.359 526.659 419.876 528.208 420.909C529.757 421.877 530.532 423.2 530.532 424.878C530.532 425.847 530.241 426.75 529.66 427.589C529.144 428.429 528.531 428.848 527.821 428.848C526.723 428.848 526.175 428.396 526.175 427.493C526.175 427.17 526.336 426.783 526.659 426.331C527.046 425.814 527.24 425.33 527.24 424.878C527.24 422.942 525.755 421.974 522.786 421.974C521.172 421.974 519.558 422.329 517.945 423.039C516.395 423.684 515.104 424.556 514.072 425.653C513.039 426.75 512.522 427.944 512.522 429.235C512.522 430.526 513.813 431.559 516.395 432.334L522.592 434.27C524.464 434.851 525.755 435.658 526.465 436.691C527.175 437.659 527.53 438.756 527.53 439.983C527.53 442.888 525.755 445.889 522.205 448.987C516.46 454.087 510.909 456.637 505.551 456.637ZM541.431 452.957C536.203 452.957 533.588 450.02 533.588 444.146C533.588 441.435 534.234 438.595 535.525 435.626C536.816 432.657 538.526 429.913 540.657 427.396C542.787 424.814 545.143 422.716 547.725 421.102C550.371 419.488 553.05 418.682 555.761 418.682C558.149 418.682 559.892 419.585 560.99 421.393C562.087 423.2 562.636 425.201 562.636 427.396C562.636 430.3 562.055 433.27 560.893 436.304C559.731 439.273 558.149 442.016 556.148 444.534C554.147 447.051 551.888 449.084 549.371 450.633C546.853 452.183 544.207 452.957 541.431 452.957ZM541.334 449.859C541.722 449.859 541.948 449.827 542.012 449.762C544.53 449.439 546.853 448.536 548.983 447.051C551.114 445.566 552.953 443.727 554.502 441.532C556.116 439.273 557.343 436.852 558.182 434.27C559.021 431.688 559.44 429.139 559.44 426.621C559.44 425.137 559.021 423.975 558.182 423.135C557.343 422.296 556.277 421.877 554.986 421.877C553.115 421.877 551.114 422.651 548.983 424.201C546.918 425.75 544.949 427.718 543.077 430.107C541.27 432.495 539.785 435.013 538.623 437.659C537.461 440.241 536.88 442.565 536.88 444.63C536.88 448.116 538.365 449.859 541.334 449.859ZM576.385 456.056C573.416 456.056 571.125 455.152 569.511 453.345C567.962 451.473 567.187 449.02 567.187 445.986C567.187 443.791 567.574 441.145 568.349 438.046C569.704 432.818 571.996 426.75 575.223 419.843C577.741 414.615 580.452 409.483 583.357 404.448C586.261 399.349 589.457 394.347 592.942 389.441C598.493 381.566 602.366 377.628 604.561 377.628C605.981 377.628 606.691 378.016 606.691 378.79C606.691 379.887 604.884 382.631 601.269 387.02L594.491 395.25C588.617 402.351 583.809 409.612 580.065 417.036C576.385 424.459 573.513 431.882 571.447 439.305C570.866 441.435 570.576 443.436 570.576 445.308C570.576 450.214 572.577 452.667 576.579 452.667C577.999 452.667 579.451 452.247 580.936 451.408C582.421 450.633 583.228 450.246 583.357 450.246C584.131 450.246 584.519 450.795 584.519 451.892C584.519 452.86 584.164 453.603 583.453 454.119C581.259 455.41 578.903 456.056 576.385 456.056ZM617.335 456.733C614.172 456.733 612.591 454.442 612.591 449.859C612.591 447.406 613.172 444.437 614.334 440.951C606.523 450.053 600.391 454.603 595.937 454.603C592.258 454.603 590.418 452.376 590.418 447.922C590.418 446.244 590.676 444.243 591.193 441.919C591.774 439.531 592.516 437.078 593.42 434.561C594.388 432.043 595.421 429.687 596.518 427.493C597.615 425.298 598.713 423.523 599.81 422.167C600.197 421.715 600.681 421.489 601.262 421.489C601.585 421.489 601.908 421.619 602.231 421.877C602.553 422.07 602.715 422.393 602.715 422.845C602.715 423.232 602.489 423.781 602.037 424.491C599.132 429.268 597.067 433.431 595.84 436.981C594.291 441.048 593.516 444.566 593.516 447.535C593.516 450.311 594.226 451.699 595.647 451.699C596.55 451.699 597.744 451.247 599.229 450.343C600.714 449.439 602.231 448.342 603.78 447.051C605.393 445.695 606.781 444.437 607.943 443.275C611.171 439.854 614.075 436.207 616.657 432.334C617.819 430.526 618.852 428.784 619.756 427.105C620.724 425.362 621.595 423.555 622.37 421.683C622.693 420.973 622.951 420.457 623.144 420.134C623.403 419.747 623.758 419.553 624.21 419.553C625.565 419.553 626.243 420.069 626.243 421.102C626.243 421.748 626.017 422.2 625.565 422.458C618.981 435.819 615.689 445.018 615.689 450.053C615.689 451.408 615.818 452.376 616.076 452.957C616.335 453.474 616.786 453.732 617.432 453.732C618.336 453.732 619.723 453.151 621.595 451.989C623.532 450.827 625.791 449.052 628.373 446.664L638.54 437.369C639.056 436.852 639.54 436.594 639.992 436.594C641.025 436.594 641.541 437.078 641.541 438.046C641.541 438.886 639.508 441.145 635.441 444.824C633.698 446.438 632.149 447.793 630.794 448.891C629.438 449.988 628.179 450.956 627.017 451.795C624.823 453.345 622.886 454.539 621.208 455.378C619.53 456.282 618.239 456.733 617.335 456.733ZM647.617 454.797C644.196 454.797 641.517 453.796 639.58 451.795C637.644 449.794 636.676 447.116 636.676 443.759C636.676 437.95 639.419 431.624 644.906 424.781C647.746 421.296 650.618 418.649 653.523 416.842C656.492 414.97 659.268 414.034 661.85 414.034C664.109 414.034 665.852 414.809 667.078 416.358C668.305 417.907 668.918 419.843 668.918 422.167C668.918 423.587 668.724 425.04 668.337 426.524C668.079 427.557 667.562 428.074 666.788 428.074C665.561 428.074 664.948 427.396 664.948 426.04C664.948 425.459 665.045 424.717 665.239 423.813C665.497 422.845 665.626 421.909 665.626 421.005C665.626 418.423 664.367 417.132 661.85 417.132C660.494 417.132 658.848 417.617 656.912 418.585C655.04 419.553 653.168 420.844 651.296 422.458C649.424 424.007 647.778 425.782 646.358 427.783C642.033 433.657 639.871 438.918 639.871 443.565C639.871 448.923 642.291 451.602 647.133 451.602C650.166 451.602 653.071 451.15 655.847 450.246C658.622 449.278 661.882 447.309 665.626 444.34C667.95 442.533 669.693 441.08 670.854 439.983C672.016 438.886 673.275 437.724 674.631 436.497C675.018 436.239 675.373 436.11 675.696 436.11C676.018 436.11 676.341 436.207 676.664 436.4C676.987 436.594 677.148 436.884 677.148 437.272C677.148 437.982 676.503 438.982 675.212 440.273C674.114 441.306 672.952 442.403 671.726 443.565C670.499 444.663 668.563 446.212 665.916 448.213C663.076 450.408 660.042 452.054 656.815 453.151C653.652 454.248 650.586 454.797 647.617 454.797ZM698.071 457.992C697.426 457.992 696.941 457.605 696.619 456.83L695.263 453.538C693.843 450.117 691.81 446.728 689.163 443.372C686.517 439.951 683.903 436.82 681.321 433.98C679.9 436.884 678.642 439.499 677.544 441.823C676.447 444.146 675.447 446.341 674.543 448.407C673.639 450.408 672.671 452.505 671.638 454.7C671.38 455.346 670.928 455.668 670.283 455.668C669.185 455.668 668.637 455.216 668.637 454.313C668.637 453.925 668.766 453.441 669.024 452.86C669.347 452.215 669.637 451.569 669.895 450.924C671.574 446.857 673.736 442.016 676.383 436.4C679.094 430.785 682.16 424.652 685.581 418.004C692.1 405.288 697.329 396.186 701.266 390.699C702.17 389.408 703.041 388.247 703.881 387.214C704.784 386.181 705.559 385.665 706.204 385.665C707.366 385.665 707.947 386.278 707.947 387.504C707.947 389.183 705.494 393.636 700.588 400.866C700.201 401.447 699.523 402.415 698.555 403.771C697.587 405.126 696.554 406.611 695.457 408.225C694.359 409.774 693.327 411.226 692.358 412.582C691.455 413.873 690.842 414.776 690.519 415.293L683.547 429.139C699.168 420.037 707.56 415.486 708.722 415.486C709.754 415.486 710.271 416.067 710.271 417.229C710.271 417.939 709.884 418.456 709.109 418.778C706.269 420.134 704.01 421.231 702.331 422.07C700.718 422.91 699.072 423.781 697.393 424.685C695.973 425.588 694.134 426.686 691.874 427.977C689.68 429.268 687.065 430.752 684.032 432.431C685.581 434.109 687.259 436.078 689.066 438.337C690.874 440.532 692.552 442.823 694.101 445.211C695.715 447.535 697.038 449.698 698.071 451.699C699.104 453.7 699.62 455.313 699.62 456.54C699.62 457.508 699.104 457.992 698.071 457.992ZM706.024 485.49C702.087 485.49 700.118 483.166 700.118 478.519C700.118 474.581 700.957 470.773 702.635 467.094C702.894 466.448 703.313 466.125 703.894 466.125C705.056 466.125 705.637 466.642 705.637 467.674C705.637 467.933 705.54 468.255 705.346 468.643C705.217 469.095 705.056 469.579 704.862 470.095C704.411 471.322 704.055 472.613 703.797 473.968C703.539 475.324 703.41 476.744 703.41 478.228C703.41 479.907 703.636 481.036 704.088 481.617C704.54 482.198 705.121 482.489 705.831 482.489C707.509 482.489 709.478 481.714 711.737 480.165C714.061 478.616 716.449 476.163 718.902 472.806C720.645 470.418 722.452 467.578 724.324 464.286C726.196 460.994 728.197 457.218 730.327 452.957C733.167 447.341 735.781 441.629 738.17 435.819C736.556 437.885 734.878 439.886 733.135 441.823C731.392 443.759 729.52 445.566 727.519 447.245C722.162 451.828 717.708 454.119 714.157 454.119C709.897 454.119 707.767 451.666 707.767 446.761C707.767 445.018 708.09 442.92 708.735 440.467C709.445 438.014 710.414 435.206 711.64 432.043C711.834 431.527 711.931 431.107 711.931 430.785C711.931 430.397 712.027 430.01 712.221 429.623C713.254 427.363 714.964 424.846 717.353 422.07C717.869 421.489 718.321 421.199 718.708 421.199C719.676 421.199 720.161 421.909 720.161 423.329C713.899 432.56 710.769 440.37 710.769 446.761C710.769 449.472 711.834 450.827 713.964 450.827C716.352 450.827 719.676 449.181 723.937 445.889C726.97 443.565 729.778 440.951 732.36 438.046C734.942 435.077 737.266 432.011 739.332 428.848C740.752 426.718 741.881 424.846 742.721 423.232C743.624 421.554 744.173 420.424 744.367 419.843C744.689 418.875 745.141 418.391 745.722 418.391C746.948 418.391 747.562 418.908 747.562 419.94C747.562 420.457 747.304 421.393 746.787 422.748C746.335 424.039 745.754 425.588 745.044 427.396C744.012 430.042 742.527 433.592 740.59 438.046C738.654 442.5 736.233 447.793 733.329 453.925C729.714 461.542 726.164 467.771 722.678 472.613C720.096 476.292 717.256 479.358 714.157 481.811C711.124 484.264 708.413 485.49 706.024 485.49Z" fill="black"/>
</svg>
