<svg width="297" height="96" viewBox="0 0 297 96" fill="none" xmlns="http://www.w3.org/2000/svg">
<path d="M5.95994 33.9991C4.9706 33.9991 4.19594 33.7097 3.63594 33.1311C3.07594 32.5524 2.79594 31.7777 2.79594 30.8071C2.79594 29.1271 3.58927 27.2977 5.17594 25.3191C5.99727 24.3111 6.82794 23.5457 7.66794 23.0231C8.5266 22.4817 9.32927 22.2111 10.0759 22.2111C10.7293 22.2111 11.2333 22.4351 11.5879 22.8831C11.9426 23.3311 12.1199 23.8911 12.1199 24.5631C12.1199 24.9737 12.0639 25.3937 11.9519 25.8231C11.8773 26.1217 11.7279 26.2711 11.5039 26.2711C11.1493 26.2711 10.9719 26.0751 10.9719 25.6831C10.9719 25.5151 10.9999 25.3004 11.0559 25.0391C11.1306 24.7591 11.1679 24.4884 11.1679 24.2271C11.1679 23.4804 10.8039 23.1071 10.0759 23.1071C9.68394 23.1071 9.20794 23.2471 8.64794 23.5271C8.1066 23.8071 7.56527 24.1804 7.02394 24.6471C6.4826 25.0951 6.0066 25.6084 5.59594 26.1871C4.34527 27.8857 3.71994 29.4071 3.71994 30.7511C3.71994 32.3004 4.41994 33.0751 5.81994 33.0751C6.69727 33.0751 7.53727 32.9444 8.33994 32.6831C9.1426 32.4031 10.0853 31.8337 11.1679 30.9751C11.8399 30.4524 12.3439 30.0324 12.6799 29.7151C13.0159 29.3977 13.3799 29.0617 13.7719 28.7071C13.8839 28.6324 13.9866 28.5951 14.0799 28.5951C14.1733 28.5951 14.2666 28.6231 14.3599 28.6791C14.4533 28.7351 14.4999 28.8191 14.4999 28.9311C14.4999 29.1364 14.3133 29.4257 13.9399 29.7991C13.6226 30.0977 13.2866 30.4151 12.9319 30.7511C12.5773 31.0684 12.0173 31.5164 11.2519 32.0951C10.4306 32.7297 9.55327 33.2057 8.61994 33.5231C7.70527 33.8404 6.8186 33.9991 5.95994 33.9991ZM15.9586 34.3631C15.0999 34.3631 14.4372 34.1017 13.9706 33.5791C13.5226 33.0377 13.2986 32.3284 13.2986 31.4511C13.2986 30.8164 13.4106 30.0511 13.6346 29.1551C14.0266 27.6431 14.6892 25.8884 15.6226 23.8911C16.3506 22.3791 17.1346 20.8951 17.9746 19.4391C18.8146 17.9644 19.7386 16.5177 20.7466 15.0991C22.3519 12.8217 23.4719 11.6831 24.1066 11.6831C24.5172 11.6831 24.7226 11.7951 24.7226 12.0191C24.7226 12.3364 24.1999 13.1297 23.1546 14.3991L21.1946 16.7791C19.4959 18.8324 18.1052 20.9324 17.0226 23.0791C15.9586 25.2257 15.1279 27.3724 14.5306 29.5191C14.3626 30.1351 14.2786 30.7137 14.2786 31.2551C14.2786 32.6737 14.8572 33.3831 16.0146 33.3831C16.4252 33.3831 16.8452 33.2617 17.2746 33.0191C17.7039 32.7951 17.9372 32.6831 17.9746 32.6831C18.1986 32.6831 18.3106 32.8417 18.3106 33.1591C18.3106 33.4391 18.2079 33.6537 18.0026 33.8031C17.3679 34.1764 16.6866 34.3631 15.9586 34.3631ZM26.0086 22.5751C25.6913 22.5751 25.5326 22.4164 25.5326 22.0991C25.5326 22.0057 25.5979 21.8377 25.7286 21.5951C25.8593 21.3337 26.0086 21.0724 26.1766 20.8111C26.3446 20.5497 26.4753 20.3724 26.5686 20.2791C26.8859 19.9244 27.1286 19.7004 27.2966 19.6071C27.4833 19.5137 27.6513 19.4671 27.8006 19.4671C28.1926 19.4671 28.3886 19.6444 28.3886 19.9991C28.3886 20.1297 28.3046 20.2884 28.1366 20.4751C27.9873 20.6431 27.8099 20.8017 27.6046 20.9511C27.3059 21.1377 27.1193 21.2871 27.0446 21.3991L26.4286 22.2671C26.4099 22.3417 26.3633 22.4164 26.2886 22.4911C26.2326 22.5471 26.1393 22.5751 26.0086 22.5751ZM21.2486 33.9151C20.7259 33.9151 20.3433 33.8124 20.1006 33.6071C19.8766 33.4017 19.7646 33.0937 19.7646 32.6831C19.7646 32.2911 19.8859 31.7591 20.1286 31.0871C20.3713 30.3964 20.6793 29.6591 21.0526 28.8751C21.4446 28.0911 21.8553 27.3444 22.2846 26.6351C22.7139 25.9257 23.1246 25.3471 23.5166 24.8991C23.9273 24.4324 24.2539 24.1991 24.4966 24.1991C24.8326 24.1991 25.0006 24.3484 25.0006 24.6471C25.0006 24.8337 24.8419 25.1884 24.5246 25.7111C24.2073 26.2337 23.8619 26.7751 23.4886 27.3351C23.3393 27.5404 23.1339 27.8204 22.8726 28.1751C22.6113 28.5297 22.3593 28.8657 22.1166 29.1831C21.8739 29.4817 21.7153 29.6871 21.6406 29.7991C21.4539 30.0791 21.2579 30.5364 21.0526 31.1711C20.8286 31.8057 20.7166 32.2911 20.7166 32.6271C20.7166 32.7764 20.7446 32.8884 20.8006 32.9631C20.8753 33.0377 21.0339 33.0751 21.2766 33.0751C21.7433 33.0751 22.2659 32.9257 22.8446 32.6271C23.4233 32.3284 24.0113 31.9551 24.6086 31.5071C25.2059 31.0404 25.7659 30.5644 26.2886 30.0791C26.8299 29.5937 27.2873 29.1737 27.6606 28.8191C27.7353 28.7444 27.8473 28.7071 27.9966 28.7071C28.2766 28.7071 28.4166 28.8191 28.4166 29.0431C28.4166 29.2484 28.2859 29.4817 28.0246 29.7431C27.5206 30.2471 27.0539 30.6951 26.6246 31.0871C26.1953 31.4791 25.7846 31.8244 25.3926 32.1231C24.7766 32.5711 24.0953 32.9817 23.3486 33.3551C22.6019 33.7284 21.9019 33.9151 21.2486 33.9151ZM30.2685 33.9991C29.2792 33.9991 28.5045 33.7097 27.9445 33.1311C27.3845 32.5524 27.1045 31.7777 27.1045 30.8071C27.1045 29.1271 27.8979 27.2977 29.4845 25.3191C30.3059 24.3111 31.1365 23.5457 31.9765 23.0231C32.8352 22.4817 33.6379 22.2111 34.3845 22.2111C35.0379 22.2111 35.5419 22.4351 35.8965 22.8831C36.2512 23.3311 36.4285 23.8911 36.4285 24.5631C36.4285 24.9737 36.3725 25.3937 36.2605 25.8231C36.1859 26.1217 36.0365 26.2711 35.8125 26.2711C35.4579 26.2711 35.2805 26.0751 35.2805 25.6831C35.2805 25.5151 35.3085 25.3004 35.3645 25.0391C35.4392 24.7591 35.4765 24.4884 35.4765 24.2271C35.4765 23.4804 35.1125 23.1071 34.3845 23.1071C33.9925 23.1071 33.5165 23.2471 32.9565 23.5271C32.4152 23.8071 31.8739 24.1804 31.3325 24.6471C30.7912 25.0951 30.3152 25.6084 29.9045 26.1871C28.6539 27.8857 28.0285 29.4071 28.0285 30.7511C28.0285 32.3004 28.7285 33.0751 30.1285 33.0751C31.0059 33.0751 31.8459 32.9444 32.6485 32.6831C33.4512 32.4031 34.3939 31.8337 35.4765 30.9751C36.1485 30.4524 36.6525 30.0324 36.9885 29.7151C37.3245 29.3977 37.6885 29.0617 38.0805 28.7071C38.1925 28.6324 38.2952 28.5951 38.3885 28.5951C38.4819 28.5951 38.5752 28.6231 38.6685 28.6791C38.7619 28.7351 38.8085 28.8191 38.8085 28.9311C38.8085 29.1364 38.6219 29.4257 38.2485 29.7991C37.9312 30.0977 37.5952 30.4151 37.2405 30.7511C36.8859 31.0684 36.3259 31.5164 35.5605 32.0951C34.7392 32.7297 33.8619 33.2057 32.9285 33.5231C32.0139 33.8404 31.1272 33.9991 30.2685 33.9991ZM44.8592 34.9231C44.6725 34.9231 44.5325 34.8111 44.4392 34.5871L44.0472 33.6351C43.6365 32.6457 43.0485 31.6657 42.2832 30.6951C41.5178 29.7057 40.7618 28.8004 40.0152 27.9791C39.6045 28.8191 39.2405 29.5751 38.9232 30.2471C38.6058 30.9191 38.3165 31.5537 38.0552 32.1511C37.7938 32.7297 37.5138 33.3364 37.2152 33.9711C37.1405 34.1577 37.0098 34.2511 36.8232 34.2511C36.5058 34.2511 36.3472 34.1204 36.3472 33.8591C36.3472 33.7471 36.3845 33.6071 36.4592 33.4391C36.5525 33.2524 36.6365 33.0657 36.7112 32.8791C37.1965 31.7031 37.8218 30.3031 38.5872 28.6791C39.3712 27.0551 40.2578 25.2817 41.2472 23.3591C43.1325 19.6817 44.6445 17.0497 45.7832 15.4631C46.0445 15.0897 46.2965 14.7537 46.5392 14.4551C46.8005 14.1564 47.0245 14.0071 47.2112 14.0071C47.5472 14.0071 47.7152 14.1844 47.7152 14.5391C47.7152 15.0244 47.0058 16.3124 45.5872 18.4031C45.4752 18.5711 45.2792 18.8511 44.9992 19.2431C44.7192 19.6351 44.4205 20.0644 44.1032 20.5311C43.7858 20.9791 43.4872 21.3991 43.2072 21.7911C42.9458 22.1644 42.7685 22.4257 42.6752 22.5751L40.6592 26.5791C45.1765 23.9471 47.6032 22.6311 47.9392 22.6311C48.2378 22.6311 48.3872 22.7991 48.3872 23.1351C48.3872 23.3404 48.2752 23.4897 48.0512 23.5831C47.2298 23.9751 46.5765 24.2924 46.0912 24.5351C45.6245 24.7777 45.1485 25.0297 44.6632 25.2911C44.2525 25.5524 43.7205 25.8697 43.0672 26.2431C42.4325 26.6164 41.6765 27.0457 40.7992 27.5311C41.2472 28.0164 41.7325 28.5857 42.2552 29.2391C42.7778 29.8737 43.2632 30.5364 43.7112 31.2271C44.1778 31.8991 44.5605 32.5244 44.8592 33.1031C45.1578 33.6817 45.3072 34.1484 45.3072 34.5031C45.3072 34.7831 45.1578 34.9231 44.8592 34.9231ZM56.3269 33.4671C54.8149 33.4671 54.0589 32.6177 54.0589 30.9191C54.0589 30.1351 54.2456 29.3137 54.6189 28.4551C54.9922 27.5964 55.4869 26.8031 56.1029 26.0751C56.7189 25.3284 57.4002 24.7217 58.1469 24.2551C58.9122 23.7884 59.6869 23.5551 60.4709 23.5551C61.1616 23.5551 61.6656 23.8164 61.9829 24.3391C62.3002 24.8617 62.4589 25.4404 62.4589 26.0751C62.4589 26.9151 62.2909 27.7737 61.9549 28.6511C61.6189 29.5097 61.1616 30.3031 60.5829 31.0311C60.0042 31.7591 59.3509 32.3471 58.6229 32.7951C57.8949 33.2431 57.1296 33.4671 56.3269 33.4671ZM56.2989 32.5711C56.4109 32.5711 56.4762 32.5617 56.4949 32.5431C57.2229 32.4497 57.8949 32.1884 58.5109 31.7591C59.1269 31.3297 59.6589 30.7977 60.1069 30.1631C60.5736 29.5097 60.9282 28.8097 61.1709 28.0631C61.4136 27.3164 61.5349 26.5791 61.5349 25.8511C61.5349 25.4217 61.4136 25.0857 61.1709 24.8431C60.9282 24.6004 60.6202 24.4791 60.2469 24.4791C59.7056 24.4791 59.1269 24.7031 58.5109 25.1511C57.9136 25.5991 57.3442 26.1684 56.8029 26.8591C56.2802 27.5497 55.8509 28.2777 55.5149 29.0431C55.1789 29.7897 55.0109 30.4617 55.0109 31.0591C55.0109 32.0671 55.4402 32.5711 56.2989 32.5711ZM62.4031 34.3071C62.1045 34.3071 61.9551 34.1857 61.9551 33.9431C61.9551 33.8497 61.9925 33.7377 62.0671 33.6071C62.1418 33.4577 62.2071 33.3364 62.2631 33.2431L64.7831 28.1751C65.8658 25.9724 66.4071 24.7497 66.4071 24.5071C66.4071 24.2457 66.5378 24.1151 66.7991 24.1151C67.1538 24.1151 67.3311 24.3017 67.3311 24.6751C67.3311 24.8057 67.2471 25.0857 67.0791 25.5151C66.9111 25.9444 66.6965 26.4297 66.4351 26.9711C65.9871 27.9417 65.6138 28.6884 65.3151 29.2111C65.8751 28.5577 66.4445 27.9417 67.0231 27.3631C67.6018 26.7844 68.1898 26.2337 68.7871 25.7111C70.5605 24.1617 71.9231 23.3871 72.8751 23.3871C73.5285 23.3871 73.8551 23.6951 73.8551 24.3111C73.8551 24.8711 73.3791 26.1311 72.4271 28.0911C71.4751 30.0697 70.9991 31.3204 70.9991 31.8431C70.9991 32.0857 71.0831 32.2071 71.2511 32.2071C71.3071 32.2071 71.3911 32.1884 71.5031 32.1511C71.6338 32.0951 71.7645 32.0671 71.8951 32.0671C72.2125 32.0671 72.3711 32.2164 72.3711 32.5151C72.3711 32.8884 71.9698 33.0751 71.1671 33.0751C70.7938 33.0751 70.5231 32.9911 70.3551 32.8231C70.1871 32.6364 70.1031 32.3937 70.1031 32.0951C70.1031 31.1991 70.5605 29.8364 71.4751 28.0071C72.3898 26.1964 72.8471 25.1044 72.8471 24.7311C72.8471 24.5071 72.7631 24.3951 72.5951 24.3951C72.1845 24.3951 71.5218 24.7404 70.6071 25.4311C69.6178 26.1777 68.6285 27.0364 67.6391 28.0071C66.6498 28.9777 65.7071 30.0884 64.8111 31.3391L62.8511 34.0551C62.7391 34.2231 62.5898 34.3071 62.4031 34.3071ZM81.5171 34.5591C81.1997 34.5591 81.0411 34.4097 81.0411 34.1111C81.0411 34.0924 81.1531 33.8591 81.3771 33.4111C81.6011 32.9631 81.9184 32.3004 82.3291 31.4231L83.7571 28.4271C84.3357 27.2137 84.7464 26.2524 84.9891 25.5431C85.2504 24.8337 85.3811 24.3764 85.3811 24.1711C85.3811 23.8724 85.5304 23.7231 85.8291 23.7231C86.1277 23.7231 86.2771 23.8724 86.2771 24.1711C86.2771 24.4137 86.1931 24.7964 86.0251 25.3191C85.8757 25.8231 85.6237 26.4764 85.2691 27.2791L83.8411 30.5271C87.7424 25.5991 90.6824 23.1351 92.6611 23.1351C93.0344 23.1351 93.3237 23.2937 93.5291 23.6111C93.7344 23.9097 93.8371 24.2457 93.8371 24.6191C93.8371 25.5151 93.1931 27.0737 91.9051 29.2951C92.8944 28.2871 93.8931 27.2791 94.9011 26.2711C95.9277 25.2444 96.9544 24.2364 97.9811 23.2471C98.2424 23.0044 98.4571 22.8831 98.6251 22.8831C98.8491 22.8831 99.0357 22.9951 99.1851 23.2191C99.3344 23.4244 99.4091 23.6484 99.4091 23.8911C99.4091 24.0777 99.3251 24.3111 99.1571 24.5911C98.9144 25.0017 98.6904 25.4964 98.4851 26.0751C98.2797 26.6351 98.0464 27.2697 97.7851 27.9791C97.4864 28.7817 97.2717 29.4817 97.1411 30.0791C97.0104 30.6764 96.9451 31.1617 96.9451 31.5351C96.9451 32.0017 97.0571 32.3471 97.2811 32.5711C97.5051 32.7764 97.7291 32.8791 97.9531 32.8791C98.3451 32.8791 98.7744 32.7764 99.2411 32.5711C99.7077 32.3657 100.09 32.1604 100.389 31.9551C100.986 31.5631 101.612 31.0777 102.265 30.4991C102.918 29.9017 103.544 29.3044 104.141 28.7071C104.216 28.6324 104.328 28.5951 104.477 28.5951C104.757 28.5951 104.897 28.7071 104.897 28.9311C104.897 29.1364 104.766 29.3697 104.505 29.6311C103.758 30.3777 103.086 31.0217 102.489 31.5631C101.892 32.0857 101.322 32.5151 100.781 32.8511C100.426 33.0564 99.9971 33.2711 99.4931 33.4951C98.9891 33.7191 98.4477 33.8311 97.8691 33.8311C97.3277 33.8311 96.8704 33.6631 96.4971 33.3271C96.1424 32.9911 95.9651 32.2724 95.9651 31.1711C95.9651 30.7417 96.0397 30.2377 96.1891 29.6591C96.3384 29.0617 96.5624 28.3991 96.8611 27.6711L98.3451 24.1431L94.3411 28.1751C93.8744 28.6417 93.4917 29.0337 93.1931 29.3511C92.8944 29.6684 92.6517 29.9297 92.4651 30.1351C92.1104 30.5084 91.7931 30.8724 91.5131 31.2271C91.2517 31.5817 91.0277 31.8897 90.8411 32.1511C90.7104 32.3564 90.5611 32.4591 90.3931 32.4591C90.0757 32.4591 89.9171 32.3284 89.9171 32.0671C89.9171 31.4884 90.4397 30.1537 91.4851 28.0631C92.5304 25.9724 93.0531 24.7217 93.0531 24.3111C93.0531 24.1244 92.8477 24.0311 92.4371 24.0311C90.7757 24.0311 87.8171 26.7471 83.5611 32.1791C83.2064 32.6831 82.6184 33.4391 81.7971 34.4471C81.7411 34.5217 81.6477 34.5591 81.5171 34.5591ZM104.427 33.8871C103.344 33.8871 102.803 33.3737 102.803 32.3471C102.803 31.6751 102.962 30.9564 103.279 30.1911C103.615 29.4071 104.063 28.6511 104.623 27.9231C105.183 27.1764 105.808 26.5044 106.499 25.9071C107.19 25.2911 107.899 24.8057 108.627 24.4511C109.355 24.0777 110.055 23.8911 110.727 23.8911C111.922 23.8911 112.519 24.4791 112.519 25.6551C112.519 26.4204 112.332 26.8031 111.959 26.8031C111.623 26.8031 111.455 26.6444 111.455 26.3271C111.455 26.1964 111.483 26.0657 111.539 25.9351C111.614 25.7857 111.651 25.6271 111.651 25.4591C111.651 24.9364 111.296 24.6751 110.587 24.6751C109.448 24.6751 108.02 25.5431 106.303 27.2791C105.892 27.7084 105.491 28.2124 105.099 28.7911C104.707 29.3697 104.38 29.9577 104.119 30.5551C103.876 31.1337 103.755 31.6844 103.755 32.2071C103.755 32.7111 104.035 32.9631 104.595 32.9631C105.08 32.9631 105.594 32.8137 106.135 32.5151C106.695 32.2164 107.18 31.9084 107.591 31.5911C108.412 30.9751 109.252 30.1351 110.111 29.0711C110.242 28.9217 110.41 28.7257 110.615 28.4831C110.82 28.2404 111.054 27.9697 111.315 27.6711C111.408 27.5777 111.52 27.5311 111.651 27.5311C111.95 27.5311 112.099 27.6804 112.099 27.9791L111.035 29.5751C110.326 30.6204 109.971 31.4791 109.971 32.1511C109.971 32.6364 110.204 32.8791 110.671 32.8791C111.063 32.8791 111.492 32.7764 111.959 32.5711C112.426 32.3657 112.808 32.1604 113.107 31.9551C113.704 31.5631 114.33 31.0777 114.983 30.4991C115.636 29.9017 116.262 29.3044 116.859 28.7071C116.934 28.6324 117.046 28.5951 117.195 28.5951C117.475 28.5951 117.615 28.7071 117.615 28.9311C117.615 29.1364 117.484 29.3697 117.223 29.6311C116.476 30.3777 115.804 31.0217 115.207 31.5631C114.61 32.0857 114.04 32.5151 113.499 32.8511C113.144 33.0564 112.706 33.2711 112.183 33.4951C111.66 33.7191 111.063 33.8311 110.391 33.8311C109.476 33.8311 109.019 33.3457 109.019 32.3751C109.019 32.0017 109.066 31.6937 109.159 31.4511C107.46 33.0751 105.883 33.8871 104.427 33.8871ZM116.47 42.8191C115.686 42.8191 115.098 42.5204 114.706 41.9231C114.314 41.3444 114.118 40.6817 114.118 39.9351C114.118 39.3751 114.146 38.8244 114.202 38.2831C114.239 37.7604 114.304 37.2377 114.398 36.7151C114.454 36.4164 114.584 36.2671 114.79 36.2671C115.163 36.2671 115.35 36.4631 115.35 36.8551C115.35 36.9671 115.322 37.1351 115.266 37.3591C115.21 37.5457 115.182 37.6857 115.182 37.7791C115.144 38.0777 115.116 38.3857 115.098 38.7031C115.079 39.0391 115.07 39.3751 115.07 39.7111C115.07 41.1857 115.611 41.9231 116.694 41.9231C117.011 41.9231 117.375 41.7084 117.786 41.2791C118.215 40.8497 118.598 40.3831 118.934 39.8791C119.718 38.7031 120.548 36.8457 121.426 34.3071L122.35 31.6471C120.838 33.4577 119.475 34.3631 118.262 34.3631C117.515 34.3631 116.936 34.0831 116.526 33.5231C116.115 32.9631 115.91 32.2817 115.91 31.4791C115.91 29.8737 116.619 28.1004 118.038 26.1591C119.587 24.0871 121.108 23.0511 122.602 23.0511C123.778 23.0511 124.552 23.7417 124.926 25.1231C125.635 23.4057 126.288 22.5471 126.886 22.5471C127.11 22.5471 127.222 22.7337 127.222 23.1071C127.222 23.8537 126.876 24.8524 126.186 26.1031C126.036 26.3457 125.85 26.6444 125.626 26.9991C125.42 27.3537 125.187 27.7737 124.926 28.2591L123.974 30.5831C123.787 31.0311 123.554 31.6004 123.274 32.2911C122.994 32.9631 122.676 33.7564 122.322 34.6711C121.911 35.7911 121.528 36.7524 121.174 37.5551C120.838 38.3764 120.53 39.0484 120.25 39.5711C119.036 41.7364 117.814 42.8191 116.582 42.8191H116.47ZM118.262 33.3831C119.438 33.3831 121.174 31.8057 123.47 28.6511L124.282 26.5791C124.151 26.4857 124.058 26.2897 124.002 25.9911C123.834 25.1884 123.638 24.6564 123.414 24.3951C123.19 24.1337 122.891 24.0031 122.518 24.0031C122.088 24.0031 121.594 24.1991 121.034 24.5911C120.474 24.9831 119.942 25.4684 119.438 26.0471C118.934 26.6071 118.532 27.1577 118.234 27.6991C117.338 29.2297 116.89 30.5457 116.89 31.6471C116.89 32.8044 117.347 33.3831 118.262 33.3831ZM138.331 33.9991C137.342 33.9991 136.567 33.7097 136.007 33.1311C135.447 32.5524 135.167 31.7777 135.167 30.8071C135.167 29.1271 135.96 27.2977 137.547 25.3191C138.368 24.3111 139.199 23.5457 140.039 23.0231C140.898 22.4817 141.7 22.2111 142.447 22.2111C143.1 22.2111 143.604 22.4351 143.959 22.8831C144.314 23.3311 144.491 23.8911 144.491 24.5631C144.491 24.9737 144.435 25.3937 144.323 25.8231C144.248 26.1217 144.099 26.2711 143.875 26.2711C143.52 26.2711 143.343 26.0751 143.343 25.6831C143.343 25.5151 143.371 25.3004 143.427 25.0391C143.502 24.7591 143.539 24.4884 143.539 24.2271C143.539 23.4804 143.175 23.1071 142.447 23.1071C142.055 23.1071 141.579 23.2471 141.019 23.5271C140.478 23.8071 139.936 24.1804 139.395 24.6471C138.854 25.0951 138.378 25.6084 137.967 26.1871C136.716 27.8857 136.091 29.4071 136.091 30.7511C136.091 32.3004 136.791 33.0751 138.191 33.0751C139.068 33.0751 139.908 32.9444 140.711 32.6831C141.514 32.4031 142.456 31.8337 143.539 30.9751C144.211 30.4524 144.715 30.0324 145.051 29.7151C145.387 29.3977 145.751 29.0617 146.143 28.7071C146.255 28.6324 146.358 28.5951 146.451 28.5951C146.544 28.5951 146.638 28.6231 146.731 28.6791C146.824 28.7351 146.871 28.8191 146.871 28.9311C146.871 29.1364 146.684 29.4257 146.311 29.7991C145.994 30.0977 145.658 30.4151 145.303 30.7511C144.948 31.0684 144.388 31.5164 143.623 32.0951C142.802 32.7297 141.924 33.2057 140.991 33.5231C140.076 33.8404 139.19 33.9991 138.331 33.9991ZM148.065 33.4671C146.553 33.4671 145.797 32.6177 145.797 30.9191C145.797 30.1351 145.984 29.3137 146.357 28.4551C146.731 27.5964 147.225 26.8031 147.841 26.0751C148.457 25.3284 149.139 24.7217 149.885 24.2551C150.651 23.7884 151.425 23.5551 152.209 23.5551C152.9 23.5551 153.404 23.8164 153.721 24.3391C154.039 24.8617 154.197 25.4404 154.197 26.0751C154.197 26.9151 154.029 27.7737 153.693 28.6511C153.357 29.5097 152.9 30.3031 152.321 31.0311C151.743 31.7591 151.089 32.3471 150.361 32.7951C149.633 33.2431 148.868 33.4671 148.065 33.4671ZM148.037 32.5711C148.149 32.5711 148.215 32.5617 148.233 32.5431C148.961 32.4497 149.633 32.1884 150.249 31.7591C150.865 31.3297 151.397 30.7977 151.845 30.1631C152.312 29.5097 152.667 28.8097 152.909 28.0631C153.152 27.3164 153.273 26.5791 153.273 25.8511C153.273 25.4217 153.152 25.0857 152.909 24.8431C152.667 24.6004 152.359 24.4791 151.985 24.4791C151.444 24.4791 150.865 24.7031 150.249 25.1511C149.652 25.5991 149.083 26.1684 148.541 26.8591C148.019 27.5497 147.589 28.2777 147.253 29.0431C146.917 29.7897 146.749 30.4617 146.749 31.0591C146.749 32.0671 147.179 32.5711 148.037 32.5711ZM156.745 33.8871C156.521 33.8871 156.409 33.8031 156.409 33.6351C156.111 33.1124 155.961 32.0391 155.961 30.4151C155.961 30.0231 155.989 29.5004 156.045 28.8471C156.101 28.1937 156.176 27.5124 156.269 26.8031C156.363 26.0937 156.465 25.4497 156.577 24.8711C156.689 24.2737 156.811 23.8444 156.941 23.5831C157.053 23.3591 157.193 23.2471 157.361 23.2471C157.66 23.2471 157.809 23.3684 157.809 23.6111C157.809 23.7417 157.791 23.8724 157.753 24.0031C157.716 24.1151 157.679 24.2551 157.641 24.4231C157.399 25.3564 157.203 26.3457 157.053 27.3911C156.923 28.4364 156.857 29.5097 156.857 30.6111C156.857 31.1151 156.876 31.5631 156.913 31.9551C156.969 32.3471 157.025 32.6831 157.081 32.9631C157.604 32.7577 158.183 32.3564 158.817 31.7591C159.452 31.1431 160.068 30.4617 160.665 29.7151C161.151 29.0991 161.589 28.4737 161.981 27.8391C162.392 27.2044 162.709 26.6071 162.933 26.0471C163.176 25.4871 163.297 25.0297 163.297 24.6751C163.297 24.4324 163.269 24.2644 163.213 24.1711C163.176 24.0777 163.129 24.0031 163.073 23.9471C163.017 23.8911 162.989 23.7884 162.989 23.6391C162.989 23.3591 163.129 23.2191 163.409 23.2191C163.596 23.2191 163.764 23.3591 163.913 23.6391C164.063 23.9191 164.137 24.2737 164.137 24.7031C164.137 26.0284 163.213 27.8857 161.365 30.2751C159.461 32.6831 157.921 33.8871 156.745 33.8871ZM166.972 34.1111C166.188 34.1111 165.572 33.8404 165.124 33.2991C164.676 32.7577 164.452 32.0951 164.452 31.3111C164.452 29.9671 164.9 28.5857 165.796 27.1671C166.039 26.7751 166.319 26.3924 166.636 26.0191C166.954 25.6271 167.299 25.2537 167.672 24.8991C168.232 24.3577 168.82 23.9097 169.436 23.5551C170.052 23.2004 170.65 23.0231 171.228 23.0231C172.18 23.0231 172.656 23.4711 172.656 24.3671C172.656 25.4871 172.003 26.5044 170.696 27.4191C169.483 28.2404 168.288 28.6511 167.112 28.6511C166.907 28.6511 166.72 28.6417 166.552 28.6231C166.403 28.5857 166.263 28.5484 166.132 28.5111C165.946 28.8657 165.778 29.3231 165.628 29.8831C165.479 30.4431 165.404 30.9284 165.404 31.3391C165.404 32.5711 165.946 33.1871 167.028 33.1871C167.906 33.1871 168.736 33.0377 169.52 32.7391C170.304 32.4217 171.238 31.8337 172.32 30.9751C172.992 30.4524 173.496 30.0324 173.832 29.7151C174.168 29.3977 174.532 29.0617 174.924 28.7071C175.036 28.6324 175.139 28.5951 175.232 28.5951C175.326 28.5951 175.419 28.6231 175.512 28.6791C175.606 28.7351 175.652 28.8191 175.652 28.9311C175.652 29.1364 175.466 29.4257 175.092 29.7991C174.775 30.0977 174.439 30.4151 174.084 30.7511C173.73 31.0684 173.17 31.5164 172.404 32.0951C171.583 32.7297 170.687 33.2244 169.716 33.5791C168.746 33.9337 167.831 34.1111 166.972 34.1111ZM166.944 27.7551C167.542 27.7551 168.111 27.6617 168.652 27.4751C169.194 27.2884 169.707 27.0177 170.192 26.6631C171.275 25.8604 171.816 25.1044 171.816 24.3951C171.816 24.0777 171.62 23.9191 171.228 23.9191C170.482 23.9191 169.614 24.3764 168.624 25.2911C168.139 25.7391 167.738 26.1497 167.42 26.5231C167.122 26.8777 166.842 27.2697 166.58 27.6991C166.692 27.7364 166.814 27.7551 166.944 27.7551ZM173.036 34.3071C172.737 34.3071 172.588 34.1857 172.588 33.9431C172.588 33.8311 172.616 33.7191 172.672 33.6071C172.747 33.4951 172.803 33.4017 172.84 33.3271L175.388 28.1751C176.471 25.9724 177.012 24.7497 177.012 24.5071C177.012 24.2457 177.143 24.1151 177.404 24.1151C177.759 24.1151 177.936 24.2924 177.936 24.6471C177.936 24.8337 177.852 25.1324 177.684 25.5431C177.516 25.9537 177.301 26.4297 177.04 26.9711C176.592 27.9417 176.219 28.6884 175.92 29.2111C176.48 28.5577 177.049 27.9417 177.628 27.3631C178.207 26.7844 178.795 26.2337 179.392 25.7111C181.165 24.1617 182.528 23.3871 183.48 23.3871C184.133 23.3871 184.46 23.6951 184.46 24.3111C184.46 24.9084 184.264 25.2071 183.872 25.2071C183.685 25.2071 183.545 25.0484 183.452 24.7311C183.396 24.5071 183.265 24.3951 183.06 24.3951C182.743 24.3951 182.127 24.7404 181.212 25.4311C180.204 26.1777 179.187 27.0644 178.16 28.0911C177.152 29.1177 176.079 30.4244 174.94 32.0111L173.54 33.9711C173.465 34.0644 173.391 34.1391 173.316 34.1951C173.26 34.2697 173.167 34.3071 173.036 34.3071ZM183.572 34.5311C182.527 34.5311 182.004 34.1857 182.004 33.4951C182.004 33.0657 182.153 32.6364 182.452 32.2071C182.769 31.7777 183.143 31.3857 183.572 31.0311C184.001 30.6764 184.403 30.4057 184.776 30.2191C184.888 30.1631 185.037 30.1071 185.224 30.0511C185.429 29.9951 185.597 29.9671 185.728 29.9671C185.877 29.9671 185.952 30.0231 185.952 30.1351C185.952 30.2284 185.849 30.3311 185.644 30.4431C184.785 30.8537 184.113 31.3484 183.628 31.9271C183.161 32.4871 182.928 32.9444 182.928 33.2991C182.928 33.6351 183.217 33.8031 183.796 33.8031C184.281 33.8031 184.804 33.6817 185.364 33.4391C185.943 33.1964 186.484 32.8791 186.988 32.4871C187.511 32.0951 187.94 31.6751 188.276 31.2271C188.612 30.7791 188.78 30.3497 188.78 29.9391C188.78 29.6591 188.687 29.4071 188.5 29.1831C188.332 28.9591 188.052 28.7911 187.66 28.6791L185.812 28.1191C185.345 27.9697 185.009 27.7737 184.804 27.5311C184.599 27.2884 184.496 27.0177 184.496 26.7191C184.496 26.1591 184.701 25.6551 185.112 25.2071C185.541 24.7591 186.073 24.4044 186.708 24.1431C187.343 23.8817 187.959 23.7511 188.556 23.7511C189.153 23.7511 189.676 23.9004 190.124 24.1991C190.572 24.4791 190.796 24.8617 190.796 25.3471C190.796 25.6271 190.712 25.8884 190.544 26.1311C190.395 26.3737 190.217 26.4951 190.012 26.4951C189.695 26.4951 189.536 26.3644 189.536 26.1031C189.536 26.0097 189.583 25.8977 189.676 25.7671C189.788 25.6177 189.844 25.4777 189.844 25.3471C189.844 24.7871 189.415 24.5071 188.556 24.5071C188.089 24.5071 187.623 24.6097 187.156 24.8151C186.708 25.0017 186.335 25.2537 186.036 25.5711C185.737 25.8884 185.588 26.2337 185.588 26.6071C185.588 26.9804 185.961 27.2791 186.708 27.5031L188.5 28.0631C189.041 28.2311 189.415 28.4644 189.62 28.7631C189.825 29.0431 189.928 29.3604 189.928 29.7151C189.928 30.5551 189.415 31.4231 188.388 32.3191C186.727 33.7937 185.121 34.5311 183.572 34.5311Z" fill="#E13939"/>
<path d="M1.79003 71.5391C1.43536 71.5391 1.25803 71.2591 1.25803 70.6991C1.25803 69.8777 1.71536 68.4404 2.63003 66.3871C3.56336 64.3337 4.9447 61.6457 6.77403 58.3231C6.0647 58.3231 5.3927 58.4164 4.75803 58.6031C4.14203 58.7711 3.81536 58.9857 3.77803 59.2471C3.75936 59.3217 3.7127 59.3964 3.63803 59.4711C3.58203 59.5271 3.4887 59.5551 3.35803 59.5551C3.05936 59.5551 2.91003 59.4057 2.91003 59.1071C2.91003 58.6217 3.2927 58.2204 4.05803 57.9031C4.82336 57.5857 5.8967 57.4271 7.27803 57.4271L9.21003 54.2351C9.3407 54.0297 9.4807 53.8057 9.63003 53.5631C9.77936 53.3017 9.94736 53.0217 10.134 52.7231C10.3207 52.4617 10.5354 52.3311 10.778 52.3311C10.9274 52.3311 11.0394 52.3777 11.114 52.4711C11.1887 52.5457 11.226 52.6297 11.226 52.7231C11.226 53.0031 10.8154 53.7497 9.99403 54.9631C8.96737 56.4751 8.4167 57.2964 8.34203 57.4271C8.62203 57.4271 9.04203 57.4551 9.60203 57.5111C10.162 57.5484 10.8247 57.6137 11.59 57.7071C11.87 57.7257 12.01 57.8657 12.01 58.1271C12.01 58.4257 11.842 58.5751 11.506 58.5751C11.3754 58.5751 11.114 58.5564 10.722 58.5191C10.33 58.4631 9.91003 58.4164 9.46203 58.3791C9.01403 58.3417 8.63136 58.3324 8.31403 58.3511L7.89403 58.3791C4.1047 65.0431 2.21936 69.1871 2.23803 70.8111L2.26603 71.0351V71.0911C2.26603 71.3897 2.10736 71.5391 1.79003 71.5391ZM10.4285 69.4671C8.91647 69.4671 8.16047 68.6177 8.16047 66.9191C8.16047 66.1351 8.34714 65.3137 8.72047 64.4551C9.0938 63.5964 9.58847 62.8031 10.2045 62.0751C10.8205 61.3284 11.5018 60.7217 12.2485 60.2551C13.0138 59.7884 13.7885 59.5551 14.5725 59.5551C15.2631 59.5551 15.7671 59.8164 16.0845 60.3391C16.4018 60.8617 16.5605 61.4404 16.5605 62.0751C16.5605 62.9151 16.3925 63.7737 16.0565 64.6511C15.7205 65.5097 15.2631 66.3031 14.6845 67.0311C14.1058 67.7591 13.4525 68.3471 12.7245 68.7951C11.9965 69.2431 11.2311 69.4671 10.4285 69.4671ZM10.4005 68.5711C10.5125 68.5711 10.5778 68.5617 10.5965 68.5431C11.3245 68.4497 11.9965 68.1884 12.6125 67.7591C13.2285 67.3297 13.7605 66.7977 14.2085 66.1631C14.6751 65.5097 15.0298 64.8097 15.2725 64.0631C15.5151 63.3164 15.6365 62.5791 15.6365 61.8511C15.6365 61.4217 15.5151 61.0857 15.2725 60.8431C15.0298 60.6004 14.7218 60.4791 14.3485 60.4791C13.8071 60.4791 13.2285 60.7031 12.6125 61.1511C12.0151 61.5991 11.4458 62.1684 10.9045 62.8591C10.3818 63.5497 9.95247 64.2777 9.61647 65.0431C9.28047 65.7897 9.11247 66.4617 9.11247 67.0591C9.11247 68.0671 9.5418 68.5711 10.4005 68.5711ZM23.6777 78.8471C23.0804 78.8471 22.6604 78.6417 22.4177 78.2311C22.1564 77.8391 22.0257 77.3071 22.0257 76.6351C22.0257 75.1044 22.7444 72.7431 24.1817 69.5511C24.1071 69.4764 24.0697 69.3831 24.0697 69.2711C24.0697 69.0844 24.2377 68.8977 24.5737 68.7111C25.5631 66.7137 26.4777 64.9497 27.3177 63.4191C28.1764 61.8697 28.9511 60.5537 29.6417 59.4711C31.9564 55.9244 34.0377 53.4697 35.8857 52.1071C36.1284 51.9204 36.3617 51.7711 36.5857 51.6591C36.8097 51.5471 37.0337 51.4911 37.2577 51.4911C37.5564 51.4911 37.7057 51.6124 37.7057 51.8551C37.7057 51.9857 37.6497 52.1257 37.5377 52.2751C37.4444 52.4057 37.2764 52.6204 37.0337 52.9191C36.7537 53.2364 36.4271 53.6097 36.0537 54.0391C35.6804 54.4497 35.2884 54.8791 34.8777 55.3271C34.4857 55.7751 34.1217 56.1857 33.7857 56.5591C33.4497 56.9137 33.1791 57.1937 32.9737 57.3991L30.3977 60.0591L29.5017 61.4871C29.2591 61.8604 28.9604 62.3737 28.6057 63.0271C28.2697 63.6617 27.8684 64.4177 27.4017 65.2951C27.2151 65.6497 26.9724 66.1071 26.6737 66.6671C26.3937 67.2271 26.0671 67.8897 25.6937 68.6551C25.8431 68.6737 25.9737 68.7111 26.0857 68.7671C26.2164 68.8044 26.3377 68.8511 26.4497 68.9071C29.0071 68.1231 31.4244 66.7417 33.7017 64.7631C33.8324 64.6697 33.9444 64.6231 34.0377 64.6231C34.3551 64.6231 34.5137 64.7631 34.5137 65.0431C34.5137 65.1177 34.4857 65.1924 34.4297 65.2671C34.3924 65.3417 34.3457 65.4164 34.2897 65.4911C34.0097 65.7897 33.6084 66.1351 33.0857 66.5271C32.5631 66.9191 31.9097 67.3391 31.1257 67.7871C30.4537 68.1604 29.8004 68.5057 29.1657 68.8231C28.5497 69.1217 27.9524 69.3737 27.3737 69.5791C27.8964 70.2137 28.1577 71.0257 28.1577 72.0151C28.1577 73.3777 27.7564 74.7964 26.9537 76.2711C26.0204 77.9884 24.9284 78.8471 23.6777 78.8471ZM23.5097 78.0071C24.0511 78.0071 24.5644 77.7831 25.0497 77.3351C25.5537 76.8871 25.9831 76.3084 26.3377 75.5991C26.5991 75.0951 26.8137 74.4884 26.9817 73.7791C27.1684 73.0884 27.2617 72.4817 27.2617 71.9591C27.2617 70.9137 26.9444 70.2137 26.3097 69.8591C26.0671 69.8964 25.8431 69.9244 25.6377 69.9431C25.4324 69.9804 25.2364 69.9897 25.0497 69.9711V69.9991C23.4817 73.4897 22.6977 75.8791 22.6977 77.1671C22.6977 77.4471 22.7724 77.6524 22.9217 77.7831C23.0711 77.9324 23.2671 78.0071 23.5097 78.0071ZM37.7897 70.3631C36.9311 70.3631 36.2684 70.1017 35.8017 69.5791C35.3537 69.0377 35.1297 68.3284 35.1297 67.4511C35.1297 66.8164 35.2417 66.0511 35.4657 65.1551C35.8577 63.6431 36.5204 61.8884 37.4537 59.8911C38.1817 58.3791 38.9657 56.8951 39.8057 55.4391C40.6457 53.9644 41.5697 52.5177 42.5777 51.0991C44.1831 48.8217 45.3031 47.6831 45.9377 47.6831C46.3484 47.6831 46.5537 47.7951 46.5537 48.0191C46.5537 48.3364 46.0311 49.1297 44.9857 50.3991L43.0257 52.7791C41.3271 54.8324 39.9364 56.9324 38.8537 59.0791C37.7897 61.2257 36.9591 63.3724 36.3617 65.5191C36.1937 66.1351 36.1097 66.7137 36.1097 67.2551C36.1097 68.6737 36.6884 69.3831 37.8457 69.3831C38.2564 69.3831 38.6764 69.2617 39.1057 69.0191C39.5351 68.7951 39.7684 68.6831 39.8057 68.6831C40.0297 68.6831 40.1417 68.8417 40.1417 69.1591C40.1417 69.4391 40.0391 69.6537 39.8337 69.8031C39.1991 70.1764 38.5177 70.3631 37.7897 70.3631ZM47.8406 58.5751C47.5233 58.5751 47.3646 58.4164 47.3646 58.0991C47.3646 58.0057 47.43 57.8377 47.5606 57.5951C47.6913 57.3337 47.8406 57.0724 48.0086 56.8111C48.1766 56.5497 48.3073 56.3724 48.4006 56.2791C48.718 55.9244 48.9606 55.7004 49.1286 55.6071C49.3153 55.5137 49.4833 55.4671 49.6326 55.4671C50.0246 55.4671 50.2206 55.6444 50.2206 55.9991C50.2206 56.1297 50.1366 56.2884 49.9686 56.4751C49.8193 56.6431 49.642 56.8017 49.4366 56.9511C49.138 57.1377 48.9513 57.2871 48.8766 57.3991L48.2606 58.2671C48.242 58.3417 48.1953 58.4164 48.1206 58.4911C48.0646 58.5471 47.9713 58.5751 47.8406 58.5751ZM43.0806 69.9151C42.558 69.9151 42.1753 69.8124 41.9326 69.6071C41.7086 69.4017 41.5966 69.0937 41.5966 68.6831C41.5966 68.2911 41.718 67.7591 41.9606 67.0871C42.2033 66.3964 42.5113 65.6591 42.8846 64.8751C43.2766 64.0911 43.6873 63.3444 44.1166 62.6351C44.546 61.9257 44.9566 61.3471 45.3486 60.8991C45.7593 60.4324 46.086 60.1991 46.3286 60.1991C46.6646 60.1991 46.8326 60.3484 46.8326 60.6471C46.8326 60.8337 46.674 61.1884 46.3566 61.7111C46.0393 62.2337 45.694 62.7751 45.3206 63.3351C45.1713 63.5404 44.966 63.8204 44.7046 64.1751C44.4433 64.5297 44.1913 64.8657 43.9486 65.1831C43.706 65.4817 43.5473 65.6871 43.4726 65.7991C43.286 66.0791 43.09 66.5364 42.8846 67.1711C42.6606 67.8057 42.5486 68.2911 42.5486 68.6271C42.5486 68.7764 42.5766 68.8884 42.6326 68.9631C42.7073 69.0377 42.866 69.0751 43.1086 69.0751C43.5753 69.0751 44.098 68.9257 44.6766 68.6271C45.2553 68.3284 45.8433 67.9551 46.4406 67.5071C47.038 67.0404 47.598 66.5644 48.1206 66.0791C48.662 65.5937 49.1193 65.1737 49.4926 64.8191C49.5673 64.7444 49.6793 64.7071 49.8286 64.7071C50.1086 64.7071 50.2486 64.8191 50.2486 65.0431C50.2486 65.2484 50.118 65.4817 49.8566 65.7431C49.3526 66.2471 48.886 66.6951 48.4566 67.0871C48.0273 67.4791 47.6166 67.8244 47.2246 68.1231C46.6086 68.5711 45.9273 68.9817 45.1806 69.3551C44.434 69.7284 43.734 69.9151 43.0806 69.9151ZM47.1726 77.3351C46.2952 77.3351 45.8566 76.7097 45.8566 75.4591C45.8566 73.8164 46.5752 71.2031 48.0126 67.6191C48.2552 67.0217 48.5446 66.3964 48.8806 65.7431C49.2166 65.0897 49.6086 64.3991 50.0566 63.6711C50.5232 62.8871 50.9619 62.2057 51.3726 61.6271C51.8019 61.0484 52.1752 60.5817 52.4926 60.2271C52.6046 60.1151 52.6979 60.0404 52.7726 60.0031C52.8659 59.9657 52.9406 59.9471 52.9966 59.9471C53.4819 59.9471 54.0326 60.0871 54.6486 60.3671C55.2646 60.6471 55.8152 61.0017 56.3006 61.4311C56.7486 61.8044 57.1126 62.2524 57.3926 62.7751C57.6726 63.2977 57.8126 63.8391 57.8126 64.3991C57.8126 64.8097 57.7286 65.2297 57.5606 65.6591C57.4112 66.0697 57.2059 66.4804 56.9446 66.8911C57.4299 66.7977 58.0179 66.5831 58.7086 66.2471C59.4179 65.9111 60.1366 65.3977 60.8646 64.7071C60.9392 64.6324 61.0419 64.5951 61.1726 64.5951C61.4526 64.5951 61.5926 64.7071 61.5926 64.9311C61.5926 65.0244 61.5459 65.1457 61.4526 65.2951C61.3779 65.4257 61.2379 65.5937 61.0326 65.7991C59.6512 67.0684 57.9899 67.7964 56.0486 67.9831C55.7686 68.2817 55.4606 68.5711 55.1246 68.8511C54.8072 69.1124 54.4712 69.3551 54.1166 69.5791C53.0339 70.2324 52.1099 70.5591 51.3446 70.5591C51.0272 70.5591 50.7659 70.4564 50.5606 70.2511C50.3552 70.0457 50.2526 69.8124 50.2526 69.5511C50.2526 68.6924 50.9992 68.0391 52.4926 67.5911C53.0339 67.4417 53.5752 67.3111 54.1166 67.1991C54.6579 67.0871 55.1899 66.9657 55.7126 66.8351C56.0859 66.2564 56.3566 65.7524 56.5246 65.3231C56.7112 64.8937 56.8046 64.5297 56.8046 64.2311C56.8046 63.2417 56.0672 62.2991 54.5926 61.4031C54.0139 61.0484 53.5566 60.8804 53.2206 60.8991C51.6899 62.5791 50.2432 64.9311 48.8806 67.9551C47.4619 71.0724 46.7526 73.5271 46.7526 75.3191C46.7526 75.7484 46.7899 76.0377 46.8646 76.1871C46.9392 76.3364 47.0699 76.4111 47.2566 76.4111C47.3126 76.4111 47.3592 76.4017 47.3966 76.3831C47.4339 76.3831 47.4712 76.3831 47.5086 76.3831C47.7512 76.3831 47.8726 76.5324 47.8726 76.8311C47.8726 77.1671 47.6392 77.3351 47.1726 77.3351ZM51.5406 69.6631C52.2312 69.6631 53.2299 69.1217 54.5366 68.0391C54.2379 68.0764 53.9486 68.1231 53.6686 68.1791C53.4072 68.2351 53.0246 68.3377 52.5206 68.4871C51.6806 68.7297 51.2606 69.0377 51.2606 69.4111C51.2606 69.5791 51.3539 69.6631 51.5406 69.6631ZM68.0439 71.5391C67.6893 71.5391 67.5119 71.2591 67.5119 70.6991C67.5119 69.8777 67.9693 68.4404 68.8839 66.3871C69.8173 64.3337 71.1986 61.6457 73.0279 58.3231C72.3186 58.3231 71.6466 58.4164 71.0119 58.6031C70.3959 58.7711 70.0693 58.9857 70.0319 59.2471C70.0133 59.3217 69.9666 59.3964 69.8919 59.4711C69.8359 59.5271 69.7426 59.5551 69.6119 59.5551C69.3133 59.5551 69.1639 59.4057 69.1639 59.1071C69.1639 58.6217 69.5466 58.2204 70.3119 57.9031C71.0773 57.5857 72.1506 57.4271 73.5319 57.4271L75.4639 54.2351C75.5946 54.0297 75.7346 53.8057 75.8839 53.5631C76.0333 53.3017 76.2013 53.0217 76.3879 52.7231C76.5746 52.4617 76.7893 52.3311 77.0319 52.3311C77.1813 52.3311 77.2933 52.3777 77.3679 52.4711C77.4426 52.5457 77.4799 52.6297 77.4799 52.7231C77.4799 53.0031 77.0693 53.7497 76.2479 54.9631C75.2213 56.4751 74.6706 57.2964 74.5959 57.4271C74.8759 57.4271 75.2959 57.4551 75.8559 57.5111C76.4159 57.5484 77.0786 57.6137 77.8439 57.7071C78.1239 57.7257 78.2639 57.8657 78.2639 58.1271C78.2639 58.4257 78.0959 58.5751 77.7599 58.5751C77.6293 58.5751 77.3679 58.5564 76.9759 58.5191C76.5839 58.4631 76.1639 58.4164 75.7159 58.3791C75.2679 58.3417 74.8853 58.3324 74.5679 58.3511L74.1479 58.3791C70.3586 65.0431 68.4733 69.1871 68.4919 70.8111L68.5199 71.0351V71.0911C68.5199 71.3897 68.3613 71.5391 68.0439 71.5391ZM74.0784 70.1111C73.7797 70.1111 73.6304 69.9617 73.6304 69.6631C73.6304 69.2711 73.7704 68.6551 74.0504 67.8151C74.3304 66.9564 74.6944 65.9764 75.1424 64.8751C75.609 63.7551 76.1037 62.6071 76.6264 61.4311C76.925 60.7777 77.233 60.1431 77.5504 59.5271C77.8677 58.8924 78.1664 58.3417 78.4464 57.8751C81.209 53.2084 82.9264 50.8751 83.5984 50.8751C83.8597 50.8751 83.9904 51.0057 83.9904 51.2671C83.9904 51.4351 83.8597 51.7524 83.5984 52.2191C83.3557 52.6671 83.029 53.1991 82.6184 53.8151C82.2264 54.4124 81.797 55.0191 81.3304 55.6351C80.8824 56.2511 80.453 56.8204 80.0424 57.3431C79.6504 57.8471 79.333 58.2297 79.0904 58.4911C78.885 58.7337 78.6517 59.0884 78.3904 59.5551C78.1477 60.0217 77.905 60.5071 77.6624 61.0111C77.4197 61.4964 77.2237 61.9257 77.0744 62.2991L76.0104 64.9311C76.2904 64.5577 76.6544 64.1377 77.1024 63.6711C78.1664 62.4951 79.2677 61.6084 80.4064 61.0111C81.5637 60.3951 82.5344 60.0871 83.3184 60.0871C83.7477 60.0871 84.093 60.2177 84.3544 60.4791C84.6157 60.7404 84.7464 61.0577 84.7464 61.4311C84.7464 62.1591 84.2704 63.3817 83.3184 65.0991C82.3664 66.7977 81.8904 67.8431 81.8904 68.2351C81.8904 68.4404 82.0024 68.5431 82.2264 68.5431C82.749 68.5431 83.3184 68.3564 83.9344 67.9831C84.5504 67.5911 85.185 67.0964 85.8384 66.4991C86.4917 65.9017 87.1264 65.3044 87.7424 64.7071C87.817 64.6324 87.929 64.5951 88.0784 64.5951C88.3584 64.5951 88.4984 64.7071 88.4984 64.9311C88.4984 65.1364 88.3677 65.3697 88.1064 65.6311C86.8557 66.8817 85.7824 67.8151 84.8864 68.4311C83.9904 69.0471 83.0477 69.3551 82.0584 69.3551C81.3117 69.3551 80.9384 69.0097 80.9384 68.3191C80.9384 68.0577 80.985 67.8057 81.0784 67.5631C81.1717 67.3204 81.321 66.9937 81.5264 66.5831L82.8144 64.0351C83.1317 63.4004 83.365 62.8684 83.5144 62.4391C83.6637 62.0097 83.7384 61.6831 83.7384 61.4591C83.7384 61.1417 83.5424 60.9831 83.1504 60.9831C82.4597 60.9831 81.6477 61.2631 80.7144 61.8231C79.7997 62.3644 78.8197 63.1857 77.7744 64.2871C77.177 64.9217 76.6357 65.5937 76.1504 66.3031C75.6837 67.0124 75.3104 67.7777 75.0304 68.5991L74.6944 69.5791C74.5637 69.9337 74.3584 70.1111 74.0784 70.1111ZM85.8484 70.3071C85.5498 70.3071 85.4004 70.1857 85.4004 69.9431C85.4004 69.8311 85.4284 69.7191 85.4844 69.6071C85.5591 69.4951 85.6151 69.4017 85.6524 69.3271L88.2004 64.1751C89.2831 61.9724 89.8244 60.7497 89.8244 60.5071C89.8244 60.2457 89.9551 60.1151 90.2164 60.1151C90.5711 60.1151 90.7484 60.2924 90.7484 60.6471C90.7484 60.8337 90.6644 61.1324 90.4964 61.5431C90.3284 61.9537 90.1138 62.4297 89.8524 62.9711C89.4044 63.9417 89.0311 64.6884 88.7324 65.2111C89.2924 64.5577 89.8618 63.9417 90.4404 63.3631C91.0191 62.7844 91.6071 62.2337 92.2044 61.7111C93.9778 60.1617 95.3404 59.3871 96.2924 59.3871C96.9458 59.3871 97.2724 59.6951 97.2724 60.3111C97.2724 60.9084 97.0764 61.2071 96.6844 61.2071C96.4978 61.2071 96.3578 61.0484 96.2644 60.7311C96.2084 60.5071 96.0778 60.3951 95.8724 60.3951C95.5551 60.3951 94.9391 60.7404 94.0244 61.4311C93.0164 62.1777 91.9991 63.0644 90.9724 64.0911C89.9644 65.1177 88.8911 66.4244 87.7524 68.0111L86.3524 69.9711C86.2778 70.0644 86.2031 70.1391 86.1284 70.1951C86.0724 70.2697 85.9791 70.3071 85.8484 70.3071ZM98.0925 69.4671C96.5805 69.4671 95.8245 68.6177 95.8245 66.9191C95.8245 66.1351 96.0112 65.3137 96.3845 64.4551C96.7579 63.5964 97.2525 62.8031 97.8685 62.0751C98.4845 61.3284 99.1659 60.7217 99.9125 60.2551C100.678 59.7884 101.453 59.5551 102.237 59.5551C102.927 59.5551 103.431 59.8164 103.749 60.3391C104.066 60.8617 104.225 61.4404 104.225 62.0751C104.225 62.9151 104.057 63.7737 103.721 64.6511C103.385 65.5097 102.927 66.3031 102.349 67.0311C101.77 67.7591 101.117 68.3471 100.389 68.7951C99.6605 69.2431 98.8952 69.4671 98.0925 69.4671ZM98.0645 68.5711C98.1765 68.5711 98.2419 68.5617 98.2605 68.5431C98.9885 68.4497 99.6605 68.1884 100.277 67.7591C100.893 67.3297 101.425 66.7977 101.873 66.1631C102.339 65.5097 102.694 64.8097 102.937 64.0631C103.179 63.3164 103.301 62.5791 103.301 61.8511C103.301 61.4217 103.179 61.0857 102.937 60.8431C102.694 60.6004 102.386 60.4791 102.013 60.4791C101.471 60.4791 100.893 60.7031 100.277 61.1511C99.6792 61.5991 99.1099 62.1684 98.5685 62.8591C98.0459 63.5497 97.6165 64.2777 97.2805 65.0431C96.9445 65.7897 96.7765 66.4617 96.7765 67.0591C96.7765 68.0671 97.2059 68.5711 98.0645 68.5711ZM112.961 70.5591C112.046 70.5591 111.589 69.8964 111.589 68.5711C111.589 67.8617 111.757 67.0031 112.093 65.9951C109.834 68.6271 108.061 69.9431 106.773 69.9431C105.709 69.9431 105.177 69.2991 105.177 68.0111C105.177 67.5257 105.251 66.9471 105.401 66.2751C105.569 65.5844 105.783 64.8751 106.045 64.1471C106.325 63.4191 106.623 62.7377 106.941 62.1031C107.258 61.4684 107.575 60.9551 107.893 60.5631C108.005 60.4324 108.145 60.3671 108.313 60.3671C108.406 60.3671 108.499 60.4044 108.593 60.4791C108.686 60.5351 108.733 60.6284 108.733 60.7591C108.733 60.8711 108.667 61.0297 108.537 61.2351C107.697 62.6164 107.099 63.8204 106.745 64.8471C106.297 66.0231 106.073 67.0404 106.073 67.8991C106.073 68.7017 106.278 69.1031 106.689 69.1031C106.95 69.1031 107.295 68.9724 107.725 68.7111C108.154 68.4497 108.593 68.1324 109.041 67.7591C109.507 67.3671 109.909 67.0031 110.245 66.6671C111.178 65.6777 112.018 64.6231 112.765 63.5031C113.101 62.9804 113.399 62.4764 113.661 61.9911C113.941 61.4871 114.193 60.9644 114.417 60.4231C114.51 60.2177 114.585 60.0684 114.641 59.9751C114.715 59.8631 114.818 59.8071 114.949 59.8071C115.341 59.8071 115.537 59.9564 115.537 60.2551C115.537 60.4417 115.471 60.5724 115.341 60.6471C113.437 64.5111 112.485 67.1711 112.485 68.6271C112.485 69.0191 112.522 69.2991 112.597 69.4671C112.671 69.6164 112.802 69.6911 112.989 69.6911C113.25 69.6911 113.651 69.5231 114.193 69.1871C114.753 68.8511 115.406 68.3377 116.153 67.6471L119.093 64.9591C119.242 64.8097 119.382 64.7351 119.513 64.7351C119.811 64.7351 119.961 64.8751 119.961 65.1551C119.961 65.3977 119.373 66.0511 118.197 67.1151C117.693 67.5817 117.245 67.9737 116.853 68.2911C116.461 68.6084 116.097 68.8884 115.761 69.1311C115.126 69.5791 114.566 69.9244 114.081 70.1671C113.595 70.4284 113.222 70.5591 112.961 70.5591ZM118.806 78.8191C118.022 78.8191 117.434 78.5204 117.042 77.9231C116.65 77.3444 116.454 76.6817 116.454 75.9351C116.454 75.3751 116.482 74.8244 116.538 74.2831C116.575 73.7604 116.64 73.2377 116.734 72.7151C116.79 72.4164 116.92 72.2671 117.126 72.2671C117.499 72.2671 117.686 72.4631 117.686 72.8551C117.686 72.9671 117.658 73.1351 117.602 73.3591C117.546 73.5457 117.518 73.6857 117.518 73.7791C117.48 74.0777 117.452 74.3857 117.434 74.7031C117.415 75.0391 117.406 75.3751 117.406 75.7111C117.406 77.1857 117.947 77.9231 119.03 77.9231C119.347 77.9231 119.711 77.7084 120.122 77.2791C120.551 76.8497 120.934 76.3831 121.27 75.8791C122.054 74.7031 122.884 72.8457 123.762 70.3071L124.686 67.6471C123.174 69.4577 121.811 70.3631 120.598 70.3631C119.851 70.3631 119.272 70.0831 118.862 69.5231C118.451 68.9631 118.246 68.2817 118.246 67.4791C118.246 65.8737 118.955 64.1004 120.374 62.1591C121.923 60.0871 123.444 59.0511 124.938 59.0511C126.114 59.0511 126.888 59.7417 127.262 61.1231C127.971 59.4057 128.624 58.5471 129.222 58.5471C129.446 58.5471 129.558 58.7337 129.558 59.1071C129.558 59.8537 129.212 60.8524 128.522 62.1031C128.372 62.3457 128.186 62.6444 127.962 62.9991C127.756 63.3537 127.523 63.7737 127.262 64.2591L126.31 66.5831C126.123 67.0311 125.89 67.6004 125.61 68.2911C125.33 68.9631 125.012 69.7564 124.658 70.6711C124.247 71.7911 123.864 72.7524 123.51 73.5551C123.174 74.3764 122.866 75.0484 122.586 75.5711C121.372 77.7364 120.15 78.8191 118.918 78.8191H118.806ZM120.598 69.3831C121.774 69.3831 123.51 67.8057 125.806 64.6511L126.618 62.5791C126.487 62.4857 126.394 62.2897 126.338 61.9911C126.17 61.1884 125.974 60.6564 125.75 60.3951C125.526 60.1337 125.227 60.0031 124.854 60.0031C124.424 60.0031 123.93 60.1991 123.37 60.5911C122.81 60.9831 122.278 61.4684 121.774 62.0471C121.27 62.6071 120.868 63.1577 120.57 63.6991C119.674 65.2297 119.226 66.5457 119.226 67.6471C119.226 68.8044 119.683 69.3831 120.598 69.3831ZM128.93 70.1111C128.631 70.1111 128.482 69.9617 128.482 69.6631C128.482 69.2711 128.622 68.6551 128.902 67.8151C129.182 66.9564 129.546 65.9764 129.994 64.8751C130.461 63.7551 130.955 62.6071 131.478 61.4311C131.777 60.7777 132.085 60.1431 132.402 59.5271C132.719 58.8924 133.018 58.3417 133.298 57.8751C136.061 53.2084 137.778 50.8751 138.45 50.8751C138.711 50.8751 138.842 51.0057 138.842 51.2671C138.842 51.4351 138.711 51.7524 138.45 52.2191C138.207 52.6671 137.881 53.1991 137.47 53.8151C137.078 54.4124 136.649 55.0191 136.182 55.6351C135.734 56.2511 135.305 56.8204 134.894 57.3431C134.502 57.8471 134.185 58.2297 133.942 58.4911C133.737 58.7337 133.503 59.0884 133.242 59.5551C132.999 60.0217 132.757 60.5071 132.514 61.0111C132.271 61.4964 132.075 61.9257 131.926 62.2991L130.862 64.9311C131.142 64.5577 131.506 64.1377 131.954 63.6711C133.018 62.4951 134.119 61.6084 135.258 61.0111C136.415 60.3951 137.386 60.0871 138.17 60.0871C138.599 60.0871 138.945 60.2177 139.206 60.4791C139.467 60.7404 139.598 61.0577 139.598 61.4311C139.598 62.1591 139.122 63.3817 138.17 65.0991C137.218 66.7977 136.742 67.8431 136.742 68.2351C136.742 68.4404 136.854 68.5431 137.078 68.5431C137.601 68.5431 138.17 68.3564 138.786 67.9831C139.402 67.5911 140.037 67.0964 140.69 66.4991C141.343 65.9017 141.978 65.3044 142.594 64.7071C142.669 64.6324 142.781 64.5951 142.93 64.5951C143.21 64.5951 143.35 64.7071 143.35 64.9311C143.35 65.1364 143.219 65.3697 142.958 65.6311C141.707 66.8817 140.634 67.8151 139.738 68.4311C138.842 69.0471 137.899 69.3551 136.91 69.3551C136.163 69.3551 135.79 69.0097 135.79 68.3191C135.79 68.0577 135.837 67.8057 135.93 67.5631C136.023 67.3204 136.173 66.9937 136.378 66.5831L137.666 64.0351C137.983 63.4004 138.217 62.8684 138.366 62.4391C138.515 62.0097 138.59 61.6831 138.59 61.4591C138.59 61.1417 138.394 60.9831 138.002 60.9831C137.311 60.9831 136.499 61.2631 135.566 61.8231C134.651 62.3644 133.671 63.1857 132.626 64.2871C132.029 64.9217 131.487 65.5937 131.002 66.3031C130.535 67.0124 130.162 67.7777 129.882 68.5991L129.546 69.5791C129.415 69.9337 129.21 70.1111 128.93 70.1111Z" fill="#E13939"/>
<path d="M283.365 78.9113C282.952 78.9354 282.597 78.6197 282.573 78.2062L282.18 71.4676C282.156 71.0541 282.471 70.6994 282.885 70.6753C283.298 70.6512 283.653 70.9668 283.677 71.3804L284.026 77.3702L290.016 77.021C290.43 76.9969 290.785 77.3126 290.809 77.7261C290.833 78.1396 290.517 78.4944 290.104 78.5185L283.365 78.9113ZM202.801 30.5512L202.801 29.8012C246.352 29.8012 270.2 37.7985 281.407 47.9466C287.033 53.0414 289.484 58.693 289.588 64.1228C289.691 69.5379 287.458 74.6422 283.882 78.6611L283.321 78.1626L282.761 77.664C286.131 73.8771 288.183 69.1271 288.088 64.1514C287.993 59.1906 285.763 53.9151 280.4 49.0584C269.628 39.3037 246.271 31.3012 202.801 31.3012L202.801 30.5512Z" fill="#E13939"/>
</svg>
