<svg width="493" height="173" viewBox="0 0 493 173" fill="none" xmlns="http://www.w3.org/2000/svg">
<path d="M12.67 59.65C12.15 59.65 11.89 59.455 11.89 59.065C11.1967 57.8517 10.85 55.36 10.85 51.59C10.85 50.68 10.915 49.4667 11.045 47.95C11.175 46.4333 11.3483 44.8517 11.565 43.205C11.7817 41.5583 12.02 40.0633 12.28 38.72C12.54 37.3333 12.8217 36.3367 13.125 35.73C13.385 35.21 13.71 34.95 14.1 34.95C14.7933 34.95 15.14 35.2317 15.14 35.795C15.14 36.0983 15.0967 36.4017 15.01 36.705C14.9233 36.965 14.8367 37.29 14.75 37.68C14.1867 39.8467 13.7317 42.1433 13.385 44.57C13.0817 46.9967 12.93 49.4883 12.93 52.045C12.93 53.215 12.9733 54.255 13.06 55.165C13.19 56.075 13.32 56.855 13.45 57.505C14.6633 57.0283 16.0067 56.0967 17.48 54.71C18.9533 53.28 20.3833 51.6983 21.77 49.965C22.8967 48.535 23.915 47.0833 24.825 45.61C25.7783 44.1367 26.515 42.75 27.035 41.45C27.5983 40.15 27.88 39.0883 27.88 38.265C27.88 37.7017 27.815 37.3117 27.685 37.095C27.5983 36.8783 27.49 36.705 27.36 36.575C27.23 36.445 27.165 36.2067 27.165 35.86C27.165 35.21 27.49 34.885 28.14 34.885C28.5733 34.885 28.9633 35.21 29.31 35.86C29.6567 36.51 29.83 37.3333 29.83 38.33C29.83 41.4067 27.685 45.7183 23.395 51.265C18.975 56.855 15.4 59.65 12.67 59.65ZM43.8857 33.39C43.1491 33.39 42.7807 33.0217 42.7807 32.285C42.7807 32.0683 42.9324 31.6783 43.2357 31.115C43.5391 30.5083 43.8857 29.9017 44.2757 29.295C44.6657 28.6883 44.9691 28.2767 45.1857 28.06C45.9224 27.2367 46.4857 26.7167 46.8757 26.5C47.3091 26.2833 47.6991 26.175 48.0457 26.175C48.9557 26.175 49.4107 26.5867 49.4107 27.41C49.4107 27.7133 49.2157 28.0817 48.8257 28.515C48.4791 28.905 48.0674 29.2733 47.5907 29.62C46.8974 30.0533 46.4641 30.4 46.2907 30.66L44.8607 32.675C44.8174 32.8483 44.7091 33.0217 44.5357 33.195C44.4057 33.325 44.1891 33.39 43.8857 33.39ZM32.8357 59.715C31.6224 59.715 30.7341 59.4767 30.1707 59C29.6507 58.5233 29.3907 57.8083 29.3907 56.855C29.3907 55.945 29.6724 54.71 30.2357 53.15C30.7991 51.5467 31.5141 49.835 32.3807 48.015C33.2907 46.195 34.2441 44.4617 35.2407 42.815C36.2374 41.1683 37.1907 39.825 38.1007 38.785C39.0541 37.7017 39.8124 37.16 40.3757 37.16C41.1557 37.16 41.5457 37.5067 41.5457 38.2C41.5457 38.6333 41.1774 39.4567 40.4407 40.67C39.7041 41.8833 38.9024 43.14 38.0357 44.44C37.6891 44.9167 37.2124 45.5667 36.6057 46.39C35.9991 47.2133 35.4141 47.9933 34.8507 48.73C34.2874 49.4233 33.9191 49.9 33.7457 50.16C33.3124 50.81 32.8574 51.8717 32.3807 53.345C31.8607 54.8183 31.6007 55.945 31.6007 56.725C31.6007 57.0717 31.6657 57.3317 31.7957 57.505C31.9691 57.6783 32.3374 57.765 32.9007 57.765C33.9841 57.765 35.1974 57.4183 36.5407 56.725C37.8841 56.0317 39.2491 55.165 40.6357 54.125C42.0224 53.0417 43.3224 51.9367 44.5357 50.81C45.7924 49.6833 46.8541 48.7083 47.7207 47.885C47.8941 47.7117 48.1541 47.625 48.5007 47.625C49.1507 47.625 49.4757 47.885 49.4757 48.405C49.4757 48.8817 49.1724 49.4233 48.5657 50.03C47.3957 51.2 46.3124 52.24 45.3157 53.15C44.3191 54.06 43.3657 54.8617 42.4557 55.555C41.0257 56.595 39.4441 57.5483 37.7107 58.415C35.9774 59.2817 34.3524 59.715 32.8357 59.715ZM52.2799 60.17C50.4599 60.17 49.0299 59.5417 47.9899 58.285C46.9499 57.0283 46.4299 55.49 46.4299 53.67C46.4299 50.55 47.4699 47.3433 49.5499 44.05C50.1132 43.14 50.7632 42.2517 51.4999 41.385C52.2365 40.475 53.0382 39.6083 53.9049 38.785C55.2049 37.5283 56.5699 36.4883 57.9999 35.665C59.4299 34.8417 60.8166 34.43 62.1599 34.43C64.3699 34.43 65.4749 35.47 65.4749 37.55C65.4749 40.15 63.9582 42.5117 60.9249 44.635C58.1082 46.5417 55.3349 47.495 52.6049 47.495C52.1282 47.495 51.6949 47.4733 51.3049 47.43C50.9582 47.3433 50.6332 47.2567 50.3299 47.17C49.8965 47.9933 49.5065 49.055 49.1599 50.355C48.8132 51.655 48.6399 52.7817 48.6399 53.735C48.6399 56.595 49.8965 58.025 52.4099 58.025C54.4465 58.025 56.3749 57.6783 58.1949 56.985C60.0149 56.2483 62.1816 54.8833 64.6949 52.89C66.2549 51.6767 67.4249 50.7017 68.2049 49.965C68.9849 49.2283 69.8299 48.4483 70.7399 47.625C70.9999 47.4517 71.2382 47.365 71.4549 47.365C71.6716 47.365 71.8882 47.43 72.1049 47.56C72.3216 47.69 72.4299 47.885 72.4299 48.145C72.4299 48.6217 71.9966 49.2933 71.1299 50.16C70.3932 50.8533 69.6132 51.59 68.7899 52.37C67.9666 53.1067 66.6665 54.1467 64.8899 55.49C62.9832 56.9633 60.9032 58.1117 58.6499 58.935C56.3966 59.7583 54.2732 60.17 52.2799 60.17ZM52.2149 45.415C53.6016 45.415 54.9232 45.1983 56.1799 44.765C57.4366 44.3317 58.6282 43.7033 59.7549 42.88C62.2682 41.0167 63.5249 39.2617 63.5249 37.615C63.5249 36.8783 63.0699 36.51 62.1599 36.51C60.4266 36.51 58.4116 37.5717 56.1149 39.695C54.9882 40.735 54.0565 41.6883 53.3199 42.555C52.6266 43.3783 51.9766 44.2883 51.3699 45.285C51.6299 45.3717 51.9116 45.415 52.2149 45.415ZM91.6414 60.3C90.5581 60.3 89.7131 59.8667 89.1064 59C88.4998 58.1333 88.1964 57.05 88.1964 55.75C88.1964 55.4033 88.2181 54.8833 88.2614 54.19C88.3048 53.4533 88.3481 52.695 88.3914 51.915C88.4781 51.0917 88.5431 50.3767 88.5864 49.77C88.6298 49.12 88.6731 48.73 88.7164 48.6L88.6514 48.34C88.2614 48.9033 87.7198 49.64 87.0264 50.55C86.3764 51.46 85.6831 52.3917 84.9464 53.345C84.2531 54.255 83.6248 55.0567 83.0614 55.75C82.1514 56.8333 81.1548 57.6783 80.0714 58.285C78.9881 58.8917 77.9914 59.195 77.0814 59.195C75.9981 59.195 75.0881 58.6533 74.3514 57.57C73.6148 56.4433 73.2464 54.84 73.2464 52.76C73.2464 50.7667 73.5714 48.535 74.2214 46.065L72.2064 48.405C71.9031 48.7083 71.6431 48.9683 71.4264 49.185C71.2098 49.3583 70.9931 49.445 70.7764 49.445C70.5598 49.445 70.3431 49.3583 70.1264 49.185C69.9531 48.9683 69.8664 48.7083 69.8664 48.405C69.8664 48.1017 69.9748 47.8417 70.1914 47.625C70.6248 47.1483 71.1231 46.5417 71.6864 45.805C72.2931 45.025 72.9864 44.1367 73.7664 43.14C74.4164 42.23 75.4998 40.54 77.0164 38.07C77.2764 37.6367 77.6231 37.42 78.0564 37.42C78.7931 37.42 79.1614 37.7667 79.1614 38.46C79.1614 38.6767 79.0531 38.98 78.8364 39.37C78.6198 39.7167 78.3164 40.3883 77.9264 41.385C77.1464 43.4217 76.5398 45.4367 76.1064 47.43C75.6731 49.38 75.4564 51.3083 75.4564 53.215C75.4564 54.8617 75.5648 55.945 75.7814 56.465C75.9981 56.9417 76.3231 57.18 76.7564 57.18C78.1431 57.18 79.8114 56.14 81.7614 54.06C82.3248 53.4533 83.1698 52.435 84.2964 51.005C85.4231 49.5317 86.5931 47.82 87.8064 45.87C89.0198 43.8767 89.9731 41.84 90.6664 39.76L91.6414 36.9C91.7714 36.51 92.0531 36.315 92.4864 36.315C93.2664 36.315 93.6564 36.6833 93.6564 37.42C93.6564 37.68 93.4181 38.3733 92.9414 39.5C92.4648 40.5833 91.9881 42.295 91.5114 44.635C91.2081 46.1083 90.9264 47.6683 90.6664 49.315C90.4498 50.9617 90.3414 52.5433 90.3414 54.06C90.3414 56.9633 90.8181 58.415 91.7714 58.415C92.5514 58.415 93.5481 58.0033 94.7614 57.18C95.9748 56.3567 97.2531 55.3167 98.5964 54.06C99.9398 52.8033 101.153 51.5033 102.236 50.16C103.233 48.99 104.251 47.6467 105.291 46.13C106.331 44.6133 107.198 43.0967 107.891 41.58C108.628 40.02 108.996 38.6767 108.996 37.55C108.996 36.4233 108.693 35.6867 108.086 35.34C108 35.2967 107.415 35.21 106.331 35.08C105.725 34.9933 105.421 34.6467 105.421 34.04C105.421 33.3467 105.768 33 106.461 33C107.848 33 108.953 33.39 109.776 34.17C110.643 34.95 111.076 36.0117 111.076 37.355C111.076 40.995 108.65 45.6967 103.796 51.46C98.8564 57.3533 94.8048 60.3 91.6414 60.3ZM132.364 59.65C129.851 59.65 128.594 58.4583 128.594 56.075C128.594 54.515 128.962 52.8467 129.699 51.07C130.479 49.25 131.519 47.495 132.819 45.805C134.119 44.0717 135.571 42.5117 137.174 41.125C138.777 39.695 140.424 38.5683 142.114 37.745C143.804 36.8783 145.429 36.445 146.989 36.445C149.762 36.445 151.149 37.81 151.149 40.54C151.149 42.3167 150.716 43.205 149.849 43.205C149.069 43.205 148.679 42.8367 148.679 42.1C148.679 41.7967 148.744 41.4933 148.874 41.19C149.047 40.8433 149.134 40.475 149.134 40.085C149.134 38.8717 148.311 38.265 146.664 38.265C144.021 38.265 140.706 40.28 136.719 44.31C135.766 45.3067 134.834 46.4767 133.924 47.82C133.014 49.1633 132.256 50.5283 131.649 51.915C131.086 53.2583 130.804 54.5367 130.804 55.75C130.804 56.92 131.454 57.505 132.754 57.505C133.881 57.505 135.072 57.1583 136.329 56.465C137.629 55.7717 138.756 55.0567 139.709 54.32C141.616 52.89 143.566 50.94 145.559 48.47C145.862 48.1233 146.252 47.6683 146.729 47.105C147.206 46.5417 147.747 45.9133 148.354 45.22C148.571 45.0033 148.831 44.895 149.134 44.895C149.827 44.895 150.174 45.2417 150.174 45.935L147.704 49.64C146.057 52.0667 145.234 54.06 145.234 55.62C145.234 56.7467 145.776 57.31 146.859 57.31C147.769 57.31 148.766 57.0717 149.849 56.595C150.932 56.1183 151.821 55.6417 152.514 55.165C153.901 54.255 155.352 53.1283 156.869 51.785C158.386 50.3983 159.837 49.0117 161.224 47.625C161.397 47.4517 161.657 47.365 162.004 47.365C162.654 47.365 162.979 47.625 162.979 48.145C162.979 48.6217 162.676 49.1633 162.069 49.77C160.336 51.5033 158.776 52.9983 157.389 54.255C156.002 55.4683 154.681 56.465 153.424 57.245C152.601 57.7217 151.582 58.22 150.369 58.74C149.156 59.26 147.769 59.52 146.209 59.52C144.086 59.52 143.024 58.3933 143.024 56.14C143.024 55.2733 143.132 54.5583 143.349 53.995C139.406 57.765 135.744 59.65 132.364 59.65ZM156.811 60.625C156.117 60.625 155.771 60.3433 155.771 59.78C155.771 59.52 155.836 59.26 155.966 59C156.139 58.74 156.269 58.5233 156.356 58.35L162.271 46.39C164.784 41.2767 166.041 38.4383 166.041 37.875C166.041 37.2683 166.344 36.965 166.951 36.965C167.774 36.965 168.186 37.3767 168.186 38.2C168.186 38.6333 167.991 39.3267 167.601 40.28C167.211 41.2333 166.712 42.3383 166.106 43.595C165.066 45.8483 164.199 47.5817 163.506 48.795C164.806 47.2783 166.127 45.8483 167.471 44.505C168.814 43.1617 170.179 41.8833 171.566 40.67C175.682 37.0733 178.846 35.275 181.056 35.275C182.572 35.275 183.331 35.99 183.331 37.42C183.331 38.8067 182.876 39.5 181.966 39.5C181.532 39.5 181.207 39.1317 180.991 38.395C180.861 37.875 180.557 37.615 180.081 37.615C179.344 37.615 177.914 38.4167 175.791 40.02C173.451 41.7533 171.089 43.8117 168.706 46.195C166.366 48.5783 163.874 51.6117 161.231 55.295L157.981 59.845C157.807 60.0617 157.634 60.235 157.461 60.365C157.331 60.5383 157.114 60.625 156.811 60.625ZM187.964 59.91C185.668 59.91 183.869 59.2383 182.569 57.895C181.269 56.5517 180.619 54.7533 180.619 52.5C180.619 48.6 182.461 44.3533 186.144 39.76C188.051 37.42 189.979 35.6433 191.929 34.43C193.923 33.1733 195.786 32.545 197.519 32.545C199.036 32.545 200.206 33.065 201.029 34.105C201.853 35.145 202.264 36.445 202.264 38.005C202.264 38.9583 202.134 39.9333 201.874 40.93C201.701 41.6233 201.354 41.97 200.834 41.97C200.011 41.97 199.599 41.515 199.599 40.605C199.599 40.215 199.664 39.7167 199.794 39.11C199.968 38.46 200.054 37.8317 200.054 37.225C200.054 35.4917 199.209 34.625 197.519 34.625C196.609 34.625 195.504 34.95 194.204 35.6C192.948 36.25 191.691 37.1167 190.434 38.2C189.178 39.24 188.073 40.4317 187.119 41.775C184.216 45.7183 182.764 49.25 182.764 52.37C182.764 55.9667 184.389 57.765 187.639 57.765C189.676 57.765 191.626 57.4617 193.489 56.855C195.353 56.205 197.541 54.8833 200.054 52.89C201.614 51.6767 202.784 50.7017 203.564 49.965C204.344 49.2283 205.189 48.4483 206.099 47.625C206.359 47.4517 206.598 47.365 206.814 47.365C207.031 47.365 207.248 47.43 207.464 47.56C207.681 47.69 207.789 47.885 207.789 48.145C207.789 48.6217 207.356 49.2933 206.489 50.16C205.753 50.8533 204.973 51.59 204.149 52.37C203.326 53.1067 202.026 54.1467 200.249 55.49C198.343 56.9633 196.306 58.0683 194.139 58.805C192.016 59.5417 189.958 59.91 187.964 59.91ZM203.31 60.17C202.617 60.17 202.27 59.8233 202.27 59.13C202.27 58.22 202.595 56.79 203.245 54.84C203.895 52.8467 204.74 50.5717 205.78 48.015C206.864 45.415 208.012 42.75 209.225 40.02C209.919 38.5033 210.634 37.03 211.37 35.6C212.107 34.1267 212.8 32.8483 213.45 31.765C219.864 20.9317 223.85 15.515 225.41 15.515C226.017 15.515 226.32 15.8183 226.32 16.425C226.32 16.815 226.017 17.5517 225.41 18.635C224.847 19.675 224.089 20.91 223.135 22.34C222.225 23.7267 221.229 25.135 220.145 26.565C219.105 27.995 218.109 29.3167 217.155 30.53C216.245 31.7 215.509 32.5883 214.945 33.195C214.469 33.7583 213.927 34.5817 213.32 35.665C212.757 36.7483 212.194 37.875 211.63 39.045C211.067 40.1717 210.612 41.1683 210.265 42.035L207.795 48.145C208.445 47.2783 209.29 46.3033 210.33 45.22C212.8 42.49 215.357 40.4317 218 39.045C220.687 37.615 222.94 36.9 224.76 36.9C225.757 36.9 226.559 37.2033 227.165 37.81C227.772 38.4167 228.075 39.1533 228.075 40.02C228.075 41.71 226.97 44.5483 224.76 48.535C222.55 52.4783 221.445 54.905 221.445 55.815C221.445 56.2917 221.705 56.53 222.225 56.53C223.439 56.53 224.76 56.0967 226.19 55.23C227.62 54.32 229.094 53.1717 230.61 51.785C232.127 50.3983 233.6 49.0117 235.03 47.625C235.204 47.4517 235.464 47.365 235.81 47.365C236.46 47.365 236.785 47.625 236.785 48.145C236.785 48.6217 236.482 49.1633 235.875 49.77C232.972 52.6733 230.48 54.84 228.4 56.27C226.32 57.7 224.132 58.415 221.835 58.415C220.102 58.415 219.235 57.6133 219.235 56.01C219.235 55.4033 219.344 54.8183 219.56 54.255C219.777 53.6917 220.124 52.9333 220.6 51.98L223.59 46.065C224.327 44.5917 224.869 43.3567 225.215 42.36C225.562 41.3633 225.735 40.605 225.735 40.085C225.735 39.3483 225.28 38.98 224.37 38.98C222.767 38.98 220.882 39.63 218.715 40.93C216.592 42.1867 214.317 44.0933 211.89 46.65C210.504 48.1233 209.247 49.6833 208.12 51.33C207.037 52.9767 206.17 54.7533 205.52 56.66L204.74 58.935C204.437 59.7583 203.96 60.17 203.31 60.17ZM246.884 33.39C246.147 33.39 245.779 33.0217 245.779 32.285C245.779 32.0683 245.93 31.6783 246.234 31.115C246.537 30.5083 246.884 29.9017 247.274 29.295C247.664 28.6883 247.967 28.2767 248.184 28.06C248.92 27.2367 249.484 26.7167 249.874 26.5C250.307 26.2833 250.697 26.175 251.044 26.175C251.954 26.175 252.409 26.5867 252.409 27.41C252.409 27.7133 252.214 28.0817 251.824 28.515C251.477 28.905 251.065 29.2733 250.589 29.62C249.895 30.0533 249.462 30.4 249.289 30.66L247.859 32.675C247.815 32.8483 247.707 33.0217 247.534 33.195C247.404 33.325 247.187 33.39 246.884 33.39ZM235.834 59.715C234.62 59.715 233.732 59.4767 233.169 59C232.649 58.5233 232.389 57.8083 232.389 56.855C232.389 55.945 232.67 54.71 233.234 53.15C233.797 51.5467 234.512 49.835 235.379 48.015C236.289 46.195 237.242 44.4617 238.239 42.815C239.235 41.1683 240.189 39.825 241.099 38.785C242.052 37.7017 242.81 37.16 243.374 37.16C244.154 37.16 244.544 37.5067 244.544 38.2C244.544 38.6333 244.175 39.4567 243.439 40.67C242.702 41.8833 241.9 43.14 241.034 44.44C240.687 44.9167 240.21 45.5667 239.604 46.39C238.997 47.2133 238.412 47.9933 237.849 48.73C237.285 49.4233 236.917 49.9 236.744 50.16C236.31 50.81 235.855 51.8717 235.379 53.345C234.859 54.8183 234.599 55.945 234.599 56.725C234.599 57.0717 234.664 57.3317 234.794 57.505C234.967 57.6783 235.335 57.765 235.899 57.765C236.982 57.765 238.195 57.4183 239.539 56.725C240.882 56.0317 242.247 55.165 243.634 54.125C245.02 53.0417 246.32 51.9367 247.534 50.81C248.79 49.6833 249.852 48.7083 250.719 47.885C250.892 47.7117 251.152 47.625 251.499 47.625C252.149 47.625 252.474 47.885 252.474 48.405C252.474 48.8817 252.17 49.4233 251.564 50.03C250.394 51.2 249.31 52.24 248.314 53.15C247.317 54.06 246.364 54.8617 245.454 55.555C244.024 56.595 242.442 57.5483 240.709 58.415C238.975 59.2817 237.35 59.715 235.834 59.715ZM252.548 59.65C252.028 59.65 251.768 59.455 251.768 59.065C251.075 57.8517 250.728 55.36 250.728 51.59C250.728 50.68 250.793 49.4667 250.923 47.95C251.053 46.4333 251.226 44.8517 251.443 43.205C251.66 41.5583 251.898 40.0633 252.158 38.72C252.418 37.3333 252.7 36.3367 253.003 35.73C253.263 35.21 253.588 34.95 253.978 34.95C254.671 34.95 255.018 35.2317 255.018 35.795C255.018 36.0983 254.975 36.4017 254.888 36.705C254.801 36.965 254.715 37.29 254.628 37.68C254.065 39.8467 253.61 42.1433 253.263 44.57C252.96 46.9967 252.808 49.4883 252.808 52.045C252.808 53.215 252.851 54.255 252.938 55.165C253.068 56.075 253.198 56.855 253.328 57.505C254.541 57.0283 255.885 56.0967 257.358 54.71C258.831 53.28 260.261 51.6983 261.648 49.965C262.775 48.535 263.793 47.0833 264.703 45.61C265.656 44.1367 266.393 42.75 266.913 41.45C267.476 40.15 267.758 39.0883 267.758 38.265C267.758 37.7017 267.693 37.3117 267.563 37.095C267.476 36.8783 267.368 36.705 267.238 36.575C267.108 36.445 267.043 36.2067 267.043 35.86C267.043 35.21 267.368 34.885 268.018 34.885C268.451 34.885 268.841 35.21 269.188 35.86C269.535 36.51 269.708 37.3333 269.708 38.33C269.708 41.4067 267.563 45.7183 263.273 51.265C258.853 56.855 255.278 59.65 252.548 59.65ZM276.289 60.17C274.469 60.17 273.039 59.5417 271.999 58.285C270.959 57.0283 270.439 55.49 270.439 53.67C270.439 50.55 271.479 47.3433 273.559 44.05C274.122 43.14 274.772 42.2517 275.509 41.385C276.245 40.475 277.047 39.6083 277.914 38.785C279.214 37.5283 280.579 36.4883 282.009 35.665C283.439 34.8417 284.825 34.43 286.169 34.43C288.379 34.43 289.484 35.47 289.484 37.55C289.484 40.15 287.967 42.5117 284.934 44.635C282.117 46.5417 279.344 47.495 276.614 47.495C276.137 47.495 275.704 47.4733 275.314 47.43C274.967 47.3433 274.642 47.2567 274.339 47.17C273.905 47.9933 273.515 49.055 273.169 50.355C272.822 51.655 272.649 52.7817 272.649 53.735C272.649 56.595 273.905 58.025 276.419 58.025C278.455 58.025 280.384 57.6783 282.204 56.985C284.024 56.2483 286.19 54.8833 288.704 52.89C290.264 51.6767 291.434 50.7017 292.214 49.965C292.994 49.2283 293.839 48.4483 294.749 47.625C295.009 47.4517 295.247 47.365 295.464 47.365C295.68 47.365 295.897 47.43 296.114 47.56C296.33 47.69 296.439 47.885 296.439 48.145C296.439 48.6217 296.005 49.2933 295.139 50.16C294.402 50.8533 293.622 51.59 292.799 52.37C291.975 53.1067 290.675 54.1467 288.899 55.49C286.992 56.9633 284.912 58.1117 282.659 58.935C280.405 59.7583 278.282 60.17 276.289 60.17ZM276.224 45.415C277.61 45.415 278.932 45.1983 280.189 44.765C281.445 44.3317 282.637 43.7033 283.764 42.88C286.277 41.0167 287.534 39.2617 287.534 37.615C287.534 36.8783 287.079 36.51 286.169 36.51C284.435 36.51 282.42 37.5717 280.124 39.695C278.997 40.735 278.065 41.6883 277.329 42.555C276.635 43.3783 275.985 44.2883 275.379 45.285C275.639 45.3717 275.92 45.415 276.224 45.415ZM319.107 59.91C316.81 59.91 315.012 59.2383 313.712 57.895C312.412 56.5517 311.762 54.7533 311.762 52.5C311.762 48.6 313.604 44.3533 317.287 39.76C319.194 37.42 321.122 35.6433 323.072 34.43C325.065 33.1733 326.929 32.545 328.662 32.545C330.179 32.545 331.349 33.065 332.172 34.105C332.995 35.145 333.407 36.445 333.407 38.005C333.407 38.9583 333.277 39.9333 333.017 40.93C332.844 41.6233 332.497 41.97 331.977 41.97C331.154 41.97 330.742 41.515 330.742 40.605C330.742 40.215 330.807 39.7167 330.937 39.11C331.11 38.46 331.197 37.8317 331.197 37.225C331.197 35.4917 330.352 34.625 328.662 34.625C327.752 34.625 326.647 34.95 325.347 35.6C324.09 36.25 322.834 37.1167 321.577 38.2C320.32 39.24 319.215 40.4317 318.262 41.775C315.359 45.7183 313.907 49.25 313.907 52.37C313.907 55.9667 315.532 57.765 318.782 57.765C320.819 57.765 322.769 57.4617 324.632 56.855C326.495 56.205 328.684 54.8833 331.197 52.89C332.757 51.6767 333.927 50.7017 334.707 49.965C335.487 49.2283 336.332 48.4483 337.242 47.625C337.502 47.4517 337.74 47.365 337.957 47.365C338.174 47.365 338.39 47.43 338.607 47.56C338.824 47.69 338.932 47.885 338.932 48.145C338.932 48.6217 338.499 49.2933 337.632 50.16C336.895 50.8533 336.115 51.59 335.292 52.37C334.469 53.1067 333.169 54.1467 331.392 55.49C329.485 56.9633 327.449 58.0683 325.282 58.805C323.159 59.5417 321.1 59.91 319.107 59.91ZM341.704 58.675C338.194 58.675 336.439 56.7033 336.439 52.76C336.439 50.94 336.872 49.0333 337.739 47.04C338.606 45.0467 339.754 43.205 341.184 41.515C342.614 39.7817 344.196 38.3733 345.929 37.29C347.706 36.2067 349.504 35.665 351.324 35.665C352.927 35.665 354.097 36.2717 354.834 37.485C355.571 38.6983 355.939 40.0417 355.939 41.515C355.939 43.465 355.549 45.4583 354.769 47.495C353.989 49.4883 352.927 51.33 351.584 53.02C350.241 54.71 348.724 56.075 347.034 57.115C345.344 58.155 343.567 58.675 341.704 58.675ZM341.639 56.595C341.899 56.595 342.051 56.5733 342.094 56.53C343.784 56.3133 345.344 55.7067 346.774 54.71C348.204 53.7133 349.439 52.4783 350.479 51.005C351.562 49.4883 352.386 47.8633 352.949 46.13C353.512 44.3967 353.794 42.685 353.794 40.995C353.794 39.9983 353.512 39.2183 352.949 38.655C352.386 38.0917 351.671 37.81 350.804 37.81C349.547 37.81 348.204 38.33 346.774 39.37C345.387 40.41 344.066 41.7317 342.809 43.335C341.596 44.9383 340.599 46.6283 339.819 48.405C339.039 50.1383 338.649 51.6983 338.649 53.085C338.649 55.425 339.646 56.595 341.639 56.595ZM365.17 60.755C363.176 60.755 361.638 60.1483 360.555 58.935C359.515 57.6783 358.995 56.0317 358.995 53.995C358.995 52.5217 359.255 50.745 359.775 48.665C360.685 45.155 362.223 41.0817 364.39 36.445C366.08 32.935 367.9 29.49 369.85 26.11C371.8 22.6867 373.945 19.3283 376.285 16.035C380.011 10.7483 382.611 8.105 384.085 8.105C385.038 8.105 385.515 8.365 385.515 8.885C385.515 9.62167 384.301 11.4633 381.875 14.41L377.325 19.935C373.381 24.7017 370.153 29.5767 367.64 34.56C365.17 39.5433 363.241 44.5267 361.855 49.51C361.465 50.94 361.27 52.2833 361.27 53.54C361.27 56.8333 362.613 58.48 365.3 58.48C366.253 58.48 367.228 58.1983 368.225 57.635C369.221 57.115 369.763 56.855 369.85 56.855C370.37 56.855 370.63 57.2233 370.63 57.96C370.63 58.61 370.391 59.1083 369.915 59.455C368.441 60.3217 366.86 60.755 365.17 60.755ZM381.61 60.755C379.617 60.755 378.078 60.1483 376.995 58.935C375.955 57.6783 375.435 56.0317 375.435 53.995C375.435 52.5217 375.695 50.745 376.215 48.665C377.125 45.155 378.663 41.0817 380.83 36.445C382.52 32.935 384.34 29.49 386.29 26.11C388.24 22.6867 390.385 19.3283 392.725 16.035C396.452 10.7483 399.052 8.105 400.525 8.105C401.478 8.105 401.955 8.365 401.955 8.885C401.955 9.62167 400.742 11.4633 398.315 14.41L393.765 19.935C389.822 24.7017 386.593 29.5767 384.08 34.56C381.61 39.5433 379.682 44.5267 378.295 49.51C377.905 50.94 377.71 52.2833 377.71 53.54C377.71 56.8333 379.053 58.48 381.74 58.48C382.693 58.48 383.668 58.1983 384.665 57.635C385.662 57.115 386.203 56.855 386.29 56.855C386.81 56.855 387.07 57.2233 387.07 57.96C387.07 58.61 386.832 59.1083 386.355 59.455C384.882 60.3217 383.3 60.755 381.61 60.755ZM393.76 59.65C391.247 59.65 389.99 58.4583 389.99 56.075C389.99 54.515 390.359 52.8467 391.095 51.07C391.875 49.25 392.915 47.495 394.215 45.805C395.515 44.0717 396.967 42.5117 398.57 41.125C400.174 39.695 401.82 38.5683 403.51 37.745C405.2 36.8783 406.825 36.445 408.385 36.445C411.159 36.445 412.545 37.81 412.545 40.54C412.545 42.3167 412.112 43.205 411.245 43.205C410.465 43.205 410.075 42.8367 410.075 42.1C410.075 41.7967 410.14 41.4933 410.27 41.19C410.444 40.8433 410.53 40.475 410.53 40.085C410.53 38.8717 409.707 38.265 408.06 38.265C405.417 38.265 402.102 40.28 398.115 44.31C397.162 45.3067 396.23 46.4767 395.32 47.82C394.41 49.1633 393.652 50.5283 393.045 51.915C392.482 53.2583 392.2 54.5367 392.2 55.75C392.2 56.92 392.85 57.505 394.15 57.505C395.277 57.505 396.469 57.1583 397.725 56.465C399.025 55.7717 400.152 55.0567 401.105 54.32C403.012 52.89 404.962 50.94 406.955 48.47C407.259 48.1233 407.649 47.6683 408.125 47.105C408.602 46.5417 409.144 45.9133 409.75 45.22C409.967 45.0033 410.227 44.895 410.53 44.895C411.224 44.895 411.57 45.2417 411.57 45.935L409.1 49.64C407.454 52.0667 406.63 54.06 406.63 55.62C406.63 56.7467 407.172 57.31 408.255 57.31C409.165 57.31 410.162 57.0717 411.245 56.595C412.329 56.1183 413.217 55.6417 413.91 55.165C415.297 54.255 416.749 53.1283 418.265 51.785C419.782 50.3983 421.234 49.0117 422.62 47.625C422.794 47.4517 423.054 47.365 423.4 47.365C424.05 47.365 424.375 47.625 424.375 48.145C424.375 48.6217 424.072 49.1633 423.465 49.77C421.732 51.5033 420.172 52.9983 418.785 54.255C417.399 55.4683 416.077 56.465 414.82 57.245C413.997 57.7217 412.979 58.22 411.765 58.74C410.552 59.26 409.165 59.52 407.605 59.52C405.482 59.52 404.42 58.3933 404.42 56.14C404.42 55.2733 404.529 54.5583 404.745 53.995C400.802 57.765 397.14 59.65 393.76 59.65ZM424.772 62.835C423.559 62.835 422.54 62.4667 421.717 61.73C420.937 60.9933 420.547 60.04 420.547 58.87C420.547 58.4367 420.569 58.155 420.612 58.025C420.005 59.4117 419.442 60.105 418.922 60.105C418.229 60.105 417.882 59.6933 417.882 58.87L422.952 45.61C423.732 43.53 424.62 41.385 425.617 39.175C426.614 36.9217 427.61 34.7767 428.607 32.74C429.647 30.66 430.6 28.7967 431.467 27.15C432.377 25.46 433.114 24.1167 433.677 23.12C435.064 20.7367 436.385 18.895 437.642 17.595C438.942 16.2517 439.96 15.58 440.697 15.58C441.52 15.58 441.932 16.035 441.932 16.945C441.932 17.465 441.672 17.725 441.152 17.725C440.025 17.725 438.097 20.0867 435.367 24.81C434.5 26.2833 433.677 27.7567 432.897 29.23C432.16 30.66 431.445 32.09 430.752 33.52C429.799 35.5567 428.802 37.745 427.762 40.085C426.722 42.425 425.639 44.895 424.512 47.495C425.942 45.415 427.524 43.5083 429.257 41.775C430.774 40.2583 432.334 39.045 433.937 38.135C435.584 37.1817 437.209 36.705 438.812 36.705C440.589 36.705 441.997 37.0733 443.037 37.81C444.077 38.5467 444.597 39.9333 444.597 41.97C444.597 43.66 444.099 45.4583 443.102 47.365C442.149 49.2717 440.892 51.135 439.332 52.955C437.815 54.775 436.147 56.4433 434.327 57.96C432.55 59.4333 430.817 60.6033 429.127 61.47C427.437 62.38 425.985 62.835 424.772 62.835ZM424.577 60.69C425.877 60.69 427.307 60.235 428.867 59.325C430.427 58.4583 431.987 57.31 433.547 55.88C435.107 54.45 436.537 52.9117 437.837 51.265C439.137 49.575 440.177 47.9283 440.957 46.325C441.737 44.6783 442.127 43.2267 442.127 41.97C442.127 40.02 441.152 39.045 439.202 39.045C437.469 39.045 435.779 39.565 434.132 40.605C432.485 41.645 430.882 43.0317 429.322 44.765C427.805 46.4983 426.375 48.405 425.032 50.485C423.689 52.565 422.454 54.6667 421.327 56.79C421.717 56.4 422.085 56.205 422.432 56.205C423.039 56.205 423.342 56.4867 423.342 57.05C423.342 57.31 423.234 57.5917 423.017 57.895C422.93 58.025 422.844 58.1767 422.757 58.35C422.67 58.5233 422.627 58.7833 422.627 59.13C422.627 60.17 423.277 60.69 424.577 60.69ZM447.173 61.145C444.746 61.145 443.533 60.3433 443.533 58.74C443.533 57.7433 443.879 56.7467 444.573 55.75C445.309 54.7533 446.176 53.8433 447.173 53.02C448.169 52.1967 449.101 51.5683 449.968 51.135C450.228 51.005 450.574 50.875 451.008 50.745C451.484 50.615 451.874 50.55 452.178 50.55C452.524 50.55 452.698 50.68 452.698 50.94C452.698 51.1567 452.459 51.395 451.983 51.655C449.989 52.6083 448.429 53.7567 447.303 55.1C446.219 56.4 445.678 57.4617 445.678 58.285C445.678 59.065 446.349 59.455 447.693 59.455C448.819 59.455 450.033 59.1733 451.333 58.61C452.676 58.0467 453.933 57.31 455.103 56.4C456.316 55.49 457.313 54.515 458.093 53.475C458.873 52.435 459.263 51.4383 459.263 50.485C459.263 49.835 459.046 49.25 458.613 48.73C458.223 48.21 457.573 47.82 456.663 47.56L452.373 46.26C451.289 45.9133 450.509 45.4583 450.033 44.895C449.556 44.3317 449.318 43.7033 449.318 43.01C449.318 41.71 449.794 40.54 450.748 39.5C451.744 38.46 452.979 37.6367 454.453 37.03C455.926 36.4233 457.356 36.12 458.743 36.12C460.129 36.12 461.343 36.4667 462.383 37.16C463.423 37.81 463.943 38.6983 463.943 39.825C463.943 40.475 463.748 41.0817 463.358 41.645C463.011 42.2083 462.599 42.49 462.123 42.49C461.386 42.49 461.018 42.1867 461.018 41.58C461.018 41.3633 461.126 41.1033 461.343 40.8C461.603 40.4533 461.733 40.1283 461.733 39.825C461.733 38.525 460.736 37.875 458.743 37.875C457.659 37.875 456.576 38.1133 455.493 38.59C454.453 39.0233 453.586 39.6083 452.893 40.345C452.199 41.0817 451.853 41.8833 451.853 42.75C451.853 43.6167 452.719 44.31 454.453 44.83L458.613 46.13C459.869 46.52 460.736 47.0617 461.213 47.755C461.689 48.405 461.928 49.1417 461.928 49.965C461.928 51.915 460.736 53.93 458.353 56.01C454.496 59.4333 450.769 61.145 447.173 61.145ZM4.805 160.45C3.41833 160.45 2.44333 159.973 1.88 159.02C1.27333 158.11 0.97 156.875 0.97 155.315C0.97 151.762 2.63833 146.28 5.975 138.87C5.80167 138.697 5.715 138.48 5.715 138.22C5.715 137.787 6.105 137.353 6.885 136.92C9.18167 132.283 11.305 128.188 13.255 124.635C15.2483 121.038 17.0467 117.983 18.65 115.47C24.0233 107.237 28.855 101.538 33.145 98.375C33.7083 97.9417 34.25 97.595 34.77 97.335C35.29 97.075 35.81 96.945 36.33 96.945C37.0233 96.945 37.37 97.2267 37.37 97.79C37.37 98.0933 37.24 98.4183 36.98 98.765C36.7633 99.0683 36.3733 99.5667 35.81 100.26C35.16 100.997 34.4017 101.863 33.535 102.86C32.6683 103.813 31.7583 104.81 30.805 105.85C29.895 106.89 29.05 107.843 28.27 108.71C27.49 109.533 26.8617 110.183 26.385 110.66L20.405 116.835L18.325 120.15C17.7617 121.017 17.0683 122.208 16.245 123.725C15.465 125.198 14.5333 126.953 13.45 128.99C13.0167 129.813 12.4533 130.875 11.76 132.175C11.11 133.475 10.3517 135.013 9.485 136.79C9.83167 136.833 10.135 136.92 10.395 137.05C10.6983 137.137 10.98 137.245 11.24 137.375C17.1767 135.555 22.7883 132.348 28.075 127.755C28.3783 127.538 28.6383 127.43 28.855 127.43C29.5917 127.43 29.96 127.755 29.96 128.405C29.96 128.578 29.895 128.752 29.765 128.925C29.6783 129.098 29.57 129.272 29.44 129.445C28.79 130.138 27.8583 130.94 26.645 131.85C25.4317 132.76 23.915 133.735 22.095 134.775C20.535 135.642 19.0183 136.443 17.545 137.18C16.115 137.873 14.7283 138.458 13.385 138.935C14.5983 140.408 15.205 142.293 15.205 144.59C15.205 147.753 14.2733 151.047 12.41 154.47C10.2433 158.457 7.70833 160.45 4.805 160.45ZM4.415 158.5C5.67167 158.5 6.86333 157.98 7.99 156.94C9.16 155.9 10.1567 154.557 10.98 152.91C11.5867 151.74 12.085 150.332 12.475 148.685C12.9083 147.082 13.125 145.673 13.125 144.46C13.125 142.033 12.3883 140.408 10.915 139.585C10.3517 139.672 9.83167 139.737 9.355 139.78C8.87833 139.867 8.42333 139.888 7.99 139.845V139.91C4.35 148.013 2.53 153.56 2.53 156.55C2.53 157.2 2.70333 157.677 3.05 157.98C3.39667 158.327 3.85167 158.5 4.415 158.5ZM35.747 138.675C32.237 138.675 30.482 136.703 30.482 132.76C30.482 130.94 30.9154 129.033 31.782 127.04C32.6487 125.047 33.797 123.205 35.227 121.515C36.657 119.782 38.2387 118.373 39.972 117.29C41.7487 116.207 43.547 115.665 45.367 115.665C46.9704 115.665 48.1404 116.272 48.877 117.485C49.6137 118.698 49.982 120.042 49.982 121.515C49.982 123.465 49.592 125.458 48.812 127.495C48.032 129.488 46.9704 131.33 45.627 133.02C44.2837 134.71 42.767 136.075 41.077 137.115C39.387 138.155 37.6104 138.675 35.747 138.675ZM35.682 136.595C35.942 136.595 36.0937 136.573 36.137 136.53C37.827 136.313 39.387 135.707 40.817 134.71C42.247 133.713 43.482 132.478 44.522 131.005C45.6054 129.488 46.4287 127.863 46.992 126.13C47.5554 124.397 47.837 122.685 47.837 120.995C47.837 119.998 47.5554 119.218 46.992 118.655C46.4287 118.092 45.7137 117.81 44.847 117.81C43.5904 117.81 42.247 118.33 40.817 119.37C39.4304 120.41 38.1087 121.732 36.852 123.335C35.6387 124.938 34.642 126.628 33.862 128.405C33.082 130.138 32.692 131.698 32.692 133.085C32.692 135.425 33.6887 136.595 35.682 136.595ZM49.8525 140.625C49.1592 140.625 48.8125 140.343 48.8125 139.78C48.8125 139.52 48.8775 139.26 49.0075 139C49.1809 138.74 49.3109 138.523 49.3975 138.35L55.3125 126.39C57.8259 121.277 59.0825 118.438 59.0825 117.875C59.0825 117.268 59.3859 116.965 59.9925 116.965C60.8159 116.965 61.2275 117.377 61.2275 118.2C61.2275 118.633 61.0325 119.327 60.6425 120.28C60.2525 121.233 59.7542 122.338 59.1475 123.595C58.1075 125.848 57.2409 127.582 56.5475 128.795C57.8475 127.278 59.1692 125.848 60.5125 124.505C61.8559 123.162 63.2209 121.883 64.6075 120.67C68.7242 117.073 71.8875 115.275 74.0975 115.275C75.6142 115.275 76.3725 115.99 76.3725 117.42C76.3725 118.807 75.9175 119.5 75.0075 119.5C74.5742 119.5 74.2492 119.132 74.0325 118.395C73.9025 117.875 73.5992 117.615 73.1225 117.615C72.3859 117.615 70.9559 118.417 68.8325 120.02C66.4925 121.753 64.1309 123.812 61.7475 126.195C59.4075 128.578 56.9159 131.612 54.2725 135.295L51.0225 139.845C50.8492 140.062 50.6759 140.235 50.5025 140.365C50.3725 140.538 50.1559 140.625 49.8525 140.625ZM105.458 113.39C104.721 113.39 104.353 113.022 104.353 112.285C104.353 112.068 104.505 111.678 104.808 111.115C105.111 110.508 105.458 109.902 105.848 109.295C106.238 108.688 106.541 108.277 106.758 108.06C107.495 107.237 108.058 106.717 108.448 106.5C108.881 106.283 109.271 106.175 109.618 106.175C110.528 106.175 110.983 106.587 110.983 107.41C110.983 107.713 110.788 108.082 110.398 108.515C110.051 108.905 109.64 109.273 109.163 109.62C108.47 110.053 108.036 110.4 107.863 110.66L106.433 112.675C106.39 112.848 106.281 113.022 106.108 113.195C105.978 113.325 105.761 113.39 105.458 113.39ZM94.408 139.715C93.1947 139.715 92.3063 139.477 91.743 139C91.223 138.523 90.963 137.808 90.963 136.855C90.963 135.945 91.2447 134.71 91.808 133.15C92.3713 131.547 93.0863 129.835 93.953 128.015C94.863 126.195 95.8163 124.462 96.813 122.815C97.8097 121.168 98.763 119.825 99.673 118.785C100.626 117.702 101.385 117.16 101.948 117.16C102.728 117.16 103.118 117.507 103.118 118.2C103.118 118.633 102.75 119.457 102.013 120.67C101.276 121.883 100.475 123.14 99.608 124.44C99.2613 124.917 98.7847 125.567 98.178 126.39C97.5713 127.213 96.9863 127.993 96.423 128.73C95.8597 129.423 95.4913 129.9 95.318 130.16C94.8847 130.81 94.4297 131.872 93.953 133.345C93.433 134.818 93.173 135.945 93.173 136.725C93.173 137.072 93.238 137.332 93.368 137.505C93.5413 137.678 93.9097 137.765 94.473 137.765C95.5563 137.765 96.7697 137.418 98.113 136.725C99.4563 136.032 100.821 135.165 102.208 134.125C103.595 133.042 104.895 131.937 106.108 130.81C107.365 129.683 108.426 128.708 109.293 127.885C109.466 127.712 109.726 127.625 110.073 127.625C110.723 127.625 111.048 127.885 111.048 128.405C111.048 128.882 110.745 129.423 110.138 130.03C108.968 131.2 107.885 132.24 106.888 133.15C105.891 134.06 104.938 134.862 104.028 135.555C102.598 136.595 101.016 137.548 99.283 138.415C97.5497 139.282 95.9247 139.715 94.408 139.715ZM105.077 140.625C104.384 140.625 104.037 140.343 104.037 139.78C104.037 139.563 104.124 139.303 104.297 139C104.47 138.653 104.622 138.372 104.752 138.155L110.602 126.39C113.115 121.277 114.372 118.438 114.372 117.875C114.372 117.268 114.675 116.965 115.282 116.965C116.105 116.965 116.517 117.398 116.517 118.265C116.517 118.568 116.322 119.218 115.932 120.215C115.542 121.212 115.044 122.338 114.437 123.595C113.397 125.848 112.53 127.582 111.837 128.795C113.137 127.278 114.459 125.848 115.802 124.505C117.145 123.162 118.51 121.883 119.897 120.67C124.014 117.073 127.177 115.275 129.387 115.275C130.904 115.275 131.662 115.99 131.662 117.42C131.662 118.72 130.557 121.645 128.347 126.195C126.137 130.788 125.032 133.692 125.032 134.905C125.032 135.468 125.227 135.75 125.617 135.75C125.747 135.75 125.942 135.707 126.202 135.62C126.505 135.49 126.809 135.425 127.112 135.425C127.849 135.425 128.217 135.772 128.217 136.465C128.217 137.332 127.285 137.765 125.422 137.765C124.555 137.765 123.927 137.57 123.537 137.18C123.147 136.747 122.952 136.183 122.952 135.49C122.952 133.41 124.014 130.247 126.137 126C128.26 121.797 129.322 119.262 129.322 118.395C129.322 117.875 129.127 117.615 128.737 117.615C127.784 117.615 126.245 118.417 124.122 120.02C121.825 121.753 119.529 123.747 117.232 126C114.935 128.253 112.747 130.832 110.667 133.735L106.117 140.04C105.857 140.43 105.51 140.625 105.077 140.625ZM134.487 141.145C132.06 141.145 130.847 140.343 130.847 138.74C130.847 137.743 131.194 136.747 131.887 135.75C132.624 134.753 133.49 133.843 134.487 133.02C135.484 132.197 136.415 131.568 137.282 131.135C137.542 131.005 137.889 130.875 138.322 130.745C138.799 130.615 139.189 130.55 139.492 130.55C139.839 130.55 140.012 130.68 140.012 130.94C140.012 131.157 139.774 131.395 139.297 131.655C137.304 132.608 135.744 133.757 134.617 135.1C133.534 136.4 132.992 137.462 132.992 138.285C132.992 139.065 133.664 139.455 135.007 139.455C136.134 139.455 137.347 139.173 138.647 138.61C139.99 138.047 141.247 137.31 142.417 136.4C143.63 135.49 144.627 134.515 145.407 133.475C146.187 132.435 146.577 131.438 146.577 130.485C146.577 129.835 146.36 129.25 145.927 128.73C145.537 128.21 144.887 127.82 143.977 127.56L139.687 126.26C138.604 125.913 137.824 125.458 137.347 124.895C136.87 124.332 136.632 123.703 136.632 123.01C136.632 121.71 137.109 120.54 138.062 119.5C139.059 118.46 140.294 117.637 141.767 117.03C143.24 116.423 144.67 116.12 146.057 116.12C147.444 116.12 148.657 116.467 149.697 117.16C150.737 117.81 151.257 118.698 151.257 119.825C151.257 120.475 151.062 121.082 150.672 121.645C150.325 122.208 149.914 122.49 149.437 122.49C148.7 122.49 148.332 122.187 148.332 121.58C148.332 121.363 148.44 121.103 148.657 120.8C148.917 120.453 149.047 120.128 149.047 119.825C149.047 118.525 148.05 117.875 146.057 117.875C144.974 117.875 143.89 118.113 142.807 118.59C141.767 119.023 140.9 119.608 140.207 120.345C139.514 121.082 139.167 121.883 139.167 122.75C139.167 123.617 140.034 124.31 141.767 124.83L145.927 126.13C147.184 126.52 148.05 127.062 148.527 127.755C149.004 128.405 149.242 129.142 149.242 129.965C149.242 131.915 148.05 133.93 145.667 136.01C141.81 139.433 138.084 141.145 134.487 141.145ZM149.864 156.94C147.828 156.94 146.809 155.488 146.809 152.585C146.809 148.772 148.478 142.705 151.814 134.385C152.378 132.998 153.049 131.547 153.829 130.03C154.609 128.513 155.519 126.91 156.559 125.22C157.643 123.4 158.661 121.818 159.614 120.475C160.611 119.132 161.478 118.048 162.214 117.225C162.474 116.965 162.691 116.792 162.864 116.705C163.081 116.618 163.254 116.575 163.384 116.575C164.511 116.575 165.789 116.9 167.219 117.55C168.649 118.2 169.928 119.023 171.054 120.02C172.094 120.887 172.939 121.927 173.589 123.14C174.239 124.353 174.564 125.61 174.564 126.91C174.564 127.863 174.369 128.838 173.979 129.835C173.633 130.788 173.156 131.742 172.549 132.695C173.676 132.478 175.041 131.98 176.644 131.2C178.291 130.42 179.959 129.228 181.649 127.625C181.823 127.452 182.061 127.365 182.364 127.365C183.014 127.365 183.339 127.625 183.339 128.145C183.339 128.362 183.231 128.643 183.014 128.99C182.841 129.293 182.516 129.683 182.039 130.16C178.833 133.107 174.976 134.797 170.469 135.23C169.819 135.923 169.104 136.595 168.324 137.245C167.588 137.852 166.808 138.415 165.984 138.935C163.471 140.452 161.326 141.21 159.549 141.21C158.813 141.21 158.206 140.972 157.729 140.495C157.253 140.018 157.014 139.477 157.014 138.87C157.014 136.877 158.748 135.36 162.214 134.32C163.471 133.973 164.728 133.67 165.984 133.41C167.241 133.15 168.476 132.868 169.689 132.565C170.556 131.222 171.184 130.052 171.574 129.055C172.008 128.058 172.224 127.213 172.224 126.52C172.224 124.223 170.513 122.035 167.089 119.955C165.746 119.132 164.684 118.742 163.904 118.785C160.351 122.685 156.993 128.145 153.829 135.165C150.536 142.402 148.889 148.1 148.889 152.26C148.889 153.257 148.976 153.928 149.149 154.275C149.323 154.622 149.626 154.795 150.059 154.795C150.189 154.795 150.298 154.773 150.384 154.73C150.471 154.73 150.558 154.73 150.644 154.73C151.208 154.73 151.489 155.077 151.489 155.77C151.489 156.55 150.948 156.94 149.864 156.94ZM160.004 139.13C161.608 139.13 163.926 137.873 166.959 135.36C166.266 135.447 165.594 135.555 164.944 135.685C164.338 135.815 163.449 136.053 162.279 136.4C160.329 136.963 159.354 137.678 159.354 138.545C159.354 138.935 159.571 139.13 160.004 139.13ZM185.044 138.675C181.534 138.675 179.779 136.703 179.779 132.76C179.779 130.94 180.212 129.033 181.079 127.04C181.946 125.047 183.094 123.205 184.524 121.515C185.954 119.782 187.536 118.373 189.269 117.29C191.046 116.207 192.844 115.665 194.664 115.665C196.267 115.665 197.437 116.272 198.174 117.485C198.911 118.698 199.279 120.042 199.279 121.515C199.279 123.465 198.889 125.458 198.109 127.495C197.329 129.488 196.267 131.33 194.924 133.02C193.581 134.71 192.064 136.075 190.374 137.115C188.684 138.155 186.907 138.675 185.044 138.675ZM184.979 136.595C185.239 136.595 185.391 136.573 185.434 136.53C187.124 136.313 188.684 135.707 190.114 134.71C191.544 133.713 192.779 132.478 193.819 131.005C194.902 129.488 195.726 127.863 196.289 126.13C196.852 124.397 197.134 122.685 197.134 120.995C197.134 119.998 196.852 119.218 196.289 118.655C195.726 118.092 195.011 117.81 194.144 117.81C192.887 117.81 191.544 118.33 190.114 119.37C188.727 120.41 187.406 121.732 186.149 123.335C184.936 124.938 183.939 126.628 183.159 128.405C182.379 130.138 181.989 131.698 181.989 133.085C181.989 135.425 182.986 136.595 184.979 136.595Z" fill="#E13939"/>
<path d="M415.354 171.813C415.135 172.32 414.546 172.552 414.039 172.333L405.781 168.753C405.275 168.534 405.042 167.945 405.262 167.438C405.481 166.931 406.07 166.699 406.577 166.918L413.917 170.1L417.099 162.76C417.318 162.253 417.907 162.021 418.414 162.24C418.921 162.46 419.153 163.049 418.934 163.555L415.354 171.813ZM235.196 129.548C287.158 125.784 328.512 127.007 358.687 133.703C388.835 140.393 408.079 152.608 415.367 171.048L413.507 171.783C406.588 154.276 388.175 142.295 358.254 135.656C328.359 129.022 287.232 127.783 235.34 131.542L235.196 129.548Z" fill="#E13939"/>
</svg>
