<svg width="318" height="155" viewBox="0 0 318 155" fill="none" xmlns="http://www.w3.org/2000/svg">
<path d="M2.68727 55.4391C1.72727 55.4391 1.05227 55.1091 0.662266 54.4491C0.242266 53.8191 0.0322655 52.9641 0.0322655 51.8841C0.0322655 49.4241 1.18727 45.6291 3.49727 40.4991C3.37727 40.3791 3.31727 40.2291 3.31727 40.0491C3.31727 39.7491 3.58727 39.4491 4.12727 39.1491C5.71727 35.9391 7.18727 33.1041 8.53727 30.6441C9.91727 28.1541 11.1623 26.0391 12.2723 24.2991C15.9923 18.5991 19.3373 14.6541 22.3073 12.4641C22.6973 12.1641 23.0723 11.9241 23.4323 11.7441C23.7923 11.5641 24.1523 11.4741 24.5123 11.4741C24.9923 11.4741 25.2323 11.6691 25.2323 12.0591C25.2323 12.2691 25.1423 12.4941 24.9623 12.7341C24.8123 12.9441 24.5423 13.2891 24.1523 13.7691C23.7023 14.2791 23.1773 14.8791 22.5773 15.5691C21.9773 16.2291 21.3473 16.9191 20.6873 17.6391C20.0573 18.3591 19.4723 19.0191 18.9323 19.6191C18.3923 20.1891 17.9573 20.6391 17.6273 20.9691L13.4873 25.2441L12.0473 27.5391C11.6573 28.1391 11.1773 28.9641 10.6073 30.0141C10.0673 31.0341 9.42227 32.2491 8.67227 33.6591C8.37227 34.2291 7.98227 34.9641 7.50227 35.8641C7.05227 36.7641 6.52727 37.8291 5.92727 39.0591C6.16727 39.0891 6.37727 39.1491 6.55727 39.2391C6.76727 39.2991 6.96227 39.3741 7.14227 39.4641C11.2523 38.2041 15.1373 35.9841 18.7973 32.8041C19.0073 32.6541 19.1873 32.5791 19.3373 32.5791C19.8473 32.5791 20.1023 32.8041 20.1023 33.2541C20.1023 33.3741 20.0573 33.4941 19.9673 33.6141C19.9073 33.7341 19.8323 33.8541 19.7423 33.9741C19.2923 34.4541 18.6473 35.0091 17.8073 35.6391C16.9673 36.2691 15.9173 36.9441 14.6573 37.6641C13.5773 38.2641 12.5273 38.8191 11.5073 39.3291C10.5173 39.8091 9.55727 40.2141 8.62727 40.5441C9.46727 41.5641 9.88727 42.8691 9.88727 44.4591C9.88727 46.6491 9.24227 48.9291 7.95227 51.2991C6.45227 54.0591 4.69727 55.4391 2.68727 55.4391ZM2.41727 54.0891C3.28727 54.0891 4.11227 53.7291 4.89227 53.0091C5.70227 52.2891 6.39227 51.3591 6.96227 50.2191C7.38227 49.4091 7.72727 48.4341 7.99727 47.2941C8.29727 46.1841 8.44727 45.2091 8.44727 44.3691C8.44727 42.6891 7.93727 41.5641 6.91727 40.9941C6.52727 41.0541 6.16727 41.0991 5.83727 41.1291C5.50727 41.1891 5.19227 41.2041 4.89227 41.1741V41.2191C2.37227 46.8291 1.11227 50.6691 1.11227 52.7391C1.11227 53.1891 1.23227 53.5191 1.47227 53.7291C1.71227 53.9691 2.02727 54.0891 2.41727 54.0891ZM25.3673 41.8041C23.9873 41.8041 22.9223 41.3841 22.1723 40.5441C21.4523 39.6741 21.0923 38.5341 21.0923 37.1241C21.0923 36.1041 21.2723 34.8741 21.6323 33.4341C22.2623 31.0041 23.3273 28.1841 24.8273 24.9741C25.9973 22.5441 27.2573 20.1591 28.6073 17.8191C29.9573 15.4491 31.4423 13.1241 33.0623 10.8441C35.6423 7.18411 37.4423 5.35411 38.4623 5.35411C39.1223 5.35411 39.4523 5.53411 39.4523 5.89411C39.4523 6.40411 38.6123 7.67911 36.9323 9.71911L33.7823 13.5441C31.0523 16.8441 28.8173 20.2191 27.0773 23.6691C25.3673 27.1191 24.0323 30.5691 23.0723 34.0191C22.8023 35.0091 22.6673 35.9391 22.6673 36.8091C22.6673 39.0891 23.5973 40.2291 25.4573 40.2291C26.1173 40.2291 26.7923 40.0341 27.4823 39.6441C28.1723 39.2841 28.5473 39.1041 28.6073 39.1041C28.9673 39.1041 29.1473 39.3591 29.1473 39.8691C29.1473 40.3191 28.9823 40.6641 28.6523 40.9041C27.6323 41.5041 26.5373 41.8041 25.3673 41.8041ZM41.5205 22.8591C41.0105 22.8591 40.7555 22.6041 40.7555 22.0941C40.7555 21.9441 40.8605 21.6741 41.0705 21.2841C41.2805 20.8641 41.5205 20.4441 41.7905 20.0241C42.0605 19.6041 42.2705 19.3191 42.4205 19.1691C42.9305 18.5991 43.3205 18.2391 43.5905 18.0891C43.8905 17.9391 44.1605 17.8641 44.4005 17.8641C45.0305 17.8641 45.3455 18.1491 45.3455 18.7191C45.3455 18.9291 45.2105 19.1841 44.9405 19.4841C44.7005 19.7541 44.4155 20.0091 44.0855 20.2491C43.6055 20.5491 43.3055 20.7891 43.1855 20.9691L42.1955 22.3641C42.1655 22.4841 42.0905 22.6041 41.9705 22.7241C41.8805 22.8141 41.7305 22.8591 41.5205 22.8591ZM33.8705 41.0841C33.0305 41.0841 32.4155 40.9191 32.0255 40.5891C31.6655 40.2591 31.4855 39.7641 31.4855 39.1041C31.4855 38.4741 31.6805 37.6191 32.0705 36.5391C32.4605 35.4291 32.9555 34.2441 33.5555 32.9841C34.1855 31.7241 34.8455 30.5241 35.5355 29.3841C36.2255 28.2441 36.8855 27.3141 37.5155 26.5941C38.1755 25.8441 38.7005 25.4691 39.0905 25.4691C39.6305 25.4691 39.9005 25.7091 39.9005 26.1891C39.9005 26.4891 39.6455 27.0591 39.1355 27.8991C38.6255 28.7391 38.0705 29.6091 37.4705 30.5091C37.2305 30.8391 36.9005 31.2891 36.4805 31.8591C36.0605 32.4291 35.6555 32.9691 35.2655 33.4791C34.8755 33.9591 34.6205 34.2891 34.5005 34.4691C34.2005 34.9191 33.8855 35.6541 33.5555 36.6741C33.1955 37.6941 33.0155 38.4741 33.0155 39.0141C33.0155 39.2541 33.0605 39.4341 33.1505 39.5541C33.2705 39.6741 33.5255 39.7341 33.9155 39.7341C34.6655 39.7341 35.5055 39.4941 36.4355 39.0141C37.3655 38.5341 38.3105 37.9341 39.2705 37.2141C40.2305 36.4641 41.1305 35.6991 41.9705 34.9191C42.8405 34.1391 43.5755 33.4641 44.1755 32.8941C44.2955 32.7741 44.4755 32.7141 44.7155 32.7141C45.1655 32.7141 45.3905 32.8941 45.3905 33.2541C45.3905 33.5841 45.1805 33.9591 44.7605 34.3791C43.9505 35.1891 43.2005 35.9091 42.5105 36.5391C41.8205 37.1691 41.1605 37.7241 40.5305 38.2041C39.5405 38.9241 38.4455 39.5841 37.2455 40.1841C36.0455 40.7841 34.9205 41.0841 33.8705 41.0841ZM40.4468 53.0091C39.0368 53.0091 38.3318 52.0041 38.3318 49.9941C38.3318 47.3541 39.4868 43.1541 41.7968 37.3941C42.1868 36.4341 42.6518 35.4291 43.1918 34.3791C43.7318 33.3291 44.3618 32.2191 45.0818 31.0491C45.8318 29.7891 46.5368 28.6941 47.1968 27.7641C47.8868 26.8341 48.4868 26.0841 48.9968 25.5141C49.1768 25.3341 49.3268 25.2141 49.4468 25.1541C49.5968 25.0941 49.7168 25.0641 49.8068 25.0641C50.5868 25.0641 51.4718 25.2891 52.4618 25.7391C53.4518 26.1891 54.3368 26.7591 55.1168 27.4491C55.8368 28.0491 56.4218 28.7691 56.8718 29.6091C57.3218 30.4491 57.5468 31.3191 57.5468 32.2191C57.5468 32.8791 57.4118 33.5541 57.1418 34.2441C56.9018 34.9041 56.5718 35.5641 56.1518 36.2241C56.9318 36.0741 57.8768 35.7291 58.9868 35.1891C60.1268 34.6491 61.2818 33.8241 62.4518 32.7141C62.5718 32.5941 62.7368 32.5341 62.9468 32.5341C63.3968 32.5341 63.6218 32.7141 63.6218 33.0741C63.6218 33.2241 63.5468 33.4191 63.3968 33.6591C63.2768 33.8691 63.0518 34.1391 62.7218 34.4691C60.5018 36.5091 57.8318 37.6791 54.7118 37.9791C54.2618 38.4591 53.7668 38.9241 53.2268 39.3741C52.7168 39.7941 52.1768 40.1841 51.6068 40.5441C49.8668 41.5941 48.3818 42.1191 47.1518 42.1191C46.6418 42.1191 46.2218 41.9541 45.8918 41.6241C45.5618 41.2941 45.3968 40.9191 45.3968 40.4991C45.3968 39.1191 46.5968 38.0691 48.9968 37.3491C49.8668 37.1091 50.7368 36.8991 51.6068 36.7191C52.4768 36.5391 53.3318 36.3441 54.1718 36.1341C54.7718 35.2041 55.2068 34.3941 55.4768 33.7041C55.7768 33.0141 55.9268 32.4291 55.9268 31.9491C55.9268 30.3591 54.7418 28.8441 52.3718 27.4041C51.4418 26.8341 50.7068 26.5641 50.1668 26.5941C47.7068 29.2941 45.3818 33.0741 43.1918 37.9341C40.9118 42.9441 39.7718 46.8891 39.7718 49.7691C39.7718 50.4591 39.8318 50.9241 39.9518 51.1641C40.0718 51.4041 40.2818 51.5241 40.5818 51.5241C40.6718 51.5241 40.7468 51.5091 40.8068 51.4791C40.8668 51.4791 40.9268 51.4791 40.9868 51.4791C41.3768 51.4791 41.5718 51.7191 41.5718 52.1991C41.5718 52.7391 41.1968 53.0091 40.4468 53.0091ZM47.4668 40.6791C48.5768 40.6791 50.1818 39.8091 52.2818 38.0691C51.8018 38.1291 51.3368 38.2041 50.8868 38.2941C50.4668 38.3841 49.8518 38.5491 49.0418 38.7891C47.6918 39.1791 47.0168 39.6741 47.0168 40.2741C47.0168 40.5441 47.1668 40.6791 47.4668 40.6791ZM73.9901 43.6941C73.4201 43.6941 73.1351 43.2441 73.1351 42.3441C73.1351 41.0241 73.8701 38.7141 75.3401 35.4141C76.8401 32.1141 79.0601 27.7941 82.0001 22.4541C80.8601 22.4541 79.7801 22.6041 78.7601 22.9041C77.7701 23.1741 77.2451 23.5191 77.1851 23.9391C77.1551 24.0591 77.0801 24.1791 76.9601 24.2991C76.8701 24.3891 76.7201 24.4341 76.5101 24.4341C76.0301 24.4341 75.7901 24.1941 75.7901 23.7141C75.7901 22.9341 76.4051 22.2891 77.6351 21.7791C78.8651 21.2691 80.5901 21.0141 82.8101 21.0141L85.9151 15.8841C86.1251 15.5541 86.3501 15.1941 86.5901 14.8041C86.8301 14.3841 87.1001 13.9341 87.4001 13.4541C87.7001 13.0341 88.0451 12.8241 88.4351 12.8241C88.6751 12.8241 88.8551 12.8991 88.9751 13.0491C89.0951 13.1691 89.1551 13.3041 89.1551 13.4541C89.1551 13.9041 88.4951 15.1041 87.1751 17.0541C85.5251 19.4841 84.6401 20.8041 84.5201 21.0141C84.9701 21.0141 85.6451 21.0591 86.5451 21.1491C87.4451 21.2091 88.5101 21.3141 89.7401 21.4641C90.1901 21.4941 90.4151 21.7191 90.4151 22.1391C90.4151 22.6191 90.1451 22.8591 89.6051 22.8591C89.3951 22.8591 88.9751 22.8291 88.3451 22.7691C87.7151 22.6791 87.0401 22.6041 86.3201 22.5441C85.6001 22.4841 84.9851 22.4691 84.4751 22.4991L83.8001 22.5441C77.7101 33.2541 74.6801 39.9141 74.7101 42.5241L74.7551 42.8841V42.9741C74.7551 43.4541 74.5001 43.6941 73.9901 43.6941ZM83.6883 41.3991C83.2083 41.3991 82.9683 41.1591 82.9683 40.6791C82.9683 40.0491 83.1933 39.0591 83.6433 37.7091C84.0933 36.3291 84.6783 34.7541 85.3983 32.9841C86.1483 31.1841 86.9433 29.3391 87.7833 27.4491C88.2633 26.3991 88.7583 25.3791 89.2683 24.3891C89.7783 23.3691 90.2583 22.4841 90.7083 21.7341C95.1483 14.2341 97.9083 10.4841 98.9883 10.4841C99.4083 10.4841 99.6183 10.6941 99.6183 11.1141C99.6183 11.3841 99.4083 11.8941 98.9883 12.6441C98.5983 13.3641 98.0733 14.2191 97.4133 15.2091C96.7833 16.1691 96.0933 17.1441 95.3433 18.1341C94.6233 19.1241 93.9333 20.0391 93.2733 20.8791C92.6433 21.6891 92.1333 22.3041 91.7433 22.7241C91.4133 23.1141 91.0383 23.6841 90.6183 24.4341C90.2283 25.1841 89.8383 25.9641 89.4483 26.7741C89.0583 27.5541 88.7433 28.2441 88.5033 28.8441L86.7933 33.0741C87.2433 32.4741 87.8283 31.7991 88.5483 31.0491C90.2583 29.1591 92.0283 27.7341 93.8583 26.7741C95.7183 25.7841 97.2783 25.2891 98.5383 25.2891C99.2283 25.2891 99.7833 25.4991 100.203 25.9191C100.623 26.3391 100.833 26.8491 100.833 27.4491C100.833 28.6191 100.068 30.5841 98.5383 33.3441C97.0083 36.0741 96.2433 37.7541 96.2433 38.3841C96.2433 38.7141 96.4233 38.8791 96.7833 38.8791C97.6233 38.8791 98.5383 38.5791 99.5283 37.9791C100.518 37.3491 101.538 36.5541 102.588 35.5941C103.638 34.6341 104.658 33.6741 105.648 32.7141C105.768 32.5941 105.948 32.5341 106.188 32.5341C106.638 32.5341 106.863 32.7141 106.863 33.0741C106.863 33.4041 106.653 33.7791 106.233 34.1991C104.223 36.2091 102.498 37.7091 101.058 38.6991C99.6183 39.6891 98.1033 40.1841 96.5133 40.1841C95.3133 40.1841 94.7133 39.6291 94.7133 38.5191C94.7133 38.0991 94.7883 37.6941 94.9383 37.3041C95.0883 36.9141 95.3283 36.3891 95.6583 35.7291L97.7283 31.6341C98.2383 30.6141 98.6133 29.7591 98.8533 29.0691C99.0933 28.3791 99.2133 27.8541 99.2133 27.4941C99.2133 26.9841 98.8983 26.7291 98.2683 26.7291C97.1583 26.7291 95.8533 27.1791 94.3533 28.0791C92.8833 28.9491 91.3083 30.2691 89.6283 32.0391C88.6683 33.0591 87.7983 34.1391 87.0183 35.2791C86.2683 36.4191 85.6683 37.6491 85.2183 38.9691L84.6783 40.5441C84.4683 41.1141 84.1383 41.3991 83.6883 41.3991ZM102.604 41.7141C102.124 41.7141 101.884 41.5191 101.884 41.1291C101.884 40.9491 101.929 40.7691 102.019 40.5891C102.139 40.4091 102.229 40.2591 102.289 40.1391L106.384 31.8591C108.124 28.3191 108.994 26.3541 108.994 25.9641C108.994 25.5441 109.204 25.3341 109.624 25.3341C110.194 25.3341 110.479 25.6191 110.479 26.1891C110.479 26.4891 110.344 26.9691 110.074 27.6291C109.804 28.2891 109.459 29.0541 109.039 29.9241C108.319 31.4841 107.719 32.6841 107.239 33.5241C108.139 32.4741 109.054 31.4841 109.984 30.5541C110.914 29.6241 111.859 28.7391 112.819 27.8991C115.669 25.4091 117.859 24.1641 119.389 24.1641C120.439 24.1641 120.964 24.6591 120.964 25.6491C120.964 26.6091 120.649 27.0891 120.019 27.0891C119.719 27.0891 119.494 26.8341 119.344 26.3241C119.254 25.9641 119.044 25.7841 118.714 25.7841C118.204 25.7841 117.214 26.3391 115.744 27.4491C114.124 28.6491 112.489 30.0741 110.839 31.7241C109.219 33.3741 107.494 35.4741 105.664 38.0241L103.414 41.1741C103.294 41.3241 103.174 41.4441 103.054 41.5341C102.964 41.6541 102.814 41.7141 102.604 41.7141ZM122.283 40.3641C119.853 40.3641 118.638 38.9991 118.638 36.2691C118.638 35.0091 118.938 33.6891 119.538 32.3091C120.138 30.9291 120.933 29.6541 121.923 28.4841C122.913 27.2841 124.008 26.3091 125.208 25.5591C126.438 24.8091 127.683 24.4341 128.943 24.4341C130.053 24.4341 130.863 24.8541 131.373 25.6941C131.883 26.5341 132.138 27.4641 132.138 28.4841C132.138 29.8341 131.868 31.2141 131.328 32.6241C130.788 34.0041 130.053 35.2791 129.123 36.4491C128.193 37.6191 127.143 38.5641 125.973 39.2841C124.803 40.0041 123.573 40.3641 122.283 40.3641ZM122.238 38.9241C122.418 38.9241 122.523 38.9091 122.552 38.8791C123.723 38.7291 124.803 38.3091 125.793 37.6191C126.783 36.9291 127.638 36.0741 128.358 35.0541C129.108 34.0041 129.678 32.8791 130.068 31.6791C130.458 30.4791 130.653 29.2941 130.653 28.1241C130.653 27.4341 130.458 26.8941 130.068 26.5041C129.678 26.1141 129.183 25.9191 128.583 25.9191C127.713 25.9191 126.783 26.2791 125.793 26.9991C124.833 27.7191 123.918 28.6341 123.048 29.7441C122.208 30.8541 121.518 32.0241 120.978 33.2541C120.438 34.4541 120.168 35.5341 120.168 36.4941C120.168 38.1141 120.858 38.9241 122.238 38.9241ZM146.178 42.1191C144.708 42.1191 143.973 41.0541 143.973 38.9241C143.973 37.7841 144.243 36.4041 144.783 34.7841C141.153 39.0141 138.303 41.1291 136.233 41.1291C134.523 41.1291 133.668 40.0941 133.668 38.0241C133.668 37.2441 133.788 36.3141 134.028 35.2341C134.298 34.1241 134.643 32.9841 135.063 31.8141C135.513 30.6441 135.993 29.5491 136.503 28.5291C137.013 27.5091 137.523 26.6841 138.033 26.0541C138.213 25.8441 138.438 25.7391 138.708 25.7391C138.858 25.7391 139.008 25.7991 139.158 25.9191C139.308 26.0091 139.383 26.1591 139.383 26.3691C139.383 26.5491 139.278 26.8041 139.068 27.1341C137.718 29.3541 136.758 31.2891 136.188 32.9391C135.468 34.8291 135.108 36.4641 135.108 37.8441C135.108 39.1341 135.438 39.7791 136.098 39.7791C136.518 39.7791 137.073 39.5691 137.763 39.1491C138.453 38.7291 139.158 38.2191 139.878 37.6191C140.628 36.9891 141.273 36.4041 141.813 35.8641C143.313 34.2741 144.663 32.5791 145.863 30.7791C146.403 29.9391 146.883 29.1291 147.303 28.3491C147.753 27.5391 148.158 26.6991 148.518 25.8291C148.668 25.4991 148.788 25.2591 148.878 25.1091C148.998 24.9291 149.163 24.8391 149.373 24.8391C150.003 24.8391 150.318 25.0791 150.318 25.5591C150.318 25.8591 150.213 26.0691 150.003 26.1891C146.943 32.3991 145.413 36.6741 145.413 39.0141C145.413 39.6441 145.473 40.0941 145.593 40.3641C145.713 40.6041 145.923 40.7241 146.223 40.7241C146.643 40.7241 147.288 40.4541 148.158 39.9141C149.058 39.3741 150.108 38.5491 151.308 37.4391L156.033 33.1191C156.273 32.8791 156.498 32.7591 156.708 32.7591C157.188 32.7591 157.428 32.9841 157.428 33.4341C157.428 33.8241 156.483 34.8741 154.593 36.5841C153.783 37.3341 153.063 37.9641 152.433 38.4741C151.803 38.9841 151.218 39.4341 150.678 39.8241C149.658 40.5441 148.758 41.0991 147.978 41.4891C147.198 41.9091 146.598 42.1191 146.178 42.1191ZM155.572 55.3941C154.312 55.3941 153.367 54.9141 152.737 53.9541C152.107 53.0241 151.792 51.9591 151.792 50.7591C151.792 49.8591 151.837 48.9741 151.927 48.1041C151.987 47.2641 152.092 46.4241 152.242 45.5841C152.332 45.1041 152.542 44.8641 152.872 44.8641C153.472 44.8641 153.772 45.1791 153.772 45.8091C153.772 45.9891 153.727 46.2591 153.637 46.6191C153.547 46.9191 153.502 47.1441 153.502 47.2941C153.442 47.7741 153.397 48.2691 153.367 48.7791C153.337 49.3191 153.322 49.8591 153.322 50.3991C153.322 52.7691 154.192 53.9541 155.932 53.9541C156.442 53.9541 157.027 53.6091 157.687 52.9191C158.377 52.2291 158.992 51.4791 159.532 50.6691C160.792 48.7791 162.127 45.7941 163.537 41.7141L165.022 37.4391C162.592 40.3491 160.402 41.8041 158.452 41.8041C157.252 41.8041 156.322 41.3541 155.662 40.4541C155.002 39.5541 154.672 38.4591 154.672 37.1691C154.672 34.5891 155.812 31.7391 158.092 28.6191C160.582 25.2891 163.027 23.6241 165.427 23.6241C167.317 23.6241 168.562 24.7341 169.162 26.9541C170.302 24.1941 171.352 22.8141 172.312 22.8141C172.672 22.8141 172.852 23.1141 172.852 23.7141C172.852 24.9141 172.297 26.5191 171.187 28.5291C170.947 28.9191 170.647 29.3991 170.287 29.9691C169.957 30.5391 169.582 31.2141 169.162 31.9941L167.632 35.7291C167.332 36.4491 166.957 37.3641 166.507 38.4741C166.057 39.5541 165.547 40.8291 164.977 42.2991C164.317 44.0991 163.702 45.6441 163.132 46.9341C162.592 48.2541 162.097 49.3341 161.647 50.1741C159.697 53.6541 157.732 55.3941 155.752 55.3941H155.572ZM158.452 40.2291C160.342 40.2291 163.132 37.6941 166.822 32.6241L168.127 29.2941C167.917 29.1441 167.767 28.8291 167.677 28.3491C167.407 27.0591 167.092 26.2041 166.732 25.7841C166.372 25.3641 165.892 25.1541 165.292 25.1541C164.602 25.1541 163.807 25.4691 162.907 26.0991C162.007 26.7291 161.152 27.5091 160.342 28.4391C159.532 29.3391 158.887 30.2241 158.407 31.0941C156.967 33.5541 156.247 35.6691 156.247 37.4391C156.247 39.2991 156.982 40.2291 158.452 40.2291ZM171.843 41.3991C171.363 41.3991 171.123 41.1591 171.123 40.6791C171.123 40.0491 171.348 39.0591 171.798 37.7091C172.248 36.3291 172.833 34.7541 173.553 32.9841C174.303 31.1841 175.098 29.3391 175.938 27.4491C176.418 26.3991 176.913 25.3791 177.423 24.3891C177.933 23.3691 178.413 22.4841 178.863 21.7341C183.303 14.2341 186.063 10.4841 187.143 10.4841C187.563 10.4841 187.773 10.6941 187.773 11.1141C187.773 11.3841 187.563 11.8941 187.143 12.6441C186.753 13.3641 186.228 14.2191 185.568 15.2091C184.938 16.1691 184.248 17.1441 183.498 18.1341C182.778 19.1241 182.088 20.0391 181.428 20.8791C180.798 21.6891 180.288 22.3041 179.898 22.7241C179.568 23.1141 179.193 23.6841 178.773 24.4341C178.383 25.1841 177.993 25.9641 177.603 26.7741C177.213 27.5541 176.898 28.2441 176.658 28.8441L174.948 33.0741C175.398 32.4741 175.983 31.7991 176.703 31.0491C178.413 29.1591 180.183 27.7341 182.013 26.7741C183.873 25.7841 185.433 25.2891 186.693 25.2891C187.383 25.2891 187.938 25.4991 188.358 25.9191C188.778 26.3391 188.988 26.8491 188.988 27.4491C188.988 28.6191 188.223 30.5841 186.693 33.3441C185.163 36.0741 184.398 37.7541 184.398 38.3841C184.398 38.7141 184.578 38.8791 184.938 38.8791C185.778 38.8791 186.693 38.5791 187.683 37.9791C188.673 37.3491 189.693 36.5541 190.743 35.5941C191.793 34.6341 192.813 33.6741 193.803 32.7141C193.923 32.5941 194.103 32.5341 194.343 32.5341C194.793 32.5341 195.018 32.7141 195.018 33.0741C195.018 33.4041 194.808 33.7791 194.388 34.1991C192.378 36.2091 190.653 37.7091 189.213 38.6991C187.773 39.6891 186.258 40.1841 184.668 40.1841C183.468 40.1841 182.868 39.6291 182.868 38.5191C182.868 38.0991 182.943 37.6941 183.093 37.3041C183.243 36.9141 183.483 36.3891 183.813 35.7291L185.883 31.6341C186.393 30.6141 186.768 29.7591 187.008 29.0691C187.248 28.3791 187.368 27.8541 187.368 27.4941C187.368 26.9841 187.053 26.7291 186.423 26.7291C185.313 26.7291 184.008 27.1791 182.508 28.0791C181.038 28.9491 179.463 30.2691 177.783 32.0391C176.823 33.0591 175.953 34.1391 175.173 35.2791C174.423 36.4191 173.823 37.6491 173.373 38.9691L172.833 40.5441C172.623 41.1141 172.293 41.3991 171.843 41.3991ZM205.167 43.6941C204.597 43.6941 204.312 43.2441 204.312 42.3441C204.312 41.0241 205.047 38.7141 206.517 35.4141C208.017 32.1141 210.237 27.7941 213.177 22.4541C212.037 22.4541 210.957 22.6041 209.937 22.9041C208.947 23.1741 208.422 23.5191 208.362 23.9391C208.332 24.0591 208.257 24.1791 208.137 24.2991C208.047 24.3891 207.897 24.4341 207.687 24.4341C207.207 24.4341 206.967 24.1941 206.967 23.7141C206.967 22.9341 207.582 22.2891 208.812 21.7791C210.042 21.2691 211.767 21.0141 213.987 21.0141L217.092 15.8841C217.302 15.5541 217.527 15.1941 217.767 14.8041C218.007 14.3841 218.277 13.9341 218.577 13.4541C218.877 13.0341 219.222 12.8241 219.612 12.8241C219.852 12.8241 220.032 12.8991 220.152 13.0491C220.272 13.1691 220.332 13.3041 220.332 13.4541C220.332 13.9041 219.672 15.1041 218.352 17.0541C216.702 19.4841 215.817 20.8041 215.697 21.0141C216.147 21.0141 216.822 21.0591 217.722 21.1491C218.622 21.2091 219.687 21.3141 220.917 21.4641C221.367 21.4941 221.592 21.7191 221.592 22.1391C221.592 22.6191 221.322 22.8591 220.782 22.8591C220.572 22.8591 220.152 22.8291 219.522 22.7691C218.892 22.6791 218.217 22.6041 217.497 22.5441C216.777 22.4841 216.162 22.4691 215.652 22.4991L214.977 22.5441C208.887 33.2541 205.857 39.9141 205.887 42.5241L205.932 42.8841V42.9741C205.932 43.4541 205.677 43.6941 205.167 43.6941ZM219.05 40.3641C216.62 40.3641 215.405 38.9991 215.405 36.2691C215.405 35.0091 215.705 33.6891 216.305 32.3091C216.905 30.9291 217.7 29.6541 218.69 28.4841C219.68 27.2841 220.775 26.3091 221.975 25.5591C223.205 24.8091 224.45 24.4341 225.71 24.4341C226.82 24.4341 227.63 24.8541 228.14 25.6941C228.65 26.5341 228.905 27.4641 228.905 28.4841C228.905 29.8341 228.635 31.2141 228.095 32.6241C227.555 34.0041 226.82 35.2791 225.89 36.4491C224.96 37.6191 223.91 38.5641 222.74 39.2841C221.57 40.0041 220.34 40.3641 219.05 40.3641ZM219.005 38.9241C219.185 38.9241 219.29 38.9091 219.32 38.8791C220.49 38.7291 221.57 38.3091 222.56 37.6191C223.55 36.9291 224.405 36.0741 225.125 35.0541C225.875 34.0041 226.445 32.8791 226.835 31.6791C227.225 30.4791 227.42 29.2941 227.42 28.1241C227.42 27.4341 227.225 26.8941 226.835 26.5041C226.445 26.1141 225.95 25.9191 225.35 25.9191C224.48 25.9191 223.55 26.2791 222.56 26.9991C221.6 27.7191 220.685 28.6341 219.815 29.7441C218.975 30.8541 218.285 32.0241 217.745 33.2541C217.205 34.4541 216.935 35.5341 216.935 36.4941C216.935 38.1141 217.625 38.9241 219.005 38.9241ZM241.604 41.7141C241.124 41.7141 240.884 41.5191 240.884 41.1291C240.884 40.9491 240.929 40.7691 241.019 40.5891C241.139 40.4091 241.229 40.2591 241.289 40.1391L245.384 31.8591C247.124 28.3191 247.994 26.3541 247.994 25.9641C247.994 25.5441 248.204 25.3341 248.624 25.3341C249.194 25.3341 249.479 25.6191 249.479 26.1891C249.479 26.4891 249.344 26.9691 249.074 27.6291C248.804 28.2891 248.459 29.0541 248.039 29.9241C247.319 31.4841 246.719 32.6841 246.239 33.5241C247.139 32.4741 248.054 31.4841 248.984 30.5541C249.914 29.6241 250.859 28.7391 251.819 27.8991C254.669 25.4091 256.859 24.1641 258.389 24.1641C259.439 24.1641 259.964 24.6591 259.964 25.6491C259.964 26.6091 259.649 27.0891 259.019 27.0891C258.719 27.0891 258.494 26.8341 258.344 26.3241C258.254 25.9641 258.044 25.7841 257.714 25.7841C257.204 25.7841 256.214 26.3391 254.744 27.4491C253.124 28.6491 251.489 30.0741 249.839 31.7241C248.219 33.3741 246.494 35.4741 244.664 38.0241L242.414 41.1741C242.294 41.3241 242.174 41.4441 242.054 41.5341C241.964 41.6541 241.814 41.7141 241.604 41.7141ZM262.137 41.3991C260.877 41.3991 259.887 40.9641 259.167 40.0941C258.447 39.2241 258.087 38.1591 258.087 36.8991C258.087 34.7391 258.807 32.5191 260.247 30.2391C260.637 29.6091 261.087 28.9941 261.597 28.3941C262.107 27.7641 262.662 27.1641 263.262 26.5941C264.162 25.7241 265.107 25.0041 266.097 24.4341C267.087 23.8641 268.047 23.5791 268.977 23.5791C270.507 23.5791 271.272 24.2991 271.272 25.7391C271.272 27.5391 270.222 29.1741 268.122 30.6441C266.172 31.9641 264.252 32.6241 262.362 32.6241C262.032 32.6241 261.732 32.6091 261.462 32.5791C261.222 32.5191 260.997 32.4591 260.787 32.3991C260.487 32.9691 260.217 33.7041 259.977 34.6041C259.737 35.5041 259.617 36.2841 259.617 36.9441C259.617 38.9241 260.487 39.9141 262.227 39.9141C263.637 39.9141 264.972 39.6741 266.232 39.1941C267.492 38.6841 268.992 37.7391 270.732 36.3591C271.812 35.5191 272.622 34.8441 273.162 34.3341C273.702 33.8241 274.287 33.2841 274.917 32.7141C275.097 32.5941 275.262 32.5341 275.412 32.5341C275.562 32.5341 275.712 32.5791 275.862 32.6691C276.012 32.7591 276.087 32.8941 276.087 33.0741C276.087 33.4041 275.787 33.8691 275.187 34.4691C274.677 34.9491 274.137 35.4591 273.567 35.9991C272.997 36.5091 272.097 37.2291 270.867 38.1591C269.547 39.1791 268.107 39.9741 266.547 40.5441C264.987 41.1141 263.517 41.3991 262.137 41.3991ZM262.092 31.1841C263.052 31.1841 263.967 31.0341 264.837 30.7341C265.707 30.4341 266.532 29.9991 267.312 29.4291C269.052 28.1391 269.922 26.9241 269.922 25.7841C269.922 25.2741 269.607 25.0191 268.977 25.0191C267.777 25.0191 266.382 25.7541 264.792 27.2241C264.012 27.9441 263.367 28.6041 262.857 29.2041C262.377 29.7741 261.927 30.4041 261.507 31.0941C261.687 31.1541 261.882 31.1841 262.092 31.1841ZM275.392 41.0391C273.652 41.0391 272.782 40.2141 272.782 38.5641C272.782 37.4841 273.037 36.3291 273.547 35.0991C274.087 33.8391 274.807 32.6241 275.707 31.4541C276.607 30.2541 277.612 29.1741 278.722 28.2141C279.832 27.2241 280.972 26.4441 282.142 25.8741C283.312 25.2741 284.437 24.9741 285.517 24.9741C287.437 24.9741 288.397 25.9191 288.397 27.8091C288.397 29.0391 288.097 29.6541 287.497 29.6541C286.957 29.6541 286.687 29.3991 286.687 28.8891C286.687 28.6791 286.732 28.4691 286.822 28.2591C286.942 28.0191 287.002 27.7641 287.002 27.4941C287.002 26.6541 286.432 26.2341 285.292 26.2341C283.462 26.2341 281.167 27.6291 278.407 30.4191C277.747 31.1091 277.102 31.9191 276.472 32.8491C275.842 33.7791 275.317 34.7241 274.897 35.6841C274.507 36.6141 274.312 37.4991 274.312 38.3391C274.312 39.1491 274.762 39.5541 275.662 39.5541C276.442 39.5541 277.267 39.3141 278.137 38.8341C279.037 38.3541 279.817 37.8591 280.477 37.3491C281.797 36.3591 283.147 35.0091 284.527 33.2991C284.737 33.0591 285.007 32.7441 285.337 32.3541C285.667 31.9641 286.042 31.5291 286.462 31.0491C286.612 30.8991 286.792 30.8241 287.002 30.8241C287.482 30.8241 287.722 31.0641 287.722 31.5441L286.012 34.1091C284.872 35.7891 284.302 37.1691 284.302 38.2491C284.302 39.0291 284.677 39.4191 285.427 39.4191C286.057 39.4191 286.747 39.2541 287.497 38.9241C288.247 38.5941 288.862 38.2641 289.342 37.9341C290.302 37.3041 291.307 36.5241 292.357 35.5941C293.407 34.6341 294.412 33.6741 295.372 32.7141C295.492 32.5941 295.672 32.5341 295.912 32.5341C296.362 32.5341 296.587 32.7141 296.587 33.0741C296.587 33.4041 296.377 33.7791 295.957 34.1991C294.757 35.3991 293.677 36.4341 292.717 37.3041C291.757 38.1441 290.842 38.8341 289.972 39.3741C289.402 39.7041 288.697 40.0491 287.857 40.4091C287.017 40.7691 286.057 40.9491 284.977 40.9491C283.507 40.9491 282.772 40.1691 282.772 38.6091C282.772 38.0091 282.847 37.5141 282.997 37.1241C280.267 39.7341 277.732 41.0391 275.392 41.0391ZM308.426 44.5941C308.186 44.5941 307.886 44.4741 307.526 44.2341C307.196 44.0241 306.941 43.8141 306.761 43.6041C306.401 43.1541 306.161 42.6141 306.041 41.9841C305.921 41.3541 305.861 40.6641 305.861 39.9141C305.861 39.2841 305.876 38.6091 305.906 37.8891C305.966 37.1391 306.056 36.3441 306.176 35.5041C305.396 36.4041 304.511 37.2891 303.521 38.1591C302.561 38.9991 301.571 39.6891 300.551 40.2291C299.561 40.7691 298.616 41.0391 297.716 41.0391C295.466 41.0391 294.341 39.8391 294.341 37.4391C294.341 34.9491 295.211 32.5491 296.951 30.2391C297.821 29.0991 298.811 28.0041 299.921 26.9541C301.031 25.9041 302.201 25.0491 303.431 24.3891C304.661 23.7291 305.876 23.3991 307.076 23.3991C307.976 23.3991 308.771 23.7441 309.461 24.4341C309.521 24.3141 309.596 24.1191 309.686 23.8491C309.806 23.5791 309.971 23.2341 310.181 22.8141C310.901 21.2541 311.696 19.6341 312.566 17.9541C313.436 16.2441 314.216 14.8341 314.906 13.7241C315.686 12.4941 316.421 11.8791 317.111 11.8791C317.591 11.8791 317.831 12.2541 317.831 13.0041C317.831 14.2941 316.616 17.3091 314.186 22.0491C314.036 22.3191 313.766 22.8141 313.376 23.5341C313.016 24.2241 312.581 25.0341 312.071 25.9641C311.591 26.8641 311.096 27.7641 310.586 28.6641C310.076 29.5641 309.611 30.3741 309.191 31.0941C308.801 31.7841 308.516 32.2641 308.336 32.5341C308.006 33.8841 307.751 35.1741 307.571 36.4041C307.391 37.6041 307.301 38.8491 307.301 40.1391C307.301 40.6191 307.316 41.0541 307.346 41.4441C307.406 41.8641 307.526 42.1941 307.706 42.4341C307.856 42.6141 308.021 42.7491 308.201 42.8391C308.381 42.9591 308.591 43.0641 308.831 43.1541C309.191 43.2441 309.371 43.4541 309.371 43.7841C309.371 44.3241 309.056 44.5941 308.426 44.5941ZM310.541 25.7841C311.681 23.8341 312.686 22.0191 313.556 20.3391C314.426 18.6291 315.131 17.0241 315.671 15.5241C314.471 17.0841 313.466 18.7341 312.656 20.4741C311.846 22.2141 311.141 23.9841 310.541 25.7841ZM297.401 39.6891C298.271 39.6891 299.186 39.4041 300.146 38.8341C301.136 38.2341 302.066 37.5291 302.936 36.7191C303.716 35.9991 304.436 35.2641 305.096 34.5141C305.756 33.7341 306.371 32.9391 306.941 32.1291C307.181 31.0791 307.451 30.0441 307.751 29.0241C308.081 28.0041 308.441 26.9841 308.831 25.9641C308.351 25.2141 307.676 24.8391 306.806 24.8391C305.906 24.8391 304.901 25.1841 303.791 25.8741C302.711 26.5341 301.661 27.3591 300.641 28.3491C299.651 29.3391 298.796 30.2841 298.076 31.1841C296.576 33.1941 295.826 35.3241 295.826 37.5741C295.826 38.9841 296.351 39.6891 297.401 39.6891Z" fill="#FF6265"/>
<path d="M191.36 151.735C190.834 151.569 190.542 151.007 190.708 150.48L193.417 141.898C193.584 141.371 194.145 141.079 194.672 141.245C195.199 141.411 195.491 141.973 195.324 142.5L192.916 150.129L200.545 152.537C201.072 152.703 201.364 153.265 201.198 153.792C201.031 154.318 200.47 154.611 199.943 154.444L191.36 151.735ZM246 54.3042L246.412 55.2155C222.643 65.957 217.098 85.4801 213.566 104.732C211.809 114.31 210.539 123.926 207.709 132.129C204.86 140.386 200.385 147.371 192.123 151.668L191.661 150.781L191.2 149.894C198.857 145.911 203.072 139.437 205.818 131.477C208.583 123.463 209.814 114.103 211.599 104.371C215.152 85.0045 220.857 64.5689 245.588 53.3929L246 54.3042Z" fill="#FF6265"/>
</svg>
