<svg width="330" height="159" viewBox="0 0 330 159" fill="none" xmlns="http://www.w3.org/2000/svg">
<path d="M7.01785 91.7696C4.58785 91.7696 3.37285 90.4046 3.37285 87.6746C3.37285 86.4146 3.67285 85.0946 4.27285 83.7146C4.87285 82.3346 5.66785 81.0596 6.65785 79.8896C7.64785 78.6896 8.74285 77.7146 9.94285 76.9646C11.1729 76.2146 12.4179 75.8396 13.6779 75.8396C14.7879 75.8396 15.5979 76.2596 16.1079 77.0996C16.6179 77.9396 16.8729 78.8696 16.8729 79.8896C16.8729 81.2396 16.6029 82.6196 16.0629 84.0296C15.5229 85.4096 14.7879 86.6846 13.8579 87.8546C12.9279 89.0246 11.8779 89.9696 10.7079 90.6896C9.53785 91.4096 8.30785 91.7696 7.01785 91.7696ZM6.97285 90.3296C7.15285 90.3296 7.25785 90.3146 7.28785 90.2846C8.45785 90.1346 9.53785 89.7146 10.5279 89.0246C11.5179 88.3346 12.3729 87.4796 13.0929 86.4596C13.8429 85.4096 14.4129 84.2846 14.8029 83.0846C15.1929 81.8846 15.3879 80.6996 15.3879 79.5296C15.3879 78.8396 15.1929 78.2996 14.8029 77.9096C14.4129 77.5196 13.9179 77.3246 13.3179 77.3246C12.4479 77.3246 11.5179 77.6846 10.5279 78.4046C9.56785 79.1246 8.65285 80.0396 7.78285 81.1496C6.94285 82.2596 6.25285 83.4296 5.71285 84.6596C5.17285 85.8596 4.90285 86.9396 4.90285 87.8996C4.90285 89.5196 5.59285 90.3296 6.97285 90.3296ZM30.9132 93.5246C29.4432 93.5246 28.7082 92.4596 28.7082 90.3296C28.7082 89.1896 28.9782 87.8096 29.5182 86.1896C25.8882 90.4196 23.0382 92.5346 20.9682 92.5346C19.2582 92.5346 18.4032 91.4996 18.4032 89.4296C18.4032 88.6496 18.5232 87.7196 18.7632 86.6396C19.0332 85.5296 19.3782 84.3896 19.7982 83.2196C20.2482 82.0496 20.7282 80.9546 21.2382 79.9346C21.7482 78.9146 22.2582 78.0896 22.7682 77.4596C22.9482 77.2496 23.1732 77.1446 23.4432 77.1446C23.5932 77.1446 23.7432 77.2046 23.8932 77.3246C24.0432 77.4146 24.1182 77.5646 24.1182 77.7746C24.1182 77.9546 24.0132 78.2096 23.8032 78.5396C22.4532 80.7596 21.4932 82.6946 20.9232 84.3446C20.2032 86.2346 19.8432 87.8696 19.8432 89.2496C19.8432 90.5396 20.1732 91.1846 20.8332 91.1846C21.2532 91.1846 21.8082 90.9746 22.4982 90.5546C23.1882 90.1346 23.8932 89.6246 24.6132 89.0246C25.3632 88.3946 26.0082 87.8096 26.5482 87.2696C28.0482 85.6796 29.3982 83.9846 30.5982 82.1846C31.1382 81.3446 31.6182 80.5346 32.0382 79.7546C32.4882 78.9446 32.8932 78.1046 33.2532 77.2346C33.4032 76.9046 33.5232 76.6646 33.6132 76.5146C33.7332 76.3346 33.8982 76.2446 34.1082 76.2446C34.7382 76.2446 35.0532 76.4846 35.0532 76.9646C35.0532 77.2646 34.9482 77.4746 34.7382 77.5946C31.6782 83.8046 30.1482 88.0796 30.1482 90.4196C30.1482 91.0496 30.2082 91.4996 30.3282 91.7696C30.4482 92.0096 30.6582 92.1296 30.9582 92.1296C31.3782 92.1296 32.0232 91.8596 32.8932 91.3196C33.7932 90.7796 34.8432 89.9546 36.0432 88.8446L40.7682 84.5246C41.0082 84.2846 41.2332 84.1646 41.4432 84.1646C41.9232 84.1646 42.1632 84.3896 42.1632 84.8396C42.1632 85.2296 41.2182 86.2796 39.3282 87.9896C38.5182 88.7396 37.7982 89.3696 37.1682 89.8796C36.5382 90.3896 35.9532 90.8396 35.4132 91.2296C34.3932 91.9496 33.4932 92.5046 32.7132 92.8946C31.9332 93.3146 31.3332 93.5246 30.9132 93.5246ZM39.497 95.0996C38.927 95.0996 38.642 94.6496 38.642 93.7496C38.642 92.4296 39.377 90.1196 40.847 86.8196C42.347 83.5196 44.567 79.1996 47.507 73.8596C46.367 73.8596 45.287 74.0096 44.267 74.3096C43.277 74.5796 42.752 74.9246 42.692 75.3446C42.662 75.4646 42.587 75.5846 42.467 75.7046C42.377 75.7946 42.227 75.8396 42.017 75.8396C41.537 75.8396 41.297 75.5996 41.297 75.1196C41.297 74.3396 41.912 73.6946 43.142 73.1846C44.372 72.6746 46.097 72.4196 48.317 72.4196L51.422 67.2896C51.632 66.9596 51.857 66.5996 52.097 66.2096C52.337 65.7896 52.607 65.3396 52.907 64.8596C53.207 64.4396 53.552 64.2296 53.942 64.2296C54.182 64.2296 54.362 64.3046 54.482 64.4546C54.602 64.5746 54.662 64.7096 54.662 64.8596C54.662 65.3096 54.002 66.5096 52.682 68.4596C51.032 70.8896 50.147 72.2096 50.027 72.4196C50.477 72.4196 51.152 72.4646 52.052 72.5546C52.952 72.6146 54.017 72.7196 55.247 72.8696C55.697 72.8996 55.922 73.1246 55.922 73.5446C55.922 74.0246 55.652 74.2646 55.112 74.2646C54.902 74.2646 54.482 74.2346 53.852 74.1746C53.222 74.0846 52.547 74.0096 51.827 73.9496C51.107 73.8896 50.492 73.8746 49.982 73.9046L49.307 73.9496C43.217 84.6596 40.187 91.3196 40.217 93.9296L40.262 94.2896V94.3796C40.262 94.8596 40.007 95.0996 39.497 95.0996ZM60.9482 93.1196C60.4682 93.1196 60.2282 92.9246 60.2282 92.5346C60.2282 92.3846 60.2882 92.2046 60.4082 91.9946C60.5282 91.7546 60.6332 91.5596 60.7232 91.4096L64.7732 83.2646C66.5132 79.7246 67.3832 77.7596 67.3832 77.3696C67.3832 76.9496 67.5932 76.7396 68.0132 76.7396C68.5832 76.7396 68.8682 77.0396 68.8682 77.6396C68.8682 77.8496 68.7332 78.2996 68.4632 78.9896C68.1932 79.6796 67.8482 80.4596 67.4282 81.3296C66.7082 82.8896 66.1082 84.0896 65.6282 84.9296C66.5282 83.8796 67.4432 82.8896 68.3732 81.9596C69.3032 81.0296 70.2482 80.1446 71.2082 79.3046C74.0582 76.8146 76.2482 75.5696 77.7782 75.5696C78.8282 75.5696 79.3532 76.0646 79.3532 77.0546C79.3532 77.9546 78.5882 79.9796 77.0582 83.1296C75.5282 86.3096 74.7632 88.3196 74.7632 89.1596C74.7632 89.5496 74.8982 89.7446 75.1682 89.7446C75.2582 89.7446 75.3932 89.7146 75.5732 89.6546C75.7832 89.5646 75.9932 89.5196 76.2032 89.5196C76.7132 89.5196 76.9682 89.7596 76.9682 90.2396C76.9682 90.8396 76.3232 91.1396 75.0332 91.1396C74.4332 91.1396 73.9982 91.0046 73.7282 90.7346C73.4582 90.4346 73.3232 90.0446 73.3232 89.5646C73.3232 88.1246 74.0582 85.9346 75.5282 82.9946C76.9982 80.0846 77.7332 78.3296 77.7332 77.7296C77.7332 77.3696 77.5982 77.1896 77.3282 77.1896C76.6682 77.1896 75.6032 77.7446 74.1332 78.8546C72.5432 80.0546 70.9532 81.4346 69.3632 82.9946C67.7732 84.5546 66.2582 86.3396 64.8182 88.3496L61.6682 92.7146C61.4882 92.9846 61.2482 93.1196 60.9482 93.1196ZM84.054 91.7696C81.624 91.7696 80.409 90.4046 80.409 87.6746C80.409 86.4146 80.709 85.0946 81.309 83.7146C81.909 82.3346 82.704 81.0596 83.694 79.8896C84.684 78.6896 85.779 77.7146 86.979 76.9646C88.209 76.2146 89.454 75.8396 90.714 75.8396C91.824 75.8396 92.634 76.2596 93.144 77.0996C93.654 77.9396 93.909 78.8696 93.909 79.8896C93.909 81.2396 93.639 82.6196 93.099 84.0296C92.559 85.4096 91.824 86.6846 90.894 87.8546C89.964 89.0246 88.914 89.9696 87.744 90.6896C86.574 91.4096 85.344 91.7696 84.054 91.7696ZM84.009 90.3296C84.189 90.3296 84.294 90.3146 84.324 90.2846C85.494 90.1346 86.574 89.7146 87.564 89.0246C88.554 88.3346 89.409 87.4796 90.129 86.4596C90.879 85.4096 91.449 84.2846 91.839 83.0846C92.229 81.8846 92.424 80.6996 92.424 79.5296C92.424 78.8396 92.229 78.2996 91.839 77.9096C91.449 77.5196 90.954 77.3246 90.354 77.3246C89.484 77.3246 88.554 77.6846 87.564 78.4046C86.604 79.1246 85.689 80.0396 84.819 81.1496C83.979 82.2596 83.289 83.4296 82.749 84.6596C82.209 85.8596 81.939 86.9396 81.939 87.8996C81.939 89.5196 82.629 90.3296 84.009 90.3296ZM111.324 92.8946C110.574 92.8946 109.989 92.5946 109.569 91.9946C109.149 91.3946 108.939 90.6446 108.939 89.7446C108.939 89.5046 108.954 89.1446 108.984 88.6646C109.014 88.1546 109.044 87.6296 109.074 87.0896C109.134 86.5196 109.179 86.0246 109.209 85.6046C109.239 85.1546 109.269 84.8846 109.299 84.7946L109.254 84.6146C108.984 85.0046 108.609 85.5146 108.129 86.1446C107.679 86.7746 107.199 87.4196 106.689 88.0796C106.209 88.7096 105.774 89.2646 105.384 89.7446C104.754 90.4946 104.064 91.0796 103.314 91.4996C102.564 91.9196 101.874 92.1296 101.244 92.1296C100.494 92.1296 99.8643 91.7546 99.3543 91.0046C98.8443 90.2246 98.5893 89.1146 98.5893 87.6746C98.5893 86.2946 98.8143 84.7496 99.2643 83.0396L97.8693 84.6596C97.6593 84.8696 97.4793 85.0496 97.3293 85.1996C97.1793 85.3196 97.0293 85.3796 96.8793 85.3796C96.7293 85.3796 96.5793 85.3196 96.4293 85.1996C96.3093 85.0496 96.2493 84.8696 96.2493 84.6596C96.2493 84.4496 96.3243 84.2696 96.4743 84.1196C96.7743 83.7896 97.1193 83.3696 97.5093 82.8596C97.9293 82.3196 98.4093 81.7046 98.9493 81.0146C99.3993 80.3846 100.149 79.2146 101.199 77.5046C101.379 77.2046 101.619 77.0546 101.919 77.0546C102.429 77.0546 102.684 77.2946 102.684 77.7746C102.684 77.9246 102.609 78.1346 102.459 78.4046C102.309 78.6446 102.099 79.1096 101.829 79.7996C101.289 81.2096 100.869 82.6046 100.569 83.9846C100.269 85.3346 100.119 86.6696 100.119 87.9896C100.119 89.1296 100.194 89.8796 100.344 90.2396C100.494 90.5696 100.719 90.7346 101.019 90.7346C101.979 90.7346 103.134 90.0146 104.484 88.5746C104.874 88.1546 105.459 87.4496 106.239 86.4596C107.019 85.4396 107.829 84.2546 108.669 82.9046C109.509 81.5246 110.169 80.1146 110.649 78.6746L111.324 76.6946C111.414 76.4246 111.609 76.2896 111.909 76.2896C112.449 76.2896 112.719 76.5446 112.719 77.0546C112.719 77.2346 112.554 77.7146 112.224 78.4946C111.894 79.2446 111.564 80.4296 111.234 82.0496C111.024 83.0696 110.829 84.1496 110.649 85.2896C110.499 86.4296 110.424 87.5246 110.424 88.5746C110.424 90.5846 110.754 91.5896 111.414 91.5896C111.954 91.5896 112.644 91.3046 113.484 90.7346C114.324 90.1646 115.209 89.4446 116.139 88.5746C117.069 87.7046 117.909 86.8046 118.659 85.8746C119.349 85.0646 120.054 84.1346 120.774 83.0846C121.494 82.0346 122.094 80.9846 122.574 79.9346C123.084 78.8546 123.339 77.9246 123.339 77.1446C123.339 76.3646 123.129 75.8546 122.709 75.6146C122.649 75.5846 122.244 75.5246 121.494 75.4346C121.074 75.3746 120.864 75.1346 120.864 74.7146C120.864 74.2346 121.104 73.9946 121.584 73.9946C122.544 73.9946 123.309 74.2646 123.879 74.8046C124.479 75.3446 124.779 76.0796 124.779 77.0096C124.779 79.5296 123.099 82.7846 119.739 86.7746C116.319 90.8546 113.514 92.8946 111.324 92.8946ZM140.327 85.9646C139.847 85.9646 139.607 85.7246 139.607 85.2446C139.607 84.4646 140.372 82.8896 141.902 80.5196L145.007 75.9296L147.572 72.2396C148.142 71.3696 148.592 70.6196 148.922 69.9896C149.252 69.3296 149.447 68.7896 149.507 68.3696L149.687 67.1996C149.837 66.6896 150.077 66.4346 150.407 66.4346C150.917 66.4346 151.172 66.7046 151.172 67.2446C151.172 68.2346 150.512 69.8696 149.192 72.1496C149.042 72.4196 148.757 72.8696 148.337 73.4996C147.947 74.1296 147.317 75.0896 146.447 76.3796C145.577 77.6396 144.377 79.3946 142.847 81.6446C142.697 81.8546 142.517 82.1246 142.307 82.4546C142.127 82.7846 141.917 83.1596 141.677 83.5796C141.557 83.8496 141.452 84.1196 141.362 84.3896C141.272 84.6596 141.182 84.9146 141.092 85.1546C140.972 85.6946 140.717 85.9646 140.327 85.9646ZM138.752 92.3546C137.972 92.3546 137.582 91.9796 137.582 91.2296C137.582 90.4196 137.957 90.0146 138.707 90.0146C139.487 90.0146 139.877 90.3896 139.877 91.1396C139.877 91.9496 139.502 92.3546 138.752 92.3546Z" fill="#FF6265"/>
<path d="M34.5527 22.2995C34.0427 22.2995 33.7877 22.0445 33.7877 21.5345C33.7877 21.3845 33.8927 21.1145 34.1027 20.7245C34.3127 20.3045 34.5527 19.8845 34.8227 19.4645C35.0927 19.0445 35.3027 18.7595 35.4527 18.6095C35.9627 18.0395 36.3527 17.6795 36.6227 17.5295C36.9227 17.3795 37.1927 17.3045 37.4327 17.3045C38.0627 17.3045 38.3777 17.5895 38.3777 18.1595C38.3777 18.3695 38.2427 18.6245 37.9727 18.9245C37.7327 19.1945 37.4477 19.4495 37.1177 19.6895C36.6377 19.9895 36.3377 20.2295 36.2177 20.4095L35.2277 21.8045C35.1977 21.9245 35.1227 22.0445 35.0027 22.1645C34.9127 22.2545 34.7627 22.2995 34.5527 22.2995ZM26.9027 40.5245C26.0627 40.5245 25.4477 40.3595 25.0577 40.0295C24.6977 39.6995 24.5177 39.2045 24.5177 38.5445C24.5177 37.9145 24.7127 37.0595 25.1027 35.9795C25.4927 34.8695 25.9877 33.6845 26.5877 32.4245C27.2177 31.1645 27.8777 29.9645 28.5677 28.8245C29.2577 27.6845 29.9177 26.7545 30.5477 26.0345C31.2077 25.2845 31.7327 24.9095 32.1227 24.9095C32.6627 24.9095 32.9327 25.1495 32.9327 25.6295C32.9327 25.9295 32.6777 26.4995 32.1677 27.3395C31.6577 28.1795 31.1027 29.0495 30.5027 29.9495C30.2627 30.2795 29.9327 30.7295 29.5127 31.2995C29.0927 31.8695 28.6877 32.4095 28.2977 32.9195C27.9077 33.3995 27.6527 33.7295 27.5327 33.9095C27.2327 34.3595 26.9177 35.0945 26.5877 36.1145C26.2277 37.1345 26.0477 37.9145 26.0477 38.4545C26.0477 38.6945 26.0927 38.8745 26.1827 38.9945C26.3027 39.1145 26.5577 39.1745 26.9477 39.1745C27.6977 39.1745 28.5377 38.9345 29.4677 38.4545C30.3977 37.9745 31.3427 37.3745 32.3027 36.6545C33.2627 35.9045 34.1627 35.1395 35.0027 34.3595C35.8727 33.5795 36.6077 32.9045 37.2077 32.3345C37.3277 32.2145 37.5077 32.1545 37.7477 32.1545C38.1977 32.1545 38.4227 32.3345 38.4227 32.6945C38.4227 33.0245 38.2127 33.3995 37.7927 33.8195C36.9827 34.6295 36.2327 35.3495 35.5427 35.9795C34.8527 36.6095 34.1927 37.1645 33.5627 37.6445C32.5727 38.3645 31.4777 39.0245 30.2777 39.6245C29.0777 40.2245 27.9527 40.5245 26.9027 40.5245ZM36.7641 41.5145C35.0841 41.5145 34.2441 40.9595 34.2441 39.8495C34.2441 39.1595 34.4841 38.4695 34.9641 37.7795C35.4741 37.0895 36.0741 36.4595 36.7641 35.8895C37.4541 35.3195 38.0991 34.8845 38.6991 34.5845C38.8791 34.4945 39.1191 34.4045 39.4191 34.3145C39.7491 34.2245 40.0191 34.1795 40.2291 34.1795C40.4691 34.1795 40.5891 34.2695 40.5891 34.4495C40.5891 34.5995 40.4241 34.7645 40.0941 34.9445C38.7141 35.6045 37.6341 36.3995 36.8541 37.3295C36.1041 38.2295 35.7291 38.9645 35.7291 39.5345C35.7291 40.0745 36.1941 40.3445 37.1241 40.3445C37.9041 40.3445 38.7441 40.1495 39.6441 39.7595C40.5741 39.3695 41.4441 38.8595 42.2541 38.2295C43.0941 37.5995 43.7841 36.9245 44.3241 36.2045C44.8641 35.4845 45.1341 34.7945 45.1341 34.1345C45.1341 33.6845 44.9841 33.2795 44.6841 32.9195C44.4141 32.5595 43.9641 32.2895 43.3341 32.1095L40.3641 31.2095C39.6141 30.9695 39.0741 30.6545 38.7441 30.2645C38.4141 29.8745 38.2491 29.4395 38.2491 28.9595C38.2491 28.0595 38.5791 27.2495 39.2391 26.5295C39.9291 25.8095 40.7841 25.2395 41.8041 24.8195C42.8241 24.3995 43.8141 24.1895 44.7741 24.1895C45.7341 24.1895 46.5741 24.4295 47.2941 24.9095C48.0141 25.3595 48.3741 25.9745 48.3741 26.7545C48.3741 27.2045 48.2391 27.6245 47.9691 28.0145C47.7291 28.4045 47.4441 28.5995 47.1141 28.5995C46.6041 28.5995 46.3491 28.3895 46.3491 27.9695C46.3491 27.8195 46.4241 27.6395 46.5741 27.4295C46.7541 27.1895 46.8441 26.9645 46.8441 26.7545C46.8441 25.8545 46.1541 25.4045 44.7741 25.4045C44.0241 25.4045 43.2741 25.5695 42.5241 25.8995C41.8041 26.1995 41.2041 26.6045 40.7241 27.1145C40.2441 27.6245 40.0041 28.1795 40.0041 28.7795C40.0041 29.3795 40.6041 29.8595 41.8041 30.2195L44.6841 31.1195C45.5541 31.3895 46.1541 31.7645 46.4841 32.2445C46.8141 32.6945 46.9791 33.2045 46.9791 33.7745C46.9791 35.1245 46.1541 36.5195 44.5041 37.9595C41.8341 40.3295 39.2541 41.5145 36.7641 41.5145ZM50.6947 41.5145C49.0147 41.5145 48.1747 40.9595 48.1747 39.8495C48.1747 39.1595 48.4147 38.4695 48.8947 37.7795C49.4047 37.0895 50.0047 36.4595 50.6947 35.8895C51.3847 35.3195 52.0297 34.8845 52.6297 34.5845C52.8097 34.4945 53.0497 34.4045 53.3497 34.3145C53.6797 34.2245 53.9497 34.1795 54.1597 34.1795C54.3997 34.1795 54.5197 34.2695 54.5197 34.4495C54.5197 34.5995 54.3547 34.7645 54.0247 34.9445C52.6447 35.6045 51.5647 36.3995 50.7847 37.3295C50.0347 38.2295 49.6597 38.9645 49.6597 39.5345C49.6597 40.0745 50.1247 40.3445 51.0547 40.3445C51.8347 40.3445 52.6747 40.1495 53.5747 39.7595C54.5047 39.3695 55.3747 38.8595 56.1847 38.2295C57.0247 37.5995 57.7147 36.9245 58.2547 36.2045C58.7947 35.4845 59.0647 34.7945 59.0647 34.1345C59.0647 33.6845 58.9147 33.2795 58.6147 32.9195C58.3447 32.5595 57.8947 32.2895 57.2647 32.1095L54.2947 31.2095C53.5447 30.9695 53.0047 30.6545 52.6747 30.2645C52.3447 29.8745 52.1797 29.4395 52.1797 28.9595C52.1797 28.0595 52.5097 27.2495 53.1697 26.5295C53.8597 25.8095 54.7147 25.2395 55.7347 24.8195C56.7547 24.3995 57.7447 24.1895 58.7047 24.1895C59.6647 24.1895 60.5047 24.4295 61.2247 24.9095C61.9447 25.3595 62.3047 25.9745 62.3047 26.7545C62.3047 27.2045 62.1697 27.6245 61.8997 28.0145C61.6597 28.4045 61.3747 28.5995 61.0447 28.5995C60.5347 28.5995 60.2797 28.3895 60.2797 27.9695C60.2797 27.8195 60.3547 27.6395 60.5047 27.4295C60.6847 27.1895 60.7747 26.9645 60.7747 26.7545C60.7747 25.8545 60.0847 25.4045 58.7047 25.4045C57.9547 25.4045 57.2047 25.5695 56.4547 25.8995C55.7347 26.1995 55.1347 26.6045 54.6547 27.1145C54.1747 27.6245 53.9347 28.1795 53.9347 28.7795C53.9347 29.3795 54.5347 29.8595 55.7347 30.2195L58.6147 31.1195C59.4847 31.3895 60.0847 31.7645 60.4147 32.2445C60.7447 32.6945 60.9097 33.2045 60.9097 33.7745C60.9097 35.1245 60.0847 36.5195 58.4347 37.9595C55.7647 40.3295 53.1847 41.5145 50.6947 41.5145ZM76.2804 41.5595C74.8104 41.5595 74.0754 40.4945 74.0754 38.3645C74.0754 37.2245 74.3454 35.8445 74.8854 34.2245C71.2554 38.4545 68.4054 40.5695 66.3354 40.5695C64.6254 40.5695 63.7704 39.5345 63.7704 37.4645C63.7704 36.6845 63.8904 35.7545 64.1304 34.6745C64.4004 33.5645 64.7454 32.4245 65.1654 31.2545C65.6154 30.0845 66.0954 28.9895 66.6054 27.9695C67.1154 26.9495 67.6254 26.1245 68.1354 25.4945C68.3154 25.2845 68.5404 25.1795 68.8104 25.1795C68.9604 25.1795 69.1104 25.2395 69.2604 25.3595C69.4104 25.4495 69.4854 25.5995 69.4854 25.8095C69.4854 25.9895 69.3804 26.2445 69.1704 26.5745C67.8204 28.7945 66.8604 30.7295 66.2904 32.3795C65.5704 34.2695 65.2104 35.9045 65.2104 37.2845C65.2104 38.5745 65.5404 39.2195 66.2004 39.2195C66.6204 39.2195 67.1754 39.0095 67.8654 38.5895C68.5554 38.1695 69.2604 37.6595 69.9804 37.0595C70.7304 36.4295 71.3754 35.8445 71.9154 35.3045C73.4154 33.7145 74.7654 32.0195 75.9654 30.2195C76.5054 29.3795 76.9854 28.5695 77.4054 27.7895C77.8554 26.9795 78.2604 26.1395 78.6204 25.2695C78.7704 24.9395 78.8904 24.6995 78.9804 24.5495C79.1004 24.3695 79.2654 24.2795 79.4754 24.2795C80.1054 24.2795 80.4204 24.5195 80.4204 24.9995C80.4204 25.2995 80.3154 25.5095 80.1054 25.6295C77.0454 31.8395 75.5154 36.1145 75.5154 38.4545C75.5154 39.0845 75.5754 39.5345 75.6954 39.8045C75.8154 40.0445 76.0254 40.1645 76.3254 40.1645C76.7454 40.1645 77.3904 39.8945 78.2604 39.3545C79.1604 38.8145 80.2104 37.9895 81.4104 36.8795L86.1354 32.5595C86.3754 32.3195 86.6004 32.1995 86.8104 32.1995C87.2904 32.1995 87.5304 32.4245 87.5304 32.8745C87.5304 33.2645 86.5854 34.3145 84.6954 36.0245C83.8854 36.7745 83.1654 37.4045 82.5354 37.9145C81.9054 38.4245 81.3204 38.8745 80.7804 39.2645C79.7604 39.9845 78.8604 40.5395 78.0804 40.9295C77.3004 41.3495 76.7004 41.5595 76.2804 41.5595ZM89.3191 40.8395C88.0591 40.8395 87.0691 40.4045 86.3491 39.5345C85.6291 38.6645 85.2691 37.5995 85.2691 36.3395C85.2691 34.1795 85.9891 31.9595 87.4291 29.6795C87.8191 29.0495 88.2691 28.4345 88.7791 27.8345C89.2891 27.2045 89.8441 26.6045 90.4441 26.0345C91.3441 25.1645 92.2891 24.4445 93.2791 23.8745C94.2691 23.3045 95.2291 23.0195 96.1591 23.0195C97.6891 23.0195 98.4541 23.7395 98.4541 25.1795C98.4541 26.9795 97.4041 28.6145 95.3041 30.0845C93.3541 31.4045 91.4341 32.0645 89.5441 32.0645C89.2141 32.0645 88.9141 32.0495 88.6441 32.0195C88.4041 31.9595 88.1791 31.8995 87.9691 31.8395C87.6691 32.4095 87.3991 33.1445 87.1591 34.0445C86.9191 34.9445 86.7991 35.7245 86.7991 36.3845C86.7991 38.3645 87.6691 39.3545 89.4091 39.3545C90.8191 39.3545 92.1541 39.1145 93.4141 38.6345C94.6741 38.1245 96.1741 37.1795 97.9141 35.7995C98.9941 34.9595 99.8041 34.2845 100.344 33.7745C100.884 33.2645 101.469 32.7245 102.099 32.1545C102.279 32.0345 102.444 31.9745 102.594 31.9745C102.744 31.9745 102.894 32.0195 103.044 32.1095C103.194 32.1995 103.269 32.3345 103.269 32.5145C103.269 32.8445 102.969 33.3095 102.369 33.9095C101.859 34.3895 101.319 34.8995 100.749 35.4395C100.179 35.9495 99.2791 36.6695 98.0491 37.5995C96.7291 38.6195 95.2891 39.4145 93.7291 39.9845C92.1691 40.5545 90.6991 40.8395 89.3191 40.8395ZM89.2741 30.6245C90.2341 30.6245 91.1491 30.4745 92.0191 30.1745C92.8891 29.8745 93.7141 29.4395 94.4941 28.8695C96.2341 27.5795 97.1041 26.3645 97.1041 25.2245C97.1041 24.7145 96.7891 24.4595 96.1591 24.4595C94.9591 24.4595 93.5641 25.1945 91.9741 26.6645C91.1941 27.3845 90.5491 28.0445 90.0391 28.6445C89.5591 29.2145 89.1091 29.8445 88.6891 30.5345C88.8691 30.5945 89.0641 30.6245 89.2741 30.6245ZM125.983 38.2745C125.623 38.2745 125.443 38.1845 125.443 38.0045C125.443 37.8245 125.458 37.7045 125.488 37.6445C125.518 37.4045 125.578 37.1495 125.668 36.8795C125.758 36.5795 125.863 36.2345 125.983 35.8445L126.613 34.0895C127.033 32.6195 127.393 31.1495 127.693 29.6795C127.993 28.2095 128.233 26.7395 128.413 25.2695L122.518 25.5845C121.318 25.6445 120.223 25.6895 119.233 25.7195C118.273 25.7495 117.418 25.7645 116.668 25.7645C116.308 25.7645 116.128 25.5095 116.128 24.9995C116.128 24.4895 116.323 24.1895 116.713 24.0995C117.253 23.9495 121.213 23.8145 128.593 23.6945C128.653 22.9445 128.698 22.1345 128.728 21.2645C128.788 20.3645 128.818 19.3895 128.818 18.3395V16.2695C126.538 16.3295 124.363 16.3895 122.293 16.4495C120.253 16.4795 118.318 16.4945 116.488 16.4945C116.188 16.4945 116.038 16.2995 116.038 15.9095C116.038 15.2195 116.293 14.8745 116.803 14.8745C119.473 14.8745 121.798 14.8745 123.778 14.8745C125.758 14.8745 127.408 14.8595 128.728 14.8295C128.698 14.5295 128.638 14.0795 128.548 13.4795C128.488 12.8795 128.383 12.1145 128.233 11.1845C128.113 10.3745 128.023 9.69954 127.963 9.15954C127.903 8.61954 127.873 8.19954 127.873 7.89954C127.873 7.35954 128.218 7.08954 128.908 7.08954C129.268 7.08954 129.463 7.22454 129.493 7.49454C129.553 7.94454 129.613 8.46954 129.673 9.06954C129.733 9.66954 129.778 10.3595 129.808 11.1395C129.868 12.2195 129.898 13.0595 129.898 13.6595C129.928 14.2595 129.958 14.6345 129.988 14.7845L138.043 14.6945C138.073 13.0745 138.088 11.6645 138.088 10.4645C138.118 9.23454 138.133 8.21454 138.133 7.40454C138.133 7.01454 138.388 6.81954 138.898 6.81954C139.378 6.81954 139.618 6.99954 139.618 7.35954C139.618 8.19954 139.603 9.23454 139.573 10.4645C139.543 11.6645 139.498 13.0745 139.438 14.6945C142.018 14.6645 144.268 14.6495 146.188 14.6495C148.138 14.6195 149.758 14.6045 151.048 14.6045C151.408 14.6045 151.588 14.7845 151.588 15.1445C151.588 15.5345 151.408 15.7295 151.048 15.7295C149.758 15.7295 148.138 15.7445 146.188 15.7745C144.268 15.8045 142.003 15.8495 139.393 15.9095L139.258 23.3795V23.6945C140.908 23.7245 142.363 23.7545 143.623 23.7845C144.913 23.7845 146.008 23.8145 146.908 23.8745C150.178 24.0545 152.683 24.3695 154.423 24.8195C154.723 24.9095 154.873 25.0895 154.873 25.3595C154.873 25.7195 154.663 25.8995 154.243 25.8995C153.523 25.8995 152.503 25.8095 151.183 25.6295C150.403 25.5095 149.743 25.4345 149.203 25.4045C148.693 25.3445 148.303 25.2995 148.033 25.2695C145.483 25.0895 142.558 24.9995 139.258 24.9995C139.288 26.3195 139.333 27.5945 139.393 28.8245C139.483 30.0245 139.588 31.1795 139.708 32.2895C139.738 32.4095 139.768 32.6345 139.798 32.9645C139.858 33.2645 139.948 33.6545 140.068 34.1345C140.128 34.5245 140.173 34.8845 140.203 35.2145C140.263 35.5145 140.293 35.7695 140.293 35.9795C140.293 36.4295 140.113 36.6545 139.753 36.6545C139.423 36.6545 139.243 36.5045 139.213 36.2045C138.553 34.0745 138.163 30.3395 138.043 24.9995C136.243 25.0295 134.668 25.0595 133.318 25.0895C131.968 25.1195 130.828 25.1495 129.898 25.1795C129.808 26.0195 129.628 27.0545 129.358 28.2845C129.118 29.4845 128.788 30.8795 128.368 32.4695C127.378 36.3395 126.583 38.2745 125.983 38.2745ZM130.078 23.6495H137.998V21.6695C137.998 20.8895 137.998 20.0345 137.998 19.1045C137.998 18.1445 138.013 17.0945 138.043 15.9545L130.078 16.2245C130.108 17.0645 130.123 17.8445 130.123 18.5645C130.153 19.2845 130.168 19.9445 130.168 20.5445C130.168 21.1745 130.153 21.7445 130.123 22.2545C130.123 22.7645 130.108 23.2295 130.078 23.6495ZM170.355 40.9745C166.785 40.9745 162.75 40.3595 158.25 39.1295V39.1745C156.42 40.1345 154.815 40.6145 153.435 40.6145C152.625 40.6145 151.875 40.4195 151.185 40.0295C150.315 39.5795 149.88 38.9945 149.88 38.2745C149.88 37.6445 150.195 37.1345 150.825 36.7445C151.305 36.4445 151.905 36.2945 152.625 36.2945C153.195 36.2945 154.98 36.7445 157.98 37.6445L158.25 37.5095L158.475 37.3745C168.795 31.0145 175.485 25.2545 178.545 20.0945C179.925 17.7845 180.615 15.8945 180.615 14.4245C180.615 12.2345 179.16 11.1395 176.25 11.1395C174.33 11.1395 172.335 11.6495 170.265 12.6695C168.345 13.5995 166.65 14.7995 165.18 16.2695C164.91 16.5395 164.58 16.9145 164.19 17.3945C163.8 17.8445 163.35 18.3995 162.84 19.0595C162.72 19.2695 162.525 19.3745 162.255 19.3745C161.745 19.3745 161.49 19.1195 161.49 18.6095C161.49 18.4595 161.55 18.3245 161.67 18.2045C163.29 15.8345 165.435 13.8545 168.105 12.2645C170.955 10.5545 173.715 9.69954 176.385 9.69954C178.005 9.69954 179.31 10.0595 180.3 10.7795C181.41 11.5895 181.965 12.7745 181.965 14.3345C181.965 16.2545 181.23 18.4445 179.76 20.9045C176.58 26.2445 170.01 32.0045 160.05 38.1845C163.92 39.0845 167.295 39.5345 170.175 39.5345C175.365 39.5345 177.915 38.5595 177.825 36.6095L177.78 36.3395C177.78 35.7695 178.035 35.4845 178.545 35.4845C178.995 35.4845 179.22 35.8295 179.22 36.5195C179.22 39.4895 176.265 40.9745 170.355 40.9745ZM153.345 39.1295C154.125 39.1295 154.995 38.9345 155.955 38.5445C154.425 38.0045 153.435 37.7345 152.985 37.7345C152.175 37.7345 151.77 37.9595 151.77 38.4095C151.77 38.8895 152.295 39.1295 153.345 39.1295ZM207.327 14.2895C206.487 14.2895 205.407 14.1695 204.087 13.9295C202.767 13.6895 201.222 13.3295 199.452 12.8495C198.522 13.3295 197.997 13.5695 197.877 13.5695C197.607 13.5695 197.292 13.4795 196.932 13.2995C196.602 13.1195 196.437 12.9095 196.437 12.6695C196.437 12.2495 196.722 11.8895 197.292 11.5895C197.832 11.3495 198.312 11.2295 198.732 11.2295C199.032 11.2295 199.512 11.3345 200.172 11.5445C203.232 12.4145 205.452 12.8495 206.832 12.8495C211.902 12.8495 214.392 11.8745 214.302 9.92454L214.257 9.65454C214.257 9.08454 214.512 8.79954 215.022 8.79954C215.442 8.79954 215.652 9.00954 215.652 9.42954V9.38454C215.682 9.47454 215.697 9.63954 215.697 9.87954C215.697 11.5295 214.662 12.7445 212.592 13.5245C211.122 14.0345 209.367 14.2895 207.327 14.2895ZM189.417 41.4245C184.587 41.4245 182.172 39.9395 182.172 36.9695C182.172 36.6095 182.262 36.2045 182.442 35.7545C182.592 35.3045 182.817 34.9295 183.117 34.6295C183.417 34.2995 183.732 34.1345 184.062 34.1345C184.362 34.1345 184.512 34.2845 184.512 34.5845C184.512 34.7345 184.362 35.0495 184.062 35.5295C183.762 36.0095 183.612 36.5045 183.612 37.0145C183.612 39.0245 185.457 40.0295 189.147 40.0295C190.197 40.0295 191.247 39.9545 192.297 39.8045C193.347 39.6545 194.382 39.4295 195.402 39.1295C198.102 38.3495 200.442 37.2245 202.422 35.7545C204.912 33.8645 206.247 31.7645 206.427 29.4545V29.0945C206.427 27.4445 205.962 26.1245 205.032 25.1345C204.102 24.1145 202.827 23.6045 201.207 23.6045C199.527 23.6045 197.622 24.2195 195.492 25.4495C193.362 26.6795 192.132 27.2945 191.802 27.2945C190.962 27.2945 190.542 27.0245 190.542 26.4845C190.542 26.1845 190.782 25.8995 191.262 25.6295L191.217 25.5845C193.467 20.7245 195.747 17.0345 198.057 14.5145C198.237 14.3345 198.417 14.2445 198.597 14.2445C199.107 14.2445 199.362 14.5145 199.362 15.0545C199.362 15.2345 199.287 15.3995 199.137 15.5495C198.897 15.8495 198.582 16.2245 198.192 16.6745C197.832 17.1245 197.412 17.6495 196.932 18.2495C196.392 18.9695 195.807 19.8995 195.177 21.0395C194.547 22.1795 193.857 23.5295 193.107 25.0895L193.512 25.0445C196.182 23.2445 198.852 22.3445 201.522 22.3445C203.592 22.3445 205.227 22.9295 206.427 24.0995C207.627 25.2695 208.227 26.8895 208.227 28.9595C208.227 32.7095 205.947 35.8295 201.387 38.3195C197.577 40.3895 193.587 41.4245 189.417 41.4245Z" fill="#FF6265"/>
<path d="M321.293 152.18C321.683 152.57 322.317 152.57 322.707 152.18L329.071 145.816C329.462 145.425 329.462 144.792 329.071 144.401C328.681 144.011 328.047 144.011 327.657 144.401L322 150.058L316.343 144.401C315.953 144.011 315.319 144.011 314.929 144.401C314.538 144.792 314.538 145.425 314.929 145.816L321.293 152.18ZM230 36.501C237.88 36.501 247.521 41.5783 257.66 49.9625C267.754 58.3095 278.17 69.7894 287.576 82.276C296.981 94.7598 305.352 108.218 311.368 120.503C317.402 132.826 321 143.838 321 151.472L323 151.472C323 143.357 319.223 131.998 313.164 119.623C307.085 107.21 298.644 93.6442 289.174 81.0726C279.705 68.5038 269.184 56.897 258.934 48.4212C248.729 39.9826 238.62 34.501 230 34.501L230 36.501Z" fill="#FF6265"/>
</svg>
