<svg width="529" height="111" viewBox="0 0 529 111" fill="none" xmlns="http://www.w3.org/2000/svg">
<path d="M7.2 41.0776C5.94 41.0776 4.95 40.6426 4.23 39.7726C3.51 38.9026 3.15 37.8376 3.15 36.5776C3.15 34.4176 3.87 32.1976 5.31 29.9176C5.7 29.2876 6.15 28.6726 6.66 28.0726C7.17 27.4426 7.725 26.8426 8.325 26.2726C9.225 25.4026 10.17 24.6826 11.16 24.1126C12.15 23.5426 13.11 23.2576 14.04 23.2576C15.57 23.2576 16.335 23.9776 16.335 25.4176C16.335 27.2176 15.285 28.8526 13.185 30.3226C11.235 31.6426 9.315 32.3026 7.425 32.3026C7.095 32.3026 6.795 32.2876 6.525 32.2576C6.285 32.1976 6.06 32.1376 5.85 32.0776C5.55 32.6476 5.28 33.3826 5.04 34.2826C4.8 35.1826 4.68 35.9626 4.68 36.6226C4.68 38.6026 5.55 39.5926 7.29 39.5926C8.7 39.5926 10.035 39.3526 11.295 38.8726C12.555 38.3626 14.055 37.4176 15.795 36.0376C16.875 35.1976 17.685 34.5226 18.225 34.0126C18.765 33.5026 19.35 32.9626 19.98 32.3926C20.16 32.2726 20.325 32.2126 20.475 32.2126C20.625 32.2126 20.775 32.2576 20.925 32.3476C21.075 32.4376 21.15 32.5726 21.15 32.7526C21.15 33.0826 20.85 33.5476 20.25 34.1476C19.74 34.6276 19.2 35.1376 18.63 35.6776C18.06 36.1876 17.16 36.9076 15.93 37.8376C14.61 38.8576 13.17 39.6526 11.61 40.2226C10.05 40.7926 8.58 41.0776 7.2 41.0776ZM7.155 30.8626C8.115 30.8626 9.03 30.7126 9.9 30.4126C10.77 30.1126 11.595 29.6776 12.375 29.1076C14.115 27.8176 14.985 26.6026 14.985 25.4626C14.985 24.9526 14.67 24.6976 14.04 24.6976C12.84 24.6976 11.445 25.4326 9.855 26.9026C9.075 27.6226 8.43 28.2826 7.92 28.8826C7.44 29.4526 6.99 30.0826 6.57 30.7726C6.75 30.8326 6.945 30.8626 7.155 30.8626ZM15.7303 41.3926C15.2203 41.3926 14.9653 41.1526 14.9653 40.6726C14.9653 40.4326 15.3253 39.9226 16.0453 39.1426C16.7953 38.3326 17.9353 37.2826 19.4653 35.9926L24.8653 31.4026C24.6553 30.5926 24.4603 29.8726 24.2803 29.2426C24.1303 28.6126 23.9803 28.0876 23.8303 27.6676C23.2603 25.9276 22.7503 24.8326 22.3003 24.3826C22.1203 24.2026 22.0303 24.0076 22.0303 23.7976C22.0303 23.3476 22.2553 23.1226 22.7053 23.1226C23.3953 23.1226 24.1153 24.1726 24.8653 26.2726C25.1053 26.9626 25.3303 27.6526 25.5403 28.3426C25.7503 29.0326 25.9603 29.7226 26.1703 30.4126C29.4403 27.7126 31.5703 25.8526 32.5603 24.8326C32.8003 24.5926 32.9653 24.4126 33.0553 24.2926C33.1453 24.1726 33.2053 24.0676 33.2353 23.9776C33.3853 23.6476 33.6403 23.4826 34.0003 23.4826C34.4803 23.4826 34.7203 23.7076 34.7203 24.1576C34.7203 25.0576 32.0203 27.6226 26.6203 31.8526C26.9803 33.1126 27.3553 34.2976 27.7453 35.4076C28.1353 36.5176 28.5853 37.4326 29.0953 38.1526C29.6353 38.8426 30.2353 39.1876 30.8953 39.1876C31.5253 39.1876 32.1853 39.0226 32.8753 38.6926C33.5953 38.3626 34.3153 37.9576 35.0353 37.4776C35.7553 36.9676 36.4003 36.4876 36.9703 36.0376C38.0503 35.1976 38.8603 34.5226 39.4003 34.0126C39.9403 33.5026 40.5253 32.9626 41.1553 32.3926C41.3353 32.2726 41.5003 32.2126 41.6503 32.2126C41.8003 32.2126 41.9503 32.2576 42.1003 32.3476C42.2503 32.4376 42.3253 32.5726 42.3253 32.7526C42.3253 33.0826 42.0253 33.5476 41.4253 34.1476C40.9153 34.6276 40.3753 35.1376 39.8053 35.6776C39.2353 36.1876 38.3353 36.9076 37.1053 37.8376C36.5653 38.2576 35.9203 38.6776 35.1703 39.0976C34.4503 39.5176 33.7153 39.8626 32.9653 40.1326C32.2453 40.4026 31.5853 40.5376 30.9853 40.5376C29.9653 40.5376 29.0953 40.1776 28.3753 39.4576C27.6853 38.7076 27.1003 37.7476 26.6203 36.5776C26.1403 35.4076 25.7053 34.1776 25.3153 32.8876L20.6803 36.8476C19.7503 37.6276 18.9253 38.3776 18.2053 39.0976C17.4853 39.8176 16.8553 40.4926 16.3153 41.1226C16.1953 41.3026 16.0003 41.3926 15.7303 41.3926ZM37.2291 52.6876C35.8191 52.6876 35.1141 51.6826 35.1141 49.6726C35.1141 47.0326 36.2691 42.8326 38.5791 37.0726C38.9691 36.1126 39.4341 35.1076 39.9741 34.0576C40.5141 33.0076 41.1441 31.8976 41.8641 30.7276C42.6141 29.4676 43.3191 28.3726 43.9791 27.4426C44.6691 26.5126 45.2691 25.7626 45.7791 25.1926C45.9591 25.0126 46.1091 24.8926 46.2291 24.8326C46.3791 24.7726 46.4991 24.7426 46.5891 24.7426C47.3691 24.7426 48.2541 24.9676 49.2441 25.4176C50.2341 25.8676 51.1191 26.4376 51.8991 27.1276C52.6191 27.7276 53.2041 28.4476 53.6541 29.2876C54.1041 30.1276 54.3291 30.9976 54.3291 31.8976C54.3291 32.5576 54.1941 33.2326 53.9241 33.9226C53.6841 34.5826 53.3541 35.2426 52.9341 35.9026C53.7141 35.7526 54.6591 35.4076 55.7691 34.8676C56.9091 34.3276 58.0641 33.5026 59.2341 32.3926C59.3541 32.2726 59.5191 32.2126 59.7291 32.2126C60.1791 32.2126 60.4041 32.3926 60.4041 32.7526C60.4041 32.9026 60.3291 33.0976 60.1791 33.3376C60.0591 33.5476 59.8341 33.8176 59.5041 34.1476C57.2841 36.1876 54.6141 37.3576 51.4941 37.6576C51.0441 38.1376 50.5491 38.6026 50.0091 39.0526C49.4991 39.4726 48.9591 39.8626 48.3891 40.2226C46.6491 41.2726 45.1641 41.7976 43.9341 41.7976C43.4241 41.7976 43.0041 41.6326 42.6741 41.3026C42.3441 40.9726 42.1791 40.5976 42.1791 40.1776C42.1791 38.7976 43.3791 37.7476 45.7791 37.0276C46.6491 36.7876 47.5191 36.5776 48.3891 36.3976C49.2591 36.2176 50.1141 36.0226 50.9541 35.8126C51.5541 34.8826 51.9891 34.0726 52.2591 33.3826C52.5591 32.6926 52.7091 32.1076 52.7091 31.6276C52.7091 30.0376 51.5241 28.5226 49.1541 27.0826C48.2241 26.5126 47.4891 26.2426 46.9491 26.2726C44.4891 28.9726 42.1641 32.7526 39.9741 37.6126C37.6941 42.6226 36.5541 46.5676 36.5541 49.4476C36.5541 50.1376 36.6141 50.6026 36.7341 50.8426C36.8541 51.0826 37.0641 51.2026 37.3641 51.2026C37.4541 51.2026 37.5291 51.1876 37.5891 51.1576C37.6491 51.1576 37.7091 51.1576 37.7691 51.1576C38.1591 51.1576 38.3541 51.3976 38.3541 51.8776C38.3541 52.4176 37.9791 52.6876 37.2291 52.6876ZM44.2491 40.3576C45.3591 40.3576 46.9641 39.4876 49.0641 37.7476C48.5841 37.8076 48.1191 37.8826 47.6691 37.9726C47.2491 38.0626 46.6341 38.2276 45.8241 38.4676C44.4741 38.8576 43.7991 39.3526 43.7991 39.9526C43.7991 40.2226 43.9491 40.3576 44.2491 40.3576ZM62.8443 41.4826C61.4643 41.4826 60.3993 41.0626 59.6493 40.2226C58.9293 39.3526 58.5693 38.2126 58.5693 36.8026C58.5693 35.7826 58.7493 34.5526 59.1093 33.1126C59.7393 30.6826 60.8043 27.8626 62.3043 24.6526C63.4743 22.2226 64.7343 19.8376 66.0843 17.4976C67.4343 15.1276 68.9193 12.8026 70.5393 10.5226C73.1193 6.86258 74.9193 5.03258 75.9393 5.03258C76.5993 5.03258 76.9293 5.21258 76.9293 5.57258C76.9293 6.08258 76.0893 7.35758 74.4093 9.39758L71.2593 13.2226C68.5293 16.5226 66.2943 19.8976 64.5543 23.3476C62.8443 26.7976 61.5093 30.2476 60.5493 33.6976C60.2793 34.6876 60.1443 35.6176 60.1443 36.4876C60.1443 38.7676 61.0743 39.9076 62.9343 39.9076C63.5943 39.9076 64.2693 39.7126 64.9593 39.3226C65.6493 38.9626 66.0243 38.7826 66.0843 38.7826C66.4443 38.7826 66.6243 39.0376 66.6243 39.5476C66.6243 39.9976 66.4593 40.3426 66.1293 40.5826C65.1093 41.1826 64.0143 41.4826 62.8443 41.4826ZM72.5266 40.0426C70.0966 40.0426 68.8816 38.6776 68.8816 35.9476C68.8816 34.6876 69.1816 33.3676 69.7816 31.9876C70.3816 30.6076 71.1766 29.3326 72.1666 28.1626C73.1566 26.9626 74.2516 25.9876 75.4516 25.2376C76.6816 24.4876 77.9266 24.1126 79.1866 24.1126C80.2966 24.1126 81.1066 24.5326 81.6166 25.3726C82.1266 26.2126 82.3816 27.1426 82.3816 28.1626C82.3816 29.5126 82.1116 30.8926 81.5716 32.3026C81.0316 33.6826 80.2966 34.9576 79.3666 36.1276C78.4366 37.2976 77.3866 38.2426 76.2166 38.9626C75.0466 39.6826 73.8166 40.0426 72.5266 40.0426ZM72.4816 38.6026C72.6616 38.6026 72.7666 38.5876 72.7966 38.5576C73.9666 38.4076 75.0466 37.9876 76.0366 37.2976C77.0266 36.6076 77.8816 35.7526 78.6016 34.7326C79.3516 33.6826 79.9216 32.5576 80.3116 31.3576C80.7016 30.1576 80.8966 28.9726 80.8966 27.8026C80.8966 27.1126 80.7016 26.5726 80.3116 26.1826C79.9216 25.7926 79.4266 25.5976 78.8266 25.5976C77.9566 25.5976 77.0266 25.9576 76.0366 26.6776C75.0766 27.3976 74.1616 28.3126 73.2916 29.4226C72.4516 30.5326 71.7616 31.7026 71.2216 32.9326C70.6816 34.1326 70.4116 35.2126 70.4116 36.1726C70.4116 37.7926 71.1016 38.6026 72.4816 38.6026ZM82.292 41.3926C81.812 41.3926 81.572 41.1976 81.572 40.8076C81.572 40.6276 81.617 40.4476 81.707 40.2676C81.827 40.0876 81.917 39.9376 81.977 39.8176L86.072 31.5376C87.812 27.9976 88.682 26.0326 88.682 25.6426C88.682 25.2226 88.892 25.0126 89.312 25.0126C89.882 25.0126 90.167 25.2976 90.167 25.8676C90.167 26.1676 90.032 26.6476 89.762 27.3076C89.492 27.9676 89.147 28.7326 88.727 29.6026C88.007 31.1626 87.407 32.3626 86.927 33.2026C87.827 32.1526 88.742 31.1626 89.672 30.2326C90.602 29.3026 91.547 28.4176 92.507 27.5776C95.357 25.0876 97.547 23.8426 99.077 23.8426C100.127 23.8426 100.652 24.3376 100.652 25.3276C100.652 26.2876 100.337 26.7676 99.707 26.7676C99.407 26.7676 99.182 26.5126 99.032 26.0026C98.942 25.6426 98.732 25.4626 98.402 25.4626C97.892 25.4626 96.902 26.0176 95.432 27.1276C93.812 28.3276 92.177 29.7526 90.527 31.4026C88.907 33.0526 87.182 35.1526 85.352 37.7026L83.102 40.8526C82.982 41.0026 82.862 41.1226 82.742 41.2126C82.652 41.3326 82.502 41.3926 82.292 41.3926ZM102.825 41.0776C101.565 41.0776 100.575 40.6426 99.855 39.7726C99.135 38.9026 98.775 37.8376 98.775 36.5776C98.775 34.4176 99.495 32.1976 100.935 29.9176C101.325 29.2876 101.775 28.6726 102.285 28.0726C102.795 27.4426 103.35 26.8426 103.95 26.2726C104.85 25.4026 105.795 24.6826 106.785 24.1126C107.775 23.5426 108.735 23.2576 109.665 23.2576C111.195 23.2576 111.96 23.9776 111.96 25.4176C111.96 27.2176 110.91 28.8526 108.81 30.3226C106.86 31.6426 104.94 32.3026 103.05 32.3026C102.72 32.3026 102.42 32.2876 102.15 32.2576C101.91 32.1976 101.685 32.1376 101.475 32.0776C101.175 32.6476 100.905 33.3826 100.665 34.2826C100.425 35.1826 100.305 35.9626 100.305 36.6226C100.305 38.6026 101.175 39.5926 102.915 39.5926C104.325 39.5926 105.66 39.3526 106.92 38.8726C108.18 38.3626 109.68 37.4176 111.42 36.0376C112.5 35.1976 113.31 34.5226 113.85 34.0126C114.39 33.5026 114.975 32.9626 115.605 32.3926C115.785 32.2726 115.95 32.2126 116.1 32.2126C116.25 32.2126 116.4 32.2576 116.55 32.3476C116.7 32.4376 116.775 32.5726 116.775 32.7526C116.775 33.0826 116.475 33.5476 115.875 34.1476C115.365 34.6276 114.825 35.1376 114.255 35.6776C113.685 36.1876 112.785 36.9076 111.555 37.8376C110.235 38.8576 108.795 39.6526 107.235 40.2226C105.675 40.7926 104.205 41.0776 102.825 41.0776ZM102.78 30.8626C103.74 30.8626 104.655 30.7126 105.525 30.4126C106.395 30.1126 107.22 29.6776 108 29.1076C109.74 27.8176 110.61 26.6026 110.61 25.4626C110.61 24.9526 110.295 24.6976 109.665 24.6976C108.465 24.6976 107.07 25.4326 105.48 26.9026C104.7 27.6226 104.055 28.2826 103.545 28.8826C103.065 29.4526 102.615 30.0826 102.195 30.7726C102.375 30.8326 102.57 30.8626 102.78 30.8626ZM126.978 43.3726C126.408 43.3726 126.123 42.9226 126.123 42.0226C126.123 40.7026 126.858 38.3926 128.328 35.0926C129.828 31.7926 132.048 27.4726 134.988 22.1326C133.848 22.1326 132.768 22.2826 131.748 22.5826C130.758 22.8526 130.233 23.1976 130.173 23.6176C130.143 23.7376 130.068 23.8576 129.948 23.9776C129.858 24.0676 129.708 24.1126 129.498 24.1126C129.018 24.1126 128.778 23.8726 128.778 23.3926C128.778 22.6126 129.393 21.9676 130.623 21.4576C131.853 20.9476 133.578 20.6926 135.798 20.6926L138.903 15.5626C139.113 15.2326 139.338 14.8726 139.578 14.4826C139.818 14.0626 140.088 13.6126 140.388 13.1326C140.688 12.7126 141.033 12.5026 141.423 12.5026C141.663 12.5026 141.843 12.5776 141.963 12.7276C142.083 12.8476 142.143 12.9826 142.143 13.1326C142.143 13.5826 141.483 14.7826 140.163 16.7326C138.513 19.1626 137.628 20.4826 137.508 20.6926C137.958 20.6926 138.633 20.7376 139.533 20.8276C140.433 20.8876 141.498 20.9926 142.728 21.1426C143.178 21.1726 143.403 21.3976 143.403 21.8176C143.403 22.2976 143.133 22.5376 142.593 22.5376C142.383 22.5376 141.963 22.5076 141.333 22.4476C140.703 22.3576 140.028 22.2826 139.308 22.2226C138.588 22.1626 137.973 22.1476 137.463 22.1776L136.788 22.2226C130.698 32.9326 127.668 39.5926 127.698 42.2026L127.743 42.5626V42.6526C127.743 43.1326 127.488 43.3726 126.978 43.3726ZM136.677 41.0776C136.197 41.0776 135.957 40.8376 135.957 40.3576C135.957 39.7276 136.182 38.7376 136.632 37.3876C137.082 36.0076 137.667 34.4326 138.387 32.6626C139.137 30.8626 139.932 29.0176 140.772 27.1276C141.252 26.0776 141.747 25.0576 142.257 24.0676C142.767 23.0476 143.247 22.1626 143.697 21.4126C148.137 13.9126 150.897 10.1626 151.977 10.1626C152.397 10.1626 152.607 10.3726 152.607 10.7926C152.607 11.0626 152.397 11.5726 151.977 12.3226C151.587 13.0426 151.062 13.8976 150.402 14.8876C149.772 15.8476 149.082 16.8226 148.332 17.8126C147.612 18.8026 146.922 19.7176 146.262 20.5576C145.632 21.3676 145.122 21.9826 144.732 22.4026C144.402 22.7926 144.027 23.3626 143.607 24.1126C143.217 24.8626 142.827 25.6426 142.437 26.4526C142.047 27.2326 141.732 27.9226 141.492 28.5226L139.782 32.7526C140.232 32.1526 140.817 31.4776 141.537 30.7276C143.247 28.8376 145.017 27.4126 146.847 26.4526C148.707 25.4626 150.267 24.9676 151.527 24.9676C152.217 24.9676 152.772 25.1776 153.192 25.5976C153.612 26.0176 153.822 26.5276 153.822 27.1276C153.822 28.2976 153.057 30.2626 151.527 33.0226C149.997 35.7526 149.232 37.4326 149.232 38.0626C149.232 38.3926 149.412 38.5576 149.772 38.5576C150.612 38.5576 151.527 38.2576 152.517 37.6576C153.507 37.0276 154.527 36.2326 155.577 35.2726C156.627 34.3126 157.647 33.3526 158.637 32.3926C158.757 32.2726 158.937 32.2126 159.177 32.2126C159.627 32.2126 159.852 32.3926 159.852 32.7526C159.852 33.0826 159.642 33.4576 159.222 33.8776C157.212 35.8876 155.487 37.3876 154.047 38.3776C152.607 39.3676 151.092 39.8626 149.502 39.8626C148.302 39.8626 147.702 39.3076 147.702 38.1976C147.702 37.7776 147.777 37.3726 147.927 36.9826C148.077 36.5926 148.317 36.0676 148.647 35.4076L150.717 31.3126C151.227 30.2926 151.602 29.4376 151.842 28.7476C152.082 28.0576 152.202 27.5326 152.202 27.1726C152.202 26.6626 151.887 26.4076 151.257 26.4076C150.147 26.4076 148.842 26.8576 147.342 27.7576C145.872 28.6276 144.297 29.9476 142.617 31.7176C141.657 32.7376 140.787 33.8176 140.007 34.9576C139.257 36.0976 138.657 37.3276 138.207 38.6476L137.667 40.2226C137.457 40.7926 137.127 41.0776 136.677 41.0776ZM161.668 41.0776C160.408 41.0776 159.418 40.6426 158.698 39.7726C157.978 38.9026 157.618 37.8376 157.618 36.5776C157.618 34.4176 158.338 32.1976 159.778 29.9176C160.168 29.2876 160.618 28.6726 161.128 28.0726C161.638 27.4426 162.193 26.8426 162.793 26.2726C163.693 25.4026 164.638 24.6826 165.628 24.1126C166.618 23.5426 167.578 23.2576 168.508 23.2576C170.038 23.2576 170.803 23.9776 170.803 25.4176C170.803 27.2176 169.753 28.8526 167.653 30.3226C165.703 31.6426 163.783 32.3026 161.893 32.3026C161.563 32.3026 161.263 32.2876 160.993 32.2576C160.753 32.1976 160.528 32.1376 160.318 32.0776C160.018 32.6476 159.748 33.3826 159.508 34.2826C159.268 35.1826 159.148 35.9626 159.148 36.6226C159.148 38.6026 160.018 39.5926 161.758 39.5926C163.168 39.5926 164.503 39.3526 165.763 38.8726C167.023 38.3626 168.523 37.4176 170.263 36.0376C171.343 35.1976 172.153 34.5226 172.693 34.0126C173.233 33.5026 173.818 32.9626 174.448 32.3926C174.628 32.2726 174.793 32.2126 174.943 32.2126C175.093 32.2126 175.243 32.2576 175.393 32.3476C175.543 32.4376 175.618 32.5726 175.618 32.7526C175.618 33.0826 175.318 33.5476 174.718 34.1476C174.208 34.6276 173.668 35.1376 173.098 35.6776C172.528 36.1876 171.628 36.9076 170.398 37.8376C169.078 38.8576 167.638 39.6526 166.078 40.2226C164.518 40.7926 163.048 41.0776 161.668 41.0776ZM161.623 30.8626C162.583 30.8626 163.498 30.7126 164.368 30.4126C165.238 30.1126 166.063 29.6776 166.843 29.1076C168.583 27.8176 169.453 26.6026 169.453 25.4626C169.453 24.9526 169.138 24.6976 168.508 24.6976C167.308 24.6976 165.913 25.4326 164.323 26.9026C163.543 27.6226 162.898 28.2826 162.388 28.8826C161.908 29.4526 161.458 30.0826 161.038 30.7726C161.218 30.8326 161.413 30.8626 161.623 30.8626ZM195.451 22.5376C194.941 22.5376 194.686 22.2826 194.686 21.7726C194.686 21.6226 194.791 21.3526 195.001 20.9626C195.211 20.5426 195.451 20.1226 195.721 19.7026C195.991 19.2826 196.201 18.9976 196.351 18.8476C196.861 18.2776 197.251 17.9176 197.521 17.7676C197.821 17.6176 198.091 17.5426 198.331 17.5426C198.961 17.5426 199.276 17.8276 199.276 18.3976C199.276 18.6076 199.141 18.8626 198.871 19.1626C198.631 19.4326 198.346 19.6876 198.016 19.9276C197.536 20.2276 197.236 20.4676 197.116 20.6476L196.126 22.0426C196.096 22.1626 196.021 22.2826 195.901 22.4026C195.811 22.4926 195.661 22.5376 195.451 22.5376ZM187.801 40.7626C186.961 40.7626 186.346 40.5976 185.956 40.2676C185.596 39.9376 185.416 39.4426 185.416 38.7826C185.416 38.1526 185.611 37.2976 186.001 36.2176C186.391 35.1076 186.886 33.9226 187.486 32.6626C188.116 31.4026 188.776 30.2026 189.466 29.0626C190.156 27.9226 190.816 26.9926 191.446 26.2726C192.106 25.5226 192.631 25.1476 193.021 25.1476C193.561 25.1476 193.831 25.3876 193.831 25.8676C193.831 26.1676 193.576 26.7376 193.066 27.5776C192.556 28.4176 192.001 29.2876 191.401 30.1876C191.161 30.5176 190.831 30.9676 190.411 31.5376C189.991 32.1076 189.586 32.6476 189.196 33.1576C188.806 33.6376 188.551 33.9676 188.431 34.1476C188.131 34.5976 187.816 35.3326 187.486 36.3526C187.126 37.3726 186.946 38.1526 186.946 38.6926C186.946 38.9326 186.991 39.1126 187.081 39.2326C187.201 39.3526 187.456 39.4126 187.846 39.4126C188.596 39.4126 189.436 39.1726 190.366 38.6926C191.296 38.2126 192.241 37.6126 193.201 36.8926C194.161 36.1426 195.061 35.3776 195.901 34.5976C196.771 33.8176 197.506 33.1426 198.106 32.5726C198.226 32.4526 198.406 32.3926 198.646 32.3926C199.096 32.3926 199.321 32.5726 199.321 32.9326C199.321 33.2626 199.111 33.6376 198.691 34.0576C197.881 34.8676 197.131 35.5876 196.441 36.2176C195.751 36.8476 195.091 37.4026 194.461 37.8826C193.471 38.6026 192.376 39.2626 191.176 39.8626C189.976 40.4626 188.851 40.7626 187.801 40.7626ZM197.663 41.7526C195.983 41.7526 195.143 41.1976 195.143 40.0876C195.143 39.3976 195.383 38.7076 195.863 38.0176C196.373 37.3276 196.973 36.6976 197.663 36.1276C198.353 35.5576 198.998 35.1226 199.598 34.8226C199.778 34.7326 200.018 34.6426 200.318 34.5526C200.648 34.4626 200.918 34.4176 201.128 34.4176C201.368 34.4176 201.488 34.5076 201.488 34.6876C201.488 34.8376 201.323 35.0026 200.993 35.1826C199.613 35.8426 198.533 36.6376 197.753 37.5676C197.003 38.4676 196.628 39.2026 196.628 39.7726C196.628 40.3126 197.093 40.5826 198.023 40.5826C198.803 40.5826 199.643 40.3876 200.543 39.9976C201.473 39.6076 202.343 39.0976 203.153 38.4676C203.993 37.8376 204.683 37.1626 205.223 36.4426C205.763 35.7226 206.033 35.0326 206.033 34.3726C206.033 33.9226 205.883 33.5176 205.583 33.1576C205.313 32.7976 204.863 32.5276 204.233 32.3476L201.263 31.4476C200.513 31.2076 199.973 30.8926 199.643 30.5026C199.313 30.1126 199.148 29.6776 199.148 29.1976C199.148 28.2976 199.478 27.4876 200.138 26.7676C200.828 26.0476 201.683 25.4776 202.703 25.0576C203.723 24.6376 204.713 24.4276 205.673 24.4276C206.633 24.4276 207.473 24.6676 208.193 25.1476C208.913 25.5976 209.273 26.2126 209.273 26.9926C209.273 27.4426 209.138 27.8626 208.868 28.2526C208.628 28.6426 208.343 28.8376 208.013 28.8376C207.503 28.8376 207.248 28.6276 207.248 28.2076C207.248 28.0576 207.323 27.8776 207.473 27.6676C207.653 27.4276 207.743 27.2026 207.743 26.9926C207.743 26.0926 207.053 25.6426 205.673 25.6426C204.923 25.6426 204.173 25.8076 203.423 26.1376C202.703 26.4376 202.103 26.8426 201.623 27.3526C201.143 27.8626 200.903 28.4176 200.903 29.0176C200.903 29.6176 201.503 30.0976 202.703 30.4576L205.583 31.3576C206.453 31.6276 207.053 32.0026 207.383 32.4826C207.713 32.9326 207.878 33.4426 207.878 34.0126C207.878 35.3626 207.053 36.7576 205.403 38.1976C202.733 40.5676 200.153 41.7526 197.663 41.7526ZM211.593 41.7526C209.913 41.7526 209.073 41.1976 209.073 40.0876C209.073 39.3976 209.313 38.7076 209.793 38.0176C210.303 37.3276 210.903 36.6976 211.593 36.1276C212.283 35.5576 212.928 35.1226 213.528 34.8226C213.708 34.7326 213.948 34.6426 214.248 34.5526C214.578 34.4626 214.848 34.4176 215.058 34.4176C215.298 34.4176 215.418 34.5076 215.418 34.6876C215.418 34.8376 215.253 35.0026 214.923 35.1826C213.543 35.8426 212.463 36.6376 211.683 37.5676C210.933 38.4676 210.558 39.2026 210.558 39.7726C210.558 40.3126 211.023 40.5826 211.953 40.5826C212.733 40.5826 213.573 40.3876 214.473 39.9976C215.403 39.6076 216.273 39.0976 217.083 38.4676C217.923 37.8376 218.613 37.1626 219.153 36.4426C219.693 35.7226 219.963 35.0326 219.963 34.3726C219.963 33.9226 219.813 33.5176 219.513 33.1576C219.243 32.7976 218.793 32.5276 218.163 32.3476L215.193 31.4476C214.443 31.2076 213.903 30.8926 213.573 30.5026C213.243 30.1126 213.078 29.6776 213.078 29.1976C213.078 28.2976 213.408 27.4876 214.068 26.7676C214.758 26.0476 215.613 25.4776 216.633 25.0576C217.653 24.6376 218.643 24.4276 219.603 24.4276C220.563 24.4276 221.403 24.6676 222.123 25.1476C222.843 25.5976 223.203 26.2126 223.203 26.9926C223.203 27.4426 223.068 27.8626 222.798 28.2526C222.558 28.6426 222.273 28.8376 221.943 28.8376C221.433 28.8376 221.178 28.6276 221.178 28.2076C221.178 28.0576 221.253 27.8776 221.403 27.6676C221.583 27.4276 221.673 27.2026 221.673 26.9926C221.673 26.0926 220.983 25.6426 219.603 25.6426C218.853 25.6426 218.103 25.8076 217.353 26.1376C216.633 26.4376 216.033 26.8426 215.553 27.3526C215.073 27.8626 214.833 28.4176 214.833 29.0176C214.833 29.6176 215.433 30.0976 216.633 30.4576L219.513 31.3576C220.383 31.6276 220.983 32.0026 221.313 32.4826C221.643 32.9326 221.808 33.4426 221.808 34.0126C221.808 35.3626 220.983 36.7576 219.333 38.1976C216.663 40.5676 214.083 41.7526 211.593 41.7526ZM237.179 41.7976C235.709 41.7976 234.974 40.7326 234.974 38.6026C234.974 37.4626 235.244 36.0826 235.784 34.4626C232.154 38.6926 229.304 40.8076 227.234 40.8076C225.524 40.8076 224.669 39.7726 224.669 37.7026C224.669 36.9226 224.789 35.9926 225.029 34.9126C225.299 33.8026 225.644 32.6626 226.064 31.4926C226.514 30.3226 226.994 29.2276 227.504 28.2076C228.014 27.1876 228.524 26.3626 229.034 25.7326C229.214 25.5226 229.439 25.4176 229.709 25.4176C229.859 25.4176 230.009 25.4776 230.159 25.5976C230.309 25.6876 230.384 25.8376 230.384 26.0476C230.384 26.2276 230.279 26.4826 230.069 26.8126C228.719 29.0326 227.759 30.9676 227.189 32.6176C226.469 34.5076 226.109 36.1426 226.109 37.5226C226.109 38.8126 226.439 39.4576 227.099 39.4576C227.519 39.4576 228.074 39.2476 228.764 38.8276C229.454 38.4076 230.159 37.8976 230.879 37.2976C231.629 36.6676 232.274 36.0826 232.814 35.5426C234.314 33.9526 235.664 32.2576 236.864 30.4576C237.404 29.6176 237.884 28.8076 238.304 28.0276C238.754 27.2176 239.159 26.3776 239.519 25.5076C239.669 25.1776 239.789 24.9376 239.879 24.7876C239.999 24.6076 240.164 24.5176 240.374 24.5176C241.004 24.5176 241.319 24.7576 241.319 25.2376C241.319 25.5376 241.214 25.7476 241.004 25.8676C237.944 32.0776 236.414 36.3526 236.414 38.6926C236.414 39.3226 236.474 39.7726 236.594 40.0426C236.714 40.2826 236.924 40.4026 237.224 40.4026C237.644 40.4026 238.289 40.1326 239.159 39.5926C240.059 39.0526 241.109 38.2276 242.309 37.1176L247.034 32.7976C247.274 32.5576 247.499 32.4376 247.709 32.4376C248.189 32.4376 248.429 32.6626 248.429 33.1126C248.429 33.5026 247.484 34.5526 245.594 36.2626C244.784 37.0126 244.064 37.6426 243.434 38.1526C242.804 38.6626 242.219 39.1126 241.679 39.5026C240.659 40.2226 239.759 40.7776 238.979 41.1676C238.199 41.5876 237.599 41.7976 237.179 41.7976ZM250.218 41.0776C248.958 41.0776 247.968 40.6426 247.248 39.7726C246.528 38.9026 246.168 37.8376 246.168 36.5776C246.168 34.4176 246.888 32.1976 248.328 29.9176C248.718 29.2876 249.168 28.6726 249.678 28.0726C250.188 27.4426 250.743 26.8426 251.343 26.2726C252.243 25.4026 253.188 24.6826 254.178 24.1126C255.168 23.5426 256.128 23.2576 257.058 23.2576C258.588 23.2576 259.353 23.9776 259.353 25.4176C259.353 27.2176 258.303 28.8526 256.203 30.3226C254.253 31.6426 252.333 32.3026 250.443 32.3026C250.113 32.3026 249.813 32.2876 249.543 32.2576C249.303 32.1976 249.078 32.1376 248.868 32.0776C248.568 32.6476 248.298 33.3826 248.058 34.2826C247.818 35.1826 247.698 35.9626 247.698 36.6226C247.698 38.6026 248.568 39.5926 250.308 39.5926C251.718 39.5926 253.053 39.3526 254.313 38.8726C255.573 38.3626 257.073 37.4176 258.813 36.0376C259.893 35.1976 260.703 34.5226 261.243 34.0126C261.783 33.5026 262.368 32.9626 262.998 32.3926C263.178 32.2726 263.343 32.2126 263.493 32.2126C263.643 32.2126 263.793 32.2576 263.943 32.3476C264.093 32.4376 264.168 32.5726 264.168 32.7526C264.168 33.0826 263.868 33.5476 263.268 34.1476C262.758 34.6276 262.218 35.1376 261.648 35.6776C261.078 36.1876 260.178 36.9076 258.948 37.8376C257.628 38.8576 256.188 39.6526 254.628 40.2226C253.068 40.7926 251.598 41.0776 250.218 41.0776ZM250.173 30.8626C251.133 30.8626 252.048 30.7126 252.918 30.4126C253.788 30.1126 254.613 29.6776 255.393 29.1076C257.133 27.8176 258.003 26.6026 258.003 25.4626C258.003 24.9526 257.688 24.6976 257.058 24.6976C255.858 24.6976 254.463 25.4326 252.873 26.9026C252.093 27.6226 251.448 28.2826 250.938 28.8826C250.458 29.4526 250.008 30.0826 249.588 30.7726C249.768 30.8326 249.963 30.8626 250.173 30.8626ZM286.881 38.5126C286.521 38.5126 286.341 38.4226 286.341 38.2426C286.341 38.0626 286.356 37.9426 286.386 37.8826C286.416 37.6426 286.476 37.3876 286.566 37.1176C286.656 36.8176 286.761 36.4726 286.881 36.0826L287.511 34.3276C287.931 32.8576 288.291 31.3876 288.591 29.9176C288.891 28.4476 289.131 26.9776 289.311 25.5076L283.416 25.8226C282.216 25.8826 281.121 25.9276 280.131 25.9576C279.171 25.9876 278.316 26.0026 277.566 26.0026C277.206 26.0026 277.026 25.7476 277.026 25.2376C277.026 24.7276 277.221 24.4276 277.611 24.3376C278.151 24.1876 282.111 24.0526 289.491 23.9326C289.551 23.1826 289.596 22.3726 289.626 21.5026C289.686 20.6026 289.716 19.6276 289.716 18.5776V16.5076C287.436 16.5676 285.261 16.6276 283.191 16.6876C281.151 16.7176 279.216 16.7326 277.386 16.7326C277.086 16.7326 276.936 16.5376 276.936 16.1476C276.936 15.4576 277.191 15.1126 277.701 15.1126C280.371 15.1126 282.696 15.1126 284.676 15.1126C286.656 15.1126 288.306 15.0976 289.626 15.0676C289.596 14.7676 289.536 14.3176 289.446 13.7176C289.386 13.1176 289.281 12.3526 289.131 11.4226C289.011 10.6126 288.921 9.93758 288.861 9.39758C288.801 8.85758 288.771 8.43758 288.771 8.13758C288.771 7.59758 289.116 7.32758 289.806 7.32758C290.166 7.32758 290.361 7.46258 290.391 7.73258C290.451 8.18258 290.511 8.70758 290.571 9.30758C290.631 9.90758 290.676 10.5976 290.706 11.3776C290.766 12.4576 290.796 13.2976 290.796 13.8976C290.826 14.4976 290.856 14.8726 290.886 15.0226L298.941 14.9326C298.971 13.3126 298.986 11.9026 298.986 10.7026C299.016 9.47258 299.031 8.45258 299.031 7.64258C299.031 7.25258 299.286 7.05758 299.796 7.05758C300.276 7.05758 300.516 7.23758 300.516 7.59758C300.516 8.43758 300.501 9.47258 300.471 10.7026C300.441 11.9026 300.396 13.3126 300.336 14.9326C302.916 14.9026 305.166 14.8876 307.086 14.8876C309.036 14.8576 310.656 14.8426 311.946 14.8426C312.306 14.8426 312.486 15.0226 312.486 15.3826C312.486 15.7726 312.306 15.9676 311.946 15.9676C310.656 15.9676 309.036 15.9826 307.086 16.0126C305.166 16.0426 302.901 16.0876 300.291 16.1476L300.156 23.6176V23.9326C301.806 23.9626 303.261 23.9926 304.521 24.0226C305.811 24.0226 306.906 24.0526 307.806 24.1126C311.076 24.2926 313.581 24.6076 315.321 25.0576C315.621 25.1476 315.771 25.3276 315.771 25.5976C315.771 25.9576 315.561 26.1376 315.141 26.1376C314.421 26.1376 313.401 26.0476 312.081 25.8676C311.301 25.7476 310.641 25.6726 310.101 25.6426C309.591 25.5826 309.201 25.5376 308.931 25.5076C306.381 25.3276 303.456 25.2376 300.156 25.2376C300.186 26.5576 300.231 27.8326 300.291 29.0626C300.381 30.2626 300.486 31.4176 300.606 32.5276C300.636 32.6476 300.666 32.8726 300.696 33.2026C300.756 33.5026 300.846 33.8926 300.966 34.3726C301.026 34.7626 301.071 35.1226 301.101 35.4526C301.161 35.7526 301.191 36.0076 301.191 36.2176C301.191 36.6676 301.011 36.8926 300.651 36.8926C300.321 36.8926 300.141 36.7426 300.111 36.4426C299.451 34.3126 299.061 30.5776 298.941 25.2376C297.141 25.2676 295.566 25.2976 294.216 25.3276C292.866 25.3576 291.726 25.3876 290.796 25.4176C290.706 26.2576 290.526 27.2926 290.256 28.5226C290.016 29.7226 289.686 31.1176 289.266 32.7076C288.276 36.5776 287.481 38.5126 286.881 38.5126ZM290.976 23.8876H298.896V21.9076C298.896 21.1276 298.896 20.2726 298.896 19.3426C298.896 18.3826 298.911 17.3326 298.941 16.1926L290.976 16.4626C291.006 17.3026 291.021 18.0826 291.021 18.8026C291.051 19.5226 291.066 20.1826 291.066 20.7826C291.066 21.4126 291.051 21.9826 291.021 22.4926C291.021 23.0026 291.006 23.4676 290.976 23.8876ZM331.254 41.2126C327.684 41.2126 323.649 40.5976 319.149 39.3676V39.4126C317.319 40.3726 315.714 40.8526 314.334 40.8526C313.524 40.8526 312.774 40.6576 312.084 40.2676C311.214 39.8176 310.779 39.2326 310.779 38.5126C310.779 37.8826 311.094 37.3726 311.724 36.9826C312.204 36.6826 312.804 36.5326 313.524 36.5326C314.094 36.5326 315.879 36.9826 318.879 37.8826L319.149 37.7476L319.374 37.6126C329.694 31.2526 336.384 25.4926 339.444 20.3326C340.824 18.0226 341.514 16.1326 341.514 14.6626C341.514 12.4726 340.059 11.3776 337.149 11.3776C335.229 11.3776 333.234 11.8876 331.164 12.9076C329.244 13.8376 327.549 15.0376 326.079 16.5076C325.809 16.7776 325.479 17.1526 325.089 17.6326C324.699 18.0826 324.249 18.6376 323.739 19.2976C323.619 19.5076 323.424 19.6126 323.154 19.6126C322.644 19.6126 322.389 19.3576 322.389 18.8476C322.389 18.6976 322.449 18.5626 322.569 18.4426C324.189 16.0726 326.334 14.0926 329.004 12.5026C331.854 10.7926 334.614 9.93758 337.284 9.93758C338.904 9.93758 340.209 10.2976 341.199 11.0176C342.309 11.8276 342.864 13.0126 342.864 14.5726C342.864 16.4926 342.129 18.6826 340.659 21.1426C337.479 26.4826 330.909 32.2426 320.949 38.4226C324.819 39.3226 328.194 39.7726 331.074 39.7726C336.264 39.7726 338.814 38.7976 338.724 36.8476L338.679 36.5776C338.679 36.0076 338.934 35.7226 339.444 35.7226C339.894 35.7226 340.119 36.0676 340.119 36.7576C340.119 39.7276 337.164 41.2126 331.254 41.2126ZM314.244 39.3676C315.024 39.3676 315.894 39.1726 316.854 38.7826C315.324 38.2426 314.334 37.9726 313.884 37.9726C313.074 37.9726 312.669 38.1976 312.669 38.6476C312.669 39.1276 313.194 39.3676 314.244 39.3676ZM368.226 14.5276C367.386 14.5276 366.306 14.4076 364.986 14.1676C363.666 13.9276 362.121 13.5676 360.351 13.0876C359.421 13.5676 358.896 13.8076 358.776 13.8076C358.506 13.8076 358.191 13.7176 357.831 13.5376C357.501 13.3576 357.336 13.1476 357.336 12.9076C357.336 12.4876 357.621 12.1276 358.191 11.8276C358.731 11.5876 359.211 11.4676 359.631 11.4676C359.931 11.4676 360.411 11.5726 361.071 11.7826C364.131 12.6526 366.351 13.0876 367.731 13.0876C372.801 13.0876 375.291 12.1126 375.201 10.1626L375.156 9.89258C375.156 9.32258 375.411 9.03758 375.921 9.03758C376.341 9.03758 376.551 9.24758 376.551 9.66758V9.62258C376.581 9.71258 376.596 9.87758 376.596 10.1176C376.596 11.7676 375.561 12.9826 373.491 13.7626C372.021 14.2726 370.266 14.5276 368.226 14.5276ZM350.316 41.6626C345.486 41.6626 343.071 40.1776 343.071 37.2076C343.071 36.8476 343.161 36.4426 343.341 35.9926C343.491 35.5426 343.716 35.1676 344.016 34.8676C344.316 34.5376 344.631 34.3726 344.961 34.3726C345.261 34.3726 345.411 34.5226 345.411 34.8226C345.411 34.9726 345.261 35.2876 344.961 35.7676C344.661 36.2476 344.511 36.7426 344.511 37.2526C344.511 39.2626 346.356 40.2676 350.046 40.2676C351.096 40.2676 352.146 40.1926 353.196 40.0426C354.246 39.8926 355.281 39.6676 356.301 39.3676C359.001 38.5876 361.341 37.4626 363.321 35.9926C365.811 34.1026 367.146 32.0026 367.326 29.6926V29.3326C367.326 27.6826 366.861 26.3626 365.931 25.3726C365.001 24.3526 363.726 23.8426 362.106 23.8426C360.426 23.8426 358.521 24.4576 356.391 25.6876C354.261 26.9176 353.031 27.5326 352.701 27.5326C351.861 27.5326 351.441 27.2626 351.441 26.7226C351.441 26.4226 351.681 26.1376 352.161 25.8676L352.116 25.8226C354.366 20.9626 356.646 17.2726 358.956 14.7526C359.136 14.5726 359.316 14.4826 359.496 14.4826C360.006 14.4826 360.261 14.7526 360.261 15.2926C360.261 15.4726 360.186 15.6376 360.036 15.7876C359.796 16.0876 359.481 16.4626 359.091 16.9126C358.731 17.3626 358.311 17.8876 357.831 18.4876C357.291 19.2076 356.706 20.1376 356.076 21.2776C355.446 22.4176 354.756 23.7676 354.006 25.3276L354.411 25.2826C357.081 23.4826 359.751 22.5826 362.421 22.5826C364.491 22.5826 366.126 23.1676 367.326 24.3376C368.526 25.5076 369.126 27.1276 369.126 29.1976C369.126 32.9476 366.846 36.0676 362.286 38.5576C358.476 40.6276 354.486 41.6626 350.316 41.6626ZM3.6 96.7526C1.92 96.7526 1.08 96.1976 1.08 95.0876C1.08 94.3976 1.32 93.7076 1.8 93.0176C2.31 92.3276 2.91 91.6976 3.6 91.1276C4.29 90.5576 4.935 90.1226 5.535 89.8226C5.715 89.7326 5.955 89.6426 6.255 89.5526C6.585 89.4626 6.855 89.4176 7.065 89.4176C7.305 89.4176 7.425 89.5076 7.425 89.6876C7.425 89.8376 7.26 90.0026 6.93 90.1826C5.55 90.8426 4.47 91.6376 3.69 92.5676C2.94 93.4676 2.565 94.2026 2.565 94.7726C2.565 95.3126 3.03 95.5826 3.96 95.5826C4.74 95.5826 5.58 95.3876 6.48 94.9976C7.41 94.6076 8.28 94.0976 9.09 93.4676C9.93 92.8376 10.62 92.1626 11.16 91.4426C11.7 90.7226 11.97 90.0326 11.97 89.3726C11.97 88.9226 11.82 88.5176 11.52 88.1576C11.25 87.7976 10.8 87.5276 10.17 87.3476L7.2 86.4476C6.45 86.2076 5.91 85.8926 5.58 85.5026C5.25 85.1126 5.085 84.6776 5.085 84.1976C5.085 83.2976 5.415 82.4876 6.075 81.7676C6.765 81.0476 7.62 80.4776 8.64 80.0576C9.66 79.6376 10.65 79.4276 11.61 79.4276C12.57 79.4276 13.41 79.6676 14.13 80.1476C14.85 80.5976 15.21 81.2126 15.21 81.9926C15.21 82.4426 15.075 82.8626 14.805 83.2526C14.565 83.6426 14.28 83.8376 13.95 83.8376C13.44 83.8376 13.185 83.6276 13.185 83.2076C13.185 83.0576 13.26 82.8776 13.41 82.6676C13.59 82.4276 13.68 82.2026 13.68 81.9926C13.68 81.0926 12.99 80.6426 11.61 80.6426C10.86 80.6426 10.11 80.8076 9.36 81.1376C8.64 81.4376 8.04 81.8426 7.56 82.3526C7.08 82.8626 6.84 83.4176 6.84 84.0176C6.84 84.6176 7.44 85.0976 8.64 85.4576L11.52 86.3576C12.39 86.6276 12.99 87.0026 13.32 87.4826C13.65 87.9326 13.815 88.4426 13.815 89.0126C13.815 90.3626 12.99 91.7576 11.34 93.1976C8.67 95.5676 6.09 96.7526 3.6 96.7526ZM14.2457 107.688C12.8357 107.688 12.1307 106.683 12.1307 104.673C12.1307 102.033 13.2857 97.8326 15.5957 92.0726C15.9857 91.1126 16.4507 90.1076 16.9907 89.0576C17.5307 88.0076 18.1607 86.8976 18.8807 85.7276C19.6307 84.4676 20.3357 83.3726 20.9957 82.4426C21.6857 81.5126 22.2857 80.7626 22.7957 80.1926C22.9757 80.0126 23.1257 79.8926 23.2457 79.8326C23.3957 79.7726 23.5157 79.7426 23.6057 79.7426C24.3857 79.7426 25.2707 79.9676 26.2607 80.4176C27.2507 80.8676 28.1357 81.4376 28.9157 82.1276C29.6357 82.7276 30.2207 83.4476 30.6707 84.2876C31.1207 85.1276 31.3457 85.9976 31.3457 86.8976C31.3457 87.5576 31.2107 88.2326 30.9407 88.9226C30.7007 89.5826 30.3707 90.2426 29.9507 90.9026C30.7307 90.7526 31.6757 90.4076 32.7857 89.8676C33.9257 89.3276 35.0807 88.5026 36.2507 87.3926C36.3707 87.2726 36.5357 87.2126 36.7457 87.2126C37.1957 87.2126 37.4207 87.3926 37.4207 87.7526C37.4207 87.9026 37.3457 88.0976 37.1957 88.3376C37.0757 88.5476 36.8507 88.8176 36.5207 89.1476C34.3007 91.1876 31.6307 92.3576 28.5107 92.6576C28.0607 93.1376 27.5657 93.6026 27.0257 94.0526C26.5157 94.4726 25.9757 94.8626 25.4057 95.2226C23.6657 96.2726 22.1807 96.7976 20.9507 96.7976C20.4407 96.7976 20.0207 96.6326 19.6907 96.3026C19.3607 95.9726 19.1957 95.5976 19.1957 95.1776C19.1957 93.7976 20.3957 92.7476 22.7957 92.0276C23.6657 91.7876 24.5357 91.5776 25.4057 91.3976C26.2757 91.2176 27.1307 91.0226 27.9707 90.8126C28.5707 89.8826 29.0057 89.0726 29.2757 88.3826C29.5757 87.6926 29.7257 87.1076 29.7257 86.6276C29.7257 85.0376 28.5407 83.5226 26.1707 82.0826C25.2407 81.5126 24.5057 81.2426 23.9657 81.2726C21.5057 83.9726 19.1807 87.7526 16.9907 92.6126C14.7107 97.6226 13.5707 101.568 13.5707 104.448C13.5707 105.138 13.6307 105.603 13.7507 105.843C13.8707 106.083 14.0807 106.203 14.3807 106.203C14.4707 106.203 14.5457 106.188 14.6057 106.158C14.6657 106.158 14.7257 106.158 14.7857 106.158C15.1757 106.158 15.3707 106.398 15.3707 106.878C15.3707 107.418 14.9957 107.688 14.2457 107.688ZM21.2657 95.3576C22.3757 95.3576 23.9807 94.4876 26.0807 92.7476C25.6007 92.8076 25.1357 92.8826 24.6857 92.9726C24.2657 93.0626 23.6507 93.2276 22.8407 93.4676C21.4907 93.8576 20.8157 94.3526 20.8157 94.9526C20.8157 95.2226 20.9657 95.3576 21.2657 95.3576ZM38.6009 95.0426C36.1709 95.0426 34.9559 93.6776 34.9559 90.9476C34.9559 89.6876 35.2559 88.3676 35.8559 86.9876C36.4559 85.6076 37.2509 84.3326 38.2409 83.1626C39.2309 81.9626 40.3259 80.9876 41.5259 80.2376C42.7559 79.4876 44.0009 79.1126 45.2609 79.1126C46.3709 79.1126 47.1809 79.5326 47.6909 80.3726C48.2009 81.2126 48.4559 82.1426 48.4559 83.1626C48.4559 84.5126 48.1859 85.8926 47.6459 87.3026C47.1059 88.6826 46.3709 89.9576 45.4409 91.1276C44.5109 92.2976 43.4609 93.2426 42.2909 93.9626C41.1209 94.6826 39.8909 95.0426 38.6009 95.0426ZM38.5559 93.6026C38.7359 93.6026 38.8409 93.5876 38.8709 93.5576C40.0409 93.4076 41.1209 92.9876 42.1109 92.2976C43.1009 91.6076 43.9559 90.7526 44.6759 89.7326C45.4259 88.6826 45.9959 87.5576 46.3859 86.3576C46.7759 85.1576 46.9709 83.9726 46.9709 82.8026C46.9709 82.1126 46.7759 81.5726 46.3859 81.1826C45.9959 80.7926 45.5009 80.5976 44.9009 80.5976C44.0309 80.5976 43.1009 80.9576 42.1109 81.6776C41.1509 82.3976 40.2359 83.3126 39.3659 84.4226C38.5259 85.5326 37.8359 86.7026 37.2959 87.9326C36.7559 89.1326 36.4859 90.2126 36.4859 91.1726C36.4859 92.7926 37.1759 93.6026 38.5559 93.6026ZM49.9862 98.3726C49.4162 98.3726 49.1312 97.9226 49.1312 97.0226C49.1312 95.7026 49.8662 93.3926 51.3362 90.0926C52.8362 86.7926 55.0562 82.4726 57.9962 77.1326C56.8562 77.1326 55.7762 77.2826 54.7562 77.5826C53.7662 77.8526 53.2412 78.1976 53.1812 78.6176C53.1512 78.7376 53.0762 78.8576 52.9562 78.9776C52.8662 79.0676 52.7162 79.1126 52.5062 79.1126C52.0262 79.1126 51.7862 78.8726 51.7862 78.3926C51.7862 77.6126 52.4012 76.9676 53.6312 76.4576C54.8612 75.9476 56.5862 75.6926 58.8062 75.6926L61.9112 70.5626C62.1212 70.2326 62.3462 69.8726 62.5862 69.4826C62.8262 69.0626 63.0962 68.6126 63.3962 68.1326C63.6962 67.7126 64.0412 67.5026 64.4312 67.5026C64.6712 67.5026 64.8512 67.5776 64.9712 67.7276C65.0912 67.8476 65.1512 67.9826 65.1512 68.1326C65.1512 68.5826 64.4912 69.7826 63.1712 71.7326C61.5212 74.1626 60.6362 75.4826 60.5162 75.6926C60.9662 75.6926 61.6412 75.7376 62.5412 75.8276C63.4412 75.8876 64.5062 75.9926 65.7362 76.1426C66.1862 76.1726 66.4112 76.3976 66.4112 76.8176C66.4112 77.2976 66.1412 77.5376 65.6012 77.5376C65.3912 77.5376 64.9712 77.5076 64.3412 77.4476C63.7112 77.3576 63.0362 77.2826 62.3162 77.2226C61.5962 77.1626 60.9812 77.1476 60.4712 77.1776L59.7962 77.2226C53.7062 87.9326 50.6762 94.5926 50.7062 97.2026L50.7512 97.5626V97.6526C50.7512 98.1326 50.4962 98.3726 49.9862 98.3726ZM69.8994 77.5376C69.3894 77.5376 69.1344 77.2826 69.1344 76.7726C69.1344 76.6226 69.2394 76.3526 69.4494 75.9626C69.6594 75.5426 69.8994 75.1226 70.1694 74.7026C70.4394 74.2826 70.6494 73.9976 70.7994 73.8476C71.3094 73.2776 71.6994 72.9176 71.9694 72.7676C72.2694 72.6176 72.5394 72.5426 72.7794 72.5426C73.4094 72.5426 73.7244 72.8276 73.7244 73.3976C73.7244 73.6076 73.5894 73.8626 73.3194 74.1626C73.0794 74.4326 72.7944 74.6876 72.4644 74.9276C71.9844 75.2276 71.6844 75.4676 71.5644 75.6476L70.5744 77.0426C70.5444 77.1626 70.4694 77.2826 70.3494 77.4026C70.2594 77.4926 70.1094 77.5376 69.8994 77.5376ZM62.2494 95.7626C61.4094 95.7626 60.7944 95.5976 60.4044 95.2676C60.0444 94.9376 59.8644 94.4426 59.8644 93.7826C59.8644 93.1526 60.0594 92.2976 60.4494 91.2176C60.8394 90.1076 61.3344 88.9226 61.9344 87.6626C62.5644 86.4026 63.2244 85.2026 63.9144 84.0626C64.6044 82.9226 65.2644 81.9926 65.8944 81.2726C66.5544 80.5226 67.0794 80.1476 67.4694 80.1476C68.0094 80.1476 68.2794 80.3876 68.2794 80.8676C68.2794 81.1676 68.0244 81.7376 67.5144 82.5776C67.0044 83.4176 66.4494 84.2876 65.8494 85.1876C65.6094 85.5176 65.2794 85.9676 64.8594 86.5376C64.4394 87.1076 64.0344 87.6476 63.6444 88.1576C63.2544 88.6376 62.9994 88.9676 62.8794 89.1476C62.5794 89.5976 62.2644 90.3326 61.9344 91.3526C61.5744 92.3726 61.3944 93.1526 61.3944 93.6926C61.3944 93.9326 61.4394 94.1126 61.5294 94.2326C61.6494 94.3526 61.9044 94.4126 62.2944 94.4126C63.0444 94.4126 63.8844 94.1726 64.8144 93.6926C65.7444 93.2126 66.6894 92.6126 67.6494 91.8926C68.6094 91.1426 69.5094 90.3776 70.3494 89.5976C71.2194 88.8176 71.9544 88.1426 72.5544 87.5726C72.6744 87.4526 72.8544 87.3926 73.0944 87.3926C73.5444 87.3926 73.7694 87.5726 73.7694 87.9326C73.7694 88.2626 73.5594 88.6376 73.1394 89.0576C72.3294 89.8676 71.5794 90.5876 70.8894 91.2176C70.1994 91.8476 69.5394 92.4026 68.9094 92.8826C67.9194 93.6026 66.8244 94.2626 65.6244 94.8626C64.4244 95.4626 63.2994 95.7626 62.2494 95.7626ZM68.3757 110.118C67.4157 110.118 66.7407 109.788 66.3507 109.128C65.9307 108.498 65.7207 107.643 65.7207 106.563C65.7207 104.103 66.8757 100.308 69.1857 95.1776C69.0657 95.0576 69.0057 94.9076 69.0057 94.7276C69.0057 94.4276 69.2757 94.1276 69.8157 93.8276C71.4057 90.6176 72.8757 87.7826 74.2257 85.3226C75.6057 82.8326 76.8507 80.7176 77.9607 78.9776C81.6807 73.2776 85.0257 69.3326 87.9957 67.1426C88.3857 66.8426 88.7607 66.6026 89.1207 66.4226C89.4807 66.2426 89.8407 66.1526 90.2007 66.1526C90.6807 66.1526 90.9207 66.3476 90.9207 66.7376C90.9207 66.9476 90.8307 67.1726 90.6507 67.4126C90.5007 67.6226 90.2307 67.9676 89.8407 68.4476C89.3907 68.9576 88.8657 69.5576 88.2657 70.2476C87.6657 70.9076 87.0357 71.5976 86.3757 72.3176C85.7457 73.0376 85.1607 73.6976 84.6207 74.2976C84.0807 74.8676 83.6457 75.3176 83.3157 75.6476L79.1757 79.9226L77.7357 82.2176C77.3457 82.8176 76.8657 83.6426 76.2957 84.6926C75.7557 85.7126 75.1107 86.9276 74.3607 88.3376C74.0607 88.9076 73.6707 89.6426 73.1907 90.5426C72.7407 91.4426 72.2157 92.5076 71.6157 93.7376C71.8557 93.7676 72.0657 93.8276 72.2457 93.9176C72.4557 93.9776 72.6507 94.0526 72.8307 94.1426C76.9407 92.8826 80.8257 90.6626 84.4857 87.4826C84.6957 87.3326 84.8757 87.2576 85.0257 87.2576C85.5357 87.2576 85.7907 87.4826 85.7907 87.9326C85.7907 88.0526 85.7457 88.1726 85.6557 88.2926C85.5957 88.4126 85.5207 88.5326 85.4307 88.6526C84.9807 89.1326 84.3357 89.6876 83.4957 90.3176C82.6557 90.9476 81.6057 91.6226 80.3457 92.3426C79.2657 92.9426 78.2157 93.4976 77.1957 94.0076C76.2057 94.4876 75.2457 94.8926 74.3157 95.2226C75.1557 96.2426 75.5757 97.5476 75.5757 99.1376C75.5757 101.328 74.9307 103.608 73.6407 105.978C72.1407 108.738 70.3857 110.118 68.3757 110.118ZM68.1057 108.768C68.9757 108.768 69.8007 108.408 70.5807 107.688C71.3907 106.968 72.0807 106.038 72.6507 104.898C73.0707 104.088 73.4157 103.113 73.6857 101.973C73.9857 100.863 74.1357 99.8876 74.1357 99.0476C74.1357 97.3676 73.6257 96.2426 72.6057 95.6726C72.2157 95.7326 71.8557 95.7776 71.5257 95.8076C71.1957 95.8676 70.8807 95.8826 70.5807 95.8526V95.8976C68.0607 101.508 66.8007 105.348 66.8007 107.418C66.8007 107.868 66.9207 108.198 67.1607 108.408C67.4007 108.648 67.7157 108.768 68.1057 108.768ZM85.5221 110.163C83.6921 110.163 82.7771 109.083 82.7771 106.923C82.7771 105.093 83.1671 103.323 83.9471 101.613C84.0671 101.313 84.2621 101.163 84.5321 101.163C85.0721 101.163 85.3421 101.403 85.3421 101.883C85.3421 102.003 85.2971 102.153 85.2071 102.333C85.1471 102.543 85.0721 102.768 84.9821 103.008C84.7721 103.578 84.6071 104.178 84.4871 104.808C84.3671 105.438 84.3071 106.098 84.3071 106.788C84.3071 107.568 84.4121 108.093 84.6221 108.363C84.8321 108.633 85.1021 108.768 85.4321 108.768C86.2121 108.768 87.1271 108.408 88.1771 107.688C89.2571 106.968 90.3671 105.828 91.5071 104.268C92.3171 103.158 93.1571 101.838 94.0271 100.308C94.8971 98.7776 95.8271 97.0226 96.8171 95.0426C98.1371 92.4326 99.3521 89.7776 100.462 87.0776C99.7121 88.0376 98.9321 88.9676 98.1221 89.8676C97.3121 90.7676 96.4421 91.6076 95.5121 92.3876C93.0221 94.5176 90.9521 95.5826 89.3021 95.5826C87.3221 95.5826 86.3321 94.4426 86.3321 92.1626C86.3321 91.3526 86.4821 90.3776 86.7821 89.2376C87.1121 88.0976 87.5621 86.7926 88.1321 85.3226C88.2221 85.0826 88.2671 84.8876 88.2671 84.7376C88.2671 84.5576 88.3121 84.3776 88.4021 84.1976C88.8821 83.1476 89.6771 81.9776 90.7871 80.6876C91.0271 80.4176 91.2371 80.2826 91.4171 80.2826C91.8671 80.2826 92.0921 80.6126 92.0921 81.2726C89.1821 85.5626 87.7271 89.1926 87.7271 92.1626C87.7271 93.4226 88.2221 94.0526 89.2121 94.0526C90.3221 94.0526 91.8671 93.2876 93.8471 91.7576C95.2571 90.6776 96.5621 89.4626 97.7621 88.1126C98.9621 86.7326 100.042 85.3076 101.002 83.8376C101.662 82.8476 102.187 81.9776 102.577 81.2276C102.997 80.4476 103.252 79.9226 103.342 79.6526C103.492 79.2026 103.702 78.9776 103.972 78.9776C104.542 78.9776 104.827 79.2176 104.827 79.6976C104.827 79.9376 104.707 80.3726 104.467 81.0026C104.257 81.6026 103.987 82.3226 103.657 83.1626C103.177 84.3926 102.487 86.0426 101.587 88.1126C100.687 90.1826 99.5621 92.6426 98.2121 95.4926C96.5321 99.0326 94.8821 101.928 93.2621 104.178C92.0621 105.888 90.7421 107.313 89.3021 108.453C87.8921 109.593 86.6321 110.163 85.5221 110.163ZM115.452 107.688C114.042 107.688 113.337 106.683 113.337 104.673C113.337 102.033 114.492 97.8326 116.802 92.0726C117.192 91.1126 117.657 90.1076 118.197 89.0576C118.737 88.0076 119.367 86.8976 120.087 85.7276C120.837 84.4676 121.542 83.3726 122.202 82.4426C122.892 81.5126 123.492 80.7626 124.002 80.1926C124.182 80.0126 124.332 79.8926 124.452 79.8326C124.602 79.7726 124.722 79.7426 124.812 79.7426C125.592 79.7426 126.477 79.9676 127.467 80.4176C128.457 80.8676 129.342 81.4376 130.122 82.1276C130.842 82.7276 131.427 83.4476 131.877 84.2876C132.327 85.1276 132.552 85.9976 132.552 86.8976C132.552 87.5576 132.417 88.2326 132.147 88.9226C131.907 89.5826 131.577 90.2426 131.157 90.9026C131.937 90.7526 132.882 90.4076 133.992 89.8676C135.132 89.3276 136.287 88.5026 137.457 87.3926C137.577 87.2726 137.742 87.2126 137.952 87.2126C138.402 87.2126 138.627 87.3926 138.627 87.7526C138.627 87.9026 138.552 88.0976 138.402 88.3376C138.282 88.5476 138.057 88.8176 137.727 89.1476C135.507 91.1876 132.837 92.3576 129.717 92.6576C129.267 93.1376 128.772 93.6026 128.232 94.0526C127.722 94.4726 127.182 94.8626 126.612 95.2226C124.872 96.2726 123.387 96.7976 122.157 96.7976C121.647 96.7976 121.227 96.6326 120.897 96.3026C120.567 95.9726 120.402 95.5976 120.402 95.1776C120.402 93.7976 121.602 92.7476 124.002 92.0276C124.872 91.7876 125.742 91.5776 126.612 91.3976C127.482 91.2176 128.337 91.0226 129.177 90.8126C129.777 89.8826 130.212 89.0726 130.482 88.3826C130.782 87.6926 130.932 87.1076 130.932 86.6276C130.932 85.0376 129.747 83.5226 127.377 82.0826C126.447 81.5126 125.712 81.2426 125.172 81.2726C122.712 83.9726 120.387 87.7526 118.197 92.6126C115.917 97.6226 114.777 101.568 114.777 104.448C114.777 105.138 114.837 105.603 114.957 105.843C115.077 106.083 115.287 106.203 115.587 106.203C115.677 106.203 115.752 106.188 115.812 106.158C115.872 106.158 115.932 106.158 115.992 106.158C116.382 106.158 116.577 106.398 116.577 106.878C116.577 107.418 116.202 107.688 115.452 107.688ZM122.472 95.3576C123.582 95.3576 125.187 94.4876 127.287 92.7476C126.807 92.8076 126.342 92.8826 125.892 92.9726C125.472 93.0626 124.857 93.2276 124.047 93.4676C122.697 93.8576 122.022 94.3526 122.022 94.9526C122.022 95.2226 122.172 95.3576 122.472 95.3576ZM141.067 96.4826C139.687 96.4826 138.622 96.0626 137.872 95.2226C137.152 94.3526 136.792 93.2126 136.792 91.8026C136.792 90.7826 136.972 89.5526 137.332 88.1126C137.962 85.6826 139.027 82.8626 140.527 79.6526C141.697 77.2226 142.957 74.8376 144.307 72.4976C145.657 70.1276 147.142 67.8026 148.762 65.5226C151.342 61.8626 153.142 60.0326 154.162 60.0326C154.822 60.0326 155.152 60.2126 155.152 60.5726C155.152 61.0826 154.312 62.3576 152.632 64.3976L149.482 68.2226C146.752 71.5226 144.517 74.8976 142.777 78.3476C141.067 81.7976 139.732 85.2476 138.772 88.6976C138.502 89.6876 138.367 90.6176 138.367 91.4876C138.367 93.7676 139.297 94.9076 141.157 94.9076C141.817 94.9076 142.492 94.7126 143.182 94.3226C143.872 93.9626 144.247 93.7826 144.307 93.7826C144.667 93.7826 144.847 94.0376 144.847 94.5476C144.847 94.9976 144.682 95.3426 144.352 95.5826C143.332 96.1826 142.237 96.4826 141.067 96.4826ZM149.479 95.7176C147.739 95.7176 146.869 94.8926 146.869 93.2426C146.869 92.1626 147.124 91.0076 147.634 89.7776C148.174 88.5176 148.894 87.3026 149.794 86.1326C150.694 84.9326 151.699 83.8526 152.809 82.8926C153.919 81.9026 155.059 81.1226 156.229 80.5526C157.399 79.9526 158.524 79.6526 159.604 79.6526C161.524 79.6526 162.484 80.5976 162.484 82.4876C162.484 83.7176 162.184 84.3326 161.584 84.3326C161.044 84.3326 160.774 84.0776 160.774 83.5676C160.774 83.3576 160.819 83.1476 160.909 82.9376C161.029 82.6976 161.089 82.4426 161.089 82.1726C161.089 81.3326 160.519 80.9126 159.379 80.9126C157.549 80.9126 155.254 82.3076 152.494 85.0976C151.834 85.7876 151.189 86.5976 150.559 87.5276C149.929 88.4576 149.404 89.4026 148.984 90.3626C148.594 91.2926 148.399 92.1776 148.399 93.0176C148.399 93.8276 148.849 94.2326 149.749 94.2326C150.529 94.2326 151.354 93.9926 152.224 93.5126C153.124 93.0326 153.904 92.5376 154.564 92.0276C155.884 91.0376 157.234 89.6876 158.614 87.9776C158.824 87.7376 159.094 87.4226 159.424 87.0326C159.754 86.6426 160.129 86.2076 160.549 85.7276C160.699 85.5776 160.879 85.5026 161.089 85.5026C161.569 85.5026 161.809 85.7426 161.809 86.2226L160.099 88.7876C158.959 90.4676 158.389 91.8476 158.389 92.9276C158.389 93.7076 158.764 94.0976 159.514 94.0976C160.144 94.0976 160.834 93.9326 161.584 93.6026C162.334 93.2726 162.949 92.9426 163.429 92.6126C164.389 91.9826 165.394 91.2026 166.444 90.2726C167.494 89.3126 168.499 88.3526 169.459 87.3926C169.579 87.2726 169.759 87.2126 169.999 87.2126C170.449 87.2126 170.674 87.3926 170.674 87.7526C170.674 88.0826 170.464 88.4576 170.044 88.8776C168.844 90.0776 167.764 91.1126 166.804 91.9826C165.844 92.8226 164.929 93.5126 164.059 94.0526C163.489 94.3826 162.784 94.7276 161.944 95.0876C161.104 95.4476 160.144 95.6276 159.064 95.6276C157.594 95.6276 156.859 94.8476 156.859 93.2876C156.859 92.6876 156.934 92.1926 157.084 91.8026C154.354 94.4126 151.819 95.7176 149.479 95.7176ZM167.348 110.163C165.518 110.163 164.603 109.083 164.603 106.923C164.603 105.093 164.993 103.323 165.773 101.613C165.893 101.313 166.088 101.163 166.358 101.163C166.898 101.163 167.168 101.403 167.168 101.883C167.168 102.003 167.123 102.153 167.033 102.333C166.973 102.543 166.898 102.768 166.808 103.008C166.598 103.578 166.433 104.178 166.313 104.808C166.193 105.438 166.133 106.098 166.133 106.788C166.133 107.568 166.238 108.093 166.448 108.363C166.658 108.633 166.928 108.768 167.258 108.768C168.038 108.768 168.953 108.408 170.003 107.688C171.083 106.968 172.193 105.828 173.333 104.268C174.143 103.158 174.983 101.838 175.853 100.308C176.723 98.7776 177.653 97.0226 178.643 95.0426C179.963 92.4326 181.178 89.7776 182.288 87.0776C181.538 88.0376 180.758 88.9676 179.948 89.8676C179.138 90.7676 178.268 91.6076 177.338 92.3876C174.848 94.5176 172.778 95.5826 171.128 95.5826C169.148 95.5826 168.158 94.4426 168.158 92.1626C168.158 91.3526 168.308 90.3776 168.608 89.2376C168.938 88.0976 169.388 86.7926 169.958 85.3226C170.048 85.0826 170.093 84.8876 170.093 84.7376C170.093 84.5576 170.138 84.3776 170.228 84.1976C170.708 83.1476 171.503 81.9776 172.613 80.6876C172.853 80.4176 173.063 80.2826 173.243 80.2826C173.693 80.2826 173.918 80.6126 173.918 81.2726C171.008 85.5626 169.553 89.1926 169.553 92.1626C169.553 93.4226 170.048 94.0526 171.038 94.0526C172.148 94.0526 173.693 93.2876 175.673 91.7576C177.083 90.6776 178.388 89.4626 179.588 88.1126C180.788 86.7326 181.868 85.3076 182.828 83.8376C183.488 82.8476 184.013 81.9776 184.403 81.2276C184.823 80.4476 185.078 79.9226 185.168 79.6526C185.318 79.2026 185.528 78.9776 185.798 78.9776C186.368 78.9776 186.653 79.2176 186.653 79.6976C186.653 79.9376 186.533 80.3726 186.293 81.0026C186.083 81.6026 185.813 82.3226 185.483 83.1626C185.003 84.3926 184.313 86.0426 183.413 88.1126C182.513 90.1826 181.388 92.6426 180.038 95.4926C178.358 99.0326 176.708 101.928 175.088 104.178C173.888 105.888 172.568 107.313 171.128 108.453C169.718 109.593 168.458 110.163 167.348 110.163ZM191.78 96.4826C190.4 96.4826 189.335 96.0626 188.585 95.2226C187.865 94.3526 187.505 93.2126 187.505 91.8026C187.505 90.7826 187.685 89.5526 188.045 88.1126C188.675 85.6826 189.74 82.8626 191.24 79.6526C192.41 77.2226 193.67 74.8376 195.02 72.4976C196.37 70.1276 197.855 67.8026 199.475 65.5226C202.055 61.8626 203.855 60.0326 204.875 60.0326C205.535 60.0326 205.865 60.2126 205.865 60.5726C205.865 61.0826 205.025 62.3576 203.345 64.3976L200.195 68.2226C197.465 71.5226 195.23 74.8976 193.49 78.3476C191.78 81.7976 190.445 85.2476 189.485 88.6976C189.215 89.6876 189.08 90.6176 189.08 91.4876C189.08 93.7676 190.01 94.9076 191.87 94.9076C192.53 94.9076 193.205 94.7126 193.895 94.3226C194.585 93.9626 194.96 93.7826 195.02 93.7826C195.38 93.7826 195.56 94.0376 195.56 94.5476C195.56 94.9976 195.395 95.3426 195.065 95.5826C194.045 96.1826 192.95 96.4826 191.78 96.4826ZM207.932 77.5376C207.422 77.5376 207.167 77.2826 207.167 76.7726C207.167 76.6226 207.272 76.3526 207.482 75.9626C207.692 75.5426 207.932 75.1226 208.202 74.7026C208.472 74.2826 208.682 73.9976 208.832 73.8476C209.342 73.2776 209.732 72.9176 210.002 72.7676C210.302 72.6176 210.572 72.5426 210.812 72.5426C211.442 72.5426 211.757 72.8276 211.757 73.3976C211.757 73.6076 211.622 73.8626 211.352 74.1626C211.112 74.4326 210.827 74.6876 210.497 74.9276C210.017 75.2276 209.717 75.4676 209.597 75.6476L208.607 77.0426C208.577 77.1626 208.502 77.2826 208.382 77.4026C208.292 77.4926 208.142 77.5376 207.932 77.5376ZM200.282 95.7626C199.442 95.7626 198.827 95.5976 198.437 95.2676C198.077 94.9376 197.897 94.4426 197.897 93.7826C197.897 93.1526 198.092 92.2976 198.482 91.2176C198.872 90.1076 199.367 88.9226 199.967 87.6626C200.597 86.4026 201.257 85.2026 201.947 84.0626C202.637 82.9226 203.297 81.9926 203.927 81.2726C204.587 80.5226 205.112 80.1476 205.502 80.1476C206.042 80.1476 206.312 80.3876 206.312 80.8676C206.312 81.1676 206.057 81.7376 205.547 82.5776C205.037 83.4176 204.482 84.2876 203.882 85.1876C203.642 85.5176 203.312 85.9676 202.892 86.5376C202.472 87.1076 202.067 87.6476 201.677 88.1576C201.287 88.6376 201.032 88.9676 200.912 89.1476C200.612 89.5976 200.297 90.3326 199.967 91.3526C199.607 92.3726 199.427 93.1526 199.427 93.6926C199.427 93.9326 199.472 94.1126 199.562 94.2326C199.682 94.3526 199.937 94.4126 200.327 94.4126C201.077 94.4126 201.917 94.1726 202.847 93.6926C203.777 93.2126 204.722 92.6126 205.682 91.8926C206.642 91.1426 207.542 90.3776 208.382 89.5976C209.252 88.8176 209.987 88.1426 210.587 87.5726C210.707 87.4526 210.887 87.3926 211.127 87.3926C211.577 87.3926 211.802 87.5726 211.802 87.9326C211.802 88.2626 211.592 88.6376 211.172 89.0576C210.362 89.8676 209.612 90.5876 208.922 91.2176C208.232 91.8476 207.572 92.4026 206.942 92.8826C205.952 93.6026 204.857 94.2626 203.657 94.8626C202.457 95.4626 201.332 95.7626 200.282 95.7626ZM210.143 96.7526C208.463 96.7526 207.623 96.1976 207.623 95.0876C207.623 94.3976 207.863 93.7076 208.343 93.0176C208.853 92.3276 209.453 91.6976 210.143 91.1276C210.833 90.5576 211.478 90.1226 212.078 89.8226C212.258 89.7326 212.498 89.6426 212.798 89.5526C213.128 89.4626 213.398 89.4176 213.608 89.4176C213.848 89.4176 213.968 89.5076 213.968 89.6876C213.968 89.8376 213.803 90.0026 213.473 90.1826C212.093 90.8426 211.013 91.6376 210.233 92.5676C209.483 93.4676 209.108 94.2026 209.108 94.7726C209.108 95.3126 209.573 95.5826 210.503 95.5826C211.283 95.5826 212.123 95.3876 213.023 94.9976C213.953 94.6076 214.823 94.0976 215.633 93.4676C216.473 92.8376 217.163 92.1626 217.703 91.4426C218.243 90.7226 218.513 90.0326 218.513 89.3726C218.513 88.9226 218.363 88.5176 218.063 88.1576C217.793 87.7976 217.343 87.5276 216.713 87.3476L213.743 86.4476C212.993 86.2076 212.453 85.8926 212.123 85.5026C211.793 85.1126 211.628 84.6776 211.628 84.1976C211.628 83.2976 211.958 82.4876 212.618 81.7676C213.308 81.0476 214.163 80.4776 215.183 80.0576C216.203 79.6376 217.193 79.4276 218.153 79.4276C219.113 79.4276 219.953 79.6676 220.673 80.1476C221.393 80.5976 221.753 81.2126 221.753 81.9926C221.753 82.4426 221.618 82.8626 221.348 83.2526C221.108 83.6426 220.823 83.8376 220.493 83.8376C219.983 83.8376 219.728 83.6276 219.728 83.2076C219.728 83.0576 219.803 82.8776 219.953 82.6676C220.133 82.4276 220.223 82.2026 220.223 81.9926C220.223 81.0926 219.533 80.6426 218.153 80.6426C217.403 80.6426 216.653 80.8076 215.903 81.1376C215.183 81.4376 214.583 81.8426 214.103 82.3526C213.623 82.8626 213.383 83.4176 213.383 84.0176C213.383 84.6176 213.983 85.0976 215.183 85.4576L218.063 86.3576C218.933 86.6276 219.533 87.0026 219.863 87.4826C220.193 87.9326 220.358 88.4426 220.358 89.0126C220.358 90.3626 219.533 91.7576 217.883 93.1976C215.213 95.5676 212.633 96.7526 210.143 96.7526ZM223.219 98.3726C222.649 98.3726 222.364 97.9226 222.364 97.0226C222.364 95.7026 223.099 93.3926 224.569 90.0926C226.069 86.7926 228.289 82.4726 231.229 77.1326C230.089 77.1326 229.009 77.2826 227.989 77.5826C226.999 77.8526 226.474 78.1976 226.414 78.6176C226.384 78.7376 226.309 78.8576 226.189 78.9776C226.099 79.0676 225.949 79.1126 225.739 79.1126C225.259 79.1126 225.019 78.8726 225.019 78.3926C225.019 77.6126 225.634 76.9676 226.864 76.4576C228.094 75.9476 229.819 75.6926 232.039 75.6926L235.144 70.5626C235.354 70.2326 235.579 69.8726 235.819 69.4826C236.059 69.0626 236.329 68.6126 236.629 68.1326C236.929 67.7126 237.274 67.5026 237.664 67.5026C237.904 67.5026 238.084 67.5776 238.204 67.7276C238.324 67.8476 238.384 67.9826 238.384 68.1326C238.384 68.5826 237.724 69.7826 236.404 71.7326C234.754 74.1626 233.869 75.4826 233.749 75.6926C234.199 75.6926 234.874 75.7376 235.774 75.8276C236.674 75.8876 237.739 75.9926 238.969 76.1426C239.419 76.1726 239.644 76.3976 239.644 76.8176C239.644 77.2976 239.374 77.5376 238.834 77.5376C238.624 77.5376 238.204 77.5076 237.574 77.4476C236.944 77.3576 236.269 77.2826 235.549 77.2226C234.829 77.1626 234.214 77.1476 233.704 77.1776L233.029 77.2226C226.939 87.9326 223.909 94.5926 223.939 97.2026L223.984 97.5626V97.6526C223.984 98.1326 223.729 98.3726 223.219 98.3726Z" fill="#FF6265"/>
<path d="M519.862 105.257C520.257 105.682 520.897 105.749 521.292 105.406L527.73 99.8239C528.125 99.4814 528.125 98.8592 527.73 98.4343C527.335 98.0094 526.694 97.9426 526.299 98.2851L520.577 103.247L514.854 97.0917C514.459 96.6668 513.819 96.6 513.424 96.9425C513.029 97.2851 513.029 97.9073 513.424 98.3322L519.862 105.257ZM401.428 30.759C429.945 30.759 459.551 41.1804 482.019 55.686C493.249 62.9368 502.659 71.1841 509.249 79.6182C515.844 88.0581 519.565 96.6167 519.565 104.531L521.588 104.742C521.588 96.2236 517.59 87.2075 510.809 78.5289C504.023 69.8445 494.399 61.4294 483.004 54.072C460.218 39.3611 430.196 28.7825 401.212 28.7825L401.428 30.759Z" fill="#FF6265"/>
</svg>
