<svg width="74" height="64" viewBox="0 0 74 64" fill="none" xmlns="http://www.w3.org/2000/svg">
<path d="M73.3192 55.8837C73.7017 56.3294 73.6987 56.9666 73.3123 57.3069L67.0168 62.853C66.6305 63.1933 66.0072 63.1079 65.6247 62.6623C65.2421 62.2166 65.2451 61.5794 65.6315 61.2391L71.2275 56.3092L65.686 49.8537C65.3035 49.4081 65.3065 48.7709 65.6928 48.4306C66.0792 48.0902 66.7025 48.1756 67.085 48.6213L73.3192 55.8837ZM1.20002 0.999986L1.73245 0.223263C17.9463 13.0277 26.8403 25.8378 35.9814 35.7731C40.5707 40.7612 45.2441 45.0629 50.9938 48.4305C56.7391 51.7955 63.6131 54.2592 72.6245 55.4936L72.6197 56.5L72.6148 57.5063C63.3762 56.2407 56.2269 53.6988 50.1955 50.1661C44.1685 46.6361 39.3118 42.1481 34.6379 37.068C25.2524 26.867 16.6866 14.4272 0.667583 1.77671L1.20002 0.999986Z" fill="#E13939"/>
</svg>
