<svg width="362" height="146" viewBox="0 0 362 146" fill="none" xmlns="http://www.w3.org/2000/svg">
<path d="M4.54007 47.9828C2.62007 47.9828 1.66007 47.3486 1.66007 46.08C1.66007 45.2914 1.93435 44.5028 2.48292 43.7143C3.06578 42.9257 3.7515 42.2057 4.54007 41.5543C5.32864 40.9028 6.06578 40.4057 6.7515 40.0628C6.95721 39.96 7.2315 39.8571 7.57435 39.7543C7.9515 39.6514 8.26007 39.6 8.50007 39.6C8.77435 39.6 8.9115 39.7028 8.9115 39.9086C8.9115 40.08 8.72292 40.2686 8.34578 40.4743C6.76864 41.2286 5.53435 42.1371 4.64292 43.2C3.78578 44.2286 3.35721 45.0686 3.35721 45.72C3.35721 46.3371 3.88864 46.6457 4.9515 46.6457C5.84292 46.6457 6.80292 46.4228 7.8315 45.9771C8.89435 45.5314 9.88864 44.9486 10.8144 44.2286C11.7744 43.5086 12.5629 42.7371 13.1801 41.9143C13.7972 41.0914 14.1058 40.3028 14.1058 39.5486C14.1058 39.0343 13.9344 38.5714 13.5915 38.16C13.2829 37.7486 12.7686 37.44 12.0486 37.2343L8.65435 36.2057C7.79721 35.9314 7.18007 35.5714 6.80292 35.1257C6.42578 34.68 6.23721 34.1828 6.23721 33.6343C6.23721 32.6057 6.61435 31.68 7.36864 30.8571C8.15721 30.0343 9.13435 29.3828 10.3001 28.9028C11.4658 28.4228 12.5972 28.1828 13.6944 28.1828C14.7915 28.1828 15.7515 28.4571 16.5744 29.0057C17.3972 29.52 17.8086 30.2228 17.8086 31.1143C17.8086 31.6286 17.6544 32.1086 17.3458 32.5543C17.0715 33 16.7458 33.2228 16.3686 33.2228C15.7858 33.2228 15.4944 32.9828 15.4944 32.5028C15.4944 32.3314 15.5801 32.1257 15.7515 31.8857C15.9572 31.6114 16.0601 31.3543 16.0601 31.1143C16.0601 30.0857 15.2715 29.5714 13.6944 29.5714C12.8372 29.5714 11.9801 29.76 11.1229 30.1371C10.3001 30.48 9.61435 30.9428 9.06578 31.5257C8.51721 32.1086 8.24292 32.7428 8.24292 33.4286C8.24292 34.1143 8.92864 34.6628 10.3001 35.0743L13.5915 36.1028C14.5858 36.4114 15.2715 36.84 15.6486 37.3886C16.0258 37.9028 16.2144 38.4857 16.2144 39.1371C16.2144 40.68 15.2715 42.2743 13.3858 43.92C10.3344 46.6286 7.38578 47.9828 4.54007 47.9828ZM19.4837 49.8343C18.8323 49.8343 18.5065 49.32 18.5065 48.2914C18.5065 46.7828 19.3465 44.1428 21.0265 40.3714C22.7408 36.6 25.278 31.6628 28.638 25.56C27.3351 25.56 26.1008 25.7314 24.9351 26.0743C23.8037 26.3828 23.2037 26.7771 23.1351 27.2571C23.1008 27.3943 23.0151 27.5314 22.878 27.6686C22.7751 27.7714 22.6037 27.8228 22.3637 27.8228C21.8151 27.8228 21.5408 27.5486 21.5408 27C21.5408 26.1086 22.2437 25.3714 23.6494 24.7886C25.0551 24.2057 27.0265 23.9143 29.5637 23.9143L33.1123 18.0514C33.3523 17.6743 33.6094 17.2628 33.8837 16.8171C34.158 16.3371 34.4665 15.8228 34.8094 15.2743C35.1523 14.7943 35.5465 14.5543 35.9923 14.5543C36.2665 14.5543 36.4723 14.64 36.6094 14.8114C36.7465 14.9486 36.8151 15.1028 36.8151 15.2743C36.8151 15.7886 36.0608 17.16 34.5523 19.3886C32.6665 22.1657 31.6551 23.6743 31.518 23.9143C32.0323 23.9143 32.8037 23.9657 33.8323 24.0686C34.8608 24.1371 36.078 24.2571 37.4837 24.4286C37.998 24.4628 38.2551 24.72 38.2551 25.2C38.2551 25.7486 37.9465 26.0228 37.3294 26.0228C37.0894 26.0228 36.6094 25.9886 35.8894 25.92C35.1694 25.8171 34.398 25.7314 33.5751 25.6628C32.7523 25.5943 32.0494 25.5771 31.4665 25.6114L30.6951 25.6628C23.7351 37.9028 20.2723 45.5143 20.3065 48.4971L20.358 48.9086V49.0114C20.358 49.56 20.0665 49.8343 19.4837 49.8343ZM36.3273 47.2114C34.8873 47.2114 33.7559 46.7143 32.9331 45.72C32.1102 44.7257 31.6988 43.5086 31.6988 42.0686C31.6988 39.6 32.5216 37.0628 34.1673 34.4571C34.6131 33.7371 35.1273 33.0343 35.7102 32.3486C36.2931 31.6286 36.9273 30.9428 37.6131 30.2914C38.6416 29.2971 39.7216 28.4743 40.8531 27.8228C41.9845 27.1714 43.0816 26.8457 44.1445 26.8457C45.8931 26.8457 46.7673 27.6686 46.7673 29.3143C46.7673 31.3714 45.5673 33.24 43.1673 34.92C40.9388 36.4286 38.7445 37.1828 36.5845 37.1828C36.2073 37.1828 35.8645 37.1657 35.5559 37.1314C35.2816 37.0628 35.0245 36.9943 34.7845 36.9257C34.4416 37.5771 34.1331 38.4171 33.8588 39.4457C33.5845 40.4743 33.4473 41.3657 33.4473 42.12C33.4473 44.3828 34.4416 45.5143 36.4302 45.5143C38.0416 45.5143 39.5673 45.24 41.0073 44.6914C42.4473 44.1086 44.1616 43.0286 46.1502 41.4514C47.3845 40.4914 48.3102 39.72 48.9273 39.1371C49.5445 38.5543 50.2131 37.9371 50.9331 37.2857C51.1388 37.1486 51.3273 37.08 51.4988 37.08C51.6702 37.08 51.8416 37.1314 52.0131 37.2343C52.1845 37.3371 52.2702 37.4914 52.2702 37.6971C52.2702 38.0743 51.9273 38.6057 51.2416 39.2914C50.6588 39.84 50.0416 40.4228 49.3902 41.04C48.7388 41.6228 47.7102 42.4457 46.3045 43.5086C44.7959 44.6743 43.1502 45.5828 41.3673 46.2343C39.5845 46.8857 37.9045 47.2114 36.3273 47.2114ZM36.2759 35.5371C37.3731 35.5371 38.4188 35.3657 39.4131 35.0228C40.4073 34.68 41.3502 34.1828 42.2416 33.5314C44.2302 32.0571 45.2245 30.6686 45.2245 29.3657C45.2245 28.7828 44.8645 28.4914 44.1445 28.4914C42.7731 28.4914 41.1788 29.3314 39.3616 31.0114C38.4702 31.8343 37.7331 32.5886 37.1502 33.2743C36.6016 33.9257 36.0873 34.6457 35.6073 35.4343C35.8131 35.5028 36.0359 35.5371 36.2759 35.5371ZM46.5391 60.48C44.9277 60.48 44.122 59.3314 44.122 57.0343C44.122 54.0171 45.442 49.2171 48.082 42.6343C48.5277 41.5371 49.0591 40.3886 49.6763 39.1886C50.2934 37.9886 51.0134 36.72 51.8363 35.3828C52.6934 33.9428 53.4991 32.6914 54.2534 31.6286C55.042 30.5657 55.7277 29.7086 56.3106 29.0571C56.5163 28.8514 56.6877 28.7143 56.8248 28.6457C56.9963 28.5771 57.1334 28.5428 57.2363 28.5428C58.1277 28.5428 59.1391 28.8 60.2706 29.3143C61.402 29.8286 62.4134 30.48 63.3048 31.2686C64.1277 31.9543 64.7963 32.7771 65.3106 33.7371C65.8248 34.6971 66.082 35.6914 66.082 36.72C66.082 37.4743 65.9277 38.2457 65.6191 39.0343C65.3448 39.7886 64.9677 40.5428 64.4877 41.2971C65.3791 41.1257 66.4591 40.7314 67.7277 40.1143C69.0306 39.4971 70.3506 38.5543 71.6877 37.2857C71.8248 37.1486 72.0134 37.08 72.2534 37.08C72.7677 37.08 73.0248 37.2857 73.0248 37.6971C73.0248 37.8686 72.9391 38.0914 72.7677 38.3657C72.6306 38.6057 72.3734 38.9143 71.9963 39.2914C69.4591 41.6228 66.4077 42.96 62.842 43.3028C62.3277 43.8514 61.762 44.3828 61.1448 44.8971C60.562 45.3771 59.9448 45.8228 59.2934 46.2343C57.3048 47.4343 55.6077 48.0343 54.202 48.0343C53.6191 48.0343 53.1391 47.8457 52.762 47.4686C52.3848 47.0914 52.1963 46.6628 52.1963 46.1828C52.1963 44.6057 53.5677 43.4057 56.3106 42.5828C57.3048 42.3086 58.2991 42.0686 59.2934 41.8628C60.2877 41.6571 61.2648 41.4343 62.2248 41.1943C62.9106 40.1314 63.4077 39.2057 63.7163 38.4171C64.0591 37.6286 64.2306 36.96 64.2306 36.4114C64.2306 34.5943 62.8763 32.8628 60.1677 31.2171C59.1048 30.5657 58.2648 30.2571 57.6477 30.2914C54.8363 33.3771 52.1791 37.6971 49.6763 43.2514C47.0706 48.9771 45.7677 53.4857 45.7677 56.7771C45.7677 57.5657 45.8363 58.0971 45.9734 58.3714C46.1106 58.6457 46.3506 58.7828 46.6934 58.7828C46.7963 58.7828 46.882 58.7657 46.9506 58.7314C47.0191 58.7314 47.0877 58.7314 47.1563 58.7314C47.602 58.7314 47.8248 59.0057 47.8248 59.5543C47.8248 60.1714 47.3963 60.48 46.5391 60.48ZM54.562 46.3886C55.8306 46.3886 57.6648 45.3943 60.0648 43.4057C59.5163 43.4743 58.9848 43.56 58.4706 43.6628C57.9906 43.7657 57.2877 43.9543 56.362 44.2286C54.8191 44.6743 54.0477 45.24 54.0477 45.9257C54.0477 46.2343 54.2191 46.3886 54.562 46.3886ZM95.88 26.0228C95.2972 26.0228 95.0057 25.7314 95.0057 25.1486C95.0057 24.9771 95.1257 24.6686 95.3657 24.2228C95.6057 23.7428 95.88 23.2628 96.1886 22.7828C96.4972 22.3028 96.7372 21.9771 96.9086 21.8057C97.4914 21.1543 97.9372 20.7428 98.2457 20.5714C98.5886 20.4 98.8972 20.3143 99.1714 20.3143C99.8914 20.3143 100.251 20.64 100.251 21.2914C100.251 21.5314 100.097 21.8228 99.7886 22.1657C99.5143 22.4743 99.1886 22.7657 98.8114 23.04C98.2629 23.3828 97.92 23.6571 97.7829 23.8628L96.6514 25.4571C96.6172 25.5943 96.5314 25.7314 96.3943 25.8686C96.2914 25.9714 96.12 26.0228 95.88 26.0228ZM87.1372 46.8514C86.1772 46.8514 85.4743 46.6628 85.0286 46.2857C84.6172 45.9086 84.4114 45.3428 84.4114 44.5886C84.4114 43.8686 84.6343 42.8914 85.08 41.6571C85.5257 40.3886 86.0914 39.0343 86.7772 37.5943C87.4972 36.1543 88.2514 34.7828 89.04 33.48C89.8286 32.1771 90.5829 31.1143 91.3029 30.2914C92.0572 29.4343 92.6572 29.0057 93.1029 29.0057C93.72 29.0057 94.0286 29.28 94.0286 29.8286C94.0286 30.1714 93.7372 30.8228 93.1543 31.7828C92.5714 32.7428 91.9372 33.7371 91.2514 34.7657C90.9772 35.1428 90.6 35.6571 90.12 36.3086C89.64 36.96 89.1772 37.5771 88.7314 38.16C88.2857 38.7086 87.9943 39.0857 87.8572 39.2914C87.5143 39.8057 87.1543 40.6457 86.7772 41.8114C86.3657 42.9771 86.16 43.8686 86.16 44.4857C86.16 44.76 86.2114 44.9657 86.3143 45.1028C86.4514 45.24 86.7429 45.3086 87.1886 45.3086C88.0457 45.3086 89.0057 45.0343 90.0686 44.4857C91.1314 43.9371 92.2114 43.2514 93.3086 42.4286C94.4057 41.5714 95.4343 40.6971 96.3943 39.8057C97.3886 38.9143 98.2286 38.1428 98.9143 37.4914C99.0514 37.3543 99.2572 37.2857 99.5314 37.2857C100.046 37.2857 100.303 37.4914 100.303 37.9028C100.303 38.28 100.063 38.7086 99.5829 39.1886C98.6572 40.1143 97.8 40.9371 97.0114 41.6571C96.2229 42.3771 95.4686 43.0114 94.7486 43.56C93.6172 44.3828 92.3657 45.1371 90.9943 45.8228C89.6229 46.5086 88.3372 46.8514 87.1372 46.8514ZM95.5787 47.5714C95.0301 47.5714 94.7558 47.3486 94.7558 46.9028C94.7558 46.7314 94.8244 46.5257 94.9615 46.2857C95.0987 46.0114 95.2187 45.7886 95.3215 45.6171L99.9501 36.3086C101.939 32.2628 102.933 30.0171 102.933 29.5714C102.933 29.0914 103.173 28.8514 103.653 28.8514C104.304 28.8514 104.63 29.1943 104.63 29.88C104.63 30.12 104.476 30.6343 104.167 31.4228C103.859 32.2114 103.464 33.1028 102.984 34.0971C102.162 35.88 101.476 37.2514 100.927 38.2114C101.956 37.0114 103.002 35.88 104.064 34.8171C105.127 33.7543 106.207 32.7428 107.304 31.7828C110.562 28.9371 113.064 27.5143 114.813 27.5143C116.013 27.5143 116.613 28.08 116.613 29.2114C116.613 30.24 115.739 32.5543 113.99 36.1543C112.242 39.7886 111.367 42.0857 111.367 43.0457C111.367 43.4914 111.522 43.7143 111.83 43.7143C111.933 43.7143 112.087 43.68 112.293 43.6114C112.533 43.5086 112.773 43.4571 113.013 43.4571C113.596 43.4571 113.887 43.7314 113.887 44.28C113.887 44.9657 113.15 45.3086 111.676 45.3086C110.99 45.3086 110.493 45.1543 110.184 44.8457C109.876 44.5028 109.722 44.0571 109.722 43.5086C109.722 41.8628 110.562 39.36 112.242 36C113.922 32.6743 114.762 30.6686 114.762 29.9828C114.762 29.5714 114.607 29.3657 114.299 29.3657C113.544 29.3657 112.327 30 110.647 31.2686C108.83 32.64 107.013 34.2171 105.196 36C103.379 37.7828 101.647 39.8228 100.002 42.12L96.4015 47.1086C96.1958 47.4171 95.9215 47.5714 95.5787 47.5714ZM118.694 46.2857C117.768 46.2857 117.305 45.8571 117.305 45C117.305 44.0743 117.734 43.6114 118.591 43.6114C119.517 43.6114 119.98 44.04 119.98 44.8971C119.98 45.8228 119.551 46.2857 118.694 46.2857ZM141.298 47.9828C139.378 47.9828 138.418 47.3486 138.418 46.08C138.418 45.2914 138.692 44.5028 139.241 43.7143C139.824 42.9257 140.509 42.2057 141.298 41.5543C142.086 40.9028 142.824 40.4057 143.509 40.0628C143.715 39.96 143.989 39.8571 144.332 39.7543C144.709 39.6514 145.018 39.6 145.258 39.6C145.532 39.6 145.669 39.7028 145.669 39.9086C145.669 40.08 145.481 40.2686 145.104 40.4743C143.526 41.2286 142.292 42.1371 141.401 43.2C140.544 44.2286 140.115 45.0686 140.115 45.72C140.115 46.3371 140.646 46.6457 141.709 46.6457C142.601 46.6457 143.561 46.4228 144.589 45.9771C145.652 45.5314 146.646 44.9486 147.572 44.2286C148.532 43.5086 149.321 42.7371 149.938 41.9143C150.555 41.0914 150.864 40.3028 150.864 39.5486C150.864 39.0343 150.692 38.5714 150.349 38.16C150.041 37.7486 149.526 37.44 148.806 37.2343L145.412 36.2057C144.555 35.9314 143.938 35.5714 143.561 35.1257C143.184 34.68 142.995 34.1828 142.995 33.6343C142.995 32.6057 143.372 31.68 144.126 30.8571C144.915 30.0343 145.892 29.3828 147.058 28.9028C148.224 28.4228 149.355 28.1828 150.452 28.1828C151.549 28.1828 152.509 28.4571 153.332 29.0057C154.155 29.52 154.566 30.2228 154.566 31.1143C154.566 31.6286 154.412 32.1086 154.104 32.5543C153.829 33 153.504 33.2228 153.126 33.2228C152.544 33.2228 152.252 32.9828 152.252 32.5028C152.252 32.3314 152.338 32.1257 152.509 31.8857C152.715 31.6114 152.818 31.3543 152.818 31.1143C152.818 30.0857 152.029 29.5714 150.452 29.5714C149.595 29.5714 148.738 29.76 147.881 30.1371C147.058 30.48 146.372 30.9428 145.824 31.5257C145.275 32.1086 145.001 32.7428 145.001 33.4286C145.001 34.1143 145.686 34.6628 147.058 35.0743L150.349 36.1028C151.344 36.4114 152.029 36.84 152.406 37.3886C152.784 37.9028 152.972 38.4857 152.972 39.1371C152.972 40.68 152.029 42.2743 150.144 43.92C147.092 46.6286 144.144 47.9828 141.298 47.9828ZM156.241 49.8343C155.59 49.8343 155.264 49.32 155.264 48.2914C155.264 46.7828 156.104 44.1428 157.784 40.3714C159.499 36.6 162.036 31.6628 165.396 25.56C164.093 25.56 162.859 25.7314 161.693 26.0743C160.561 26.3828 159.961 26.7771 159.893 27.2571C159.859 27.3943 159.773 27.5314 159.636 27.6686C159.533 27.7714 159.361 27.8228 159.121 27.8228C158.573 27.8228 158.299 27.5486 158.299 27C158.299 26.1086 159.001 25.3714 160.407 24.7886C161.813 24.2057 163.784 23.9143 166.321 23.9143L169.87 18.0514C170.11 17.6743 170.367 17.2628 170.641 16.8171C170.916 16.3371 171.224 15.8228 171.567 15.2743C171.91 14.7943 172.304 14.5543 172.75 14.5543C173.024 14.5543 173.23 14.64 173.367 14.8114C173.504 14.9486 173.573 15.1028 173.573 15.2743C173.573 15.7886 172.819 17.16 171.31 19.3886C169.424 22.1657 168.413 23.6743 168.276 23.9143C168.79 23.9143 169.561 23.9657 170.59 24.0686C171.619 24.1371 172.836 24.2571 174.241 24.4286C174.756 24.4628 175.013 24.72 175.013 25.2C175.013 25.7486 174.704 26.0228 174.087 26.0228C173.847 26.0228 173.367 25.9886 172.647 25.92C171.927 25.8171 171.156 25.7314 170.333 25.6628C169.51 25.5943 168.807 25.5771 168.224 25.6114L167.453 25.6628C160.493 37.9028 157.03 45.5143 157.064 48.4971L157.116 48.9086V49.0114C157.116 49.56 156.824 49.8343 156.241 49.8343ZM170.154 46.8C168.165 46.8 167.171 45.8571 167.171 43.9714C167.171 42.7371 167.462 41.4171 168.045 40.0114C168.662 38.5714 169.485 37.1828 170.514 35.8457C171.542 34.4743 172.691 33.24 173.959 32.1428C175.228 31.0114 176.531 30.12 177.868 29.4686C179.205 28.7828 180.491 28.44 181.725 28.44C183.919 28.44 185.017 29.52 185.017 31.68C185.017 33.0857 184.674 33.7886 183.988 33.7886C183.371 33.7886 183.062 33.4971 183.062 32.9143C183.062 32.6743 183.114 32.4343 183.217 32.1943C183.354 31.92 183.422 31.6286 183.422 31.32C183.422 30.36 182.771 29.88 181.468 29.88C179.377 29.88 176.754 31.4743 173.599 34.6628C172.845 35.4514 172.108 36.3771 171.388 37.44C170.668 38.5028 170.068 39.5828 169.588 40.68C169.142 41.7428 168.919 42.7543 168.919 43.7143C168.919 44.64 169.434 45.1028 170.462 45.1028C171.354 45.1028 172.297 44.8286 173.291 44.28C174.319 43.7314 175.211 43.1657 175.965 42.5828C177.474 41.4514 179.017 39.9086 180.594 37.9543C180.834 37.68 181.142 37.32 181.519 36.8743C181.897 36.4286 182.325 35.9314 182.805 35.3828C182.977 35.2114 183.182 35.1257 183.422 35.1257C183.971 35.1257 184.245 35.4 184.245 35.9486L182.291 38.88C180.988 40.8 180.337 42.3771 180.337 43.6114C180.337 44.5028 180.765 44.9486 181.622 44.9486C182.342 44.9486 183.131 44.76 183.988 44.3828C184.845 44.0057 185.548 43.6286 186.097 43.2514C187.194 42.5314 188.342 41.64 189.542 40.5771C190.742 39.48 191.891 38.3828 192.988 37.2857C193.125 37.1486 193.331 37.08 193.605 37.08C194.119 37.08 194.377 37.2857 194.377 37.6971C194.377 38.0743 194.137 38.5028 193.657 38.9828C192.285 40.3543 191.051 41.5371 189.954 42.5314C188.857 43.4914 187.811 44.28 186.817 44.8971C186.165 45.2743 185.359 45.6686 184.399 46.08C183.439 46.4914 182.342 46.6971 181.108 46.6971C179.428 46.6971 178.588 45.8057 178.588 44.0228C178.588 43.3371 178.674 42.7714 178.845 42.3257C175.725 45.3086 172.828 46.8 170.154 46.8ZM189.496 47.5714C188.948 47.5714 188.673 47.3486 188.673 46.9028C188.673 46.7314 188.742 46.5257 188.879 46.2857C189.016 46.0114 189.136 45.7886 189.239 45.6171L193.868 36.3086C195.856 32.2628 196.85 30.0171 196.85 29.5714C196.85 29.0914 197.09 28.8514 197.57 28.8514C198.222 28.8514 198.548 29.1943 198.548 29.88C198.548 30.12 198.393 30.6343 198.085 31.4228C197.776 32.2114 197.382 33.1028 196.902 34.0971C196.079 35.88 195.393 37.2514 194.845 38.2114C195.873 37.0114 196.919 35.88 197.982 34.8171C199.045 33.7543 200.125 32.7428 201.222 31.7828C204.479 28.9371 206.982 27.5143 208.73 27.5143C209.93 27.5143 210.53 28.08 210.53 29.2114C210.53 30.24 209.656 32.5543 207.908 36.1543C206.159 39.7886 205.285 42.0857 205.285 43.0457C205.285 43.4914 205.439 43.7143 205.748 43.7143C205.85 43.7143 206.005 43.68 206.21 43.6114C206.45 43.5086 206.69 43.4571 206.93 43.4571C207.513 43.4571 207.805 43.7314 207.805 44.28C207.805 44.9657 207.068 45.3086 205.593 45.3086C204.908 45.3086 204.41 45.1543 204.102 44.8457C203.793 44.5028 203.639 44.0571 203.639 43.5086C203.639 41.8628 204.479 39.36 206.159 36C207.839 32.6743 208.679 30.6686 208.679 29.9828C208.679 29.5714 208.525 29.3657 208.216 29.3657C207.462 29.3657 206.245 30 204.565 31.2686C202.748 32.64 200.93 34.2171 199.113 36C197.296 37.7828 195.565 39.8228 193.919 42.12L190.319 47.1086C190.113 47.4171 189.839 47.5714 189.496 47.5714ZM228.348 50.8628C228.074 50.8628 227.731 50.7257 227.32 50.4514C226.943 50.2114 226.651 49.9714 226.446 49.7314C226.034 49.2171 225.76 48.6 225.623 47.88C225.486 47.16 225.417 46.3714 225.417 45.5143C225.417 44.7943 225.434 44.0228 225.468 43.2C225.537 42.3428 225.64 41.4343 225.777 40.4743C224.886 41.5028 223.874 42.5143 222.743 43.5086C221.646 44.4686 220.514 45.2571 219.348 45.8743C218.217 46.4914 217.137 46.8 216.108 46.8C213.537 46.8 212.251 45.4286 212.251 42.6857C212.251 39.84 213.246 37.0971 215.234 34.4571C216.228 33.1543 217.36 31.9028 218.628 30.7028C219.897 29.5028 221.234 28.5257 222.64 27.7714C224.046 27.0171 225.434 26.64 226.806 26.64C227.834 26.64 228.743 27.0343 229.531 27.8228C229.6 27.6857 229.686 27.4628 229.788 27.1543C229.926 26.8457 230.114 26.4514 230.354 25.9714C231.177 24.1886 232.086 22.3371 233.08 20.4171C234.074 18.4628 234.965 16.8514 235.754 15.5828C236.646 14.1771 237.486 13.4743 238.274 13.4743C238.823 13.4743 239.097 13.9028 239.097 14.76C239.097 16.2343 237.708 19.68 234.931 25.0971C234.76 25.4057 234.451 25.9714 234.006 26.7943C233.594 27.5828 233.097 28.5086 232.514 29.5714C231.966 30.6 231.4 31.6286 230.817 32.6571C230.234 33.6857 229.703 34.6114 229.223 35.4343C228.777 36.2228 228.451 36.7714 228.246 37.08C227.868 38.6228 227.577 40.0971 227.371 41.5028C227.166 42.8743 227.063 44.2971 227.063 45.7714C227.063 46.32 227.08 46.8171 227.114 47.2628C227.183 47.7428 227.32 48.12 227.526 48.3943C227.697 48.6 227.886 48.7543 228.091 48.8571C228.297 48.9943 228.537 49.1143 228.811 49.2171C229.223 49.32 229.428 49.56 229.428 49.9371C229.428 50.5543 229.068 50.8628 228.348 50.8628ZM230.765 29.3657C232.068 27.1371 233.217 25.0628 234.211 23.1428C235.206 21.1886 236.011 19.3543 236.628 17.64C235.257 19.4228 234.108 21.3086 233.183 23.2971C232.257 25.2857 231.451 27.3086 230.765 29.3657ZM215.748 45.2571C216.743 45.2571 217.788 44.9314 218.886 44.28C220.017 43.5943 221.08 42.7886 222.074 41.8628C222.966 41.04 223.788 40.2 224.543 39.3428C225.297 38.4514 226 37.5428 226.651 36.6171C226.926 35.4171 227.234 34.2343 227.577 33.0686C227.954 31.9028 228.366 30.7371 228.811 29.5714C228.263 28.7143 227.491 28.2857 226.497 28.2857C225.468 28.2857 224.32 28.68 223.051 29.4686C221.817 30.2228 220.617 31.1657 219.451 32.2971C218.32 33.4286 217.343 34.5086 216.52 35.5371C214.806 37.8343 213.948 40.2686 213.948 42.84C213.948 44.4514 214.548 45.2571 215.748 45.2571ZM252.013 46.0286C249.236 46.0286 247.847 44.4686 247.847 41.3486C247.847 39.9086 248.19 38.4 248.876 36.8228C249.562 35.2457 250.47 33.7886 251.602 32.4514C252.733 31.08 253.985 29.9657 255.356 29.1086C256.762 28.2514 258.185 27.8228 259.625 27.8228C260.893 27.8228 261.819 28.3028 262.402 29.2628C262.985 30.2228 263.276 31.2857 263.276 32.4514C263.276 33.9943 262.967 35.5714 262.35 37.1828C261.733 38.76 260.893 40.2171 259.83 41.5543C258.767 42.8914 257.567 43.9714 256.23 44.7943C254.893 45.6171 253.487 46.0286 252.013 46.0286ZM251.962 44.3828C252.167 44.3828 252.287 44.3657 252.322 44.3314C253.659 44.16 254.893 43.68 256.025 42.8914C257.156 42.1028 258.133 41.1257 258.956 39.96C259.813 38.76 260.465 37.4743 260.91 36.1028C261.356 34.7314 261.579 33.3771 261.579 32.04C261.579 31.2514 261.356 30.6343 260.91 30.1886C260.465 29.7428 259.899 29.52 259.213 29.52C258.219 29.52 257.156 29.9314 256.025 30.7543C254.927 31.5771 253.882 32.6228 252.887 33.8914C251.927 35.16 251.139 36.4971 250.522 37.9028C249.905 39.2743 249.596 40.5086 249.596 41.6057C249.596 43.4571 250.385 44.3828 251.962 44.3828ZM279.322 48.0343C277.642 48.0343 276.802 46.8171 276.802 44.3828C276.802 43.08 277.111 41.5028 277.728 39.6514C273.579 44.4857 270.322 46.9028 267.956 46.9028C266.002 46.9028 265.025 45.72 265.025 43.3543C265.025 42.4628 265.162 41.4 265.436 40.1657C265.745 38.8971 266.139 37.5943 266.619 36.2571C267.134 34.92 267.682 33.6686 268.265 32.5028C268.848 31.3371 269.431 30.3943 270.014 29.6743C270.219 29.4343 270.476 29.3143 270.785 29.3143C270.956 29.3143 271.128 29.3828 271.299 29.52C271.471 29.6228 271.556 29.7943 271.556 30.0343C271.556 30.24 271.436 30.5314 271.196 30.9086C269.654 33.4457 268.556 35.6571 267.905 37.5428C267.082 39.7028 266.671 41.5714 266.671 43.1486C266.671 44.6228 267.048 45.36 267.802 45.36C268.282 45.36 268.916 45.12 269.705 44.64C270.494 44.16 271.299 43.5771 272.122 42.8914C272.979 42.1714 273.716 41.5028 274.334 40.8857C276.048 39.0686 277.591 37.1314 278.962 35.0743C279.579 34.1143 280.128 33.1886 280.608 32.2971C281.122 31.3714 281.585 30.4114 281.996 29.4171C282.168 29.04 282.305 28.7657 282.408 28.5943C282.545 28.3886 282.734 28.2857 282.974 28.2857C283.694 28.2857 284.054 28.56 284.054 29.1086C284.054 29.4514 283.934 29.6914 283.694 29.8286C280.196 36.9257 278.448 41.8114 278.448 44.4857C278.448 45.2057 278.516 45.72 278.654 46.0286C278.791 46.3028 279.031 46.44 279.374 46.44C279.854 46.44 280.591 46.1314 281.585 45.5143C282.614 44.8971 283.814 43.9543 285.185 42.6857L290.585 37.7486C290.859 37.4743 291.116 37.3371 291.356 37.3371C291.905 37.3371 292.179 37.5943 292.179 38.1086C292.179 38.5543 291.099 39.7543 288.939 41.7086C288.014 42.5657 287.191 43.2857 286.471 43.8686C285.751 44.4514 285.082 44.9657 284.465 45.4114C283.299 46.2343 282.271 46.8686 281.379 47.3143C280.488 47.7943 279.802 48.0343 279.322 48.0343ZM289.132 49.8343C288.481 49.8343 288.155 49.32 288.155 48.2914C288.155 46.7828 288.995 44.1428 290.675 40.3714C292.389 36.6 294.926 31.6628 298.286 25.56C296.984 25.56 295.749 25.7314 294.584 26.0743C293.452 26.3828 292.852 26.7771 292.784 27.2571C292.749 27.3943 292.664 27.5314 292.526 27.6686C292.424 27.7714 292.252 27.8228 292.012 27.8228C291.464 27.8228 291.189 27.5486 291.189 27C291.189 26.1086 291.892 25.3714 293.298 24.7886C294.704 24.2057 296.675 23.9143 299.212 23.9143L302.761 18.0514C303.001 17.6743 303.258 17.2628 303.532 16.8171C303.806 16.3371 304.115 15.8228 304.458 15.2743C304.801 14.7943 305.195 14.5543 305.641 14.5543C305.915 14.5543 306.121 14.64 306.258 14.8114C306.395 14.9486 306.464 15.1028 306.464 15.2743C306.464 15.7886 305.709 17.16 304.201 19.3886C302.315 22.1657 301.304 23.6743 301.166 23.9143C301.681 23.9143 302.452 23.9657 303.481 24.0686C304.509 24.1371 305.726 24.2571 307.132 24.4286C307.646 24.4628 307.904 24.72 307.904 25.2C307.904 25.7486 307.595 26.0228 306.978 26.0228C306.738 26.0228 306.258 25.9886 305.538 25.92C304.818 25.8171 304.046 25.7314 303.224 25.6628C302.401 25.5943 301.698 25.5771 301.115 25.6114L300.344 25.6628C293.384 37.9028 289.921 45.5143 289.955 48.4971L290.006 48.9086V49.0114C290.006 49.56 289.715 49.8343 289.132 49.8343ZM301.707 46.2857C300.781 46.2857 300.319 45.8571 300.319 45C300.319 44.0743 300.747 43.6114 301.604 43.6114C302.53 43.6114 302.993 44.04 302.993 44.8971C302.993 45.8228 302.564 46.2857 301.707 46.2857Z" fill="#E13939"/>
<path d="M359.649 137.296C360.086 137.805 360.083 138.533 359.641 138.922L352.446 145.26C352.005 145.649 351.293 145.552 350.855 145.043C350.418 144.533 350.422 143.805 350.863 143.416L357.259 137.782L350.925 130.404C350.488 129.895 350.492 129.167 350.933 128.778C351.375 128.389 352.087 128.486 352.524 128.996L359.649 137.296ZM277.227 74.5714L277.836 73.6837C296.366 88.3173 306.53 102.957 316.977 114.312C322.222 120.013 327.563 124.929 334.134 128.778C340.7 132.623 348.556 135.439 358.855 136.85L358.85 138L358.844 139.15C348.286 137.704 340.115 134.799 333.222 130.761C326.334 126.727 320.784 121.598 315.442 115.792C304.716 104.134 294.926 89.9168 276.619 75.4591L277.227 74.5714Z" fill="#E13939"/>
</svg>
